<?xml version="1.0" encoding="UTF-8"?>
<svg xmlns="http://www.w3.org/2000/svg" xmlns:xlink="http://www.w3.org/1999/xlink" width="564.790695pt" height="2258.386047pt" viewBox="0 0 564.790695 2258.386047" version="1.1">
<defs>
<clipPath id="clip1">
  <path d="M 475 0 L 483 0 L 483 2258.386719 L 475 2258.386719 Z M 475 0 "/>
</clipPath>
<clipPath id="clip2">
  <path d="M 421 0 L 429 0 L 429 2258.386719 L 421 2258.386719 Z M 421 0 "/>
</clipPath>
<clipPath id="clip3">
  <path d="M 136 0 L 144 0 L 144 2258.386719 L 136 2258.386719 Z M 136 0 "/>
</clipPath>
<clipPath id="clip4">
  <path d="M 82 0 L 90 0 L 90 2258.386719 L 82 2258.386719 Z M 82 0 "/>
</clipPath>
<clipPath id="clip5">
  <path d="M 298 841 L 564.789062 841 L 564.789062 1417 L 298 1417 Z M 298 841 "/>
</clipPath>
</defs>
<g id="surface1">
<path style=" stroke:none;fill-rule:nonzero;fill:rgb(100%,100%,100%);fill-opacity:1;" d="M 488.21875 2186.039062 L 447.59375 2226.3125 L 402.023438 2247.863281 L 156.144531 1982.554688 L 111.988281 1998.453125 L 68.886719 2049.324219 L 68.886719 227.816406 L 84.933594 233.8125 L 107.164062 259.542969 L 147.632812 274.78125 L 414.417969 15.988281 L 490.855469 75.6875 Z M 488.21875 2186.039062 "/>
<path style=" stroke:none;fill-rule:nonzero;fill:rgb(0%,0%,0%);fill-opacity:1;" d="M 57.832031 1514.855469 C 45.914062 1518.3125 5.886719 1528.21875 19.820312 1507.390625 C 27.304688 1483.375 33.417969 1455.996094 56.382812 1441.613281 C 63.398438 1433.554688 98.730469 1430.023438 72.914062 1423.671875 C 50.9375 1420.015625 59.238281 1397.828125 77.15625 1396.46875 C 70.464844 1402.332031 66.351562 1412.414062 76.699219 1400.890625 C 82.804688 1392.738281 98.105469 1387.050781 84.625 1399.023438 C 66.792969 1419.292969 96.386719 1393.113281 101.027344 1386.007812 C 110.605469 1380.070312 117.824219 1375.519531 106.480469 1387.226562 C 100.210938 1393.21875 79.855469 1418.324219 99.03125 1399.808594 C 110.863281 1388.269531 129.226562 1364.539062 137.539062 1362.066406 C 127.867188 1374.484375 117.234375 1386.300781 107.691406 1398.707031 C 118.394531 1392.449219 128.742188 1376.574219 138.90625 1366.46875 C 146.820312 1360.59375 165.460938 1328.097656 155.953125 1352.316406 C 150.347656 1372.628906 146.992188 1394.371094 132.316406 1410.617188 C 124.613281 1419.269531 124.144531 1426.394531 133.058594 1413.515625 C 138.617188 1407.003906 148.003906 1391.910156 141.453125 1409.386719 C 137.839844 1415.859375 126.089844 1435.835938 138.628906 1419.269531 C 140.582031 1422.835938 128.546875 1447.207031 123.8125 1458.574219 C 116.171875 1473.949219 105.082031 1488.070312 89.050781 1495.277344 C 114.359375 1493.121094 131.261719 1453.363281 136.140625 1444.824219 C 131.480469 1476.140625 107.253906 1502.378906 78.277344 1513.765625 C 103.625 1511.472656 122.5625 1489.699219 134.503906 1468.847656 C 124.933594 1498.230469 101.714844 1521.894531 72.570312 1532.078125 C 84.398438 1535.101562 108.078125 1519.144531 118.265625 1506.945312 C 125.269531 1500.925781 142.355469 1468.136719 132.347656 1491.097656 C 119.601562 1517.578125 96.597656 1542.59375 66.3125 1546.222656 C 87.746094 1549.132812 109.054688 1533.761719 121.933594 1517.125 C 127.554688 1510.820312 137.539062 1492.851562 129.636719 1510.066406 C 121.691406 1528.535156 106.390625 1543.53125 88.863281 1552.292969 C 105.691406 1550.136719 120.664062 1535.882812 129.476562 1521.300781 C 134.347656 1512.886719 140.277344 1498.886719 134.117188 1516.921875 C 125.894531 1536.753906 111.5 1556.253906 90.363281 1563.105469 C 105.054688 1565.101562 121.574219 1549.039062 129.902344 1536.144531 C 123.265625 1552.085938 112.527344 1570.992188 93.324219 1571.929688 C 107.515625 1579.101562 125.886719 1557.152344 128.140625 1554.792969 C 122.074219 1572.765625 95.011719 1588.863281 79.585938 1573.828125 C 78.617188 1565.4375 89.332031 1551.613281 72.988281 1558.347656 C 63.800781 1562.75 45.390625 1553.210938 64.441406 1555.753906 C 91.515625 1551.117188 49.5625 1555.855469 43.4375 1547.054688 C 53.460938 1552.289062 69.863281 1543.652344 49.980469 1544.28125 C 40.433594 1543.585938 24.929688 1532.863281 43.769531 1534.566406 C 54.472656 1533.285156 65.710938 1526.097656 48.238281 1530.566406 C 36.644531 1534.21875 2.886719 1520.847656 30.21875 1523.757812 C 38.578125 1522.796875 54.382812 1520.765625 57.832031 1514.855469 Z M 121.535156 1789.496094 C 134.96875 1786.269531 120.378906 1797.050781 121.535156 1789.496094 Z M 119.839844 1789.265625 C 121.289062 1803.160156 109.5 1786.949219 119.839844 1789.265625 Z M 110.460938 1794.175781 C 106.914062 1776.691406 120.625 1795.640625 110.417969 1799.226562 L 110.53125 1796.582031 Z M 103.402344 1782.457031 C 116.175781 1787.058594 100.832031 1816.550781 103.761719 1793.261719 C 103.6875 1789.660156 103.546875 1786.058594 103.402344 1782.457031 Z M 163.152344 1644.707031 C 163.828125 1616.707031 167.011719 1654.550781 165.164062 1664.707031 C 162.832031 1695.363281 146.476562 1723.199219 123.035156 1742.621094 C 123.25 1747.175781 145.125 1727.933594 149.6875 1720.210938 C 169.242188 1694.769531 176.476562 1661.164062 171.980469 1629.644531 C 178.929688 1660.835938 180.425781 1697.652344 158.882812 1723.699219 C 150.097656 1737.949219 172.570312 1712.464844 173.097656 1707.015625 C 184.152344 1679.515625 185.390625 1648.382812 176.46875 1620.066406 C 189.449219 1650.289062 193.492188 1684.8125 182.3125 1716.28125 C 178.0625 1735.820312 195.039062 1693.71875 193.1875 1685.054688 C 195.433594 1665.738281 193.632812 1646.0625 188.878906 1627.246094 C 198.160156 1648.597656 199.421875 1672.808594 198.523438 1695.730469 C 199.066406 1705.132812 187.414062 1739.164062 193.3125 1735.480469 C 203.191406 1705.976562 209.78125 1674.210938 203.804688 1643.175781 C 215.328125 1677.421875 208 1715.503906 197.566406 1748.597656 C 210.429688 1726.902344 213.722656 1699.671875 214.53125 1674.417969 C 216.179688 1664.707031 207.675781 1632.097656 214.777344 1658.375 C 223.457031 1698.164062 213.152344 1739.707031 194.359375 1774.988281 C 203.761719 1767.296875 209.359375 1749.722656 214.71875 1737.210938 C 222.789062 1715.042969 225.132812 1691.011719 222.585938 1667.617188 C 235.734375 1711.058594 220.804688 1758.597656 197.335938 1795.265625 C 212.46875 1784.347656 217.054688 1763.625 224.304688 1747.023438 C 231.652344 1733.855469 232.46875 1703.171875 233.65625 1699.234375 C 240.824219 1740.976562 223.601562 1783.089844 199.503906 1816.410156 C 212.882812 1807.15625 222.734375 1786.324219 230.171875 1770.152344 C 237.449219 1756.976562 241.027344 1725.351562 241.355469 1720.800781 C 243.445312 1766.199219 221.09375 1809.679688 190.566406 1841.898438 C 201.566406 1839.5625 209.796875 1823.292969 217.765625 1814.097656 C 230.160156 1797.78125 238.707031 1778.765625 244.167969 1759.085938 C 236.527344 1802.914062 209.335938 1841.3125 174.269531 1867.878906 C 156.539062 1881.710938 138.398438 1895.25 122.890625 1911.78125 C 97.710938 1935.039062 77.867188 1963.738281 65.796875 1995.867188 C 65.992188 1971.296875 83.15625 1951.230469 96.054688 1931.597656 C 106.6875 1916.507812 121.042969 1902.789062 133.597656 1890.617188 C 102.351562 1914.945312 74.953125 1946.121094 60.664062 1983.425781 C 61.933594 1950.640625 88 1926.605469 107.65625 1902.910156 C 118.152344 1888.878906 84.371094 1926.589844 92.433594 1916.972656 C 80 1928.84375 68.292969 1941.875 60.835938 1957.527344 C 63.96875 1934.210938 82.347656 1917.167969 95.847656 1899.828125 C 82.089844 1911.851562 67.691406 1925.589844 59.410156 1942.578125 C 59.742188 1927.820312 83.847656 1910.746094 67.421875 1907.828125 C 70.601562 1900.210938 97.363281 1877.792969 77.808594 1893.070312 C 70.777344 1898.441406 53.359375 1922.03125 64.671875 1899.160156 C 71.007812 1886.875 86.027344 1877.667969 92.515625 1867.9375 C 80.886719 1877.691406 67.390625 1888.753906 60.1875 1900.945312 C 63.125 1884.867188 89.195312 1863.300781 91.386719 1858.042969 C 83.660156 1863.035156 66.976562 1883.40625 66.863281 1879.429688 C 72.59375 1861.050781 94.183594 1849.972656 104.003906 1837.917969 C 95.308594 1842.535156 73.917969 1863.488281 75.058594 1858.328125 C 80.964844 1842.585938 107.277344 1825.660156 111.394531 1821.335938 C 101.253906 1824.53125 81.121094 1843.609375 81.796875 1842.023438 C 84.660156 1828.8125 110.785156 1812.636719 109.78125 1811.558594 C 102.027344 1815.058594 89.425781 1825.308594 101.558594 1812.972656 C 110.148438 1799.167969 137.628906 1793.625 142.542969 1784.964844 C 117.671875 1790.070312 95.523438 1771.789062 85.828125 1750.238281 C 92.210938 1758.039062 129.3125 1742.953125 105.132812 1746.90625 C 96.355469 1749.402344 77.246094 1741.90625 96.226562 1741.535156 C 139.335938 1731.980469 158.320312 1683.96875 163.152344 1644.707031 Z M 82.148438 1981.707031 C 93.4375 1960.835938 105.828125 1939.347656 124.554688 1924.335938 C 111.929688 1939.398438 104.71875 1959.546875 92.992188 1973.914062 C 89.171875 1976.203125 85.515625 1978.785156 82.148438 1981.707031 Z M 103.027344 1968.6875 C 113.203125 1946.367188 126.941406 1925.386719 142.859375 1906.808594 C 139.59375 1913.496094 125.808594 1935.464844 120.25 1948.996094 C 116.394531 1958.851562 115.457031 1967.242188 103.027344 1968.6875 Z M 119.765625 1963.007812 C 128.789062 1936.917969 143.175781 1912.984375 161.410156 1892.304688 C 147.414062 1913.183594 139.296875 1937.101562 131.714844 1960.835938 C 127.703125 1961.386719 123.710938 1962.085938 119.765625 1963.007812 Z M 136.390625 1960.265625 C 144.035156 1934.164062 153.234375 1907.234375 173.21875 1887.785156 C 164.707031 1912.5 150.867188 1934.953125 142.5 1959.667969 L 139.441406 1959.949219 Z M 146.484375 1959.355469 C 158.875 1931.171875 170.0625 1902.359375 185.46875 1875.648438 C 179.210938 1904.605469 172.332031 1934.382812 154.636719 1958.828125 L 150.570312 1959.085938 Z M 158.046875 1958.617188 C 176.84375 1931.394531 181.515625 1897.738281 195.570312 1868.410156 C 202.25 1858.722656 193.433594 1887.722656 192.148438 1893.660156 C 185.128906 1915.871094 179.179688 1939.230469 164.949219 1958.15625 L 161.503906 1958.398438 Z M 168.6875 1957.90625 C 183.167969 1933.257812 194.226562 1906.773438 201.863281 1879.25 C 203.882812 1870.902344 213.234375 1845.523438 208.535156 1866.824219 C 202.839844 1897.246094 194.542969 1927.539062 178.511719 1954.273438 C 178.6875 1960.332031 171.660156 1956.273438 168.6875 1957.90625 Z M 182.679688 1956.996094 C 196.1875 1924.746094 210.105469 1892.34375 215.847656 1857.621094 C 222.824219 1830.875 218.585938 1873.007812 216.421875 1882.175781 C 211.933594 1905.121094 205.132812 1928.316406 193.21875 1948.488281 C 190.433594 1951.664062 187.902344 1957.820312 182.679688 1956.996094 Z M 197.90625 1954.738281 C 208.066406 1925.820312 215.746094 1895.875 222.957031 1866.046875 C 225.441406 1856.464844 227.824219 1826.859375 231.3125 1831.355469 C 228.136719 1866.773438 222.269531 1902.492188 210.691406 1936.277344 C 207.3125 1942.804688 204.53125 1950.871094 197.90625 1954.738281 Z M 211.195312 1950.425781 C 220.132812 1918.441406 226.320312 1885.636719 234.011719 1853.292969 C 237.132812 1842.621094 238.296875 1813.140625 242.425781 1812.597656 C 245.210938 1841.761719 236.808594 1870.785156 231.398438 1899.316406 C 227.34375 1917.207031 222.054688 1935.363281 211.195312 1950.425781 Z M 225.835938 1941.867188 C 233.921875 1912.929688 239.761719 1883.273438 244.09375 1853.558594 C 246.890625 1836.046875 249.355469 1799.554688 251.152344 1793.984375 C 254.925781 1831.582031 248.59375 1869.722656 240.574219 1906.476562 C 236.289062 1918.5 232.066406 1930.683594 225.835938 1941.867188 Z M 237.425781 1947.765625 C 242.523438 1910.859375 252.84375 1874.746094 255.480469 1837.421875 C 257.644531 1815.765625 258.859375 1793.984375 258.21875 1772.21875 C 268.597656 1810.4375 259.839844 1850.054688 254.835938 1888.398438 C 250.746094 1908.511719 248.515625 1930.007812 237.425781 1947.765625 Z M 247.808594 1942.167969 C 260.175781 1910.367188 258.480469 1875.601562 264.058594 1842.382812 C 266.726562 1815.988281 268.765625 1789.441406 267.808594 1762.898438 C 276.96875 1789.984375 273.503906 1819.394531 272.4375 1847.449219 C 268.390625 1878.867188 262.136719 1910.554688 250.507812 1940.0625 L 248.425781 1942.335938 Z M 261.351562 1931.105469 C 275.78125 1870.3125 281.453125 1807.265625 276.25 1744.945312 C 296.183594 1800.878906 282.582031 1861.449219 267.722656 1916.878906 C 266.277344 1921.894531 264.296875 1926.773438 261.351562 1931.105469 Z M 274.984375 1910.125 C 285.234375 1854.367188 297.265625 1796.683594 285.769531 1740.136719 C 304.03125 1779.820312 298.179688 1825.464844 289.953125 1866.929688 C 286.464844 1881.765625 281.335938 1896.289062 274.984375 1910.125 Z M 286.347656 1896.425781 C 297.929688 1849.53125 303.730469 1800.738281 298.742188 1752.527344 C 308.324219 1778.960938 306.28125 1807.898438 303.816406 1835.398438 C 300.449219 1856.257812 296.25 1877.558594 286.347656 1896.425781 Z M 300.09375 1873.597656 C 308.828125 1832.792969 312.726562 1790.433594 305.800781 1749.035156 C 319.003906 1785.898438 314.644531 1826.863281 304.460938 1863.925781 C 303.296875 1867.277344 301.691406 1870.441406 300.09375 1873.597656 Z M 306.25 1874.816406 C 311.886719 1847.8125 315.574219 1820.351562 316.269531 1792.699219 C 318.261719 1782.554688 316.34375 1758.15625 316.691406 1756.179688 C 326.480469 1784.027344 322.964844 1814.5 318.609375 1843.078125 C 316.039062 1854.199219 310.632812 1864.359375 306.25 1874.816406 Z M 310.476562 1885.40625 C 313.683594 1864.871094 321.84375 1845.125 323.960938 1824.214844 C 326.152344 1804.382812 329.15625 1784.277344 326.984375 1764.328125 C 332.921875 1789.507812 330.132812 1816.273438 325.570312 1841.550781 C 322.714844 1856.894531 316.210938 1871.035156 310.476562 1885.40625 Z M 317.996094 1880.71875 C 325.527344 1845.722656 337.828125 1810.652344 335.066406 1774.386719 C 340.578125 1797.527344 338.121094 1822.398438 332.542969 1845.296875 C 327.246094 1857.0625 315.214844 1896.335938 316.632812 1891.300781 C 316.625 1887.722656 317.382812 1884.21875 317.996094 1880.71875 Z M 331.011719 1862.886719 C 335.222656 1838.039062 343.15625 1813.441406 343.0625 1788.101562 C 342.265625 1779.375 337.394531 1761.992188 342.910156 1779.679688 C 351.574219 1807.835938 342.152344 1836.9375 331.011719 1862.886719 Z M 348.410156 1780.21875 C 383.222656 1810.242188 418.550781 1843.644531 434.058594 1888.15625 C 436.335938 1880.34375 425.746094 1863.316406 421.039062 1853.269531 C 408.292969 1829.941406 389.515625 1810.816406 370.628906 1792.425781 C 394.582031 1811.621094 415.96875 1834.40625 432.355469 1860.34375 C 440.425781 1872.601562 427.136719 1843.558594 422.953125 1841.410156 C 406.484375 1814.808594 382.375 1794.707031 358.550781 1775.085938 C 382.550781 1793.035156 409.5625 1809.410156 427.101562 1833.957031 C 413.058594 1805.792969 384.671875 1787.847656 359.570312 1769.957031 C 381.34375 1779.335938 399.125 1796.460938 417.898438 1809.84375 C 406.445312 1796.203125 391.144531 1784.707031 376.394531 1774.15625 C 416.664062 1795.765625 451.148438 1830.3125 470.046875 1872.152344 C 478.125 1893.183594 483.304688 1920.152344 469.292969 1939.707031 C 464.878906 1954.085938 430.214844 1940.484375 445.757812 1959.339844 C 460.042969 1987.839844 454.945312 2030.039062 423.238281 2044.394531 C 419.390625 2033.257812 426.019531 2001.320312 418.449219 1982.597656 C 411.507812 1952.394531 395.855469 1925.265625 378.261719 1900.164062 C 365.746094 1878.421875 393.855469 1917.507812 398.28125 1926.613281 C 414.289062 1952.976562 429.074219 1981.796875 428.074219 2013.535156 C 427.703125 2022.234375 429.417969 2040.460938 429.867188 2020.726562 C 433.386719 1991.441406 424.132812 1962.710938 409.511719 1937.640625 C 397.535156 1913.242188 380.746094 1891.785156 363.625 1870.96875 C 357.890625 1862.035156 355.539062 1855.203125 364.539062 1867.09375 C 394.71875 1903.269531 427.957031 1941.59375 435.21875 1989.808594 C 438.546875 2017.394531 437.550781 1975.492188 433.105469 1967.289062 C 419.859375 1921.273438 385.441406 1886.277344 358.363281 1848.328125 C 383.074219 1873.839844 408.253906 1900.425781 425.519531 1931.339844 C 418.480469 1906.140625 397.425781 1886.734375 381.371094 1866.398438 C 373.886719 1857.601562 356.953125 1840.648438 356.636719 1835.628906 C 379.453125 1858.039062 404.664062 1879.175781 422.339844 1905.855469 C 407.980469 1875.917969 379.601562 1855.5 358.929688 1830.148438 C 353.734375 1819.808594 376.882812 1846.347656 384.222656 1850.636719 C 393.824219 1857.160156 413.703125 1881.539062 415.121094 1881.726562 C 400.324219 1857.074219 375.398438 1840.871094 358.210938 1818.480469 C 349.03125 1800.644531 372.007812 1828.433594 377.785156 1832.375 C 383.601562 1836.761719 401.410156 1857.46875 400.351562 1852.757812 C 386.101562 1834.574219 368.179688 1819.429688 354.019531 1801.378906 C 348.617188 1785.890625 373.605469 1817.558594 380.839844 1823.96875 C 386.695312 1831.90625 408.730469 1851.867188 391.910156 1832.578125 C 378.015625 1816.542969 363.542969 1800.96875 349.648438 1784.96875 L 349.066406 1782.582031 Z M 392.628906 1929.964844 C 411.050781 1959.753906 421.527344 1994.792969 419.046875 2029.96875 C 422.710938 2040.9375 409.414062 2055.820312 414.320312 2037.496094 C 418.128906 2003.894531 408.636719 1970.777344 395.960938 1940.027344 C 395.019531 1936.621094 393.882812 1933.273438 392.628906 1929.964844 Z M 400.914062 1966.777344 C 410.398438 1992.429688 413.109375 2020.296875 408.835938 2047.296875 C 405.851562 2036.140625 412.070312 2009.445312 406.28125 1992.445312 C 404.929688 1983.804688 403.167969 1975.226562 400.914062 1966.777344 Z M 460.808594 1965.21875 C 480.726562 1977.496094 482.929688 2005.011719 488.613281 2025.773438 C 493.277344 2043.550781 491.171875 2066.226562 491.59375 2081.648438 C 499.902344 2041.394531 490.765625 1998.027344 470.242188 1962.726562 C 477.527344 1961.835938 489.566406 1991.597656 493.175781 2004.644531 C 499.378906 2021.667969 500.558594 2043.476562 503.558594 2058.886719 C 504.164062 2020.386719 494.105469 1980.472656 470.195312 1949.738281 C 494.152344 1955.265625 496.621094 1986.390625 505.761719 2005.644531 C 509.902344 2014.820312 510.753906 2030.9375 515.234375 2036.636719 C 509.214844 2002.335938 499.296875 1966.925781 477.128906 1939.367188 C 482.972656 1923.464844 492.960938 1954.957031 498.890625 1962.242188 C 523.214844 2013.242188 534.761719 2073.960938 514.292969 2128.269531 C 499.757812 2175.785156 463.582031 2215.941406 419.230469 2237.628906 C 376.101562 2257.808594 316.609375 2253.953125 286.425781 2213.417969 C 262.753906 2182.5625 269.671875 2130.175781 303.464844 2109.359375 C 326.105469 2096.222656 362.691406 2101.757812 370.945312 2129.636719 C 378.542969 2140.492188 366.46875 2170.246094 356.207031 2162.757812 C 375.515625 2151.210938 370.617188 2120.871094 352.683594 2111.535156 C 369.597656 2119.792969 367.765625 2157.246094 351.316406 2155.296875 C 367.492188 2150.710938 356.574219 2119.078125 353.691406 2124.621094 C 367.679688 2133.335938 338.230469 2163.640625 351.261719 2142.335938 C 352.234375 2133.925781 346.203125 2127.898438 347.730469 2140.832031 C 339.128906 2152.730469 313.3125 2131.589844 307.761719 2154.304688 C 321.492188 2136.898438 363.554688 2156.628906 348.929688 2180.285156 C 320.089844 2190.96875 339.316406 2224.925781 363.542969 2223.9375 C 393.515625 2226.410156 422.046875 2210.917969 445.515625 2193.757812 C 457.039062 2183.875 468.941406 2169.78125 475.070312 2157.695312 C 453.960938 2185.292969 424.109375 2208.808594 388.9375 2213.753906 C 373.855469 2214.507812 405.839844 2211.007812 411.023438 2206.066406 C 443.335938 2191.40625 469.925781 2161.53125 481.226562 2129.105469 C 462.75 2165.773438 430.164062 2200.039062 388.074219 2206.558594 C 377.96875 2209.265625 350.214844 2198.273438 374.09375 2202.796875 C 414.746094 2202.828125 447.554688 2170.46875 466.46875 2137.207031 C 485.214844 2103.855469 489.351562 2064.449219 483.152344 2027.097656 C 479.992188 2005.238281 473.929688 1983.296875 460.808594 1965.21875 Z M 436.964844 1768.804688 C 418.9375 1746.382812 387.183594 1745.125 361.199219 1738.527344 C 321.550781 1728.066406 281.488281 1712.945312 250.582031 1685.125 C 289.449219 1716.417969 338.304688 1730.886719 386.519531 1740.152344 C 403.953125 1745.976562 432.027344 1747.503906 436.964844 1768.804688 Z M 436.605469 1756.867188 C 410.707031 1732.316406 371.71875 1735.828125 339.835938 1724.730469 C 309.0625 1715.304688 279.246094 1701.429688 253.976562 1681.308594 C 293.257812 1708.222656 340.578125 1719.207031 385.886719 1731.566406 C 402.84375 1737.203125 427.503906 1739.5625 436.605469 1756.867188 Z M 424.957031 1739.597656 C 419.597656 1736.289062 395.902344 1729.164062 414.011719 1732.964844 C 417.996094 1734.550781 421.679688 1736.84375 424.957031 1739.597656 Z M 245.535156 1689.035156 C 289.921875 1724.648438 346.039062 1739.949219 400.398438 1752.867188 C 412.539062 1757.429688 434.4375 1763.121094 433.613281 1778.566406 C 418.535156 1758.679688 390.203125 1757.089844 368.007812 1749.386719 C 326.945312 1737.96875 286.324219 1721.359375 252.238281 1695.417969 C 249.898438 1693.402344 247.65625 1691.277344 245.535156 1689.035156 Z M 383.628906 1762.527344 C 335.324219 1750.925781 286.625 1733.058594 248.699219 1700.207031 C 287.882812 1727.671875 333.003906 1745.953125 379.429688 1757.070312 C 396.875 1763.640625 419.769531 1764.875 430.695312 1781.945312 C 417.972656 1769.921875 400.109375 1766.296875 383.628906 1762.527344 Z M 436.042969 1814.078125 C 425.167969 1811.980469 428.863281 1787.578125 429.226562 1790.527344 C 443.0625 1784.183594 433.304688 1804.308594 436.042969 1814.078125 Z M 6.019531 1530.035156 C 27.320312 1530.46875 35.199219 1555.710938 54.015625 1562.304688 C 63.226562 1571.597656 83.003906 1553.28125 74.050781 1570.640625 C 73.144531 1594.335938 110.710938 1574.164062 100.230469 1598.773438 C 101.097656 1609.886719 100.023438 1638.054688 101.792969 1639.714844 C 106.570312 1621.570312 98.476562 1594.609375 108.304688 1582.199219 C 107.890625 1591.394531 107.144531 1617.824219 111.441406 1615.675781 C 113.007812 1604.488281 107.035156 1575.066406 118.0625 1579.515625 C 116.945312 1589.320312 118.851562 1624.3125 120.714844 1596.640625 C 121.519531 1588.363281 118.730469 1568.058594 127.160156 1571.324219 C 128.171875 1580.140625 125.621094 1606.667969 129.003906 1604.148438 C 130.929688 1591.246094 127.832031 1563.273438 134.78125 1561.289062 C 135.488281 1576.660156 133.675781 1592.605469 135.359375 1607.636719 C 137.28125 1589.550781 138.445312 1570.585938 137.597656 1552.117188 C 141.976562 1542.710938 142.824219 1520.113281 144.421875 1542.339844 C 147.054688 1561.910156 144.882812 1582.113281 145.75 1602.105469 C 145.484375 1624.574219 143.792969 1647.453125 145.28125 1669.6875 C 149.453125 1680.132812 142.308594 1694.574219 135.421875 1704.953125 C 122.960938 1726.265625 99.183594 1738.652344 74.726562 1738.847656 C 71.871094 1758.121094 101.191406 1772.1875 100.839844 1790.4375 C 104.851562 1813.167969 78.515625 1824.085938 72.582031 1845.234375 C 61.382812 1866.625 50.34375 1890.644531 53.257812 1915.257812 C 72.308594 1916.5 48.253906 1936.246094 52.203125 1949.730469 C 49.3125 1972.429688 53.332031 1995.425781 62.929688 2016.09375 C 61.078125 2027.667969 78.121094 2059.304688 83.828125 2035.738281 C 95.089844 2014.273438 114.609375 1997.613281 138.128906 1991.136719 C 161.003906 1980.90625 185.613281 1974.832031 208.1875 1964.101562 C 214.089844 1956.417969 223.597656 1973.898438 234.179688 1962.980469 C 264.886719 1947.496094 291.078125 1919.460938 298.742188 1885.328125 C 301.597656 1896.34375 325.21875 1915.390625 324.730469 1893.945312 C 329.46875 1883.671875 334.390625 1856.292969 343.9375 1877.570312 C 372.457031 1909.589844 394.65625 1948.222656 400.691406 1991.191406 C 404.265625 2010.152344 404.945312 2029.679688 401.460938 2048.613281 C 422.425781 2062.710938 447.921875 2037.335938 455.078125 2017.984375 C 463.6875 2003.871094 455.753906 1972.660156 454.675781 1968.601562 C 471.042969 1993.019531 479.804688 2021.726562 480.589844 2051.054688 C 484.722656 2107.421875 454.769531 2167.570312 402.683594 2191.992188 C 387.445312 2200.683594 355.507812 2199.457031 349.6875 2187.773438 C 358.480469 2177.660156 362.132812 2168.644531 373.65625 2160.460938 C 390.789062 2133.839844 366.679688 2095.925781 335.898438 2096.554688 C 306.53125 2093.058594 278.574219 2113.710938 270.855469 2141.800781 C 259.082031 2175.382812 270.480469 2215.839844 300.605469 2235.855469 C 344.421875 2267.625 407.449219 2258.8125 448.601562 2226.59375 C 487.871094 2199.105469 515.851562 2156.296875 525.53125 2109.246094 C 537.773438 2059.765625 524.5625 2007.5625 503.714844 1962.292969 C 493.734375 1943.292969 477.445312 1928.226562 483.53125 1905.460938 C 481.492188 1884.269531 471.535156 1864.386719 477.679688 1842.71875 C 477.851562 1829.0625 478.601562 1807.726562 475.113281 1798.539062 C 473.890625 1818.164062 476.496094 1837.996094 472.050781 1857.390625 C 469.214844 1870.777344 471.410156 1840.304688 470.433594 1834.472656 C 470.960938 1825.398438 470.46875 1787.222656 466.914062 1812.992188 C 466.46875 1823.214844 468.242188 1850.625 464.328125 1849.816406 C 447.921875 1837.289062 459.722656 1814.367188 451.402344 1800.066406 C 451.519531 1809.359375 452.769531 1844.605469 446.332031 1821.238281 C 447.25 1813.257812 445.699219 1784.042969 442.390625 1791.21875 C 442.152344 1798.996094 444.160156 1834.125 439.339844 1812.679688 C 434.273438 1792.609375 445.597656 1775.902344 444.054688 1756.535156 C 439.625 1741.722656 414.871094 1727.648438 442.457031 1724.585938 C 480.3125 1711.214844 506.957031 1678.445312 523.871094 1643.25 C 526.761719 1626.707031 563.394531 1612.109375 536.113281 1600.457031 C 523.785156 1598.8125 520.546875 1598.1875 527.472656 1585.851562 C 534.585938 1551.636719 529.792969 1508.730469 499.445312 1486.648438 C 485.402344 1475.269531 461.203125 1475.746094 467.292969 1452.4375 C 461.246094 1432.101562 469.917969 1473.570312 459.210938 1469.554688 C 457.691406 1480.347656 460.078125 1437.636719 455.652344 1458.679688 C 454.921875 1471.664062 456.324219 1505.097656 449.242188 1504.292969 C 448.078125 1488.160156 454.808594 1465.917969 448.195312 1453.476562 C 446.632812 1474.296875 448.335938 1497.300781 443.058594 1516.523438 C 437.265625 1518.703125 443.773438 1489.832031 442.011719 1479.226562 C 443.988281 1469.351562 440.050781 1430.191406 439.035156 1458.273438 C 439.371094 1480.445312 436.3125 1502.421875 434.777344 1524.488281 C 394.054688 1555.90625 328.308594 1536.902344 306.484375 1491.402344 C 279.167969 1436.75 284.230469 1373.164062 293.046875 1314.617188 C 298.964844 1278.414062 308.117188 1242.8125 318.816406 1207.746094 C 308.082031 1204.796875 301.683594 1183.058594 298.179688 1202.730469 C 267.070312 1284.589844 233.484375 1370.449219 242.421875 1459.757812 C 246.460938 1496.738281 255.5625 1535.226562 281.613281 1563.25 C 287.46875 1569.726562 304.171875 1594.828125 287.28125 1577.992188 C 269.511719 1563.339844 259.160156 1541 249.070312 1521.898438 C 257.074219 1550.324219 275.128906 1575.84375 299.257812 1592.867188 C 305.351562 1608.304688 279.816406 1585.425781 275.921875 1579.070312 C 269.824219 1570.605469 252.980469 1547.613281 265.636719 1569.550781 C 273.914062 1584.671875 287.214844 1596.585938 302.808594 1603.816406 C 304.945312 1621.292969 325.246094 1606.753906 336.457031 1617.21875 C 355.242188 1622.660156 376.347656 1625.375 395.089844 1621.1875 C 369.714844 1621.785156 344.03125 1618.148438 320.441406 1608.535156 C 333.789062 1605.34375 352.019531 1617.183594 368.152344 1615.28125 C 379.339844 1618.160156 415.695312 1612.046875 411.792969 1608.148438 C 383.226562 1613.425781 353.011719 1613.027344 325.675781 1602.367188 C 335.140625 1595.152344 357.039062 1611.757812 372.496094 1607.328125 C 390.445312 1607.464844 412.769531 1605.140625 425.90625 1594.265625 C 395.949219 1608.675781 358.910156 1608.097656 328.980469 1593.785156 C 329.175781 1581.539062 348.902344 1602.984375 359.886719 1600.148438 C 405.433594 1607.816406 460.652344 1584.820312 472.984375 1537.109375 C 479.96875 1520.253906 470.679688 1491.851562 472.289062 1481.992188 C 499.96875 1495.769531 508.515625 1532.367188 500.628906 1560.035156 C 511.070312 1539.460938 505.425781 1512.664062 492.5 1494.066406 C 512.992188 1519.53125 515.390625 1557.113281 503.773438 1586.753906 C 519.582031 1560.996094 515.625 1525.878906 501.46875 1499.9375 C 501.519531 1496.984375 516.34375 1521.78125 516.140625 1531.554688 C 520.980469 1555.230469 516.871094 1580.960938 509.308594 1602.714844 C 522.894531 1575.273438 526.402344 1541.746094 514.34375 1513.136719 C 525.675781 1538.566406 528.957031 1569.234375 519.316406 1595.707031 C 502.964844 1609.003906 553.558594 1604.402344 529.289062 1609.101562 C 512.15625 1620.035156 500.945312 1639.101562 492.234375 1656.625 C 502.492188 1644.382812 523.050781 1611.585938 531.828125 1615.066406 C 514.132812 1631.796875 503.757812 1654.421875 488.648438 1673.25 C 488.648438 1677.167969 505.601562 1654.367188 510.273438 1647.722656 C 515.613281 1640.796875 534.171875 1615.847656 521.320312 1635.011719 C 505.417969 1665.027344 486.492188 1695.675781 455.183594 1711.621094 C 435.941406 1721.984375 413.785156 1726.203125 392.160156 1727.019531 C 387.039062 1725.257812 413.761719 1723.453125 421.097656 1719.410156 C 442.539062 1712.898438 467.648438 1703.972656 479.714844 1685.226562 C 456.550781 1707.484375 423.242188 1715.339844 392.371094 1719.867188 C 384.644531 1720.84375 359.296875 1719.210938 379.277344 1719.203125 C 407.4375 1717.316406 439.203125 1711.050781 458.785156 1689.757812 C 439.628906 1703.773438 414.949219 1709.765625 391.5625 1713.5625 C 345.195312 1716.949219 297.300781 1705.167969 258.535156 1679.308594 C 307.292969 1708.664062 369.699219 1718.910156 424.050781 1699.828125 C 433.503906 1697.433594 458.703125 1677.914062 436.148438 1692.417969 C 402.972656 1707.050781 364.851562 1706.1875 329.628906 1700.933594 C 318.496094 1699.578125 287.496094 1688.953125 288.5 1688.753906 C 325.824219 1702.128906 367.640625 1705.632812 406.15625 1695.792969 C 415.382812 1693.308594 444.929688 1678.539062 418.832031 1688.828125 C 384.632812 1700.554688 346.804688 1698.480469 311.859375 1691.175781 C 272.597656 1681.246094 234.511719 1660.398438 211.730469 1626.03125 C 192.933594 1604.199219 180.855469 1577.28125 169.722656 1550.90625 C 158.835938 1520.070312 152.683594 1487.492188 149.882812 1455.003906 C 147.980469 1413.289062 154.085938 1370.753906 171.210938 1332.488281 C 174.769531 1323.878906 190.992188 1300.195312 190.671875 1302.542969 C 172.222656 1349.519531 158.601562 1399.054688 159.121094 1449.902344 C 157.351562 1510.511719 181.964844 1568.375 214.453125 1618.304688 C 227.546875 1636.792969 245.328125 1651.988281 264.398438 1663.773438 C 257.277344 1651.847656 236.941406 1642.054688 227.457031 1628.265625 C 200.429688 1595.152344 182.511719 1555.023438 170.957031 1514.082031 C 155.203125 1449.148438 165.835938 1380.585938 188.949219 1318.746094 C 192.421875 1303.328125 205.511719 1272.671875 209.671875 1269.058594 C 206.539062 1276.125 200.847656 1303 207.730469 1281.886719 C 217.417969 1257.257812 228.054688 1232.992188 235.796875 1207.65625 C 246.230469 1187.53125 257.792969 1166.71875 260.949219 1144.003906 C 253.3125 1125.03125 236.609375 1144.175781 234.59375 1156.644531 C 232.273438 1163.863281 227.90625 1179.722656 235.480469 1163.003906 C 236.507812 1151.894531 254.675781 1138.140625 245.074219 1157.839844 C 226.441406 1216.074219 206.605469 1275.988281 166.421875 1323.433594 C 139.859375 1354.871094 105.527344 1380.210938 66.539062 1393.832031 C 50.0625 1403.804688 75.171875 1379.191406 80.171875 1374.363281 C 106.625 1344.867188 133.683594 1315.65625 150.566406 1279.140625 C 173.164062 1236.3125 191.316406 1191.375 211.566406 1147.4375 C 221.421875 1136.15625 204.765625 1170.722656 201.140625 1179.558594 C 190.414062 1202.367188 181.816406 1226.515625 171.863281 1249.339844 C 185.722656 1228.28125 193.648438 1202.839844 206.148438 1180.527344 C 215.144531 1161.5 224.027344 1142.082031 229.050781 1121.59375 C 217.730469 1124.503906 208.085938 1151.457031 199.382812 1164.699219 C 179.371094 1202.65625 163.847656 1242.804688 143.101562 1280.40625 C 144.726562 1270.484375 141.933594 1255.113281 141.785156 1274.515625 C 140.628906 1285.980469 134.742188 1297.507812 137.109375 1278.871094 C 135.765625 1258.667969 136.007812 1238.414062 135.523438 1218.183594 C 131.289062 1243.054688 135.492188 1268.558594 132.722656 1293.597656 C 127.316406 1309.710938 131.875 1275.277344 129.84375 1269.898438 C 130.425781 1261.765625 129.65625 1225.601562 127.1875 1249.519531 C 125.882812 1270.988281 128.484375 1293.722656 122.855469 1314.316406 C 122.570312 1293.863281 124.277344 1264.324219 118.65625 1249.464844 C 120.691406 1272.851562 118.507812 1296.230469 118.929688 1319.605469 C 114.820312 1318.253906 117.203125 1291.828125 115.378906 1280.132812 C 115.65625 1270.109375 111.734375 1235.613281 111.421875 1262.363281 C 111.285156 1284.457031 114.722656 1307.214844 111.554688 1328.894531 C 104.574219 1303.523438 107.640625 1276.179688 105.0625 1249.988281 C 102.304688 1235.851562 104.003906 1271.246094 104.070312 1278.648438 C 104.707031 1297.574219 104.109375 1316.515625 104.550781 1335.445312 C 99.03125 1317.707031 103.625 1298.238281 101.429688 1279.765625 C 100.257812 1266.347656 101.414062 1249.035156 98.625 1237.925781 C 97.6875 1268.632812 99.816406 1299.40625 96.757812 1330.046875 C 94.085938 1318.261719 94.386719 1301.546875 91.132812 1292.546875 C 91.453125 1316.660156 98.855469 1344.964844 80.417969 1364.679688 C 67.511719 1379.703125 38.261719 1399.59375 57.222656 1421.078125 C 67.429688 1428.316406 72.363281 1429.332031 56.835938 1434.199219 C 31.929688 1447.144531 22.027344 1474.527344 15.476562 1500.003906 C 16.546875 1509.429688 -2.582031 1523.71875 6.015625 1530.035156 M 57.832031 743.53125 C 45.914062 740.074219 5.886719 730.167969 19.820312 750.996094 C 27.304688 775.011719 33.417969 802.390625 56.382812 816.773438 C 63.398438 824.832031 98.730469 828.363281 72.914062 834.710938 C 50.9375 838.371094 59.238281 860.558594 77.15625 861.917969 C 70.464844 856.054688 66.351562 845.972656 76.699219 857.496094 C 82.804688 865.648438 98.105469 871.335938 84.625 859.363281 C 66.792969 839.09375 96.386719 865.273438 101.027344 872.378906 C 110.605469 878.316406 117.824219 882.867188 106.480469 871.160156 C 100.210938 865.167969 79.855469 840.0625 99.03125 858.578125 C 110.863281 870.117188 129.226562 893.84375 137.539062 896.316406 C 127.867188 883.902344 117.234375 872.085938 107.691406 859.679688 C 118.394531 865.933594 128.742188 881.8125 138.90625 891.917969 C 146.820312 897.792969 165.460938 930.289062 155.953125 906.070312 C 150.347656 885.757812 146.992188 864.015625 132.316406 847.769531 C 124.613281 839.117188 124.144531 831.992188 133.058594 844.871094 C 138.617188 851.382812 148.003906 866.476562 141.453125 849 C 137.839844 842.523438 126.089844 822.546875 138.628906 839.113281 C 140.582031 835.550781 128.546875 811.175781 123.8125 799.8125 C 116.171875 784.4375 105.082031 770.316406 89.050781 763.109375 C 114.359375 765.265625 131.261719 805.023438 136.140625 813.5625 C 131.480469 782.246094 107.253906 756.003906 78.277344 744.621094 C 103.625 746.914062 122.5625 768.6875 134.503906 789.539062 C 124.933594 760.15625 101.714844 736.492188 72.570312 726.308594 C 84.398438 723.285156 108.078125 739.242188 118.265625 751.441406 C 125.269531 757.460938 142.355469 790.25 132.347656 767.289062 C 119.601562 740.804688 96.597656 715.792969 66.3125 712.164062 C 87.746094 709.253906 109.054688 724.625 121.933594 741.261719 C 127.554688 747.566406 137.539062 765.535156 129.636719 748.320312 C 121.691406 729.851562 106.390625 714.855469 88.863281 706.09375 C 105.691406 708.25 120.664062 722.503906 129.476562 737.082031 C 134.347656 745.496094 140.277344 759.5 134.117188 741.464844 C 125.894531 721.632812 111.5 702.132812 90.363281 695.28125 C 105.054688 693.285156 121.574219 709.347656 129.902344 722.238281 C 123.265625 706.300781 112.527344 687.394531 93.324219 686.457031 C 107.515625 679.285156 125.886719 701.234375 128.140625 703.59375 C 122.074219 685.621094 95.011719 669.523438 79.585938 684.558594 C 78.617188 692.949219 89.332031 706.773438 72.988281 700.039062 C 63.800781 695.636719 45.390625 705.175781 64.441406 702.632812 C 91.515625 707.269531 49.5625 702.53125 43.4375 711.328125 C 53.460938 706.097656 69.863281 714.734375 49.980469 714.105469 C 40.433594 714.796875 24.929688 725.523438 43.769531 723.820312 C 54.472656 725.101562 65.710938 732.289062 48.238281 727.820312 C 36.644531 724.167969 2.886719 737.539062 30.21875 734.628906 C 38.578125 735.589844 54.382812 737.621094 57.832031 743.53125 Z M 121.535156 468.890625 C 134.96875 472.117188 120.378906 461.335938 121.535156 468.890625 Z M 119.839844 469.121094 C 121.289062 455.226562 109.5 471.4375 119.839844 469.121094 Z M 110.460938 464.207031 C 106.914062 481.695312 120.625 462.746094 110.417969 459.160156 L 110.53125 461.804688 Z M 103.402344 475.929688 C 116.175781 471.328125 100.832031 441.835938 103.761719 465.121094 C 103.6875 468.726562 103.546875 472.328125 103.402344 475.929688 Z M 163.152344 613.679688 C 163.828125 641.675781 167.011719 603.835938 165.164062 593.679688 C 162.832031 563.023438 146.476562 535.1875 123.035156 515.765625 C 123.25 511.207031 145.125 530.453125 149.6875 538.171875 C 169.242188 563.617188 176.476562 597.222656 171.980469 628.738281 C 178.929688 597.550781 180.425781 560.734375 158.882812 534.6875 C 150.097656 520.4375 172.570312 545.917969 173.097656 551.371094 C 184.152344 578.871094 185.390625 610.003906 176.46875 638.320312 C 189.449219 608.097656 193.492188 573.574219 182.3125 542.105469 C 178.0625 522.566406 195.039062 564.667969 193.1875 573.332031 C 195.433594 592.648438 193.632812 612.320312 188.878906 631.140625 C 198.160156 609.789062 199.421875 585.578125 198.523438 562.65625 C 199.066406 553.253906 187.414062 519.222656 193.3125 522.90625 C 203.191406 552.410156 209.78125 584.171875 203.804688 615.210938 C 215.328125 580.964844 208 542.882812 197.566406 509.789062 C 210.429688 531.484375 213.722656 558.714844 214.53125 583.96875 C 216.179688 593.679688 207.675781 626.289062 214.777344 600.011719 C 223.457031 560.21875 213.152344 518.675781 194.359375 483.398438 C 203.761719 491.089844 209.359375 508.660156 214.71875 521.175781 C 222.789062 543.339844 225.132812 567.375 222.585938 590.769531 C 235.734375 547.324219 220.804688 499.785156 197.335938 463.121094 C 212.46875 474.035156 217.054688 494.761719 224.304688 511.363281 C 231.652344 524.53125 232.46875 555.214844 233.65625 559.152344 C 240.824219 517.410156 223.601562 475.296875 199.503906 441.976562 C 212.882812 451.230469 222.734375 472.0625 230.171875 488.230469 C 237.449219 501.410156 241.027344 533.035156 241.355469 537.585938 C 243.445312 492.1875 221.09375 448.703125 190.566406 416.488281 C 201.566406 418.820312 209.796875 435.09375 217.765625 444.289062 C 230.160156 460.601562 238.707031 479.621094 244.167969 499.300781 C 236.527344 455.472656 209.335938 417.070312 174.269531 390.507812 C 156.539062 376.675781 138.398438 363.136719 122.890625 346.605469 C 97.710938 323.347656 77.867188 294.648438 65.796875 262.519531 C 65.992188 287.089844 83.15625 307.15625 96.054688 326.789062 C 106.6875 341.878906 121.042969 355.59375 133.597656 367.769531 C 102.351562 343.441406 74.953125 312.261719 60.664062 274.960938 C 61.933594 307.746094 88 331.777344 107.65625 355.476562 C 118.152344 369.503906 84.371094 331.796875 92.433594 341.414062 C 80 329.542969 68.292969 316.511719 60.835938 300.859375 C 63.96875 324.175781 82.347656 341.214844 95.847656 358.558594 C 82.089844 346.535156 67.691406 332.796875 59.410156 315.808594 C 59.742188 330.566406 83.847656 347.640625 67.421875 350.558594 C 70.601562 358.175781 97.363281 380.59375 77.808594 365.316406 C 70.777344 359.945312 53.359375 336.355469 64.671875 359.226562 C 71.007812 371.511719 86.027344 380.714844 92.515625 390.449219 C 80.886719 380.691406 67.390625 369.632812 60.1875 357.4375 C 63.125 373.519531 89.195312 395.085938 91.386719 400.34375 C 83.660156 395.351562 66.976562 374.980469 66.863281 378.957031 C 72.59375 397.335938 94.183594 408.414062 104.003906 420.46875 C 95.308594 415.851562 73.917969 394.894531 75.058594 400.058594 C 80.964844 415.800781 107.277344 432.726562 111.394531 437.050781 C 101.253906 433.855469 81.121094 414.777344 81.796875 416.363281 C 84.660156 429.574219 110.785156 445.75 109.78125 446.828125 C 102.027344 443.328125 89.425781 433.078125 101.558594 445.414062 C 110.148438 459.21875 137.628906 464.761719 142.542969 473.417969 C 117.671875 468.3125 95.523438 486.597656 85.828125 508.148438 C 92.210938 500.347656 129.3125 515.433594 105.132812 511.480469 C 96.355469 508.984375 77.246094 516.480469 96.226562 516.847656 C 139.335938 526.40625 158.320312 574.417969 163.152344 613.679688 Z M 82.148438 276.679688 C 93.4375 297.550781 105.828125 319.039062 124.554688 334.050781 C 111.929688 318.988281 104.71875 298.839844 92.992188 284.472656 C 89.171875 282.183594 85.515625 279.601562 82.148438 276.679688 Z M 103.027344 289.699219 C 113.203125 312.015625 126.941406 332.996094 142.859375 351.578125 C 139.59375 344.890625 125.808594 322.921875 120.25 309.390625 C 116.394531 299.535156 115.457031 291.144531 103.027344 289.699219 Z M 119.765625 295.378906 C 128.789062 321.464844 143.175781 345.402344 161.410156 366.078125 C 147.414062 345.203125 139.296875 321.285156 131.714844 297.550781 C 127.703125 297 123.710938 296.300781 119.765625 295.378906 Z M 136.390625 298.117188 C 144.035156 324.222656 153.234375 351.152344 173.21875 370.597656 C 164.707031 345.886719 150.867188 323.433594 142.5 298.71875 L 139.441406 298.4375 Z M 146.484375 299.027344 C 158.875 327.210938 170.0625 356.027344 185.46875 382.738281 C 179.210938 353.78125 172.332031 324.003906 154.636719 299.558594 L 150.570312 299.300781 Z M 158.046875 299.769531 C 176.84375 326.992188 181.515625 360.648438 195.570312 389.976562 C 202.25 399.664062 193.433594 370.664062 192.148438 364.726562 C 185.128906 342.515625 179.179688 319.15625 164.949219 300.226562 L 161.503906 299.988281 Z M 168.6875 300.480469 C 183.167969 325.128906 194.226562 351.609375 201.863281 379.132812 C 203.882812 387.484375 213.234375 412.863281 208.535156 391.558594 C 202.839844 361.140625 194.542969 330.847656 178.511719 304.113281 C 178.6875 298.054688 171.660156 302.113281 168.6875 300.480469 Z M 182.679688 301.390625 C 196.1875 333.640625 210.105469 366.042969 215.847656 400.765625 C 222.824219 427.511719 218.585938 385.378906 216.421875 376.207031 C 211.933594 353.265625 205.132812 330.066406 193.21875 309.898438 C 190.433594 306.71875 187.902344 300.566406 182.679688 301.390625 Z M 197.90625 303.648438 C 208.066406 332.566406 215.746094 362.511719 222.957031 392.339844 C 225.441406 401.917969 227.824219 431.523438 231.3125 427.027344 C 228.136719 391.613281 222.269531 355.894531 210.691406 322.109375 C 207.3125 315.578125 204.53125 307.515625 197.90625 303.648438 Z M 211.195312 307.960938 C 220.132812 339.945312 226.320312 372.75 234.011719 405.09375 C 237.132812 415.765625 238.296875 445.246094 242.425781 445.789062 C 245.210938 416.625 236.808594 387.601562 231.398438 359.070312 C 227.34375 341.179688 222.054688 323.023438 211.195312 307.960938 Z M 225.835938 316.519531 C 233.921875 345.453125 239.761719 375.113281 244.09375 404.828125 C 246.890625 422.335938 249.355469 458.832031 251.152344 464.402344 C 254.925781 426.804688 248.59375 388.664062 240.574219 351.910156 C 236.289062 339.886719 232.066406 327.699219 225.835938 316.519531 Z M 237.425781 310.621094 C 242.523438 347.527344 252.84375 383.640625 255.480469 420.964844 C 257.644531 442.621094 258.859375 464.402344 258.21875 486.167969 C 268.597656 447.949219 259.839844 408.332031 254.835938 369.988281 C 250.746094 349.875 248.515625 328.378906 237.425781 310.621094 Z M 247.808594 316.21875 C 260.175781 348.015625 258.480469 382.785156 264.058594 416.003906 C 266.726562 442.398438 268.765625 468.945312 267.808594 495.488281 C 276.96875 468.402344 273.503906 438.992188 272.4375 410.9375 C 268.390625 379.519531 262.136719 347.828125 250.507812 318.324219 L 248.425781 316.050781 Z M 261.351562 327.277344 C 275.78125 388.074219 281.453125 451.121094 276.25 513.4375 C 296.183594 457.507812 282.582031 396.9375 267.722656 341.507812 C 266.277344 336.492188 264.296875 331.613281 261.351562 327.277344 Z M 274.984375 348.257812 C 285.234375 404.019531 297.265625 461.703125 285.769531 518.25 C 304.03125 478.5625 298.179688 432.921875 289.953125 391.457031 C 286.464844 376.621094 281.335938 362.097656 274.984375 348.257812 Z M 286.347656 361.960938 C 297.929688 408.851562 303.730469 457.648438 298.742188 505.859375 C 308.324219 479.425781 306.28125 450.488281 303.816406 422.988281 C 300.449219 402.128906 296.25 380.828125 286.347656 361.960938 Z M 300.09375 384.789062 C 308.828125 425.59375 312.726562 467.949219 305.800781 509.351562 C 319.003906 472.488281 314.644531 431.523438 304.460938 394.460938 C 303.296875 391.109375 301.691406 387.945312 300.09375 384.789062 Z M 306.25 383.570312 C 311.886719 410.574219 315.574219 438.035156 316.269531 465.6875 C 318.261719 475.832031 316.34375 500.230469 316.691406 502.207031 C 326.480469 474.359375 322.964844 443.886719 318.609375 415.308594 C 316.039062 404.1875 310.632812 394.027344 306.25 383.570312 Z M 310.476562 372.980469 C 313.683594 393.515625 321.84375 413.261719 323.960938 434.167969 C 326.152344 454.003906 329.15625 474.109375 326.984375 494.058594 C 332.921875 468.878906 330.132812 442.109375 325.570312 416.835938 C 322.714844 401.492188 316.210938 387.351562 310.476562 372.980469 Z M 317.996094 377.667969 C 325.527344 412.664062 337.828125 447.734375 335.066406 484 C 340.578125 460.859375 338.121094 435.984375 332.542969 413.085938 C 327.246094 401.324219 315.214844 362.050781 316.632812 367.085938 C 316.625 370.660156 317.382812 374.164062 317.996094 377.667969 Z M 331.011719 395.5 C 335.222656 420.347656 343.15625 444.945312 343.0625 470.285156 C 342.265625 479.011719 337.394531 496.394531 342.910156 478.707031 C 351.574219 450.550781 342.152344 421.449219 331.011719 395.5 Z M 348.410156 478.167969 C 383.222656 448.140625 418.550781 414.742188 434.058594 370.230469 C 436.335938 378.039062 425.746094 395.070312 421.039062 405.117188 C 408.292969 428.445312 389.515625 447.570312 370.628906 465.957031 C 394.582031 446.761719 415.96875 423.980469 432.355469 398.042969 C 440.425781 385.785156 427.136719 414.828125 422.953125 416.976562 C 406.484375 443.578125 382.375 463.679688 358.550781 483.300781 C 382.550781 465.351562 409.5625 448.976562 427.101562 424.429688 C 413.058594 452.59375 384.671875 470.539062 359.570312 488.429688 C 381.34375 479.050781 399.125 461.921875 417.898438 448.542969 C 406.445312 462.183594 391.144531 473.679688 376.394531 484.230469 C 416.664062 462.621094 451.148438 428.070312 470.046875 386.234375 C 478.125 365.203125 483.304688 338.234375 469.292969 318.679688 C 464.878906 304.296875 430.214844 317.898438 445.757812 299.042969 C 460.042969 270.546875 454.945312 228.347656 423.238281 213.992188 C 419.390625 225.128906 426.019531 257.066406 418.449219 275.785156 C 411.507812 305.992188 395.855469 333.121094 378.261719 358.222656 C 365.746094 379.964844 393.855469 340.878906 398.28125 331.773438 C 414.289062 305.410156 429.074219 276.589844 428.074219 244.851562 C 427.703125 236.152344 429.417969 217.925781 429.867188 237.660156 C 433.386719 266.945312 424.132812 295.675781 409.511719 320.746094 C 397.535156 345.144531 380.746094 366.601562 363.625 387.417969 C 357.890625 396.351562 355.539062 403.183594 364.539062 391.289062 C 394.71875 355.117188 427.957031 316.792969 435.21875 268.578125 C 438.546875 240.992188 437.550781 282.894531 433.105469 291.097656 C 419.859375 337.109375 385.441406 372.109375 358.363281 410.058594 C 383.074219 384.546875 408.253906 357.957031 425.519531 327.042969 C 418.480469 352.246094 397.425781 371.652344 381.371094 391.988281 C 373.886719 400.785156 356.953125 417.734375 356.636719 422.753906 C 379.453125 400.347656 404.664062 379.210938 422.339844 352.53125 C 407.980469 382.46875 379.601562 402.886719 358.929688 428.234375 C 353.734375 438.574219 376.882812 412.039062 384.222656 407.75 C 393.824219 401.226562 413.703125 376.847656 415.121094 376.660156 C 400.324219 401.3125 375.398438 417.515625 358.210938 439.902344 C 349.03125 457.742188 372.007812 429.953125 377.785156 426.011719 C 383.601562 421.625 401.410156 400.917969 400.351562 405.628906 C 386.101562 423.8125 368.179688 438.957031 354.019531 457.003906 C 348.617188 472.496094 373.605469 440.828125 380.839844 434.417969 C 386.695312 426.480469 408.730469 406.519531 391.910156 425.808594 C 378.015625 441.84375 363.542969 457.414062 349.648438 473.417969 L 349.066406 475.804688 Z M 392.628906 328.417969 C 411.050781 298.628906 421.527344 263.59375 419.046875 228.417969 C 422.710938 217.449219 409.414062 202.566406 414.320312 220.886719 C 418.128906 254.492188 408.636719 287.605469 395.960938 318.359375 C 395.019531 321.765625 393.882812 325.113281 392.628906 328.417969 Z M 400.914062 291.609375 C 410.398438 265.957031 413.109375 238.089844 408.835938 211.089844 C 405.851562 222.246094 412.070312 248.941406 406.28125 265.941406 C 404.929688 274.582031 403.167969 283.160156 400.914062 291.609375 Z M 460.808594 293.167969 C 480.726562 280.890625 482.929688 253.375 488.613281 232.613281 C 493.277344 214.835938 491.171875 192.160156 491.59375 176.738281 C 499.902344 216.992188 490.765625 260.359375 470.242188 295.660156 C 477.527344 296.550781 489.566406 266.789062 493.175781 253.738281 C 499.378906 236.71875 500.558594 214.910156 503.558594 199.5 C 504.164062 238 494.105469 277.914062 470.195312 308.648438 C 494.152344 303.121094 496.621094 271.996094 505.761719 252.742188 C 509.902344 243.5625 510.753906 227.449219 515.234375 221.75 C 509.214844 256.046875 499.296875 291.460938 477.128906 319.019531 C 482.972656 334.921875 492.960938 303.429688 498.890625 296.144531 C 523.214844 245.144531 534.761719 184.425781 514.292969 130.117188 C 499.757812 82.601562 463.582031 42.445312 419.230469 20.753906 C 376.101562 0.578125 316.609375 4.433594 286.425781 44.96875 C 262.753906 75.824219 269.671875 128.210938 303.464844 149.027344 C 326.105469 162.164062 362.691406 156.628906 370.945312 128.75 C 378.542969 117.894531 366.46875 88.136719 356.207031 95.628906 C 375.515625 107.175781 370.617188 137.515625 352.683594 146.847656 C 369.597656 138.59375 367.765625 101.140625 351.316406 103.089844 C 367.492188 107.671875 356.574219 139.304688 353.691406 133.761719 C 367.679688 125.050781 338.230469 94.746094 351.261719 116.050781 C 352.234375 124.460938 346.203125 130.488281 347.730469 117.554688 C 339.128906 105.65625 313.3125 126.796875 307.761719 104.078125 C 321.492188 121.488281 363.554688 101.757812 348.929688 78.097656 C 320.089844 67.414062 339.316406 33.460938 363.542969 34.445312 C 393.515625 31.976562 422.046875 47.46875 445.515625 64.628906 C 457.039062 74.511719 468.941406 88.605469 475.070312 100.6875 C 453.960938 73.089844 424.109375 49.578125 388.9375 44.632812 C 373.855469 43.878906 405.839844 47.378906 411.023438 52.316406 C 443.335938 66.980469 469.925781 96.851562 481.226562 129.28125 C 462.75 92.613281 430.164062 58.347656 388.074219 51.828125 C 377.96875 49.121094 350.214844 60.113281 374.09375 55.585938 C 414.746094 55.558594 447.554688 87.917969 466.46875 121.179688 C 485.214844 154.53125 489.351562 193.9375 483.152344 231.289062 C 479.992188 253.148438 473.929688 275.089844 460.808594 293.167969 Z M 436.964844 489.578125 C 418.9375 512 387.183594 513.261719 361.199219 519.859375 C 321.550781 530.320312 281.488281 545.441406 250.582031 573.257812 C 289.449219 541.96875 338.304688 527.5 386.519531 518.234375 C 403.953125 512.410156 432.027344 510.882812 436.964844 489.578125 Z M 436.605469 501.519531 C 410.707031 526.070312 371.71875 522.558594 339.835938 533.65625 C 309.0625 543.082031 279.246094 556.957031 253.976562 577.078125 C 293.257812 550.164062 340.578125 539.179688 385.886719 526.820312 C 402.84375 521.183594 427.503906 518.824219 436.605469 501.519531 Z M 424.957031 518.789062 C 419.597656 522.097656 395.902344 529.222656 414.011719 525.421875 C 417.996094 523.835938 421.679688 521.542969 424.957031 518.789062 Z M 245.535156 569.347656 C 289.921875 533.738281 346.039062 518.4375 400.398438 505.519531 C 412.539062 500.957031 434.4375 495.265625 433.613281 479.820312 C 418.535156 499.707031 390.203125 501.296875 368.007812 509 C 326.945312 520.417969 286.324219 537.027344 252.238281 562.96875 C 249.898438 564.984375 247.65625 567.109375 245.535156 569.347656 Z M 383.628906 495.859375 C 335.324219 507.460938 286.625 525.328125 248.699219 558.179688 C 287.882812 530.714844 333.003906 512.433594 379.429688 501.3125 C 396.875 494.746094 419.769531 493.511719 430.695312 476.4375 C 417.972656 488.464844 400.109375 492.089844 383.628906 495.859375 Z M 436.042969 444.308594 C 425.167969 446.40625 428.863281 470.808594 429.226562 467.859375 C 443.0625 474.203125 433.304688 454.078125 436.042969 444.308594 Z M 6.019531 728.351562 C 27.320312 727.917969 35.199219 702.675781 54.015625 696.082031 C 63.226562 686.789062 83.003906 705.105469 74.050781 687.746094 C 73.144531 664.050781 110.710938 684.222656 100.230469 659.613281 C 101.097656 648.5 100.023438 620.332031 101.792969 618.671875 C 106.570312 636.8125 98.476562 663.777344 108.304688 676.1875 C 107.890625 666.992188 107.144531 640.558594 111.441406 642.710938 C 113.007812 653.898438 107.035156 683.320312 118.0625 678.871094 C 116.945312 669.066406 118.851562 634.074219 120.714844 661.746094 C 121.519531 670.023438 118.730469 690.328125 127.160156 687.058594 C 128.171875 678.246094 125.621094 651.71875 129.003906 654.238281 C 130.929688 667.140625 127.832031 695.113281 134.78125 697.097656 C 135.488281 681.726562 133.675781 665.78125 135.359375 650.75 C 137.28125 668.835938 138.445312 687.800781 137.597656 706.269531 C 141.976562 715.675781 142.824219 738.273438 144.421875 716.042969 C 147.054688 696.476562 144.882812 676.273438 145.75 656.28125 C 145.484375 633.8125 143.792969 610.933594 145.28125 588.695312 C 149.453125 578.253906 142.308594 563.8125 135.421875 553.433594 C 122.960938 532.121094 99.183594 519.734375 74.726562 519.539062 C 71.871094 500.265625 101.191406 486.199219 100.839844 467.949219 C 104.851562 445.21875 78.515625 434.296875 72.582031 413.148438 C 61.382812 391.761719 50.34375 367.738281 53.257812 343.128906 C 72.308594 341.886719 48.253906 322.140625 52.203125 308.65625 C 49.3125 285.957031 53.332031 262.960938 62.929688 242.292969 C 61.078125 230.71875 78.121094 199.078125 83.828125 222.648438 C 95.089844 244.113281 114.609375 260.773438 138.128906 267.25 C 161.003906 277.480469 185.613281 283.554688 208.1875 294.285156 C 214.089844 301.96875 223.597656 284.488281 234.179688 295.40625 C 264.886719 310.890625 291.078125 338.925781 298.742188 373.058594 C 301.597656 362.042969 325.21875 342.996094 324.730469 364.441406 C 329.46875 374.714844 334.390625 402.089844 343.9375 380.816406 C 372.457031 348.796875 394.65625 310.164062 400.691406 267.191406 C 404.265625 248.234375 404.945312 228.703125 401.460938 209.773438 C 422.425781 195.675781 447.921875 221.050781 455.078125 240.402344 C 463.6875 254.511719 455.753906 285.722656 454.675781 289.785156 C 471.042969 265.367188 479.804688 236.660156 480.589844 207.332031 C 484.722656 150.964844 454.769531 90.816406 402.683594 66.394531 C 387.445312 57.703125 355.507812 58.925781 349.6875 70.613281 C 358.480469 80.726562 362.132812 89.742188 373.65625 97.921875 C 390.789062 124.546875 366.679688 162.457031 335.898438 161.832031 C 306.53125 165.328125 278.574219 144.675781 270.855469 116.585938 C 259.082031 83.003906 270.480469 42.546875 300.605469 22.53125 C 344.421875 -9.238281 407.449219 -0.425781 448.601562 31.792969 C 487.871094 59.28125 515.851562 102.089844 525.53125 149.136719 C 537.773438 198.621094 524.5625 250.824219 503.714844 296.09375 C 493.734375 315.09375 477.445312 330.160156 483.53125 352.925781 C 481.492188 374.117188 471.535156 394 477.679688 415.667969 C 477.851562 429.324219 478.601562 450.660156 475.113281 459.847656 C 473.890625 440.222656 476.496094 420.390625 472.050781 400.996094 C 469.214844 387.605469 471.410156 418.082031 470.433594 423.914062 C 470.960938 432.988281 470.46875 471.164062 466.914062 445.394531 C 466.46875 435.171875 468.242188 407.761719 464.328125 408.570312 C 447.921875 421.097656 459.722656 444.019531 451.402344 458.320312 C 451.519531 449.023438 452.769531 413.78125 446.332031 437.148438 C 447.25 445.125 445.699219 474.34375 442.390625 467.167969 C 442.152344 459.390625 444.160156 424.261719 439.339844 445.707031 C 434.273438 465.777344 445.597656 482.484375 444.054688 501.851562 C 439.625 516.660156 414.871094 530.734375 442.457031 533.800781 C 480.3125 547.171875 506.957031 579.941406 523.871094 615.136719 C 526.761719 631.679688 563.394531 646.273438 536.113281 657.929688 C 523.785156 659.574219 520.546875 660.195312 527.472656 672.535156 C 534.585938 706.75 529.792969 749.65625 499.445312 771.738281 C 485.402344 783.113281 461.203125 782.640625 467.292969 805.949219 C 461.246094 826.28125 469.917969 784.816406 459.210938 788.832031 C 457.691406 778.035156 460.078125 820.75 455.652344 799.707031 C 454.921875 786.722656 456.324219 753.289062 449.242188 754.09375 C 448.078125 770.222656 454.808594 792.46875 448.195312 804.910156 C 446.632812 784.089844 448.335938 761.085938 443.058594 741.863281 C 437.265625 739.683594 443.773438 768.554688 442.011719 779.160156 C 443.988281 789.035156 440.050781 828.195312 439.035156 800.113281 C 439.371094 777.941406 436.3125 755.964844 434.777344 733.898438 C 394.054688 702.480469 328.308594 721.484375 306.484375 766.980469 C 279.167969 821.636719 284.230469 885.222656 293.046875 943.769531 C 298.964844 979.972656 308.117188 1015.574219 318.816406 1050.640625 C 308.082031 1053.589844 301.683594 1075.328125 298.179688 1055.65625 C 267.070312 973.796875 233.484375 887.9375 242.421875 798.628906 C 246.460938 761.648438 255.5625 723.160156 281.613281 695.136719 C 287.46875 688.660156 304.171875 663.558594 287.28125 680.394531 C 269.511719 695.042969 259.160156 717.386719 249.070312 736.488281 C 257.074219 708.0625 275.128906 682.542969 299.257812 665.519531 C 305.351562 650.082031 279.816406 672.960938 275.921875 679.316406 C 269.824219 687.78125 252.980469 710.773438 265.636719 688.835938 C 273.914062 673.714844 287.214844 661.800781 302.808594 654.570312 C 304.945312 637.09375 325.246094 651.632812 336.457031 641.164062 C 355.242188 635.726562 376.347656 633.011719 395.089844 637.199219 C 369.714844 636.601562 344.03125 640.238281 320.441406 649.851562 C 333.789062 653.042969 352.019531 641.203125 368.152344 643.101562 C 379.339844 640.226562 415.695312 646.339844 411.792969 650.234375 C 383.226562 644.960938 353.011719 645.359375 325.675781 656.019531 C 335.140625 663.234375 357.039062 646.628906 372.496094 651.058594 C 390.445312 650.921875 412.769531 653.246094 425.90625 664.121094 C 395.949219 649.710938 358.910156 650.285156 328.980469 664.601562 C 329.175781 676.847656 348.902344 655.402344 359.886719 658.238281 C 405.433594 650.570312 460.652344 673.566406 472.984375 721.277344 C 479.96875 738.128906 470.679688 766.535156 472.289062 776.394531 C 499.96875 762.613281 508.515625 726.015625 500.628906 698.347656 C 511.070312 718.925781 505.425781 745.722656 492.5 764.320312 C 512.992188 738.851562 515.390625 701.273438 503.773438 671.632812 C 519.582031 697.390625 515.625 732.503906 501.46875 758.449219 C 501.519531 761.398438 516.34375 736.605469 516.140625 726.832031 C 520.980469 703.15625 516.871094 677.425781 509.308594 655.667969 C 522.894531 683.113281 526.402344 716.636719 514.34375 745.25 C 525.675781 719.820312 528.957031 689.152344 519.316406 662.679688 C 502.964844 649.382812 553.558594 653.984375 529.289062 649.28125 C 512.15625 638.347656 500.945312 619.285156 492.234375 601.761719 C 502.492188 614.003906 523.050781 646.800781 531.828125 643.316406 C 514.132812 626.589844 503.757812 603.964844 488.648438 585.132812 C 488.648438 581.21875 505.601562 604.015625 510.273438 610.664062 C 515.613281 617.589844 534.171875 642.539062 521.320312 623.375 C 505.417969 593.359375 486.492188 562.710938 455.183594 546.761719 C 435.941406 536.402344 413.785156 532.183594 392.160156 531.367188 C 387.039062 533.128906 413.761719 534.933594 421.097656 538.976562 C 442.539062 545.488281 467.648438 554.414062 479.714844 573.160156 C 456.550781 550.902344 423.242188 543.046875 392.371094 538.515625 C 384.644531 537.542969 359.296875 539.175781 379.277344 539.183594 C 407.4375 541.066406 439.203125 547.332031 458.785156 568.628906 C 439.628906 554.613281 414.949219 548.621094 391.5625 544.824219 C 345.195312 541.4375 297.300781 553.21875 258.535156 579.078125 C 307.292969 549.722656 369.699219 539.476562 424.050781 558.558594 C 433.503906 560.953125 458.703125 580.472656 436.148438 565.96875 C 402.972656 551.332031 364.851562 552.195312 329.628906 557.453125 C 318.496094 558.808594 287.496094 569.433594 288.5 569.632812 C 325.824219 556.253906 367.640625 552.753906 406.15625 562.589844 C 415.382812 565.078125 444.929688 579.847656 418.832031 569.558594 C 384.632812 557.832031 346.804688 559.90625 311.859375 567.210938 C 272.597656 577.140625 234.511719 597.988281 211.730469 632.355469 C 192.933594 654.1875 180.855469 681.105469 169.722656 707.480469 C 158.835938 738.3125 152.683594 770.890625 149.882812 803.382812 C 147.980469 845.097656 154.085938 887.632812 171.210938 925.898438 C 174.769531 934.507812 190.992188 958.191406 190.671875 955.84375 C 172.222656 908.867188 158.601562 859.332031 159.121094 808.480469 C 157.351562 747.875 181.964844 690.007812 214.453125 640.082031 C 227.546875 621.59375 245.328125 606.398438 264.398438 594.613281 C 257.277344 606.539062 236.941406 616.332031 227.457031 630.117188 C 200.429688 663.234375 182.511719 703.363281 170.957031 744.304688 C 155.203125 809.238281 165.835938 877.800781 188.949219 939.640625 C 192.421875 955.058594 205.511719 985.714844 209.671875 989.328125 C 206.539062 982.261719 200.847656 955.382812 207.730469 976.5 C 217.417969 1001.125 228.054688 1025.394531 235.796875 1050.730469 C 246.230469 1070.855469 257.792969 1091.667969 260.949219 1114.382812 C 253.3125 1133.355469 236.609375 1114.210938 234.59375 1101.742188 C 232.273438 1094.523438 227.90625 1078.664062 235.480469 1095.382812 C 236.507812 1106.492188 254.675781 1120.246094 245.074219 1100.546875 C 226.441406 1042.308594 206.605469 982.398438 166.421875 934.953125 C 139.859375 903.515625 105.527344 878.175781 66.539062 864.554688 C 50.0625 854.582031 75.171875 879.195312 80.171875 884.023438 C 106.625 913.519531 133.683594 942.730469 150.566406 979.242188 C 173.164062 1022.074219 191.316406 1067.011719 211.566406 1110.949219 C 221.421875 1122.230469 204.765625 1087.664062 201.140625 1078.828125 C 190.414062 1056.019531 181.816406 1031.867188 171.863281 1009.046875 C 185.722656 1030.105469 193.648438 1055.546875 206.148438 1077.859375 C 215.144531 1096.886719 224.027344 1116.304688 229.050781 1136.792969 C 217.730469 1133.882812 208.085938 1106.929688 199.382812 1093.6875 C 179.371094 1055.730469 163.847656 1015.582031 143.101562 977.980469 C 144.726562 987.902344 141.933594 1003.273438 141.785156 983.871094 C 140.628906 972.40625 134.742188 960.878906 137.109375 979.515625 C 135.765625 999.71875 136.007812 1019.96875 135.523438 1040.199219 C 131.289062 1015.332031 135.492188 989.828125 132.722656 964.789062 C 127.316406 948.675781 131.875 983.109375 129.84375 988.488281 C 130.425781 996.621094 129.65625 1032.785156 127.1875 1008.867188 C 125.882812 987.394531 128.484375 964.660156 122.855469 944.070312 C 122.570312 964.523438 124.277344 994.0625 118.65625 1008.917969 C 120.691406 985.535156 118.507812 962.15625 118.929688 938.78125 C 114.820312 940.132812 117.203125 966.558594 115.378906 978.253906 C 115.65625 988.277344 111.734375 1022.769531 111.421875 996.023438 C 111.285156 973.929688 114.722656 951.171875 111.554688 929.492188 C 104.574219 954.863281 107.640625 982.203125 105.0625 1008.394531 C 102.304688 1022.535156 104.003906 987.140625 104.070312 979.738281 C 104.707031 960.8125 104.109375 941.871094 104.550781 922.941406 C 99.03125 940.679688 103.625 960.144531 101.429688 978.621094 C 100.257812 992.039062 101.414062 1009.351562 98.625 1020.460938 C 97.6875 989.75 99.816406 958.980469 96.757812 928.339844 C 94.085938 940.121094 94.386719 956.839844 91.132812 965.839844 C 91.453125 941.726562 98.855469 913.421875 80.417969 893.707031 C 67.511719 878.683594 38.261719 858.792969 57.222656 837.308594 C 67.429688 830.070312 72.363281 829.054688 56.835938 824.1875 C 31.929688 811.242188 22.027344 783.859375 15.476562 758.382812 C 16.546875 748.957031 -2.582031 734.667969 6.015625 728.351562 "/>
<path style=" stroke:none;fill-rule:nonzero;fill:rgb(100%,100%,100%);fill-opacity:1;" d="M 426.042969 197.832031 L 425.691406 464.550781 L 433.464844 465.871094 L 443.703125 484.671875 L 478.328125 465.257812 L 478.328125 200.304688 Z M 426.042969 2060.554688 L 425.691406 1793.835938 L 433.464844 1792.515625 L 443.703125 1773.714844 L 478.328125 1793.128906 L 478.328125 2058.082031 Z M 426.042969 2060.554688 "/>
<path style=" stroke:none;fill-rule:nonzero;fill:rgb(0%,0%,0%);fill-opacity:1;" d="M 477.996094 555.058594 C 451.917969 544.773438 438.574219 535.640625 429.203125 531.503906 C 428.449219 527.390625 424.761719 528.835938 426.011719 522.542969 C 427.261719 516.246094 441.539062 507.761719 442.246094 497.105469 C 442.675781 490.6875 436.984375 484.816406 435.632812 473.378906 C 434.28125 461.941406 437.089844 437.160156 437.269531 428.941406 C 439.136719 446.960938 437.421875 465.832031 440.410156 480.277344 C 440.171875 490.09375 438.722656 505.238281 442.128906 512.539062 C 442.878906 509.367188 445.648438 463.855469 446.71875 450.441406 C 449.769531 471.660156 445.765625 573.273438 452.050781 459.203125 C 456.152344 486.59375 450.042969 517.746094 455.976562 533.0625 C 455.914062 508.679688 457.683594 483.671875 459.515625 461.222656 C 463.078125 481.40625 458.40625 519.480469 460.578125 538.871094 C 465.859375 516.683594 464.269531 476.667969 465.722656 456.339844 C 468.328125 476.855469 470.246094 521.960938 468.246094 546.203125 C 473.808594 515.789062 470.226562 476.460938 471.425781 448.507812 C 473.03125 476.640625 474.714844 514.382812 476.039062 540.804688 M 477.996094 1703.328125 C 451.917969 1713.613281 438.574219 1722.746094 429.203125 1726.882812 C 428.449219 1730.996094 424.761719 1729.546875 426.011719 1735.84375 C 427.261719 1742.140625 441.539062 1750.625 442.246094 1761.28125 C 442.675781 1767.699219 436.984375 1773.570312 435.632812 1785.007812 C 434.28125 1796.445312 437.089844 1821.222656 437.269531 1829.445312 C 439.136719 1811.425781 437.421875 1792.554688 440.410156 1778.109375 C 440.171875 1768.292969 438.722656 1753.148438 442.128906 1745.847656 C 442.878906 1749.019531 445.648438 1794.53125 446.71875 1807.945312 C 449.769531 1786.726562 445.765625 1685.113281 452.050781 1799.183594 C 456.152344 1771.789062 450.042969 1740.636719 455.976562 1725.324219 C 455.914062 1749.707031 457.683594 1774.710938 459.515625 1797.164062 C 463.078125 1776.980469 458.40625 1738.90625 460.578125 1719.511719 C 465.859375 1741.703125 464.269531 1781.71875 465.722656 1802.046875 C 468.328125 1781.53125 470.246094 1736.421875 468.246094 1712.183594 C 473.808594 1742.597656 470.226562 1781.921875 471.425781 1809.878906 C 473.03125 1781.746094 474.714844 1744.003906 476.039062 1717.582031 "/>
<g clip-path="url(#clip1)" clip-rule="nonzero">
<path style="fill:none;stroke-width:7.2;stroke-linecap:butt;stroke-linejoin:miter;stroke:rgb(0%,0%,0%);stroke-opacity:1;stroke-miterlimit:4;" d="M 478.703125 -8.652344 L 478.703125 62.351562 M 478.703125 150.847656 L 478.703125 557.460938 M 478.703125 779.667969 L 478.703125 1480.316406 M 478.703125 1700.640625 L 478.703125 2105.691406 M 478.703125 2196.742188 L 478.703125 2263.042969 "/>
</g>
<g clip-path="url(#clip2)" clip-rule="nonzero">
<path style="fill:none;stroke-width:7.2;stroke-linecap:butt;stroke-linejoin:miter;stroke:rgb(0%,0%,0%);stroke-opacity:1;stroke-miterlimit:4;" d="M 425.179688 -8.652344 L 425.179688 20.136719 M 425.179688 76.484375 L 425.179688 477.867188 M 425.179688 717.847656 L 425.179688 1553.757812 M 425.179688 1783.3125 L 425.179688 2181.128906 M 425.179688 2237.835938 L 425.179688 2263.042969 "/>
</g>
<g clip-path="url(#clip3)" clip-rule="nonzero">
<path style="fill:none;stroke-width:7.2;stroke-linecap:butt;stroke-linejoin:miter;stroke:rgb(0%,0%,0%);stroke-opacity:1;stroke-miterlimit:4;" d="M 139.609375 -8.652344 L 139.609375 277.847656 M 139.609375 553.75 L 139.609375 750.433594 M 139.609375 965.84375 L 139.609375 1293.714844 M 139.609375 1517.285156 L 139.609375 1705.0625 M 139.609375 1981.414062 L 139.609375 2263.042969 "/>
</g>
<g clip-path="url(#clip4)" clip-rule="nonzero">
<path style="fill:none;stroke-width:7.2;stroke-linecap:butt;stroke-linejoin:miter;stroke:rgb(0%,0%,0%);stroke-opacity:1;stroke-miterlimit:4;" d="M 86.089844 -8.652344 L 86.089844 259.210938 M 86.089844 430.460938 L 86.089844 498.996094 M 86.089844 519.132812 L 86.089844 677.308594 M 86.089844 895.894531 L 86.089844 1361.660156 M 86.089844 1582.484375 L 86.089844 1740.566406 M 86.089844 1760.09375 L 86.089844 1827.789062 M 86.089844 2008.894531 L 86.089844 2263.042969 "/>
</g>
<path style=" stroke:none;fill-rule:nonzero;fill:rgb(100%,100%,100%);fill-opacity:1;" d="M 478.242188 148.816406 L 483.449219 166.832031 L 485.394531 146.519531 Z M 478.242188 2109.570312 L 483.449219 2091.554688 L 485.394531 2111.867188 Z M 478.242188 2109.570312 "/>
<path style=" stroke:none;fill-rule:nonzero;fill:rgb(0%,0%,0%);fill-opacity:1;" d="M 429.011719 82.289062 C 455.085938 92.574219 456.445312 112.445312 467.1875 125.078125 C 467.941406 129.1875 477.496094 141.109375 476.246094 147.402344 C 469.625 160.203125 475.089844 162.0625 466.988281 201.910156 C 464.492188 172.828125 469.894531 154.878906 464.398438 125.65625 C 463.648438 128.824219 461.355469 173.492188 460.289062 186.90625 C 457.238281 165.6875 461.242188 64.070312 454.953125 178.144531 C 450.855469 150.75 456.964844 119.597656 451.027344 104.28125 C 451.09375 128.667969 449.320312 153.671875 447.492188 176.125 C 443.929688 155.9375 448.597656 117.867188 446.425781 98.472656 C 441.144531 120.664062 442.738281 160.679688 441.285156 181.007812 C 438.679688 160.492188 436.757812 115.382812 438.761719 91.144531 C 433.199219 121.554688 436.78125 160.882812 435.582031 188.839844 C 433.972656 160.703125 432.292969 122.964844 430.96875 96.542969 M 429.011719 2176.097656 C 455.085938 2165.8125 456.445312 2145.941406 467.1875 2133.308594 C 467.941406 2129.195312 477.496094 2117.277344 476.246094 2110.980469 C 469.625 2098.183594 475.089844 2096.324219 466.988281 2056.476562 C 464.492188 2085.558594 469.894531 2103.507812 464.398438 2132.730469 C 463.648438 2129.5625 461.355469 2084.894531 460.289062 2071.480469 C 457.238281 2092.699219 461.242188 2194.3125 454.953125 2080.242188 C 450.855469 2107.636719 456.964844 2138.789062 451.027344 2154.101562 C 451.09375 2129.71875 449.320312 2104.714844 447.492188 2082.261719 C 443.929688 2102.445312 448.597656 2140.519531 446.425781 2159.914062 C 441.144531 2137.722656 442.738281 2097.707031 441.285156 2077.378906 C 438.679688 2097.894531 436.757812 2143.003906 438.761719 2167.242188 C 433.199219 2136.828125 436.78125 2097.503906 435.582031 2069.546875 C 433.972656 2097.679688 432.292969 2135.421875 430.96875 2161.84375 "/>
<path style=" stroke:none;fill-rule:nonzero;fill:rgb(100%,100%,100%);fill-opacity:1;" d="M 478.1875 879.085938 C 478.1875 879.085938 492.09375 888.808594 499.164062 894.8125 C 508.171875 902.464844 512.597656 913.910156 512.597656 913.910156 C 511.96875 966.652344 456.402344 984.003906 413.328125 997.636719 C 359.628906 1010.355469 339.140625 1068.996094 339.140625 1068.996094 L 335.886719 1129.191406 L 339.140625 1189.386719 C 339.140625 1189.386719 359.628906 1248.03125 413.328125 1260.75 C 456.402344 1274.382812 511.96875 1291.734375 512.597656 1344.472656 C 512.597656 1344.472656 508.171875 1355.921875 499.164062 1363.574219 C 492.09375 1369.578125 478.1875 1379.300781 478.1875 1379.300781 C 478.1875 1379.300781 525.667969 1356.132812 520.722656 1311.621094 C 515.777344 1267.109375 489.632812 1235.3125 495.992188 1220.476562 C 501.925781 1206.628906 544.183594 1168.15625 552.082031 1129.191406 C 544.183594 1090.230469 501.925781 1051.757812 495.992188 1037.910156 C 489.632812 1023.074219 515.777344 991.277344 520.722656 946.765625 C 525.667969 902.253906 478.1875 879.085938 478.1875 879.085938 Z M 478.1875 879.085938 "/>
<g clip-path="url(#clip5)" clip-rule="nonzero">
<path style="fill:none;stroke-width:6.6;stroke-linecap:butt;stroke-linejoin:miter;stroke:rgb(0%,0%,0%);stroke-opacity:1;stroke-miterlimit:4;" d="M 478.1875 879.085938 C 478.1875 879.085938 492.09375 888.808594 499.164062 894.8125 C 508.171875 902.464844 512.597656 913.910156 512.597656 913.910156 C 511.96875 966.652344 456.402344 984.003906 413.328125 997.636719 C 359.628906 1010.355469 339.140625 1068.996094 339.140625 1068.996094 L 335.886719 1129.191406 L 339.140625 1189.386719 C 339.140625 1189.386719 359.628906 1248.03125 413.328125 1260.75 C 456.402344 1274.382812 511.96875 1291.734375 512.597656 1344.472656 C 512.597656 1344.472656 508.171875 1355.921875 499.164062 1363.574219 C 492.09375 1369.578125 478.1875 1379.300781 478.1875 1379.300781 C 478.1875 1379.300781 525.667969 1356.132812 520.722656 1311.621094 C 515.777344 1267.109375 489.632812 1235.3125 495.992188 1220.476562 C 501.925781 1206.628906 544.183594 1168.15625 552.082031 1129.191406 C 544.183594 1090.230469 501.925781 1051.757812 495.992188 1037.910156 C 489.632812 1023.074219 515.777344 991.277344 520.722656 946.765625 C 525.667969 902.253906 478.1875 879.085938 478.1875 879.085938 Z M 478.1875 879.085938 "/>
</g>
<path style=" stroke:none;fill-rule:nonzero;fill:rgb(0%,0%,0%);fill-opacity:1;" d="M 287.386719 1016.421875 C 228.539062 1016.421875 180.667969 1064.292969 180.667969 1123.136719 C 180.667969 1181.984375 228.539062 1229.851562 287.386719 1229.851562 C 346.230469 1229.851562 394.101562 1181.984375 394.101562 1123.136719 C 394.101562 1064.292969 346.230469 1016.421875 287.386719 1016.421875 Z M 287.386719 1032.023438 C 337.800781 1032.023438 378.5 1072.722656 378.5 1123.136719 C 378.5 1173.550781 337.800781 1214.253906 287.386719 1214.253906 C 236.96875 1214.253906 196.269531 1173.550781 196.269531 1123.136719 C 196.269531 1072.722656 236.96875 1032.023438 287.386719 1032.023438 Z M 287.386719 1032.023438 "/>
<path style=" stroke:none;fill-rule:nonzero;fill:rgb(100%,100%,100%);fill-opacity:1;" d="M 379.058594 1122.390625 C 379.058594 1177.019531 335.019531 1222.054688 287.386719 1222.054688 C 232.753906 1222.054688 188.46875 1177.769531 188.46875 1123.136719 C 188.46875 1068.507812 232.753906 1024.222656 287.386719 1024.222656 C 327.527344 1024.222656 379.058594 1067.757812 379.058594 1122.390625 Z M 379.058594 1122.390625 "/>
<path style=" stroke:none;fill-rule:nonzero;fill:rgb(0%,0%,0%);fill-opacity:1;" d="M 291.804688 1031.695312 C 291.804688 1031.695312 369.246094 1041.6875 369.742188 1127.621094 C 370.242188 1213.550781 276.320312 1210.554688 276.320312 1210.554688 C 276.320312 1210.554688 358.753906 1198.0625 361.25 1129.117188 C 363.75 1060.171875 291.804688 1031.695312 291.804688 1031.695312 Z M 291.804688 1031.695312 "/>
<path style=" stroke:none;fill-rule:nonzero;fill:rgb(0%,0%,0%);fill-opacity:1;" d="M 301.296875 1192.066406 C 301.296875 1192.066406 347.261719 1183.574219 351.757812 1130.617188 C 356.253906 1077.660156 309.292969 1057.675781 309.292969 1057.675781 C 309.292969 1057.675781 351.257812 1089.648438 344.765625 1131.617188 C 338.269531 1173.582031 301.296875 1192.066406 301.296875 1192.066406 Z M 301.296875 1192.066406 "/>
<path style=" stroke:none;fill-rule:nonzero;fill:rgb(0%,0%,0%);fill-opacity:1;" d="M 314.539062 1169.335938 C 314.539062 1168.335938 334.023438 1155.597656 336.019531 1132.117188 C 338.019531 1108.636719 331.773438 1092.648438 316.035156 1085.652344 C 328.277344 1103.140625 332.773438 1113.632812 331.023438 1131.867188 C 329.277344 1150.101562 314.539062 1169.335938 314.539062 1169.335938 Z M 314.539062 1169.335938 "/>
<path style=" stroke:none;fill-rule:nonzero;fill:rgb(0%,0%,0%);fill-opacity:1;" d="M 245.699219 1185.667969 C 222.738281 1170.476562 212.386719 1151.242188 209.664062 1134.089844 C 206.132812 1111.832031 219.558594 1078.273438 233.335938 1070.855469 C 220.265625 1094.523438 192.003906 1129.144531 245.699219 1185.667969 Z M 245.699219 1185.667969 "/>
<path style=" stroke:none;fill-rule:nonzero;fill:rgb(0%,0%,0%);fill-opacity:1;" d="M 318.816406 1124.851562 C 318.816406 1127.746094 318.269531 1130.40625 317.539062 1133.066406 C 316.636719 1135.558594 316.222656 1138.386719 314.851562 1140.746094 C 313.964844 1143.21875 311.613281 1145.175781 309.625 1147.113281 C 307.585938 1148.824219 305.445312 1150.519531 303.109375 1151.886719 C 300.679688 1153.136719 298.308594 1154.339844 295.703125 1155.113281 C 293.054688 1155.898438 290.414062 1156.40625 287.519531 1156.40625 C 284.625 1156.40625 281.660156 1155.800781 278.992188 1155.066406 C 276.238281 1154.136719 274.195312 1153.40625 271.921875 1152.101562 C 269.765625 1150.804688 267.285156 1149.027344 265.3125 1147.078125 C 263.402344 1145.195312 261.863281 1143.128906 260.476562 1140.8125 C 259.21875 1138.539062 257.960938 1135.9375 257.175781 1133.25 C 256.398438 1130.589844 255.96875 1127.785156 255.96875 1124.90625 C 255.96875 1122.011719 256.175781 1118.789062 256.90625 1116.125 C 257.429688 1113.121094 258.5 1110.859375 259.8125 1108.617188 C 261.03125 1106.027344 263.101562 1104.167969 265.039062 1102.308594 C 267.1875 1100.476562 269.109375 1098.882812 271.429688 1097.578125 C 273.800781 1096.265625 276.347656 1095.234375 279.03125 1094.535156 C 281.691406 1093.839844 284.519531 1093.488281 287.429688 1093.488281 C 290.324219 1093.488281 293.867188 1093.910156 296.527344 1094.640625 C 299.730469 1095.351562 301.210938 1095.796875 303.347656 1097.015625 C 305.738281 1097.941406 308.136719 1100.242188 310.105469 1102.324219 C 312.007812 1104.300781 313.5625 1106.503906 314.859375 1108.90625 C 316.167969 1111.300781 317.574219 1113.988281 318.246094 1116.671875 C 318.917969 1119.359375 318.816406 1121.96875 318.816406 1124.851562 Z M 318.816406 1124.851562 "/>
<path style=" stroke:none;fill-rule:nonzero;fill:rgb(0%,0%,0%);fill-opacity:1;" d="M 358.921875 1046.386719 C 358.921875 1046.386719 379.414062 1016.714844 401.667969 1011.0625 C 423.925781 1005.410156 486.101562 975.027344 486.101562 975.027344 C 486.101562 975.027344 428.515625 1007.527344 409.792969 1014.242188 C 391.070312 1020.953125 364.574219 1049.921875 364.574219 1049.921875 C 364.574219 1049.921875 384.359375 1033.316406 403.433594 1024.484375 C 422.511719 1015.652344 461.726562 993.75 461.726562 993.75 C 461.726562 993.75 407.320312 1028.722656 396.722656 1034.375 C 386.125 1040.027344 368.460938 1057.691406 368.460938 1057.691406 C 368.460938 1057.691406 381.53125 1044.269531 397.78125 1037.910156 C 414.035156 1031.550781 441.589844 1013.886719 441.589844 1013.886719 C 441.589844 1013.886719 402.023438 1042.503906 391.070312 1047.09375 C 380.121094 1051.6875 371.289062 1063.34375 371.289062 1063.34375 C 371.289062 1063.34375 388.597656 1051.6875 397.429688 1048.859375 C 384.359375 1059.460938 374.46875 1068.289062 374.46875 1068.289062 L 392.484375 1058.046875 L 374.820312 1075.355469 C 374.820312 1075.355469 394.25 1058.046875 412.621094 1053.101562 C 399.195312 1062.285156 380.121094 1080.65625 380.121094 1080.65625 C 380.121094 1080.65625 408.734375 1056.28125 436.289062 1053.808594 C 411.558594 1058.753906 380.824219 1089.839844 380.824219 1089.839844 C 380.824219 1089.839844 421.453125 1053.453125 461.019531 1058.753906 C 428.515625 1058.046875 382.59375 1095.847656 382.59375 1095.847656 C 382.59375 1095.847656 415.09375 1073.589844 427.8125 1073.238281 C 407.675781 1084.894531 388.597656 1100.085938 388.597656 1100.085938 L 415.800781 1084.1875 C 401.667969 1094.078125 390.363281 1107.503906 390.363281 1107.503906 C 390.363281 1107.503906 415.445312 1086.660156 431.695312 1086.308594 C 416.152344 1091.605469 391.070312 1112.097656 391.070312 1112.097656 C 391.070312 1112.097656 415.800781 1094.078125 463.136719 1094.078125 C 412.972656 1097.257812 388.949219 1119.160156 388.949219 1119.160156 C 388.949219 1119.160156 444.769531 1093.726562 489.988281 1100.792969 C 434.875 1100.792969 387.183594 1125.167969 387.183594 1125.167969 C 387.183594 1125.167969 466.316406 1103.617188 503.410156 1112.449219 C 449.714844 1107.503906 384.710938 1130.464844 384.710938 1130.464844 L 520.015625 1125.519531 L 381.886719 1141.417969 C 381.886719 1141.417969 445.894531 1142.585938 458.632812 1139.589844 C 430.15625 1148.832031 384.441406 1147.082031 384.441406 1147.082031 C 384.441406 1147.082031 402.925781 1152.078125 422.660156 1150.578125 C 398.679688 1155.074219 384.691406 1153.078125 384.691406 1153.078125 C 384.691406 1153.078125 410.671875 1165.316406 422.660156 1166.066406 C 400.179688 1164.070312 383.691406 1157.074219 383.691406 1157.074219 C 383.691406 1157.074219 408.921875 1170.0625 429.15625 1173.3125 C 387.441406 1166.816406 383.195312 1162.820312 383.195312 1162.820312 C 383.195312 1162.820312 417.167969 1181.304688 442.144531 1184.550781 C 397.933594 1179.304688 381.695312 1166.566406 381.695312 1166.566406 C 381.695312 1166.566406 425.660156 1193.796875 458.632812 1196.292969 C 404.425781 1189.046875 378.695312 1171.8125 378.695312 1171.8125 C 378.695312 1171.8125 425.910156 1203.785156 465.378906 1211.78125 C 418.164062 1208.78125 372.453125 1178.058594 372.453125 1178.058594 C 372.453125 1178.058594 401.429688 1204.785156 420.914062 1212.53125 C 440.398438 1220.273438 449.140625 1223.269531 452.386719 1227.019531 C 439.898438 1222.023438 414.917969 1213.527344 402.179688 1208.53125 C 389.4375 1203.539062 369.203125 1186.300781 369.203125 1186.300781 C 369.203125 1186.300781 390.4375 1210.78125 413.167969 1221.523438 C 435.902344 1232.265625 466.625 1243.253906 472.371094 1249.5 C 454.386719 1241.757812 420.414062 1231.515625 406.175781 1223.769531 C 391.9375 1216.027344 366.207031 1191.796875 366.207031 1191.796875 C 366.207031 1191.796875 387.191406 1227.769531 416.417969 1237.511719 C 445.644531 1247.253906 468.625 1254.746094 479.867188 1265.738281 C 449.140625 1251.5 416.917969 1246.753906 401.179688 1236.511719 C 385.441406 1226.269531 359.460938 1197.792969 359.460938 1197.792969 C 359.460938 1197.792969 379.945312 1232.515625 395.433594 1239.507812 C 410.921875 1246.503906 479.117188 1265.738281 492.105469 1283.722656 C 471.871094 1275.480469 440.148438 1261.242188 419.914062 1255.996094 C 399.679688 1250.75 381.195312 1241.007812 369.953125 1228.515625 C 358.714844 1216.027344 351.21875 1204.785156 351.21875 1204.785156 L 368.207031 1178.558594 L 382.445312 1135.09375 L 380.695312 1099.871094 L 366.457031 1067.144531 Z M 358.921875 1046.386719 "/>
<path style=" stroke:none;fill-rule:nonzero;fill:rgb(0%,0%,0%);fill-opacity:1;" d="M 516.085938 921.261719 C 516.085938 921.261719 514.839844 949.242188 494.355469 968.226562 C 514.589844 950.988281 518.585938 927.007812 518.585938 927.007812 C 518.585938 927.007812 517.085938 954.984375 494.605469 977.96875 C 510.839844 964.476562 519.335938 945.242188 519.335938 945.242188 C 519.335938 945.242188 512.089844 975.96875 491.355469 989.957031 C 516.835938 973.972656 517.585938 965.226562 517.585938 965.226562 C 517.585938 965.226562 507.34375 985.960938 500.847656 992.207031 C 510.09375 986.210938 513.339844 980.464844 513.339844 980.464844 L 521.332031 955.484375 L 520.582031 924.011719 Z M 516.085938 1337.121094 C 516.085938 1337.121094 514.839844 1309.144531 494.355469 1290.160156 C 514.589844 1307.398438 518.585938 1331.378906 518.585938 1331.378906 C 518.585938 1331.378906 517.085938 1303.398438 494.605469 1280.417969 C 510.839844 1293.90625 519.335938 1313.140625 519.335938 1313.140625 C 519.335938 1313.140625 512.089844 1282.417969 491.355469 1268.429688 C 516.835938 1284.414062 517.585938 1293.160156 517.585938 1293.160156 C 517.585938 1293.160156 507.34375 1272.425781 500.847656 1266.179688 C 510.09375 1272.175781 513.339844 1277.921875 513.339844 1277.921875 L 521.332031 1302.902344 L 520.582031 1334.375 Z M 516.085938 1337.121094 "/>
<path style=" stroke:none;fill-rule:nonzero;fill:rgb(0%,0%,0%);fill-opacity:1;" d="M 299.660156 821.796875 L 319.003906 832.570312 L 298.601562 825.859375 L 310.523438 833.1875 L 298.777344 829.832031 L 304.960938 834.601562 L 297.367188 834.777344 L 299.042969 821.882812 Z M 299.660156 821.796875 "/>
<path style="fill:none;stroke-width:6.6;stroke-linecap:butt;stroke-linejoin:miter;stroke:rgb(0%,0%,0%);stroke-opacity:1;stroke-miterlimit:4;" d="M 425.214844 852.496094 C 425.214844 852.496094 379.597656 813.074219 395.144531 784.105469 C 362.640625 767.855469 351.835938 792.445312 351.835938 792.445312 C 334.375 799.769531 316.277344 795.917969 297.757812 818.023438 C 297.597656 845.742188 319.191406 859.1875 328.792969 895.515625 C 383.882812 865.496094 419.96875 935.0625 424.632812 989.15625 M 425.214844 1405.890625 C 425.214844 1405.890625 379.597656 1445.3125 395.144531 1474.28125 C 362.640625 1490.53125 351.835938 1465.9375 351.835938 1465.9375 C 334.375 1458.617188 316.277344 1462.46875 297.757812 1440.363281 C 297.597656 1412.644531 319.191406 1399.195312 328.792969 1362.871094 C 383.882812 1392.890625 419.96875 1323.324219 424.632812 1269.226562 "/>
<path style=" stroke:none;fill-rule:nonzero;fill:rgb(0%,0%,0%);fill-opacity:1;" d="M 424.410156 897.53125 C 424.410156 897.53125 374.199219 851.570312 355.464844 842.574219 C 381.195312 853.066406 416.917969 881.296875 416.917969 881.296875 C 416.917969 881.296875 387.691406 852.316406 377.699219 847.074219 C 397.183594 856.316406 414.667969 870.054688 414.667969 870.054688 C 414.667969 870.054688 371.953125 838.828125 370.703125 823.589844 C 374.199219 836.082031 411.921875 860.5625 411.921875 860.5625 C 411.921875 860.5625 367.457031 828.085938 370.703125 808.351562 C 367.957031 825.589844 413.917969 854.316406 413.917969 854.316406 C 413.917969 854.316406 361.460938 816.597656 376.199219 796.613281 C 371.703125 809.101562 391.4375 827.835938 391.4375 827.835938 C 391.4375 827.835938 374.699219 803.109375 381.695312 792.117188 C 382.695312 800.109375 388.6875 816.847656 398.929688 825.339844 C 410.421875 836.082031 424.660156 853.066406 424.660156 853.066406 Z M 424.410156 1360.855469 C 424.410156 1360.855469 374.199219 1406.816406 355.464844 1415.808594 C 381.195312 1405.320312 416.917969 1377.089844 416.917969 1377.089844 C 416.917969 1377.089844 387.691406 1406.066406 377.699219 1411.3125 C 397.183594 1402.070312 414.667969 1388.332031 414.667969 1388.332031 C 414.667969 1388.332031 371.953125 1419.558594 370.703125 1434.796875 C 374.199219 1422.304688 411.921875 1397.824219 411.921875 1397.824219 C 411.921875 1397.824219 367.457031 1430.296875 370.703125 1450.03125 C 367.957031 1432.796875 413.917969 1404.070312 413.917969 1404.070312 C 413.917969 1404.070312 361.460938 1441.789062 376.199219 1461.773438 C 371.703125 1449.285156 391.4375 1430.546875 391.4375 1430.546875 C 391.4375 1430.546875 374.699219 1455.277344 381.695312 1466.269531 C 382.695312 1458.277344 388.6875 1441.539062 398.929688 1433.046875 C 410.421875 1422.304688 424.660156 1405.320312 424.660156 1405.320312 Z M 424.410156 1360.855469 "/>
<path style=" stroke:none;fill-rule:nonzero;fill:rgb(0%,0%,0%);fill-opacity:1;" d="M 481.863281 884.765625 C 481.863281 884.765625 503.585938 905.015625 505 913.746094 C 498.464844 900.742188 486.628906 895.914062 486.628906 895.914062 C 486.628906 895.914062 501.113281 907.800781 502.527344 918.019531 C 499.878906 910.773438 488.398438 903.714844 488.398438 903.714844 C 488.398438 903.714844 502.351562 917.089844 501.644531 925.636719 C 500.054688 915.976562 490.515625 913.558594 490.515625 913.558594 C 490.515625 913.558594 499.347656 924.335938 499.523438 932.324219 C 497.40625 923.589844 483.980469 916.160156 483.980469 916.160156 C 483.980469 916.160156 496.167969 926.75 498.640625 938.265625 C 493.34375 929.535156 484.6875 923.777344 484.6875 923.777344 C 484.6875 923.777344 497.933594 938.082031 496.34375 949.042969 C 496.664062 944.199219 489.957031 931.984375 483.679688 931.246094 C 484.953125 931.773438 493.910156 947.777344 493.503906 953.050781 C 492.390625 950.597656 487.878906 942.210938 484.414062 941.777344 C 483.492188 941.664062 490.1875 950.074219 488.683594 952.332031 C 485.941406 946.902344 480.898438 945.203125 480.746094 950.695312 C 477.785156 945.640625 479.386719 926.75 479.386719 926.75 Z M 481.863281 1373.621094 C 481.863281 1373.621094 503.585938 1353.371094 505 1344.640625 C 498.464844 1357.644531 486.628906 1362.472656 486.628906 1362.472656 C 486.628906 1362.472656 501.113281 1350.585938 502.527344 1340.367188 C 499.878906 1347.613281 488.398438 1354.671875 488.398438 1354.671875 C 488.398438 1354.671875 502.351562 1341.296875 501.644531 1332.75 C 500.054688 1342.410156 490.515625 1344.824219 490.515625 1344.824219 C 490.515625 1344.824219 499.347656 1334.050781 499.523438 1326.0625 C 497.40625 1334.792969 483.980469 1342.226562 483.980469 1342.226562 C 483.980469 1342.226562 496.167969 1331.636719 498.640625 1320.117188 C 493.34375 1328.851562 484.6875 1334.609375 484.6875 1334.609375 C 484.6875 1334.609375 497.933594 1320.304688 496.34375 1309.34375 C 496.664062 1314.1875 489.957031 1326.402344 483.679688 1327.136719 C 484.953125 1326.613281 493.910156 1310.609375 493.503906 1305.335938 C 492.390625 1307.789062 487.878906 1316.175781 484.414062 1316.609375 C 483.492188 1316.722656 490.1875 1308.308594 488.683594 1306.054688 C 485.941406 1311.480469 480.898438 1313.183594 480.746094 1307.691406 C 477.785156 1312.746094 479.386719 1331.636719 479.386719 1331.636719 Z M 481.863281 1373.621094 "/>
<path style=" stroke:none;fill-rule:nonzero;fill:rgb(0%,0%,0%);fill-opacity:1;" d="M 298.867188 820.648438 L 344.4375 837.957031 L 303.988281 813.757812 C 303.988281 813.757812 332.429688 823.472656 339.667969 826.832031 C 332.78125 819.410156 307.699219 808.285156 307.699219 808.285156 C 307.699219 808.285156 328.894531 810.402344 334.902344 815.171875 C 328.71875 807.929688 315.117188 803.515625 315.117188 803.515625 C 315.117188 803.515625 329.953125 803.515625 336.84375 807.222656 C 328.71875 799.273438 322.890625 799.453125 322.890625 799.453125 C 322.890625 799.453125 334.722656 797.507812 338.785156 799.628906 C 336.3125 796.273438 334.195312 794.328125 334.195312 794.328125 L 312.46875 801.925781 Z M 298.867188 1437.738281 L 344.4375 1420.429688 L 303.988281 1444.625 C 303.988281 1444.625 332.429688 1434.910156 339.667969 1431.554688 C 332.78125 1438.972656 307.699219 1450.101562 307.699219 1450.101562 C 307.699219 1450.101562 328.894531 1447.984375 334.902344 1443.214844 C 328.71875 1450.457031 315.117188 1454.871094 315.117188 1454.871094 C 315.117188 1454.871094 329.953125 1454.871094 336.84375 1451.164062 C 328.71875 1459.109375 322.890625 1458.933594 322.890625 1458.933594 C 322.890625 1458.933594 334.722656 1460.878906 338.785156 1458.757812 C 336.3125 1462.113281 334.195312 1464.058594 334.195312 1464.058594 L 312.46875 1456.460938 Z M 298.867188 1437.738281 "/>
<path style=" stroke:none;fill-rule:nonzero;fill:rgb(0%,0%,0%);fill-opacity:1;" d="M 420.664062 958.484375 C 420.664062 958.484375 418.164062 916.515625 384.191406 892.035156 C 402.679688 904.277344 413.167969 918.015625 418.914062 930.753906 C 412.667969 909.523438 390.9375 893.035156 390.9375 893.035156 C 390.9375 893.035156 410.671875 904.777344 417.914062 917.765625 C 412.171875 901.277344 402.179688 896.53125 402.179688 896.53125 C 402.179688 896.53125 414.167969 901.265625 418.328125 907.761719 C 415.898438 899.164062 405.429688 893.988281 405.429688 893.988281 C 405.429688 893.988281 416.667969 897.28125 419.414062 900.28125 C 419.914062 897.78125 401.683594 886.410156 401.683594 886.410156 L 424.410156 895.535156 L 424.660156 958.984375 Z M 420.664062 1299.902344 C 420.664062 1299.902344 418.164062 1341.871094 384.191406 1366.351562 C 402.679688 1354.109375 413.167969 1340.371094 418.914062 1327.628906 C 412.667969 1348.863281 390.9375 1365.351562 390.9375 1365.351562 C 390.9375 1365.351562 410.671875 1353.609375 417.914062 1340.621094 C 412.171875 1357.105469 402.179688 1361.851562 402.179688 1361.851562 C 402.179688 1361.851562 414.167969 1357.121094 418.328125 1350.625 C 415.898438 1359.222656 405.429688 1364.398438 405.429688 1364.398438 C 405.429688 1364.398438 416.667969 1361.105469 419.414062 1358.105469 C 419.914062 1360.605469 401.683594 1371.976562 401.683594 1371.976562 L 424.410156 1362.851562 L 424.660156 1299.402344 Z M 420.664062 1299.902344 "/>
</g>
</svg>
