<?xml version="1.0" encoding="UTF-8"?>
<svg xmlns="http://www.w3.org/2000/svg" xmlns:xlink="http://www.w3.org/1999/xlink" width="1400.442719pt" height="1056.615509pt" viewBox="0 0 1400.442719 1056.615509" version="1.1">
<defs>
<clipPath id="clip1">
  <path d="M 0 546 L 1400.441406 546 L 1400.441406 578 L 0 578 Z M 0 546 "/>
</clipPath>
<clipPath id="clip2">
  <path d="M 0 504 L 1400.441406 504 L 1400.441406 518 L 0 518 Z M 0 504 "/>
</clipPath>
<clipPath id="clip3">
  <path d="M 216 507 L 1184 507 L 1184 1056.617188 L 216 1056.617188 Z M 216 507 "/>
</clipPath>
</defs>
<g id="surface1">
<path style=" stroke:none;fill-rule:nonzero;fill:rgb(100%,100%,100%);fill-opacity:1;" d="M 700.222656 469.238281 L 57.011719 502.488281 L 240.769531 506.199219 L 60.457031 544.382812 L 223.800781 558.96875 L 178.988281 575.675781 L 700.222656 613.800781 L 1221.457031 575.675781 L 1176.644531 558.96875 L 1339.984375 544.382812 L 1159.671875 506.199219 L 1343.433594 502.488281 Z M 700.222656 469.238281 "/>
<g clip-path="url(#clip1)" clip-rule="nonzero">
<path style=" stroke:none;fill-rule:nonzero;fill:rgb(0%,0%,0%);fill-opacity:1;" d="M 27.847656 546.839844 L 0 546.839844 L 0 550.835938 L 27.847656 550.835938 C 56.378906 550.835938 216.574219 558.023438 262.761719 577.105469 C 263.148438 574.871094 291.253906 570.90625 323.011719 574.230469 C 251.390625 546.414062 53.027344 546.839844 27.847656 546.839844 M 1372.59375 546.839844 L 1400.441406 546.839844 L 1400.441406 550.835938 L 1372.59375 550.835938 C 1344.0625 550.835938 1183.871094 558.023438 1137.683594 577.105469 C 1137.292969 574.871094 1109.1875 570.90625 1077.429688 574.230469 C 1149.054688 546.414062 1347.417969 546.839844 1372.59375 546.839844 "/>
</g>
<g clip-path="url(#clip2)" clip-rule="nonzero">
<path style=" stroke:none;fill-rule:nonzero;fill:rgb(0%,0%,0%);fill-opacity:1;" d="M 27.847656 505.769531 L 0 505.769531 L 0 509.78125 L 27.847656 509.78125 C 42.867188 509.78125 234.90625 507.863281 279.667969 517.773438 C 274.027344 512.007812 281.085938 511.46875 278.425781 510.617188 C 250.917969 500.125 57.445312 506.082031 27.847656 505.769531 M 1372.59375 505.769531 L 1400.441406 505.769531 L 1400.441406 509.78125 L 1372.59375 509.78125 C 1357.574219 509.78125 1165.535156 507.863281 1120.777344 517.773438 C 1126.414062 512.007812 1119.359375 511.46875 1122.015625 510.617188 C 1149.523438 500.125 1343 506.082031 1372.59375 505.769531 "/>
</g>
<g clip-path="url(#clip3)" clip-rule="nonzero">
<path style=" stroke:none;fill-rule:nonzero;fill:rgb(0%,0%,0%);fill-opacity:1;" d="M 251.238281 566.535156 C 301.582031 563.855469 350.027344 572.199219 375.898438 612.722656 C 389.285156 633.695312 391.476562 662.550781 378.871094 684.601562 C 378.773438 684.800781 378.660156 684.992188 378.539062 685.175781 C 378.332031 685.53125 378.125 685.890625 377.910156 686.238281 C 377.851562 686.324219 377.796875 686.402344 377.753906 686.488281 C 376.851562 687.925781 375.855469 689.320312 374.816406 690.699219 C 374.371094 691.945312 373.765625 693.121094 372.992188 694.191406 C 375.945312 692.828125 378.648438 690.6875 381.164062 688.703125 C 388.613281 682.851562 394.761719 671.921875 394.582031 662.535156 C 394.566406 661.601562 395.867188 661.535156 396.015625 662.425781 C 397.148438 669.304688 395.402344 676.042969 392.019531 682.03125 C 390.195312 686.679688 386.984375 691.023438 383.824219 694.535156 C 382.328125 696.1875 378.675781 699.351562 374.960938 701.230469 C 375.695312 701.269531 376.488281 701.210938 377.355469 701.011719 C 381.261719 700.136719 384.6875 697.359375 387.542969 694.722656 C 393.148438 689.523438 398.644531 682.304688 400.898438 674.996094 C 401.109375 674.296875 402.058594 674.488281 402.003906 675.203125 C 401.308594 684.394531 394.484375 694.089844 387.585938 700.035156 C 387.460938 700.148438 387.320312 700.261719 387.179688 700.371094 C 387.902344 700.210938 388.617188 700.007812 389.308594 699.738281 C 395.910156 697.148438 400.695312 691.121094 403.898438 685.136719 C 404.289062 684.421875 405.375 684.9375 405.046875 685.675781 C 402.160156 692.136719 398.351562 697.777344 392.488281 701.964844 C 397.515625 700.269531 401.734375 697.21875 405.175781 693.394531 C 405.226562 693.269531 405.257812 693.132812 405.328125 693.003906 C 405.445312 692.691406 405.679688 692.554688 405.941406 692.53125 C 410.460938 687.191406 413.613281 680.535156 415.566406 674.015625 C 416.054688 672.417969 418.378906 672.824219 418.15625 674.488281 C 417.558594 678.941406 416.335938 683.367188 414.511719 687.496094 C 413.214844 701.316406 410.625 719.417969 397.855469 726.496094 C 398.070312 729.085938 398.445312 731.664062 398.96875 734.21875 C 400.589844 733.84375 401.660156 733.128906 403.28125 731.230469 C 405.558594 728.558594 407.21875 725.386719 408.878906 722.339844 C 414.234375 712.429688 417.335938 702.171875 417.328125 690.945312 C 417.316406 690.054688 418.632812 689.957031 418.730469 690.84375 C 420.132812 704.242188 417.097656 715.925781 410.933594 727.882812 C 408.902344 731.839844 406.339844 736.441406 402.269531 738.695312 C 401.636719 739.042969 400.941406 739.265625 400.234375 739.367188 C 400.359375 739.8125 400.472656 740.246094 400.601562 740.683594 C 401.242188 741.738281 401.601562 742.984375 401.757812 744.3125 C 401.957031 744.878906 402.152344 745.433594 402.359375 745.992188 C 408.152344 742.242188 412.332031 735.121094 415.621094 729.6875 C 421.777344 719.515625 423.023438 707.683594 424.445312 696.21875 C 424.542969 695.414062 425.945312 695.476562 425.90625 696.296875 C 425.109375 709.867188 424.40625 722.066406 417.609375 734.285156 C 415.125 738.753906 410.265625 747.617188 404.328125 751.042969 C 404.828125 752.257812 405.347656 753.472656 405.894531 754.679688 C 408.207031 752.625 410.683594 750.691406 412.714844 748.503906 C 417.214844 743.679688 420.914062 738.3125 423.921875 732.492188 C 427.347656 725.875 429.667969 718.792969 431.328125 711.59375 C 432.855469 704.976562 431.960938 698.292969 432.703125 691.613281 C 432.796875 690.785156 434.25 690.859375 434.191406 691.695312 C 433.8125 698.539062 435.007812 705.242188 433.925781 712.070312 C 432.746094 719.566406 430.222656 727.046875 427.40625 734.117188 C 424.859375 740.488281 421.101562 746.519531 416.613281 751.769531 C 414.292969 754.496094 411.507812 757.605469 408.324219 759.867188 C 409.355469 761.996094 410.421875 764.109375 411.511719 766.199219 C 414.222656 764.851562 416.519531 762.191406 418.453125 760.03125 C 423.523438 754.347656 427.523438 747.699219 431.167969 741.082031 C 434.945312 734.234375 437.386719 727.132812 438.894531 719.488281 C 441.078125 708.5 442.058594 694.976562 439.046875 684.117188 C 438.902344 683.597656 439.683594 683.316406 439.855469 683.832031 C 446.5625 704.367188 443.695312 726.242188 433.589844 745.484375 C 429.578125 753.128906 424.925781 760.914062 418.699219 767.046875 C 417.515625 768.210938 415.761719 769.566406 413.84375 770.617188 C 414.679688 772.191406 415.523438 773.753906 416.355469 775.304688 C 417.375 774.828125 418.441406 774.175781 419.605469 773.273438 C 423.777344 770.0625 426.953125 765.273438 429.734375 760.925781 C 436.394531 750.617188 441.464844 739.53125 444.445312 727.707031 C 447.480469 715.632812 447.664062 702.980469 446.554688 690.710938 C 445.949219 684.085938 444.722656 677.578125 443.199219 671.121094 C 441.851562 665.4375 441.238281 659.410156 439.078125 653.996094 C 438.917969 653.59375 439.597656 653.34375 439.71875 653.765625 C 441.710938 660.601562 444.640625 666.898438 446.085938 673.933594 C 447.457031 680.617188 448.4375 687.410156 449.113281 694.203125 C 450.484375 708.054688 449.871094 721.820312 445.910156 735.3125 C 442.40625 747.292969 436.410156 758.523438 429.269531 768.828125 C 426.988281 772.125 423.011719 776.625 418.539062 779.382812 C 418.605469 779.5 418.667969 779.621094 418.734375 779.738281 C 422.484375 778.617188 426.074219 777.070312 429.484375 775.207031 C 431.027344 773.5 432.773438 771.960938 434.375 770.273438 C 438.160156 766.285156 441.265625 761.820312 444.0625 757.144531 C 449.234375 748.460938 452.683594 738.335938 451.960938 728.285156 C 451.914062 727.492188 453.15625 727.402344 453.230469 728.199219 C 454.269531 738.171875 451.957031 747.867188 447.792969 757.003906 C 446.757812 759.234375 445.445312 761.867188 443.878906 764.542969 C 446.828125 761.714844 449.554688 758.648438 452.007812 755.429688 C 456.441406 749.65625 457.335938 742.425781 458.269531 735.53125 C 458.9375 730.574219 457.75 722.832031 461.386719 718.949219 C 462.402344 717.839844 464.527344 717.683594 465.367188 719.113281 C 467.691406 723.097656 466.359375 729.394531 465.210938 734.566406 C 469.894531 748.1875 468.960938 764.164062 468.171875 778.164062 C 467.367188 792.300781 465.464844 806.828125 457.992188 819.285156 C 457.703125 819.742188 456.96875 819.410156 457.21875 818.9375 C 463.941406 806.367188 465.019531 792.210938 465.507812 778.367188 C 465.789062 770.78125 465.820312 763.191406 465.328125 755.617188 C 465.039062 751.148438 464.296875 746.847656 463.398438 742.570312 C 462.988281 744.019531 462.488281 745.460938 461.9375 746.886719 C 462.613281 753.15625 462.652344 759.582031 462.714844 765.796875 C 462.792969 775.132812 462.335938 784.457031 460.9375 793.71875 C 458.285156 811.503906 451.480469 829 438.433594 842 C 438.152344 842.277344 437.71875 841.925781 437.960938 841.609375 C 449.351562 827.445312 455.773438 810.910156 458.464844 793.265625 C 459.832031 784.257812 460.1875 775.082031 459.851562 766.011719 C 459.691406 761.84375 459.238281 757.710938 458.75 753.585938 C 458.277344 754.414062 457.796875 755.234375 457.28125 756.035156 C 456.859375 763.386719 458.210938 770.574219 457.765625 777.9375 C 457.195312 787.15625 455.671875 796.355469 453.109375 805.277344 C 448.191406 822.390625 438.367188 838.367188 425.265625 850.699219 C 424.855469 851.09375 424.1875 850.566406 424.585938 850.140625 C 437.488281 836.289062 447.023438 819.652344 451.691406 801.480469 C 453.984375 792.574219 455.582031 782.863281 455.207031 773.699219 C 455.144531 772.136719 454.898438 770.460938 454.644531 768.753906 C 453.902344 782.304688 451.140625 795.820312 447.046875 808.777344 C 442.167969 824.269531 433.253906 837.015625 421.496094 848.339844 C 409.21875 860.140625 394.234375 868.996094 377.773438 873.730469 C 369.601562 876.085938 360.746094 877.3125 352.261719 877.027344 C 350.839844 876.980469 349.449219 876.8125 348.101562 876.5625 C 345.097656 876.421875 342.117188 876.035156 339.179688 875.378906 C 334.613281 874.359375 330.429688 872.1875 325.917969 871.035156 C 322.320312 870.101562 318.566406 869.792969 315.140625 868.414062 C 317.550781 870.597656 320.175781 872.542969 322.898438 874.265625 C 333.832031 881.167969 347.148438 883.4375 360.011719 883.871094 C 360.773438 883.902344 360.863281 885.050781 360.089844 885.042969 C 346.792969 884.886719 333.441406 882.886719 321.5625 876.953125 C 315.855469 874.101562 311.03125 870.085938 306.90625 865.339844 C 305.160156 863.328125 302.945312 860.589844 301.285156 857.640625 C 294.996094 851.632812 290.359375 843.832031 288.320312 835.460938 C 287.105469 844.136719 291.269531 852.511719 295.488281 859.789062 C 304.578125 875.445312 320.960938 886.203125 338.816406 890.050781 C 338.988281 890.089844 338.941406 890.351562 338.761719 890.320312 C 317.980469 886.902344 301.425781 876.652344 290.554688 858.804688 C 288.007812 854.628906 286.046875 850.140625 284.984375 845.46875 L 284.984375 845.476562 C 285.132812 846.125 285.261719 846.777344 285.429688 847.414062 C 287.890625 856.988281 292.734375 865.847656 298.460938 873.855469 C 305.324219 883.453125 314.085938 889.667969 325.21875 893.875 C 327.21875 894.632812 329.238281 895.207031 331.300781 895.667969 C 333.289062 896.558594 335.339844 897.382812 337.394531 898.1875 C 337.328125 898.410156 337.292969 898.640625 337.324219 898.882812 C 332.886719 898.519531 328.46875 897.761719 324.042969 896.269531 C 312.222656 892.296875 302.664062 885.894531 295.003906 876.226562 C 289.421875 869.167969 284.929688 860.945312 282 852.351562 C 282.035156 852.589844 282.070312 852.824219 282.105469 853.054688 C 282.945312 858.328125 284.90625 863.625 287.164062 868.652344 C 294.371094 879.753906 303.425781 890.304688 315.726562 895.867188 C 328.351562 901.566406 343.507812 903.609375 357.386719 903.183594 C 389.101562 902.207031 418.878906 885.460938 440.328125 863.03125 C 451.140625 851.734375 460.210938 838.757812 467.457031 825.03125 C 471.082031 818.15625 473.804688 811 475.554688 803.476562 C 477.363281 795.667969 477.714844 787.632812 479.476562 779.8125 C 479.519531 779.601562 479.847656 779.65625 479.808594 779.871094 C 478.320312 787.125 477.855469 794.496094 476.667969 801.789062 C 475.523438 808.882812 473.113281 815.835938 470.328125 822.476562 C 464.777344 835.683594 456.5 848.300781 447.367188 859.410156 C 428.421875 882.421875 402.390625 899.246094 372.949219 905.464844 C 348.957031 910.535156 317.441406 907.710938 298.742188 891.011719 C 289.0625 882.367188 280.699219 870.4375 275.457031 858.691406 C 270.039062 846.527344 270.476562 833.339844 276.183594 821.238281 C 280.394531 812.335938 288.203125 804.308594 297.515625 800.589844 C 299.675781 799.035156 302.929688 798.371094 305.265625 797.851562 C 308.25 797.199219 311.335938 796.878906 314.402344 796.953125 C 321.25 795.835938 329.199219 796.410156 331.957031 803.296875 L 331.972656 803.292969 C 332.507812 803.476562 332.742188 803.976562 332.746094 804.5 C 332.964844 804.722656 333.125 804.964844 333.226562 805.226562 C 333.042969 805.125 332.851562 805.039062 332.675781 804.941406 C 332.601562 805.171875 332.484375 805.378906 332.316406 805.546875 C 332.128906 806.109375 331.707031 806.59375 331.078125 806.820312 C 327.164062 808.183594 325.214844 810.457031 322.996094 813.730469 C 322.832031 813.972656 322.664062 814.199219 322.515625 814.441406 C 322.207031 815.796875 322.058594 817.199219 322.070312 818.640625 C 322.105469 825.796875 326.179688 833.390625 333.441406 835.523438 C 344.507812 838.753906 357.007812 829.695312 363.15625 821.394531 C 370.820312 811.019531 371.371094 796.917969 367.871094 785.140625 C 367.769531 784.792969 368.296875 784.601562 368.425781 784.949219 C 372.996094 797.640625 372.273438 812.5625 364.140625 823.976562 C 357.359375 833.507812 342.585938 843.4375 330.339844 839.007812 C 322.117188 836.023438 317.496094 827.6875 317.0625 819.332031 C 315.539062 826.214844 318.359375 833.417969 323.421875 838.097656 C 340.644531 854.023438 363.566406 834.335938 371.421875 818.347656 C 371.746094 817.675781 372.757812 818.152344 372.472656 818.835938 C 363.929688 838.066406 340.753906 858.289062 320.046875 841.988281 C 313.1875 836.59375 310.390625 827.710938 311.421875 819.292969 C 311.492188 818.710938 311.609375 818.113281 311.753906 817.519531 C 311.441406 818.390625 311.152344 819.269531 310.945312 820.183594 C 310.589844 821.71875 310.394531 823.269531 310.253906 824.824219 C 310.269531 825.984375 310.308594 827.148438 310.328125 828.300781 C 312.148438 835.894531 316.875 843.617188 323.261719 847.578125 C 337 856.09375 360.964844 845.875 368.898438 833.253906 C 369.109375 832.917969 369.671875 833.152344 369.480469 833.53125 C 361.394531 849.089844 334.550781 860.308594 318.796875 850.484375 C 310.800781 845.496094 305.230469 835.203125 304.1875 825.152344 C 304.117188 826.175781 304.070312 827.1875 304.101562 828.203125 C 304.328125 839.183594 311.894531 848.851562 321.503906 853.710938 C 339.320312 862.714844 361.941406 852.515625 374.132812 838.476562 C 374.496094 838.058594 375.121094 838.59375 374.777344 839.019531 C 361.121094 856.136719 335.054688 868.964844 314.488281 855.894531 C 305.050781 849.902344 299.03125 840.367188 298.0625 829.613281 C 296.847656 840.972656 304.230469 852.945312 314.304688 859.476562 C 316.582031 860.675781 318.960938 861.671875 321.414062 862.496094 C 323.40625 862.929688 325.410156 863.289062 327.398438 863.765625 C 328.230469 863.964844 329.0625 864.21875 329.871094 864.492188 C 343.253906 866.40625 355.941406 861.515625 366.636719 853.582031 C 377.449219 845.550781 384.960938 833.851562 388.761719 821.222656 C 393.050781 806.933594 393.441406 789.46875 388.777344 775.410156 C 383.773438 760.347656 368.636719 749.105469 354.941406 742.019531 C 342.949219 735.820312 329.453125 733.90625 315.929688 734.425781 C 293.671875 735.273438 271.085938 743.277344 253.980469 757.59375 C 236.097656 772.546875 227.007812 794.71875 224.144531 817.003906 C 222.734375 827.945312 223.046875 838.890625 224.980469 849.496094 C 223.335938 836.988281 223.75 824.152344 226.007812 811.800781 C 229.699219 791.503906 239.429688 773.003906 256.003906 759.941406 C 264.992188 752.851562 275.40625 747.835938 286.109375 743.816406 C 298.71875 739.078125 310.9375 739.519531 324.132812 739.644531 C 324.824219 739.652344 324.902344 740.632812 324.203125 740.726562 C 312.757812 742.179688 301.9375 741.363281 290.789062 745.191406 C 280.109375 748.859375 269.988281 754.183594 261.027344 760.992188 C 244.296875 773.679688 235 791.144531 230.953125 811.070312 C 230.515625 814.984375 230.125 818.859375 229.84375 822.714844 C 229.867188 830.585938 230.613281 838.429688 232.5 845.910156 C 234.207031 852.675781 236.953125 858.976562 239.941406 865.238281 C 238.800781 861.914062 237.804688 858.558594 236.953125 855.1875 C 233.945312 843.316406 232.0625 830.339844 233.179688 818.042969 C 235.246094 795.335938 246.164062 773.316406 266.015625 760.5625 C 284.542969 748.644531 309.507812 743.359375 330.933594 748.652344 C 331.675781 748.835938 331.464844 749.945312 330.6875 749.800781 C 309.386719 745.8125 285.898438 751.152344 267.785156 763.078125 C 248.78125 775.605469 238.480469 798.089844 237.121094 819.890625 C 235.648438 843.75 243.117188 870.214844 257.953125 888.917969 C 262.179688 894.242188 267.011719 899.296875 271.953125 904.167969 C 276.300781 906.566406 280.367188 909.324219 284.433594 912.222656 C 287.351562 914.308594 290.355469 916.253906 293.496094 918.007812 C 295.40625 919.074219 297.539062 919.761719 299.503906 920.695312 C 299.53125 920.582031 299.558594 920.472656 299.597656 920.371094 C 293.972656 918.160156 288.769531 913.097656 284.269531 910.144531 C 275.191406 904.179688 267.53125 896.636719 261.082031 888.007812 C 248.863281 871.683594 242.742188 851.058594 241.527344 830.890625 C 240.359375 811.539062 246.019531 792.78125 260.222656 778.699219 C 273.359375 765.6875 294.378906 755.929688 313.1875 756.828125 C 313.507812 756.847656 313.554688 757.339844 313.222656 757.332031 C 305.007812 757.179688 296.675781 761.40625 289.113281 764.300781 C 280.742188 767.5 271.71875 774.628906 265.355469 780.8125 C 251.445312 794.308594 246.453125 811.847656 247.4375 830.453125 C 248.417969 849.152344 255.015625 867.417969 265.539062 882.828125 C 270.902344 890.679688 277.71875 897.488281 285.445312 903.101562 C 290.90625 907.074219 296.757812 911.679688 302.8125 915.191406 C 304.542969 914.023438 306.898438 913.90625 309.914062 915.628906 C 320.683594 921.777344 332.851562 925.078125 345.277344 926.773438 C 370.917969 930.265625 396.996094 922.761719 419.160156 909.894531 C 441.605469 896.863281 461.503906 877.707031 475.59375 856.214844 C 482.859375 845.105469 488.816406 833.066406 492.464844 820.378906 C 496.011719 808.125 496.980469 795.457031 499.351562 783.015625 C 499.316406 780.980469 499.265625 778.957031 499.199219 776.925781 C 498.644531 772.882812 498.371094 768.855469 498.6875 764.910156 C 497.066406 738.15625 492.441406 711.59375 484.296875 686.078125 C 476.257812 660.890625 463.878906 637.84375 448.5625 616.304688 C 434.183594 596.105469 417.304688 577.503906 397.632812 562.164062 C 384.40625 551.851562 369.351562 543.40625 353.59375 536.75 C 342.359375 530.226562 289.679688 519.136719 276.699219 517.195312 L 265.570312 507.933594 C 326.679688 515.386719 386.632812 535.324219 436.105469 571.300781 C 448.242188 580.125 459.460938 589.96875 470.363281 600.226562 C 481.886719 611.074219 493.351562 622.0625 503.195312 634.453125 C 513.035156 646.824219 520.613281 660.730469 528.125 674.546875 C 534.480469 686.230469 541.386719 697.601562 547.640625 709.320312 C 558.773438 730.1875 610.625 809.699219 632.546875 818.75 C 633.03125 818.945312 633.277344 819.324219 633.351562 819.746094 C 642.078125 826.804688 615 849.039062 610.175781 852.136719 C 608.738281 853.070312 607.183594 853.867188 605.558594 854.566406 C 606.714844 855.03125 607.753906 855.535156 608.554688 855.992188 C 615.097656 859.671875 620.125 865.683594 624.753906 871.398438 C 629.699219 877.515625 634.152344 883.765625 640.023438 889.121094 C 647.484375 895.9375 656.226562 900.3125 665.980469 902.886719 C 667.085938 902.109375 668.894531 902.617188 669.074219 904.25 C 670.476562 916.738281 658.960938 928.265625 649.898438 935.425781 C 639.132812 943.917969 625.964844 950.210938 612.753906 953.90625 C 598.972656 957.769531 584.019531 958.484375 569.976562 956.335938 C 564.660156 955.515625 557.21875 953.699219 550.753906 950.582031 C 551.796875 956.703125 550.457031 963.871094 545.359375 966.511719 C 540.847656 968.847656 534.050781 967.253906 529.410156 966.296875 C 522.804688 964.9375 516.410156 962.570312 510.429688 959.546875 C 498.578125 953.558594 489.914062 942.617188 485.457031 930.421875 C 483.960938 926.339844 479.925781 917.589844 479.320312 910.464844 C 474.734375 920.414062 469.460938 930.078125 463.46875 939.363281 C 449.777344 960.589844 432.410156 977.894531 413.101562 994.214844 C 402.039062 1003.570312 390.921875 1012.957031 381.085938 1023.582031 C 373.800781 1031.480469 363.628906 1042.582031 367.53125 1054.003906 C 367.960938 1055.277344 366.941406 1056.085938 365.910156 1056.035156 C 358.136719 1058.742188 349.082031 1051.363281 343.824219 1046.683594 C 336.292969 1039.992188 330.734375 1031.394531 326.550781 1022.363281 C 318.21875 1004.421875 317.3125 979.875 330.964844 963.984375 C 321.019531 963.644531 312.160156 957.023438 306.179688 949.648438 C 303.867188 946.78125 301.367188 942.367188 299.824219 937.660156 C 294.144531 935.230469 287.84375 934.0625 282.035156 931.859375 C 275.054688 929.214844 268.554688 924.214844 262.625 919.84375 C 250.421875 910.875 240.054688 900.027344 232.179688 887.207031 C 217.433594 863.226562 213.605469 834.199219 219.050781 806.675781 C 223.90625 782.128906 237.835938 759.925781 259.167969 745.839844 C 280.148438 731.976562 307.25 726.199219 332.015625 728.941406 C 353.886719 731.363281 377.382812 743.910156 389.539062 762.6875 C 391.941406 759.960938 393.539062 756.722656 394.648438 753.214844 C 395.414062 750.753906 395.765625 748.199219 395.882812 745.640625 C 395.960938 744.046875 395.644531 742.574219 395.847656 741.03125 C 392.445312 730.117188 390.503906 717.203125 396.210938 706.980469 C 396.21875 706.859375 396.226562 706.730469 396.234375 706.605469 C 393.855469 707.652344 391.296875 708.429688 388.546875 708.886719 C 379.582031 710.335938 371.359375 708.617188 364.070312 703.40625 C 360.4375 700.808594 357.414062 696.613281 356.664062 692.230469 C 369.527344 639.503906 304.152344 593.742188 251.703125 572.855469 M 442.863281 586.535156 C 452.566406 596.464844 461.445312 607.203125 469.648438 618.199219 C 487.214844 641.742188 499.832031 667.851562 510.003906 695.257812 C 515.476562 710.03125 521.308594 724.449219 528.3125 738.582031 C 535.664062 753.410156 543.886719 767.804688 551.566406 782.476562 C 563.460938 805.230469 584.242188 825.871094 611.089844 829.707031 C 611.84375 829.820312 611.597656 830.898438 610.867188 830.832031 C 586.125 828.710938 565.207031 814.21875 551.914062 794.210938 C 543.582031 781.667969 537.140625 767.464844 530.085938 754.175781 C 522.429688 739.734375 515.273438 725.078125 509.679688 709.714844 C 501.054688 686.097656 492.035156 662.796875 479.144531 641.300781 C 488.222656 658.671875 494.964844 677.117188 500.902344 695.898438 C 509.441406 722.917969 516.863281 750.257812 530.988281 775.050781 C 537.671875 786.757812 545.859375 797.476562 554.492188 807.820312 C 562.472656 817.382812 571.332031 826.972656 583.316406 831.640625 C 583.886719 831.859375 583.457031 832.691406 582.894531 832.480469 C 572 828.632812 563.5625 821.394531 555.496094 813.492188 C 546.457031 804.648438 538.585938 794.648438 531.667969 784.136719 C 516.210938 760.65625 508.007812 733.710938 499.8125 707.113281 C 496.945312 697.839844 493.890625 688.664062 490.507812 679.617188 C 492.332031 687.535156 493.945312 695.503906 495.671875 703.367188 C 500.527344 725.566406 507.507812 746.527344 517.179688 767.089844 C 526.558594 787.023438 538.175781 807.976562 554.757812 822.992188 C 555.164062 823.367188 554.597656 824.023438 554.171875 823.65625 C 532.847656 805.59375 517.507812 781.605469 506.695312 755.816406 C 507.308594 757.769531 507.933594 759.710938 508.613281 761.605469 C 511.988281 771.132812 515.710938 780.476562 520.585938 789.378906 C 525.03125 797.503906 529.261719 805.890625 534.628906 813.480469 C 539.972656 821.039062 547.460938 826.515625 554.332031 832.636719 C 555.042969 833.269531 554.097656 834.347656 553.347656 833.769531 C 546.859375 828.765625 540.1875 824.316406 534.738281 818.160156 C 528.191406 810.789062 523.351562 801.871094 518.246094 793.511719 C 515.191406 788.511719 512.515625 783.339844 510.09375 778.058594 C 510.195312 778.492188 510.304688 778.9375 510.421875 779.367188 C 512.5625 787.125 515.617188 794.664062 518.871094 802.007812 C 525.175781 816.234375 532.691406 831.644531 546.230469 840.449219 C 547.164062 841.050781 546.085938 842.671875 545.148438 842.074219 C 533.027344 834.441406 524.628906 823.273438 517.976562 810.980469 C 517.964844 811.011719 517.984375 811.023438 517.984375 811.050781 C 518.058594 811.238281 518.117188 811.421875 518.203125 811.617188 C 519.460938 814.789062 520.855469 817.910156 522.359375 820.949219 C 524.078125 823.152344 525.328125 825.703125 526.394531 828.367188 C 528.332031 831.601562 530.425781 834.742188 532.730469 837.773438 C 544.089844 852.734375 560.171875 864.253906 578.417969 869.816406 C 578.753906 869.921875 578.648438 870.4375 578.304688 870.34375 C 560.433594 865.230469 545.25 856.210938 532.445312 843.015625 C 532.425781 842.96875 532.382812 842.945312 532.363281 842.925781 C 535.753906 849.167969 540.332031 854.8125 545.148438 859.984375 C 555.402344 871 569.398438 881.605469 584.886719 883.644531 C 584.976562 883.660156 584.949219 883.789062 584.855469 883.78125 C 563.25 881.1875 544.253906 867.660156 531.734375 849.996094 C 533.773438 853.769531 535.871094 857.507812 537.941406 861.167969 C 548.78125 880.320312 571.117188 896.125 592.886719 900.953125 C 593.46875 901.082031 593.292969 901.964844 592.707031 901.839844 C 569.867188 897.144531 546.550781 883.375 534.195312 863.726562 C 532.8125 861.546875 531.46875 859.320312 530.144531 857.058594 C 536.558594 870.902344 545.449219 882.832031 557.535156 893.058594 C 571.695312 905.039062 590.847656 914 609.832031 914.609375 C 610.742188 914.636719 610.859375 916.011719 609.925781 916.015625 C 591.597656 916.128906 574.328125 911.160156 559.117188 901.285156 C 553.355469 897.550781 548.238281 893.3125 543.652344 888.648438 C 551.480469 897.738281 561.238281 905.207031 571.960938 910.738281 C 572.394531 910.957031 572.839844 911.171875 573.28125 911.390625 C 578.648438 913.816406 584.261719 915.875 590.085938 917.679688 C 590.867188 917.921875 591.667969 918.125 592.476562 918.339844 C 597.046875 919.46875 601.738281 920.292969 606.496094 920.792969 C 623.457031 922.238281 641.8125 918.820312 656.085938 910.855469 C 656.148438 910.820312 656.226562 910.800781 656.296875 910.796875 C 656.40625 910.730469 656.511719 910.652344 656.625 910.574219 C 654.269531 910.644531 651.972656 910.539062 650.125 910.523438 C 642.617188 910.429688 634.644531 910.265625 627.304688 908.765625 C 627.148438 908.734375 627.199219 908.519531 627.339844 908.539062 C 634.308594 909.097656 641.359375 907.683594 648.34375 907.800781 C 651.742188 907.851562 655.121094 907.601562 658.5 907.226562 C 659.929688 907.066406 661.316406 906.71875 662.699219 906.460938 C 662.710938 906.464844 662.734375 906.433594 662.75 906.421875 C 662.53125 906.359375 662.324219 906.300781 662.140625 906.246094 C 661.875 906.171875 661.703125 905.96875 661.625 905.742188 C 658.371094 905 655.332031 903.339844 652.160156 902.34375 C 648.480469 901.179688 644.636719 900.464844 640.816406 899.941406 C 632.730469 898.820312 624.519531 898.964844 616.402344 898.15625 C 615.820312 898.101562 615.894531 897.167969 616.472656 897.15625 C 624.546875 896.960938 632.632812 897.121094 640.664062 897.875 C 640.523438 897.644531 640.554688 897.355469 640.6875 897.109375 C 636.96875 895.589844 633.441406 892.742188 629.980469 891.171875 C 623.84375 888.386719 615.863281 887.257812 609.140625 886.625 C 609.09375 886.640625 609.105469 886.5625 609.140625 886.5625 C 615.890625 886.824219 622.597656 886.828125 629.164062 888.488281 C 630.746094 888.886719 632.519531 889.484375 634.328125 890.21875 C 632.421875 888.617188 630.597656 886.90625 628.839844 885.121094 C 627.5 884.398438 626.207031 883.566406 624.839844 882.859375 C 621.804688 881.289062 618.589844 880.03125 615.371094 878.863281 C 608.308594 876.289062 601.058594 873.867188 593.894531 871.570312 C 593.757812 871.5 593.84375 871.273438 593.988281 871.3125 C 601.316406 873.292969 608.886719 874.289062 616.175781 876.527344 C 618.160156 877.144531 620.519531 877.824219 622.886719 878.664062 C 620.757812 876.082031 619.132812 873.503906 616.132812 871.652344 C 612.964844 869.695312 609.253906 868.542969 605.675781 867.539062 C 599.460938 865.78125 592.914062 864.71875 586.921875 862.324219 C 586.34375 862.09375 586.773438 861.269531 587.339844 861.46875 C 595.015625 864.25 603.347656 864.652344 611.164062 866.957031 C 611.828125 867.148438 612.539062 867.367188 613.257812 867.617188 C 612.480469 866.855469 611.699219 866.101562 610.875 865.375 C 608.148438 862.964844 605.121094 861.050781 601.667969 859.820312 C 599.039062 858.878906 595.605469 859.550781 593.445312 857.734375 L 593.433594 857.726562 C 589.476562 858.242188 585.507812 858.332031 581.859375 858.113281 C 573.214844 857.59375 560.707031 852.53125 560.035156 842.652344 C 559.972656 841.695312 561.183594 841.085938 561.925781 841.714844 C 564.917969 844.265625 567.0625 847.441406 570.519531 849.507812 C 574.269531 851.757812 578.554688 852.703125 582.898438 853.085938 C 590.527344 853.773438 599.976562 851.976562 606.699219 848.164062 C 612.066406 845.121094 616.742188 840.398438 621.03125 836.085938 C 623.847656 833.25 629.363281 828.1875 629.453125 823.554688 C 626.019531 825.011719 621.671875 825.386719 617.980469 824.4375 C 609.996094 824.230469 601.894531 820.335938 595.183594 816.859375 C 583.152344 810.621094 573.097656 802.71875 565.101562 791.859375 C 545.722656 765.558594 532.679688 735.066406 519.90625 705.28125 C 506.476562 673.921875 492.714844 642.535156 471.242188 615.601562 C 462.921875 605.167969 453.445312 595.007812 442.855469 586.542969 Z M 503.222656 646.46875 C 507.320312 653.703125 510.726562 661.382812 514.40625 668.78125 C 520.515625 681.074219 527.191406 693.035156 533.117188 705.414062 C 539.417969 718.59375 545.355469 731.914062 551.898438 744.976562 C 557.601562 756.359375 563.964844 767.476562 570.6875 778.296875 C 576.363281 787.429688 582.933594 796.226562 591.800781 802.585938 C 597.582031 806.730469 603.6875 810.410156 610.003906 813.738281 C 612.148438 814.871094 622.328125 820.703125 626.867188 820.09375 C 581.828125 804.433594 561.113281 756.535156 541.171875 717.34375 C 535.273438 705.746094 528.9375 694.378906 522.96875 682.8125 C 516.664062 670.601562 510.742188 658.023438 503.222656 646.46875 Z M 619.578125 821.382812 C 611.792969 818.878906 604.628906 814.546875 597.605469 810.527344 C 591 806.75 584.867188 802.847656 579.613281 797.324219 C 571.421875 788.707031 565.484375 778.183594 559.5625 767.984375 C 544.347656 741.785156 533.304688 713.59375 518.808594 687.046875 C 517.675781 684.976562 516.566406 682.894531 515.445312 680.808594 C 516.007812 682.070312 516.558594 683.328125 517.109375 684.585938 C 523.664062 699.613281 529.808594 714.816406 536.488281 729.792969 C 543.535156 745.585938 551.691406 760.609375 560.308594 775.582031 C 567.835938 788.644531 575.804688 801.691406 589.007812 809.890625 C 599.242188 816.242188 610.984375 823.613281 623.640625 822.503906 C 622.175781 822.214844 620.746094 821.761719 619.578125 821.382812 Z M 663.78125 909.367188 C 663.667969 909.417969 663.5625 909.464844 663.441406 909.496094 C 655.605469 918.171875 639.597656 921.035156 629.054688 922.980469 C 622 924.277344 614.871094 924.878906 607.777344 924.777344 C 603.28125 924.914062 598.796875 924.679688 594.351562 923.84375 C 593.007812 923.585938 591.667969 923.3125 590.339844 923.003906 C 585.222656 922.03125 580.175781 920.65625 575.265625 918.84375 C 566.714844 915.6875 558.757812 911.164062 551.585938 905.664062 C 546.964844 902.320312 542.621094 898.585938 538.625 894.46875 C 530.292969 885.851562 523.824219 875.804688 518.796875 865.046875 C 524.71875 880.640625 534.277344 895.972656 546.078125 907.128906 C 559.234375 919.570312 578.261719 927.554688 596.25 930.097656 C 614.464844 932.679688 633.863281 928.972656 650.503906 921.183594 C 650.628906 921.121094 650.730469 921.132812 650.808594 921.183594 C 653.019531 919.945312 655.171875 918.578125 657.21875 917.25 C 659.640625 915.695312 661.296875 913.625 663.050781 911.617188 C 663.3125 910.871094 663.554688 910.125 663.78125 909.367188 Z M 659.726562 918.546875 C 656.050781 920.695312 651.648438 922.070312 647.777344 923.273438 C 631.867188 930.558594 614.800781 934.828125 597.203125 933.847656 C 578.089844 932.796875 558.304688 924.429688 543.699219 912.605469 C 536.867188 907.066406 531.484375 900.0625 526.707031 892.765625 C 533.386719 904.859375 542.222656 915.964844 553.136719 924.117188 C 582.160156 945.785156 626.335938 945.953125 655.742188 923.632812 C 656.480469 922.8125 657.207031 921.972656 657.898438 921.109375 C 658.574219 920.269531 659.179688 919.414062 659.726562 918.546875 Z M 647.757812 931.152344 C 636.277344 937.933594 622.691406 941.429688 609.566406 942.777344 C 588.917969 944.890625 568.988281 940.085938 551.621094 929.289062 C 535.566406 919.316406 524.015625 902.988281 516.144531 886.039062 C 520.824219 900.730469 528.277344 914.832031 539.050781 925.453125 C 553.28125 939.472656 573.164062 946.660156 593.289062 946.746094 C 603.742188 946.792969 613.945312 944.929688 624.054688 942.3125 C 628.890625 941.0625 633.820312 939.542969 638.5 937.507812 C 640.34375 936.378906 642.164062 935.210938 643.933594 933.988281 C 645.234375 933.082031 646.511719 932.132812 647.757812 931.152344 Z M 595.382812 949.941406 C 574.132812 951.265625 553.214844 943.109375 537.507812 929.601562 C 527.5 921 520.277344 910.070312 515.082031 898.171875 C 515.230469 898.796875 515.390625 899.410156 515.605469 900.042969 C 517.132812 904.671875 519.617188 909.023438 521.816406 913.375 C 524.433594 918.574219 527.410156 923.230469 531.179688 927.683594 C 531.859375 928.492188 532.527344 929.324219 533.199219 930.144531 C 534.433594 930.871094 535.488281 931.933594 536.589844 932.839844 C 537.332031 933.460938 538.121094 934.085938 538.800781 934.78125 C 538.980469 934.785156 539.152344 934.824219 539.3125 934.921875 C 542.496094 936.894531 545.058594 939.542969 547.84375 941.980469 C 554.722656 946.125 562.28125 949.152344 570.171875 950.644531 C 587.503906 953.933594 605.8125 951.128906 622.488281 945.636719 C 623.414062 945.257812 624.351562 944.871094 625.265625 944.464844 C 615.566406 947.277344 605.398438 949.3125 595.382812 949.941406 Z M 504.84375 901.625 C 507.824219 913.382812 512.414062 926.148438 521.386719 934.710938 C 526.824219 939.921875 535.199219 945.40625 543.265625 945.855469 C 542.476562 945.183594 541.730469 944.476562 541.050781 943.726562 C 538.375 941.988281 535.789062 940.078125 533.351562 938.035156 C 527.617188 934.25 522.882812 929.632812 518.621094 923.519531 C 511.472656 913.246094 507.796875 901.039062 504.152344 889.21875 C 502.53125 884 501.089844 878.726562 499.847656 873.394531 C 500.738281 882.917969 502.496094 892.347656 504.84375 901.625 Z M 544.53125 948.625 C 537.511719 949.691406 529.371094 944.371094 524.160156 940.875 C 513.972656 934.042969 508.695312 923.585938 504.324219 912.566406 C 499.542969 900.519531 497.042969 887.199219 495.859375 874.214844 C 495.035156 877.492188 494.414062 880.804688 494.21875 884.207031 C 494.09375 886.640625 494.121094 889.164062 494.285156 891.710938 C 495.417969 898.980469 497.28125 906.152344 499.6875 913.070312 C 499.980469 913.902344 500.292969 914.726562 500.601562 915.546875 C 500.746094 915.8125 500.867188 916.070312 501.011719 916.335938 C 501.128906 916.546875 501.152344 916.746094 501.144531 916.933594 C 505.035156 926.628906 510.679688 935.632812 518.5 942.722656 C 526.363281 949.863281 535.46875 951.234375 545.230469 953.21875 C 545.082031 951.679688 544.785156 950.148438 544.53125 948.625 Z M 545.300781 955.75 C 535.886719 955.355469 526.796875 952.621094 519.097656 947.285156 C 509.578125 940.671875 502.921875 930.027344 498.039062 919.84375 C 492.992188 909.3125 490.335938 897.378906 489.15625 885.753906 C 489.085938 885.949219 489.03125 886.140625 488.976562 886.332031 C 488.839844 889.726562 488.898438 893.152344 489.296875 896.683594 C 490.539062 908.214844 494.402344 919.464844 500.113281 929.527344 C 508.214844 943.804688 526.445312 962.121094 544.984375 957.96875 C 545.148438 957.316406 545.261719 956.582031 545.300781 955.75 Z M 543.507812 960.671875 C 525.527344 964.78125 507.371094 948.195312 498.476562 934.71875 C 491.664062 924.40625 487.585938 912.515625 485.496094 900.394531 C 485.316406 899.335938 485.15625 898.246094 484.988281 897.136719 C 484.96875 897.203125 484.949219 897.277344 484.917969 897.335938 C 484.988281 899.523438 485.226562 901.707031 485.425781 903.828125 C 485.761719 907.5625 485.894531 911.34375 486.105469 915.101562 C 487.039062 918.417969 488.226562 921.648438 489.347656 924.898438 C 492.960938 935.394531 498.082031 944.503906 507.136719 951.398438 C 515.273438 957.582031 526.414062 961.109375 536.601562 962.042969 C 539.714844 962.324219 542.042969 962.046875 543.511719 960.671875 Z M 463.855469 915.261719 C 454.234375 927.980469 442.800781 939.515625 430.21875 949.757812 C 411.367188 965.117188 391.691406 979.5625 373.8125 996.058594 C 366.152344 1003.101562 359.144531 1011.199219 356.09375 1021.199219 C 355.550781 1023 355.25 1024.789062 355.128906 1026.578125 C 356.308594 1024.039062 357.785156 1021.628906 359.15625 1019.539062 C 368.835938 1004.824219 383.304688 995.023438 396.597656 983.730469 C 417.144531 966.273438 438.355469 948.109375 455.195312 927.066406 C 458.265625 923.25 461.132812 919.296875 463.855469 915.261719 Z M 461.148438 923.300781 C 448.238281 940.953125 431.929688 955.792969 415.667969 970.480469 C 400.933594 983.796875 384.625 996.136719 371.9375 1011.4375 C 368.539062 1015.542969 365.453125 1019.882812 362.945312 1024.539062 C 366.730469 1019.53125 371.378906 1015.039062 375.140625 1011.464844 C 389.910156 997.414062 405.714844 984.613281 420.75 970.835938 C 435.285156 957.511719 448.5 942.65625 459.609375 926.476562 C 460.101562 925.410156 460.621094 924.351562 461.148438 923.300781 Z M 451.183594 942.597656 C 445.042969 950.21875 438.570312 957.449219 431.988281 964.207031 C 424.351562 972.035156 416.148438 979.351562 407.988281 986.648438 C 400.03125 993.753906 391.488281 1000.175781 384.367188 1008.140625 C 382.726562 1009.960938 380.980469 1011.804688 379.203125 1013.679688 C 378.460938 1014.960938 377.710938 1016.230469 376.957031 1017.480469 C 384.140625 1009.035156 392.722656 1001.566406 401 994.347656 C 411.585938 985.136719 422.496094 976.28125 432.484375 966.457031 C 436.828125 961.691406 441.058594 956.84375 445 951.746094 C 447.261719 948.828125 449.292969 945.757812 451.183594 942.597656 Z M 348.613281 1029.238281 C 348.101562 1020.160156 352.570312 1011.378906 357.789062 1004.125 C 363.472656 996.226562 371.394531 989.988281 379.144531 984.148438 C 389.847656 976.066406 400.871094 968.386719 411.664062 960.425781 C 430.777344 946.347656 449.175781 931.347656 463.328125 912.273438 C 469.945312 903.371094 475.265625 893.867188 479.78125 883.972656 C 476.976562 888.664062 474.273438 893.402344 471.4375 898.078125 C 458.601562 919.234375 438.96875 935.457031 419.238281 950.347656 C 399.632812 965.148438 377.757812 977.886719 360.066406 995 C 356.386719 999.191406 352.472656 1003.191406 350.234375 1008.554688 C 348.230469 1013.316406 347.710938 1018.996094 347.714844 1024.113281 C 347.929688 1025.707031 348.195312 1027.304688 348.535156 1028.902344 C 348.558594 1029.019531 348.589844 1029.125 348.613281 1029.238281 Z M 342.292969 1013.109375 C 342.613281 1011.53125 342.988281 1010.015625 343.414062 1008.613281 C 350.261719 986.214844 376.183594 975.894531 394.445312 964.207031 C 406.34375 956.589844 417.832031 948.183594 428.847656 939.390625 C 439.542969 930.855469 450.941406 921.578125 459.816406 911.175781 C 465.765625 904.183594 470.523438 896.105469 475.160156 888.046875 C 474.824219 888.542969 474.5 889.054688 474.148438 889.554688 C 459.964844 910.050781 441.464844 927.027344 420.429688 940.527344 C 400.207031 953.492188 377.847656 963.5625 358.921875 978.457031 C 354.226562 982.148438 350.457031 986.4375 347.5 991.214844 C 345.050781 995.699219 343.207031 1000.523438 342.300781 1005.929688 C 342.28125 1005.957031 342.285156 1005.996094 342.277344 1006.03125 C 342.257812 1007.515625 342.261719 1009 342.257812 1010.503906 C 342.25 1011.375 342.261719 1012.238281 342.296875 1013.113281 Z M 336.117188 999.242188 C 337.632812 994.894531 339.714844 990.726562 342.277344 986.929688 C 347.359375 979.449219 354.25 973.574219 361.9375 968.550781 C 361.988281 968.511719 362.03125 968.457031 362.070312 968.398438 C 362.238281 968.226562 362.433594 968.144531 362.625 968.097656 C 374.527344 960.445312 388.210938 954.734375 399.976562 948.164062 C 411.183594 941.898438 422.183594 935.296875 432.53125 927.71875 C 442.445312 920.457031 451.011719 911.859375 459.046875 902.707031 C 458.632812 903.0625 458.230469 903.421875 457.816406 903.773438 C 456.492188 904.914062 455.140625 906.027344 453.769531 907.117188 C 451 909.96875 448.15625 912.746094 445.214844 915.359375 C 431.203125 927.785156 416.035156 937.945312 398.929688 945.707031 C 383.164062 952.851562 366.539062 959.484375 352.453125 969.703125 C 352.085938 969.992188 351.703125 970.285156 351.34375 970.582031 C 345.878906 974.980469 342.210938 980.695312 339.40625 986.964844 C 337.566406 991.042969 336.59375 995.132812 336.117188 999.242188 Z M 334.089844 981.597656 C 334.699219 980.636719 335.332031 979.683594 336.015625 978.738281 C 346.246094 964.726562 362.867188 956.078125 378.699219 949.742188 C 387.582031 946.195312 396.433594 942.644531 405.046875 938.492188 C 414.050781 934.175781 422.128906 928.707031 430.046875 922.757812 C 427 924.71875 423.917969 926.617188 420.8125 928.421875 C 401.578125 939.585938 380.933594 946.546875 360.566406 955.121094 C 357.304688 956.488281 354.050781 957.972656 350.902344 959.644531 C 348.339844 961.394531 345.929688 963.3125 343.625 965.457031 C 340.136719 968.714844 338.355469 972.171875 336.34375 976.421875 C 335.546875 978.117188 334.777344 979.839844 334.089844 981.597656 Z M 350.109375 947.605469 C 336.753906 947.574219 322.117188 944.800781 312.851562 936.683594 C 312.976562 936.90625 313.105469 937.121094 313.234375 937.339844 C 314.527344 938.828125 315.867188 940.261719 317.433594 941.601562 C 318.597656 942.605469 319.859375 943.503906 321.140625 944.359375 C 323.527344 945.066406 325.949219 945.703125 328.0625 946.839844 C 332.042969 947.71875 335.949219 948.425781 339.945312 948.695312 C 342 948.757812 344.070312 948.738281 346.128906 948.632812 C 347.449219 948.296875 348.785156 947.941406 350.109375 947.605469 Z M 362.539062 934.167969 C 354.664062 934.613281 346.910156 934.007812 339.25 932.726562 C 340.964844 933.710938 342.804688 934.621094 344.671875 935.386719 C 350.175781 936.429688 355.820312 936.9375 361.558594 936.898438 C 377.464844 936.78125 393.296875 931.195312 407.851562 924.171875 C 413.332031 921.132812 418.625 917.796875 423.742188 914.203125 C 405.328125 925.671875 384.25 932.917969 362.539062 934.167969 Z M 349.203125 943.566406 C 349.808594 943.523438 350.402344 943.480469 351 943.421875 C 355.125 942.972656 359.195312 942.15625 363.21875 941.121094 C 362.195312 941.21875 361.1875 941.320312 360.171875 941.371094 C 342.753906 942.359375 324.96875 937.660156 310.742188 927.929688 C 317.515625 940.003906 334.0625 943.480469 349.203125 943.566406 Z M 397.664062 720.949219 C 399.519531 719.367188 401.269531 717.738281 402.808594 715.644531 C 405.382812 712.160156 406.992188 707.90625 408.277344 703.851562 C 409.3125 700.660156 410.109375 697.386719 410.851562 694.109375 C 409.609375 695.949219 408.210938 697.671875 406.679688 699.253906 C 406.207031 702.050781 405.296875 704.800781 404.304688 707.328125 C 403.453125 709.546875 400.960938 714.367188 398.015625 715.605469 C 397.808594 717.394531 397.683594 719.167969 397.664062 720.949219 Z M 399.128906 709.429688 C 400.085938 708.054688 400.777344 706.488281 401.449219 704.980469 C 401.707031 704.40625 401.9375 703.816406 402.152344 703.21875 C 401.785156 703.480469 401.414062 703.722656 401.050781 703.96875 C 400.675781 704.828125 400.3125 705.796875 399.886719 706.707031 C 399.609375 707.613281 399.347656 708.519531 399.128906 709.429688 Z M 373.050781 667.664062 C 373.121094 667.003906 373.164062 666.332031 373.207031 665.640625 C 373.691406 655.207031 371.515625 644.644531 368.144531 634.851562 C 359.703125 610.289062 335.253906 595.675781 312.445312 584.773438 C 285.675781 571.980469 275.738281 572.773438 298.585938 582.023438 C 321.261719 591.195312 345.824219 601.503906 359.472656 621.992188 C 366.503906 632.53125 370.507812 644.546875 372.261719 657 C 372.769531 660.527344 373.046875 664.101562 373.050781 667.664062 Z M 363.78125 666.171875 C 363.632812 663.3125 363.332031 660.453125 363.042969 657.675781 C 361.800781 645.421875 357.871094 633.558594 351.125 623.230469 C 344.695312 613.355469 334.96875 606.296875 325.335938 599.664062 C 323.679688 598.527344 321.984375 597.445312 320.257812 596.386719 C 324.910156 599.675781 329.191406 603.390625 333.261719 607.339844 C 337.171875 610.90625 340.8125 614.761719 344.167969 618.855469 C 350.625 626.414062 355.488281 634.785156 358.929688 644.160156 C 359.996094 647.046875 360.421875 650.105469 360.695312 653.183594 C 361.867188 657.332031 363.003906 661.746094 363.78125 666.171875 Z M 1149.203125 566.535156 C 1098.859375 563.855469 1050.414062 572.199219 1024.542969 612.722656 C 1011.15625 633.695312 1008.96875 662.550781 1021.570312 684.601562 C 1021.671875 684.800781 1021.78125 684.992188 1021.902344 685.175781 C 1022.109375 685.53125 1022.316406 685.890625 1022.535156 686.238281 C 1022.589844 686.324219 1022.644531 686.402344 1022.6875 686.488281 C 1023.59375 687.925781 1024.585938 689.320312 1025.628906 690.699219 C 1026.070312 691.945312 1026.679688 693.121094 1027.449219 694.191406 C 1024.496094 692.828125 1021.792969 690.6875 1019.28125 688.703125 C 1011.828125 682.851562 1005.679688 671.921875 1005.859375 662.535156 C 1005.878906 661.601562 1004.578125 661.535156 1004.425781 662.425781 C 1003.292969 669.304688 1005.039062 676.042969 1008.425781 682.03125 C 1010.246094 686.679688 1013.460938 691.023438 1016.617188 694.535156 C 1018.117188 696.1875 1021.765625 699.351562 1025.480469 701.230469 C 1024.746094 701.269531 1023.953125 701.210938 1023.085938 701.011719 C 1019.183594 700.136719 1015.753906 697.359375 1012.898438 694.722656 C 1007.292969 689.523438 1001.800781 682.304688 999.546875 674.996094 C 999.332031 674.296875 998.382812 674.488281 998.4375 675.203125 C 999.136719 684.394531 1005.957031 694.089844 1012.855469 700.035156 C 1012.980469 700.148438 1013.121094 700.261719 1013.261719 700.371094 C 1012.539062 700.210938 1011.828125 700.007812 1011.132812 699.738281 C 1004.53125 697.148438 999.746094 691.121094 996.542969 685.136719 C 996.15625 684.421875 995.066406 684.9375 995.398438 685.675781 C 998.28125 692.136719 1002.089844 697.777344 1007.953125 701.964844 C 1002.925781 700.269531 998.707031 697.21875 995.269531 693.394531 C 995.214844 693.269531 995.183594 693.132812 995.113281 693.003906 C 994.996094 692.691406 994.761719 692.554688 994.5 692.53125 C 989.980469 687.191406 986.828125 680.535156 984.875 674.015625 C 984.390625 672.417969 982.0625 672.824219 982.289062 674.488281 C 982.882812 678.941406 984.105469 683.367188 985.929688 687.496094 C 987.230469 701.316406 989.816406 719.417969 1002.585938 726.496094 C 1002.371094 729.085938 1002 731.664062 1001.472656 734.21875 C 999.855469 733.84375 998.78125 733.128906 997.160156 731.230469 C 994.886719 728.558594 993.222656 725.386719 991.5625 722.339844 C 986.207031 712.429688 983.109375 702.171875 983.117188 690.945312 C 983.128906 690.054688 981.8125 689.957031 981.714844 690.84375 C 980.3125 704.242188 983.34375 715.925781 989.507812 727.882812 C 991.539062 731.839844 994.101562 736.441406 998.171875 738.695312 C 998.808594 739.042969 999.503906 739.265625 1000.207031 739.367188 C 1000.082031 739.8125 999.96875 740.246094 999.839844 740.683594 C 999.203125 741.738281 998.839844 742.984375 998.6875 744.3125 C 998.484375 744.878906 998.289062 745.433594 998.085938 745.992188 C 992.289062 742.242188 988.113281 735.121094 984.820312 729.6875 C 978.664062 719.515625 977.421875 707.683594 976 696.21875 C 975.898438 695.414062 974.5 695.476562 974.535156 696.296875 C 975.332031 709.867188 976.035156 722.066406 982.832031 734.285156 C 985.316406 738.753906 990.175781 747.617188 996.117188 751.042969 C 995.613281 752.257812 995.09375 753.472656 994.546875 754.679688 C 992.234375 752.625 989.757812 750.691406 987.730469 748.503906 C 983.226562 743.679688 979.53125 738.3125 976.519531 732.492188 C 973.097656 725.875 970.773438 718.792969 969.117188 711.59375 C 967.585938 704.976562 968.484375 698.292969 967.742188 691.613281 C 967.644531 690.785156 966.195312 690.859375 966.253906 691.695312 C 966.632812 698.539062 965.4375 705.242188 966.519531 712.070312 C 967.699219 719.566406 970.21875 727.046875 973.035156 734.117188 C 975.585938 740.488281 979.339844 746.519531 983.832031 751.769531 C 986.148438 754.496094 988.933594 757.605469 992.117188 759.867188 C 991.085938 761.996094 990.023438 764.109375 988.929688 766.199219 C 986.21875 764.851562 983.921875 762.191406 981.988281 760.03125 C 976.917969 754.347656 972.921875 747.699219 969.273438 741.082031 C 965.496094 734.234375 963.054688 727.132812 961.550781 719.488281 C 959.367188 708.5 958.382812 694.976562 961.398438 684.117188 C 961.539062 683.597656 960.757812 683.316406 960.585938 683.832031 C 953.878906 704.367188 956.75 726.242188 966.855469 745.484375 C 970.863281 753.128906 975.515625 760.914062 981.742188 767.046875 C 982.925781 768.210938 984.679688 769.566406 986.597656 770.617188 C 985.761719 772.191406 984.921875 773.753906 984.085938 775.304688 C 983.066406 774.828125 982 774.175781 980.839844 773.273438 C 976.664062 770.0625 973.492188 765.273438 970.707031 760.925781 C 964.050781 750.617188 958.976562 739.53125 955.996094 727.707031 C 952.960938 715.632812 952.777344 702.980469 953.886719 690.710938 C 954.492188 684.085938 955.71875 677.578125 957.246094 671.121094 C 958.589844 665.4375 959.207031 659.410156 961.367188 653.996094 C 961.527344 653.59375 960.84375 653.34375 960.722656 653.765625 C 958.730469 660.601562 955.800781 666.898438 954.359375 673.933594 C 952.988281 680.617188 952.003906 687.410156 951.328125 694.203125 C 949.957031 708.054688 950.574219 721.820312 954.53125 735.3125 C 958.035156 747.292969 964.03125 758.523438 971.171875 768.828125 C 973.457031 772.125 977.429688 776.625 981.90625 779.382812 C 981.839844 779.5 981.773438 779.621094 981.707031 779.738281 C 977.957031 778.617188 974.371094 777.070312 970.957031 775.207031 C 969.414062 773.5 967.667969 771.960938 966.070312 770.273438 C 962.28125 766.285156 959.175781 761.820312 956.378906 757.144531 C 951.207031 748.460938 947.757812 738.335938 948.480469 728.285156 C 948.527344 727.492188 947.285156 727.402344 947.214844 728.199219 C 946.175781 738.171875 948.488281 747.867188 952.648438 757.003906 C 953.6875 759.234375 954.996094 761.867188 956.566406 764.542969 C 953.613281 761.714844 950.890625 758.648438 948.4375 755.429688 C 944.003906 749.65625 943.109375 742.425781 942.175781 735.53125 C 941.507812 730.574219 942.691406 722.832031 939.058594 718.949219 C 938.042969 717.839844 935.914062 717.683594 935.078125 719.113281 C 932.753906 723.097656 934.082031 729.394531 935.234375 734.566406 C 930.546875 748.1875 931.480469 764.164062 932.273438 778.164062 C 933.074219 792.300781 934.976562 806.828125 942.453125 819.285156 C 942.738281 819.742188 943.472656 819.410156 943.222656 818.9375 C 936.5 806.367188 935.421875 792.210938 934.933594 778.367188 C 934.652344 770.78125 934.625 763.191406 935.113281 755.617188 C 935.402344 751.148438 936.148438 746.847656 937.042969 742.570312 C 937.453125 744.019531 937.957031 745.460938 938.507812 746.886719 C 937.832031 753.15625 937.789062 759.582031 937.730469 765.796875 C 937.648438 775.132812 938.105469 784.457031 939.507812 793.71875 C 942.160156 811.503906 948.964844 829 962.011719 842 C 962.289062 842.277344 962.726562 841.925781 962.480469 841.609375 C 951.089844 827.445312 944.667969 810.910156 941.980469 793.265625 C 940.609375 784.257812 940.253906 775.082031 940.59375 766.011719 C 940.75 761.84375 941.207031 757.710938 941.691406 753.585938 C 942.164062 754.414062 942.648438 755.234375 943.160156 756.035156 C 943.585938 763.386719 942.230469 770.574219 942.675781 777.9375 C 943.25 787.15625 944.769531 796.355469 947.335938 805.277344 C 952.25 822.390625 962.078125 838.367188 975.179688 850.699219 C 975.585938 851.09375 976.253906 850.566406 975.855469 850.140625 C 962.953125 836.289062 953.421875 819.652344 948.75 801.480469 C 946.460938 792.574219 944.859375 782.863281 945.234375 773.699219 C 945.300781 772.136719 945.542969 770.460938 945.796875 768.753906 C 946.542969 782.304688 949.300781 795.820312 953.394531 808.777344 C 958.273438 824.269531 967.1875 837.015625 978.945312 848.339844 C 991.226562 860.140625 1006.210938 868.996094 1022.671875 873.730469 C 1030.839844 876.085938 1039.695312 877.3125 1048.179688 877.027344 C 1049.601562 876.980469 1050.992188 876.8125 1052.34375 876.5625 C 1055.347656 876.421875 1058.328125 876.035156 1061.265625 875.378906 C 1065.832031 874.359375 1070.015625 872.1875 1074.527344 871.035156 C 1078.121094 870.101562 1081.875 869.792969 1085.300781 868.414062 C 1082.890625 870.597656 1080.265625 872.542969 1077.542969 874.265625 C 1066.613281 881.167969 1053.296875 883.4375 1040.433594 883.871094 C 1039.667969 883.902344 1039.578125 885.050781 1040.355469 885.042969 C 1053.648438 884.886719 1067 882.886719 1078.878906 876.953125 C 1084.585938 874.101562 1089.414062 870.085938 1093.539062 865.339844 C 1095.285156 863.328125 1097.496094 860.589844 1099.160156 857.640625 C 1105.449219 851.632812 1110.082031 843.832031 1112.121094 835.460938 C 1113.339844 844.136719 1109.171875 852.511719 1104.957031 859.789062 C 1095.863281 875.445312 1079.480469 886.203125 1061.628906 890.050781 C 1061.453125 890.089844 1061.5 890.351562 1061.679688 890.320312 C 1082.464844 886.902344 1099.015625 876.652344 1109.886719 858.804688 C 1112.4375 854.628906 1114.398438 850.140625 1115.457031 845.46875 L 1115.457031 845.476562 C 1115.308594 846.125 1115.179688 846.777344 1115.011719 847.414062 C 1112.546875 856.988281 1107.707031 865.847656 1101.976562 873.855469 C 1095.113281 883.453125 1086.355469 889.667969 1075.222656 893.875 C 1073.222656 894.632812 1071.203125 895.207031 1069.136719 895.667969 C 1067.152344 896.558594 1065.101562 897.382812 1063.042969 898.1875 C 1063.113281 898.410156 1063.148438 898.640625 1063.117188 898.882812 C 1067.550781 898.519531 1071.972656 897.761719 1076.398438 896.269531 C 1088.21875 892.296875 1097.773438 885.894531 1105.4375 876.226562 C 1111.019531 869.167969 1115.511719 860.945312 1118.441406 852.351562 C 1118.40625 852.589844 1118.371094 852.824219 1118.335938 853.054688 C 1117.492188 858.328125 1115.535156 863.625 1113.277344 868.652344 C 1106.070312 879.753906 1097.011719 890.304688 1084.710938 895.867188 C 1072.089844 901.566406 1056.933594 903.609375 1043.054688 903.183594 C 1011.339844 902.207031 981.5625 885.460938 960.113281 863.03125 C 949.300781 851.734375 940.230469 838.757812 932.980469 825.03125 C 929.359375 818.15625 926.636719 811 924.886719 803.476562 C 923.078125 795.667969 922.722656 787.632812 920.960938 779.8125 C 920.921875 779.601562 920.59375 779.65625 920.632812 779.871094 C 922.121094 787.125 922.585938 794.496094 923.773438 801.789062 C 924.917969 808.882812 927.328125 815.835938 930.109375 822.476562 C 935.664062 835.683594 943.941406 848.300781 953.074219 859.410156 C 972.019531 882.421875 998.050781 899.246094 1027.492188 905.464844 C 1051.484375 910.535156 1083 907.710938 1101.695312 891.011719 C 1111.378906 882.367188 1119.738281 870.4375 1124.980469 858.691406 C 1130.402344 846.527344 1129.964844 833.339844 1124.257812 821.238281 C 1120.046875 812.335938 1112.238281 804.308594 1102.921875 800.589844 C 1100.765625 799.035156 1097.507812 798.371094 1095.175781 797.851562 C 1092.191406 797.199219 1089.105469 796.878906 1086.039062 796.953125 C 1079.191406 795.835938 1071.238281 796.410156 1068.480469 803.296875 L 1068.464844 803.292969 C 1067.933594 803.476562 1067.695312 803.976562 1067.695312 804.5 C 1067.472656 804.722656 1067.316406 804.964844 1067.210938 805.226562 C 1067.398438 805.125 1067.589844 805.039062 1067.765625 804.941406 C 1067.835938 805.171875 1067.953125 805.378906 1068.125 805.546875 C 1068.3125 806.109375 1068.734375 806.59375 1069.363281 806.820312 C 1073.277344 808.183594 1075.226562 810.457031 1077.445312 813.730469 C 1077.605469 813.972656 1077.777344 814.199219 1077.925781 814.441406 C 1078.234375 815.796875 1078.378906 817.199219 1078.367188 818.640625 C 1078.332031 825.796875 1074.261719 833.390625 1066.996094 835.523438 C 1055.933594 838.753906 1043.433594 829.695312 1037.285156 821.394531 C 1029.621094 811.019531 1029.070312 796.917969 1032.570312 785.140625 C 1032.671875 784.792969 1032.144531 784.601562 1032.015625 784.949219 C 1027.445312 797.640625 1028.167969 812.5625 1036.296875 823.976562 C 1043.082031 833.507812 1057.855469 843.4375 1070.097656 839.007812 C 1078.324219 836.023438 1082.941406 827.6875 1083.375 819.332031 C 1084.902344 826.214844 1082.082031 833.417969 1077.015625 838.097656 C 1059.796875 854.023438 1036.875 834.335938 1029.015625 818.347656 C 1028.691406 817.675781 1027.679688 818.152344 1027.96875 818.835938 C 1036.507812 838.066406 1059.683594 858.289062 1080.390625 841.988281 C 1087.253906 836.59375 1090.050781 827.710938 1089.019531 819.292969 C 1088.949219 818.710938 1088.832031 818.113281 1088.683594 817.519531 C 1088.996094 818.390625 1089.289062 819.269531 1089.496094 820.183594 C 1089.851562 821.71875 1090.042969 823.269531 1090.1875 824.824219 C 1090.171875 825.984375 1090.128906 827.148438 1090.109375 828.300781 C 1088.292969 835.894531 1083.5625 843.617188 1077.179688 847.578125 C 1063.4375 856.09375 1039.472656 845.875 1031.542969 833.253906 C 1031.332031 832.917969 1030.765625 833.152344 1030.957031 833.53125 C 1039.042969 849.089844 1065.890625 860.308594 1081.644531 850.484375 C 1089.640625 845.496094 1095.210938 835.203125 1096.253906 825.152344 C 1096.320312 826.175781 1096.371094 827.1875 1096.339844 828.203125 C 1096.113281 839.183594 1088.546875 848.851562 1078.9375 853.710938 C 1061.117188 862.714844 1038.5 852.515625 1026.308594 838.476562 C 1025.945312 838.058594 1025.320312 838.59375 1025.660156 839.019531 C 1039.316406 856.136719 1065.386719 868.964844 1085.949219 855.894531 C 1095.390625 849.902344 1101.410156 840.367188 1102.375 829.613281 C 1103.59375 840.972656 1096.210938 852.945312 1086.136719 859.476562 C 1083.859375 860.675781 1081.480469 861.671875 1079.027344 862.496094 C 1077.03125 862.929688 1075.027344 863.289062 1073.042969 863.765625 C 1072.210938 863.964844 1071.378906 864.21875 1070.570312 864.492188 C 1057.183594 866.40625 1044.5 861.515625 1033.800781 853.582031 C 1022.988281 845.550781 1015.480469 833.851562 1011.675781 821.222656 C 1007.390625 806.933594 1007 789.46875 1011.660156 775.410156 C 1016.667969 760.347656 1031.804688 749.105469 1045.5 742.019531 C 1057.492188 735.820312 1070.988281 733.90625 1084.511719 734.425781 C 1106.769531 735.273438 1129.355469 743.277344 1146.460938 757.59375 C 1164.34375 772.546875 1173.429688 794.71875 1176.296875 817.003906 C 1177.707031 827.945312 1177.394531 838.890625 1175.460938 849.496094 C 1177.105469 836.988281 1176.691406 824.152344 1174.433594 811.800781 C 1170.742188 791.503906 1161.007812 773.003906 1144.4375 759.941406 C 1135.449219 752.851562 1125.035156 747.835938 1114.332031 743.816406 C 1101.722656 739.078125 1089.503906 739.519531 1076.308594 739.644531 C 1075.613281 739.652344 1075.535156 740.632812 1076.238281 740.726562 C 1087.683594 742.179688 1098.5 741.363281 1109.652344 745.191406 C 1120.332031 748.859375 1130.453125 754.183594 1139.414062 760.992188 C 1156.144531 773.679688 1165.4375 791.144531 1169.488281 811.070312 C 1169.921875 814.984375 1170.3125 818.859375 1170.59375 822.714844 C 1170.574219 830.585938 1169.828125 838.429688 1167.9375 845.910156 C 1166.234375 852.675781 1163.488281 858.976562 1160.496094 865.238281 C 1161.636719 861.914062 1162.636719 858.558594 1163.488281 855.1875 C 1166.496094 843.316406 1168.375 830.339844 1167.261719 818.042969 C 1165.195312 795.335938 1154.277344 773.316406 1134.425781 760.5625 C 1115.894531 748.644531 1090.933594 743.359375 1069.507812 748.652344 C 1068.765625 748.835938 1068.976562 749.945312 1069.75 749.800781 C 1091.054688 745.8125 1114.539062 751.152344 1132.65625 763.078125 C 1151.65625 775.605469 1161.957031 798.089844 1163.320312 819.890625 C 1164.792969 843.75 1157.320312 870.214844 1142.484375 888.917969 C 1138.257812 894.242188 1133.425781 899.296875 1128.488281 904.167969 C 1124.140625 906.566406 1120.070312 909.324219 1116.003906 912.222656 C 1113.085938 914.308594 1110.085938 916.253906 1106.945312 918.007812 C 1105.03125 919.074219 1102.902344 919.761719 1100.933594 920.695312 C 1100.910156 920.582031 1100.878906 920.472656 1100.84375 920.371094 C 1106.464844 918.160156 1111.671875 913.097656 1116.167969 910.144531 C 1125.25 904.179688 1132.910156 896.636719 1139.355469 888.007812 C 1151.574219 871.683594 1157.695312 851.058594 1158.914062 830.890625 C 1160.078125 811.539062 1154.421875 792.78125 1140.21875 778.699219 C 1127.082031 765.6875 1106.0625 755.929688 1087.253906 756.828125 C 1086.929688 756.847656 1086.882812 757.339844 1087.214844 757.332031 C 1095.433594 757.179688 1103.761719 761.40625 1111.328125 764.300781 C 1119.695312 767.5 1128.722656 774.628906 1135.085938 780.8125 C 1148.996094 794.308594 1153.988281 811.847656 1153.003906 830.453125 C 1152.023438 849.152344 1145.425781 867.417969 1134.902344 882.828125 C 1129.539062 890.679688 1122.71875 897.488281 1114.996094 903.101562 C 1109.535156 907.074219 1103.683594 911.679688 1097.625 915.191406 C 1095.898438 914.023438 1093.542969 913.90625 1090.527344 915.628906 C 1079.757812 921.777344 1067.585938 925.078125 1055.164062 926.773438 C 1029.519531 930.265625 1003.441406 922.761719 981.277344 909.894531 C 958.835938 896.863281 938.9375 877.707031 924.847656 856.214844 C 917.582031 845.105469 911.625 833.066406 907.972656 820.378906 C 904.429688 808.125 903.460938 795.457031 901.085938 783.015625 C 901.121094 780.980469 901.175781 778.957031 901.238281 776.925781 C 901.796875 772.882812 902.066406 768.855469 901.753906 764.910156 C 903.375 738.15625 908 711.59375 916.140625 686.078125 C 924.183594 660.890625 936.558594 637.84375 951.878906 616.304688 C 966.257812 596.105469 983.136719 577.503906 1002.808594 562.164062 C 1016.035156 551.851562 1031.089844 543.40625 1046.847656 536.75 C 1058.082031 530.226562 1110.761719 519.136719 1123.742188 517.195312 L 1134.871094 507.933594 C 1073.761719 515.386719 1013.804688 535.324219 964.335938 571.300781 C 952.199219 580.125 940.980469 589.96875 930.078125 600.226562 C 918.554688 611.074219 907.089844 622.0625 897.246094 634.453125 C 887.40625 646.824219 879.828125 660.730469 872.316406 674.546875 C 865.957031 686.230469 859.054688 697.601562 852.796875 709.320312 C 841.664062 730.1875 789.8125 809.699219 767.894531 818.75 C 767.410156 818.945312 767.164062 819.324219 767.089844 819.746094 C 758.363281 826.804688 785.441406 849.039062 790.261719 852.136719 C 791.703125 853.070312 793.253906 853.867188 794.878906 854.566406 C 793.726562 855.03125 792.6875 855.535156 791.886719 855.992188 C 785.34375 859.671875 780.3125 865.683594 775.6875 871.398438 C 770.742188 877.515625 766.289062 883.765625 760.417969 889.121094 C 752.957031 895.9375 744.214844 900.3125 734.457031 902.886719 C 733.355469 902.109375 731.546875 902.617188 731.367188 904.25 C 729.964844 916.738281 741.480469 928.265625 750.539062 935.425781 C 761.308594 943.917969 774.476562 950.210938 787.683594 953.90625 C 801.464844 957.769531 816.421875 958.484375 830.464844 956.335938 C 835.78125 955.515625 843.222656 953.699219 849.6875 950.582031 C 848.644531 956.703125 849.984375 963.871094 855.082031 966.511719 C 859.59375 968.847656 866.386719 967.253906 871.027344 966.296875 C 877.636719 964.9375 884.03125 962.570312 890.007812 959.546875 C 901.859375 953.558594 910.527344 942.617188 914.984375 930.421875 C 916.480469 926.339844 920.515625 917.589844 921.121094 910.464844 C 925.707031 920.414062 930.980469 930.078125 936.96875 939.363281 C 950.660156 960.589844 968.03125 977.894531 987.339844 994.214844 C 998.398438 1003.570312 1009.519531 1012.957031 1019.355469 1023.582031 C 1026.640625 1031.480469 1036.8125 1042.582031 1032.910156 1054.003906 C 1032.480469 1055.277344 1033.5 1056.085938 1034.53125 1056.035156 C 1042.304688 1058.742188 1051.355469 1051.363281 1056.613281 1046.683594 C 1064.148438 1039.992188 1069.703125 1031.394531 1073.890625 1022.363281 C 1082.222656 1004.421875 1083.125 979.875 1069.476562 963.984375 C 1079.421875 963.644531 1088.28125 957.023438 1094.257812 949.648438 C 1096.574219 946.78125 1099.074219 942.367188 1100.617188 937.660156 C 1106.296875 935.230469 1112.597656 934.0625 1118.40625 931.859375 C 1125.382812 929.214844 1131.886719 924.214844 1137.816406 919.84375 C 1150.019531 910.875 1160.386719 900.027344 1168.261719 887.207031 C 1183.007812 863.226562 1186.835938 834.199219 1181.390625 806.675781 C 1176.535156 782.128906 1162.605469 759.925781 1141.273438 745.839844 C 1120.292969 731.976562 1093.191406 726.199219 1068.421875 728.941406 C 1046.554688 731.363281 1023.054688 743.910156 1010.898438 762.6875 C 1008.5 759.960938 1006.898438 756.722656 1005.792969 753.214844 C 1005.027344 750.753906 1004.675781 748.199219 1004.558594 745.640625 C 1004.480469 744.046875 1004.796875 742.574219 1004.589844 741.03125 C 1007.996094 730.117188 1009.9375 717.203125 1004.226562 706.980469 C 1004.21875 706.859375 1004.214844 706.730469 1004.203125 706.605469 C 1006.582031 707.652344 1009.144531 708.429688 1011.894531 708.886719 C 1020.859375 710.335938 1029.082031 708.617188 1036.367188 703.40625 C 1040 700.808594 1043.027344 696.613281 1043.773438 692.230469 C 1030.914062 639.503906 1096.289062 593.742188 1148.738281 572.855469 M 957.578125 586.535156 C 947.875 596.464844 938.996094 607.203125 930.789062 618.199219 C 913.222656 641.742188 900.605469 667.851562 890.4375 695.257812 C 884.964844 710.03125 879.132812 724.449219 872.128906 738.582031 C 864.777344 753.410156 856.554688 767.804688 848.871094 782.476562 C 836.976562 805.230469 816.199219 825.871094 789.351562 829.707031 C 788.597656 829.820312 788.84375 830.898438 789.574219 830.832031 C 814.316406 828.710938 835.234375 814.21875 848.527344 794.210938 C 856.859375 781.667969 863.300781 767.464844 870.351562 754.175781 C 878.007812 739.734375 885.167969 725.078125 890.761719 709.714844 C 899.386719 686.097656 908.40625 662.796875 921.296875 641.300781 C 912.21875 658.671875 905.472656 677.117188 899.539062 695.898438 C 891 722.917969 883.578125 750.257812 869.449219 775.050781 C 862.769531 786.757812 854.578125 797.476562 845.949219 807.820312 C 837.964844 817.382812 829.109375 826.972656 817.121094 831.640625 C 816.550781 831.859375 816.984375 832.691406 817.546875 832.480469 C 828.441406 828.632812 836.878906 821.394531 844.945312 813.492188 C 853.980469 804.648438 861.855469 794.648438 868.773438 784.136719 C 884.226562 760.65625 892.429688 733.710938 900.628906 707.113281 C 903.496094 697.839844 906.546875 688.664062 909.929688 679.617188 C 908.109375 687.535156 906.492188 695.503906 904.769531 703.367188 C 899.914062 725.566406 892.933594 746.527344 883.261719 767.089844 C 873.882812 787.023438 862.261719 807.976562 845.683594 822.992188 C 845.273438 823.367188 845.84375 824.023438 846.269531 823.65625 C 867.589844 805.59375 882.933594 781.605469 893.746094 755.816406 C 893.128906 757.769531 892.503906 759.710938 891.828125 761.605469 C 888.449219 771.132812 884.730469 780.476562 879.855469 789.378906 C 875.410156 797.503906 871.179688 805.890625 865.808594 813.480469 C 860.46875 821.039062 852.980469 826.515625 846.109375 832.636719 C 845.394531 833.269531 846.339844 834.347656 847.09375 833.769531 C 853.582031 828.765625 860.25 824.316406 865.699219 818.160156 C 872.25 810.789062 877.089844 801.871094 882.195312 793.511719 C 885.25 788.511719 887.921875 783.339844 890.347656 778.058594 C 890.246094 778.492188 890.132812 778.9375 890.015625 779.367188 C 887.875 787.125 884.820312 794.664062 881.570312 802.007812 C 875.265625 816.234375 867.75 831.644531 854.210938 840.449219 C 853.273438 841.050781 854.351562 842.671875 855.292969 842.074219 C 867.414062 834.441406 875.8125 823.273438 882.460938 810.980469 C 882.476562 811.011719 882.453125 811.023438 882.457031 811.050781 C 882.382812 811.238281 882.320312 811.421875 882.238281 811.617188 C 880.980469 814.789062 879.585938 817.910156 878.082031 820.949219 C 876.363281 823.152344 875.113281 825.703125 874.042969 828.367188 C 872.109375 831.601562 870.011719 834.742188 867.710938 837.773438 C 856.347656 852.734375 840.265625 864.253906 822.023438 869.816406 C 821.6875 869.921875 821.792969 870.4375 822.136719 870.34375 C 840.007812 865.230469 855.1875 856.210938 867.996094 843.015625 C 868.011719 842.96875 868.058594 842.945312 868.074219 842.925781 C 864.6875 849.167969 860.109375 854.8125 855.292969 859.984375 C 845.035156 871 831.039062 881.605469 815.550781 883.644531 C 815.464844 883.660156 815.492188 883.789062 815.582031 883.78125 C 837.191406 881.1875 856.1875 867.660156 868.707031 849.996094 C 866.667969 853.769531 864.566406 857.507812 862.496094 861.167969 C 851.65625 880.320312 829.324219 896.125 807.550781 900.953125 C 806.96875 901.082031 807.148438 901.964844 807.730469 901.839844 C 830.574219 897.144531 853.886719 883.375 866.246094 863.726562 C 867.628906 861.546875 868.972656 859.320312 870.296875 857.058594 C 863.882812 870.902344 854.992188 882.832031 842.90625 893.058594 C 828.742188 905.039062 809.59375 914 790.605469 914.609375 C 789.699219 914.636719 789.578125 916.011719 790.515625 916.015625 C 808.84375 916.128906 826.109375 911.160156 841.324219 901.285156 C 847.085938 897.550781 852.203125 893.3125 856.789062 888.648438 C 848.960938 897.738281 839.203125 905.207031 828.476562 910.738281 C 828.046875 910.957031 827.601562 911.171875 827.160156 911.390625 C 821.792969 913.816406 816.175781 915.875 810.355469 917.679688 C 809.574219 917.921875 808.773438 918.125 807.964844 918.339844 C 803.394531 919.46875 798.699219 920.292969 793.945312 920.792969 C 776.980469 922.238281 758.625 918.820312 744.355469 910.855469 C 744.289062 910.820312 744.214844 910.800781 744.144531 910.796875 C 744.035156 910.730469 743.929688 910.652344 743.8125 910.574219 C 746.171875 910.644531 748.46875 910.539062 750.316406 910.523438 C 757.824219 910.429688 765.792969 910.265625 773.136719 908.765625 C 773.292969 908.734375 773.242188 908.519531 773.101562 908.539062 C 766.132812 909.097656 759.082031 907.683594 752.097656 907.800781 C 748.699219 907.851562 745.316406 907.601562 741.941406 907.226562 C 740.511719 907.066406 739.125 906.71875 737.742188 906.460938 C 737.730469 906.464844 737.707031 906.433594 737.691406 906.421875 C 737.90625 906.359375 738.117188 906.300781 738.296875 906.246094 C 738.566406 906.171875 738.738281 905.96875 738.816406 905.742188 C 742.070312 905 745.105469 903.339844 748.28125 902.34375 C 751.957031 901.179688 755.804688 900.464844 759.625 899.941406 C 767.710938 898.820312 775.917969 898.964844 784.039062 898.15625 C 784.621094 898.101562 784.542969 897.167969 783.964844 897.15625 C 775.894531 896.960938 767.808594 897.121094 759.777344 897.875 C 759.917969 897.644531 759.886719 897.355469 759.75 897.109375 C 763.472656 895.589844 766.996094 892.742188 770.460938 891.171875 C 776.597656 888.386719 784.574219 887.257812 791.300781 886.625 C 791.347656 886.640625 791.332031 886.5625 791.300781 886.5625 C 784.550781 886.824219 777.84375 886.828125 771.277344 888.488281 C 769.695312 888.886719 767.921875 889.484375 766.113281 890.21875 C 768.015625 888.617188 769.84375 886.90625 771.601562 885.121094 C 772.941406 884.398438 774.234375 883.566406 775.601562 882.859375 C 778.636719 881.289062 781.847656 880.03125 785.070312 878.863281 C 792.132812 876.289062 799.382812 873.867188 806.542969 871.570312 C 806.679688 871.5 806.597656 871.273438 806.453125 871.3125 C 799.121094 873.292969 791.554688 874.289062 784.265625 876.527344 C 782.28125 877.144531 779.921875 877.824219 777.554688 878.664062 C 779.683594 876.082031 781.308594 873.503906 784.308594 871.652344 C 787.472656 869.695312 791.1875 868.542969 794.761719 867.539062 C 800.980469 865.78125 807.527344 864.71875 813.515625 862.324219 C 814.097656 862.09375 813.667969 861.269531 813.101562 861.46875 C 805.425781 864.25 797.089844 864.652344 789.277344 866.957031 C 788.609375 867.148438 787.902344 867.367188 787.183594 867.617188 C 787.960938 866.855469 788.742188 866.101562 789.566406 865.375 C 792.292969 862.964844 795.320312 861.050781 798.773438 859.820312 C 801.402344 858.878906 804.832031 859.550781 806.992188 857.734375 L 807.007812 857.726562 C 810.964844 858.242188 814.933594 858.332031 818.578125 858.113281 C 827.222656 857.59375 839.734375 852.53125 840.402344 842.652344 C 840.464844 841.695312 839.253906 841.085938 838.515625 841.714844 C 835.523438 844.265625 833.375 847.441406 829.921875 849.507812 C 826.167969 851.757812 821.882812 852.703125 817.542969 853.085938 C 809.914062 853.773438 800.464844 851.976562 793.738281 848.164062 C 788.375 845.121094 783.699219 840.398438 779.410156 836.085938 C 776.59375 833.25 771.078125 828.1875 770.984375 823.554688 C 774.421875 825.011719 778.769531 825.386719 782.460938 824.4375 C 790.445312 824.230469 798.546875 820.335938 805.257812 816.859375 C 817.289062 810.621094 827.34375 802.71875 835.335938 791.859375 C 854.71875 765.558594 867.761719 735.066406 880.535156 705.28125 C 893.964844 673.921875 907.726562 642.535156 929.195312 615.601562 C 937.515625 605.167969 946.992188 595.007812 957.585938 586.542969 Z M 897.21875 646.46875 C 893.121094 653.703125 889.714844 661.382812 886.03125 668.78125 C 879.925781 681.074219 873.246094 693.035156 867.324219 705.414062 C 861.023438 718.59375 855.082031 731.914062 848.542969 744.976562 C 842.839844 756.359375 836.476562 767.476562 829.753906 778.296875 C 824.078125 787.429688 817.507812 796.226562 808.640625 802.585938 C 802.859375 806.730469 796.75 810.410156 790.4375 813.738281 C 788.292969 814.871094 778.113281 820.703125 773.570312 820.09375 C 818.613281 804.433594 839.324219 756.535156 859.265625 717.34375 C 865.167969 705.746094 871.5 694.378906 877.472656 682.8125 C 883.773438 670.601562 889.695312 658.023438 897.21875 646.46875 Z M 780.867188 821.382812 C 788.648438 818.878906 795.8125 814.546875 802.835938 810.527344 C 809.441406 806.75 815.578125 802.847656 820.828125 797.324219 C 829.019531 788.707031 834.960938 778.183594 840.878906 767.984375 C 856.097656 741.785156 867.140625 713.59375 881.636719 687.046875 C 882.765625 684.976562 883.875 682.894531 884.996094 680.808594 C 884.4375 682.070312 883.886719 683.328125 883.335938 684.585938 C 876.78125 699.613281 870.632812 714.816406 863.957031 729.792969 C 856.90625 745.585938 848.75 760.609375 840.136719 775.582031 C 832.605469 788.644531 824.636719 801.691406 811.4375 809.890625 C 801.203125 816.242188 789.457031 823.613281 776.804688 822.503906 C 778.265625 822.214844 779.695312 821.761719 780.867188 821.382812 Z M 736.660156 909.367188 C 736.773438 909.417969 736.882812 909.464844 737.003906 909.496094 C 744.835938 918.171875 760.847656 921.035156 771.386719 922.980469 C 778.445312 924.277344 785.570312 924.878906 792.664062 924.777344 C 797.160156 924.914062 801.648438 924.679688 806.089844 923.84375 C 807.4375 923.585938 808.773438 923.3125 810.105469 923.003906 C 815.21875 922.03125 820.265625 920.65625 825.179688 918.84375 C 833.726562 915.6875 841.683594 911.164062 848.855469 905.664062 C 853.480469 902.320312 857.820312 898.585938 861.816406 894.46875 C 870.148438 885.851562 876.621094 875.804688 881.648438 865.046875 C 875.726562 880.640625 866.164062 895.972656 854.367188 907.128906 C 841.207031 919.570312 822.183594 927.554688 804.191406 930.097656 C 785.980469 932.679688 766.578125 928.972656 749.9375 921.183594 C 749.8125 921.121094 749.714844 921.132812 749.632812 921.183594 C 747.421875 919.945312 745.269531 918.578125 743.222656 917.25 C 740.804688 915.695312 739.144531 913.625 737.390625 911.617188 C 737.128906 910.871094 736.890625 910.125 736.660156 909.367188 Z M 740.714844 918.546875 C 744.394531 920.695312 748.792969 922.070312 752.664062 923.273438 C 768.574219 930.558594 785.640625 934.828125 803.242188 933.847656 C 822.355469 932.796875 842.136719 924.429688 856.742188 912.605469 C 863.574219 907.066406 868.957031 900.0625 873.734375 892.765625 C 867.054688 904.859375 858.222656 915.964844 847.304688 924.117188 C 818.28125 945.785156 774.105469 945.953125 744.699219 923.632812 C 743.964844 922.8125 743.234375 921.972656 742.546875 921.109375 C 741.867188 920.269531 741.265625 919.414062 740.714844 918.546875 Z M 752.6875 931.152344 C 764.164062 937.933594 777.75 941.429688 790.875 942.777344 C 811.523438 944.890625 831.453125 940.085938 848.824219 929.289062 C 864.875 919.316406 876.425781 902.988281 884.296875 886.039062 C 879.621094 900.730469 872.167969 914.832031 861.394531 925.453125 C 847.160156 939.472656 827.277344 946.660156 807.15625 946.746094 C 796.703125 946.792969 786.496094 944.929688 776.386719 942.3125 C 771.550781 941.0625 766.621094 939.542969 761.941406 937.507812 C 760.101562 936.378906 758.277344 935.210938 756.507812 933.988281 C 755.207031 933.082031 753.929688 932.132812 752.6875 931.152344 Z M 805.058594 949.941406 C 826.308594 951.265625 847.230469 943.109375 862.933594 929.601562 C 872.941406 921 880.167969 910.070312 885.359375 898.171875 C 885.214844 898.796875 885.050781 899.410156 884.839844 900.042969 C 883.3125 904.671875 880.824219 909.023438 878.628906 913.375 C 876.007812 918.574219 873.035156 923.230469 869.261719 927.683594 C 868.585938 928.492188 867.914062 929.324219 867.246094 930.144531 C 866.007812 930.871094 864.957031 931.933594 863.855469 932.839844 C 863.109375 933.460938 862.324219 934.085938 861.640625 934.78125 C 861.464844 934.785156 861.289062 934.824219 861.128906 934.921875 C 857.945312 936.894531 855.382812 939.542969 852.597656 941.980469 C 845.71875 946.125 838.160156 949.152344 830.269531 950.644531 C 812.9375 953.933594 794.628906 951.128906 777.953125 945.636719 C 777.03125 945.257812 776.09375 944.871094 775.175781 944.464844 C 784.878906 947.277344 795.046875 949.3125 805.058594 949.941406 Z M 895.597656 901.625 C 892.617188 913.382812 888.027344 926.148438 879.058594 934.710938 C 873.621094 939.921875 865.246094 945.40625 857.175781 945.855469 C 857.964844 945.183594 858.710938 944.476562 859.390625 943.726562 C 862.066406 941.988281 864.65625 940.078125 867.09375 938.035156 C 872.828125 934.25 877.5625 929.632812 881.824219 923.519531 C 888.972656 913.246094 892.644531 901.039062 896.292969 889.21875 C 897.910156 884 899.351562 878.726562 900.59375 873.394531 C 899.703125 882.917969 897.945312 892.347656 895.597656 901.625 Z M 855.910156 948.625 C 862.933594 949.691406 871.070312 944.371094 876.285156 940.875 C 886.472656 934.042969 891.746094 923.585938 896.117188 912.566406 C 900.902344 900.519531 903.402344 887.199219 904.582031 874.214844 C 905.40625 877.492188 906.03125 880.804688 906.226562 884.207031 C 906.347656 886.640625 906.324219 889.164062 906.15625 891.710938 C 905.023438 898.980469 903.160156 906.152344 900.753906 913.070312 C 900.460938 913.902344 900.152344 914.726562 899.839844 915.546875 C 899.695312 915.8125 899.574219 916.070312 899.429688 916.335938 C 899.3125 916.546875 899.289062 916.746094 899.300781 916.933594 C 895.40625 926.628906 889.761719 935.632812 881.941406 942.722656 C 874.082031 949.863281 864.972656 951.234375 855.214844 953.21875 C 855.363281 951.679688 855.660156 950.148438 855.910156 948.625 Z M 855.140625 955.75 C 864.554688 955.355469 873.644531 952.621094 881.34375 947.285156 C 890.863281 940.671875 897.519531 930.027344 902.40625 919.84375 C 907.449219 909.3125 910.105469 897.378906 911.289062 885.753906 C 911.355469 885.949219 911.414062 886.140625 911.46875 886.332031 C 911.601562 889.726562 911.542969 893.152344 911.148438 896.683594 C 909.902344 908.214844 906.039062 919.464844 900.332031 929.527344 C 892.226562 943.804688 873.996094 962.121094 855.460938 957.96875 C 855.292969 957.316406 855.183594 956.582031 855.140625 955.75 Z M 856.933594 960.671875 C 874.917969 964.78125 893.070312 948.195312 901.964844 934.71875 C 908.777344 924.40625 912.859375 912.515625 914.949219 900.394531 C 915.125 899.335938 915.285156 898.246094 915.453125 897.136719 C 915.476562 897.203125 915.492188 897.277344 915.523438 897.335938 C 915.453125 899.523438 915.214844 901.707031 915.015625 903.828125 C 914.683594 907.5625 914.550781 911.34375 914.339844 915.101562 C 913.402344 918.417969 912.21875 921.648438 911.09375 924.898438 C 907.480469 935.394531 902.359375 944.503906 893.304688 951.398438 C 885.167969 957.582031 874.027344 961.109375 863.839844 962.042969 C 860.730469 962.324219 858.402344 962.046875 856.933594 960.671875 Z M 936.585938 915.261719 C 946.210938 927.980469 957.640625 939.515625 970.222656 949.757812 C 989.078125 965.117188 1008.75 979.5625 1026.628906 996.058594 C 1034.289062 1003.101562 1041.296875 1011.199219 1044.347656 1021.199219 C 1044.890625 1023 1045.195312 1024.789062 1045.3125 1026.578125 C 1044.132812 1024.039062 1042.660156 1021.628906 1041.289062 1019.539062 C 1031.605469 1004.824219 1017.136719 995.023438 1003.847656 983.730469 C 983.296875 966.273438 962.089844 948.109375 945.25 927.066406 C 942.175781 923.25 939.308594 919.296875 936.585938 915.261719 Z M 939.292969 923.300781 C 952.203125 940.953125 968.511719 955.792969 984.773438 970.480469 C 999.511719 983.796875 1015.816406 996.136719 1028.503906 1011.4375 C 1031.902344 1015.542969 1034.988281 1019.882812 1037.496094 1024.539062 C 1033.714844 1019.53125 1029.0625 1015.039062 1025.304688 1011.464844 C 1010.53125 997.414062 994.730469 984.613281 979.691406 970.835938 C 965.160156 957.511719 951.945312 942.65625 940.832031 926.476562 C 940.339844 925.410156 939.820312 924.351562 939.292969 923.300781 Z M 949.257812 942.597656 C 955.398438 950.21875 961.871094 957.449219 968.457031 964.207031 C 976.09375 972.035156 984.292969 979.351562 992.457031 986.648438 C 1000.410156 993.753906 1008.953125 1000.175781 1016.074219 1008.140625 C 1017.714844 1009.960938 1019.460938 1011.804688 1021.242188 1013.679688 C 1021.980469 1014.960938 1022.730469 1016.230469 1023.484375 1017.480469 C 1016.300781 1009.035156 1007.71875 1001.566406 999.441406 994.347656 C 988.855469 985.136719 977.949219 976.28125 967.957031 966.457031 C 963.617188 961.691406 959.382812 956.84375 955.441406 951.746094 C 953.183594 948.828125 951.152344 945.757812 949.257812 942.597656 Z M 1051.828125 1029.238281 C 1052.339844 1020.160156 1047.871094 1011.378906 1042.652344 1004.125 C 1036.96875 996.226562 1029.046875 989.988281 1021.296875 984.148438 C 1010.59375 976.066406 999.570312 968.386719 988.777344 960.425781 C 969.664062 946.347656 951.269531 931.347656 937.117188 912.273438 C 930.496094 903.371094 925.175781 893.867188 920.664062 883.972656 C 923.464844 888.664062 926.167969 893.402344 929.003906 898.078125 C 941.839844 919.234375 961.476562 935.457031 981.207031 950.347656 C 1000.808594 965.148438 1022.683594 977.886719 1040.375 995 C 1044.054688 999.191406 1047.972656 1003.191406 1050.210938 1008.554688 C 1052.210938 1013.316406 1052.730469 1018.996094 1052.730469 1024.113281 C 1052.515625 1025.707031 1052.246094 1027.304688 1051.910156 1028.902344 C 1051.886719 1029.019531 1051.851562 1029.125 1051.828125 1029.238281 Z M 1058.148438 1013.109375 C 1057.828125 1011.53125 1057.457031 1010.015625 1057.027344 1008.613281 C 1050.179688 986.214844 1024.257812 975.894531 1005.996094 964.207031 C 994.097656 956.589844 982.609375 948.183594 971.59375 939.390625 C 960.898438 930.855469 949.5 921.578125 940.625 911.175781 C 934.675781 904.183594 929.921875 896.105469 925.285156 888.046875 C 925.617188 888.542969 925.945312 889.054688 926.292969 889.554688 C 940.476562 910.050781 958.976562 927.027344 980.011719 940.527344 C 1000.238281 953.492188 1022.59375 963.5625 1041.519531 978.457031 C 1046.214844 982.148438 1049.984375 986.4375 1052.941406 991.214844 C 1055.394531 995.699219 1057.234375 1000.523438 1058.140625 1005.929688 C 1058.160156 1005.957031 1058.160156 1005.996094 1058.164062 1006.03125 C 1058.1875 1007.515625 1058.183594 1009 1058.1875 1010.503906 C 1058.191406 1011.375 1058.179688 1012.238281 1058.148438 1013.113281 Z M 1064.328125 999.242188 C 1062.808594 994.894531 1060.726562 990.726562 1058.167969 986.929688 C 1053.082031 979.449219 1046.191406 973.574219 1038.503906 968.550781 C 1038.457031 968.511719 1038.414062 968.457031 1038.371094 968.398438 C 1038.203125 968.226562 1038.007812 968.144531 1037.816406 968.097656 C 1025.914062 960.445312 1012.230469 954.734375 1000.464844 948.164062 C 989.261719 941.898438 978.261719 935.296875 967.910156 927.71875 C 957.996094 920.457031 949.429688 911.859375 941.394531 902.707031 C 941.808594 903.0625 942.210938 903.421875 942.625 903.773438 C 943.953125 904.914062 945.300781 906.027344 946.671875 907.117188 C 949.441406 909.96875 952.285156 912.746094 955.226562 915.359375 C 969.238281 927.785156 984.40625 937.945312 1001.511719 945.707031 C 1017.28125 952.851562 1033.902344 959.484375 1047.988281 969.703125 C 1048.359375 969.992188 1048.742188 970.285156 1049.097656 970.582031 C 1054.566406 974.980469 1058.230469 980.695312 1061.035156 986.964844 C 1062.878906 991.042969 1063.847656 995.132812 1064.328125 999.242188 Z M 1066.351562 981.597656 C 1065.742188 980.636719 1065.109375 979.683594 1064.429688 978.738281 C 1054.195312 964.726562 1037.574219 956.078125 1021.742188 949.742188 C 1012.863281 946.195312 1004.007812 942.644531 995.394531 938.492188 C 986.394531 934.175781 978.3125 928.707031 970.398438 922.757812 C 973.441406 924.71875 976.523438 926.617188 979.632812 928.421875 C 998.867188 939.585938 1019.507812 946.546875 1039.878906 955.121094 C 1043.140625 956.488281 1046.390625 957.972656 1049.539062 959.644531 C 1052.101562 961.394531 1054.515625 963.3125 1056.816406 965.457031 C 1060.308594 968.714844 1062.085938 972.171875 1064.097656 976.421875 C 1064.894531 978.117188 1065.664062 979.839844 1066.351562 981.597656 Z M 1050.335938 947.605469 C 1063.691406 947.574219 1078.328125 944.800781 1087.589844 936.683594 C 1087.464844 936.90625 1087.339844 937.121094 1087.210938 937.339844 C 1085.914062 938.828125 1084.574219 940.261719 1083.007812 941.601562 C 1081.84375 942.605469 1080.585938 943.503906 1079.300781 944.359375 C 1076.914062 945.066406 1074.492188 945.703125 1072.378906 946.839844 C 1068.398438 947.71875 1064.496094 948.425781 1060.496094 948.695312 C 1058.441406 948.757812 1056.371094 948.738281 1054.316406 948.632812 C 1052.992188 948.296875 1051.65625 947.941406 1050.335938 947.605469 Z M 1037.902344 934.167969 C 1045.78125 934.613281 1053.53125 934.007812 1061.195312 932.726562 C 1059.476562 933.710938 1057.636719 934.621094 1055.769531 935.386719 C 1050.269531 936.429688 1044.621094 936.9375 1038.886719 936.898438 C 1022.976562 936.78125 1007.144531 931.195312 992.59375 924.171875 C 987.113281 921.132812 981.816406 917.796875 976.699219 914.203125 C 995.113281 925.671875 1016.191406 932.917969 1037.902344 934.167969 Z M 1051.238281 943.566406 C 1050.636719 943.523438 1050.042969 943.480469 1049.441406 943.421875 C 1045.320312 942.972656 1041.25 942.15625 1037.222656 941.121094 C 1038.246094 941.21875 1039.257812 941.320312 1040.269531 941.371094 C 1057.6875 942.359375 1075.476562 937.660156 1089.703125 927.929688 C 1082.929688 940.003906 1066.378906 943.480469 1051.238281 943.566406 Z M 1002.777344 720.949219 C 1000.925781 719.367188 999.171875 717.738281 997.632812 715.644531 C 995.0625 712.160156 993.453125 707.90625 992.164062 703.851562 C 991.132812 700.660156 990.335938 697.386719 989.589844 694.109375 C 990.835938 695.949219 992.230469 697.671875 993.761719 699.253906 C 994.238281 702.050781 995.144531 704.800781 996.136719 707.328125 C 996.988281 709.546875 999.480469 714.367188 1002.429688 715.605469 C 1002.632812 717.394531 1002.757812 719.167969 1002.777344 720.949219 Z M 1001.3125 709.429688 C 1000.355469 708.054688 999.667969 706.488281 998.992188 704.980469 C 998.734375 704.40625 998.503906 703.816406 998.289062 703.21875 C 998.65625 703.480469 999.03125 703.722656 999.390625 703.96875 C 999.765625 704.828125 1000.128906 705.796875 1000.558594 706.707031 C 1000.832031 707.613281 1001.09375 708.519531 1001.3125 709.429688 Z M 1027.390625 667.664062 C 1027.324219 667.003906 1027.277344 666.332031 1027.234375 665.640625 C 1026.75 655.207031 1028.925781 644.644531 1032.296875 634.851562 C 1040.738281 610.289062 1065.191406 595.675781 1088 584.773438 C 1114.769531 571.980469 1124.703125 572.773438 1101.855469 582.023438 C 1079.179688 591.195312 1054.617188 601.503906 1040.972656 621.992188 C 1033.941406 632.53125 1029.933594 644.546875 1028.179688 657 C 1027.671875 660.527344 1027.394531 664.101562 1027.390625 667.664062 Z M 1036.660156 666.171875 C 1036.808594 663.3125 1037.113281 660.453125 1037.398438 657.675781 C 1038.640625 645.421875 1042.570312 633.558594 1049.316406 623.230469 C 1055.75 613.355469 1065.472656 606.296875 1075.109375 599.664062 C 1076.765625 598.527344 1078.460938 597.445312 1080.183594 596.386719 C 1075.535156 599.675781 1071.25 603.390625 1067.183594 607.339844 C 1063.269531 610.90625 1059.628906 614.761719 1056.273438 618.855469 C 1049.816406 626.414062 1044.953125 634.785156 1041.511719 644.160156 C 1040.445312 647.046875 1040.019531 650.105469 1039.746094 653.183594 C 1038.574219 657.332031 1037.441406 661.746094 1036.660156 666.171875 Z M 1036.660156 666.171875 "/>
</g>
</g>
</svg>
