<?xml version="1.0" encoding="UTF-8"?>
<svg xmlns="http://www.w3.org/2000/svg" xmlns:xlink="http://www.w3.org/1999/xlink" width="1425.287292pt" height="258.3964pt" viewBox="0 0 1425.287292 258.3964" version="1.1">
<defs>
<clipPath id="clip1">
  <path d="M 0 111 L 1425.289062 111 L 1425.289062 116 L 0 116 Z M 0 111 "/>
</clipPath>
<clipPath id="clip2">
  <path d="M 0 143 L 1425.289062 143 L 1425.289062 147 L 0 147 Z M 0 143 "/>
</clipPath>
<clipPath id="clip3">
  <path d="M 229 66 L 1196 66 L 1196 258.394531 L 229 258.394531 Z M 229 66 "/>
</clipPath>
</defs>
<g id="surface1">
<path style=" stroke:none;fill-rule:nonzero;fill:rgb(100%,100%,100%);fill-opacity:1;" d="M 232.679688 126.265625 L 240.296875 106.40625 L 1184.917969 106.40625 L 1194.535156 125.015625 L 1189.914062 141.753906 L 1183.167969 150.246094 L 241.757812 150.246094 L 233.988281 138.070312 Z M 232.679688 126.265625 "/>
<path style=" stroke:none;fill-rule:nonzero;fill:rgb(0%,0%,0%);fill-opacity:1;" d="M 232.082031 138.621094 C 229.351562 137.6875 226.46875 137.914062 223.628906 138.058594 C 219.691406 138.273438 215.742188 137.988281 211.789062 137.902344 C 202.878906 137.699219 193.960938 137.945312 185.039062 137.84375 C 176.800781 137.742188 168.589844 138.476562 160.359375 138.230469 C 151.171875 137.972656 141.988281 137.816406 132.800781 137.730469 C 96.480469 137.382812 60.179688 138.347656 23.867188 138.851562 C 23.632812 138.851562 23.632812 139.210938 23.867188 139.210938 C 59.34375 139.683594 94.820312 139.167969 130.300781 139.484375 C 139.0625 139.554688 147.828125 139.710938 156.601562 139.941406 C 165.269531 140.171875 173.917969 139.453125 182.582031 139.65625 C 191.128906 139.84375 199.679688 139.84375 208.230469 140.042969 C 212.460938 140.144531 216.679688 140.417969 220.910156 140.53125 C 224.449219 140.632812 228.007812 139.914062 231.472656 140.949219 C 232.96875 141.410156 233.539062 139.109375 232.082031 138.621094 M 1193.207031 138.621094 C 1195.9375 137.6875 1198.816406 137.914062 1201.65625 138.058594 C 1205.597656 138.273438 1209.546875 137.988281 1213.496094 137.902344 C 1222.40625 137.699219 1231.328125 137.945312 1240.246094 137.84375 C 1248.488281 137.742188 1256.699219 138.476562 1264.925781 138.230469 C 1274.117188 137.972656 1283.296875 137.816406 1292.488281 137.730469 C 1328.808594 137.382812 1365.105469 138.347656 1401.421875 138.851562 C 1401.65625 138.851562 1401.65625 139.210938 1401.421875 139.210938 C 1365.945312 139.683594 1330.46875 139.167969 1294.988281 139.484375 C 1286.226562 139.554688 1277.457031 139.710938 1268.6875 139.941406 C 1260.019531 140.171875 1251.367188 139.453125 1242.707031 139.65625 C 1234.15625 139.84375 1225.609375 139.84375 1217.058594 140.042969 C 1212.828125 140.144531 1208.605469 140.417969 1204.375 140.53125 C 1200.835938 140.632812 1197.277344 139.914062 1193.816406 140.949219 C 1192.316406 141.410156 1191.746094 139.109375 1193.207031 138.621094 "/>
<path style=" stroke:none;fill-rule:nonzero;fill:rgb(0%,0%,0%);fill-opacity:1;" d="M 229.070312 131.488281 C 227.808594 132.136719 224.757812 131.210938 223.367188 131.097656 C 219.75 130.808594 216.039062 131.414062 212.40625 131.386719 C 204.148438 131.300781 195.917969 130.722656 187.65625 131.113281 C 171.347656 131.890625 154.976562 130.636719 138.648438 130.980469 C 122.636719 131.328125 106.640625 130.9375 90.628906 131.097656 C 74.105469 131.253906 57.308594 131.386719 40.875 133.144531 C 40.730469 133.160156 40.726562 133.375 40.875 133.375 C 57.441406 132.929688 74.054688 132.625 90.628906 132.582031 C 107.449219 132.539062 124.238281 132.984375 141.058594 132.667969 C 157.40625 132.351562 173.789062 132.898438 190.136719 132.984375 C 198.347656 133.027344 206.558594 133.707031 214.769531 133.632812 C 218.027344 133.589844 221.277344 133.1875 224.539062 133.519531 C 226.246094 133.691406 228.609375 134.355469 230.226562 133.519531 C 231.566406 132.828125 230.40625 130.78125 229.070312 131.488281 M 1196.21875 131.488281 C 1197.476562 132.136719 1200.527344 131.210938 1201.917969 131.097656 C 1205.539062 130.808594 1209.25 131.414062 1212.878906 131.386719 C 1221.140625 131.300781 1229.371094 130.722656 1237.628906 131.113281 C 1253.9375 131.890625 1270.308594 130.636719 1286.640625 130.980469 C 1302.648438 131.328125 1318.648438 130.9375 1334.660156 131.097656 C 1351.179688 131.253906 1367.976562 131.386719 1384.414062 133.144531 C 1384.554688 133.160156 1384.5625 133.375 1384.414062 133.375 C 1367.847656 132.929688 1351.234375 132.625 1334.660156 132.582031 C 1317.839844 132.539062 1301.050781 132.984375 1284.230469 132.667969 C 1267.878906 132.351562 1251.5 132.898438 1235.148438 132.984375 C 1226.941406 133.027344 1218.730469 133.707031 1210.519531 133.632812 C 1207.257812 133.589844 1204.011719 133.1875 1200.75 133.519531 C 1199.039062 133.691406 1196.679688 134.355469 1195.058594 133.519531 C 1193.71875 132.828125 1194.878906 130.78125 1196.21875 131.488281 "/>
<path style=" stroke:none;fill-rule:nonzero;fill:rgb(0%,0%,0%);fill-opacity:1;" d="M 229.035156 125.445312 C 222.605469 125.488281 216.195312 125.039062 209.757812 125.125 C 202.367188 125.226562 194.964844 124.835938 187.574219 124.679688 C 173.164062 124.359375 158.734375 124.722656 144.324219 124.808594 C 129.734375 124.894531 115.144531 125.097656 100.554688 125.269531 C 93.476562 125.359375 86.40625 125.214844 79.332031 125.269531 C 73.066406 125.328125 66.628906 125.070312 60.417969 125.949219 C 60.210938 125.980469 60.257812 126.339844 60.464844 126.3125 C 66.648438 125.558594 73.109375 126.226562 79.332031 126.324219 C 86.40625 126.441406 93.476562 126.628906 100.554688 126.671875 C 115.144531 126.730469 129.734375 126.527344 144.324219 126.527344 C 158.746094 126.527344 173.167969 126.179688 187.578125 126.46875 C 194.554688 126.601562 201.535156 126.917969 208.527344 126.949219 C 215.367188 126.960938 222.195312 127.410156 229.035156 127.410156 C 230.304688 127.410156 230.304688 125.445312 229.035156 125.445312 M 1196.25 125.445312 C 1202.683594 125.488281 1209.09375 125.039062 1215.53125 125.125 C 1222.921875 125.226562 1230.320312 124.835938 1237.710938 124.679688 C 1252.121094 124.359375 1266.550781 124.722656 1280.960938 124.808594 C 1295.550781 124.894531 1310.140625 125.097656 1324.730469 125.269531 C 1331.8125 125.359375 1338.878906 125.214844 1345.957031 125.269531 C 1352.21875 125.328125 1358.660156 125.070312 1364.871094 125.949219 C 1365.074219 125.980469 1365.027344 126.339844 1364.824219 126.3125 C 1358.640625 125.558594 1352.175781 126.226562 1345.957031 126.324219 C 1338.878906 126.441406 1331.8125 126.628906 1324.730469 126.671875 C 1310.140625 126.730469 1295.550781 126.527344 1280.960938 126.527344 C 1266.542969 126.527344 1252.121094 126.179688 1237.710938 126.46875 C 1230.730469 126.601562 1223.75 126.917969 1216.761719 126.949219 C 1209.921875 126.960938 1203.089844 127.410156 1196.25 127.410156 C 1194.980469 127.410156 1194.980469 125.445312 1196.25 125.445312 "/>
<path style=" stroke:none;fill-rule:nonzero;fill:rgb(0%,0%,0%);fill-opacity:1;" d="M 232.953125 116.886719 C 230.035156 116.421875 227.195312 117.058594 224.265625 117.074219 C 219.746094 117.089844 215.222656 117.003906 210.703125 116.914062 C 202.042969 116.769531 193.375 117.261719 184.714844 117.117188 C 167.042969 116.855469 149.375 116.902344 131.703125 117.058594 C 114.324219 117.207031 96.953125 117.421875 79.582031 118.003906 C 62.140625 118.582031 44.65625 119.308594 27.203125 119.132812 C 26.996094 119.132812 27 119.453125 27.203125 119.453125 C 43.859375 120.222656 60.476562 119.960938 77.140625 119.539062 C 94.484375 119.105469 111.835938 118.886719 129.183594 118.757812 C 146.855469 118.613281 164.523438 118.570312 182.183594 118.816406 C 190.875 118.945312 199.554688 118.757812 208.234375 118.785156 C 212.355469 118.800781 216.464844 118.929688 220.574219 118.960938 C 224.375 119.003906 228.683594 118.320312 232.40625 118.972656 C 233.773438 119.222656 234.324219 117.105469 232.953125 116.886719 M 1192.332031 116.886719 C 1195.253906 116.421875 1198.09375 117.058594 1201.023438 117.074219 C 1205.542969 117.089844 1210.0625 117.003906 1214.582031 116.914062 C 1223.242188 116.769531 1231.914062 117.261719 1240.574219 117.117188 C 1258.242188 116.855469 1275.914062 116.902344 1293.582031 117.058594 C 1310.964844 117.207031 1328.332031 117.421875 1345.703125 118.003906 C 1363.144531 118.582031 1380.632812 119.308594 1398.085938 119.132812 C 1398.289062 119.132812 1398.289062 119.453125 1398.085938 119.453125 C 1381.425781 120.222656 1364.8125 119.960938 1348.144531 119.539062 C 1330.800781 119.105469 1313.453125 118.886719 1296.101562 118.757812 C 1278.433594 118.613281 1260.761719 118.570312 1243.105469 118.816406 C 1234.414062 118.945312 1225.734375 118.757812 1217.054688 118.785156 C 1212.933594 118.800781 1208.824219 118.929688 1204.714844 118.960938 C 1200.914062 119.003906 1196.601562 118.320312 1192.882812 118.972656 C 1191.515625 119.222656 1190.960938 117.105469 1192.332031 116.886719 "/>
<g clip-path="url(#clip1)" clip-rule="nonzero">
<path style=" stroke:none;fill-rule:nonzero;fill:rgb(0%,0%,0%);fill-opacity:1;" d="M 239.332031 113.152344 C 238.417969 113.5 237.558594 114.039062 236.878906 114.707031 C 236.710938 114.882812 236.550781 115.054688 236.410156 115.230469 L 0 115.230469 L 0 111.46875 L 239.332031 111.46875 L 239.332031 113.152344 M 1185.957031 113.152344 C 1186.867188 113.5 1187.726562 114.039062 1188.40625 114.707031 C 1188.578125 114.882812 1188.738281 115.054688 1188.878906 115.230469 L 1425.289062 115.230469 L 1425.289062 111.46875 L 1185.957031 111.46875 L 1185.957031 113.152344 "/>
</g>
<g clip-path="url(#clip2)" clip-rule="nonzero">
<path style=" stroke:none;fill-rule:nonzero;fill:rgb(0%,0%,0%);fill-opacity:1;" d="M 236.878906 146.929688 L 0 146.796875 L 0 143.039062 L 235.558594 143.039062 M 1188.410156 146.929688 L 1425.289062 146.796875 L 1425.289062 143.039062 L 1189.730469 143.039062 "/>
</g>
<path style=" stroke:none;fill-rule:evenodd;fill:rgb(0%,0%,0%);fill-opacity:1;" d="M 262.347656 137.160156 C 261.390625 135.90625 261.816406 133.199219 261.636719 131.125 C 264.015625 119.53125 271.769531 113.015625 281.40625 108.292969 C 272.511719 115.503906 262.171875 121.351562 262.347656 137.160156 M 1162.941406 137.160156 C 1163.894531 135.90625 1163.472656 133.199219 1163.652344 131.125 C 1161.269531 119.53125 1153.515625 113.015625 1143.882812 108.292969 C 1152.773438 115.503906 1163.113281 121.351562 1162.941406 137.160156 "/>
<g clip-path="url(#clip3)" clip-rule="nonzero">
<path style=" stroke:none;fill-rule:nonzero;fill:rgb(0%,0%,0%);fill-opacity:1;" d="M 307.191406 144.132812 C 317.132812 146.449219 330.070312 141.019531 335.28125 136.136719 C 323.292969 135.992188 317.515625 144.0625 304.636719 143.230469 C 305.117188 144.246094 306.382812 143.945312 307.191406 144.132812 Z M 243.644531 108.808594 C 232.601562 115.015625 232.210938 142.84375 244.292969 149.277344 C 238.894531 134.816406 238.703125 121.734375 243.644531 108.808594 Z M 248.0625 150.703125 C 245.910156 136.113281 246.742188 116.050781 253.105469 105.851562 C 238.570312 109.171875 241.433594 143.113281 248.0625 150.703125 Z M 352.9375 125.363281 C 361.238281 131.433594 367.675781 139.671875 373.789062 148.304688 C 374.164062 148.328125 374.394531 149.398438 374.339844 148.261719 C 371.390625 142.390625 367.542969 137.375 363.484375 133.089844 C 358.84375 128.195312 354.046875 123.851562 348.664062 120.175781 C 343.136719 116.402344 336.59375 113.90625 329.566406 112.558594 C 327.023438 112.074219 324.105469 111.082031 322.089844 112.320312 C 335.089844 113.488281 343.328125 120.222656 352.9375 125.363281 Z M 275.007812 170.410156 C 263.296875 165.515625 254.628906 157.476562 249.804688 144.769531 C 253.898438 160.953125 265.457031 168.394531 279.613281 172.8125 C 278.28125 171.660156 276.59375 171.070312 275.007812 170.410156 Z M 643.382812 181.011719 C 650.332031 179.34375 659.828125 168.269531 651.375 163.261719 C 649.921875 163.214844 649.035156 163.644531 647.835938 163.816406 C 646.1875 165.074219 646.042969 168.660156 647.527344 170.460938 C 649.171875 170.417969 650.914062 169.105469 652.445312 169.808594 C 650.605469 174.886719 646.3125 177.878906 641.992188 180.84375 C 642.644531 180.679688 642.625 181.296875 643.382812 181.011719 Z M 637.5 186.992188 C 639.070312 186.988281 640.941406 186.871094 642.441406 186.609375 C 646.203125 185.9375 651.078125 184.285156 653.964844 182.113281 C 657.585938 179.386719 660.660156 174.152344 661.292969 169.941406 C 661.597656 167.890625 661.148438 165.972656 661.089844 163.878906 C 659.851562 160.140625 657.675781 157.492188 655.167969 155.230469 C 653.128906 154.519531 651.0625 153.839844 647.921875 154.417969 C 643 156.351562 639.117188 159.1875 640.003906 166.085938 C 641.6875 165.226562 641.941406 163.097656 643.246094 161.691406 C 644.019531 160.867188 644.925781 159.957031 646.117188 159.527344 C 654.523438 156.523438 660.300781 165.765625 657.074219 172.480469 C 652.714844 181.542969 640.972656 184.542969 627.699219 185.273438 C 630.609375 186.621094 634.214844 186.996094 637.5 186.992188 Z M 458.738281 150.476562 C 459.007812 150.460938 459.082031 150.675781 459.304688 150.714844 C 459.382812 150.914062 459.5625 151.007812 459.875 150.945312 C 467.519531 157.074219 474.742188 163.710938 481.589844 170.773438 C 487.277344 177.082031 493.417969 184.15625 498.367188 191 C 498.90625 191.742188 499.339844 193.628906 500.753906 193.296875 C 499.867188 191.542969 499.449219 189.226562 498.632812 187.386719 C 482.089844 164.007812 460.304688 146.742188 436.5625 131.78125 C 425.542969 123.082031 412.945312 116.621094 399.578125 110.933594 C 386.273438 105.269531 371.664062 100.292969 354.5 99.558594 C 355.164062 100.300781 356.515625 100.316406 357.339844 100.4375 C 373.910156 102.914062 388.011719 108.128906 401.464844 113.828125 C 414.628906 121.492188 428.53125 128.296875 439.570312 138.445312 C 457.496094 152.050781 474.300781 167.683594 488.261719 185.441406 C 491.828125 189.976562 495.3125 194.925781 498.484375 199.546875 C 499.671875 201.285156 500.5 203.066406 503.148438 202.773438 C 490.742188 182.542969 475.253906 165.902344 458.738281 150.476562 Z M 612.308594 186.207031 C 618.574219 189.144531 625.773438 192.308594 633.289062 193.125 C 635.101562 193.320312 637.097656 192.996094 639.074219 192.945312 C 649.972656 192.664062 656.300781 188.75 662.347656 183.386719 C 665.449219 178.183594 669.230469 173.828125 668.425781 165.789062 C 668.046875 162.070312 666.28125 157.023438 663.90625 153.992188 C 662.683594 152.425781 659.6875 149.636719 658.265625 148.914062 C 650.59375 145.03125 638.6875 149.652344 636.867188 157.769531 C 638.652344 156.9375 639.75 155.027344 641.527344 153.820312 C 646.816406 150.195312 653.746094 150.800781 658.394531 154.148438 C 660.820312 157.148438 663.53125 160.277344 664.199219 164.742188 C 665.1875 171.371094 661.339844 177.472656 658.3125 181.21875 C 652.882812 185.179688 647.125 189.257812 638.242188 189.421875 C 626.527344 189.632812 615.378906 185.324219 606.5 182.515625 C 607.546875 184.5 610.160156 185.195312 612.308594 186.207031 Z M 601.652344 187.59375 C 613.445312 193.550781 626.230469 201.464844 644.484375 198.59375 C 653.164062 197.230469 660.753906 193.769531 666.554688 187.753906 C 673.609375 180.433594 678.675781 168.464844 673.453125 156.003906 C 669.484375 149.097656 663.625 142.132812 653.585938 142.101562 C 650.003906 142.085938 645.496094 142.757812 644.132812 144.777344 C 651.058594 143.425781 657.339844 144.375 661.722656 147.261719 C 668.691406 151.855469 673.292969 163.699219 670.398438 173.367188 C 667.414062 183.328125 658.214844 192.714844 645.277344 194.664062 C 638.128906 195.746094 632.914062 195.167969 627.546875 193.851562 C 612.058594 190.035156 600.988281 182.664062 588.863281 175.894531 C 583.738281 173.046875 579.5625 169.285156 574.890625 166.769531 C 582.828125 174.855469 592.707031 180.675781 601.652344 187.59375 Z M 321.632812 215.625 C 324.226562 222.082031 329.578125 225.308594 336.832031 226.3125 C 346.496094 225.816406 352.652344 221.945312 357.59375 216.398438 C 362.222656 211.191406 366.921875 200.417969 362.601562 192.257812 C 363.105469 211.125 352.597656 224.097656 332.414062 222.789062 C 328.457031 220.824219 324.476562 218.894531 324.414062 212.375 C 325.109375 209.738281 327.917969 208.0625 330.996094 208.265625 C 327.074219 203.378906 319.25 208.296875 321.632812 215.625 Z M 327.078125 200.5625 C 323.464844 200.496094 320.964844 203.578125 318.914062 205.621094 C 311.988281 219.085938 326.140625 230.410156 340.0625 228.820312 C 349.058594 227.789062 354.914062 222.816406 359.324219 217.367188 C 358.894531 216.777344 359.953125 216.285156 359.238281 216.265625 C 354.589844 222.375 346.207031 227.746094 336.640625 227.433594 C 329.359375 227.1875 322.40625 222.644531 320.078125 216.855469 C 317.375 210.167969 321.867188 202.894531 328.738281 204.023438 C 330.066406 204.859375 331.800781 205.226562 332.28125 207.066406 C 332.75 206.980469 333.484375 208.53125 333.402344 207.253906 C 332.535156 203.613281 330.484375 200.632812 327.078125 200.5625 Z M 531.523438 142.011719 C 535.035156 144.699219 538.894531 147.1875 542.367188 149.996094 C 563.640625 167.15625 580.960938 185.84375 604.878906 200.597656 C 612.164062 205.09375 619.796875 209.78125 629.324219 213.035156 C 633.582031 214.492188 638.636719 215.949219 643.710938 216.878906 C 648.347656 217.738281 655.765625 218.488281 660.878906 217.46875 C 670.9375 215.453125 680.574219 214.75 687.617188 209.851562 C 686.335938 209.546875 685.195312 209.089844 684.195312 208.457031 C 676.808594 212.726562 665.597656 215.363281 654.644531 215.476562 C 653.304688 215.484375 651.3125 215.558594 650.167969 214.714844 C 662.589844 214.234375 673.003906 212.042969 680.816406 207.621094 C 678.585938 206.835938 675.714844 206.792969 672.5 207.167969 C 669.71875 208.453125 665.925781 209.972656 661.730469 210.773438 C 657.625 211.558594 652.660156 212.367188 649.296875 210.648438 C 669.292969 209.742188 681.828125 200.664062 687.453125 186.667969 C 685.292969 188.570312 682.65625 192.289062 680.375 194.953125 C 677.019531 197.292969 674.53125 200.375 670.140625 201.828125 C 679.957031 194.445312 688.988281 183.140625 688.949219 166.941406 C 688.925781 159.140625 686.734375 154.070312 683.769531 150.230469 C 683.070312 149.316406 682.554688 147.621094 681.089844 147.675781 C 683.390625 152.019531 685.960938 158.882812 686.074219 165.515625 C 686.371094 182.726562 674.449219 195.472656 660.34375 200.113281 C 664.273438 197.671875 668.105469 195.132812 671.609375 192.328125 C 674.578125 188.808594 677.359375 185.121094 679.847656 181.1875 C 681.378906 176.367188 683.152344 172.582031 683.140625 166.84375 C 683.101562 151.238281 672.832031 141.09375 661.035156 138.480469 C 662.9375 140.046875 665.125 141.285156 667.167969 142.695312 C 668.648438 144.160156 670.1875 145.554688 671.640625 147.035156 C 674.066406 150.796875 676.765625 153.875 677.808594 158.699219 C 680.613281 171.667969 674.382812 182.292969 668.601562 189.246094 C 661.1875 195.640625 652.652344 201.105469 638.894531 201.242188 C 634.234375 201.292969 628.46875 200.375 624.390625 199.339844 C 611.296875 196.03125 599.664062 188.195312 590.175781 182.140625 C 583.28125 177.523438 576.734375 172.503906 570.75 166.820312 C 563.828125 162.140625 558.390625 155.71875 551.050781 151.527344 C 563.828125 163.960938 576.953125 176.1875 591.117188 187.039062 C 605.183594 197.824219 621.28125 207.507812 643.847656 208.035156 C 633.09375 209.417969 624.164062 206.105469 616.390625 203.003906 C 608.164062 200.054688 601.253906 195.542969 594.203125 191.214844 C 569.765625 173.144531 547.816406 150.738281 522.578125 133.601562 C 517.484375 130.136719 512.808594 125.910156 507.640625 122.613281 C 505.042969 120.96875 502.425781 119.382812 499.796875 117.710938 C 497.226562 116.078125 494.816406 114.136719 492.214844 112.503906 C 488.183594 109.988281 483.578125 108.160156 479.554688 106.046875 C 478.476562 105.476562 477.109375 103.636719 475.578125 104.695312 C 494.875 115.390625 514.066406 128.632812 531.523438 142.011719 Z M 621 237.160156 C 613.398438 229.890625 605.617188 222.695312 598.3125 215.472656 C 595.816406 213 593.308594 210.28125 591.585938 207.164062 C 598.921875 214.660156 606.84375 221.46875 614.527344 228.554688 C 615.527344 229.191406 616.410156 229.945312 617.1875 230.832031 C 617.785156 231.097656 617.796875 231.085938 617.441406 230.535156 C 612.902344 223.546875 608.019531 216.855469 602.167969 211.855469 C 600.171875 210.140625 597.585938 208.972656 596.234375 206.519531 C 598.828125 207.777344 601.15625 209.351562 603.730469 210.625 C 606.476562 213.40625 609.507812 215.851562 611.851562 219.101562 C 622.355469 225.785156 632.386719 233.027344 646.292969 235.734375 C 649.542969 235.234375 652.453125 236.714844 655.394531 235.570312 C 650.550781 235.1875 645.832031 233.828125 641.347656 232.53125 C 636.933594 231.25 632.398438 229.96875 629.621094 227.371094 C 640.738281 230.335938 650.5625 235.753906 665.691406 233.105469 C 667.074219 232.324219 669.171875 232.148438 670.234375 231.09375 C 661.359375 231.683594 652.914062 231.78125 646.371094 229.648438 C 645.367188 229.585938 643.484375 229.417969 644.0625 228.449219 C 650.539062 229.796875 660.867188 230.183594 669.234375 228.964844 C 673.324219 228.367188 677.316406 227.367188 679.402344 224.851562 C 668.25 228.433594 654.558594 227.316406 644.921875 225.34375 C 642.707031 224.890625 640.507812 224.222656 639.515625 223.289062 C 644.558594 223.683594 651.007812 225.636719 657.660156 225.726562 C 665.011719 225.824219 672.78125 224.5625 678.386719 222.449219 C 682.566406 220.871094 686.390625 220.414062 686.804688 217.089844 C 680.164062 220.808594 666.410156 224.261719 656.644531 223.324219 C 655.824219 223.246094 654.519531 223.152344 654.085938 222.417969 C 666.300781 222.652344 676.882812 219.261719 685.027344 215.578125 C 686.828125 214.757812 689.644531 214.0625 689.710938 211.894531 C 681.453125 216.476562 671.320312 219.371094 658.554688 219.582031 C 645.5 219.796875 632.753906 216.054688 622.019531 211.402344 C 605.71875 204.339844 592.09375 194.785156 579.324219 184.652344 C 566.214844 174.238281 554.851562 161.359375 541.675781 151.703125 C 524.324219 137.945312 506.480469 124.769531 487.039062 113.464844 C 470.539062 102.910156 451.929688 94.820312 433.300781 86.75 C 431.6875 86.550781 430.40625 85.941406 429.058594 85.425781 C 427.652344 85.496094 425.933594 83.34375 424.875 84.929688 C 457.492188 97.316406 485.679688 114.714844 511.855469 134.164062 C 529.472656 147.25 545.457031 162.660156 559.324219 179.589844 C 580.53125 205.476562 599.003906 233.566406 626.34375 252.488281 C 625.777344 248.605469 622.003906 246.726562 619.636719 244.449219 C 611.890625 237.003906 604.507812 229.933594 597.441406 221.890625 C 588.550781 210.808594 579.089844 200.402344 570.550781 188.929688 C 587.882812 207.097656 602.351562 228.621094 623.101562 242.800781 C 623.109375 242.949219 623.34375 243.097656 623.375 242.777344 C 622.503906 240.996094 621.753906 239.078125 621 237.160156 Z M 349.867188 177.789062 C 354.925781 179.867188 359.453125 182.5625 364.492188 184.648438 C 362.027344 182.3125 359.164062 180.027344 355.972656 178.140625 C 352.816406 176.277344 348.90625 175.105469 346.464844 173.085938 C 349.679688 173.820312 352.167969 175.402344 355.273438 176.269531 C 357.375 177.894531 360.019531 178.898438 361.972656 180.710938 C 364.761719 181.542969 365.128906 185.210938 369.429688 184.265625 C 368.578125 182.261719 365.53125 180.242188 363.214844 178.957031 C 361.070312 176.96875 358.589844 175.378906 355.667969 174.296875 C 350.785156 171.027344 344.230469 169.707031 338.558594 167.355469 C 349.914062 169.25 359.097656 173.683594 367.375 179.183594 C 368.21875 180.289062 369.519531 180.871094 370.355469 181.980469 C 371.554688 182.472656 372.144531 184.617188 374.058594 183.351562 C 374.242188 182.441406 373.109375 181.859375 372.507812 181.265625 C 370.429688 179.195312 367.964844 177.246094 365.472656 176.019531 C 362.488281 173.511719 358.738281 171.90625 355.074219 170.207031 C 347.476562 167.011719 338.105469 165.886719 329.453125 163.929688 C 346.402344 165.167969 360.839844 169.34375 371.171875 178.328125 C 372.066406 178.304688 372.746094 179.394531 373.519531 180.082031 C 374.136719 180.613281 375.191406 182.316406 375.546875 181.300781 C 375.152344 178.816406 372.765625 177.125 370.960938 175.589844 C 364.957031 170.457031 357.058594 167.625 349.402344 164.851562 C 359.460938 166.363281 367.382812 170.390625 374.019531 175.898438 C 374.15625 176.207031 374.984375 177.652344 374.886719 176.386719 C 374.550781 174.6875 373.441406 173.195312 372.351562 172.164062 C 367.152344 167.265625 359.652344 165.191406 352.296875 162.96875 C 360.492188 162.96875 366.988281 166.546875 371.859375 169.441406 C 370.953125 168.5 370.136719 167.460938 369.398438 166.320312 C 363.875 162.898438 357.953125 159.949219 349.3125 160.160156 C 348.726562 159.355469 346.128906 160.898438 345.957031 159.597656 C 352.714844 158.222656 359.351562 160 363.757812 161.242188 C 360.160156 158.964844 355.75 156.675781 350.453125 157.03125 C 346.972656 157.269531 343.640625 159.960938 339.832031 158.972656 C 343.949219 157.839844 347.953125 155.523438 350.71875 153.429688 C 351.605469 152.757812 353.417969 152.160156 353 150.765625 C 347.828125 153.511719 342.082031 157.136719 334.726562 157.164062 C 342.546875 155.507812 348.578125 151.832031 353.605469 147.957031 C 355.226562 146.699219 357.5625 145.46875 357.925781 143.195312 C 357.019531 142.1875 356.085938 143.710938 355.242188 144.234375 C 354.023438 144.726562 352.96875 145.363281 352.082031 146.140625 C 345.761719 149.359375 339.140625 153.683594 330.621094 154.171875 C 339.398438 151.824219 347.421875 147.609375 352.925781 142.757812 C 353.574219 142.1875 354.832031 141.398438 354.671875 140.414062 C 353.066406 138.921875 351.96875 140.464844 350.867188 141.261719 C 346.992188 144.074219 343.578125 146.300781 338.722656 148.285156 C 332.703125 150.753906 325.570312 153.1875 318.167969 153.769531 C 302.75 154.980469 288.59375 149.171875 282.542969 139.71875 C 285.273438 142.121094 287.972656 144.550781 290.832031 146.796875 C 298.8125 151.171875 310.890625 154.324219 322.996094 152.007812 C 332.609375 150.167969 341.796875 145.789062 347.511719 140.699219 C 348.097656 140.171875 350.136719 138.496094 348.96875 138.097656 C 346.929688 136.421875 345.449219 138.871094 344.132812 139.863281 C 337.375 144.945312 328.234375 149.019531 316.738281 149.742188 C 310.679688 150.121094 300.765625 148.730469 296.066406 146.664062 C 290.371094 144.164062 285.117188 140.441406 283.171875 133.597656 C 282.007812 129.527344 282.925781 125.78125 284.484375 122.167969 C 289.675781 114.675781 298.550781 107.75 311.738281 107.054688 C 313.125 106.972656 315.121094 106.535156 316.214844 107.808594 C 307.746094 106.96875 297.542969 110.941406 292.46875 114.917969 C 289.4375 117.296875 285.09375 122.652344 284.253906 126.332031 C 283.476562 129.75 284.664062 135.171875 286.238281 137.496094 C 296.367188 152.53125 332.785156 152.097656 343.328125 136.605469 C 340.589844 135.546875 339.0625 137.300781 337.394531 138.457031 C 335.566406 139.71875 333.738281 140.828125 331.871094 141.921875 C 322.484375 146.34375 306.109375 147.375 298.492188 142.332031 C 293.984375 142.171875 290.527344 139.34375 288.574219 135.652344 C 287.226562 133.109375 286.148438 128.757812 287.207031 125.269531 C 288.34375 121.550781 292.109375 118.09375 296.128906 115.730469 C 301.421875 112.617188 308.050781 110.46875 315.582031 110.34375 C 334.328125 110.039062 349.445312 117.800781 359.105469 126.535156 C 369.816406 136.46875 379.449219 147.675781 383.671875 165.203125 C 385.257812 167.34375 386.515625 169.863281 388.332031 171.734375 C 385.53125 155.402344 378.382812 143.171875 370.152344 133.675781 C 367.351562 130.429688 363.691406 127.925781 361.15625 124.441406 C 375.71875 136.257812 387.425781 151.425781 391.652344 175.347656 C 392.121094 176.394531 393.109375 176.835938 393.761719 177.664062 C 394.050781 178.125 394.445312 178.46875 394.953125 178.675781 C 395.082031 178.984375 395.914062 180.429688 395.8125 179.164062 C 394.632812 164.667969 389.03125 155.332031 383.546875 145.878906 C 387.449219 150.253906 390.96875 155.6875 393.617188 161.65625 C 396.285156 167.679688 398.949219 174.621094 399.117188 182.492188 C 399.769531 182.824219 400.257812 183.355469 400.871094 183.738281 C 401.414062 183.65625 402.289062 185.5 402.289062 184.171875 C 399.449219 161.226562 389.949219 146.070312 378.164062 133.597656 C 366.007812 121.554688 351.195312 112.617188 332.796875 107.886719 C 342.550781 109.390625 351.472656 112.921875 359.214844 117.414062 C 366.925781 121.875 374.199219 127.1875 380.078125 133.449219 C 391.988281 146.117188 401.734375 163.253906 405.390625 185.039062 C 406.1875 184.855469 407.519531 182.933594 407.871094 181.527344 C 406.636719 170.492188 403.152344 162.09375 399.367188 154.035156 C 404.558594 160.242188 407.300781 169.3125 410.109375 178.3125 C 411.875 176.035156 411.101562 173.390625 410.347656 170.839844 C 408.167969 163.394531 405.09375 155.859375 401.832031 150.242188 C 407.007812 155.480469 409.914062 163.363281 412.863281 171.195312 C 413.96875 162.738281 408.878906 156.816406 406.035156 151.015625 C 407.558594 152.035156 408.640625 153.539062 409.679688 155.152344 C 410.6875 156.726562 411.410156 158.683594 412.808594 159.878906 C 412.007812 155.238281 410.625 152.101562 408.101562 149.203125 C 404.5 145.054688 397.996094 142.820312 400.394531 135.445312 C 403.542969 135.148438 405.261719 138.4375 406.886719 140.734375 C 411.867188 147.789062 417.085938 155.871094 418.558594 166.328125 C 419.53125 173.203125 419.574219 181.054688 422.136719 187.308594 C 423.359375 171.421875 419.808594 154.15625 412.445312 144.722656 C 410.792969 142.109375 408.648438 139.371094 406.632812 137.4375 C 405.992188 136.828125 404.542969 136.492188 404.8125 135.378906 C 410.683594 139.972656 414.851562 145.777344 418.324219 152.820312 C 422.945312 162.160156 425.496094 173.425781 425.871094 185.640625 C 426.050781 191.535156 426.28125 200.230469 429.167969 203.054688 C 428.519531 192.152344 428.964844 181.175781 427.203125 170.894531 C 425.503906 161.019531 421.0625 153.011719 417.265625 146.273438 C 421.832031 152.601562 425.738281 159.871094 428.140625 168.894531 C 430.605469 178.105469 431.191406 188.46875 432.710938 198.910156 C 433.316406 203.101562 432.964844 209.785156 436.132812 210.785156 C 434.539062 203.242188 435.222656 195.144531 434.933594 188.519531 C 434.640625 181.746094 433.140625 175.082031 431.527344 169.726562 C 430.667969 166.886719 429.503906 164.371094 428.964844 161.648438 C 435.597656 173.042969 436.234375 192.617188 438.699219 208.382812 C 439.03125 210.5 439.390625 213.6875 441.648438 214.222656 C 439.636719 204.363281 441.023438 192.484375 438.953125 183.507812 C 438.527344 181.652344 437.160156 180.257812 437.726562 178.359375 C 441.699219 187.058594 442.027344 201.679688 444.238281 212.089844 C 444.507812 213.359375 444.089844 215.746094 445.933594 216.09375 C 445.355469 211.140625 445.746094 205.84375 445.566406 200.941406 C 445.488281 198.617188 444.765625 195.691406 445.351562 194.609375 C 447 201.167969 448.1875 208.269531 449.457031 215.273438 C 449.539062 216.472656 449.398438 217.933594 450.75 217.648438 C 451.449219 218.40625 451.234375 216.207031 451.125 215.414062 C 450.390625 202.058594 448.601562 190.089844 444.550781 180.863281 C 443.210938 177.808594 441.367188 175.015625 440.542969 172.066406 C 447.605469 182.914062 452.605469 198.375 454.652344 214.585938 C 454.863281 216.257812 454.183594 219.429688 456.667969 219.121094 C 457.785156 219.144531 456.832031 217.390625 457.019531 216.609375 C 457.59375 212.152344 455.910156 206.386719 455.921875 202.609375 C 457.601562 207.035156 458.539062 212.335938 459.578125 217.515625 C 459.851562 218.1875 459.230469 219.914062 460.292969 219.664062 C 460.902344 220.054688 462.132812 219.71875 462.808594 220.023438 C 461.769531 210.148438 459.503906 201.714844 456.882812 193.703125 C 459.085938 197.183594 460.5 201.480469 461.96875 205.726562 C 463.503906 210.199219 464.382812 215.023438 465.296875 220.101562 C 466.410156 220.203125 467.21875 220.652344 468.640625 220.394531 C 465.84375 204.988281 460.53125 192.523438 453.988281 181.503906 C 456.46875 183.785156 458.148438 186.964844 459.886719 189.878906 C 465.273438 198.875 469.828125 208.871094 472.546875 220.914062 C 472.710938 222.222656 474.203125 221.964844 474.636719 222.957031 C 475.304688 223.117188 476.414062 225.488281 476.664062 224.183594 C 471.332031 198.625 458.90625 179.433594 445.625 162.828125 C 433.96875 148.261719 418.632812 136.394531 402.796875 127.25 C 400.636719 126.007812 397.964844 125.191406 396.132812 123.355469 C 417.699219 132.773438 434.210938 148.113281 449.386719 165.019531 C 464.734375 183.410156 477.902344 204.359375 482.257812 235.617188 C 482.683594 233.757812 484.050781 232.710938 484.359375 230.757812 C 481.230469 208.65625 472.378906 193.242188 463.128906 178.296875 C 471.96875 188.378906 479.515625 200.921875 484.761719 214.710938 C 485.539062 216.765625 485.996094 218.941406 487.175781 220.871094 C 487.878906 213.003906 485.238281 206.878906 482.011719 200.84375 C 479.746094 196.59375 477.359375 192.4375 475.007812 188.960938 C 469.613281 181.011719 464.554688 173.886719 458.972656 167.574219 C 446.96875 154.023438 433.972656 142.253906 420.074219 132.796875 C 406.195312 123.660156 390.691406 114.535156 371.554688 109.261719 C 357.960938 105.519531 342.921875 102.105469 325.746094 102.640625 C 305.585938 103.265625 289.976562 109.085938 282.382812 120.125 C 280.027344 121.949219 279.359375 126.578125 277.777344 128.21875 C 277.785156 126.769531 278.289062 125.753906 278.296875 124.3125 C 283.832031 112.429688 295.011719 106.390625 308.84375 101.757812 C 313.917969 100.050781 320.152344 98.890625 326.230469 98.179688 C 332.5625 97.449219 339.324219 97.019531 345.488281 97.222656 C 381.402344 98.445312 408.234375 110.945312 431.167969 126.402344 C 438.992188 131.683594 447.023438 136.832031 454.5 142.25 C 469.949219 153.445312 484.433594 165.769531 496.109375 179.855469 C 495.628906 177.121094 494.394531 175.273438 493.632812 172.867188 C 482.476562 160.351562 469.695312 149.730469 456 140.199219 C 455.121094 139.820312 453.296875 138.984375 453.628906 138.171875 C 466.804688 145.128906 477.71875 154.726562 488.804688 164.132812 C 479.96875 151.804688 462.496094 131.480469 448.050781 125.714844 C 445.742188 123.136719 441.15625 120.996094 432.914062 116.8125 C 434.265625 114.058594 453.292969 126.925781 455.285156 127.550781 C 457.425781 128.226562 459.648438 129.789062 461.898438 130.902344 C 468.621094 134.21875 477.980469 134.316406 483.71875 137.929688 C 492.628906 146 495.480469 158.914062 502.507812 169.179688 C 504.871094 172.640625 509.054688 178.410156 511.1875 181.988281 C 513.410156 185.707031 515.132812 189.640625 517.328125 193.378906 C 524.128906 204.960938 530.578125 215.082031 541.125 222.164062 C 549.648438 228.960938 558.710938 235.144531 569.273438 239.566406 C 571.929688 233.367188 570.429688 225.007812 568.675781 217.792969 C 565.792969 205.957031 560.210938 196.535156 554.527344 188.804688 C 557.039062 190.21875 558.808594 192.8125 560.53125 194.960938 C 562.386719 197.292969 564.125 199.84375 565.546875 202.578125 C 568.503906 208.242188 570.550781 214.792969 573.554688 220.171875 C 575.949219 224.480469 579.894531 227.640625 583.234375 231.019531 C 586.695312 234.496094 590.042969 238.132812 594.1875 240.371094 C 583.996094 228.128906 574.234375 215.378906 566.222656 200.589844 C 572.941406 209.105469 578.839844 218.578125 586.191406 226.363281 C 589.738281 230.382812 592.886719 234.863281 596.554688 238.804688 C 600.121094 242.648438 604.199219 246.40625 608.9375 248.882812 C 601.832031 240.910156 594.78125 232.886719 588.742188 223.671875 C 591.75 225.453125 593.054688 229.21875 595.949219 231.117188 C 602.617188 239.402344 610.386719 246.382812 618.640625 252.8125 C 620.148438 253.144531 621.714844 253.410156 622.882812 254.136719 C 624.085938 254.003906 622.464844 253.257812 622.546875 253.332031 C 619.890625 250.652344 615.972656 248.59375 613.941406 245.722656 C 606.3125 238.667969 599.519531 230.691406 592.8125 222.800781 C 586.007812 214.816406 579.242188 206.71875 572.949219 198.410156 C 560.242188 181.585938 546.863281 165.652344 530.929688 151.992188 C 527.023438 148.648438 523.3125 145.050781 519.363281 141.859375 C 515.347656 138.609375 510.972656 135.710938 506.769531 132.625 C 498.355469 126.460938 489.941406 120.457031 481.066406 114.761719 C 463.558594 103.535156 444.148438 94.78125 423.609375 86.410156 C 411.023438 81.898438 397.570312 77.214844 382.609375 74.152344 C 375.410156 72.683594 367.46875 71.367188 359.441406 71.007812 C 351.296875 70.632812 342.8125 69.886719 334.261719 70.214844 C 325.476562 70.554688 316.984375 72.382812 309.175781 74.394531 C 285.902344 80.398438 267.3125 90.851562 257.09375 107.476562 C 263.085938 100.488281 270.128906 94.574219 278.351562 89.789062 C 283.339844 86.890625 288.914062 83.839844 294.578125 81.886719 C 321.195312 72.730469 351.199219 72.371094 377.273438 76.503906 C 383.441406 77.484375 389.5625 79.050781 395.546875 80.597656 C 401.609375 82.167969 407.613281 83.769531 413.328125 85.554688 C 418.898438 87.296875 424.277344 89.875 429.574219 92.015625 C 446.261719 98.753906 460.878906 106.601562 475.070312 115.785156 C 489.085938 124.851562 503.054688 134.667969 515.230469 145.5 C 519.417969 149.226562 523.261719 153.226562 527.203125 157.257812 C 531.046875 161.195312 535.128906 165.042969 538.644531 169.339844 C 542.253906 173.769531 546.242188 178.136719 548.582031 183.472656 C 532.449219 162.597656 514.164062 144.246094 492.46875 129.882812 C 484.960938 124.042969 476.480469 119.03125 468.011719 113.851562 C 463.90625 111.335938 459.34375 109.257812 455.035156 106.863281 C 442.058594 99.628906 428.410156 93.050781 413.546875 88.300781 C 403.523438 85.101562 393.378906 81.648438 382.746094 79.390625 C 371.871094 77.085938 360.347656 75.433594 348.179688 75.199219 C 335.382812 74.957031 322.941406 76.648438 310.410156 79.546875 C 287.179688 84.90625 269.179688 95.816406 257.355469 110.769531 C 253.242188 118.105469 249.375 125.628906 250.273438 136.726562 C 250.996094 145.699219 255.441406 152.710938 259.640625 157.527344 C 261.46875 159.617188 263.484375 161.746094 265.332031 163.15625 C 278.871094 173.527344 300.519531 174.835938 318.664062 177.753906 C 317.691406 176.535156 316.007812 176.339844 314.644531 175.863281 C 307.035156 173.191406 297.355469 172.921875 289.179688 171.503906 C 273.15625 168.730469 259.507812 158.523438 254.679688 143.558594 C 251.71875 134.40625 253.546875 125.089844 256.269531 118.03125 C 257.667969 116.242188 258.945312 114.34375 259.949219 112.21875 C 272.703125 96.960938 292.417969 86.773438 315.796875 81.324219 C 323.984375 79.425781 332.765625 79.039062 342.375 78.695312 C 364.792969 77.878906 383.414062 81.472656 401.292969 87.050781 C 417.675781 92.160156 432.871094 97.945312 447.164062 104.996094 C 476.304688 119.378906 501.597656 137.78125 522.933594 159.25 C 530.070312 166.902344 536.597656 174.917969 543.046875 183.355469 C 546.21875 187.496094 549.035156 192.003906 552.089844 196.453125 C 555.15625 200.917969 558.332031 205.609375 560.132812 211.007812 C 552.3125 198.15625 543.847656 185.824219 534.082031 174.667969 C 524.492188 163.703125 514.402344 153.03125 503.210938 143.679688 C 486.523438 129.714844 467.875 117.695312 447.949219 107.964844 C 441.089844 104.617188 434.433594 101.292969 427.328125 98.542969 C 399.335938 87.699219 367.605469 77.507812 327.453125 82.070312 C 308.546875 84.226562 292.085938 90.125 279 98.019531 C 272.742188 101.796875 266.683594 106.589844 262.171875 112.324219 C 256.925781 118.984375 253.0625 127.949219 254.878906 139.125 C 256.292969 147.773438 261.179688 154.066406 266.359375 158.65625 C 272.167969 163.816406 277.613281 167.058594 285.695312 169.292969 C 297.523438 172.5625 312.058594 171.722656 321.640625 176.96875 C 324.902344 178.753906 327.441406 181.261719 330.933594 182.863281 C 332.527344 184.777344 334.480469 186.242188 335.800781 188.558594 C 336.582031 189.921875 336.765625 191.671875 338.070312 192.800781 C 337.9375 188.980469 336.664062 185.796875 334.84375 183.390625 C 333.160156 181.15625 330.574219 178.855469 328.5625 177.253906 C 325.480469 174.800781 321.65625 173.300781 318.164062 171.449219 C 306.921875 167.625 292.21875 168.917969 281.738281 164.632812 C 278.183594 163.179688 275.175781 161.160156 271.957031 159.601562 C 265.289062 154.609375 260.246094 147.734375 257.566406 138.085938 C 256.375 116.070312 270.722656 107.335938 284.824219 98.394531 C 298.507812 90.664062 315.566406 85.949219 335.328125 83.945312 C 345.800781 82.878906 356.71875 83.707031 366.878906 84.78125 C 376.683594 85.820312 386.460938 87.96875 394.921875 90.3125 C 413.042969 95.320312 429.21875 102.148438 444.445312 109.070312 C 452.472656 112.726562 460.351562 116.183594 467.4375 120.523438 C 489.042969 133.777344 508.546875 149.707031 525.039062 168.472656 C 539.394531 185.835938 553.839844 203.085938 562.503906 227.113281 C 557.898438 221.617188 540.410156 199.261719 536.527344 196.296875 C 543.296875 207.144531 542.886719 212.433594 542.796875 214.914062 C 540.0625 210.109375 527.871094 196.984375 518.609375 187.636719 C 456.425781 124.890625 365.304688 55.121094 284.152344 100.378906 C 273.753906 106.265625 261.9375 115.648438 259.234375 127.738281 C 257.476562 135.625 259.996094 143.019531 263.34375 148.402344 C 269.382812 158.101562 279.058594 163.71875 291.195312 165.550781 C 295.234375 166.785156 299.613281 166.722656 303.761719 167.320312 C 307.921875 167.925781 311.84375 168.59375 315.824219 169.691406 C 323.195312 171.730469 330.085938 175.925781 334.652344 180.917969 C 335.980469 182.375 337.484375 184.257812 338.378906 186.148438 C 340.992188 191.746094 340.0625 198.183594 338.296875 202.722656 C 337.617188 204.457031 336.597656 205.902344 336.460938 207.5625 C 340.960938 204.621094 343.148438 198.179688 342.4375 192.183594 C 341.953125 188.144531 339.515625 183.835938 336.824219 180.476562 C 332.816406 175.460938 328.628906 171.992188 323.804688 169.34375 C 321.328125 168.246094 318.222656 167.875 316.363281 166.058594 C 323.898438 167.503906 330.246094 171.167969 335.089844 175.910156 C 339.9375 180.671875 343.980469 187.332031 344.21875 197.289062 C 343.390625 202.828125 341.273438 209.070312 336.152344 210.625 C 334.65625 211.078125 333.421875 210.351562 332.0625 211.21875 C 333.285156 215.578125 339.269531 212.226562 341.410156 210.761719 C 346.894531 205.386719 349.019531 194.453125 345.007812 186.183594 C 343.164062 182.386719 339.855469 179.558594 338.992188 176.441406 C 342.953125 180.214844 346.992188 185.417969 348.246094 192.28125 C 350.007812 201.96875 345.429688 211.234375 337.847656 214.628906 C 336.269531 214.78125 334.683594 214.941406 333.433594 214.703125 C 332.726562 214.140625 331.886719 213.71875 331.359375 212.9375 C 330.289062 212.796875 331.257812 210.257812 330.046875 210.273438 C 327.539062 210.511719 326.296875 211.859375 326.175781 213.613281 C 325.855469 217.96875 331.125 220.675781 333.996094 221.839844 C 334.40625 221.957031 335.390625 221.40625 335.386719 222.003906 C 350.902344 221.3125 359.109375 211.371094 360.332031 198.507812 C 360.820312 193.378906 359.777344 188.308594 357.648438 185.464844 C 355.492188 184.59375 351.957031 183.738281 351.058594 182.394531 C 353.917969 182.941406 357.292969 184.488281 360.035156 184.171875 C 356.6875 182.195312 351.976562 180.226562 349.867188 177.789062 Z M 573.09375 224.90625 C 574.136719 233.046875 573.164062 239.46875 570.777344 244.691406 C 565.109375 242.105469 560.085938 238.402344 554.871094 235.445312 C 544.292969 229.460938 534.765625 222.367188 526.625 213.359375 C 518.628906 204.503906 513.34375 192.203125 506.710938 181.234375 C 497.203125 165.515625 485.265625 151.222656 473.09375 139.828125 C 480.191406 146.207031 483.179688 152.679688 488.089844 158.503906 C 491.203125 163.765625 497.066406 172.296875 499.082031 179.070312 C 500.152344 182.644531 500.777344 186.277344 502.125 189.59375 C 503.421875 192.828125 504.796875 196.039062 506.167969 198.945312 C 507.082031 200.894531 508.792969 202.140625 509.066406 204.246094 C 501.5625 205.421875 494.570312 203.707031 488.984375 201.675781 C 494.078125 216.324219 490.773438 232.582031 482.710938 241.382812 C 480.914062 243.339844 478.523438 245.40625 475.921875 246.328125 C 478.792969 239.203125 476.613281 226.929688 470.328125 224.402344 C 463.433594 222.886719 456.425781 221.496094 449.546875 219.957031 C 439.960938 216.285156 431.789062 212.164062 426.195312 203.84375 C 420.761719 195.75 417.539062 185.335938 415.992188 172.335938 C 413.460938 178.953125 410.597656 185.308594 405.777344 189.976562 C 402.0625 189.050781 399.136719 186.53125 396.222656 184.375 C 387.414062 177.839844 381.929688 167.890625 376.171875 157.503906 C 372.511719 150.902344 367.730469 144.820312 362.628906 139.789062 C 357.484375 134.71875 352.492188 129.15625 345.824219 126.191406 C 342.210938 123.933594 337.210938 121.957031 331.8125 120.113281 C 326.964844 118.453125 321.277344 116.964844 316.058594 116.375 C 304.871094 115.117188 293.429688 118.535156 290.925781 126.910156 C 290.917969 130.316406 291.847656 132.628906 293.175781 134.46875 C 294.125 135.757812 295.765625 136.238281 296.984375 137.207031 C 306.5 139.261719 315.277344 132.84375 324.972656 131.421875 C 332.847656 130.265625 339.625 131.046875 345.515625 132.847656 C 352.128906 134.863281 358.253906 138.546875 362.128906 143.96875 C 360.691406 148.378906 357.117188 150.945312 354.082031 153.988281 C 369.476562 156.25 377.007812 167.714844 380.449219 183.953125 C 376.886719 186.527344 369.597656 186.890625 364.960938 187.101562 C 371.636719 201.179688 365.785156 216.777344 357.644531 224.125 C 356.03125 225.585938 353.226562 227.460938 350.554688 228.824219 C 346.433594 230.933594 341.96875 232.660156 335.65625 232.480469 C 332.109375 232.375 329.933594 230.765625 326.363281 230.171875 C 322.28125 227.652344 318.714844 224.542969 315.683594 220.789062 C 310.792969 210.792969 315.433594 197.976562 325.746094 197.636719 C 329.75 197.5 332.125 199.132812 334.347656 201.652344 C 336.59375 193.382812 331.058594 187.101562 326.84375 183.460938 C 315.660156 177.785156 301.035156 179.152344 287.6875 177.144531 C 275.921875 175.375 266.453125 170.441406 258.253906 164.542969 C 255.597656 161.261719 252.371094 158.644531 250.050781 154.964844 C 223.832031 154.320312 219.992188 100.222656 255.589844 102.339844 C 267.234375 87.027344 285.066406 76.433594 308.054688 70.617188 C 320.28125 67.519531 333.433594 66.332031 346.394531 66.503906 C 371.484375 66.828125 393.761719 70.644531 414.28125 76.644531 C 424.488281 79.621094 433.9375 83.191406 443.546875 87.046875 C 462.75 94.773438 481.402344 102.484375 498.039062 112.878906 C 503.328125 115.394531 508.0625 118.980469 513.125 122.1875 C 518.066406 125.3125 523.332031 128.085938 528.21875 131.496094 C 530.605469 133.171875 532.789062 135.132812 535.25 136.746094 C 537.714844 138.359375 540.285156 139.796875 542.800781 141.402344 C 547.707031 144.523438 552.273438 148.078125 557.367188 151.03125 C 567.460938 156.898438 576.695312 163.902344 587.773438 169.082031 C 598.757812 174.210938 610.527344 178.890625 624.503906 179.726562 C 632.863281 180.230469 639.832031 178.394531 645.128906 175.074219 C 643.714844 174.230469 641.671875 174.125 640.035156 173.542969 C 634.335938 169.441406 629.328125 160.988281 632 152.074219 C 632.664062 149.875 634.253906 147.085938 635.601562 145.167969 C 640.894531 137.671875 651.3125 132.769531 663.433594 133.875 C 668.351562 134.984375 672.558594 136.605469 676.554688 139.195312 C 685.128906 144.75 691.953125 153.375 693.425781 167.695312 C 694.441406 177.613281 691.480469 186.277344 687.722656 193.550781 C 684.640625 197.234375 681.832031 201.152344 677.769531 203.996094 C 683.324219 205.28125 689.335938 206.042969 693.105469 209.421875 C 692.144531 214.160156 689.144531 218.253906 685.816406 222.140625 C 680.921875 227.867188 675.605469 232.390625 667.261719 235.46875 C 664.371094 236.535156 661.265625 237.890625 658.371094 238.375 C 641.460938 241.199219 629.90625 235.074219 619.511719 228.714844 C 623.984375 236.542969 629.476562 245.789062 628.953125 257.523438 C 628.996094 257.996094 628.800781 258.253906 628.464844 258.394531 C 624.828125 258.054688 621.8125 256.988281 618.371094 256.421875 C 600.636719 249.011719 583.867188 240.460938 573.09375 224.90625 M 1118.09375 144.132812 C 1108.15625 146.449219 1095.21875 141.019531 1090.003906 136.136719 C 1101.992188 135.992188 1107.769531 144.0625 1120.648438 143.230469 C 1120.171875 144.246094 1118.90625 143.945312 1118.09375 144.132812 Z M 1181.644531 108.808594 C 1192.6875 115.015625 1193.074219 142.84375 1180.992188 149.277344 C 1186.394531 134.816406 1186.585938 121.734375 1181.644531 108.808594 Z M 1177.222656 150.703125 C 1179.378906 136.113281 1178.546875 116.050781 1172.179688 105.851562 C 1186.71875 109.171875 1183.851562 143.113281 1177.222656 150.703125 Z M 1072.351562 125.363281 C 1064.050781 131.433594 1057.609375 139.671875 1051.496094 148.304688 C 1051.125 148.328125 1050.894531 149.398438 1050.945312 148.261719 C 1053.898438 142.390625 1057.746094 137.375 1061.804688 133.089844 C 1066.445312 128.195312 1071.242188 123.851562 1076.625 120.175781 C 1082.152344 116.402344 1088.695312 113.90625 1095.722656 112.558594 C 1098.265625 112.074219 1101.183594 111.082031 1103.195312 112.320312 C 1090.195312 113.488281 1081.960938 120.222656 1072.351562 125.363281 Z M 1150.277344 170.410156 C 1161.992188 165.515625 1170.65625 157.476562 1175.484375 144.769531 C 1171.386719 160.953125 1159.828125 168.394531 1145.671875 172.8125 C 1147.003906 171.660156 1148.691406 171.070312 1150.277344 170.410156 Z M 781.902344 181.011719 C 774.957031 179.34375 765.457031 168.269531 773.910156 163.261719 C 775.367188 163.214844 776.25 163.644531 777.453125 163.816406 C 779.097656 165.074219 779.246094 168.660156 777.761719 170.460938 C 776.117188 170.417969 774.371094 169.105469 772.839844 169.808594 C 774.683594 174.886719 778.972656 177.878906 783.296875 180.84375 C 782.644531 180.679688 782.660156 181.296875 781.902344 181.011719 Z M 787.789062 186.992188 C 786.21875 186.988281 784.34375 186.871094 782.847656 186.609375 C 779.085938 185.9375 774.210938 184.285156 771.324219 182.113281 C 767.703125 179.386719 764.625 174.152344 763.996094 169.941406 C 763.6875 167.890625 764.136719 165.972656 764.195312 163.878906 C 765.4375 160.140625 767.613281 157.492188 770.117188 155.230469 C 772.15625 154.519531 774.226562 153.839844 777.363281 154.417969 C 782.289062 156.351562 786.171875 159.1875 785.285156 166.085938 C 783.597656 165.226562 783.347656 163.097656 782.039062 161.691406 C 781.269531 160.867188 780.363281 159.957031 779.171875 159.527344 C 770.765625 156.523438 764.984375 165.765625 768.210938 172.480469 C 772.570312 181.542969 784.3125 184.542969 797.585938 185.273438 C 794.679688 186.621094 791.070312 186.996094 787.789062 186.992188 Z M 966.546875 150.476562 C 966.277344 150.460938 966.207031 150.675781 965.980469 150.714844 C 965.90625 150.914062 965.722656 151.007812 965.410156 150.945312 C 957.769531 157.074219 950.546875 163.710938 943.695312 170.773438 C 938.011719 177.082031 931.867188 184.15625 926.921875 191 C 926.382812 191.742188 925.945312 193.628906 924.535156 193.296875 C 925.421875 191.542969 925.839844 189.226562 926.652344 187.386719 C 943.199219 164.007812 964.984375 146.742188 988.722656 131.78125 C 999.742188 123.082031 1012.34375 116.621094 1025.707031 110.933594 C 1039.015625 105.269531 1053.621094 100.292969 1070.785156 99.558594 C 1070.125 100.300781 1068.773438 100.316406 1067.945312 100.4375 C 1051.375 102.914062 1037.273438 108.128906 1023.824219 113.828125 C 1010.65625 121.492188 996.757812 128.296875 985.714844 138.445312 C 967.789062 152.050781 950.984375 167.683594 937.027344 185.441406 C 933.460938 189.976562 929.976562 194.925781 926.800781 199.546875 C 925.617188 201.285156 924.785156 203.066406 922.136719 202.773438 C 934.546875 182.542969 950.035156 165.902344 966.546875 150.476562 Z M 812.976562 186.207031 C 806.710938 189.144531 799.511719 192.308594 792 193.125 C 790.1875 193.320312 788.1875 192.996094 786.214844 192.945312 C 775.3125 192.664062 768.988281 188.75 762.941406 183.386719 C 759.839844 178.183594 756.054688 173.828125 756.863281 165.789062 C 757.238281 162.070312 759.003906 157.023438 761.378906 153.992188 C 762.605469 152.425781 765.601562 149.636719 767.023438 148.914062 C 774.695312 145.03125 786.597656 149.652344 788.421875 157.769531 C 786.636719 156.9375 785.535156 155.027344 783.761719 153.820312 C 778.46875 150.195312 771.542969 150.800781 766.894531 154.148438 C 764.46875 157.148438 761.757812 160.277344 761.089844 164.742188 C 760.097656 171.371094 763.945312 177.472656 766.972656 181.21875 C 772.402344 185.179688 778.164062 189.257812 787.046875 189.421875 C 798.757812 189.632812 809.910156 185.324219 818.789062 182.515625 C 817.738281 184.5 815.128906 185.195312 812.976562 186.207031 Z M 823.636719 187.59375 C 811.84375 193.550781 799.058594 201.464844 780.800781 198.59375 C 772.121094 197.230469 764.53125 193.769531 758.734375 187.753906 C 751.679688 180.433594 746.613281 168.464844 751.835938 156.003906 C 755.804688 149.097656 761.664062 142.132812 771.699219 142.101562 C 775.285156 142.085938 779.789062 142.757812 781.15625 144.777344 C 774.226562 143.425781 767.945312 144.375 763.566406 147.261719 C 756.597656 151.855469 751.996094 163.699219 754.890625 173.367188 C 757.871094 183.328125 767.070312 192.714844 780.007812 194.664062 C 787.15625 195.746094 792.375 195.167969 797.742188 193.851562 C 813.230469 190.035156 824.300781 182.664062 836.425781 175.894531 C 841.546875 173.046875 845.726562 169.285156 850.398438 166.769531 C 842.457031 174.855469 832.578125 180.675781 823.636719 187.59375 Z M 1103.65625 215.625 C 1101.058594 222.082031 1095.707031 225.308594 1088.457031 226.3125 C 1078.792969 225.816406 1072.636719 221.945312 1067.691406 216.398438 C 1063.066406 211.191406 1058.367188 200.417969 1062.6875 192.257812 C 1062.183594 211.125 1072.691406 224.097656 1092.871094 222.789062 C 1096.828125 220.824219 1100.808594 218.894531 1100.871094 212.375 C 1100.175781 209.738281 1097.371094 208.0625 1094.289062 208.265625 C 1098.214844 203.378906 1106.035156 208.296875 1103.65625 215.625 Z M 1098.207031 200.5625 C 1101.824219 200.496094 1104.320312 203.578125 1106.375 205.621094 C 1113.296875 219.085938 1099.148438 230.410156 1085.222656 228.820312 C 1076.226562 227.789062 1070.371094 222.816406 1065.964844 217.367188 C 1066.390625 216.777344 1065.335938 216.285156 1066.046875 216.265625 C 1070.699219 222.375 1079.082031 227.746094 1088.644531 227.433594 C 1095.929688 227.1875 1102.882812 222.644531 1105.207031 216.855469 C 1107.914062 210.167969 1103.421875 202.894531 1096.550781 204.023438 C 1095.222656 204.859375 1093.484375 205.226562 1093.007812 207.066406 C 1092.535156 206.980469 1091.804688 208.53125 1091.886719 207.253906 C 1092.75 203.613281 1094.800781 200.632812 1098.207031 200.5625 Z M 893.765625 142.011719 C 890.253906 144.699219 886.390625 147.1875 882.921875 149.996094 C 861.648438 167.15625 844.324219 185.84375 820.40625 200.597656 C 813.121094 205.09375 805.492188 209.78125 795.960938 213.035156 C 791.703125 214.492188 786.648438 215.949219 781.578125 216.878906 C 776.941406 217.738281 769.519531 218.488281 764.410156 217.46875 C 754.351562 215.453125 744.710938 214.75 737.667969 209.851562 C 738.953125 209.546875 740.089844 209.089844 741.09375 208.457031 C 748.480469 212.726562 759.6875 215.363281 770.640625 215.476562 C 771.980469 215.484375 773.976562 215.558594 775.117188 214.714844 C 762.699219 214.230469 752.285156 212.042969 744.472656 207.621094 C 746.703125 206.835938 749.570312 206.792969 752.789062 207.167969 C 755.566406 208.453125 759.359375 209.972656 763.554688 210.773438 C 767.660156 211.558594 772.628906 212.367188 775.992188 210.648438 C 755.992188 209.738281 743.460938 200.660156 737.832031 186.667969 C 739.996094 188.570312 742.632812 192.289062 744.910156 194.953125 C 748.265625 197.292969 750.753906 200.375 755.144531 201.828125 C 745.328125 194.445312 736.296875 183.140625 736.339844 166.941406 C 736.359375 159.140625 738.550781 154.070312 741.515625 150.230469 C 742.21875 149.316406 742.734375 147.621094 744.199219 147.675781 C 741.898438 152.019531 739.324219 158.882812 739.210938 165.511719 C 738.917969 182.726562 750.835938 195.472656 764.945312 200.113281 C 761.011719 197.671875 757.179688 195.132812 753.679688 192.328125 C 750.707031 188.808594 747.925781 185.121094 745.441406 181.1875 C 743.910156 176.367188 742.132812 172.582031 742.148438 166.84375 C 742.1875 151.238281 752.457031 141.09375 764.25 138.480469 C 762.351562 140.046875 760.160156 141.285156 758.121094 142.695312 C 756.640625 144.160156 755.101562 145.554688 753.644531 147.035156 C 751.21875 150.796875 748.519531 153.875 747.480469 158.699219 C 744.671875 171.667969 750.90625 182.292969 756.683594 189.246094 C 764.101562 195.640625 772.632812 201.105469 786.394531 201.242188 C 791.054688 201.292969 796.820312 200.375 800.898438 199.339844 C 813.988281 196.03125 825.625 188.195312 835.109375 182.140625 C 842.007812 177.523438 848.554688 172.503906 854.535156 166.820312 C 861.460938 162.140625 866.898438 155.71875 874.238281 151.527344 C 861.457031 163.960938 848.335938 176.1875 834.171875 187.039062 C 820.101562 197.824219 804.003906 207.507812 781.441406 208.035156 C 792.191406 209.417969 801.125 206.105469 808.898438 203.003906 C 817.125 200.054688 824.03125 195.542969 831.085938 191.214844 C 855.519531 173.144531 877.46875 150.738281 902.707031 133.601562 C 907.800781 130.136719 912.480469 125.910156 917.648438 122.613281 C 920.246094 120.96875 922.863281 119.382812 925.492188 117.710938 C 928.058594 116.078125 930.472656 114.136719 933.074219 112.503906 C 937.101562 109.988281 941.707031 108.160156 945.734375 106.046875 C 946.8125 105.476562 948.175781 103.636719 949.707031 104.695312 C 930.410156 115.390625 911.222656 128.632812 893.765625 142.011719 Z M 804.289062 237.160156 C 811.890625 229.890625 819.667969 222.695312 826.976562 215.472656 C 829.46875 213 831.980469 210.28125 833.699219 207.164062 C 826.363281 214.660156 818.441406 221.46875 810.757812 228.554688 C 809.761719 229.191406 808.875 229.945312 808.097656 230.832031 C 807.5 231.097656 807.492188 231.085938 807.84375 230.535156 C 812.382812 223.546875 817.269531 216.855469 823.117188 211.855469 C 825.117188 210.140625 827.703125 208.972656 829.054688 206.519531 C 826.457031 207.777344 824.132812 209.351562 821.554688 210.625 C 818.808594 213.40625 815.78125 215.851562 813.4375 219.101562 C 802.933594 225.785156 792.902344 233.027344 778.992188 235.734375 C 775.746094 235.234375 772.835938 236.714844 769.894531 235.570312 C 774.738281 235.1875 779.457031 233.828125 783.9375 232.53125 C 788.351562 231.25 792.890625 229.96875 795.664062 227.371094 C 784.546875 230.335938 774.726562 235.753906 759.597656 233.105469 C 758.210938 232.324219 756.113281 232.148438 755.054688 231.09375 C 763.929688 231.683594 772.375 231.78125 778.917969 229.648438 C 779.921875 229.585938 781.800781 229.417969 781.222656 228.449219 C 774.75 229.796875 764.417969 230.183594 756.050781 228.964844 C 751.960938 228.367188 747.972656 227.367188 745.882812 224.851562 C 757.039062 228.433594 770.730469 227.316406 780.363281 225.34375 C 782.582031 224.890625 784.78125 224.222656 785.769531 223.289062 C 780.726562 223.683594 774.277344 225.636719 767.625 225.726562 C 760.273438 225.824219 752.503906 224.5625 746.898438 222.449219 C 742.71875 220.871094 738.898438 220.414062 738.484375 217.089844 C 745.121094 220.808594 758.875 224.261719 768.644531 223.324219 C 769.464844 223.246094 770.769531 223.152344 771.199219 222.417969 C 758.988281 222.652344 748.402344 219.261719 740.257812 215.578125 C 738.460938 214.757812 735.644531 214.0625 735.578125 211.894531 C 743.835938 216.476562 753.964844 219.371094 766.734375 219.582031 C 779.785156 219.796875 792.53125 216.054688 803.269531 211.402344 C 819.566406 204.339844 833.191406 194.785156 845.964844 184.652344 C 859.070312 174.238281 870.433594 161.359375 883.613281 151.703125 C 900.964844 137.945312 918.808594 124.769531 938.25 113.464844 C 954.75 102.910156 973.355469 94.820312 991.984375 86.75 C 993.601562 86.550781 994.878906 85.941406 996.230469 85.425781 C 997.636719 85.496094 999.355469 83.34375 1000.410156 84.929688 C 967.796875 97.316406 939.609375 114.714844 913.433594 134.164062 C 895.8125 147.25 879.828125 162.660156 865.960938 179.589844 C 844.753906 205.476562 826.28125 233.566406 798.941406 252.488281 C 799.511719 248.605469 803.28125 246.726562 805.652344 244.449219 C 813.394531 237.003906 820.78125 229.933594 827.847656 221.890625 C 836.734375 210.808594 846.195312 200.402344 854.734375 188.929688 C 837.402344 207.097656 822.9375 228.621094 802.183594 242.800781 C 802.175781 242.949219 801.941406 243.09375 801.910156 242.777344 C 802.785156 240.996094 803.535156 239.078125 804.289062 237.160156 Z M 1075.417969 177.789062 C 1070.363281 179.867188 1065.835938 182.5625 1060.792969 184.648438 C 1063.257812 182.3125 1066.125 180.027344 1069.316406 178.140625 C 1072.46875 176.277344 1076.378906 175.105469 1078.820312 173.085938 C 1075.609375 173.820312 1073.117188 175.402344 1070.015625 176.269531 C 1067.914062 177.894531 1065.265625 178.898438 1063.3125 180.710938 C 1060.523438 181.542969 1060.160156 185.210938 1055.859375 184.265625 C 1056.710938 182.261719 1059.757812 180.242188 1062.074219 178.957031 C 1064.21875 176.96875 1066.699219 175.378906 1069.617188 174.296875 C 1074.503906 171.027344 1081.058594 169.707031 1086.730469 167.355469 C 1075.375 169.25 1066.1875 173.683594 1057.914062 179.183594 C 1057.070312 180.289062 1055.769531 180.871094 1054.929688 181.980469 C 1053.730469 182.472656 1053.140625 184.617188 1051.230469 183.351562 C 1051.046875 182.441406 1052.175781 181.859375 1052.78125 181.265625 C 1054.855469 179.195312 1057.320312 177.246094 1059.8125 176.019531 C 1062.796875 173.511719 1066.546875 171.90625 1070.214844 170.207031 C 1077.808594 167.011719 1087.179688 165.886719 1095.832031 163.929688 C 1078.886719 165.167969 1064.445312 169.34375 1054.113281 178.328125 C 1053.21875 178.304688 1052.539062 179.394531 1051.765625 180.082031 C 1051.152344 180.613281 1050.09375 182.316406 1049.738281 181.300781 C 1050.136719 178.816406 1052.523438 177.125 1054.328125 175.589844 C 1060.332031 170.457031 1068.230469 167.625 1075.886719 164.851562 C 1065.824219 166.363281 1057.90625 170.390625 1051.265625 175.898438 C 1051.132812 176.207031 1050.300781 177.652344 1050.398438 176.386719 C 1050.738281 174.6875 1051.84375 173.195312 1052.9375 172.164062 C 1058.136719 167.265625 1065.636719 165.191406 1072.992188 162.96875 C 1064.796875 162.972656 1058.296875 166.546875 1053.429688 169.441406 C 1054.332031 168.5 1055.148438 167.460938 1055.890625 166.320312 C 1061.410156 162.898438 1067.335938 159.949219 1075.972656 160.160156 C 1076.558594 159.355469 1079.15625 160.898438 1079.328125 159.597656 C 1072.570312 158.222656 1065.9375 160 1061.527344 161.242188 C 1065.128906 158.964844 1069.535156 156.675781 1074.832031 157.03125 C 1078.316406 157.269531 1081.644531 159.960938 1085.457031 158.972656 C 1081.335938 157.839844 1077.332031 155.523438 1074.566406 153.429688 C 1073.683594 152.757812 1071.871094 152.160156 1072.289062 150.765625 C 1077.457031 153.511719 1083.203125 157.136719 1090.558594 157.164062 C 1082.742188 155.507812 1076.707031 151.832031 1071.683594 147.957031 C 1070.0625 146.699219 1067.722656 145.46875 1067.363281 143.195312 C 1068.269531 142.1875 1069.199219 143.710938 1070.046875 144.234375 C 1071.261719 144.726562 1072.320312 145.363281 1073.207031 146.140625 C 1079.523438 149.359375 1086.148438 153.683594 1094.667969 154.171875 C 1085.890625 151.824219 1077.863281 147.609375 1072.363281 142.757812 C 1071.710938 142.1875 1070.453125 141.398438 1070.613281 140.414062 C 1072.21875 138.921875 1073.316406 140.464844 1074.417969 141.261719 C 1078.296875 144.074219 1081.707031 146.300781 1086.566406 148.285156 C 1092.585938 150.753906 1099.714844 153.1875 1107.121094 153.769531 C 1122.539062 154.980469 1136.695312 149.171875 1142.746094 139.71875 C 1140.015625 142.121094 1137.316406 144.550781 1134.457031 146.796875 C 1126.472656 151.171875 1114.398438 154.324219 1102.292969 152.011719 C 1092.675781 150.167969 1083.492188 145.789062 1077.777344 140.699219 C 1077.1875 140.171875 1075.152344 138.496094 1076.320312 138.097656 C 1078.359375 136.421875 1079.839844 138.871094 1081.15625 139.863281 C 1087.910156 144.945312 1097.050781 149.019531 1108.550781 149.742188 C 1114.605469 150.121094 1124.523438 148.730469 1129.21875 146.664062 C 1134.914062 144.164062 1140.167969 140.441406 1142.117188 133.597656 C 1143.277344 129.527344 1142.359375 125.78125 1140.804688 122.167969 C 1135.613281 114.675781 1126.734375 107.75 1113.550781 107.054688 C 1112.164062 106.972656 1110.167969 106.535156 1109.070312 107.808594 C 1117.542969 106.96875 1127.742188 110.941406 1132.820312 114.917969 C 1135.851562 117.296875 1140.195312 122.652344 1141.035156 126.332031 C 1141.8125 129.75 1140.621094 135.171875 1139.046875 137.496094 C 1128.921875 152.53125 1092.503906 152.097656 1081.960938 136.605469 C 1084.699219 135.546875 1086.226562 137.300781 1087.894531 138.457031 C 1089.71875 139.71875 1091.546875 140.828125 1093.414062 141.921875 C 1102.804688 146.34375 1119.175781 147.375 1126.796875 142.332031 C 1131.304688 142.171875 1134.761719 139.34375 1136.710938 135.652344 C 1138.0625 133.109375 1139.136719 128.757812 1138.078125 125.269531 C 1136.945312 121.550781 1133.179688 118.09375 1129.160156 115.730469 C 1123.863281 112.617188 1117.238281 110.46875 1109.703125 110.34375 C 1090.957031 110.039062 1075.84375 117.800781 1066.179688 126.535156 C 1055.46875 136.46875 1045.839844 147.675781 1041.613281 165.203125 C 1040.03125 167.34375 1038.773438 169.863281 1036.957031 171.734375 C 1039.757812 155.402344 1046.90625 143.171875 1055.132812 133.675781 C 1057.9375 130.429688 1061.597656 127.925781 1064.132812 124.441406 C 1049.566406 136.257812 1037.863281 151.425781 1033.636719 175.347656 C 1033.164062 176.394531 1032.175781 176.835938 1031.523438 177.664062 C 1031.234375 178.125 1030.839844 178.46875 1030.335938 178.675781 C 1030.203125 178.984375 1029.375 180.429688 1029.472656 179.164062 C 1030.65625 164.667969 1036.253906 155.332031 1041.742188 145.878906 C 1037.839844 150.253906 1034.320312 155.6875 1031.667969 161.65625 C 1029.003906 167.679688 1026.339844 174.621094 1026.171875 182.492188 C 1025.519531 182.824219 1025.03125 183.355469 1024.417969 183.738281 C 1023.871094 183.65625 1023 185.5 1023 184.171875 C 1025.839844 161.226562 1035.339844 146.070312 1047.121094 133.597656 C 1059.277344 121.554688 1074.089844 112.617188 1092.492188 107.886719 C 1082.738281 109.390625 1073.816406 112.921875 1066.070312 117.414062 C 1058.359375 121.875 1051.089844 127.1875 1045.207031 133.449219 C 1033.296875 146.117188 1023.550781 163.253906 1019.898438 185.039062 C 1019.097656 184.855469 1017.769531 182.933594 1017.414062 181.527344 C 1018.648438 170.492188 1022.136719 162.09375 1025.921875 154.035156 C 1020.730469 160.242188 1017.984375 169.3125 1015.175781 178.3125 C 1013.410156 176.035156 1014.183594 173.390625 1014.9375 170.839844 C 1017.121094 163.394531 1020.191406 155.859375 1023.453125 150.242188 C 1018.28125 155.480469 1015.375 163.363281 1012.421875 171.195312 C 1011.320312 162.738281 1016.40625 156.816406 1019.253906 151.015625 C 1017.726562 152.035156 1016.644531 153.539062 1015.609375 155.152344 C 1014.601562 156.726562 1013.875 158.683594 1012.480469 159.878906 C 1013.28125 155.238281 1014.660156 152.101562 1017.1875 149.203125 C 1020.785156 145.054688 1027.292969 142.820312 1024.894531 135.445312 C 1021.742188 135.148438 1020.027344 138.4375 1018.398438 140.734375 C 1013.417969 147.789062 1008.199219 155.871094 1006.730469 166.328125 C 1005.757812 173.203125 1005.710938 181.054688 1003.148438 187.308594 C 1001.929688 171.421875 1005.480469 154.15625 1012.839844 144.722656 C 1014.496094 142.109375 1016.636719 139.371094 1018.65625 137.4375 C 1019.296875 136.828125 1020.742188 136.492188 1020.476562 135.378906 C 1014.605469 139.972656 1010.433594 145.777344 1006.960938 152.820312 C 1002.339844 162.160156 999.792969 173.425781 999.414062 185.640625 C 999.238281 191.535156 999.007812 200.230469 996.117188 203.054688 C 996.765625 192.152344 996.320312 181.175781 998.082031 170.894531 C 999.785156 161.019531 1004.226562 153.011719 1008.019531 146.273438 C 1003.457031 152.601562 999.546875 159.871094 997.144531 168.894531 C 994.683594 178.105469 994.097656 188.46875 992.574219 198.910156 C 991.96875 203.101562 992.324219 209.785156 989.15625 210.785156 C 990.746094 203.242188 990.0625 195.144531 990.351562 188.519531 C 990.648438 181.746094 992.148438 175.082031 993.761719 169.726562 C 994.617188 166.886719 995.785156 164.371094 996.320312 161.648438 C 989.691406 173.042969 989.050781 192.617188 986.589844 208.382812 C 986.253906 210.5 985.894531 213.6875 983.640625 214.222656 C 985.648438 204.363281 984.261719 192.484375 986.335938 183.507812 C 986.757812 181.652344 988.128906 180.257812 987.558594 178.359375 C 983.585938 187.058594 983.257812 201.679688 981.046875 212.089844 C 980.777344 213.359375 981.195312 215.746094 979.351562 216.09375 C 979.929688 211.140625 979.539062 205.84375 979.71875 200.941406 C 979.800781 198.617188 980.519531 195.691406 979.9375 194.609375 C 978.285156 201.167969 977.097656 208.269531 975.828125 215.273438 C 975.75 216.472656 975.890625 217.933594 974.535156 217.648438 C 973.835938 218.40625 974.050781 216.207031 974.164062 215.414062 C 974.898438 202.058594 976.6875 190.089844 980.734375 180.863281 C 982.078125 177.808594 983.921875 175.015625 984.742188 172.066406 C 977.683594 182.914062 972.679688 198.375 970.632812 214.585938 C 970.425781 216.257812 971.105469 219.429688 968.621094 219.121094 C 967.503906 219.144531 968.453125 217.390625 968.269531 216.609375 C 967.695312 212.152344 969.378906 206.386719 969.363281 202.609375 C 967.6875 207.035156 966.746094 212.335938 965.710938 217.515625 C 965.4375 218.1875 966.054688 219.914062 964.996094 219.664062 C 964.386719 220.054688 963.152344 219.71875 962.476562 220.023438 C 963.515625 210.148438 965.785156 201.714844 968.402344 193.703125 C 966.199219 197.183594 964.785156 201.480469 963.320312 205.726562 C 961.785156 210.199219 960.90625 215.023438 959.988281 220.101562 C 958.878906 220.203125 958.066406 220.652344 956.648438 220.394531 C 959.445312 204.988281 964.757812 192.523438 971.300781 181.503906 C 968.820312 183.785156 967.140625 186.964844 965.398438 189.878906 C 960.015625 198.875 955.457031 208.871094 952.742188 220.914062 C 952.574219 222.222656 951.085938 221.964844 950.652344 222.957031 C 949.980469 223.117188 948.875 225.488281 948.621094 224.183594 C 953.957031 198.625 966.378906 179.433594 979.660156 162.828125 C 991.320312 148.261719 1006.652344 136.394531 1022.492188 127.25 C 1024.652344 126.007812 1027.320312 125.191406 1029.152344 123.355469 C 1007.585938 132.773438 991.074219 148.113281 975.902344 165.019531 C 960.554688 183.410156 947.382812 204.359375 943.03125 235.617188 C 942.601562 233.757812 941.238281 232.710938 940.925781 230.757812 C 944.058594 208.65625 952.910156 193.242188 962.160156 178.296875 C 953.316406 188.378906 945.773438 200.921875 940.527344 214.710938 C 939.746094 216.765625 939.292969 218.941406 938.113281 220.871094 C 937.40625 213.003906 940.050781 206.878906 943.277344 200.84375 C 945.539062 196.59375 947.925781 192.4375 950.277344 188.960938 C 955.675781 181.011719 960.730469 173.886719 966.316406 167.574219 C 978.316406 154.023438 991.316406 142.253906 1005.214844 132.796875 C 1019.089844 123.660156 1034.597656 114.535156 1053.730469 109.261719 C 1067.328125 105.519531 1082.363281 102.105469 1099.539062 102.640625 C 1119.699219 103.265625 1135.308594 109.085938 1142.902344 120.125 C 1145.261719 121.949219 1145.925781 126.578125 1147.511719 128.21875 C 1147.503906 126.769531 1147 125.753906 1146.992188 124.3125 C 1141.457031 112.429688 1130.277344 106.390625 1116.445312 101.757812 C 1111.367188 100.050781 1105.136719 98.890625 1099.058594 98.179688 C 1092.722656 97.449219 1085.960938 97.019531 1079.800781 97.222656 C 1043.886719 98.445312 1017.050781 110.945312 994.121094 126.402344 C 986.296875 131.683594 978.261719 136.832031 970.789062 142.25 C 955.339844 153.445312 940.851562 165.769531 929.175781 179.855469 C 929.660156 177.121094 930.890625 175.273438 931.65625 172.867188 C 942.8125 160.351562 955.589844 149.730469 969.289062 140.199219 C 970.164062 139.820312 971.992188 138.984375 971.65625 138.171875 C 958.484375 145.128906 947.566406 154.726562 936.484375 164.132812 C 945.320312 151.804688 962.789062 131.480469 977.238281 125.714844 C 979.546875 123.136719 984.132812 120.996094 992.375 116.8125 C 991.023438 114.058594 971.992188 126.925781 970 127.550781 C 967.863281 128.226562 965.636719 129.789062 963.386719 130.902344 C 956.667969 134.21875 947.308594 134.316406 941.566406 137.929688 C 932.65625 146 929.804688 158.914062 922.78125 169.179688 C 920.417969 172.640625 916.234375 178.410156 914.101562 181.988281 C 911.875 185.707031 910.152344 189.640625 907.960938 193.378906 C 901.15625 204.960938 894.710938 215.082031 884.164062 222.164062 C 875.636719 228.960938 866.578125 235.144531 856.015625 239.566406 C 853.359375 233.367188 854.859375 225.007812 856.613281 217.792969 C 859.496094 205.957031 865.078125 196.535156 870.761719 188.804688 C 868.246094 190.21875 866.480469 192.8125 864.753906 194.960938 C 862.898438 197.292969 861.160156 199.84375 859.738281 202.578125 C 856.78125 208.242188 854.738281 214.792969 851.734375 220.171875 C 849.335938 224.480469 845.390625 227.640625 842.050781 231.019531 C 838.589844 234.496094 835.242188 238.132812 831.097656 240.371094 C 841.292969 228.128906 851.050781 215.378906 859.0625 200.589844 C 852.347656 209.105469 846.449219 218.578125 839.097656 226.363281 C 835.546875 230.382812 832.398438 234.863281 828.730469 238.804688 C 825.164062 242.648438 821.089844 246.40625 816.351562 248.882812 C 823.453125 240.910156 830.503906 232.886719 836.546875 223.671875 C 833.539062 225.453125 832.234375 229.21875 829.339844 231.117188 C 822.671875 239.402344 814.898438 246.382812 806.648438 252.8125 C 805.136719 253.144531 803.574219 253.410156 802.402344 254.136719 C 801.203125 254.003906 802.820312 253.257812 802.742188 253.332031 C 805.394531 250.652344 809.316406 248.59375 811.347656 245.722656 C 818.976562 238.667969 825.765625 230.691406 832.476562 222.800781 C 839.28125 214.816406 846.046875 206.71875 852.339844 198.410156 C 865.046875 181.585938 878.421875 165.652344 894.359375 151.992188 C 898.265625 148.648438 901.972656 145.050781 905.925781 141.859375 C 909.941406 138.609375 914.316406 135.710938 918.519531 132.625 C 926.929688 126.460938 935.347656 120.457031 944.21875 114.761719 C 961.730469 103.535156 981.136719 94.78125 1001.679688 86.410156 C 1014.265625 81.898438 1027.71875 77.214844 1042.675781 74.152344 C 1049.878906 72.683594 1057.820312 71.367188 1065.847656 71.007812 C 1073.988281 70.632812 1082.472656 69.886719 1091.027344 70.214844 C 1099.808594 70.554688 1108.300781 72.382812 1116.113281 74.394531 C 1139.382812 80.398438 1157.976562 90.851562 1168.195312 107.476562 C 1162.203125 100.488281 1155.15625 94.574219 1146.933594 89.789062 C 1141.949219 86.890625 1136.371094 83.839844 1130.710938 81.886719 C 1104.089844 72.730469 1074.089844 72.371094 1048.011719 76.503906 C 1041.84375 77.484375 1035.726562 79.050781 1029.738281 80.597656 C 1023.679688 82.167969 1017.671875 83.769531 1011.960938 85.554688 C 1006.386719 87.296875 1001.011719 89.875 995.710938 92.015625 C 979.027344 98.753906 964.40625 106.601562 950.21875 115.785156 C 936.203125 124.851562 922.230469 134.667969 910.054688 145.5 C 905.871094 149.226562 902.027344 153.226562 898.085938 157.257812 C 894.242188 161.195312 890.160156 165.042969 886.644531 169.339844 C 883.03125 173.769531 879.046875 178.136719 876.703125 183.472656 C 892.835938 162.597656 911.125 144.246094 932.816406 129.882812 C 940.328125 124.042969 948.808594 119.03125 957.273438 113.851562 C 961.382812 111.335938 965.941406 109.257812 970.25 106.863281 C 983.226562 99.628906 996.878906 93.050781 1011.742188 88.300781 C 1021.765625 85.101562 1031.90625 81.648438 1042.539062 79.390625 C 1053.417969 77.085938 1064.9375 75.433594 1077.105469 75.199219 C 1089.90625 74.957031 1102.34375 76.648438 1114.878906 79.546875 C 1138.109375 84.90625 1156.109375 95.816406 1167.933594 110.769531 C 1172.046875 118.105469 1175.910156 125.628906 1175.015625 136.726562 C 1174.289062 145.699219 1169.847656 152.710938 1165.648438 157.527344 C 1163.820312 159.617188 1161.800781 161.746094 1159.957031 163.15625 C 1146.414062 173.527344 1124.769531 174.839844 1106.625 177.753906 C 1107.59375 176.535156 1109.277344 176.339844 1110.644531 175.863281 C 1118.25 173.191406 1127.933594 172.921875 1136.105469 171.503906 C 1152.132812 168.730469 1165.78125 158.523438 1170.605469 143.558594 C 1173.566406 134.40625 1171.738281 125.089844 1169.015625 118.03125 C 1167.621094 116.242188 1166.339844 114.34375 1165.335938 112.21875 C 1152.585938 96.957031 1132.871094 86.773438 1109.488281 81.324219 C 1101.300781 79.425781 1092.523438 79.039062 1082.910156 78.695312 C 1060.492188 77.878906 1041.871094 81.472656 1023.992188 87.050781 C 1007.613281 92.160156 992.417969 97.945312 978.121094 104.996094 C 948.984375 119.378906 923.691406 137.78125 902.355469 159.25 C 895.21875 166.902344 888.6875 174.917969 882.238281 183.355469 C 879.066406 187.496094 876.253906 192.003906 873.195312 196.453125 C 870.128906 200.917969 866.953125 205.609375 865.15625 211.007812 C 872.976562 198.15625 881.4375 185.824219 891.203125 174.667969 C 900.796875 163.703125 910.882812 153.03125 922.074219 143.679688 C 938.765625 129.714844 957.414062 117.695312 977.335938 107.964844 C 984.195312 104.617188 990.851562 101.292969 997.960938 98.542969 C 1025.953125 87.699219 1057.679688 77.503906 1097.835938 82.070312 C 1116.742188 84.226562 1133.199219 90.125 1146.289062 98.019531 C 1152.546875 101.796875 1158.601562 106.589844 1163.117188 112.324219 C 1168.359375 118.984375 1172.222656 127.949219 1170.410156 139.125 C 1168.996094 147.773438 1164.105469 154.066406 1158.929688 158.65625 C 1153.117188 163.816406 1147.675781 167.058594 1139.59375 169.292969 C 1127.765625 172.5625 1113.230469 171.722656 1103.644531 176.96875 C 1100.386719 178.753906 1097.84375 181.261719 1094.351562 182.863281 C 1092.761719 184.777344 1090.808594 186.242188 1089.484375 188.558594 C 1088.707031 189.921875 1088.519531 191.671875 1087.214844 192.800781 C 1087.351562 188.980469 1088.621094 185.796875 1090.441406 183.390625 C 1092.128906 181.15625 1094.714844 178.855469 1096.726562 177.253906 C 1099.808594 174.800781 1103.628906 173.300781 1107.121094 171.449219 C 1118.363281 167.625 1133.070312 168.917969 1143.550781 164.632812 C 1147.105469 163.179688 1150.113281 161.160156 1153.332031 159.601562 C 1159.996094 154.609375 1165.042969 147.734375 1167.71875 138.085938 C 1168.914062 116.070312 1154.5625 107.335938 1140.464844 98.394531 C 1126.777344 90.664062 1109.722656 85.949219 1089.957031 83.945312 C 1079.488281 82.878906 1068.570312 83.707031 1058.410156 84.78125 C 1048.605469 85.820312 1038.828125 87.96875 1030.363281 90.3125 C 1012.246094 95.320312 996.070312 102.148438 980.839844 109.070312 C 972.816406 112.726562 964.9375 116.183594 957.851562 120.523438 C 936.242188 133.777344 916.742188 149.707031 900.246094 168.472656 C 885.894531 185.835938 871.445312 203.085938 862.785156 227.113281 C 867.390625 221.617188 884.875 199.261719 888.757812 196.296875 C 881.988281 207.144531 882.398438 212.433594 882.488281 214.914062 C 885.222656 210.109375 897.417969 196.984375 906.679688 187.636719 C 968.863281 124.890625 1059.980469 55.121094 1141.132812 100.378906 C 1151.535156 106.265625 1163.351562 115.648438 1166.054688 127.738281 C 1167.8125 135.625 1165.289062 143.019531 1161.945312 148.402344 C 1155.902344 158.101562 1146.230469 163.71875 1134.09375 165.550781 C 1130.054688 166.785156 1125.675781 166.722656 1121.527344 167.320312 C 1117.367188 167.925781 1113.445312 168.59375 1109.464844 169.691406 C 1102.089844 171.730469 1095.199219 175.925781 1090.632812 180.917969 C 1089.308594 182.375 1087.800781 184.257812 1086.910156 186.148438 C 1084.296875 191.746094 1085.222656 198.183594 1086.992188 202.722656 C 1087.667969 204.457031 1088.691406 205.902344 1088.824219 207.5625 C 1084.328125 204.621094 1082.136719 198.179688 1082.851562 192.183594 C 1083.335938 188.144531 1085.773438 183.835938 1088.460938 180.476562 C 1092.472656 175.460938 1096.660156 171.992188 1101.484375 169.34375 C 1103.960938 168.246094 1107.0625 167.875 1108.921875 166.058594 C 1101.390625 167.503906 1095.039062 171.167969 1090.199219 175.910156 C 1085.351562 180.671875 1081.304688 187.332031 1081.070312 197.289062 C 1081.898438 202.828125 1084.015625 209.070312 1089.136719 210.625 C 1090.632812 211.078125 1091.863281 210.351562 1093.226562 211.21875 C 1092.003906 215.578125 1086.019531 212.226562 1083.875 210.761719 C 1078.394531 205.386719 1076.269531 194.453125 1080.28125 186.183594 C 1082.125 182.386719 1085.429688 179.558594 1086.292969 176.441406 C 1082.335938 180.214844 1078.296875 185.417969 1077.042969 192.28125 C 1075.277344 201.96875 1079.859375 211.234375 1087.441406 214.628906 C 1089.019531 214.78125 1090.601562 214.941406 1091.851562 214.703125 C 1092.5625 214.140625 1093.402344 213.71875 1093.925781 212.9375 C 1095 212.796875 1094.03125 210.257812 1095.238281 210.273438 C 1097.746094 210.511719 1098.992188 211.859375 1099.113281 213.613281 C 1099.433594 217.96875 1094.160156 220.675781 1091.292969 221.839844 C 1090.882812 221.957031 1089.894531 221.40625 1089.902344 222.003906 C 1074.382812 221.3125 1066.179688 211.371094 1064.953125 198.507812 C 1064.46875 193.378906 1065.511719 188.308594 1067.636719 185.464844 C 1069.796875 184.59375 1073.328125 183.738281 1074.226562 182.394531 C 1071.371094 182.941406 1067.996094 184.488281 1065.25 184.171875 C 1068.597656 182.195312 1073.308594 180.226562 1075.417969 177.789062 Z M 852.195312 224.90625 C 851.148438 233.046875 852.125 239.46875 854.507812 244.691406 C 860.175781 242.105469 865.203125 238.402344 870.414062 235.445312 C 880.992188 229.460938 890.523438 222.367188 898.664062 213.359375 C 906.65625 204.503906 911.941406 192.203125 918.578125 181.234375 C 928.085938 165.515625 940.019531 151.222656 952.191406 139.828125 C 945.09375 146.207031 942.109375 152.679688 937.199219 158.503906 C 934.085938 163.765625 928.21875 172.296875 926.207031 179.070312 C 925.136719 182.644531 924.507812 186.277344 923.164062 189.59375 C 921.863281 192.828125 920.488281 196.039062 919.117188 198.945312 C 918.207031 200.894531 916.496094 202.140625 916.222656 204.246094 C 923.726562 205.421875 930.71875 203.707031 936.304688 201.675781 C 931.207031 216.324219 934.515625 232.582031 942.578125 241.382812 C 944.375 243.339844 946.765625 245.40625 949.363281 246.328125 C 946.496094 239.203125 948.675781 226.929688 954.957031 224.402344 C 961.851562 222.886719 968.863281 221.496094 975.738281 219.957031 C 985.324219 216.285156 993.5 212.164062 999.09375 203.84375 C 1004.523438 195.75 1007.75 185.335938 1009.292969 172.335938 C 1011.828125 178.953125 1014.6875 185.308594 1019.511719 189.976562 C 1023.226562 189.050781 1026.148438 186.53125 1029.066406 184.375 C 1037.871094 177.839844 1043.355469 167.890625 1049.117188 157.503906 C 1052.777344 150.902344 1057.558594 144.820312 1062.660156 139.789062 C 1067.804688 134.71875 1072.796875 129.15625 1079.464844 126.191406 C 1083.074219 123.933594 1088.078125 121.957031 1093.472656 120.113281 C 1098.324219 118.453125 1104.007812 116.964844 1109.226562 116.375 C 1120.417969 115.117188 1131.859375 118.535156 1134.363281 126.910156 C 1134.371094 130.316406 1133.441406 132.628906 1132.109375 134.46875 C 1131.164062 135.757812 1129.519531 136.238281 1128.300781 137.207031 C 1118.789062 139.261719 1110.007812 132.84375 1100.316406 131.421875 C 1092.441406 130.265625 1085.664062 131.046875 1079.769531 132.847656 C 1073.160156 134.863281 1067.035156 138.546875 1063.160156 143.96875 C 1064.597656 148.378906 1068.171875 150.945312 1071.207031 153.988281 C 1055.8125 156.25 1048.28125 167.714844 1044.839844 183.953125 C 1048.398438 186.527344 1055.691406 186.890625 1060.328125 187.101562 C 1053.652344 201.179688 1059.503906 216.777344 1067.644531 224.125 C 1069.253906 225.585938 1072.058594 227.460938 1074.734375 228.824219 C 1078.851562 230.933594 1083.320312 232.660156 1089.628906 232.480469 C 1093.179688 232.375 1095.355469 230.765625 1098.921875 230.171875 C 1103.007812 227.652344 1106.574219 224.542969 1109.601562 220.789062 C 1114.492188 210.792969 1109.855469 197.976562 1099.542969 197.636719 C 1095.535156 197.5 1093.164062 199.132812 1090.941406 201.652344 C 1088.695312 193.382812 1094.230469 187.101562 1098.445312 183.460938 C 1109.628906 177.785156 1124.253906 179.152344 1137.597656 177.144531 C 1149.363281 175.375 1158.835938 170.441406 1167.03125 164.542969 C 1169.691406 161.261719 1172.914062 158.644531 1175.238281 154.964844 C 1201.457031 154.320312 1205.296875 100.222656 1169.699219 102.339844 C 1158.054688 87.027344 1140.222656 76.433594 1117.230469 70.617188 C 1105.003906 67.519531 1091.851562 66.332031 1078.894531 66.503906 C 1053.804688 66.828125 1031.523438 70.644531 1011.003906 76.644531 C 1000.800781 79.621094 991.347656 83.191406 981.742188 87.046875 C 962.539062 94.773438 943.882812 102.484375 927.25 112.878906 C 921.960938 115.394531 917.222656 118.980469 912.164062 122.1875 C 907.21875 125.3125 901.953125 128.085938 897.070312 131.496094 C 894.679688 133.171875 892.5 135.132812 890.035156 136.746094 C 887.574219 138.359375 885.003906 139.796875 882.484375 141.402344 C 877.582031 144.523438 873.011719 148.078125 867.921875 151.03125 C 857.828125 156.898438 848.59375 163.902344 837.515625 169.082031 C 826.53125 174.210938 814.757812 178.890625 800.785156 179.726562 C 792.421875 180.230469 785.457031 178.394531 780.15625 175.074219 C 781.574219 174.230469 783.613281 174.125 785.25 173.542969 C 790.953125 169.441406 795.960938 160.988281 793.289062 152.074219 C 792.621094 149.875 791.035156 147.085938 789.6875 145.167969 C 784.390625 137.671875 773.972656 132.769531 761.855469 133.875 C 756.9375 134.984375 752.730469 136.605469 748.730469 139.195312 C 740.160156 144.75 733.335938 153.375 731.859375 167.695312 C 730.84375 177.613281 733.808594 186.277344 737.566406 193.550781 C 740.644531 197.234375 743.453125 201.152344 747.519531 203.996094 C 741.964844 205.28125 735.953125 206.042969 732.183594 209.421875 C 733.144531 214.160156 736.144531 218.253906 739.46875 222.140625 C 744.363281 227.867188 749.679688 232.390625 758.027344 235.46875 C 760.917969 236.535156 764.023438 237.890625 766.914062 238.375 C 783.828125 241.199219 795.378906 235.074219 805.773438 228.714844 C 801.304688 236.542969 795.8125 245.789062 796.332031 257.523438 C 796.292969 257.996094 796.488281 258.253906 796.824219 258.394531 C 800.460938 258.054688 803.476562 256.988281 806.914062 256.421875 C 824.648438 249.011719 841.417969 240.460938 852.195312 224.90625 "/>
</g>
</g>
</svg>
