<?xml version="1.0" encoding="UTF-8"?>
<svg xmlns="http://www.w3.org/2000/svg" xmlns:xlink="http://www.w3.org/1999/xlink" width="1170.049622pt" height="322.660011pt" viewBox="0 0 1170.049622 322.660011" version="1.1">
<defs>
<clipPath id="clip1">
  <path d="M 169 29 L 608 29 L 608 322.660156 L 169 322.660156 Z M 169 29 "/>
</clipPath>
<clipPath id="clip2">
  <path d="M 948 138 L 1170.050781 138 L 1170.050781 198 L 948 198 Z M 948 138 "/>
</clipPath>
<clipPath id="clip3">
  <path d="M 987 179 L 1170.050781 179 L 1170.050781 220 L 987 220 Z M 987 179 "/>
</clipPath>
</defs>
<g id="surface1">
<path style=" stroke:none;fill-rule:nonzero;fill:rgb(100%,100%,100%);fill-opacity:1;" d="M 13.789062 185.683594 C 14.054688 185.683594 75.636719 182.898438 75.636719 182.898438 L 113.558594 176.601562 L 3.050781 143.71875 L 58.335938 142.859375 L 134.039062 130.195312 L 1160.261719 136.339844 L 1162.875 137.625 L 1088.371094 140.140625 L 1092.414062 143.585938 L 1131.261719 179.050781 L 1089.695312 180.777344 L 1067.0625 186.375 L 1071.9375 197.0625 L 14.453125 188.140625 Z M 13.789062 185.683594 "/>
<path style=" stroke:none;fill-rule:nonzero;fill:rgb(0%,0%,0%);fill-opacity:1;" d="M 27.847656 179.863281 L 0 179.863281 L 0 183.859375 L 27.847656 183.859375 C 56.378906 183.859375 98.042969 183.886719 133.492188 176.453125 C 165.414062 169.757812 208.144531 144.570312 221.535156 137.578125 L 216.074219 125.304688 C 208.285156 132.570312 166.375 164.4375 132.027344 172.050781 C 97.039062 179.804688 53.027344 179.863281 27.847656 179.863281 "/>
<path style=" stroke:none;fill-rule:nonzero;fill:rgb(0%,0%,0%);fill-opacity:1;" d="M 27.847656 138.792969 L 0 138.792969 L 0 142.804688 L 27.847656 142.804688 C 42.867188 142.804688 90.753906 145.472656 129.632812 132.53125 C 148.644531 126.207031 170.625 115.722656 182.144531 104.523438 L 175.230469 103.230469 C 164.425781 112.140625 150.320312 121.707031 128.582031 128.640625 C 96.082031 139.003906 57.445312 139.105469 27.847656 138.792969 "/>
<g clip-path="url(#clip1)" clip-rule="nonzero">
<path style=" stroke:none;fill-rule:nonzero;fill:rgb(0%,0%,0%);fill-opacity:1;" d="M 197.386719 144.898438 C 221.253906 114.527344 255.648438 93.164062 284.785156 93.71875 C 303.738281 94.082031 321.671875 108.589844 328.585938 126.664062 C 328.65625 126.820312 328.714844 126.976562 328.765625 127.136719 C 328.875 127.429688 328.988281 127.726562 329.085938 128.023438 C 329.109375 128.097656 329.128906 128.167969 329.160156 128.234375 C 329.570312 129.460938 329.914062 130.71875 330.222656 132 C 330.742188 132.859375 331.144531 133.789062 331.398438 134.757812 C 332.023438 132.359375 332.066406 129.734375 332.109375 127.292969 C 332.257812 120.078125 328.785156 111.179688 323.164062 106.75 C 322.605469 106.3125 323.191406 105.511719 323.792969 105.855469 C 328.394531 108.507812 331.523438 112.789062 333.417969 117.675781 C 335.277344 120.992188 336.285156 124.980469 336.832031 128.539062 C 337.082031 130.222656 337.1875 133.898438 336.5 136.996094 C 336.875 136.582031 337.226562 136.085938 337.527344 135.476562 C 338.894531 132.753906 338.914062 129.394531 338.738281 126.4375 C 338.378906 120.625 336.777344 113.902344 333.558594 109.046875 C 333.246094 108.582031 333.816406 108.117188 334.214844 108.492188 C 339.296875 113.339844 341.714844 122.042969 341.890625 128.976562 C 341.894531 129.105469 341.894531 129.246094 341.890625 129.378906 C 342.144531 128.875 342.371094 128.359375 342.546875 127.820312 C 344.207031 122.675781 342.964844 116.949219 340.984375 112.171875 C 340.75 111.597656 341.578125 111.207031 341.855469 111.757812 C 344.269531 116.574219 345.753906 121.542969 345.394531 127.019531 C 346.820312 123.238281 347.058594 119.28125 346.464844 115.40625 C 346.414062 115.316406 346.355469 115.226562 346.308594 115.125 C 346.179688 114.90625 346.214844 114.703125 346.328125 114.539062 C 345.363281 109.292969 342.960938 104.222656 340.0625 99.925781 C 339.351562 98.867188 340.714844 97.691406 341.589844 98.628906 C 343.925781 101.128906 345.945312 103.988281 347.496094 107.054688 C 355.015625 114.492188 364.4375 124.757812 362.441406 135.699219 C 364.074219 136.824219 365.773438 137.84375 367.53125 138.769531 C 368.09375 137.632812 368.1875 136.65625 367.851562 134.785156 C 367.375 132.152344 366.308594 129.644531 365.3125 127.195312 C 362.058594 119.253906 357.507812 112.476562 350.890625 107.0625 C 350.359375 106.636719 350.933594 105.816406 351.503906 106.183594 C 360.082031 111.828125 365.5 119.253906 369.574219 128.660156 C 370.925781 131.765625 372.398438 135.496094 371.765625 138.984375 C 371.664062 139.527344 371.457031 140.042969 371.175781 140.507812 C 371.5 140.648438 371.8125 140.792969 372.132812 140.929688 C 373.0625 141.0625 373.96875 141.449219 374.828125 142 C 375.257812 142.152344 375.679688 142.304688 376.109375 142.453125 C 376.695312 137.230469 374.515625 131.332031 372.898438 126.769531 C 369.875 118.230469 363.503906 111.785156 357.433594 105.410156 C 357.003906 104.964844 357.71875 104.167969 358.183594 104.585938 C 365.796875 111.605469 372.648438 117.910156 376.570312 127.8125 C 378.003906 131.4375 380.882812 138.578125 380.035156 143.734375 C 380.996094 144.023438 381.957031 144.304688 382.933594 144.5625 C 382.839844 142.207031 382.894531 139.816406 382.589844 137.566406 C 381.914062 132.582031 380.539062 127.8125 378.558594 123.226562 C 376.3125 118.015625 373.257812 113.226562 369.816406 108.777344 C 366.65625 104.679688 362.28125 101.984375 358.703125 98.320312 C 358.261719 97.867188 359.007812 97.046875 359.472656 97.484375 C 363.320312 101.011719 367.847656 103.539062 371.351562 107.476562 C 375.199219 111.789062 378.390625 116.886719 381.199219 121.960938 C 383.722656 126.535156 385.464844 131.660156 386.394531 136.84375 C 386.882812 139.523438 387.367188 142.667969 387.167969 145.636719 C 388.917969 146.054688 390.679688 146.449219 392.4375 146.816406 C 392.949219 144.566406 392.492188 141.925781 392.152344 139.746094 C 391.25 134.015625 389.261719 128.445312 387.121094 123.101562 C 384.90625 117.574219 381.902344 112.707031 378.121094 108.128906 C 372.699219 101.535156 365.203125 94.429688 357.347656 90.964844 C 356.972656 90.796875 357.183594 90.199219 357.570312 90.347656 C 372.914062 96.308594 384.417969 108.558594 390.882812 123.804688 C 393.453125 129.855469 395.796875 136.355469 396.40625 142.984375 C 396.519531 144.246094 396.472656 145.933594 396.167969 147.574219 C 397.496094 147.839844 398.824219 148.097656 400.144531 148.355469 C 400.355469 147.523438 400.484375 146.582031 400.511719 145.460938 C 400.636719 141.449219 399.34375 137.265625 398.125 133.527344 C 395.261719 124.625 391.175781 116.285156 385.644531 108.820312 C 379.996094 101.203125 372.625 94.988281 364.859375 89.71875 C 360.660156 86.878906 356.234375 84.460938 351.691406 82.242188 C 347.691406 80.292969 343.84375 77.746094 339.609375 76.40625 C 339.292969 76.304688 339.476562 75.78125 339.785156 75.914062 C 344.773438 78.039062 349.898438 79.355469 354.742188 81.898438 C 359.34375 84.316406 363.820312 87.019531 368.152344 89.898438 C 376.976562 95.773438 384.792969 102.78125 390.835938 111.628906 C 396.207031 119.476562 399.933594 128.433594 402.558594 137.617188 C 403.398438 140.554688 404.132812 145.070312 403.597656 149.039062 C 403.699219 149.054688 403.800781 149.074219 403.902344 149.09375 C 405.050781 146.339844 405.871094 143.480469 406.421875 140.570312 C 406.160156 138.835938 406.09375 137.0625 405.871094 135.304688 C 405.351562 131.148438 404.21875 127.164062 402.8125 123.257812 C 400.191406 116.015625 395.886719 109.097656 389.617188 104.671875 C 389.125 104.316406 389.671875 103.539062 390.175781 103.882812 C 396.554688 108.085938 401.152344 114.128906 404.53125 120.992188 C 405.34375 122.679688 406.261719 124.722656 407.082031 126.9375 C 406.84375 123.832031 406.351562 120.75 405.636719 117.75 C 404.375 112.347656 400.542969 108.332031 396.929688 104.449219 C 394.332031 101.664062 389.195312 98.625 388.660156 94.609375 C 388.5 93.476562 389.429688 92.148438 390.679688 92.34375 C 394.152344 92.898438 397.222656 96.71875 399.710938 99.894531 C 410.003906 103.707031 418.96875 111.96875 426.839844 119.195312 C 434.785156 126.492188 442.425781 134.625 446.164062 145.046875 C 446.292969 145.433594 445.742188 145.707031 445.585938 145.328125 C 441.421875 135.300781 433.597656 127.832031 425.671875 120.859375 C 421.335938 117.035156 416.878906 113.351562 412.175781 109.984375 C 409.40625 108 406.507812 106.359375 403.554688 104.824219 C 404.210938 105.765625 404.820312 106.757812 405.394531 107.773438 C 409.417969 110.398438 413.222656 113.476562 416.914062 116.441406 C 422.457031 120.902344 427.730469 125.671875 432.515625 130.96875 C 441.71875 141.117188 448.746094 153.570312 450.109375 167.535156 C 450.136719 167.835938 449.71875 167.921875 449.652344 167.625 C 446.800781 154.074219 440.15625 142.308594 431.054688 132.207031 C 426.40625 127.050781 421.167969 122.410156 415.660156 118.234375 C 413.125 116.3125 410.472656 114.589844 407.804688 112.882812 C 408.066406 113.558594 408.316406 114.242188 408.539062 114.929688 C 412.667969 118.730469 417.558594 121.402344 421.683594 125.21875 C 426.839844 130.003906 431.527344 135.34375 435.546875 141.160156 C 443.261719 152.320312 447.933594 165.824219 448.878906 179.5 C 448.914062 179.929688 448.285156 180.066406 448.222656 179.628906 C 446.289062 165.335938 441.082031 151.6875 432.625 140.164062 C 428.484375 134.511719 423.53125 128.882812 417.949219 124.679688 C 416.996094 123.964844 415.894531 123.296875 414.765625 122.625 C 422.390625 129.601562 429.023438 137.753906 434.6875 146.421875 C 441.464844 156.777344 444.671875 168.183594 445.671875 180.578125 C 446.699219 193.515625 444.6875 206.621094 439.527344 218.609375 C 436.972656 224.558594 433.421875 230.371094 429.160156 235.234375 C 428.445312 236.050781 427.675781 236.789062 426.875 237.464844 C 425.34375 239.167969 423.679688 240.738281 421.871094 242.152344 C 419.066406 244.351562 415.769531 245.769531 412.910156 247.871094 C 410.625 249.539062 408.628906 251.605469 406.164062 252.957031 C 408.613281 252.589844 411.027344 251.984375 413.359375 251.207031 C 422.703125 248.097656 430.46875 241.34375 436.933594 233.972656 C 437.320312 233.539062 438.042969 234.039062 437.664062 234.492188 C 431.152344 242.253906 423.527344 249.15625 414.296875 253.292969 C 409.863281 255.28125 405.164062 256.1875 400.375 256.328125 C 398.347656 256.386719 395.664062 256.367188 393.125 255.925781 C 386.546875 256.730469 379.710938 255.699219 373.792969 252.859375 C 378.320312 257.761719 385.269531 259.351562 391.59375 260.378906 C 405.210938 262.578125 419.457031 258.113281 430.34375 249.449219 C 430.453125 249.363281 430.582031 249.519531 430.476562 249.609375 C 418.429688 260.210938 404.398438 265.015625 388.632812 262.808594 C 384.941406 262.296875 381.347656 261.285156 378.082031 259.65625 L 378.085938 259.660156 C 378.539062 259.886719 378.988281 260.125 379.441406 260.332031 C 386.277344 263.503906 393.835938 264.925781 401.320312 265.414062 C 410.289062 266.003906 418.179688 263.835938 426.035156 259.308594 C 427.445312 258.496094 428.757812 257.582031 430.027344 256.585938 C 431.511719 255.847656 432.984375 255.035156 434.453125 254.210938 C 434.550781 254.359375 434.671875 254.492188 434.832031 254.589844 C 432.472656 257.027344 429.894531 259.269531 426.878906 261.15625 C 418.832031 266.207031 410.445312 268.75 401.046875 268.597656 C 394.191406 268.480469 387.175781 267.15625 380.699219 264.738281 C 380.855469 264.832031 381.007812 264.925781 381.164062 265.011719 C 384.679688 267.066406 388.746094 268.46875 392.796875 269.5625 C 402.820312 270.675781 413.410156 270.429688 422.628906 265.863281 C 432.078125 261.175781 440.597656 253.226562 447.046875 244.84375 C 461.78125 225.675781 466.285156 200.039062 463.417969 176.570312 C 461.980469 164.746094 458.710938 153.136719 454.117188 142.238281 C 451.816406 136.785156 448.910156 131.722656 445.320312 127.0625 C 441.59375 122.226562 437.027344 118.140625 433.265625 113.324219 C 433.160156 113.203125 433.355469 113.03125 433.460938 113.160156 C 437.019531 117.539062 441.140625 121.371094 444.863281 125.589844 C 448.492188 129.691406 451.425781 134.464844 454 139.3125 C 459.101562 148.960938 462.542969 159.929688 464.683594 170.675781 C 469.101562 192.949219 466.453125 216.414062 455.90625 236.769531 C 447.3125 253.359375 430.433594 270.570312 411.566406 273.53125 C 401.796875 275.0625 390.730469 274.234375 381.277344 271.652344 C 371.492188 268.976562 363.929688 262.351562 359.550781 253.148438 C 356.335938 246.367188 355.375 237.890625 357.679688 230.605469 C 357.804688 228.582031 358.984375 226.34375 359.804688 224.714844 C 360.863281 222.644531 362.160156 220.667969 363.683594 218.898438 C 366.335938 214.324219 370.507812 209.910156 375.898438 211.609375 L 375.90625 211.601562 C 376.269531 211.375 376.679688 211.476562 376.988281 211.726562 C 377.226562 211.707031 377.445312 211.730469 377.652344 211.796875 C 377.5 211.855469 377.355469 211.925781 377.214844 211.980469 C 377.316406 212.136719 377.382812 212.304688 377.398438 212.488281 C 377.640625 212.871094 377.722656 213.351562 377.550781 213.832031 C 376.464844 216.796875 376.863281 219.042969 377.722656 221.929688 C 377.785156 222.144531 377.839844 222.351562 377.910156 222.558594 C 378.5625 223.394531 379.316406 224.15625 380.171875 224.847656 C 384.40625 228.28125 390.847656 229.546875 395.609375 226.292969 C 402.855469 221.328125 403.550781 209.589844 401.628906 201.960938 C 399.210938 192.433594 391.164062 185.304688 382.535156 181.679688 C 382.277344 181.570312 382.421875 181.167969 382.691406 181.261719 C 392.375 184.695312 400.820312 192.320312 403.625 202.625 C 405.96875 211.222656 404.691406 224.726562 396.167969 229.800781 C 390.4375 233.210938 383.292969 231.90625 378.160156 228.132812 C 381.480469 232.351562 387.089844 234.167969 392.292969 233.441406 C 409.992188 230.980469 409.453125 207.964844 403.820312 195.617188 C 403.582031 195.097656 404.351562 194.734375 404.617188 195.234375 C 411.828125 209.550781 412.558594 232.972656 392.957031 237.308594 C 386.464844 238.75 379.878906 236.109375 375.414062 231.4375 C 375.105469 231.117188 374.808594 230.757812 374.53125 230.386719 C 374.894531 230.988281 375.273438 231.585938 375.710938 232.148438 C 376.445312 233.101562 377.261719 233.960938 378.113281 234.796875 C 378.800781 235.347656 379.507812 235.882812 380.195312 236.429688 C 385.550781 239.023438 392.386719 239.964844 397.804688 238.113281 C 409.453125 234.125 415 215.066406 411.386719 204.300781 C 411.292969 204.011719 411.703125 203.792969 411.832031 204.089844 C 417.101562 216.367188 410.753906 237.605469 397.359375 242.148438 C 390.558594 244.453125 381.804688 242.769531 375.378906 238.53125 C 375.945312 239.066406 376.519531 239.582031 377.132812 240.054688 C 383.714844 245.222656 393.066406 245.425781 400.566406 242.109375 C 414.476562 235.953125 419.382812 217.695312 416.996094 203.734375 C 416.921875 203.320312 417.539062 203.210938 417.625 203.617188 C 421.121094 219.929688 416.097656 241.484375 398.46875 247.296875 C 390.378906 249.96875 381.855469 248.914062 375.050781 244.292969 C 381.15625 250.492188 391.777344 251.921875 400.492188 249.136719 C 402.296875 248.375 404.03125 247.453125 405.703125 246.402344 C 406.921875 245.4375 408.101562 244.429688 409.339844 243.488281 C 409.859375 243.09375 410.410156 242.726562 410.960938 242.382812 C 418.550781 235.417969 421.792969 225.578125 422.277344 215.445312 C 422.765625 205.195312 419.496094 195.121094 413.886719 186.78125 C 407.535156 177.359375 397.429688 168.699219 386.890625 164.660156 C 375.597656 160.339844 361.664062 163.835938 350.878906 168.484375 C 341.433594 172.5625 333.789062 179.59375 327.570312 187.816406 C 317.324219 201.34375 311.140625 218.519531 311.320312 235.511719 C 311.5 253.269531 320.183594 269.328125 331.933594 281.773438 C 337.703125 287.886719 344.308594 292.988281 351.488281 296.964844 C 343.324219 291.898438 335.957031 285.457031 329.769531 278.167969 C 319.585938 266.191406 313.382812 251.527344 313.679688 235.453125 C 313.84375 226.734375 315.914062 218.175781 318.710938 209.925781 C 322.003906 200.203125 328.160156 193.21875 334.605469 185.5 C 334.945312 185.09375 335.558594 185.519531 335.277344 185.980469 C 330.609375 193.425781 324.90625 199.410156 321.777344 207.828125 C 318.785156 215.894531 317.039062 224.429688 316.726562 233 C 316.128906 248.984375 321.933594 262.894531 331.726562 274.898438 C 333.820312 277.042969 335.917969 279.144531 338.054688 281.171875 C 342.703125 284.957031 347.6875 288.308594 353.007812 290.804688 C 357.820312 293.066406 362.859375 294.488281 367.992188 295.746094 C 365.480469 294.816406 363.023438 293.78125 360.625 292.660156 C 352.175781 288.699219 343.617188 283.542969 336.910156 276.953125 C 324.523438 264.773438 316.8125 247.707031 318.878906 229.851562 C 320.800781 213.175781 329.734375 195.914062 343.195312 185.839844 C 343.664062 185.488281 344.214844 186.148438 343.757812 186.539062 C 331.121094 197.167969 322.933594 213.589844 321.214844 230.023438 C 319.425781 247.269531 327.707031 264.195312 339.902344 275.519531 C 353.253906 287.90625 372.457031 296.277344 390.644531 296.5625 C 395.820312 296.640625 401.132812 296.234375 406.390625 295.671875 C 409.902344 294.265625 413.492188 293.199219 417.164062 292.203125 C 419.800781 291.492188 422.394531 290.660156 424.945312 289.65625 C 426.496094 289.042969 427.929688 288.121094 429.429688 287.410156 C 429.378906 287.339844 429.328125 287.273438 429.285156 287.199219 C 425.265625 289.449219 419.769531 290.070312 415.855469 291.296875 C 407.960938 293.769531 399.816406 294.644531 391.617188 294.277344 C 376.097656 293.601562 360.984375 287.253906 348.511719 278.234375 C 336.542969 269.578125 328.21875 257.1875 326.773438 242.019531 C 325.449219 227.996094 329.839844 210.898438 339.449219 200.246094 C 339.617188 200.066406 339.929688 200.273438 339.765625 200.46875 C 335.710938 205.238281 334.179688 212.183594 332.234375 218.042969 C 330.078125 224.519531 329.921875 233.28125 330.496094 240.015625 C 331.738281 254.730469 339.667969 266.140625 351.109375 274.539062 C 362.601562 282.988281 376.554688 287.917969 390.714844 289.148438 C 397.929688 289.78125 405.234375 289.046875 412.273438 287.203125 C 417.25 285.902344 422.792969 284.679688 427.785156 282.804688 C 427.929688 281.222656 428.996094 279.777344 431.46875 278.832031 C 440.289062 275.449219 448.113281 269.871094 455.109375 263.367188 C 469.542969 249.9375 477.710938 230.945312 480.824219 211.671875 C 483.976562 192.152344 482.292969 171.175781 476.425781 152.496094 C 473.386719 142.851562 469.164062 133.527344 463.449219 125.253906 C 457.9375 117.246094 450.9375 110.5625 444.75 103.15625 C 443.535156 102.195312 442.3125 101.25 441.085938 100.308594 C 438.4375 98.6875 435.929688 96.902344 433.757812 94.8125 C 417.207031 82.851562 399.316406 72.753906 380.347656 65.238281 C 361.617188 57.820312 342.0625 53.988281 321.972656 52.621094 C 303.125 51.34375 284.015625 52.316406 265.476562 56.503906 C 253.015625 59.320312 240.769531 64.117188 229.238281 70.191406 C 219.972656 73.667969 188.003906 99.363281 180.59375 106.078125 L 169.761719 108.164062 C 203.65625 75.746094 244.347656 50.03125 289.433594 38.238281 C 300.492188 35.34375 311.710938 33.484375 323.019531 32.011719 C 334.976562 30.453125 346.988281 29 359.042969 29.179688 C 371.082031 29.351562 382.9375 31.597656 394.707031 33.839844 C 404.660156 35.730469 414.695312 37.152344 424.625 39.121094 C 442.296875 42.632812 514.191406 50.453125 530.109375 41.902344 C 530.457031 41.710938 530.800781 41.75 531.082031 41.90625 C 539.457031 40.171875 539.492188 66.867188 538.988281 71.203125 C 538.84375 72.5 538.5625 73.800781 538.191406 75.09375 C 539.023438 74.640625 539.824219 74.269531 540.476562 74.019531 C 545.804688 71.9375 551.773438 71.875 557.375 71.910156 C 563.371094 71.949219 569.203125 72.339844 575.195312 71.464844 C 582.8125 70.355469 589.613281 67.316406 595.839844 62.808594 C 595.914062 61.78125 597.085938 60.960938 598.136719 61.644531 C 606.171875 66.84375 607.410156 79.199219 607.253906 87.996094 C 607.0625 98.441406 604.417969 109.238281 600.214844 118.808594 C 595.839844 128.796875 589.042969 137.957031 580.996094 145.195312 C 577.949219 147.933594 573.285156 151.441406 568.328125 153.75 C 572.4375 156.085938 576.015625 160.335938 575.113281 164.617188 C 574.3125 168.40625 570.09375 171.640625 567.289062 173.914062 C 563.296875 177.152344 558.816406 179.777344 554.148438 181.839844 C 544.898438 185.9375 534.265625 185.761719 524.925781 182.503906 C 521.796875 181.414062 514.695312 179.570312 510.199219 176.484375 C 513.851562 183.992188 517 191.765625 519.582031 199.777344 C 525.484375 218.09375 527.300781 236.6875 527.601562 255.945312 C 527.773438 266.976562 527.9375 278.0625 529.453125 288.992188 C 530.59375 297.097656 532.226562 308.453125 540.839844 311.664062 C 541.800781 312.027344 541.785156 313.019531 541.257812 313.601562 C 539.097656 319.488281 530.382812 321.261719 525.085938 322.101562 C 517.503906 323.3125 509.753906 322.4375 502.410156 320.546875 C 487.816406 316.796875 472.90625 305.480469 470.132812 289.761719 C 465.132812 295.460938 456.949219 297.488281 449.71875 297.453125 C 446.910156 297.433594 443.101562 296.773438 439.585938 295.410156 C 435.410156 297.585938 431.679688 300.738281 427.578125 303.09375 C 422.652344 305.933594 416.566406 307.351562 411.125 308.738281 C 399.949219 311.597656 388.550781 312.472656 377.195312 310.929688 C 355.941406 308.042969 336.984375 296.289062 323.390625 279.792969 C 311.265625 265.082031 304.902344 246.152344 306.898438 226.78125 C 308.855469 207.722656 318.53125 188.957031 332.105469 175.683594 C 344.085938 163.964844 362.824219 156.167969 379.761719 158.070312 C 379.3125 155.339844 378.175781 152.832031 376.644531 150.484375 C 375.5625 148.847656 374.226562 147.40625 372.777344 146.101562 C 371.871094 145.285156 370.851562 144.761719 370.042969 143.894531 C 361.964844 140.636719 353.417969 135.546875 350.148438 127.246094 C 350.078125 127.183594 350.007812 127.117188 349.9375 127.050781 C 349.40625 128.960938 348.628906 130.84375 347.570312 132.683594 C 344.097656 138.667969 339.117188 142.6875 332.523438 144.464844 C 329.238281 145.351562 325.308594 145.109375 322.363281 143.433594 C 297.496094 110.402344 238.964844 126.84375 201.335938 147.679688 M 301.675781 41.609375 C 312.210938 40.683594 322.824219 40.632812 333.269531 41.105469 C 355.625 42.117188 377.105469 47.28125 398.167969 54.519531 C 409.515625 58.421875 420.828125 61.945312 432.539062 64.640625 C 444.828125 67.464844 457.28125 69.566406 469.636719 72.121094 C 488.792969 76.09375 510.988281 73.808594 526.210938 59.835938 C 526.636719 59.449219 527.152344 60.113281 526.765625 60.511719 C 513.570312 74.070312 494.929688 79.402344 476.722656 77.582031 C 465.304688 76.4375 453.828125 73.378906 442.589844 71.121094 C 430.378906 68.664062 418.285156 65.808594 406.53125 61.6875 C 388.449219 55.371094 370.359375 49.441406 351.46875 46.660156 C 366.089844 49.695312 380.214844 54.625 394.148438 60.191406 C 414.199219 68.199219 433.894531 77.023438 455.328125 80.667969 C 465.453125 82.378906 475.726562 82.726562 485.988281 82.632812 C 495.476562 82.542969 505.40625 81.953125 513.941406 77.136719 C 514.347656 76.910156 514.628906 77.5625 514.234375 77.796875 C 506.707031 82.359375 498.367188 83.839844 489.816406 84.777344 C 480.242188 85.835938 470.546875 85.648438 461.011719 84.652344 C 439.710938 82.425781 419.871094 74.257812 400.234375 66.246094 C 393.386719 63.460938 386.503906 60.832031 379.539062 58.457031 C 385.085938 61.207031 390.5625 64.101562 396.027344 66.878906 C 411.457031 74.730469 427.179688 80.738281 443.96875 84.960938 C 460.246094 89.054688 478.203125 92.324219 495.058594 89.796875 C 495.476562 89.738281 495.589844 90.390625 495.167969 90.464844 C 474.226562 94.3125 452.683594 91.777344 432.261719 85.699219 C 433.710938 86.28125 435.15625 86.851562 436.601562 87.363281 C 443.847656 89.972656 451.148438 92.289062 458.75 93.714844 C 465.6875 95.015625 472.671875 96.570312 479.734375 97.070312 C 486.769531 97.570312 493.613281 95.800781 500.539062 94.703125 C 501.253906 94.589844 501.433594 95.667969 500.726562 95.832031 C 494.648438 97.242188 488.804688 99.023438 482.546875 99.265625 C 475.039062 99.566406 467.449219 98.117188 460.054688 97.089844 C 455.636719 96.476562 451.296875 95.554688 447.015625 94.433594 C 447.320312 94.582031 447.632812 94.734375 447.945312 94.871094 C 453.550781 97.355469 459.46875 99.191406 465.367188 100.820312 C 476.796875 103.972656 489.507812 106.980469 501.230469 103.25 C 502.039062 102.992188 502.472656 104.40625 501.667969 104.675781 C 491.316406 108.132812 480.679688 107.691406 470.226562 105.679688 C 470.234375 105.703125 470.253906 105.695312 470.269531 105.707031 C 470.414062 105.753906 470.554688 105.808594 470.707031 105.851562 C 473.183594 106.644531 475.695312 107.328125 478.214844 107.90625 C 480.34375 107.960938 482.449219 108.453125 484.535156 109.109375 C 487.378906 109.53125 490.238281 109.808594 493.136719 109.917969 C 507.441406 110.441406 521.992188 106.523438 534.078125 98.457031 C 534.300781 98.308594 534.554688 98.621094 534.335938 98.777344 C 522.695312 106.84375 510.046875 111.4375 496.089844 112.613281 C 496.054688 112.605469 496.019531 112.617188 496 112.621094 C 501.3125 113.636719 506.851562 113.660156 512.222656 113.320312 C 523.667969 112.59375 536.675781 109.460938 545.351562 101.316406 C 545.402344 101.273438 545.46875 101.351562 545.417969 101.402344 C 533.460938 112.886719 516.316406 117.550781 499.859375 116.402344 C 503.070312 117.023438 506.289062 117.589844 509.445312 118.136719 C 525.964844 120.992188 546.0625 115.457031 559.414062 104.957031 C 559.773438 104.675781 560.207031 105.207031 559.851562 105.492188 C 546.058594 116.6875 526.6875 123.78125 509.140625 121.582031 C 507.191406 121.34375 505.230469 121.0625 503.253906 120.75 C 514.511719 123.652344 525.835938 124.171875 537.695312 121.984375 C 551.59375 119.417969 566.121094 112.457031 575.644531 101.5625 C 576.097656 101.039062 576.964844 101.632812 576.519531 102.1875 C 567.738281 113.042969 556.472656 120.820312 543.308594 125.019531 C 538.328125 126.613281 533.359375 127.585938 528.394531 128.035156 C 537.53125 127.8125 546.644531 125.664062 555.082031 122.015625 C 555.417969 121.863281 555.761719 121.707031 556.105469 121.550781 C 560.121094 119.558594 564.046875 117.242188 567.921875 114.683594 C 568.441406 114.339844 568.949219 113.964844 569.464844 113.59375 C 572.335938 111.441406 575.089844 109.074219 577.679688 106.511719 C 586.71875 97.214844 593.5625 84.742188 595.757812 72.484375 C 595.769531 72.433594 595.792969 72.378906 595.828125 72.335938 C 595.839844 72.238281 595.84375 72.136719 595.855469 72.03125 C 594.757812 73.457031 593.585938 74.757812 592.683594 75.839844 C 589.003906 80.222656 585.0625 84.839844 580.632812 88.441406 C 580.539062 88.519531 580.4375 88.386719 580.515625 88.3125 C 584.210938 84.472656 586.78125 79.636719 590.222656 75.574219 C 591.894531 73.597656 593.378906 71.484375 594.785156 69.3125 C 595.382812 68.390625 595.84375 67.40625 596.363281 66.46875 C 596.371094 66.464844 596.363281 66.433594 596.363281 66.417969 C 596.222656 66.515625 596.085938 66.613281 595.96875 66.691406 C 595.792969 66.8125 595.589844 66.816406 595.417969 66.753906 C 593.414062 68.3125 590.96875 69.300781 588.847656 70.691406 C 586.386719 72.296875 584.109375 74.21875 581.957031 76.21875 C 577.390625 80.441406 573.515625 85.351562 569.117188 89.746094 C 568.804688 90.0625 568.292969 89.566406 568.566406 89.21875 C 572.347656 84.367188 576.34375 79.679688 580.667969 75.3125 C 580.460938 75.28125 580.308594 75.125 580.226562 74.925781 C 577.535156 76.386719 574.15625 77.089844 571.558594 78.375 C 566.953125 80.644531 562.433594 84.800781 558.816406 88.460938 C 558.804688 88.492188 558.761719 88.449219 558.78125 88.425781 C 562.195312 84.574219 565.433594 80.625 569.582031 77.554688 C 570.578125 76.816406 571.789062 76.058594 573.097656 75.347656 C 571.230469 75.695312 569.34375 75.949219 567.441406 76.121094 C 566.371094 76.5625 565.253906 76.921875 564.175781 77.386719 C 561.785156 78.417969 559.492188 79.703125 557.25 81.039062 C 552.324219 83.960938 547.398438 87.0625 542.585938 90.175781 C 542.476562 90.222656 542.386719 90.066406 542.476562 89.996094 C 547.183594 86.632812 551.425781 82.652344 556.261719 79.4375 C 557.582031 78.566406 559.125 77.503906 560.761719 76.511719 C 558.210938 76.519531 555.90625 76.234375 553.367188 77.109375 C 550.6875 78.03125 548.214844 79.664062 545.898438 81.285156 C 541.859375 84.101562 538.074219 87.449219 533.769531 89.824219 C 533.355469 90.050781 533.074219 89.402344 533.46875 89.164062 C 538.8125 85.984375 543.074219 81.265625 548.203125 77.769531 C 548.636719 77.472656 549.109375 77.160156 549.601562 76.855469 C 548.777344 76.945312 547.957031 77.042969 547.128906 77.175781 C 544.394531 77.621094 541.804688 78.484375 539.414062 79.925781 C 537.589844 81.019531 536.328125 83.367188 534.214844 83.761719 L 534.203125 83.765625 C 532.597656 86.347656 530.734375 88.730469 528.847656 90.773438 C 524.367188 95.617188 515.34375 100.550781 509.199219 96.171875 C 508.605469 95.75 508.828125 94.742188 509.558594 94.609375 C 512.503906 94.078125 515.414062 94.34375 518.300781 93.304688 C 521.4375 92.179688 524.0625 90.109375 526.382812 87.738281 C 530.472656 83.570312 533.972656 77.132812 534.972656 71.328125 C 535.769531 66.699219 535.242188 61.664062 534.769531 57.054688 C 534.457031 54.023438 534.136719 48.332031 531.449219 46.039062 C 530.652344 48.769531 528.773438 51.511719 526.433594 53.226562 C 522.457031 57.835938 516.25 60.730469 510.960938 63.007812 C 501.476562 67.085938 491.964844 69.199219 481.707031 68.667969 C 456.847656 67.394531 432.578125 60.367188 408.859375 53.515625 C 383.890625 46.292969 358.75 39.257812 332.511719 38.910156 C 322.34375 38.777344 311.78125 39.457031 301.679688 41.613281 Z M 366.136719 34.960938 C 372.378906 36.039062 378.546875 37.742188 384.6875 39.140625 C 394.878906 41.476562 405.152344 43.3125 415.308594 45.796875 C 426.121094 48.445312 436.835938 51.375 447.695312 53.824219 C 457.15625 55.957031 466.78125 57.574219 476.402344 58.835938 C 484.527344 59.898438 492.882812 60.269531 500.914062 58.113281 C 506.144531 56.707031 511.261719 54.882812 516.269531 52.769531 C 517.972656 52.054688 526.324219 48.867188 528.15625 45.894531 C 497.1875 64.886719 458.957031 53.972656 426.230469 46.808594 C 416.546875 44.6875 406.789062 42.933594 397.089844 40.867188 C 386.851562 38.691406 376.578125 36.109375 366.136719 34.960938 Z M 525.398438 50.816406 C 520.167969 54.195312 514.152344 56.328125 508.394531 58.527344 C 502.980469 60.597656 497.71875 62.328125 491.925781 62.757812 C 482.894531 63.425781 473.824219 61.847656 464.953125 60.414062 C 442.167969 56.734375 420.222656 49.636719 397.578125 45.367188 C 395.808594 45.03125 394.046875 44.679688 392.277344 44.335938 C 393.292969 44.613281 394.296875 44.894531 395.304688 45.175781 C 407.328125 48.570312 419.253906 52.285156 431.308594 55.578125 C 444.015625 59.046875 456.808594 61.492188 469.792969 63.640625 C 481.125 65.511719 492.664062 67.109375 503.867188 63.285156 C 512.550781 60.320312 522.566406 56.957031 528.019531 48.960938 C 527.144531 49.6875 526.1875 50.308594 525.398438 50.816406 Z M 598.597656 67.230469 C 598.570312 67.324219 598.546875 67.410156 598.507812 67.496094 C 599.839844 76.300781 593.800781 87.121094 589.855469 94.273438 C 587.214844 99.058594 584.128906 103.550781 580.644531 107.679688 C 578.554688 110.398438 576.25 112.925781 573.613281 115.144531 C 572.8125 115.8125 572.003906 116.46875 571.183594 117.105469 C 568.140625 119.648438 564.890625 121.960938 561.453125 123.980469 C 555.464844 127.496094 548.957031 130.003906 542.253906 131.574219 C 538.054688 132.6875 533.757812 133.441406 529.398438 133.808594 C 520.300781 134.5625 511.253906 133.527344 502.484375 131.296875 C 514.535156 135.332031 528.1875 137.097656 540.460938 135.527344 C 554.144531 133.777344 568.03125 126.417969 578.21875 117.042969 C 588.527344 107.554688 595.710938 94.332031 599.152344 80.761719 C 599.175781 80.660156 599.230469 80.605469 599.296875 80.582031 C 599.636719 78.679688 599.871094 76.753906 600.074219 74.90625 C 600.328125 72.730469 599.90625 70.753906 599.570312 68.75 C 599.253906 68.234375 598.933594 67.734375 598.597656 67.234375 Z M 602.050781 74.054688 C 601.539062 77.257812 600.226562 80.515625 599.066406 83.378906 C 595.679688 96.273438 589.957031 108.390625 580.886719 118.292969 C 571.039062 129.050781 556.558594 136.671875 542.539062 139.574219 C 535.976562 140.925781 529.25 140.71875 522.644531 140.011719 C 532.996094 141.914062 543.804688 142.066406 553.878906 139.566406 C 580.660156 132.921875 602.085938 106.964844 603.125 78.859375 C 602.996094 78.027344 602.851562 77.191406 602.675781 76.371094 C 602.511719 75.566406 602.292969 74.796875 602.050781 74.054688 Z M 603.699219 87.195312 C 602.15625 97.234375 597.660156 106.929688 592.117188 115.316406 C 583.398438 128.507812 570.945312 137.933594 556.195312 142.960938 C 542.570312 147.605469 527.367188 146.53125 513.578125 142.988281 C 524.5 147.328125 536.40625 149.742188 547.867188 148.515625 C 563 146.894531 576.835938 138.644531 586.597656 126.824219 C 591.671875 120.6875 595.5 113.773438 598.839844 106.550781 C 600.433594 103.097656 601.921875 99.457031 602.980469 95.71875 C 603.203125 94.089844 603.394531 92.449219 603.527344 90.816406 C 603.621094 89.613281 603.679688 88.402344 603.699219 87.195312 Z M 589.492188 127.132812 C 580.015625 140.300781 565.113281 148.691406 549.566406 151.425781 C 539.667969 153.175781 529.738281 152.15625 520.21875 149.472656 C 520.65625 149.6875 521.097656 149.890625 521.570312 150.070312 C 525.039062 151.402344 528.804688 152.039062 532.429688 152.84375 C 536.757812 153.808594 540.9375 154.304688 545.382812 154.234375 C 546.1875 154.222656 547 154.230469 547.808594 154.230469 C 548.832031 153.851562 549.964844 153.746094 551.035156 153.53125 C 551.757812 153.394531 552.507812 153.230469 553.242188 153.164062 C 553.332031 153.0625 553.441406 152.976562 553.574219 152.933594 C 556.273438 152.007812 559.074219 151.777344 561.851562 151.3125 C 567.617188 149.257812 573.050781 146.265625 577.738281 142.335938 C 588.042969 133.707031 595.230469 121.558594 600.042969 109.082031 C 600.261719 108.351562 600.488281 107.613281 600.691406 106.875 C 597.664062 113.953125 593.957031 120.929688 589.492188 127.132812 Z M 517.3125 157.175781 C 525.679688 161.09375 535.421875 164.550781 544.796875 163.398438 C 550.492188 162.707031 557.769531 160.417969 561.925781 155.878906 C 561.148438 156.019531 560.375 156.117188 559.601562 156.15625 C 557.289062 156.894531 554.914062 157.5 552.53125 157.949219 C 547.53125 159.5 542.527344 160.0625 536.867188 159.625 C 527.359375 158.878906 518.390625 155.152344 509.664062 151.59375 C 505.808594 150.03125 502.003906 148.335938 498.261719 146.492188 C 504.304688 150.566406 510.710938 154.082031 517.3125 157.175781 Z M 564.171875 156.46875 C 561.410156 161.125 554.347656 163.351562 549.769531 164.738281 C 540.824219 167.445312 532.113281 165.507812 523.511719 162.761719 C 514.101562 159.769531 505.042969 154.808594 496.816406 149.238281 C 498.351562 151.308594 500.003906 153.273438 501.914062 155.03125 C 503.289062 156.277344 504.789062 157.480469 506.371094 158.613281 C 511.203125 161.453125 516.328125 163.816406 521.570312 165.738281 C 522.199219 165.96875 522.835938 166.183594 523.46875 166.398438 C 523.695312 166.4375 523.90625 166.492188 524.132812 166.535156 C 524.3125 166.566406 524.441406 166.652344 524.546875 166.746094 C 532.140625 169.132812 540.171875 170.152344 548.125 168.964844 C 556.128906 167.777344 561.332031 163.070312 567.214844 158.277344 C 566.238281 157.621094 565.191406 157.058594 564.171875 156.46875 Z M 568.742188 159.457031 C 563.964844 164.8125 557.964844 168.851562 551.105469 170.816406 C 542.613281 173.234375 533.125 172.019531 524.765625 169.980469 C 516.121094 167.871094 507.804688 163.675781 500.382812 158.761719 C 500.464844 158.894531 500.550781 159.019531 500.636719 159.144531 C 502.574219 160.863281 504.621094 162.484375 506.894531 163.953125 C 514.289062 168.789062 522.785156 171.941406 531.472656 173.433594 C 543.800781 175.546875 563.398438 173.644531 569.894531 160.714844 C 569.59375 160.304688 569.214844 159.882812 568.742188 159.457031 Z M 570.777344 162.886719 C 564.519531 175.472656 545.980469 178.164062 533.746094 176.902344 C 524.378906 175.941406 515.398438 172.605469 507.246094 167.988281 C 506.539062 167.582031 505.816406 167.148438 505.082031 166.710938 C 505.113281 166.753906 505.144531 166.804688 505.167969 166.851562 C 506.488281 167.863281 507.890625 168.777344 509.238281 169.683594 C 511.601562 171.289062 513.890625 173.035156 516.210938 174.726562 C 518.613281 175.777344 521.09375 176.636719 523.546875 177.542969 C 531.480469 180.480469 539.320312 181.859375 547.757812 179.847656 C 555.328125 178.039062 562.785156 173.175781 568.253906 167.621094 C 569.917969 165.921875 570.878906 164.417969 570.78125 162.886719 Z M 505.5625 187.917969 C 508.414062 199.726562 509.695312 212.035156 509.660156 224.394531 C 509.613281 242.921875 508.628906 261.488281 509.71875 279.992188 C 510.175781 287.90625 511.566406 295.945312 515.984375 302.570312 C 516.785156 303.761719 517.695312 304.800781 518.691406 305.734375 C 517.761719 303.816406 517.054688 301.78125 516.484375 299.964844 C 512.484375 287.15625 513.695312 273.898438 513.453125 260.609375 C 513.082031 240.070312 512.613281 218.804688 508.339844 198.71875 C 507.574219 195.066406 506.625 191.46875 505.5625 187.917969 Z M 508.996094 193.394531 C 513.167969 209.523438 514.042969 226.300781 514.847656 242.972656 C 515.585938 258.085938 514.988281 273.65625 517.878906 288.519531 C 518.660156 292.503906 519.726562 296.417969 521.261719 300.144531 C 520.136719 295.496094 519.734375 290.585938 519.441406 286.644531 C 518.289062 271.15625 518.371094 255.664062 517.511719 240.148438 C 516.671875 225.152344 514.296875 210.191406 510.125 195.832031 C 509.734375 195.027344 509.359375 194.210938 508.996094 193.394531 Z M 515.558594 208.582031 C 517.085938 215.878906 518.222656 223.183594 519.027344 230.328125 C 519.957031 238.609375 520.308594 246.972656 520.671875 255.308594 C 521.019531 263.425781 520.679688 271.558594 521.9375 279.601562 C 522.21875 281.449219 522.460938 283.367188 522.707031 285.320312 C 523.105469 286.375 523.492188 287.433594 523.863281 288.476562 C 522.355469 280.167969 522.09375 271.503906 521.835938 263.140625 C 521.515625 252.457031 521.5625 241.75 520.59375 231.121094 C 519.882812 226.261719 519.066406 221.425781 517.964844 216.640625 C 517.335938 213.902344 516.507812 211.222656 515.558594 208.582031 Z M 517.113281 310.859375 C 511.515625 306.78125 508.496094 299.90625 506.738281 293.328125 C 504.828125 286.167969 504.976562 278.484375 505.273438 271.101562 C 505.675781 260.890625 506.472656 250.683594 506.992188 240.480469 C 507.917969 222.417969 507.957031 204.335938 503.546875 186.785156 C 501.496094 178.589844 498.460938 170.863281 494.808594 163.425781 C 496.21875 167.34375 497.710938 171.226562 499.09375 175.152344 C 505.367188 192.929688 505.453125 212.335938 504.703125 231.152344 C 503.964844 249.851562 500.914062 268.894531 502.460938 287.582031 C 503.15625 291.773438 503.621094 296.011719 505.703125 299.921875 C 507.542969 303.398438 510.640625 306.445312 513.660156 308.917969 C 514.699219 309.558594 515.773438 310.175781 516.878906 310.746094 C 516.957031 310.789062 517.035156 310.820312 517.113281 310.859375 Z M 504.554688 306.800781 C 503.78125 305.847656 503.066406 304.898438 502.445312 303.96875 C 492.550781 289.121094 498.980469 268.859375 500.90625 252.453125 C 502.160156 241.761719 502.753906 230.933594 502.886719 220.199219 C 503.015625 209.773438 503.050781 198.578125 501.203125 188.324219 C 499.957031 181.441406 497.492188 174.742188 494.976562 168.117188 C 495.109375 168.554688 495.253906 168.992188 495.378906 169.441406 C 500.613281 187.695312 501.691406 206.792969 499.492188 225.707031 C 497.371094 243.886719 492.515625 261.925781 492.15625 280.269531 C 492.066406 284.820312 492.777344 289.113281 494.164062 293.160156 C 495.625 296.773438 497.578125 300.183594 500.328125 303.328125 C 500.335938 303.351562 500.355469 303.375 500.378906 303.390625 C 501.242188 304.121094 502.117188 304.835938 503.003906 305.5625 C 503.511719 305.988281 504.027344 306.398438 504.558594 306.800781 Z M 493.398438 303.746094 C 491.570312 300.753906 490.117188 297.515625 489.117188 294.171875 C 487.160156 287.5625 487.027344 280.667969 487.777344 273.710938 C 487.777344 273.664062 487.761719 273.613281 487.75 273.5625 C 487.730469 273.378906 487.777344 273.222656 487.839844 273.089844 C 489.074219 262.378906 492.316406 251.554688 494.121094 241.449219 C 495.835938 231.824219 497.257812 222.152344 497.785156 212.394531 C 498.289062 203.042969 497.355469 193.84375 495.84375 184.691406 C 495.851562 185.105469 495.867188 185.515625 495.875 185.929688 C 495.910156 187.261719 495.914062 188.59375 495.894531 189.929688 C 496.238281 192.9375 496.503906 195.953125 496.621094 198.949219 C 497.183594 213.207031 495.851562 227.050781 492.167969 240.878906 C 488.765625 253.625 484.652344 266.625 483.875 279.859375 C 483.867188 280.214844 483.855469 280.582031 483.859375 280.9375 C 483.8125 286.28125 485.410156 291.199219 487.753906 295.878906 C 489.269531 298.933594 491.210938 301.480469 493.398438 303.746094 Z M 482.023438 296.425781 C 481.75 295.601562 481.492188 294.765625 481.265625 293.910156 C 477.945312 281.113281 480.871094 267.144531 484.78125 254.753906 C 486.976562 247.804688 489.15625 240.871094 490.867188 233.792969 C 492.671875 226.40625 493.34375 219 493.660156 211.464844 C 493.347656 214.207031 492.976562 216.9375 492.542969 219.640625 C 489.835938 236.367188 483.976562 251.894531 479.195312 268.039062 C 478.429688 270.621094 477.734375 273.253906 477.199219 275.917969 C 476.992188 278.273438 476.957031 280.621094 477.109375 283.011719 C 477.347656 286.640625 478.527344 289.359375 480.058594 292.597656 C 480.675781 293.882812 481.320312 295.167969 482.023438 296.425781 Z M 469.71875 270.574219 C 463.253906 278.429688 454.554688 285.71875 445.296875 287.257812 C 445.488281 287.292969 445.679688 287.324219 445.867188 287.351562 C 447.371094 287.308594 448.863281 287.210938 450.410156 286.933594 C 451.5625 286.734375 452.699219 286.425781 453.824219 286.082031 C 455.390625 285.015625 456.933594 283.894531 458.625 283.199219 C 461.066406 281.277344 463.367188 279.316406 465.457031 277.089844 C 466.484375 275.90625 467.472656 274.679688 468.402344 273.417969 C 468.84375 272.476562 469.277344 271.515625 469.71875 270.574219 Z M 467.800781 256.757812 C 464.261719 261.617188 460.160156 265.894531 455.707031 269.792969 C 457.117188 269.257812 458.539062 268.609375 459.894531 267.878906 C 463.164062 265.140625 466.1875 262.058594 468.9375 258.65625 C 476.542969 249.222656 480.894531 237.195312 483.78125 225.226562 C 484.632812 220.53125 485.222656 215.800781 485.578125 211.050781 C 483.449219 227.4375 477.542969 243.363281 467.800781 256.757812 Z M 466.902344 269.15625 C 467.167969 268.78125 467.429688 268.410156 467.683594 268.027344 C 469.410156 265.382812 470.890625 262.585938 472.226562 259.714844 C 471.789062 260.367188 471.363281 261.011719 470.902344 261.632812 C 463.078125 272.375 451.722656 280.589844 439.121094 284.28125 C 449.503906 286.117188 459.542969 278.039062 466.902344 269.15625 Z M 359.082031 133.132812 C 359.042969 131.277344 358.929688 129.457031 358.4375 127.539062 C 357.625 124.34375 355.898438 121.339844 354.128906 118.625 C 352.746094 116.476562 351.203125 114.425781 349.628906 112.402344 C 350.109375 114.023438 350.453125 115.679688 350.644531 117.347656 C 352.066406 118.976562 353.246094 120.839844 354.257812 122.644531 C 355.15625 124.214844 356.792969 128.011719 356.101562 130.347656 C 357.058594 131.332031 358.042969 132.261719 359.082031 133.132812 Z M 353 126.707031 C 352.648438 125.480469 352.058594 124.316406 351.496094 123.191406 C 351.28125 122.765625 351.046875 122.34375 350.796875 121.929688 C 350.773438 122.273438 350.738281 122.609375 350.710938 122.941406 C 351.035156 123.574219 351.429688 124.257812 351.757812 124.949219 C 352.160156 125.550781 352.570312 126.140625 352.996094 126.707031 Z M 315.792969 121.917969 C 315.4375 121.558594 315.0625 121.210938 314.675781 120.851562 C 308.761719 115.527344 301.484375 111.710938 294.085938 108.96875 C 275.535156 102.089844 255.117188 109.449219 237.679688 117.628906 C 217.21875 127.234375 212.890625 133.472656 229.371094 124.46875 C 245.722656 115.53125 263.652344 106.03125 282.320312 107.875 C 291.921875 108.820312 300.941406 112.257812 309.125 117.234375 C 311.453125 118.640625 313.691406 120.203125 315.792969 121.917969 Z M 310.441406 126.664062 C 308.683594 125.367188 306.851562 124.167969 305.074219 122.996094 C 297.253906 117.8125 288.363281 114.402344 279.019531 113.394531 C 270.09375 112.417969 261.238281 114.742188 252.679688 117.21875 C 251.210938 117.644531 249.753906 118.125 248.296875 118.628906 C 252.480469 117.476562 256.738281 116.746094 261.03125 116.253906 C 265.019531 115.667969 269.050781 115.382812 273.082031 115.382812 C 280.65625 115.226562 287.9375 116.398438 295.121094 118.894531 C 297.339844 119.660156 299.347656 120.886719 301.292969 122.210938 C 304.304688 123.523438 307.453125 124.984375 310.441406 126.664062 Z M 310.441406 126.664062 "/>
</g>
<g clip-path="url(#clip2)" clip-rule="nonzero">
<path style=" stroke:none;fill-rule:nonzero;fill:rgb(0%,0%,0%);fill-opacity:1;" d="M 1142.199219 142.796875 L 1170.050781 142.796875 L 1170.050781 138.800781 L 1142.199219 138.800781 C 1113.671875 138.800781 1072.003906 138.773438 1036.558594 146.207031 C 1004.636719 152.902344 961.90625 178.089844 948.511719 185.082031 L 953.976562 197.355469 C 961.765625 190.089844 1003.671875 158.222656 1038.023438 150.609375 C 1073.007812 142.855469 1117.023438 142.796875 1142.199219 142.796875 "/>
</g>
<g clip-path="url(#clip3)" clip-rule="nonzero">
<path style=" stroke:none;fill-rule:nonzero;fill:rgb(0%,0%,0%);fill-opacity:1;" d="M 1142.199219 183.867188 L 1170.050781 183.867188 L 1170.050781 179.855469 L 1142.199219 179.855469 C 1127.183594 179.855469 1079.296875 177.1875 1040.417969 190.128906 C 1021.40625 196.453125 999.425781 206.9375 987.902344 218.136719 L 994.820312 219.429688 C 1005.625 210.519531 1019.730469 200.953125 1041.464844 194.019531 C 1073.96875 183.65625 1112.605469 183.554688 1142.199219 183.867188 "/>
</g>
<path style=" stroke:none;fill-rule:nonzero;fill:rgb(0%,0%,0%);fill-opacity:1;" d="M 972.664062 177.761719 C 948.796875 208.132812 914.402344 229.496094 885.265625 228.941406 C 866.3125 228.578125 848.378906 214.070312 841.464844 195.996094 C 841.394531 195.839844 841.335938 195.683594 841.285156 195.523438 C 841.175781 195.230469 841.0625 194.933594 840.964844 194.636719 C 840.941406 194.5625 840.921875 194.492188 840.890625 194.425781 C 840.480469 193.199219 840.136719 191.941406 839.828125 190.660156 C 839.308594 189.800781 838.90625 188.871094 838.648438 187.902344 C 838.027344 190.300781 837.984375 192.925781 837.9375 195.363281 C 837.792969 202.582031 841.265625 211.480469 846.886719 215.910156 C 847.445312 216.347656 846.855469 217.148438 846.257812 216.804688 C 841.65625 214.152344 838.527344 209.871094 836.632812 204.984375 C 834.773438 201.667969 833.761719 197.675781 833.21875 194.121094 C 832.964844 192.4375 832.863281 188.761719 833.546875 185.664062 C 833.171875 186.078125 832.824219 186.574219 832.523438 187.183594 C 831.15625 189.90625 831.136719 193.265625 831.3125 196.222656 C 831.667969 202.035156 833.273438 208.757812 836.492188 213.613281 C 836.800781 214.078125 836.230469 214.542969 835.835938 214.167969 C 830.753906 209.320312 828.332031 200.617188 828.160156 193.683594 C 828.152344 193.550781 828.15625 193.414062 828.15625 193.28125 C 827.902344 193.78125 827.679688 194.300781 827.503906 194.839844 C 825.84375 199.984375 827.085938 205.710938 829.066406 210.488281 C 829.300781 211.0625 828.472656 211.453125 828.195312 210.902344 C 825.78125 206.085938 824.296875 201.117188 824.65625 195.640625 C 823.230469 199.421875 822.988281 203.378906 823.585938 207.253906 C 823.636719 207.34375 823.695312 207.433594 823.742188 207.535156 C 823.871094 207.753906 823.835938 207.957031 823.722656 208.121094 C 824.6875 213.367188 827.089844 218.4375 829.988281 222.734375 C 830.699219 223.792969 829.332031 224.96875 828.460938 224.03125 C 826.125 221.53125 824.105469 218.671875 822.554688 215.605469 C 815.035156 208.167969 805.613281 197.902344 807.605469 186.960938 C 805.976562 185.835938 804.277344 184.816406 802.519531 183.890625 C 801.957031 185.027344 801.863281 186.003906 802.195312 187.875 C 802.671875 190.507812 803.738281 193.015625 804.734375 195.464844 C 807.988281 203.40625 812.542969 210.183594 819.160156 215.597656 C 819.691406 216.023438 819.113281 216.84375 818.546875 216.476562 C 809.96875 210.832031 804.546875 203.40625 800.476562 194 C 799.125 190.894531 797.648438 187.164062 798.285156 183.675781 C 798.386719 183.132812 798.589844 182.617188 798.871094 182.152344 C 798.550781 182.011719 798.238281 181.867188 797.917969 181.730469 C 796.988281 181.597656 796.078125 181.210938 795.222656 180.660156 C 794.792969 180.507812 794.371094 180.355469 793.941406 180.203125 C 793.355469 185.429688 795.535156 191.328125 797.152344 195.890625 C 800.171875 204.429688 806.546875 210.875 812.617188 217.25 C 813.042969 217.695312 812.328125 218.492188 811.863281 218.074219 C 804.25 211.054688 797.402344 204.75 793.480469 194.84375 C 792.046875 191.222656 789.167969 184.082031 790.011719 178.925781 C 789.054688 178.636719 788.089844 178.355469 787.113281 178.097656 C 787.207031 180.453125 787.152344 182.84375 787.460938 185.09375 C 788.132812 190.078125 789.511719 194.847656 791.488281 199.433594 C 793.738281 204.644531 796.789062 209.433594 800.234375 213.882812 C 803.394531 217.980469 807.765625 220.675781 811.347656 224.339844 C 811.785156 224.792969 811.042969 225.613281 810.578125 225.175781 C 806.726562 221.648438 802.199219 219.117188 798.699219 215.183594 C 794.847656 210.871094 791.660156 205.773438 788.851562 200.699219 C 786.324219 196.125 784.582031 191 783.65625 185.816406 C 783.167969 183.136719 782.679688 179.992188 782.882812 177.023438 C 781.132812 176.605469 779.371094 176.210938 777.609375 175.84375 C 777.097656 178.09375 777.558594 180.734375 777.894531 182.914062 C 778.800781 188.644531 780.789062 194.210938 782.929688 199.554688 C 785.140625 205.085938 788.148438 209.953125 791.925781 214.53125 C 797.347656 221.125 804.847656 228.230469 812.703125 231.695312 C 813.078125 231.863281 812.867188 232.460938 812.480469 232.3125 C 797.136719 226.351562 785.628906 214.101562 779.164062 198.855469 C 776.59375 192.804688 774.25 186.304688 773.644531 179.675781 C 773.53125 178.414062 773.578125 176.726562 773.882812 175.085938 C 772.550781 174.820312 771.222656 174.5625 769.90625 174.304688 C 769.695312 175.136719 769.566406 176.078125 769.535156 177.199219 C 769.414062 181.210938 770.707031 185.390625 771.925781 189.132812 C 774.785156 198.035156 778.871094 206.375 784.402344 213.839844 C 790.054688 221.457031 797.421875 227.671875 805.191406 232.941406 C 809.390625 235.78125 813.8125 238.199219 818.359375 240.417969 C 822.355469 242.367188 826.207031 244.914062 830.441406 246.253906 C 830.757812 246.355469 830.574219 246.878906 830.265625 246.746094 C 825.277344 244.621094 820.152344 243.304688 815.308594 240.761719 C 810.707031 238.34375 806.226562 235.640625 801.898438 232.761719 C 793.070312 226.886719 785.257812 219.878906 779.214844 211.03125 C 773.84375 203.179688 770.117188 194.226562 767.492188 185.042969 C 766.652344 182.105469 765.914062 177.589844 766.453125 173.621094 C 766.351562 173.605469 766.25 173.585938 766.148438 173.566406 C 764.996094 176.320312 764.175781 179.179688 763.628906 182.089844 C 763.890625 183.824219 763.953125 185.597656 764.175781 187.355469 C 764.699219 191.511719 765.832031 195.496094 767.238281 199.402344 C 769.859375 206.644531 774.160156 213.5625 780.433594 217.988281 C 780.925781 218.34375 780.378906 219.121094 779.871094 218.777344 C 773.492188 214.574219 768.894531 208.53125 765.519531 201.667969 C 764.707031 199.980469 763.785156 197.9375 762.964844 195.722656 C 763.207031 198.828125 763.699219 201.910156 764.414062 204.910156 C 765.675781 210.3125 769.507812 214.328125 773.121094 218.210938 C 775.71875 220.996094 780.855469 224.035156 781.386719 228.050781 C 781.550781 229.183594 780.617188 230.511719 779.371094 230.316406 C 775.898438 229.761719 772.828125 225.941406 770.335938 222.765625 C 760.046875 218.953125 751.082031 210.691406 743.210938 203.464844 C 735.265625 196.167969 727.621094 188.035156 723.886719 177.613281 C 723.757812 177.226562 724.308594 176.953125 724.464844 177.328125 C 728.628906 187.359375 736.453125 194.828125 744.375 201.800781 C 748.710938 205.625 753.171875 209.308594 757.875 212.675781 C 760.644531 214.660156 763.539062 216.296875 766.496094 217.835938 C 765.835938 216.894531 765.230469 215.902344 764.65625 214.886719 C 760.632812 212.261719 756.828125 209.183594 753.132812 206.21875 C 747.59375 201.757812 742.316406 196.988281 737.535156 191.691406 C 728.332031 181.542969 721.304688 169.085938 719.941406 155.125 C 719.910156 154.824219 720.328125 154.738281 720.398438 155.035156 C 723.246094 168.585938 729.894531 180.351562 738.996094 190.453125 C 743.644531 195.609375 748.878906 200.25 754.390625 204.425781 C 756.921875 206.347656 759.578125 208.070312 762.246094 209.777344 C 761.984375 209.101562 761.734375 208.417969 761.507812 207.730469 C 757.382812 203.929688 752.492188 201.257812 748.367188 197.441406 C 743.210938 192.65625 738.519531 187.316406 734.5 181.5 C 726.789062 170.339844 722.113281 156.835938 721.167969 143.160156 C 721.132812 142.730469 721.765625 142.589844 721.828125 143.03125 C 723.761719 157.324219 728.964844 170.972656 737.421875 182.496094 C 741.566406 188.148438 746.519531 193.777344 752.101562 197.980469 C 753.050781 198.695312 754.15625 199.359375 755.285156 200.035156 C 747.660156 193.058594 741.023438 184.90625 735.363281 176.238281 C 728.585938 165.882812 725.375 154.476562 724.378906 142.082031 C 723.347656 129.144531 725.363281 116.039062 730.519531 104.050781 C 733.074219 98.101562 736.625 92.289062 740.890625 87.425781 C 741.605469 86.609375 742.375 85.871094 743.175781 85.195312 C 744.707031 83.492188 746.371094 81.921875 748.179688 80.507812 C 750.984375 78.308594 754.28125 76.890625 757.140625 74.789062 C 759.425781 73.121094 761.417969 71.054688 763.886719 69.703125 C 761.4375 70.070312 759.023438 70.675781 756.691406 71.449219 C 747.347656 74.5625 739.582031 81.316406 733.117188 88.6875 C 732.730469 89.121094 732.007812 88.621094 732.386719 88.167969 C 738.894531 80.40625 746.523438 73.503906 755.753906 69.367188 C 760.1875 67.378906 764.882812 66.472656 769.675781 66.332031 C 771.699219 66.273438 774.382812 66.292969 776.925781 66.734375 C 783.5 65.929688 790.335938 66.960938 796.257812 69.800781 C 791.730469 64.894531 784.78125 63.308594 778.457031 62.28125 C 764.839844 60.082031 750.589844 64.546875 739.707031 73.210938 C 739.597656 73.296875 739.46875 73.140625 739.574219 73.050781 C 751.617188 62.449219 765.652344 57.644531 781.417969 59.851562 C 785.109375 60.363281 788.699219 61.375 791.964844 63.003906 L 791.964844 63 C 791.511719 62.773438 791.0625 62.535156 790.605469 62.328125 C 783.773438 59.15625 776.214844 57.734375 768.730469 57.246094 C 759.757812 56.65625 751.871094 58.824219 744.015625 63.351562 C 742.605469 64.164062 741.289062 65.078125 740.023438 66.074219 C 738.539062 66.8125 737.0625 67.625 735.59375 68.449219 C 735.496094 68.300781 735.378906 68.167969 735.21875 68.070312 C 737.578125 65.632812 740.15625 63.390625 743.171875 61.503906 C 751.21875 56.453125 759.605469 53.910156 769.003906 54.0625 C 775.855469 54.179688 782.875 55.503906 789.351562 57.921875 C 789.195312 57.828125 789.039062 57.734375 788.886719 57.648438 C 785.371094 55.59375 781.304688 54.191406 777.25 53.097656 C 767.230469 51.984375 756.640625 52.230469 747.421875 56.796875 C 737.96875 61.484375 729.449219 69.433594 723 77.816406 C 708.265625 96.984375 703.765625 122.621094 706.632812 146.089844 C 708.070312 157.914062 711.339844 169.523438 715.929688 180.421875 C 718.234375 185.875 721.140625 190.9375 724.730469 195.597656 C 728.457031 200.433594 733.023438 204.519531 736.78125 209.335938 C 736.886719 209.457031 736.695312 209.628906 736.585938 209.5 C 733.03125 205.121094 728.910156 201.289062 725.1875 197.070312 C 721.558594 192.96875 718.621094 188.195312 716.050781 183.347656 C 710.949219 173.699219 707.507812 162.730469 705.367188 151.984375 C 700.949219 129.710938 703.597656 106.246094 714.144531 85.890625 C 722.734375 69.300781 739.613281 52.089844 758.484375 49.128906 C 768.25 47.597656 779.320312 48.425781 788.773438 51.003906 C 798.558594 53.683594 806.121094 60.308594 810.496094 69.511719 C 813.710938 76.292969 814.675781 84.769531 812.371094 92.054688 C 812.246094 94.074219 811.066406 96.316406 810.246094 97.945312 C 809.1875 100.015625 807.886719 101.992188 806.363281 103.761719 C 803.714844 108.335938 799.539062 112.746094 794.148438 111.050781 L 794.144531 111.058594 C 793.777344 111.285156 793.371094 111.183594 793.0625 110.929688 C 792.820312 110.953125 792.605469 110.929688 792.398438 110.863281 C 792.546875 110.804688 792.691406 110.734375 792.835938 110.679688 C 792.734375 110.523438 792.667969 110.355469 792.652344 110.171875 C 792.410156 109.789062 792.328125 109.308594 792.5 108.828125 C 793.585938 105.863281 793.183594 103.617188 792.324219 100.730469 C 792.261719 100.515625 792.210938 100.308594 792.140625 100.101562 C 791.488281 99.265625 790.734375 98.503906 789.878906 97.8125 C 785.644531 94.378906 779.203125 93.113281 774.4375 96.367188 C 767.191406 101.328125 766.5 113.070312 768.421875 120.699219 C 770.835938 130.226562 778.882812 137.355469 787.515625 140.980469 C 787.769531 141.085938 787.628906 141.492188 787.359375 141.398438 C 777.671875 137.964844 769.230469 130.339844 766.425781 120.035156 C 764.082031 111.4375 765.359375 97.933594 773.882812 92.859375 C 779.613281 89.449219 786.753906 90.75 791.886719 94.527344 C 788.566406 90.308594 782.960938 88.492188 777.757812 89.21875 C 760.058594 91.679688 760.597656 114.695312 766.226562 127.042969 C 766.46875 127.5625 765.699219 127.925781 765.433594 127.425781 C 758.222656 113.109375 757.492188 89.6875 777.09375 85.351562 C 783.585938 83.910156 790.171875 86.550781 794.636719 91.222656 C 794.945312 91.542969 795.238281 91.902344 795.519531 92.273438 C 795.15625 91.671875 794.777344 91.074219 794.339844 90.511719 C 793.605469 89.558594 792.785156 88.699219 791.9375 87.863281 C 791.246094 87.3125 790.542969 86.777344 789.855469 86.230469 C 784.5 83.636719 777.664062 82.695312 772.246094 84.546875 C 760.59375 88.535156 755.050781 107.59375 758.660156 118.359375 C 758.757812 118.648438 758.347656 118.867188 758.214844 118.570312 C 752.949219 106.292969 759.296875 85.054688 772.691406 80.511719 C 779.492188 78.207031 788.246094 79.890625 794.671875 84.128906 C 794.101562 83.59375 793.53125 83.078125 792.917969 82.605469 C 786.335938 77.4375 776.984375 77.234375 769.484375 80.550781 C 755.574219 86.707031 750.667969 104.964844 753.054688 118.925781 C 753.125 119.339844 752.511719 119.449219 752.421875 119.042969 C 748.925781 102.730469 753.949219 81.175781 771.578125 75.363281 C 779.667969 72.691406 788.195312 73.746094 795 78.367188 C 788.890625 72.167969 778.273438 70.738281 769.558594 73.523438 C 767.753906 74.285156 766.015625 75.207031 764.347656 76.257812 C 763.128906 77.222656 761.949219 78.230469 760.710938 79.171875 C 760.191406 79.566406 759.640625 79.933594 759.085938 80.277344 C 751.5 87.242188 748.257812 97.082031 747.769531 107.214844 C 747.285156 117.464844 750.554688 127.539062 756.164062 135.875 C 762.515625 145.300781 772.621094 153.960938 783.160156 158 C 794.453125 162.320312 808.386719 158.824219 819.171875 154.171875 C 828.617188 150.097656 836.257812 143.066406 842.480469 134.84375 C 852.722656 121.316406 858.910156 104.140625 858.726562 87.148438 C 858.546875 69.390625 849.867188 53.328125 838.113281 40.886719 C 832.347656 34.773438 825.742188 29.671875 818.558594 25.695312 C 826.722656 30.761719 834.089844 37.203125 840.28125 44.492188 C 850.460938 56.46875 856.667969 71.132812 856.367188 87.207031 C 856.207031 95.925781 854.136719 104.484375 851.339844 112.734375 C 848.046875 122.457031 841.886719 129.441406 835.441406 137.160156 C 835.105469 137.566406 834.488281 137.136719 834.773438 136.679688 C 839.441406 129.234375 845.144531 123.25 848.269531 114.832031 C 851.261719 106.765625 853.011719 98.230469 853.324219 89.660156 C 853.921875 73.675781 848.117188 59.765625 838.324219 47.761719 C 836.230469 45.617188 834.132812 43.515625 831.996094 41.488281 C 827.347656 37.699219 822.363281 34.351562 817.042969 31.855469 C 812.230469 29.59375 807.191406 28.171875 802.058594 26.914062 C 804.566406 27.84375 807.027344 28.878906 809.425781 30 C 817.875 33.960938 826.429688 39.117188 833.140625 45.707031 C 845.527344 57.886719 853.234375 74.953125 851.167969 92.808594 C 849.25 109.484375 840.316406 126.746094 826.851562 136.820312 C 826.386719 137.171875 825.832031 136.511719 826.292969 136.121094 C 838.925781 125.492188 847.117188 109.070312 848.832031 92.636719 C 850.621094 75.390625 842.34375 58.464844 830.148438 47.140625 C 816.796875 34.753906 797.59375 26.382812 779.40625 26.097656 C 774.226562 26.019531 768.914062 26.425781 763.660156 26.988281 C 760.148438 28.394531 756.558594 29.460938 752.886719 30.457031 C 750.25 31.167969 747.652344 32 745.105469 33.003906 C 743.554688 33.617188 742.117188 34.539062 740.621094 35.25 C 740.671875 35.316406 740.722656 35.386719 740.765625 35.460938 C 744.78125 33.210938 750.28125 32.589844 754.191406 31.363281 C 762.089844 28.890625 770.234375 28.015625 778.429688 28.382812 C 793.953125 29.058594 809.0625 35.40625 821.539062 44.425781 C 833.507812 53.082031 841.832031 65.46875 843.273438 80.640625 C 844.601562 94.664062 840.207031 111.761719 830.601562 122.414062 C 830.433594 122.59375 830.121094 122.386719 830.285156 122.191406 C 834.339844 117.421875 835.871094 110.472656 837.816406 104.617188 C 839.972656 98.140625 840.125 89.378906 839.554688 82.644531 C 838.3125 67.929688 830.382812 56.519531 818.941406 48.121094 C 807.449219 39.671875 793.496094 34.742188 779.335938 33.511719 C 772.117188 32.878906 764.8125 33.613281 757.777344 35.457031 C 752.796875 36.757812 747.257812 37.980469 742.265625 39.855469 C 742.121094 41.4375 741.054688 42.882812 738.582031 43.828125 C 729.757812 47.210938 721.9375 52.789062 714.941406 59.292969 C 700.503906 72.722656 692.339844 91.714844 689.226562 110.988281 C 686.074219 130.507812 687.757812 151.484375 693.625 170.164062 C 696.664062 179.808594 700.886719 189.132812 706.601562 197.40625 C 712.113281 205.414062 719.109375 212.097656 725.300781 219.503906 C 726.515625 220.464844 727.734375 221.410156 728.964844 222.351562 C 731.613281 223.972656 734.117188 225.757812 736.292969 227.847656 C 752.84375 239.808594 770.734375 249.90625 789.703125 257.421875 C 808.429688 264.839844 827.988281 268.671875 848.078125 270.039062 C 866.921875 271.316406 886.035156 270.34375 904.574219 266.15625 C 917.035156 263.339844 929.28125 258.542969 940.808594 252.464844 C 950.078125 248.992188 982.042969 223.296875 989.453125 216.582031 L 1000.285156 214.496094 C 966.394531 246.914062 925.703125 272.628906 880.617188 284.421875 C 869.558594 287.316406 858.335938 289.175781 847.03125 290.648438 C 835.074219 292.207031 823.0625 293.660156 811.007812 293.480469 C 798.96875 293.308594 787.113281 291.0625 775.34375 288.820312 C 765.386719 286.929688 755.351562 285.507812 745.425781 283.539062 C 727.75 280.027344 655.855469 272.207031 639.941406 280.757812 C 639.59375 280.949219 639.25 280.910156 638.964844 280.753906 C 630.59375 282.488281 630.558594 255.792969 631.0625 251.457031 C 631.207031 250.160156 631.484375 248.859375 631.859375 247.566406 C 631.027344 248.019531 630.226562 248.390625 629.574219 248.640625 C 624.246094 250.71875 618.273438 250.78125 612.671875 250.75 C 606.679688 250.710938 600.847656 250.320312 594.855469 251.195312 C 587.234375 252.304688 580.4375 255.34375 574.210938 259.851562 C 574.136719 260.878906 572.960938 261.699219 571.914062 261.015625 C 563.878906 255.816406 562.640625 243.460938 562.792969 234.664062 C 562.988281 224.21875 565.632812 213.421875 569.832031 203.851562 C 574.207031 193.863281 581.007812 184.703125 589.050781 177.464844 C 592.101562 174.726562 596.765625 171.21875 601.722656 168.910156 C 597.609375 166.574219 594.03125 162.324219 594.933594 158.042969 C 595.738281 154.253906 599.957031 151.019531 602.761719 148.746094 C 606.75 145.507812 611.234375 142.882812 615.902344 140.820312 C 625.152344 136.722656 635.785156 136.898438 645.125 140.15625 C 648.253906 141.246094 655.355469 143.089844 659.847656 146.171875 C 656.195312 138.667969 653.046875 130.894531 650.46875 122.882812 C 644.5625 104.566406 642.75 85.972656 642.449219 66.714844 C 642.277344 55.683594 642.109375 44.597656 640.597656 33.667969 C 639.457031 25.5625 637.824219 14.207031 629.207031 10.996094 C 628.25 10.632812 628.265625 9.640625 628.792969 9.058594 C 630.949219 3.171875 639.667969 1.394531 644.964844 0.554688 C 652.542969 -0.652344 660.292969 0.222656 667.636719 2.113281 C 682.234375 5.863281 697.140625 17.179688 699.917969 32.898438 C 704.917969 27.199219 713.097656 25.171875 720.332031 25.207031 C 723.136719 25.226562 726.945312 25.886719 730.464844 27.25 C 734.640625 25.074219 738.367188 21.921875 742.472656 19.566406 C 747.398438 16.726562 753.484375 15.308594 758.921875 13.921875 C 770.101562 11.0625 781.5 10.1875 792.855469 11.730469 C 814.105469 14.617188 833.066406 26.371094 846.660156 42.867188 C 858.785156 57.578125 865.144531 76.507812 863.152344 95.878906 C 861.195312 114.9375 851.519531 133.703125 837.945312 146.976562 C 825.964844 158.695312 807.226562 166.492188 790.289062 164.589844 C 790.738281 167.320312 791.875 169.828125 793.40625 172.175781 C 794.488281 173.8125 795.824219 175.253906 797.273438 176.554688 C 798.175781 177.375 799.199219 177.898438 800.007812 178.761719 C 808.085938 182.023438 816.632812 187.113281 819.902344 195.414062 C 819.972656 195.476562 820.042969 195.542969 820.113281 195.609375 C 820.640625 193.699219 821.421875 191.816406 822.480469 189.976562 C 825.953125 183.992188 830.933594 179.972656 837.523438 178.195312 C 840.808594 177.308594 844.742188 177.550781 847.6875 179.226562 C 872.554688 212.257812 931.085938 195.816406 968.714844 174.980469 M 868.375 281.050781 C 857.839844 281.976562 847.222656 282.027344 836.78125 281.554688 C 814.425781 280.542969 792.945312 275.378906 771.882812 268.140625 C 760.535156 264.238281 749.222656 260.714844 737.511719 258.019531 C 725.222656 255.195312 712.769531 253.09375 700.414062 250.539062 C 681.257812 246.566406 659.0625 248.851562 643.839844 262.824219 C 643.410156 263.210938 642.894531 262.546875 643.285156 262.148438 C 656.480469 248.589844 675.121094 243.257812 693.328125 245.078125 C 704.742188 246.222656 716.222656 249.28125 727.460938 251.539062 C 739.667969 253.996094 751.761719 256.851562 763.519531 260.972656 C 781.601562 267.289062 799.6875 273.21875 818.582031 276 C 803.960938 272.964844 789.832031 268.035156 775.898438 262.46875 C 755.851562 254.460938 736.15625 245.636719 714.722656 241.992188 C 704.597656 240.28125 694.324219 239.933594 684.0625 240.027344 C 674.574219 240.117188 664.644531 240.707031 656.109375 245.519531 C 655.703125 245.75 655.421875 245.097656 655.816406 244.863281 C 663.34375 240.300781 671.683594 238.820312 680.234375 237.882812 C 689.808594 236.824219 699.503906 237.011719 709.039062 238.007812 C 730.339844 240.234375 750.179688 248.402344 769.8125 256.414062 C 776.664062 259.199219 783.546875 261.828125 790.511719 264.203125 C 784.964844 261.453125 779.488281 258.558594 774.023438 255.78125 C 758.59375 247.925781 742.867188 241.921875 726.078125 237.699219 C 709.804688 233.605469 691.847656 230.335938 674.992188 232.863281 C 674.574219 232.921875 674.460938 232.269531 674.882812 232.195312 C 695.824219 228.347656 717.367188 230.882812 737.789062 236.960938 C 736.335938 236.378906 734.890625 235.808594 733.449219 235.296875 C 726.203125 232.6875 718.898438 230.371094 711.296875 228.945312 C 704.363281 227.644531 697.378906 226.089844 690.3125 225.589844 C 683.28125 225.089844 676.4375 226.859375 669.511719 227.957031 C 668.796875 228.070312 668.617188 226.992188 669.320312 226.828125 C 675.402344 225.417969 681.242188 223.636719 687.5 223.394531 C 695.007812 223.09375 702.601562 224.542969 709.992188 225.570312 C 714.414062 226.183594 718.75 227.105469 723.035156 228.226562 C 722.730469 228.078125 722.414062 227.925781 722.105469 227.789062 C 716.5 225.304688 710.582031 223.46875 704.683594 221.839844 C 693.253906 218.6875 680.542969 215.679688 668.816406 219.410156 C 668.011719 219.667969 667.578125 218.253906 668.382812 217.984375 C 678.734375 214.527344 689.371094 214.96875 699.824219 216.980469 C 699.8125 216.957031 699.796875 216.964844 699.78125 216.953125 C 699.632812 216.90625 699.496094 216.851562 699.34375 216.804688 C 696.863281 216.015625 694.351562 215.332031 691.832031 214.75 C 689.707031 214.699219 687.597656 214.207031 685.515625 213.550781 C 682.671875 213.128906 679.8125 212.851562 676.914062 212.742188 C 662.609375 212.21875 648.054688 216.136719 635.972656 224.203125 C 635.746094 224.351562 635.492188 224.039062 635.714844 223.882812 C 647.355469 215.816406 660 211.222656 673.960938 210.046875 C 673.996094 210.054688 674.03125 210.042969 674.050781 210.039062 C 668.734375 209.023438 663.199219 209 657.824219 209.339844 C 646.382812 210.066406 633.375 213.199219 624.695312 221.34375 C 624.644531 221.386719 624.582031 221.308594 624.632812 221.257812 C 636.589844 209.773438 653.734375 205.109375 670.191406 206.257812 C 666.980469 205.636719 663.761719 205.070312 660.605469 204.523438 C 644.085938 201.667969 623.988281 207.203125 610.632812 217.703125 C 610.277344 217.984375 609.84375 217.453125 610.199219 217.167969 C 623.992188 205.972656 643.359375 198.875 660.90625 201.078125 C 662.859375 201.316406 664.820312 201.597656 666.792969 201.910156 C 655.539062 199.007812 644.214844 198.488281 632.355469 200.675781 C 618.453125 203.242188 603.925781 210.203125 594.40625 221.097656 C 593.949219 221.621094 593.082031 221.027344 593.53125 220.472656 C 602.3125 209.617188 613.578125 201.839844 626.738281 197.636719 C 631.722656 196.046875 636.691406 195.074219 641.65625 194.625 C 632.515625 194.847656 623.40625 196.996094 614.96875 200.644531 C 614.628906 200.796875 614.289062 200.953125 613.945312 201.105469 C 609.925781 203.101562 606 205.414062 602.128906 207.976562 C 601.609375 208.320312 601.101562 208.695312 600.585938 209.066406 C 597.714844 211.21875 594.960938 213.585938 592.371094 216.148438 C 583.332031 225.445312 576.484375 237.917969 574.292969 250.171875 C 574.28125 250.226562 574.253906 250.28125 574.222656 250.324219 C 574.210938 250.421875 574.207031 250.523438 574.195312 250.628906 C 575.292969 249.203125 576.464844 247.902344 577.363281 246.820312 C 581.042969 242.4375 584.988281 237.820312 589.417969 234.21875 C 589.511719 234.140625 589.613281 234.273438 589.53125 234.347656 C 585.835938 238.1875 583.269531 243.023438 579.828125 247.085938 C 578.15625 249.0625 576.671875 251.175781 575.265625 253.347656 C 574.667969 254.265625 574.203125 255.253906 573.6875 256.191406 C 573.679688 256.195312 573.6875 256.226562 573.6875 256.242188 C 573.828125 256.144531 573.960938 256.046875 574.082031 255.96875 C 574.253906 255.847656 574.460938 255.84375 574.628906 255.90625 C 576.636719 254.347656 579.082031 253.359375 581.199219 251.96875 C 583.664062 250.363281 585.941406 248.441406 588.09375 246.441406 C 592.65625 242.21875 596.535156 237.308594 600.929688 232.914062 C 601.246094 232.597656 601.757812 233.09375 601.484375 233.441406 C 597.703125 238.292969 593.707031 242.976562 589.382812 247.347656 C 589.585938 247.378906 589.742188 247.535156 589.824219 247.734375 C 592.515625 246.273438 595.894531 245.570312 598.492188 244.285156 C 603.097656 242.015625 607.613281 237.859375 611.230469 234.199219 C 611.246094 234.167969 611.285156 234.210938 611.269531 234.234375 C 607.855469 238.085938 604.617188 242.035156 600.464844 245.105469 C 599.46875 245.84375 598.261719 246.601562 596.953125 247.3125 C 598.820312 246.964844 600.707031 246.710938 602.609375 246.539062 C 603.679688 246.097656 604.796875 245.738281 605.871094 245.269531 C 608.265625 244.242188 610.554688 242.953125 612.796875 241.621094 C 617.722656 238.699219 622.652344 235.597656 627.464844 232.484375 C 627.570312 232.4375 627.664062 232.59375 627.570312 232.664062 C 622.867188 236.027344 618.625 240.007812 613.789062 243.222656 C 612.464844 244.09375 610.925781 245.15625 609.289062 246.148438 C 611.839844 246.140625 614.144531 246.425781 616.683594 245.550781 C 619.363281 244.628906 621.835938 242.996094 624.152344 241.375 C 628.1875 238.558594 631.976562 235.210938 636.277344 232.835938 C 636.695312 232.609375 636.972656 233.257812 636.582031 233.496094 C 631.238281 236.675781 626.976562 241.394531 621.847656 244.890625 C 621.414062 245.1875 620.941406 245.5 620.445312 245.804688 C 621.269531 245.714844 622.09375 245.617188 622.917969 245.484375 C 625.65625 245.039062 628.246094 244.175781 630.636719 242.734375 C 632.460938 241.640625 633.722656 239.292969 635.835938 238.898438 L 635.847656 238.894531 C 637.453125 236.3125 639.316406 233.929688 641.203125 231.886719 C 645.683594 227.042969 654.707031 222.109375 660.851562 226.488281 C 661.445312 226.910156 661.21875 227.917969 660.492188 228.050781 C 657.542969 228.582031 654.636719 228.316406 651.75 229.355469 C 648.613281 230.480469 645.988281 232.550781 643.664062 234.921875 C 639.578125 239.089844 636.074219 245.527344 635.078125 251.332031 C 634.28125 255.960938 634.808594 260.996094 635.277344 265.605469 C 635.589844 268.636719 635.914062 274.328125 638.601562 276.621094 C 639.398438 273.890625 641.277344 271.148438 643.617188 269.433594 C 647.59375 264.824219 653.796875 261.929688 659.089844 259.652344 C 668.574219 255.574219 678.082031 253.460938 688.34375 253.992188 C 713.203125 255.265625 737.46875 262.292969 761.191406 269.144531 C 786.15625 276.367188 811.300781 283.402344 837.539062 283.75 C 847.707031 283.882812 858.269531 283.203125 868.371094 281.046875 Z M 803.914062 287.699219 C 797.667969 286.621094 791.5 284.917969 785.363281 283.519531 C 775.167969 281.183594 764.894531 279.347656 754.738281 276.863281 C 743.929688 274.214844 733.210938 271.285156 722.355469 268.835938 C 712.894531 266.703125 703.269531 265.085938 693.648438 263.824219 C 685.523438 262.761719 677.167969 262.390625 669.136719 264.546875 C 663.90625 265.953125 658.789062 267.777344 653.777344 269.890625 C 652.074219 270.605469 643.726562 273.792969 641.890625 276.765625 C 672.863281 257.773438 711.09375 268.6875 743.820312 275.851562 C 753.503906 277.972656 763.261719 279.726562 772.960938 281.792969 C 783.199219 283.96875 793.472656 286.550781 803.914062 287.699219 Z M 644.652344 271.84375 C 649.882812 268.464844 655.894531 266.332031 661.65625 264.132812 C 667.070312 262.0625 672.332031 260.332031 678.121094 259.902344 C 687.15625 259.234375 696.226562 260.8125 705.09375 262.246094 C 727.882812 265.925781 749.828125 273.023438 772.472656 277.292969 C 774.238281 277.628906 776.003906 277.980469 777.773438 278.324219 C 776.757812 278.046875 775.75 277.765625 774.746094 277.480469 C 762.722656 274.089844 750.792969 270.375 738.742188 267.082031 C 726.035156 263.613281 713.238281 261.167969 700.257812 259.019531 C 688.921875 257.148438 677.386719 255.550781 666.183594 259.375 C 657.496094 262.339844 647.484375 265.703125 642.03125 273.695312 C 642.90625 272.972656 643.863281 272.351562 644.652344 271.84375 Z M 571.453125 255.429688 C 571.480469 255.335938 571.503906 255.25 571.542969 255.164062 C 570.210938 246.359375 576.25 235.539062 580.195312 228.386719 C 582.835938 223.601562 585.917969 219.109375 589.40625 214.980469 C 591.492188 212.261719 593.800781 209.734375 596.4375 207.515625 C 597.238281 206.847656 598.042969 206.191406 598.867188 205.554688 C 601.910156 203.011719 605.15625 200.699219 608.597656 198.679688 C 614.582031 195.164062 621.089844 192.65625 627.792969 191.085938 C 631.996094 189.972656 636.292969 189.21875 640.652344 188.851562 C 649.75 188.097656 658.796875 189.132812 667.5625 191.363281 C 655.511719 187.328125 641.863281 185.5625 629.589844 187.128906 C 615.90625 188.882812 602.015625 196.242188 591.832031 205.617188 C 581.519531 215.105469 574.339844 228.328125 570.898438 241.898438 C 570.875 242 570.820312 242.054688 570.753906 242.078125 C 570.414062 243.980469 570.179688 245.90625 569.976562 247.753906 C 569.722656 249.929688 570.140625 251.90625 570.480469 253.910156 C 570.792969 254.421875 571.117188 254.925781 571.453125 255.425781 Z M 568 248.605469 C 568.507812 245.402344 569.824219 242.144531 570.980469 239.28125 C 574.367188 226.386719 580.089844 214.269531 589.164062 204.367188 C 599.011719 193.609375 613.492188 185.988281 627.511719 183.085938 C 634.070312 181.734375 640.800781 181.941406 647.40625 182.648438 C 637.054688 180.746094 626.246094 180.59375 616.171875 183.09375 C 589.386719 189.738281 567.964844 215.695312 566.925781 243.800781 C 567.054688 244.632812 567.199219 245.46875 567.375 246.289062 C 567.539062 247.09375 567.753906 247.863281 568 248.605469 Z M 566.347656 235.464844 C 567.890625 225.425781 572.390625 215.730469 577.929688 207.34375 C 586.652344 194.152344 599.105469 184.726562 613.851562 179.699219 C 627.480469 175.054688 642.679688 176.128906 656.46875 179.671875 C 645.550781 175.332031 633.644531 172.917969 622.179688 174.144531 C 607.050781 175.765625 593.214844 184.015625 583.453125 195.835938 C 578.375 201.972656 574.546875 208.886719 571.210938 216.105469 C 569.613281 219.5625 568.128906 223.203125 567.070312 226.941406 C 566.847656 228.570312 566.65625 230.210938 566.523438 231.84375 C 566.429688 233.046875 566.371094 234.257812 566.347656 235.464844 Z M 580.554688 195.527344 C 590.03125 182.359375 604.9375 173.96875 620.480469 171.234375 C 630.382812 169.484375 640.3125 170.503906 649.832031 173.1875 C 649.394531 172.96875 648.953125 172.769531 648.476562 172.589844 C 645.011719 171.257812 641.246094 170.621094 637.621094 169.816406 C 633.292969 168.851562 629.113281 168.355469 624.664062 168.425781 C 623.863281 168.4375 623.050781 168.429688 622.242188 168.429688 C 621.21875 168.808594 620.082031 168.914062 619.015625 169.128906 C 618.289062 169.265625 617.542969 169.429688 616.804688 169.496094 C 616.714844 169.597656 616.609375 169.683594 616.472656 169.726562 C 613.773438 170.652344 610.976562 170.882812 608.195312 171.347656 C 602.429688 173.402344 597 176.394531 592.308594 180.324219 C 582.003906 188.953125 574.820312 201.101562 570.007812 213.578125 C 569.785156 214.308594 569.5625 215.046875 569.359375 215.785156 C 572.382812 208.707031 576.09375 201.730469 580.554688 195.527344 Z M 652.738281 165.484375 C 644.367188 161.566406 634.628906 158.109375 625.25 159.261719 C 619.554688 159.953125 612.28125 162.242188 608.121094 166.78125 C 608.898438 166.640625 609.675781 166.542969 610.445312 166.503906 C 612.761719 165.765625 615.136719 165.160156 617.515625 164.710938 C 622.519531 163.160156 627.523438 162.597656 633.183594 163.035156 C 642.691406 163.78125 651.660156 167.507812 660.382812 171.0625 C 664.242188 172.628906 668.046875 174.324219 671.789062 176.167969 C 665.746094 172.09375 659.339844 168.578125 652.738281 165.484375 Z M 605.878906 166.191406 C 608.640625 161.535156 615.703125 159.308594 620.28125 157.921875 C 629.226562 155.214844 637.9375 157.152344 646.539062 159.898438 C 655.949219 162.890625 665.007812 167.851562 673.230469 173.421875 C 671.699219 171.351562 670.046875 169.386719 668.132812 167.628906 C 666.761719 166.382812 665.261719 165.179688 663.679688 164.046875 C 658.847656 161.203125 653.71875 158.84375 648.480469 156.921875 C 647.847656 156.691406 647.214844 156.476562 646.582031 156.261719 C 646.355469 156.222656 646.144531 156.167969 645.917969 156.125 C 645.738281 156.09375 645.605469 156.007812 645.503906 155.914062 C 637.910156 153.527344 629.875 152.507812 621.925781 153.695312 C 613.921875 154.882812 608.714844 159.589844 602.832031 164.382812 C 603.8125 165.039062 604.859375 165.601562 605.878906 166.191406 Z M 601.308594 163.203125 C 606.085938 157.847656 612.082031 153.808594 618.945312 151.84375 C 627.4375 149.425781 636.925781 150.640625 645.285156 152.679688 C 653.925781 154.789062 662.242188 158.984375 669.667969 163.898438 C 669.585938 163.765625 669.5 163.636719 669.414062 163.515625 C 667.476562 161.796875 665.429688 160.175781 663.15625 158.707031 C 655.757812 153.871094 647.265625 150.71875 638.574219 149.226562 C 626.25 147.113281 606.652344 149.015625 600.152344 161.945312 C 600.457031 162.355469 600.835938 162.777344 601.308594 163.203125 Z M 599.269531 159.773438 C 605.527344 147.1875 624.070312 144.492188 636.304688 145.757812 C 645.671875 146.71875 654.652344 150.054688 662.804688 154.671875 C 663.511719 155.078125 664.234375 155.511719 664.96875 155.949219 C 664.9375 155.90625 664.902344 155.855469 664.882812 155.808594 C 663.5625 154.796875 662.160156 153.882812 660.8125 152.976562 C 658.449219 151.371094 656.160156 149.625 653.839844 147.933594 C 651.433594 146.882812 648.957031 146.023438 646.5 145.117188 C 638.570312 142.179688 630.730469 140.800781 622.292969 142.808594 C 614.722656 144.621094 607.265625 149.484375 601.796875 155.039062 C 600.128906 156.738281 599.167969 158.242188 599.269531 159.773438 Z M 664.488281 134.742188 C 661.632812 122.933594 660.355469 110.625 660.390625 98.265625 C 660.4375 79.738281 661.421875 61.171875 660.328125 42.667969 C 659.875 34.753906 658.484375 26.714844 654.0625 20.089844 C 653.265625 18.898438 652.355469 17.859375 651.359375 16.925781 C 652.285156 18.84375 652.992188 20.878906 653.5625 22.695312 C 657.566406 35.503906 656.355469 48.761719 656.597656 62.050781 C 656.96875 82.589844 657.4375 103.855469 661.710938 123.941406 C 662.476562 127.59375 663.421875 131.191406 664.488281 134.742188 Z M 661.054688 129.265625 C 656.878906 113.136719 656.007812 96.359375 655.199219 79.6875 C 654.464844 64.570312 655.0625 49.003906 652.167969 34.140625 C 651.390625 30.15625 650.324219 26.242188 648.789062 22.515625 C 649.914062 27.164062 650.316406 32.074219 650.609375 36.015625 C 651.757812 51.503906 651.675781 66.996094 652.539062 82.511719 C 653.378906 97.507812 655.753906 112.46875 659.925781 126.828125 C 660.316406 127.632812 660.691406 128.449219 661.054688 129.265625 Z M 654.492188 114.078125 C 652.964844 106.78125 651.828125 99.476562 651.019531 92.332031 C 650.09375 84.050781 649.738281 75.6875 649.378906 67.351562 C 649.03125 59.234375 649.371094 51.101562 648.113281 43.058594 C 647.832031 41.210938 647.589844 39.292969 647.339844 37.339844 C 646.945312 36.285156 646.558594 35.226562 646.183594 34.183594 C 647.695312 42.492188 647.953125 51.15625 648.214844 59.519531 C 648.53125 70.203125 648.488281 80.910156 649.457031 91.539062 C 650.167969 96.398438 650.980469 101.234375 652.085938 106.019531 C 652.714844 108.757812 653.542969 111.4375 654.492188 114.078125 Z M 652.933594 11.800781 C 658.535156 15.878906 661.554688 22.753906 663.308594 29.332031 C 665.222656 36.492188 665.074219 44.171875 664.773438 51.558594 C 664.375 61.769531 663.578125 71.976562 663.058594 82.179688 C 662.128906 100.242188 662.09375 118.324219 666.503906 135.875 C 668.554688 144.070312 671.589844 151.796875 675.242188 159.234375 C 673.828125 155.316406 672.339844 151.433594 670.953125 147.507812 C 664.679688 129.730469 664.597656 110.324219 665.34375 91.507812 C 666.082031 72.808594 669.136719 53.765625 667.585938 35.078125 C 666.894531 30.882812 666.425781 26.648438 664.34375 22.738281 C 662.507812 19.257812 659.410156 16.214844 656.390625 13.742188 C 655.347656 13.101562 654.277344 12.484375 653.171875 11.914062 C 653.09375 11.871094 653.015625 11.839844 652.933594 11.800781 Z M 665.492188 15.859375 C 666.269531 16.8125 666.984375 17.761719 667.605469 18.691406 C 677.5 33.539062 671.070312 53.800781 669.144531 70.207031 C 667.890625 80.898438 667.296875 91.722656 667.160156 102.460938 C 667.03125 112.886719 667 124.082031 668.84375 134.335938 C 670.09375 141.21875 672.558594 147.917969 675.070312 154.542969 C 674.9375 154.105469 674.796875 153.667969 674.667969 153.21875 C 669.4375 134.964844 668.359375 115.867188 670.558594 96.953125 C 672.675781 78.773438 677.535156 60.734375 677.890625 42.390625 C 677.980469 37.839844 677.273438 33.546875 675.886719 29.5 C 674.425781 25.886719 672.46875 22.476562 669.722656 19.332031 C 669.710938 19.308594 669.691406 19.285156 669.671875 19.265625 C 668.808594 18.539062 667.929688 17.824219 667.046875 17.097656 C 666.535156 16.671875 666.023438 16.261719 665.492188 15.859375 Z M 676.648438 18.914062 C 678.480469 21.90625 679.929688 25.144531 680.933594 28.488281 C 682.890625 35.09375 683.023438 41.992188 682.273438 48.949219 C 682.273438 48.996094 682.285156 49.046875 682.300781 49.097656 C 682.320312 49.28125 682.273438 49.4375 682.210938 49.570312 C 680.972656 60.28125 677.734375 71.105469 675.929688 81.210938 C 674.210938 90.835938 672.792969 100.507812 672.265625 110.265625 C 671.761719 119.617188 672.691406 128.816406 674.207031 137.96875 C 674.199219 137.554688 674.179688 137.144531 674.171875 136.730469 C 674.140625 135.398438 674.136719 134.0625 674.15625 132.730469 C 673.8125 129.722656 673.546875 126.707031 673.425781 123.710938 C 672.867188 109.453125 674.199219 95.609375 677.882812 81.777344 C 681.28125 69.035156 685.398438 56.035156 686.171875 42.800781 C 686.179688 42.445312 686.191406 42.078125 686.191406 41.722656 C 686.238281 36.378906 684.640625 31.460938 682.296875 26.78125 C 680.78125 23.726562 678.839844 21.179688 676.648438 18.914062 Z M 688.027344 26.234375 C 688.296875 27.058594 688.554688 27.894531 688.78125 28.75 C 692.101562 41.546875 689.179688 55.515625 685.269531 67.90625 C 683.074219 74.855469 680.894531 81.789062 679.179688 88.867188 C 677.378906 96.253906 676.703125 103.660156 676.386719 111.195312 C 676.703125 108.453125 677.074219 105.722656 677.507812 103.019531 C 680.214844 86.292969 686.074219 70.765625 690.851562 54.621094 C 691.621094 52.039062 692.316406 49.40625 692.851562 46.742188 C 693.058594 44.386719 693.089844 42.039062 692.9375 39.648438 C 692.703125 36.019531 691.523438 33.300781 689.988281 30.0625 C 689.375 28.777344 688.730469 27.492188 688.027344 26.234375 Z M 700.328125 52.085938 C 706.796875 44.230469 715.496094 36.941406 724.753906 35.402344 C 724.5625 35.367188 724.371094 35.335938 724.183594 35.308594 C 722.679688 35.351562 721.1875 35.449219 719.640625 35.726562 C 718.488281 35.925781 717.347656 36.234375 716.226562 36.578125 C 714.660156 37.644531 713.113281 38.765625 711.421875 39.460938 C 708.980469 41.382812 706.683594 43.34375 704.59375 45.570312 C 703.566406 46.753906 702.578125 47.980469 701.648438 49.242188 C 701.203125 50.183594 700.769531 51.144531 700.328125 52.085938 Z M 702.25 65.902344 C 705.789062 61.042969 709.886719 56.765625 714.34375 52.867188 C 712.933594 53.402344 711.507812 54.050781 710.15625 54.78125 C 706.886719 57.519531 703.863281 60.601562 701.113281 64.003906 C 693.503906 73.4375 689.152344 85.464844 686.269531 97.433594 C 685.417969 102.128906 684.824219 106.859375 684.472656 111.609375 C 686.601562 95.21875 692.503906 79.296875 702.25 65.902344 Z M 703.148438 53.503906 C 702.878906 53.878906 702.621094 54.25 702.367188 54.632812 C 700.640625 57.277344 699.15625 60.074219 697.824219 62.941406 C 698.257812 62.292969 698.6875 61.648438 699.148438 61.027344 C 706.972656 50.285156 718.328125 42.070312 730.929688 38.378906 C 720.542969 36.542969 710.507812 44.621094 703.148438 53.503906 Z M 810.96875 189.527344 C 811.003906 191.382812 811.121094 193.203125 811.609375 195.121094 C 812.421875 198.316406 814.152344 201.320312 815.921875 204.035156 C 817.304688 206.183594 818.847656 208.234375 820.421875 210.257812 C 819.9375 208.636719 819.597656 206.980469 819.402344 205.3125 C 817.984375 203.683594 816.800781 201.820312 815.792969 200.015625 C 814.894531 198.445312 813.257812 194.648438 813.949219 192.3125 C 812.992188 191.328125 812.007812 190.398438 810.96875 189.527344 Z M 817.050781 195.953125 C 817.402344 197.179688 817.992188 198.339844 818.554688 199.464844 C 818.769531 199.894531 819.003906 200.316406 819.25 200.730469 C 819.273438 200.386719 819.3125 200.050781 819.339844 199.71875 C 819.015625 199.085938 818.621094 198.402344 818.292969 197.710938 C 817.890625 197.109375 817.480469 196.519531 817.050781 195.949219 Z M 854.257812 200.742188 C 854.613281 201.101562 854.988281 201.449219 855.375 201.808594 C 861.289062 207.132812 868.566406 210.949219 875.964844 213.691406 C 894.515625 220.570312 914.933594 213.210938 932.371094 205.03125 C 952.832031 195.425781 957.160156 189.1875 940.679688 198.191406 C 924.328125 207.128906 906.394531 216.628906 887.730469 214.785156 C 878.125 213.839844 869.109375 210.402344 860.921875 205.425781 C 858.597656 204.019531 856.355469 202.457031 854.257812 200.742188 Z M 859.609375 195.996094 C 861.367188 197.292969 863.199219 198.492188 864.972656 199.664062 C 872.796875 204.847656 881.683594 208.257812 891.03125 209.265625 C 899.957031 210.242188 908.8125 207.917969 917.371094 205.441406 C 918.839844 205.015625 920.296875 204.535156 921.75 204.03125 C 917.566406 205.183594 913.3125 205.914062 909.019531 206.40625 C 905.03125 206.992188 901 207.277344 896.964844 207.277344 C 889.394531 207.433594 882.113281 206.261719 874.925781 203.765625 C 872.710938 203 870.703125 201.773438 868.753906 200.449219 C 865.746094 199.136719 862.59375 197.675781 859.609375 195.996094 Z M 859.609375 195.996094 "/>
</g>
</svg>
