<?xml version="1.0" encoding="UTF-8"?>
<svg xmlns="http://www.w3.org/2000/svg" xmlns:xlink="http://www.w3.org/1999/xlink" width="1586.055359pt" height="369.63446pt" viewBox="0 0 1586.055359 369.63446" version="1.1">
<defs>
<clipPath id="clip1">
  <path d="M 0 146 L 1586.054688 146 L 1586.054688 225 L 0 225 Z M 0 146 "/>
</clipPath>
<clipPath id="clip2">
  <path d="M 271 79 L 1315 79 L 1315 369.632812 L 271 369.632812 Z M 271 79 "/>
</clipPath>
<clipPath id="clip3">
  <path d="M 0 28 L 1586.054688 28 L 1586.054688 219 L 0 219 Z M 0 28 "/>
</clipPath>
<clipPath id="clip4">
  <path d="M 0 81 L 1586.054688 81 L 1586.054688 301 L 0 301 Z M 0 81 "/>
</clipPath>
</defs>
<g id="surface1">
<g clip-path="url(#clip1)" clip-rule="nonzero">
<path style=" stroke:none;fill-rule:nonzero;fill:rgb(100%,100%,100%);fill-opacity:1;" d="M 1587.046875 214.8125 L 1464.25 208.398438 L 1587.367188 174.414062 L 1588.648438 165.4375 L 1524.527344 160.628906 L 1482.847656 146.199219 L 100.351562 146.199219 L 42.320312 161.910156 L -3.527344 161.910156 L -4.488281 175.375 L 127.285156 204.230469 L -2.566406 212.890625 L -4.167969 224.429688 L 1588.648438 221.546875 Z M 1587.046875 214.8125 "/>
</g>
<path style=" stroke:none;fill-rule:evenodd;fill:rgb(0%,0%,0%);fill-opacity:1;" d="M 812.636719 132.585938 C 802.636719 134.054688 789.160156 133.582031 778.308594 133.191406 C 777.675781 133.015625 776.324219 133.566406 776.195312 132.890625 C 777 132.890625 777.792969 132.890625 778.609375 132.890625 C 789.136719 131.992188 801.351562 131.449219 812.636719 132.585938 "/>
<path style=" stroke:none;fill-rule:evenodd;fill:rgb(0%,0%,0%);fill-opacity:1;" d="M 828.296875 141.625 C 806.4375 143.328125 784.375 142.816406 762.035156 142.832031 C 777.140625 140.542969 793.859375 141.59375 810.519531 141.328125 C 816.894531 141.21875 822.859375 140.589844 828.296875 141.625 "/>
<path style=" stroke:none;fill-rule:evenodd;fill:rgb(0%,0%,0%);fill-opacity:1;" d="M 847.578125 150.964844 C 844.597656 153.066406 837.144531 152.09375 832.820312 151.867188 C 827.105469 151.867188 821.375 151.867188 815.660156 151.867188 C 814.449219 151.96875 813.984375 151.332031 812.640625 151.5625 C 809.777344 151.984375 807.460938 151.734375 804.515625 151.5625 C 806.402344 150.25 810.417969 151.042969 812.640625 150.0625 C 824.132812 150.460938 837.574219 148.476562 847.578125 150.964844 "/>
<path style=" stroke:none;fill-rule:evenodd;fill:rgb(0%,0%,0%);fill-opacity:1;" d="M 781.917969 151.566406 C 780.792969 153.601562 776.992188 152.769531 774.085938 152.769531 C 762.550781 152.769531 751.082031 152.933594 740.644531 152.769531 C 740.804688 151.207031 742.734375 152.007812 743.664062 151.867188 C 753.214844 150.414062 765.582031 150.546875 776.796875 150.664062 C 778.53125 150.679688 780.722656 150.101562 781.917969 151.566406 "/>
<path style=" stroke:none;fill-rule:evenodd;fill:rgb(0%,0%,0%);fill-opacity:1;" d="M 767.753906 181.386719 C 751.90625 181.761719 733.222656 182.382812 718.660156 180.484375 C 718.601562 179.832031 719.730469 180.34375 720.164062 180.183594 C 735.625 179.785156 752.851562 180.214844 767.753906 181.386719 "/>
<path style=" stroke:none;fill-rule:evenodd;fill:rgb(0%,0%,0%);fill-opacity:1;" d="M 784.328125 188.613281 C 767.863281 188.898438 747.21875 188.472656 729.804688 187.710938 C 730.113281 186.707031 732.160156 187.460938 732.828125 186.808594 C 750.644531 186.753906 768.472656 186.699219 784.328125 188.613281 "/>
<path style=" stroke:none;fill-rule:evenodd;fill:rgb(0%,0%,0%);fill-opacity:1;" d="M 848.175781 191.023438 C 844.179688 192.300781 838.699219 190.945312 833.71875 190.722656 C 824.269531 190.292969 814.414062 189.996094 805.097656 189.515625 C 804.824219 188.722656 808.898438 189.710938 809.613281 188.917969 C 815.070312 189.089844 821.226562 188.558594 826.183594 189.21875 C 829.394531 189.21875 832.613281 189.21875 835.824219 189.21875 C 837.941406 189.507812 840.246094 189.617188 842.445312 189.820312 C 844.691406 189.882812 847.332031 189.546875 848.175781 191.023438 "/>
<path style=" stroke:none;fill-rule:evenodd;fill:rgb(0%,0%,0%);fill-opacity:1;" d="M 827.089844 203.074219 C 814.308594 204.214844 798.976562 202.949219 785.527344 202.769531 C 789.925781 201.6875 796.757812 201.625 801.789062 202.167969 C 810.066406 201.507812 819.71875 201.851562 827.089844 203.074219 "/>
<path style=" stroke:none;fill-rule:evenodd;fill:rgb(0%,0%,0%);fill-opacity:1;" d="M 421.070312 240.71875 C 430.855469 239.566406 434.386719 225.980469 427.699219 218.128906 C 424.253906 214.085938 417.78125 211.675781 412.339844 211.199219 C 402.816406 210.375 394.914062 213.714844 389.742188 218.738281 C 386.71875 221.675781 383.660156 226.601562 382.519531 230.785156 C 379.722656 241.015625 383.066406 252.671875 387.644531 259.699219 C 393.238281 268.300781 402.664062 274.414062 412.039062 278.375 C 422.3125 282.722656 432.964844 285.933594 445.773438 287.707031 C 437.410156 287.878906 428.832031 286.183594 421.070312 283.792969 C 405.738281 279.066406 393.71875 273.066406 385.535156 260.902344 C 379.46875 251.878906 377.039062 236.035156 382.519531 225.355469 C 386.289062 218.03125 393.40625 213.105469 401.195312 210.003906 C 414.195312 206.796875 433.292969 213.222656 432.824219 228.070312 C 432.664062 233.167969 428.265625 241.949219 421.070312 240.71875 "/>
<path style=" stroke:none;fill-rule:evenodd;fill:rgb(0%,0%,0%);fill-opacity:1;" d="M 1140.347656 288.007812 C 1143.25 286.710938 1146.390625 286.796875 1149.378906 286.207031 C 1169.203125 282.253906 1187.039062 274.414062 1197.875 260.902344 C 1202.339844 253.996094 1206.328125 241.761719 1203.59375 231.082031 C 1202.296875 226.027344 1199.15625 222.496094 1196.660156 219.035156 C 1191.546875 214.140625 1183.332031 210.5 1174.078125 211.199219 C 1168.214844 211.652344 1162.046875 214.101562 1158.71875 217.828125 C 1152.691406 224.570312 1153.648438 239.242188 1165.03125 240.421875 C 1160.226562 241.894531 1156.480469 237.65625 1154.804688 234.101562 C 1148.449219 220.589844 1163.015625 209.894531 1174.667969 209.09375 C 1178.105469 208.859375 1182.050781 209.265625 1184.617188 210.003906 C 1195.550781 213.128906 1206.59375 223.53125 1206.90625 238.011719 C 1207.101562 246.777344 1204.496094 255.101562 1200.578125 260.902344 C 1196.804688 266.527344 1191.660156 271.738281 1185.828125 275.363281 C 1173.738281 282.867188 1158.085938 286.445312 1140.347656 288.007812 "/>
<path style=" stroke:none;fill-rule:evenodd;fill:rgb(0%,0%,0%);fill-opacity:1;" d="M 812.941406 214.21875 C 809.824219 215.78125 805.789062 215.121094 802.097656 215.121094 C 791.070312 215.121094 778.699219 215.121094 767.460938 215.121094 C 781.171875 213.347656 799.183594 213.222656 812.941406 214.21875 "/>
<path style=" stroke:none;fill-rule:evenodd;fill:rgb(0%,0%,0%);fill-opacity:1;" d="M 424.390625 228.070312 C 422.585938 223.378906 419.335938 219.910156 414.152344 218.738281 C 405.734375 216.824219 397.101562 221.3125 393.664062 227.167969 C 386.25 239.816406 394.332031 254.445312 402.40625 263.011719 C 408.613281 269.597656 416.167969 273.582031 424.992188 277.167969 C 419.699219 276.675781 415.191406 274.164062 411.140625 271.746094 C 403.503906 267.195312 395.753906 259.589844 391.863281 251.265625 C 388.386719 243.84375 387.71875 233.003906 391.863281 225.964844 C 395.105469 220.457031 401.980469 215.4375 410.230469 216.324219 C 411.734375 216.480469 412.730469 217.1875 413.84375 217.53125 C 418.851562 219.0625 423.757812 221.382812 424.390625 228.070312 "/>
<path style=" stroke:none;fill-rule:evenodd;fill:rgb(0%,0%,0%);fill-opacity:1;" d="M 1161.128906 277.46875 C 1168.628906 273.953125 1177.125 269.996094 1183.710938 263.011719 C 1191.4375 254.820312 1199.863281 240.367188 1192.445312 227.472656 C 1187.882812 219.53125 1174.890625 215.246094 1165.945312 221.445312 C 1164.300781 223.320312 1162.730469 225.253906 1162.027344 228.070312 C 1162.039062 220.851562 1168.949219 217.921875 1175.59375 216.328125 C 1188.851562 216.203125 1194.386719 223.824219 1197.277344 234.101562 C 1197.9375 247.246094 1192.363281 256.109375 1186.128906 262.707031 C 1179.835938 269.367188 1171.40625 275.082031 1161.128906 277.46875 "/>
<path style=" stroke:none;fill-rule:evenodd;fill:rgb(0%,0%,0%);fill-opacity:1;" d="M 797.285156 225.964844 C 795.582031 226.964844 791.601562 226.632812 789.449219 226.265625 C 776.609375 225.746094 762.628906 226.375 750.589844 225.058594 C 765.707031 223.714844 783.164062 223.925781 797.285156 225.964844 "/>
<path style=" stroke:none;fill-rule:evenodd;fill:rgb(0%,0%,0%);fill-opacity:1;" d="M 780.410156 236.804688 C 779.171875 237.878906 776.507812 237.40625 774.386719 237.40625 C 772.023438 237.40625 769.71875 237.535156 768.054688 237.109375 C 766.816406 236.867188 766.515625 237.566406 765.347656 237.40625 C 755.089844 236.71875 743.574219 237.296875 732.824219 237.109375 C 746.980469 234.332031 765.4375 235.949219 780.410156 236.804688 "/>
<path style=" stroke:none;fill-rule:evenodd;fill:rgb(0%,0%,0%);fill-opacity:1;" d="M 763.839844 247.953125 C 763.703125 248.910156 761.835938 248.15625 761.429688 248.855469 C 747.535156 248.394531 731.128906 248.628906 718.050781 247.953125 C 717.53125 247.921875 717.4375 247.75 717.757812 247.648438 C 723.875 247.144531 730.59375 247.230469 736.734375 246.746094 C 745.488281 247.433594 755.503906 246.839844 763.839844 247.953125 "/>
<path style=" stroke:none;fill-rule:evenodd;fill:rgb(0%,0%,0%);fill-opacity:1;" d="M 875.890625 251.863281 C 858.539062 252.152344 839.054688 251.949219 821.367188 251.566406 C 823.960938 249.726562 829.566406 250.921875 833.125 250.058594 C 847.363281 250.671875 862.722656 250.175781 875.890625 251.863281 "/>
<path style=" stroke:none;fill-rule:evenodd;fill:rgb(0%,0%,0%);fill-opacity:1;" d="M 748.179688 259.097656 C 745.914062 260.746094 739.929688 259.9375 736.726562 259.699219 C 724.789062 259.597656 712.363281 259.960938 700.886719 259.394531 C 715.058594 257.402344 732.691406 258.320312 748.179688 259.097656 "/>
<path style=" stroke:none;fill-rule:evenodd;fill:rgb(0%,0%,0%);fill-opacity:1;" d="M 885.832031 260 C 869.144531 260.125 850.289062 259.796875 833.722656 258.792969 C 833.1875 258.878906 833.105469 258.507812 833.417969 258.492188 C 850.710938 257.976562 870.210938 257.84375 885.832031 260 "/>
<path style=" stroke:none;fill-rule:evenodd;fill:rgb(0%,0%,0%);fill-opacity:1;" d="M 898.179688 268.433594 C 885.035156 268.695312 870.011719 267.53125 856.304688 266.921875 C 852.5 266.757812 847.246094 267.46875 845.464844 266.019531 C 863.207031 265.46875 881.839844 266.589844 898.179688 268.433594 "/>
<path style=" stroke:none;fill-rule:evenodd;fill:rgb(0%,0%,0%);fill-opacity:1;" d="M 730.40625 270.238281 C 716.570312 271.457031 700.339844 270.183594 686.125 270.539062 C 699.234375 268.042969 716.875 268.347656 730.40625 270.238281 "/>
<path style=" stroke:none;fill-rule:evenodd;fill:rgb(0%,0%,0%);fill-opacity:1;" d="M 897.875 274.757812 C 895.582031 275.699219 891.265625 275.449219 888.535156 275.058594 C 879.355469 275.433594 867.808594 275.300781 858.117188 274.453125 C 859.773438 272.875 863.785156 273.699219 867.152344 273.855469 C 877.003906 274.304688 889.035156 273.816406 897.875 274.757812 "/>
<path style=" stroke:none;fill-rule:evenodd;fill:rgb(0%,0%,0%);fill-opacity:1;" d="M 734.628906 281.078125 C 730.308594 281.789062 724.691406 281.179688 719.867188 281.382812 C 711.964844 281.507812 702.722656 283.1875 695.167969 281.6875 C 697.070312 279.679688 702.332031 281.019531 705.410156 280.175781 C 715.390625 280.238281 725.863281 279.8125 734.628906 281.078125 "/>
<path style=" stroke:none;fill-rule:evenodd;fill:rgb(0%,0%,0%);fill-opacity:1;" d="M 845.167969 281.988281 C 845.835938 280.964844 847.53125 280.894531 848.488281 280.785156 C 857.945312 279.695312 869.257812 281.863281 878.90625 281.382812 C 880.144531 281.753906 882.070312 281.421875 883.125 281.988281 C 883.925781 281.988281 884.726562 281.988281 885.539062 281.988281 C 886.628906 282.496094 882.398438 282.277344 881.015625 282.285156 C 878.871094 282.300781 876.738281 282.214844 875.597656 282.589844 C 866.117188 281.726562 854.648438 282.851562 845.167969 281.988281 "/>
<path style=" stroke:none;fill-rule:evenodd;fill:rgb(0%,0%,0%);fill-opacity:1;" d="M 874.976562 290.421875 C 861.792969 290.859375 846.691406 290.585938 833.714844 289.816406 C 846.632812 287.605469 862.128906 289.660156 874.976562 290.421875 "/>
<path style=" stroke:none;fill-rule:evenodd;fill:rgb(0%,0%,0%);fill-opacity:1;" d="M 753.898438 291.921875 C 748.855469 292.296875 741.425781 292.640625 734.921875 292.527344 C 728.523438 292.730469 718.976562 293.664062 713.539062 291.921875 C 714.046875 291.371094 715.097656 291.121094 715.945312 291.019531 C 721.476562 290.359375 729.019531 290.726562 735.828125 291.019531 C 742.25 291.308594 748.671875 291.183594 753.898438 291.921875 "/>
<path style=" stroke:none;fill-rule:evenodd;fill:rgb(0%,0%,0%);fill-opacity:1;" d="M 863.542969 298.851562 C 850.339844 299.296875 835.480469 298.800781 823.175781 297.351562 C 823.222656 296.683594 824.457031 297.21875 824.984375 297.046875 C 837.132812 297.15625 851.871094 297.265625 863.542969 298.851562 "/>
<path style=" stroke:none;fill-rule:evenodd;fill:rgb(0%,0%,0%);fill-opacity:1;" d="M 727.996094 302.773438 C 728.203125 302.773438 728.398438 302.773438 728.589844 302.773438 C 729.082031 302.851562 729.117188 302.484375 729.503906 302.46875 C 743.996094 302.632812 758.960938 302.328125 771.976562 303.972656 C 773.601562 304.703125 770.925781 303.972656 771.074219 303.972656 C 759.128906 303.652344 742.660156 305.058594 730.097656 303.972656 C 729.78125 303.21875 727.105469 303.816406 727.996094 302.773438 "/>
<path style=" stroke:none;fill-rule:evenodd;fill:rgb(0%,0%,0%);fill-opacity:1;" d="M 852.398438 306.683594 C 838.949219 307.285156 824.304688 306.460938 811.429688 305.480469 C 811.367188 305.222656 811.558594 305.199219 811.738281 305.175781 C 824.460938 304.882812 839.699219 305.207031 852.398438 306.683594 "/>
<path style=" stroke:none;fill-rule:evenodd;fill:rgb(0%,0%,0%);fill-opacity:1;" d="M 788.839844 315.117188 C 786.582031 316.199219 783.929688 315.722656 781.316406 315.722656 C 768.800781 315.722656 755.089844 315.382812 742.757812 315.117188 C 743.613281 313.925781 745.710938 313.730469 746.976562 313.617188 C 749.269531 313.390625 751.46875 313.820312 753.902344 313.910156 C 765.113281 314.347656 777.960938 313.863281 788.839844 315.117188 "/>
<path style=" stroke:none;fill-rule:evenodd;fill:rgb(0%,0%,0%);fill-opacity:1;" d="M 841.859375 316.324219 C 828.554688 316.570312 813.449219 316.019531 799.988281 315.417969 C 801.042969 313.863281 804.824219 315.03125 806.625 314.214844 C 818.175781 315.101562 831.457031 314.277344 841.859375 316.324219 "/>
<path style=" stroke:none;fill-rule:evenodd;fill:rgb(0%,0%,0%);fill-opacity:1;" d="M 822.578125 326.566406 C 820.3125 327.210938 816.839844 326.644531 814.449219 327.164062 C 795.328125 326.308594 775.210938 326.441406 756.621094 325.058594 C 757.921875 324.164062 760.785156 324.808594 762.34375 324.15625 C 782.097656 324.519531 803.046875 325.105469 822.578125 326.566406 "/>
<path style=" stroke:none;fill-rule:evenodd;fill:rgb(0%,0%,0%);fill-opacity:1;" d="M 806.3125 336.800781 C 795.75 337.292969 782.292969 337.679688 771.976562 336.203125 C 782.433594 334.34375 796.089844 335.589844 806.3125 336.800781 "/>
<path style=" stroke:none;fill-rule:evenodd;fill:rgb(0%,0%,0%);fill-opacity:1;" d="M 800.882812 345.242188 C 799.445312 345.917969 797 346.027344 794.5625 346.144531 C 791.550781 346.285156 788.152344 346.035156 785.21875 346.144531 C 784.914062 345.445312 783.210938 346.152344 783.417969 344.9375 C 788.382812 343.710938 795.515625 344.921875 800.882812 345.242188 "/>
<g clip-path="url(#clip2)" clip-rule="nonzero">
<path style=" stroke:none;fill-rule:evenodd;fill:rgb(0%,0%,0%);fill-opacity:1;" d="M 805.410156 253.675781 C 801.46875 250.882812 797.707031 247.75 793.355469 245.542969 C 793.34375 245.355469 793.3125 245.183594 793.0625 245.238281 C 788.503906 247.671875 784.652344 250.976562 780.402344 253.972656 C 768.515625 262.382812 756.210938 269.988281 744.570312 278.371094 C 752.535156 284.207031 760.386719 290.039062 768.367188 295.84375 C 776.273438 301.605469 784.300781 307.5625 793.355469 312.105469 C 810.46875 301.808594 826.003906 289.921875 841.554688 278.070312 C 829.339844 269.949219 817.09375 261.9375 805.410156 253.675781 Z M 840.652344 224.453125 C 833.808594 225.644531 823.113281 222.449219 818.96875 226.863281 C 828.542969 226.429688 837.71875 227.992188 846.066406 227.769531 C 844.0625 226.863281 842.351562 225.675781 840.652344 224.453125 Z M 831.019531 218.132812 C 829.542969 219.46875 827.597656 220.339844 826.195312 221.746094 C 829.605469 222.160156 834.691406 222.484375 837.628906 222.347656 C 835.285156 221.085938 833.203125 219.5625 831.019531 218.132812 Z M 1007.519531 210.003906 C 1015.453125 218.972656 1025.351562 227.773438 1035.53125 236.207031 C 1045.625 244.554688 1056.363281 252.65625 1068.667969 258.1875 C 1081.089844 263.78125 1096.960938 269.148438 1113.542969 267.832031 C 1125.90625 266.84375 1135.9375 262.386719 1143.652344 256.6875 C 1146.21875 254.789062 1149.4375 253.125 1150.882812 250.058594 C 1138.210938 246.871094 1135.714844 223.1875 1144.863281 214.21875 C 1146.160156 211.339844 1149.023438 208.335938 1151.191406 206.386719 C 1151.898438 205.75 1154.273438 204.96875 1152.992188 204.582031 C 1106.09375 208.59375 1057.5 209.078125 1007.519531 210.003906 Z M 446.984375 227.769531 C 447.839844 238.371094 443.132812 246.660156 435.226562 250.058594 C 436.257812 252.503906 438.664062 253.972656 440.65625 255.480469 C 442.722656 257.035156 444.964844 258.445312 446.984375 260 C 455.628906 264.253906 464.496094 267.617188 475.898438 268.128906 C 488.054688 268.679688 498.882812 265.046875 507.21875 262.109375 C 525.820312 255.550781 540.824219 245.050781 553.601562 233.796875 C 558.160156 230.125 562.273438 225.996094 566.554688 222.050781 C 570.609375 218.878906 573.855469 214.886719 577.707031 211.503906 C 577.660156 210.898438 579.742188 210.101562 578.296875 210.003906 C 527.292969 208.066406 478.378906 207.167969 432.824219 204.582031 C 432.644531 204.597656 432.46875 204.621094 432.527344 204.875 C 438.53125 209.457031 446.144531 217.507812 446.984375 227.769531 Z M 1212.03125 220.542969 C 1212.988281 221.085938 1213.0625 222.527344 1213.84375 223.25 C 1219.332031 233.53125 1218.742188 253.242188 1213.242188 263.011719 C 1213.269531 263.34375 1212.796875 263.476562 1213.242188 263.609375 C 1213.253906 263.429688 1213.285156 263.257812 1213.535156 263.3125 C 1232.285156 256.460938 1245.519531 244.085938 1257.808594 230.785156 C 1268.445312 215.703125 1276.957031 198.523438 1278.003906 173.855469 C 1270.109375 177.324219 1262.5 181.042969 1253.898438 183.796875 C 1249.382812 196.765625 1241.3125 205.28125 1230.398438 211.808594 C 1224.671875 215.238281 1218.34375 217.296875 1210.820312 218.132812 C 1209.921875 219.054688 1212.207031 219.34375 1212.03125 220.542969 Z M 328.304688 230.480469 C 333.996094 237.445312 340.710938 243.644531 347.886719 249.453125 C 355.027344 255.238281 363.492188 259.90625 372.582031 263.3125 C 372.917969 263.28125 373.050781 263.75 373.183594 263.3125 C 373.003906 263.296875 372.824219 263.269531 372.886719 263.011719 C 367.269531 253.101562 366.929688 233.429688 372.28125 222.953125 C 373.316406 222.578125 373.050781 220.90625 374.085938 220.542969 C 373.828125 219.421875 376.660156 218.707031 374.996094 218.132812 C 366.867188 217.265625 361.398438 214.957031 355.710938 211.503906 C 344.472656 204.675781 336.601562 196.855469 332.222656 183.796875 C 323.628906 181.042969 315.996094 177.324219 308.125 173.855469 C 309.597656 197.527344 316.914062 216.535156 328.304688 230.480469 Z M 1256.007812 176.867188 C 1256.964844 176.53125 1258.589844 175.972656 1259.917969 175.359375 C 1260.773438 174.96875 1263.574219 173.941406 1262.335938 173.554688 C 1260.65625 175.09375 1255.933594 173.578125 1256.007812 176.867188 Z M 330.113281 176.867188 C 330.660156 174.960938 328.386719 174.84375 327.105469 174.457031 C 325.679688 174.027344 323.730469 173.648438 322.882812 173.855469 C 325.378906 174.777344 327.496094 176.066406 330.113281 176.867188 Z M 792.765625 164.820312 C 786.542969 169.238281 780.050781 173.390625 773.191406 177.171875 C 776.097656 179.863281 779.695312 181.746094 783.117188 183.796875 C 786.554688 185.859375 789.667969 188.480469 793.355469 190.121094 C 798.238281 186.878906 803.492188 183.578125 808.125 180.484375 C 809.71875 179.410156 811.796875 178.828125 812.933594 177.171875 C 805.777344 173.484375 799.671875 168.753906 792.765625 164.820312 Z M 1276.1875 163.308594 C 1271.363281 165.355469 1265.964844 167.214844 1261.125 169.035156 C 1259.546875 169.625 1257.171875 170.191406 1256.613281 171.75 C 1264.078125 169.679688 1270.65625 166.714844 1277.089844 163.613281 C 1277.042969 163.261719 1277.148438 162.757812 1276.792969 162.710938 C 1276.777344 163.109375 1276.261719 162.984375 1276.1875 163.308594 Z M 309.332031 163.917969 C 315.804688 166.484375 322.578125 170.351562 329.507812 171.445312 C 328.4375 170.167969 326.480469 169.59375 324.988281 169.035156 C 319.496094 166.972656 314.292969 165.191406 309.332031 163.015625 C 309.316406 162.828125 309.285156 162.65625 309.027344 162.710938 C 309.003906 163.230469 309.097656 163.644531 309.332031 163.917969 Z M 1275.585938 157.289062 C 1275.230469 157.4375 1274.90625 157.609375 1274.683594 157.886719 C 1270.304688 159.894531 1265.507812 161.996094 1261.125 163.613281 C 1259.578125 164.1875 1257.320312 164.632812 1256.90625 166.023438 C 1262.277344 165.464844 1267.957031 162.765625 1272.28125 160.601562 C 1273.695312 159.886719 1276.128906 159.148438 1276.1875 157.289062 Z M 309.929688 158.496094 C 315.351562 161.109375 320.339844 164.148438 326.800781 165.71875 C 327.585938 165.558594 329.050781 167.167969 329.207031 165.71875 C 328.15625 164.476562 326.320312 164.203125 324.695312 163.613281 C 323.113281 163.046875 321.410156 162.332031 319.871094 161.808594 C 317.015625 160.144531 313.585938 159.0625 310.832031 157.289062 L 309.929688 157.289062 Z M 901.246094 172.125 C 900.242188 172.671875 898.617188 172.882812 899.691406 173.554688 C 905.078125 173.382812 909.769531 173.917969 914.136719 174.757812 C 907.9375 175.382812 901.152344 175.429688 894.867188 175.964844 C 892.65625 177.171875 890.664062 178.585938 888.539062 179.875 C 897.9375 180.226562 907.335938 180.5625 915.949219 181.683594 C 905.503906 182.476562 893.851562 182.078125 883.421875 182.886719 C 882.445312 183.332031 881.738281 184.015625 880.707031 184.398438 C 880.5 184.957031 877.800781 185.664062 879.203125 185.90625 C 892.699219 187.671875 909.722656 185.898438 923.488281 187.40625 C 908.765625 188.089844 891.078125 188.988281 876.796875 189.515625 C 874.570312 189.601562 872.296875 189.117188 870.46875 190.417969 C 870.554688 191.117188 869.597656 190.75 869.566406 191.324219 C 869.257812 191.453125 867.988281 191.972656 869.257812 191.925781 C 894.707031 191.164062 920.683594 192.523438 944.863281 192.53125 C 950.675781 192.53125 956.339844 193.054688 962.035156 193.132812 C 973.308594 193.28125 984.414062 192.984375 995.171875 194.335938 C 961.105469 194.4375 926.097656 195.542969 891.550781 195.542969 C 882.875 195.542969 874.023438 196.265625 866.25 196.746094 C 863.859375 196.898438 860.554688 196.09375 859.019531 198.554688 C 859.800781 199.804688 861.171875 198.941406 863.238281 199.152344 C 889.925781 198.492188 916.835938 199.695312 943.65625 199.757812 C 960.25 199.796875 976.921875 201.324219 993.355469 200.660156 C 1031.890625 199.121094 1070.597656 199.050781 1109.929688 197.042969 C 1131.351562 195.957031 1152.460938 195.675781 1172.566406 194.035156 C 1176.683594 193.699219 1180.976562 192.671875 1185.226562 192.230469 C 1189.605469 191.769531 1194.003906 191.367188 1198.179688 190.71875 C 1206.21875 189.484375 1214.421875 188.128906 1220.46875 184.09375 C 1185.285156 188.316406 1148.152344 189.023438 1110.828125 191.023438 C 1092.226562 192.019531 1073.417969 192.285156 1054.800781 193.132812 C 1035.902344 193.996094 1017.105469 194.46875 998.472656 194.035156 C 1017.816406 193.660156 1037.40625 192.175781 1057.21875 191.621094 C 1067.074219 191.351562 1076.929688 190.984375 1086.738281 190.417969 C 1096.445312 189.863281 1106.078125 188.882812 1115.652344 188.613281 C 1134.582031 188.082031 1153.804688 185.71875 1172.878906 184.699219 C 1188.855469 183.84375 1207.207031 182.613281 1219.863281 178.074219 C 1221.679688 177.417969 1223.964844 177.234375 1224.984375 175.359375 C 1225.085938 174.121094 1223.40625 175.335938 1222.875 175.359375 C 1207.589844 178.289062 1191.496094 180.894531 1174.382812 181.082031 C 1170.339844 181.128906 1167.226562 181.457031 1163.539062 181.683594 C 1145.511719 182.800781 1127.71875 184.242188 1109.621094 183.492188 C 1129.566406 182.730469 1151.042969 180.351562 1171.667969 179.582031 C 1190.183594 178.882812 1207.457031 177.210938 1221.074219 171.75 C 1222.695312 171.097656 1225.574219 170.109375 1226.191406 168.4375 C 1222.886719 168.582031 1219.789062 170.113281 1216.25 170.847656 C 1212.8125 171.554688 1208.933594 172.199219 1205.113281 172.652344 C 1194.34375 173.917969 1182.394531 175.492188 1171.371094 174.152344 C 1192.527344 173.726562 1211.734375 171.34375 1225.589844 163.613281 C 1225.011719 162.074219 1224.746094 160.246094 1224.082031 158.796875 C 1142.449219 176.492188 1022.769531 169.554688 901.246094 172.125 Z M 681.433594 170.359375 C 549.101562 167.585938 418.535156 166.550781 362.042969 158.796875 C 361.367188 160.339844 361.011719 162.183594 360.535156 163.917969 C 371.285156 168.972656 384.671875 172.597656 399.394531 173.554688 C 404.351562 173.871094 409.632812 173.414062 414.75 174.457031 C 399.761719 175.125 385.191406 173.554688 372.28125 171.140625 C 368.003906 170.351562 363.902344 169.027344 359.929688 168.4375 C 360.628906 170.503906 363.335938 170.746094 365.054688 171.445312 C 379.125 177.210938 395.765625 178.882812 414.441406 179.582031 C 424.695312 179.960938 435.109375 181.019531 445.480469 181.683594 C 456.070312 182.367188 466.621094 182.613281 476.503906 183.796875 C 458.078125 183.984375 439.84375 182.765625 422.585938 181.683594 C 420.121094 181.535156 417.746094 180.816406 415.355469 180.78125 C 414.011719 180.757812 412.789062 181.113281 411.429688 181.082031 C 394.554688 180.75 378.722656 178.453125 363.546875 175.359375 C 362.765625 175.511719 361.164062 174.042969 361.132812 175.359375 C 362.105469 177.085938 364.246094 177.433594 365.957031 178.074219 C 379.0625 182.941406 397.105469 183.441406 413.246094 184.398438 C 432.203125 185.515625 451.542969 188.089844 470.46875 188.613281 C 480.058594 188.878906 489.605469 189.863281 499.386719 190.417969 C 519.09375 191.550781 539.011719 191.847656 558.128906 193.132812 C 568.101562 193.800781 577.984375 192.75 587.648438 194.335938 C 559.605469 193.902344 530.75 193.535156 503 192.230469 C 484.484375 191.351562 465.984375 190.675781 447.28125 189.820312 C 437.972656 189.390625 428.722656 188.597656 419.574219 188.308594 C 401.148438 187.734375 383.304688 185.554688 365.65625 184.398438 C 375.585938 189.691406 388.195312 190.890625 401.191406 192.230469 C 405.574219 192.679688 409.898438 193.707031 414.144531 194.035156 C 434.121094 195.589844 455.246094 195.933594 476.503906 197.042969 C 481.683594 197.316406 486.949219 197.246094 492.15625 197.652344 C 507.527344 198.847656 524.199219 199.105469 540.042969 199.152344 C 549.542969 199.183594 558.96875 199.648438 568.664062 200.0625 C 576.660156 200.394531 584.757812 200.339844 592.769531 200.660156 C 609.378906 201.324219 626.078125 199.71875 642.765625 199.757812 C 656.941406 199.789062 671.089844 199.441406 685.234375 199.152344 C 697.539062 198.910156 710.269531 199.121094 722.574219 199.152344 C 724.019531 199.160156 725.835938 199.71875 727.105469 198.554688 C 725.6875 196.148438 722.414062 196.886719 720.171875 196.746094 C 711.894531 196.226562 703.457031 195.542969 694.871094 195.542969 C 683.320312 195.542969 671.296875 194.664062 659.921875 194.9375 C 636.464844 195.503906 613.289062 194.367188 590.953125 194.035156 C 631.507812 192.386719 674.1875 191.550781 717.160156 191.925781 C 715.183594 188.8125 710.109375 189.554688 705.710938 189.21875 C 695.8125 188.464844 686.285156 188.363281 676.796875 188.015625 C 671.753906 187.828125 666.808594 188.589844 662.636719 187.113281 C 677.109375 186.308594 693.496094 187.4375 707.21875 185.90625 C 706.996094 184.910156 704.03125 184.070312 703 182.886719 C 692.539062 181.914062 680.160156 182.839844 670.175781 181.386719 C 679.261719 180.734375 688.671875 180.40625 697.585938 179.582031 C 695.136719 179.128906 693.925781 176.75 690.960938 175.964844 C 685.324219 174.480469 677.640625 176.324219 671.972656 174.457031 C 676.976562 174.222656 681.164062 173.203125 686.742188 173.554688 C 685.515625 171.867188 683.75 171.695312 681.433594 170.359375 Z M 1255.699219 157.886719 C 1255.609375 159.398438 1256.40625 159.996094 1256.316406 161.503906 C 1261.628906 160.066406 1267.160156 157.304688 1271.363281 154.878906 C 1272.691406 154.117188 1275.71875 153.277344 1274.375 150.964844 C 1268.265625 153.378906 1262.601562 156.253906 1255.699219 157.886719 Z M 311.4375 152.769531 C 316.707031 156.535156 322.917969 159.367188 329.8125 161.503906 C 329.710938 159.996094 330.519531 159.398438 330.417969 157.886719 C 323.519531 156.253906 317.855469 153.378906 311.742188 150.964844 C 311.742188 151.671875 311.222656 151.851562 311.4375 152.769531 Z M 1272.28125 145.546875 C 1265.921875 148.027344 1259.871094 150.816406 1253.601562 153.378906 C 1254.121094 153.953125 1254.238281 154.941406 1254.503906 155.78125 C 1261.996094 154.332031 1267.914062 151.324219 1273.179688 147.652344 C 1272.75 147.078125 1272.472656 146.347656 1272.28125 145.546875 Z M 313.851562 145.546875 C 313.664062 146.460938 313.210938 147.105469 312.941406 147.949219 C 318.589844 151.144531 324.09375 154.472656 331.617188 155.78125 C 331.84375 154.800781 332.160156 153.921875 332.527344 153.074219 C 325.808594 151.050781 320.285156 147.839844 313.851562 145.546875 Z M 1251.492188 148.25 C 1251.523438 149.316406 1252.347656 149.597656 1252.394531 150.664062 C 1259.546875 149.183594 1265.066406 146.058594 1270.761719 143.132812 C 1270.582031 141.902344 1270.183594 140.902344 1269.566406 140.125 C 1264.078125 143.375 1258.207031 146.230469 1251.492188 148.25 Z M 315.351562 143.132812 C 321.0625 146.058594 326.574219 149.183594 333.722656 150.664062 C 333.773438 149.597656 334.585938 149.316406 334.632812 148.25 C 327.773438 146.273438 322.050781 143.171875 316.253906 140.125 C 316.183594 141.351562 315.34375 141.820312 315.351562 143.132812 Z M 1208.710938 208.492188 C 1214.820312 209.023438 1220.378906 207.660156 1225.277344 206.082031 C 1235.117188 200.449219 1243.925781 192.695312 1247.585938 181.082031 C 1253.085938 163.535156 1245.886719 145.265625 1232.816406 138.613281 C 1222.238281 134.492188 1210.554688 138.03125 1205.113281 144.9375 C 1203.402344 147.09375 1202.074219 150.265625 1203.003906 153.671875 C 1204.726562 153.308594 1206.410156 152.863281 1208.417969 152.769531 C 1211.101562 149.820312 1213.535156 146.648438 1219.863281 147.347656 C 1229.363281 150.429688 1233.847656 161.886719 1232.507812 173.855469 C 1231.828125 179.90625 1228.714844 184.957031 1225.589844 188.308594 C 1219.273438 195.078125 1209.433594 198.21875 1199.078125 200.0625 C 1206.335938 204.496094 1219.082031 203.125 1226.191406 199.453125 C 1228.007812 198.0625 1229.71875 196.5625 1231.605469 195.238281 C 1236.785156 189.296875 1241.386719 180.15625 1242.15625 169.335938 C 1242.847656 159.375 1237.964844 151.890625 1233.421875 146.75 C 1239.484375 150.886719 1243.304688 159.25 1243.363281 168.730469 C 1243.425781 180.933594 1239 190.253906 1233.421875 196.445312 C 1227.832031 201.4375 1219.1875 206.703125 1208.710938 206.6875 C 1203.3125 206.679688 1199.800781 205.007812 1196.671875 203.375 C 1194.960938 202.480469 1193.382812 201.117188 1191.847656 201.269531 C 1194.710938 204.566406 1201.644531 207.886719 1208.710938 208.492188 Z M 381.015625 144.9375 C 376.957031 139.796875 369.175781 136.234375 361.4375 136.808594 C 358.628906 137.011719 356.101562 138.148438 353.300781 138.613281 C 347.734375 141.695312 343.128906 146.4375 340.054688 152.769531 C 335.824219 161.457031 335.816406 172.394531 338.546875 181.082031 C 342.273438 192.9375 351.347656 200.660156 360.839844 206.082031 C 365.792969 207.652344 370.949219 209.023438 378.003906 208.492188 C 383.054688 207.515625 387.472656 205.910156 391.558594 203.972656 C 391.691406 203.101562 392.859375 203.265625 393.066406 202.464844 C 393.714844 202.550781 395.234375 201.183594 393.964844 201.269531 C 393.035156 200.582031 392.472656 201.78125 391.855469 202.167969 C 389.480469 203.632812 387.015625 205.03125 384.328125 205.785156 C 371.121094 209.449219 358.863281 202.0625 352.398438 196.140625 C 346.941406 190.011719 342.570312 180.242188 342.761719 168.4375 C 342.917969 159.101562 346.652344 150.515625 353.003906 146.75 C 351.359375 148.976562 349.195312 150.589844 347.886719 152.769531 C 338.554688 168.296875 347.800781 192.789062 359.929688 199.453125 C 366.96875 203.046875 380.277344 204.746094 387.046875 199.757812 C 374.34375 198.15625 362.597656 193.339844 356.917969 183.796875 C 349.972656 172.113281 353.410156 150.546875 366.554688 147.347656 C 372.949219 146.578125 374.902344 150.25 378.003906 152.769531 C 379.832031 152.949219 381.5 153.300781 383.125 153.671875 C 384.050781 150.4375 382.796875 147.191406 381.015625 144.9375 Z M 1248.175781 143.132812 C 1248.601562 144.417969 1249.441406 145.289062 1250.285156 146.144531 C 1257.160156 144.082031 1262.972656 140.960938 1268.058594 137.105469 C 1266.925781 136.519531 1266.554688 135.191406 1265.640625 134.398438 C 1260.332031 137.8125 1254.636719 140.855469 1248.175781 143.132812 Z M 318.066406 137.410156 C 323.613281 140.800781 328.964844 144.386719 336.136719 146.144531 C 336.523438 144.921875 337.691406 144.488281 337.949219 143.132812 C 331.34375 140.894531 325.8125 137.59375 320.175781 134.398438 C 319.792969 135.730469 318.710938 136.351562 318.066406 137.410156 Z M 329.507812 131.683594 C 328.917969 130.261719 327.539062 128.042969 326.5 128.074219 C 327.539062 129.242188 328.253906 130.734375 329.507812 131.683594 Z M 1250.285156 134.398438 C 1253.175781 132.5625 1255.269531 129.941406 1256.613281 126.566406 C 1257.070312 126.496094 1256.65625 126.066406 1256.316406 125.96875 C 1254.355469 128.828125 1252.203125 131.496094 1250.285156 134.398438 Z M 331.921875 130.78125 C 333.007812 132.171875 334.355469 133.925781 335.839844 134.09375 C 333.390625 131.527344 331.847656 128.042969 329.207031 125.664062 C 329.546875 127.53125 330.800781 129.367188 331.921875 130.78125 Z M 340.65625 135.300781 C 337.941406 132.195312 336.507812 127.792969 333.429688 125.058594 C 333.964844 128.953125 338.039062 133.480469 340.65625 135.300781 Z M 1249.074219 129.878906 C 1247.921875 131.730469 1246.390625 133.496094 1246.066406 135.300781 C 1248.632812 132.042969 1251.890625 129.464844 1253 124.761719 C 1253.308594 124.746094 1253.234375 124.371094 1252.6875 124.457031 C 1251.449219 126.058594 1250.253906 127.996094 1249.074219 129.878906 Z M 344.871094 135.898438 C 342.484375 130.867188 339.347656 126.574219 336.136719 122.351562 L 335.234375 122.351562 C 337.527344 127.789062 340.972656 132.074219 344.871094 135.898438 Z M 1240.652344 136.507812 C 1244.839844 132.570312 1248.441406 128.027344 1250.886719 122.351562 C 1251.199219 122.335938 1251.125 121.960938 1250.59375 122.046875 C 1246.476562 126.078125 1243.761719 131.480469 1240.652344 136.507812 Z M 1237.035156 134.398438 C 1239.191406 132.867188 1241.375 130.640625 1243.054688 128.371094 C 1244.765625 126.058594 1246.34375 123.320312 1246.964844 120.839844 C 1243.230469 124.941406 1240.519531 130.058594 1237.035156 134.398438 Z M 1207.8125 121.144531 C 1203.3125 126.605469 1198.121094 132.484375 1194.859375 138.917969 C 1193.78125 141.046875 1192.425781 143.242188 1191.847656 145.546875 C 1198.382812 138.226562 1204.183594 130.167969 1209.019531 121.144531 C 1209.007812 120.957031 1208.976562 120.785156 1208.710938 120.839844 C 1208.667969 121.191406 1208.238281 121.167969 1207.8125 121.144531 Z M 394.570312 145.546875 C 390.230469 136.132812 384.859375 127.746094 377.703125 121.144531 C 377.398438 121.144531 377.34375 120.902344 377.105469 120.839844 C 381.847656 130.152344 387.621094 138.425781 394.570312 145.546875 Z M 348.488281 134.09375 C 345.5 129.453125 342.746094 124.574219 338.847656 120.839844 C 341.207031 126.113281 344.496094 130.453125 348.488281 134.09375 Z M 1233.113281 133.496094 C 1237.746094 129.878906 1241.359375 125.265625 1243.660156 119.339844 C 1243.96875 119.324219 1243.894531 118.949219 1243.363281 119.035156 C 1239.425781 123.34375 1236.285156 128.433594 1233.113281 133.496094 Z M 349.691406 130.78125 C 350.601562 131.761719 351.714844 133.078125 353.003906 133.191406 C 350.316406 129.15625 347.492188 125.25 344.871094 121.144531 C 343.835938 120.863281 343.175781 118.640625 342.164062 119.339844 C 344.148438 123.375 346.902344 127.789062 349.691406 130.78125 Z M 1192.144531 151.867188 C 1197.144531 148.078125 1200.347656 141.824219 1204.195312 136.203125 C 1208.0625 130.585938 1212.058594 124.753906 1214.746094 118.429688 C 1214.730469 118.25 1214.699219 118.082031 1214.433594 118.132812 C 1206.246094 128.621094 1198.015625 139.050781 1192.144531 151.867188 Z M 371.683594 119.035156 C 376.066406 128.601562 382.082031 136.542969 387.636719 144.9375 C 388.507812 146.382812 389.894531 147.3125 390.660156 148.859375 C 391.871094 149.449219 392.121094 151.011719 393.375 151.566406 C 393.375 152.03125 394.1875 152.550781 393.964844 151.566406 C 388.136719 139.128906 379.863281 129.125 372.28125 118.429688 C 371.867188 118.445312 371.621094 118.289062 371.378906 118.132812 C 371.363281 118.546875 371.519531 118.796875 371.683594 119.035156 Z M 1238.539062 117.527344 C 1238.527344 117.917969 1238.140625 117.949219 1238.230469 118.429688 C 1236.636719 120.4375 1235.234375 122.761719 1233.714844 125.058594 C 1232.285156 127.21875 1230.148438 129.398438 1230.101562 131.988281 C 1233.65625 127.617188 1237.507812 123.523438 1239.441406 117.527344 Z M 356.320312 131.988281 C 354.203125 126.371094 350.207031 122.636719 347.585938 117.527344 L 346.683594 117.527344 C 348.75 123.492188 352.335938 127.933594 356.320312 131.988281 Z M 1234.632812 116.625 C 1230.957031 121.789062 1227.121094 126.792969 1224.082031 132.585938 C 1228.714844 128.089844 1232.816406 123.050781 1235.53125 116.625 Z M 1219.554688 116.625 C 1215.027344 122.378906 1211.191406 128.441406 1207.222656 134.703125 C 1203.445312 140.621094 1199.359375 146.5625 1196.378906 153.074219 C 1198.945312 150.515625 1200.730469 147.191406 1202.691406 144.035156 C 1206.691406 137.789062 1211.589844 132.445312 1215.351562 125.96875 C 1217.222656 124.03125 1218.269531 121.261719 1219.863281 119.035156 C 1219.644531 118.113281 1221.648438 116.882812 1220.175781 116.625 Z M 365.65625 117.527344 C 369.117188 124.054688 373.105469 130.121094 377.398438 135.898438 C 381.730469 141.734375 385.730469 147.761719 390.054688 153.671875 C 389.699219 151.617188 388.433594 150.46875 387.945312 148.554688 C 383.933594 143.609375 380.890625 137.804688 377.398438 132.289062 C 373.914062 126.78125 370.546875 121.035156 365.957031 116.625 L 365.351562 116.625 C 365.34375 117.042969 365.5 117.285156 365.65625 117.527344 Z M 362.042969 132.585938 C 359.003906 126.792969 355.167969 121.789062 351.5 116.625 L 350.59375 116.625 C 353.300781 123.050781 357.402344 128.089844 362.042969 132.585938 Z M 1230.101562 116.023438 C 1226.074219 121.433594 1221.914062 126.707031 1218.65625 132.890625 C 1221.972656 131.292969 1223.082031 127.46875 1225.898438 125.359375 C 1227.832031 122.289062 1230.027344 119.457031 1231.605469 116.023438 Z M 793.0625 116.023438 C 772.480469 126.960938 753.671875 139.679688 734.316406 151.867188 C 737.253906 153.5625 739.9375 155.492188 742.757812 157.289062 C 754.070312 157.328125 765.742188 157 775.300781 158.796875 C 768.648438 159.390625 761.710938 158.78125 755.105469 158.796875 C 751.992188 158.796875 748.539062 158.929688 745.78125 159.703125 C 747.875 160.90625 749.71875 162.382812 751.800781 163.613281 C 757.226562 164.101562 763.628906 163.628906 767.761719 165.417969 C 765.210938 167.457031 758.792969 165.589844 755.707031 166.328125 C 758.394531 167.648438 760.917969 169.160156 762.9375 171.140625 C 767.96875 167.734375 773.027344 164.359375 778 160.90625 C 783.28125 157.648438 787.765625 153.59375 793.355469 150.664062 C 803.167969 157.625 813.167969 164.390625 823.1875 171.140625 C 825.132812 168.988281 828.097656 167.828125 830.414062 166.023438 C 826.949219 165.859375 822.714844 166.492188 820.472656 165.121094 C 824.21875 164.054688 828.925781 163.941406 833.71875 163.917969 C 836.078125 162.257812 839.03125 161.195312 840.652344 158.796875 C 832.878906 159 823.804688 158.652344 816.5625 158.496094 C 814.851562 158.457031 813.082031 159.140625 811.738281 158.191406 C 822.34375 157.453125 832.671875 156.433594 844.265625 156.691406 C 846.671875 154.871094 849.59375 153.578125 851.792969 151.566406 C 832.082031 139.851562 813.714844 126.800781 793.0625 116.023438 Z M 355.113281 116.929688 C 357.175781 121.648438 360.894531 125.960938 363.847656 129.574219 C 364.835938 130.789062 365.824219 132.601562 367.464844 132.585938 C 365.625 129.605469 363.816406 126.597656 361.742188 123.859375 C 360.785156 122.398438 359.796875 120.972656 358.730469 119.636719 C 357.671875 118.28125 356.886719 116.65625 355.113281 116.023438 C 354.878906 116.089844 354.515625 116.035156 354.507812 116.320312 C 354.910156 116.328125 354.789062 116.851562 355.113281 116.929688 Z M 1212.636719 134.996094 C 1216.175781 130.859375 1220.675781 125.960938 1223.480469 121.144531 C 1224.363281 119.613281 1226.105469 117 1225.277344 115.722656 C 1220.867188 121.75 1215.6875 128.609375 1212.636719 134.996094 Z M 360.535156 116.929688 C 363.964844 123.53125 368.101562 129.433594 373.183594 134.398438 C 369.929688 127.609375 365.15625 122.34375 361.4375 116.023438 C 361.023438 116.035156 360.777344 115.886719 360.535156 115.722656 C 360.1875 116.164062 360.1875 116.484375 360.535156 116.929688 Z M 932.222656 138.917969 C 937.886719 147.597656 943.257812 156.589844 950.898438 163.308594 L 955.398438 163.308594 C 948.921875 154.238281 941.648438 143.335938 936.128906 132.289062 C 940.542969 137.507812 943.375 144.324219 948.183594 149.152344 C 949.925781 152.226562 952.300781 154.683594 954.496094 157.289062 C 957.136719 159.507812 958.511719 163.238281 962.9375 163.308594 C 962.9375 162.082031 961.800781 161.164062 961.136719 160.300781 C 958.714844 157.171875 956.503906 154.046875 954.203125 150.964844 C 951.058594 146.742188 948.417969 142.183594 945.175781 138.015625 C 942.003906 133.957031 938.816406 129.878906 935.820312 125.664062 C 932.796875 121.378906 930.230469 116.648438 926.496094 113.007812 C 906.539062 122.03125 888.449219 134.023438 869.863281 144.9375 C 855.847656 153.167969 841.9375 161.410156 828.601562 169.9375 C 824.128906 172.808594 819.835938 176.113281 815.351562 178.976562 C 806.28125 184.769531 796.941406 190.136719 787.941406 195.839844 C 778.988281 201.515625 770.476562 207.910156 761.742188 213.914062 C 759.574219 215.402344 756.960938 216.269531 754.808594 217.828125 C 753.746094 218.597656 752.90625 219.5 751.800781 220.238281 C 746.132812 224.027344 740.632812 227.535156 735.230469 231.6875 C 726.792969 238.167969 717.351562 243.175781 709.015625 249.757812 C 701.757812 255.109375 694.5 260.871094 687.035156 265.714844 C 684.558594 267.335938 681.695312 268.851562 680.117188 271.441406 C 693.953125 282.152344 708.722656 291.480469 722.574219 302.164062 C 736.367188 312.808594 750.648438 322.886719 764.75 333.191406 C 774.589844 339.609375 783 347.464844 793.355469 353.371094 C 802.960938 346.8125 812.152344 339.828125 821.371094 332.890625 C 828.554688 327.933594 835.621094 322.855469 842.761719 317.832031 C 849.886719 312.808594 856.617188 307.136719 863.550781 301.863281 C 866.972656 299.257812 870.660156 296.960938 874.082031 294.332031 C 882.785156 287.652344 892.332031 281.507812 900.902344 275.363281 C 902.613281 274.125 904.871094 273.089844 906.007812 271.148438 C 904.308594 268.625 901.226562 267.5 898.777344 265.714844 C 896.136719 264.050781 893.878906 261.992188 891.253906 260.296875 C 884.554688 255.175781 877.089844 249.871094 868.964844 244.03125 C 863.917969 240.40625 857.144531 236.355469 851.792969 232.285156 C 849.84375 230.808594 847.691406 228.652344 846.066406 228.375 C 844.460938 228.09375 842.203125 228.894531 840.34375 228.972656 C 833.527344 229.277344 826.785156 229.121094 820.472656 229.582031 C 817.519531 229.789062 814.347656 229.292969 812.636719 231.386719 C 825.53125 231.441406 838.292969 231.632812 849.679688 233.1875 C 835.992188 234.230469 821.679688 233.234375 808.125 234.699219 C 806.945312 235.335938 805.71875 235.910156 804.804688 236.804688 C 822.332031 236.605469 839.546875 236.535156 855.40625 238.609375 C 838.632812 239.605469 820.160156 238.90625 803.609375 240.121094 C 805.101562 240.820312 806.160156 241.980469 807.8125 242.53125 C 827.421875 242.210938 848.441406 242.523438 866.558594 244.636719 C 848.78125 244.746094 829.988281 245.066406 812.035156 245.84375 C 818.835938 249.980469 825.015625 254.992188 831.609375 259.394531 C 838.292969 263.851562 844.976562 268.261719 851.496094 272.953125 C 833.203125 288.390625 813.613281 302.546875 793.0625 315.722656 C 774.960938 304.414062 757.699219 291.441406 741.546875 278.675781 C 739.171875 276.785156 736.398438 275.160156 734.628906 272.648438 C 750.191406 263.105469 764.546875 251.808594 779.800781 241.925781 C 787.457031 236.976562 794.921875 231.679688 802.398438 226.5625 C 809.96875 221.390625 817.285156 215.945312 824.691406 210.601562 C 840.0625 200.574219 855.140625 190.253906 870.46875 180.179688 C 886.636719 170.941406 901.816406 160.71875 918.664062 152.171875 C 920.375 154.070312 921.660156 156.394531 923.488281 158.191406 C 925.183594 160.214844 925.289062 163.816406 929.507812 163.308594 C 930.007812 162.09375 927.542969 161.261719 927.398438 159.703125 C 924.386719 156.277344 922.042969 152.203125 920.476562 147.347656 C 923.78125 152.195312 926.953125 157.367188 931.011719 161.203125 C 932.53125 162.632812 934.257812 163.921875 937.03125 163.308594 C 934.214844 158.605469 929.328125 153.347656 927.398438 146.75 C 931.441406 153.042969 935.644531 159.1875 941.855469 163.308594 L 945.765625 163.308594 C 941.292969 156.347656 935.261719 148.3125 932.222656 138.917969 Z M 659.019531 146.144531 L 659.019531 146.75 C 656.765625 152.414062 653.535156 157.109375 650.289062 161.808594 C 649.949219 162.089844 648.058594 163.269531 649.386719 163.308594 L 652.707031 163.308594 C 655.007812 161.15625 657.53125 158.847656 659.625 156.085938 C 661.691406 153.371094 663.179688 149.875 665.351562 147.949219 C 662.902344 153.632812 659.566406 158.425781 656.320312 163.308594 C 660.15625 164.011719 661.261719 160.40625 662.636719 158.496094 C 664.273438 156.222656 665.777344 153.90625 667.753906 152.171875 C 672.164062 154.289062 676.53125 156.449219 680.117188 159.398438 C 687.359375 163.125 694.25 167.339844 701.199219 171.445312 C 722.382812 183.960938 741.722656 197.882812 762.039062 210.902344 C 763.867188 209.316406 766.390625 208.429688 768.054688 206.6875 C 763.792969 206.84375 760.132812 206.386719 756.917969 205.484375 C 761.417969 205.164062 766.019531 204.945312 770.769531 204.875 C 772.601562 203.890625 773.988281 202.472656 775.59375 201.269531 C 767.023438 200.699219 757.832031 200.738281 749.378906 200.0625 C 758.15625 198.683594 768.882812 199.269531 778.898438 199.152344 C 780.640625 198.085938 782.484375 197.105469 784.035156 195.839844 C 769.679688 194.972656 755.28125 196 741.855469 194.335938 C 756.609375 193.644531 772.261719 193.109375 787.042969 194.035156 C 788.253906 193.054688 789.980469 192.5625 790.953125 191.324219 C 774.519531 181.683594 758.851562 170.738281 743.066406 160.601562 C 737.710938 157.164062 731.882812 154.378906 726.5 150.964844 C 715.804688 144.175781 704.488281 138.132812 693.675781 131.386719 C 682.699219 124.550781 671.25 118.375 659.332031 113.007812 C 652.957031 121.199219 647.308594 130.105469 640.949219 138.308594 C 635.210938 146.128906 629.753906 154.226562 623.792969 161.808594 C 623.75 162.28125 621.992188 163.191406 623.484375 163.308594 C 625.339844 163.433594 626.65625 161.636719 627.703125 160.601562 C 631.464844 156.878906 634.8125 153.277344 637.941406 149.152344 C 640.152344 146.640625 641.671875 143.453125 643.960938 141.023438 C 645.640625 138.273438 647.882812 134.492188 649.683594 132.890625 C 645.417969 141.265625 640.050781 148.554688 635.226562 156.386719 C 634.664062 157.53125 633.484375 158.761719 632.527344 159.996094 C 631.773438 160.953125 629.839844 162.953125 630.710938 163.308594 L 635.535156 163.308594 C 643.058594 156.277344 648.5625 147.222656 653.902344 138.015625 C 650.300781 146.851562 646.453125 155.453125 640.65625 162.113281 C 640.714844 162.625 638.941406 163.296875 640.34375 163.308594 L 645.167969 163.308594 C 650.980469 158.480469 655.082031 151.945312 659.332031 145.546875 C 659.332031 145.839844 659.082031 145.902344 659.019531 146.144531 Z M 1282.8125 200.964844 C 1285.894531 190.8125 1287.84375 178.9375 1287.328125 167.828125 C 1286.8125 156.246094 1283.550781 146.828125 1279.492188 138.015625 C 1275.671875 129.667969 1270.097656 122.472656 1263.53125 116.320312 C 1255.019531 108.332031 1244.058594 103.214844 1228.289062 103.371094 C 1211.5 103.542969 1197.882812 109.390625 1190.34375 119.035156 C 1187.15625 123.113281 1184.371094 128.757812 1182.511719 134.703125 C 1180.621094 140.792969 1179.648438 148.003906 1181.007812 155.484375 C 1181.863281 155.703125 1184.382812 155.335938 1186.125 155.484375 C 1183.527344 135.300781 1194.210938 119.417969 1207.8125 113.007812 C 1218.890625 107.796875 1233.777344 107.539062 1247.878906 111.507812 C 1262.070312 118.234375 1271.054688 127.515625 1277.089844 142.230469 C 1279.90625 149.074219 1282.855469 158.574219 1283.417969 166.925781 C 1284.332031 180.679688 1281.425781 194.0625 1277.089844 204.875 C 1264.625 235.972656 1238.804688 258.164062 1209.332031 269.941406 C 1208.960938 270.796875 1207.972656 271.652344 1207.222656 272.648438 C 1206.644531 273.402344 1205.1875 274.773438 1206.011719 275.058594 C 1242.109375 262.425781 1271.070312 239.582031 1282.8125 200.964844 Z M 403.597656 134.703125 C 400.46875 124.621094 394.65625 115.769531 387.046875 110.898438 C 378.253906 105.292969 361.359375 101.855469 347.585938 103.976562 C 337.257812 105.570312 328.652344 110.378906 322.28125 116.320312 C 315.992188 122.203125 309.898438 130.066406 306.320312 138.015625 C 302.371094 146.757812 299.304688 156.347656 298.792969 168.132812 C 298.300781 179.148438 300.222656 191.109375 303.304688 201.269531 C 314.949219 239.652344 344.886719 262.878906 380.113281 275.058594 C 380.9375 274.773438 379.476562 273.402344 378.90625 272.648438 C 378.152344 271.652344 377.15625 270.796875 376.800781 269.941406 C 347.164062 258.164062 321.371094 235.679688 309.027344 204.875 C 304.695312 194.0625 301.695312 180.492188 302.703125 166.625 C 303 162.59375 304.074219 157.90625 305.117188 153.671875 C 310.203125 133.003906 321.117188 119.246094 338.546875 111.507812 C 351.148438 107.609375 367.0625 107.84375 378.003906 112.710938 C 381.589844 114.308594 386.144531 117.699219 389.449219 121.144531 C 396.898438 128.898438 401.886719 141.15625 400 155.484375 C 401.738281 155.335938 404.261719 155.703125 405.117188 155.484375 C 406.472656 148.027344 405.515625 140.839844 403.597656 134.703125 Z M 1297.578125 206.984375 C 1296.058594 217.027344 1291.5625 224.074219 1287.636719 231.6875 C 1283.59375 238.789062 1278.84375 245.183594 1273.472656 250.960938 C 1263.722656 263.492188 1251.035156 273.105469 1237.9375 282.285156 C 1221.117188 292.746094 1200.582031 300.6875 1177.390625 305.175781 C 1165.265625 307.523438 1151.988281 308.753906 1138.84375 308.488281 C 1125.996094 308.242188 1113.335938 306.34375 1101.492188 303.96875 C 1096.105469 302.898438 1090.734375 300.835938 1085.527344 299.15625 C 1080.1875 297.429688 1075.039062 295.820312 1070.171875 293.734375 C 1060.433594 289.566406 1051.347656 284.472656 1042.746094 279.273438 C 1033.894531 273.917969 1025.132812 269.140625 1017.152344 263.011719 C 1009.097656 256.8125 1001.175781 250.898438 993.960938 244.335938 C 985.210938 236.316406 976.921875 227.835938 969.265625 218.738281 C 967.878906 217.308594 966.625 215.75 965.339844 214.21875 C 963.734375 213.027344 963.273438 210.671875 961.136719 210.003906 C 960.515625 210.398438 958.113281 210.570312 957.523438 210.003906 C 956.179688 210.328125 958.246094 211.945312 958.730469 212.40625 C 959.234375 213.609375 960.164062 214.382812 961.136719 215.121094 C 962.417969 217.253906 964.101562 218.976562 965.945312 220.542969 C 968.675781 224.640625 972.289062 227.871094 975.59375 231.386719 C 982.363281 238.253906 989.636719 244.644531 996.675781 251.265625 C 1019.4375 269.253906 1042.71875 286.742188 1072.574219 297.648438 C 1079.570312 300.71875 1086.828125 303.792969 1094.867188 306.078125 C 1102.820312 308.351562 1111.199219 310.007812 1120.460938 311.203125 C 1138.859375 313.578125 1159.808594 314.410156 1177.996094 310.902344 C 1183.203125 309.898438 1188.441406 307.992188 1193.664062 306.683594 C 1209.863281 302.617188 1223.847656 297.203125 1236.429688 289.519531 C 1253.101562 279.320312 1268.132812 266.976562 1278.902344 252.167969 C 1284.390625 244.613281 1290.011719 236.734375 1294.261719 227.769531 C 1298.671875 218.457031 1302.269531 209.316406 1304.808594 198.25 C 1313.484375 160.308594 1299.410156 124.785156 1281.308594 105.480469 C 1274.566406 98.285156 1266.660156 92.496094 1256.90625 87.714844 C 1248.308594 84.042969 1237.9375 81.75 1227.386719 82.292969 C 1206.5 83.363281 1190.359375 93.8125 1180.105469 105.183594 C 1168.804688 114.664062 1159.054688 135.789062 1165.339844 156.386719 C 1169.351562 156.269531 1173.144531 155.953125 1177.097656 155.78125 C 1174.839844 137.003906 1182.289062 123.144531 1192.453125 114.820312 C 1201.15625 106.871094 1212.84375 102.171875 1228.90625 102.164062 C 1247.9375 102.164062 1261.1875 110.214844 1270.761719 121.742188 C 1275.230469 127.132812 1279.40625 133.792969 1282.207031 141.023438 C 1285.21875 148.765625 1287.886719 156.769531 1288.226562 166.023438 C 1289.761719 206.679688 1272.839844 234.730469 1250.886719 252.167969 C 1243.894531 258.824219 1235.632812 264.222656 1226.796875 269.03125 C 1220.511719 272.335938 1212.929688 276.320312 1206.308594 279.273438 C 1203.769531 280.410156 1200.863281 280.839844 1198.488281 281.988281 C 1196.4375 282.96875 1193.664062 285.769531 1191.847656 287.109375 C 1191.304688 287.511719 1189.0625 288.15625 1190.34375 288.609375 C 1211.5 282.457031 1230.691406 274.335938 1247.273438 263.609375 C 1241.757812 269.148438 1234.246094 272.980469 1226.796875 277.46875 C 1219.847656 281.648438 1211.867188 285.511719 1203.902344 288.910156 C 1200.066406 290.546875 1195.65625 292.164062 1191.246094 293.429688 C 1186.847656 294.699219 1182.230469 296.0625 1177.703125 297.046875 C 1172.980469 298.066406 1167.804688 298.214844 1162.933594 299.460938 C 1158.15625 300.671875 1153.300781 301.980469 1148.773438 302.46875 C 1141.160156 303.292969 1136.632812 300.710938 1132.207031 297.949219 C 1130.226562 296.707031 1127.515625 295.59375 1127.394531 292.527344 C 1129.253906 288.3125 1133.59375 290.28125 1137.03125 291.019531 C 1142.589844 292.21875 1147.460938 293.617188 1153.597656 293.128906 C 1164.101562 292.296875 1171.933594 288.710938 1180.105469 284.394531 C 1194.800781 276.652344 1211.144531 262.550781 1212.636719 244.335938 C 1213.609375 232.566406 1209.019531 224.175781 1204.507812 216.925781 C 1199.34375 212 1192.160156 204.90625 1182.511719 203.972656 C 1176.535156 203.398438 1170.414062 204.324219 1165.339844 206.082031 C 1155.351562 211.199219 1145.378906 220.875 1149.390625 236.207031 C 1151.914062 239.707031 1153.730469 243.550781 1157.816406 245.542969 C 1160.101562 246.644531 1162.625 246.511719 1165.339844 247.648438 C 1164.542969 252.066406 1161.207031 253.964844 1158.714844 256.6875 C 1156.164062 259.449219 1152.652344 261.261719 1149.980469 263.914062 C 1141.882812 269.449219 1132.175781 272.46875 1119.871094 273.253906 C 1094.277344 274.886719 1074.746094 265 1058.722656 255.785156 C 1050.121094 250.835938 1042.4375 245.105469 1034.929688 239.816406 C 1026.371094 233.128906 1017.652344 225.558594 1009.628906 217.53125 C 1007.589844 215.492188 1003.535156 210.46875 1001.1875 210.003906 C 998.84375 209.527344 995.125 210.980469 992.75 210.296875 C 996.761719 216.675781 1002.296875 222.78125 1008.121094 228.375 C 1013.992188 234.015625 1021.339844 238.113281 1026.195312 243.738281 C 1013.285156 235.429688 1000.539062 225.839844 989.742188 214.816406 C 988.191406 213.230469 986.953125 210.734375 984.917969 210.296875 C 983.558594 210.011719 982.039062 210.53125 981.007812 210.296875 C 980.566406 211.363281 982.542969 212.585938 983.117188 213.609375 C 984.003906 214.738281 984.785156 215.960938 985.832031 216.925781 C 987.484375 219.28125 989.695312 221.101562 991.261719 223.550781 C 1002.472656 236.136719 1016.441406 247.414062 1029.515625 256.992188 C 1018.730469 250.699219 1009.140625 243.214844 999.683594 235.601562 C 992.648438 229.882812 986.023438 223.761719 980.109375 216.925781 C 977.628906 215.429688 976.921875 211.089844 973.777344 210.296875 C 972.523438 209.988281 971.210938 210.523438 969.265625 210.296875 C 969.382812 211.953125 971.136719 213.324219 972.273438 214.816406 C 973.5 216.425781 974.53125 218.144531 975.886719 219.335938 C 978.351562 222.386719 981.050781 225.222656 983.722656 228.070312 C 1004.480469 251.304688 1031.757812 269.394531 1060.226562 284.695312 C 1077.59375 294.03125 1096.5625 302.078125 1120.167969 304.882812 C 1154.894531 308.996094 1187.113281 303.863281 1212.636719 293.734375 C 1225.101562 288.789062 1236.210938 281.699219 1246.375 274.15625 C 1251.507812 270.347656 1256.804688 266.722656 1261.4375 262.414062 C 1266.082031 258.0625 1269.964844 253 1274.078125 248.253906 C 1279.359375 242.585938 1284.023438 236.308594 1287.636719 228.972656 C 1289.464844 225.824219 1291.722656 222.230469 1293.359375 218.433594 C 1295.042969 214.527344 1295.898438 209.941406 1297.578125 206.6875 Z M 453.902344 297.949219 C 451.839844 299.234375 449.683594 300.765625 447.28125 301.566406 C 439.445312 304.148438 430.386719 301.324219 422.878906 299.460938 C 418.160156 298.277344 413.128906 297.800781 408.421875 296.746094 C 399.304688 294.691406 390.542969 292.148438 382.222656 288.609375 C 369.984375 283.40625 359.378906 277.71875 348.488281 270.84375 C 344.480469 268.316406 340.132812 265.925781 339.144531 263.609375 C 339.183594 263.695312 339.121094 263.828125 339.144531 263.914062 C 355.808594 274.367188 374.738281 282.542969 395.777344 288.609375 C 396.765625 288.832031 396.234375 288.019531 395.777344 288.007812 C 395.378906 287.707031 394.863281 287.511719 394.570312 287.109375 C 391.972656 286.082031 390.246094 283.242188 387.636719 281.988281 C 385.277344 280.84375 382.59375 280.386719 380.113281 279.273438 C 373.066406 276.125 365.910156 272.773438 359.632812 269.03125 C 350.46875 264.441406 342.359375 258.800781 335.234375 252.167969 C 313.074219 234.589844 296.375 206.386719 297.882812 166.023438 C 298.234375 156.785156 300.96875 148.976562 303.910156 141.328125 C 306.78125 133.855469 310.769531 127.265625 315.351562 121.742188 C 324.972656 110.152344 338.320312 102.078125 357.527344 102.164062 C 373.414062 102.242188 385.015625 106.902344 393.667969 114.820312 C 403.832031 123.144531 411.285156 137.003906 409.027344 155.78125 C 412.980469 155.953125 416.773438 156.269531 420.785156 156.386719 C 425.683594 141.957031 421.066406 126.988281 415.652344 117.230469 C 412.816406 112.113281 408.996094 108.101562 404.808594 103.976562 C 400.46875 99.699219 396.339844 95.71875 391.558594 92.832031 C 379.398438 85.488281 362.191406 79.792969 343.96875 83.195312 C 332.066406 85.410156 324.039062 89.992188 315.960938 95.84375 C 303.523438 104.847656 294.460938 116.53125 287.941406 131.085938 C 282.488281 143.273438 279.914062 156.636719 278.910156 170.542969 C 277.859375 185.066406 281.160156 199.199219 285.234375 212.109375 C 288.953125 223.871094 294.855469 234.816406 301.5 244.335938 C 308.265625 254.035156 315.671875 262.972656 323.792969 270.539062 C 340.800781 285.464844 360.894531 298.074219 386.128906 305.175781 C 398.597656 308.683594 412.242188 312.246094 426.804688 313.007812 C 437.941406 313.59375 451.085938 313.0625 461.738281 311.804688 C 470.691406 310.746094 477.492188 309.515625 484.929688 307.585938 C 488.925781 306.554688 492.953125 305.589844 496.671875 304.273438 C 519.050781 296.363281 540.011719 286.976562 557.523438 274.753906 C 563.453125 270.609375 569.738281 266.945312 575.285156 262.414062 C 580.878906 257.835938 586.527344 253.574219 591.851562 248.855469 C 602.726562 239.210938 613.066406 229.402344 622.273438 218.738281 C 623.820312 216.628906 626.136719 214.203125 627.703125 212.109375 C 627.980469 211.730469 629.839844 210.546875 628.601562 210.003906 C 627.644531 210.742188 625.472656 210.132812 624.382812 210.003906 C 616.710938 218.941406 609.085938 228.007812 600.601562 236.503906 C 592.28125 244.816406 582.78125 252.128906 573.488281 259.699219 C 564.398438 267.09375 553.734375 273.152344 543.066406 279.578125 C 532.238281 286.089844 521.085938 291.773438 509.328125 296.144531 C 497.246094 300.625 484.058594 304.632812 469.570312 306.683594 C 421.210938 313.546875 376.441406 300.011719 347.28125 281.6875 C 334.082031 272.5 321.667969 262.519531 311.742188 250.058594 C 306.4375 244.304688 301.957031 237.589844 297.882812 230.480469 C 293.851562 223.449219 289.480469 215.65625 288.851562 206.386719 C 293.628906 225 304.59375 240.398438 315.960938 252.765625 C 319.996094 257.167969 323.652344 261.671875 328.007812 265.421875 C 345.671875 280.605469 367.03125 292.917969 392.164062 299.753906 C 418.484375 306.917969 452.457031 308.542969 480.105469 302.46875 C 506.996094 296.558594 527.976562 284.199219 548.1875 272.046875 C 568.472656 259.503906 586.808594 245.003906 602.695312 228.070312 C 604.953125 224.90625 607.917969 222.4375 610.234375 219.335938 C 612.195312 217.179688 614.085938 214.957031 615.648438 212.40625 C 615.988281 211.972656 617.964844 210.539062 616.550781 210.296875 L 612.035156 210.296875 C 609.675781 212.132812 607.992188 214.714844 606.015625 216.925781 C 599.847656 223.777344 593.535156 230.195312 586.128906 235.601562 C 576.925781 243.457031 567.277344 250.878906 556.316406 256.992188 C 570.417969 246.988281 583.726562 236.214844 594.863281 223.25 C 596.871094 221.242188 598.460938 218.808594 600.601562 216.925781 C 601.691406 215.011719 603.242188 213.554688 604.511719 211.808594 C 604.539062 211.332031 606.296875 210.421875 604.804688 210.296875 L 600.898438 210.296875 C 599.6875 210.40625 599.140625 211.683594 598.492188 212.40625 C 593.226562 218.152344 587.457031 223.503906 581.617188 228.375 C 574.800781 234.050781 567.261719 238.859375 559.621094 243.738281 C 568.5 235.640625 578.664062 228.839844 586.4375 219.640625 C 587.871094 217.359375 590.628906 214.871094 592.164062 212.710938 C 592.636719 212.039062 593.949219 210.414062 593.0625 210.296875 C 590.097656 210.351562 587.222656 210.320312 584.625 210.003906 C 575.507812 219.050781 566.125 227.503906 556.019531 235.601562 C 546.046875 243.574219 535.734375 251.609375 523.785156 257.589844 C 513.519531 264.324219 499.785156 269.832031 484.324219 272.34375 C 467.683594 275.050781 450.320312 272.835938 438.839844 265.714844 C 435.449219 263.085938 431.90625 260.605469 428.601562 257.890625 C 425.785156 254.585938 421.59375 252.652344 420.785156 247.34375 C 429.324219 246.863281 433.441406 241.949219 436.730469 236.207031 C 439.359375 226.980469 436.523438 219.40625 431.316406 213.609375 C 425.519531 207.164062 416.035156 202.863281 403.300781 203.972656 C 393.699219 205.917969 387.265625 211.03125 381.621094 216.925781 C 376.464844 225.015625 372.359375 234.015625 373.488281 244.941406 C 374.730469 257 382.492188 267.148438 391.855469 274.753906 C 401.238281 282.371094 412.007812 288.855469 423.484375 291.625 C 428.191406 292.753906 433.117188 293.5625 437.941406 293.128906 C 441.246094 292.839844 445.65625 291.835938 449.390625 291.019531 C 452.753906 290.296875 457.253906 288.242188 458.726562 292.832031 C 458.492188 295.507812 455.953125 296.667969 453.902344 297.949219 Z M 427.40625 156.691406 C 445.613281 157.933594 464.304688 159.125 483.113281 159.996094 C 497.867188 160.6875 512.765625 159.886719 527.710938 160.601562 C 557.230469 162.011719 586.925781 162.851562 615.957031 163.308594 C 617.273438 162.773438 618.320312 161.558594 619.261719 160.601562 C 620.25 159.625 621.300781 158.542969 621.976562 157.289062 C 628.394531 151.660156 632.730469 143.941406 638.234375 137.410156 C 645.152344 128.253906 651.585938 118.617188 658.429688 109.398438 C 684.203125 121.773438 707.160156 136.957031 731.914062 150.359375 C 752.742188 138.253906 771.167969 123.757812 793.355469 113.007812 C 814.910156 124.199219 833.632812 138.195312 854.195312 150.359375 C 878.949219 136.957031 901.921875 121.773438 927.691406 109.398438 C 934.539062 118.617188 940.96875 128.253906 947.875 137.410156 C 954.820312 146.421875 961.402344 155.8125 969.871094 163.308594 C 977.140625 163.816406 984.488281 163.023438 991.851562 162.710938 C 999.390625 162.390625 1006.925781 162.765625 1014.4375 162.40625 C 1029.128906 161.714844 1042.160156 163.226562 1056.808594 162.527344 C 1071.769531 161.8125 1088.273438 160.679688 1102.996094 159.996094 C 1113.851562 159.496094 1124.488281 158.71875 1135.523438 158.191406 C 1142.8125 157.851562 1150.511719 157.15625 1158.421875 156.691406 C 1155.367188 134.039062 1163.273438 114.828125 1174.675781 102.46875 C 1183.25 93.199219 1194.859375 85.707031 1209.019531 81.988281 C 1216.414062 80.050781 1225.203125 78.574219 1235.222656 79.273438 C 1250.578125 80.355469 1262.101562 86.226562 1272.28125 92.832031 C 1282.457031 99.445312 1290.175781 108.925781 1297.269531 118.429688 C 1306.917969 134.902344 1314.265625 152.753906 1314.738281 176.867188 C 1315.222656 201.382812 1308.6875 221.515625 1299.691406 237.40625 C 1295.042969 245.597656 1290.335938 253.226562 1284.628906 260.296875 C 1279.082031 267.140625 1272.457031 273.222656 1265.640625 279.273438 C 1245.179688 297.476562 1221.398438 310.574219 1190.65625 317.832031 C 1180.285156 320.273438 1169.632812 321.992188 1157.519531 322.644531 C 1133.695312 323.929688 1108.660156 320.878906 1090.351562 314.820312 C 1080.867188 311.679688 1071.515625 308.296875 1062.941406 304.273438 C 1054.34375 300.246094 1046.390625 295.570312 1038.246094 291.019531 C 1030.015625 286.4375 1022.035156 281.949219 1014.4375 276.863281 C 1006.839844 271.785156 999.683594 266.550781 992.75 260.902344 C 975.09375 244.933594 958.054688 228.34375 943.066406 209.699219 L 909.621094 209.699219 C 894.558594 209.699219 880.527344 210.6875 865.953125 210.003906 C 864.316406 209.925781 862.515625 209.464844 860.835938 209.394531 C 859.0625 209.324219 857.132812 209.910156 855.714844 209.699219 C 852.882812 209.269531 851.347656 206.617188 848.78125 205.484375 C 843 208.632812 838.574219 213.144531 833.128906 216.621094 C 845.519531 225.917969 859.316406 233.8125 871.675781 243.128906 C 878.210938 247.4375 884.46875 252.019531 890.648438 256.6875 C 893.96875 258.648438 896.816406 261.34375 899.988281 263.609375 C 903.054688 265.796875 906.832031 267.375 909.03125 270.539062 C 909.546875 272.65625 909.945312 274.878906 910.226562 277.167969 C 910.503906 279.382812 911.199219 282.441406 910.832031 284.097656 C 910.269531 286.585938 905.949219 288.34375 903.601562 289.816406 C 896.0625 294.550781 887.609375 301.03125 881.605469 305.78125 C 867.679688 317.503906 851.480469 326.253906 837.039062 337.710938 C 832.332031 341.4375 827.804688 345.507812 822.582031 348.554688 C 812.699219 355.53125 804.023438 363.738281 793.0625 369.632812 C 782.394531 363.621094 773.117188 355.640625 763.246094 348.554688 C 758.347656 345.039062 753.511719 341.484375 748.789062 337.710938 C 744.070312 333.941406 738.949219 330.695312 734.023438 327.164062 C 726.734375 321.9375 718.902344 317.226562 711.730469 311.507812 C 704.960938 306.09375 697.804688 300.035156 690.355469 294.941406 C 685.324219 291.503906 679.75 288.949219 675.292969 284.695312 C 675.765625 279.757812 676.074219 274.644531 677.109375 270.238281 C 689.132812 260.863281 701.863281 251.988281 714.445312 242.835938 C 726.972656 233.71875 740.351562 225.917969 752.996094 216.925781 C 748.039062 212.957031 743.007812 209.046875 737.636719 205.484375 C 735.171875 206.632812 733.328125 208.402344 731.011719 209.699219 C 703.542969 210.375 673.140625 209.34375 643.367188 209.699219 C 638.941406 213.609375 636.15625 219.15625 631.609375 222.953125 C 616.5625 239.949219 600.234375 255.644531 581.925781 269.636719 C 572.851562 276.558594 562.996094 282.664062 552.699219 288.609375 C 532.535156 300.253906 511.214844 311.148438 485.53125 317.527344 C 466.503906 322.25 442.367188 323.96875 419.871094 322.046875 C 384.507812 319.023438 355.808594 305.976562 332.820312 288.910156 C 328.101562 285.402344 323.441406 282.269531 319.273438 278.371094 C 315.164062 274.53125 311.238281 270.640625 307.222656 266.628906 C 299.273438 258.679688 292.917969 248.816406 287.039062 238.609375 C 280.878906 227.914062 276.554688 216.550781 273.785156 203.972656 C 267.375 174.804688 274.089844 144.867188 285.234375 124.761719 C 296.777344 103.929688 313.507812 89.121094 337.949219 81.382812 C 341.652344 80.378906 346.058594 80.066406 349.996094 79.273438 C 385.222656 78.542969 409.320312 93.203125 421.078125 116.625 C 426.273438 126.992188 430.550781 141.21875 427.40625 156.691406 "/>
</g>
<path style=" stroke:none;fill-rule:evenodd;fill:rgb(0%,0%,0%);fill-opacity:1;" d="M 410.832031 225.355469 C 405.808594 224.378906 402.464844 227.078125 399.988281 229.582031 C 395.726562 237.972656 400.488281 247.84375 404.507812 253.375 C 399.179688 249.742188 393.878906 239 397.578125 229.875 C 399.214844 227.425781 402.703125 224.035156 406.617188 223.855469 C 407.878906 223.800781 409.949219 224.003906 410.832031 225.355469 "/>
<path style=" stroke:none;fill-rule:evenodd;fill:rgb(0%,0%,0%);fill-opacity:1;" d="M 1175.296875 225.355469 C 1176.082031 224.066406 1178.054688 223.832031 1179.203125 223.855469 C 1183.234375 223.925781 1186.859375 227.316406 1188.539062 229.875 C 1192.191406 239.191406 1187.097656 248.667969 1181.917969 253.675781 C 1184.621094 248.285156 1190.890625 238.261719 1186.132812 229.875 C 1183.960938 226.972656 1180.320312 224.453125 1175.296875 225.355469 "/>
<g clip-path="url(#clip3)" clip-rule="nonzero">
<path style="fill:none;stroke-width:9.899999;stroke-linecap:butt;stroke-linejoin:miter;stroke:rgb(0%,0%,0%);stroke-opacity:1;stroke-miterlimit:4;" d="M 1293.109375 -114.613281 C 1293.109375 -114.613281 1321.222656 -93.980469 1330.292969 -84.914062 C 1458.835938 -143.628906 1513.640625 -162.527344 1586.1875 -162.527344 M 292.945312 -114.613281 C 292.945312 -114.613281 264.832031 -93.980469 255.765625 -84.914062 C 127.21875 -143.628906 72.414062 -162.527344 -0.132812 -162.527344 " transform="matrix(1,0,0,-1,0,0)"/>
</g>
<g clip-path="url(#clip4)" clip-rule="nonzero">
<path style="fill:none;stroke-width:9.899999;stroke-linecap:butt;stroke-linejoin:miter;stroke:rgb(0%,0%,0%);stroke-opacity:1;stroke-miterlimit:4;" d="M 1308.527344 -153.378906 C 1308.527344 -153.378906 1328.929688 -141.535156 1333.917969 -137.054688 C 1364.75 -155.191406 1413.148438 -170.445312 1413.148438 -170.445312 C 1405.054688 -173.984375 1379.261719 -189.921875 1385.132812 -218.359375 C 1389.957031 -241.738281 1416.875 -250.054688 1432.355469 -241.53125 C 1448.230469 -232.789062 1450.84375 -217.085938 1446.367188 -206.882812 C 1468.382812 -197.953125 1538.621094 -206.765625 1586.019531 -207.109375 M 277.527344 -153.378906 C 277.527344 -153.378906 257.125 -141.535156 252.136719 -137.054688 C 221.304688 -155.191406 172.90625 -170.445312 172.90625 -170.445312 C 181 -173.984375 206.792969 -189.921875 200.921875 -218.359375 C 196.097656 -241.738281 169.183594 -250.054688 153.699219 -241.53125 C 137.824219 -232.789062 135.210938 -217.085938 139.6875 -206.882812 C 117.675781 -197.953125 47.433594 -206.765625 0.0351562 -207.109375 " transform="matrix(1,0,0,-1,0,0)"/>
</g>
<path style=" stroke:none;fill-rule:evenodd;fill:rgb(0%,0%,0%);fill-opacity:1;" d="M 1476.605469 193.933594 C 1473.742188 193.230469 1471.488281 191.378906 1468.964844 190.109375 C 1452.199219 181.703125 1434.671875 177.28125 1419.039062 180.996094 C 1411.832031 183.511719 1401.941406 190.195312 1397.855469 199.574219 C 1395.925781 204.011719 1396.210938 208.390625 1396.066406 212.34375 C 1397.023438 218.84375 1400.960938 226.1875 1408.136719 230.949219 C 1412.6875 233.960938 1418.601562 235.683594 1423.160156 234.851562 C 1431.417969 233.347656 1439.074219 222.0625 1431.414062 214.707031 C 1435.769531 216.371094 1436.097656 221.609375 1435.300781 225.167969 C 1432.253906 238.679688 1415.492188 238.210938 1406.503906 232.15625 C 1403.855469 230.367188 1401.195312 227.824219 1399.738281 225.820312 C 1393.515625 217.300781 1391.355469 203.394531 1399.382812 192.613281 C 1404.234375 186.082031 1410.882812 181.472656 1417.058594 179.457031 C 1423.027344 177.492188 1429.761719 176.605469 1436.101562 177.273438 C 1449.226562 178.667969 1462.726562 184.96875 1476.605469 193.933594 M 109.449219 193.933594 C 112.3125 193.230469 114.566406 191.378906 117.089844 190.109375 C 133.855469 181.703125 151.382812 177.28125 167.015625 180.996094 C 174.222656 183.511719 184.113281 190.195312 188.199219 199.574219 C 190.132812 204.011719 189.84375 208.390625 189.988281 212.34375 C 189.035156 218.84375 185.09375 226.1875 177.917969 230.949219 C 173.367188 233.960938 167.453125 235.683594 162.894531 234.851562 C 154.636719 233.347656 146.980469 222.0625 154.640625 214.707031 C 150.285156 216.371094 149.957031 221.609375 150.753906 225.167969 C 153.800781 238.679688 170.5625 238.210938 179.550781 232.15625 C 182.203125 230.367188 184.859375 227.824219 186.316406 225.820312 C 192.539062 217.300781 194.699219 203.394531 186.675781 192.613281 C 181.824219 186.082031 175.171875 181.472656 168.996094 179.457031 C 163.027344 177.492188 156.292969 176.605469 149.957031 177.273438 C 136.828125 178.667969 123.328125 184.96875 109.449219 193.933594 "/>
<path style=" stroke:none;fill-rule:evenodd;fill:rgb(0%,0%,0%);fill-opacity:1;" d="M 1455.386719 189.808594 C 1447.890625 188.109375 1439.414062 186.164062 1430.609375 187.527344 C 1420.285156 189.121094 1405.878906 194.898438 1403.960938 208.566406 C 1402.777344 216.984375 1409.847656 227.527344 1419.929688 228.085938 C 1422.203125 227.648438 1424.457031 227.128906 1426.574219 225.464844 C 1422.453125 230.742188 1415.722656 228.953125 1409.949219 226.332031 C 1400.171875 218.871094 1400.464844 210.132812 1404.199219 200.960938 C 1411.207031 190.960938 1420.34375 187.648438 1428.667969 186.371094 C 1437.070312 185.082031 1446.496094 185.699219 1455.386719 189.808594 M 130.671875 189.808594 C 138.164062 188.109375 146.640625 186.164062 155.445312 187.527344 C 165.769531 189.121094 180.175781 194.898438 182.09375 208.566406 C 183.277344 216.984375 176.207031 227.527344 166.125 228.085938 C 163.851562 227.648438 161.597656 227.128906 159.480469 225.464844 C 163.601562 230.742188 170.332031 228.953125 176.105469 226.332031 C 185.886719 218.871094 185.59375 210.132812 181.855469 200.960938 C 174.847656 190.960938 165.710938 187.648438 157.386719 186.371094 C 148.984375 185.082031 139.558594 185.699219 130.671875 189.808594 "/>
<path style=" stroke:none;fill-rule:evenodd;fill:rgb(0%,0%,0%);fill-opacity:1;" d="M 1415.3125 219.890625 C 1414.003906 220.390625 1412.425781 219.4375 1411.597656 218.765625 C 1408.6875 216.414062 1407.964844 211.867188 1408.191406 209.035156 C 1410.828125 200.132812 1419.957031 196.097656 1426.601562 195.382812 C 1421.554688 197.789062 1411.25 201.554688 1409.957031 210.40625 C 1409.890625 213.769531 1411.117188 217.6875 1415.3125 219.890625 M 170.742188 219.890625 C 172.054688 220.390625 173.632812 219.4375 174.457031 218.765625 C 177.371094 216.414062 178.09375 211.867188 177.863281 209.035156 C 175.230469 200.132812 166.097656 196.097656 159.453125 195.382812 C 164.5 197.789062 174.808594 201.554688 176.101562 210.40625 C 176.164062 213.769531 174.9375 217.6875 170.742188 219.890625 "/>
<path style=" stroke:none;fill-rule:nonzero;fill:rgb(0%,0%,0%);fill-opacity:1;" d="M 1296.511719 121.867188 C 1298.550781 121.1875 1326.664062 99.195312 1326.664062 99.195312 C 1326.664062 99.195312 1303.085938 121.867188 1298.777344 124.359375 C 1314.421875 117.105469 1323.488281 108.265625 1323.488281 108.265625 C 1323.488281 108.265625 1310.566406 124.585938 1302.179688 128.441406 C 1311.699219 125.039062 1332.105469 110.53125 1332.105469 110.53125 C 1332.105469 110.53125 1309.886719 131.386719 1303.539062 134.109375 C 1311.699219 133.65625 1332.105469 117.558594 1332.105469 117.558594 C 1332.105469 117.558594 1349.109375 126.402344 1353.867188 127.761719 C 1341.851562 126.175781 1332.445312 121.640625 1332.445312 121.640625 C 1332.445312 121.640625 1309.433594 137.054688 1306.714844 138.871094 C 1313.515625 136.828125 1332.332031 125.945312 1332.332031 125.945312 C 1331.710938 122.84375 1364.976562 144.3125 1385.609375 147.484375 C 1361.125 143.628906 1332.785156 129.121094 1332.785156 129.121094 C 1332.785156 129.121094 1316.066406 142.042969 1308.074219 145.386719 C 1304.21875 140.625 1296.511719 121.867188 1296.511719 121.867188 Z M 289.542969 121.867188 C 287.503906 121.1875 259.390625 99.195312 259.390625 99.195312 C 259.390625 99.195312 282.96875 121.867188 287.277344 124.359375 C 271.632812 117.105469 262.566406 108.265625 262.566406 108.265625 C 262.566406 108.265625 275.488281 124.585938 283.875 128.441406 C 274.355469 125.039062 253.949219 110.53125 253.949219 110.53125 C 253.949219 110.53125 276.167969 131.386719 282.515625 134.109375 C 274.355469 133.65625 253.949219 117.558594 253.949219 117.558594 C 253.949219 117.558594 236.949219 126.402344 232.1875 127.761719 C 244.203125 126.175781 253.609375 121.640625 253.609375 121.640625 C 253.609375 121.640625 276.621094 137.054688 279.34375 138.871094 C 272.539062 136.828125 253.722656 125.945312 253.722656 125.945312 C 254.34375 122.84375 221.078125 144.3125 200.445312 147.484375 C 224.933594 143.628906 253.269531 129.121094 253.269531 129.121094 C 253.269531 129.121094 269.988281 142.042969 277.980469 145.386719 C 281.835938 140.625 289.542969 121.867188 289.542969 121.867188 Z M 289.542969 121.867188 "/>
<path style=" stroke:none;fill-rule:nonzero;fill:rgb(0%,0%,0%);fill-opacity:1;" d="M 1401.476562 152.019531 C 1401.476562 152.019531 1502.363281 192.828125 1563.800781 194.867188 C 1479.917969 193.28125 1425.28125 164.941406 1401.476562 152.019531 Z M 184.578125 152.019531 C 184.578125 152.019531 83.691406 192.828125 22.253906 194.867188 C 106.136719 193.28125 160.773438 164.941406 184.578125 152.019531 Z M 184.578125 152.019531 "/>
</g>
</svg>
