<?xml version="1.0" encoding="UTF-8" standalone="no"?>
<!-- Created with Inkscape (http://www.inkscape.org/) -->

<svg
   width="170.53821mm"
   height="108.10316mm"
   viewBox="0 0 170.53821 108.10316"
   version="1.1"
   id="svg1"
   xml:space="preserve"
   xmlns="http://www.w3.org/2000/svg"
   xmlns:svg="http://www.w3.org/2000/svg"><defs
     id="defs1" /><g
     id="layer1"
     transform="translate(-563.98141,-163.44957)"><path
       style="fill:#000000"
       d="m 694.41,271.31117 c -3.2675,-0.90396 -5.02531,-4.10417 -6.31783,-6.97882 -0.8952,-1.94166 -1.144,-4.18204 -0.36587,-6.20728 1.07029,-3.84302 2.86,-7.494 3.26777,-11.5062 0.29772,-2.35213 0.39408,-4.73004 0.86579,-7.05767 0.37443,-1.55864 -0.27185,-3.47471 -2.14879,-2.40144 -4.20252,1.74916 -8.57396,3.11643 -13.00258,4.17541 -4.71408,0.91865 -9.55807,1.14848 -14.32544,0.5193 -5.2375,-0.56219 -10.52555,-0.63429 -15.72307,-1.54636 -1.46213,-0.38884 -2.58216,-0.99393 -4.28152,-1.22822 -8.02543,-2.05367 -15.76473,-5.35641 -22.57843,-10.09745 -0.81377,-0.51534 -2.43941,-1.8539 -1.63882,-0.007 0.66044,2.69439 0.37713,5.5213 1.05793,8.22073 1.03276,3.57063 1.64969,7.24607 2.28567,10.90415 -0.12208,2.52375 -0.61085,5.22163 -2.44271,7.10368 -2.02753,2.50483 -5.18626,3.59159 -7.96065,5.03139 -2.13607,0.88614 -4.23174,1.9871 -6.51377,2.43402 -1.66636,0.12756 -3.25438,0.75109 -4.93156,0.87609 -5.95965,0.87771 -11.96364,1.5251 -17.99534,1.49663 -4.19729,-0.01 -8.26425,0.14241 -12.60082,0.26209 -1.54182,-0.30019 -3.13999,-0.61919 -4.50276,-1.43149 -8e-5,-1.20455 2.14242,-1.80313 3.14397,-1.98305 4.27043,0.22045 8.33139,0.11981 12.48718,0.5286 4.02185,0.47118 8.05936,0.0976 12.06526,-0.33046 4.50173,-0.41746 9.07556,-0.64309 13.38604,-2.1403 2.10339,-0.62596 4.05884,-1.683 6.19157,-2.20429 2.35471,-1.19263 4.79403,-2.57478 6.1343,-4.95142 0.36831,-0.70868 1.13929,-1.29804 0.9525,-2.17123 -0.0663,-1.94464 0.18783,-3.93633 -0.24093,-5.84019 -1.59644,-0.114 -2.93011,-1.42375 -4.47456,-2.03044 -3.22925,-1.59777 -6.9158,-1.38623 -10.41116,-1.66748 -6.27007,-0.33508 -12.68115,-0.35687 -18.72403,-2.25508 -1.64336,-0.73905 -3.4519,-1.18658 -4.96353,-2.16659 -2.72776,-1.73343 -4.38264,-5.51469 -2.73284,-8.51769 1.42288,-2.29929 3.38394,-4.29785 5.62714,-5.80404 1.48651,-1.10074 3.19113,-1.37762 4.95094,-1.86779 2.77294,-1.30433 5.81144,-2.17009 8.90136,-1.95592 3.83178,0.0966 7.82588,-0.1021 11.3933,1.55794 2.77034,1.19773 5.67081,2.27292 8.01841,4.21859 4.30643,2.80218 8.65347,5.57804 13.23478,7.91186 6.19447,2.82419 12.77157,4.73539 19.44681,6.02298 4.74661,1.12434 9.67885,0.83511 14.49574,1.4625 3.76883,0.3459 7.62383,0.36072 11.33895,-0.42549 1.61729,-0.81479 3.3907,-1.2603 5.18371,-1.55387 6.60212,-1.13164 12.53246,-4.83836 19.27106,-5.32226 3.07043,-0.11626 6.27526,0.55541 8.87039,2.24555 1.6616,1.4014 2.98451,3.38791 3.14653,5.59774 1.25323,1.77408 -0.23461,3.48558 -1.70125,4.5049 -2.13854,1.68188 -4.78264,2.52543 -7.13892,3.84982 -2.20913,1.18346 -4.56976,2.19079 -6.53795,3.73679 -1.5822,0.68 -2.68935,2.17658 -3.95117,3.32223 -2.37271,1.98231 -2.83718,5.61108 -1.43662,8.29027 1.14571,2.43568 2.89995,5.35298 5.91866,5.45899 2.65096,-0.0743 5.1861,-1.11797 7.57006,-2.20758 2.67723,-1.27211 5.28403,-2.70407 7.70322,-4.41336 2.79169,-1.55919 5.92814,-2.45051 9.12774,-2.54801 2.21579,-0.0899 4.4844,-0.41054 6.67697,0.0367 0.50709,0.29079 0.46633,1.18022 0.59395,1.52753 -4.23874,0.85559 -8.67034,0.82914 -12.80038,2.2494 -6.13492,2.0417 -11.35952,6.45527 -17.87095,7.42349 -0.99292,0.12665 -2.02947,0.15661 -2.99345,-0.15051 z m 0.61126,-21.24604 c 0.29487,-2.28145 -2.16947,0.72616 -2.47589,1.52744 -0.6626,0.83229 -0.60736,1.90038 0.40555,0.71917 0.76315,-0.66656 1.60015,-1.3304 2.07034,-2.24661 z m 4.61303,-2.28889 c -0.9761,-0.47015 -1.47266,1.47463 -0.13514,0.41654 0.13291,-0.0603 0.30333,-0.28639 0.13514,-0.41654 z m -4.25173,-1.96017 c 0.0777,-1.18022 -1.0463,0.62633 -1.45391,-0.28528 -0.50718,0.63938 -0.7136,2.11318 -0.66934,2.64716 0.76842,-0.70629 1.98156,-1.22429 2.12325,-2.36188 z m 6.64505,1.01696 c 1.57994,-0.81549 1.60976,-3.62918 -0.25443,-1.46489 -0.49166,0.51692 -1.2485,2.90228 0.25443,1.46489 z m -2.82275,-2.23357 c 1.50155,-2.28203 -2.2107,1.35974 0,0 z m 6.92659,-0.0343 c 0.50683,-1.95695 -1.79848,1.20741 -0.0903,0.15071 z m -10.96816,-1.37265 c 1.12765,-1.01276 0.18391,-2.50947 -0.93293,-1.21387 -0.44977,0.70512 -0.0655,2.39094 0.93293,1.21387 z m 7.13225,-2.00654 c 0.33409,-1.30114 -2.14317,1.90941 -0.49985,0.67265 0.19033,-0.20498 0.36411,-0.42737 0.49985,-0.67265 z m 6.64851,-0.50409 c -1.02848,-0.9161 -1.54139,2.22603 -0.84106,1.46085 0.31285,-0.41802 1.22542,-0.88253 0.84106,-1.46085 z m -91.34899,0.89071 c -0.12545,-1.28127 -3.03196,-2.94839 -3.23866,-1.485 0.91116,0.55321 2.32548,1.65382 3.23866,1.485 z m 81.45777,-0.56149 c 1.08065,-1.463 -1.5262,0.38088 -0.22509,0.1296 z m 6.66588,-0.0359 c 0.99358,-0.41452 0.45344,-3.24375 -0.40106,-1.41327 -0.37061,0.48538 -0.87035,2.34026 0.40106,1.41327 z m -10.56213,-1.35221 c 0.77468,-0.7778 2.47669,-1.06411 3.00838,-1.47543 -1.02881,0.14095 -4.04006,0.50876 -3.80452,1.25551 -0.10234,0.56203 -0.36013,1.15891 0.55267,0.43943 z m 3.17348,-0.30687 c 0.52211,-1.41869 -1.83708,2.06836 -0.13255,0.22864 l 0.13255,-0.22859 z m -84.73288,-0.0163 c 0.12218,-1.32324 -2.69617,-1.82804 -3.63839,-0.86966 -0.54206,0.31264 -1.40929,0.69268 -0.26239,0.65522 1.23341,0.0559 2.48227,0.54188 3.66475,0.42902 z m 88.00379,-0.91491 c -1.30223,-0.78403 -0.89653,1.98287 -0.244,0.97795 0.33408,-0.39201 1.46791,-1.04507 0.35432,-0.96459 l -0.10004,-0.0121 z m -92.32567,-0.0624 c 0.70695,-1.57201 -2.65824,-0.96724 -3.63778,-1.2486 -2.69628,-0.13956 -5.39518,-0.21876 -8.09299,-0.322 -0.0714,0.61197 -0.14288,1.22394 -0.21433,1.83591 3.74038,0.0572 7.48506,0.31236 11.22252,0.1636 0.29994,-0.008 0.5538,-0.19761 0.72258,-0.42891 z m -12.94473,-0.31458 c -0.0794,-2.09533 -2.93135,-1.23787 -4.31154,-1.87467 -1.70048,-0.0241 -4.17002,-1.39999 -5.42877,-0.47846 0.11111,0.55813 -0.78662,1.97728 0.22337,1.88439 3.13484,0.3701 6.26876,0.80645 9.41636,1.01851 0.25826,-0.0522 0.12672,-0.4067 0.10058,-0.54977 z m -10.32491,-1.14612 c 0.54272,-2.2046 -3.98915,0.43178 -1.31101,0.32242 0.31669,-0.034 1.53565,0.37568 1.31101,-0.32242 z m 121.39093,-0.13774 c -0.43238,-0.81947 -2.76968,-1.6503 -1.27868,-0.25656 0.34,0.30207 2.44358,1.31844 1.27868,0.25656 z m -91.12445,-0.0984 c -0.32524,-1.1019 -2.37554,-1.48974 -1.38519,0.11205 0.32259,0.26427 1.28916,0.47283 1.38519,-0.11205 z m 82.88074,-0.91912 c 0.8729,0.13074 1.77296,-0.32181 0.48835,-0.67525 -0.66384,-0.11865 -1.35997,-0.77738 -2.02235,-0.52524 -1.43765,0.683 -3.07201,1.08656 -4.30141,2.10509 1.46993,0.17979 2.99794,-0.64397 4.50681,-0.75943 0.44023,-0.0678 0.88257,-0.13391 1.3286,-0.14517 z m -114.50827,-0.79156 c -1.1061,-1.32646 -1.68944,0.1748 -1.74543,1.27443 0.30793,-0.0109 1.34841,-0.88995 1.74543,-1.27443 z m -2.44728,-0.0159 c 0.32207,-1.40197 -2.26712,-0.36955 -0.72044,0.21531 0.6079,0.38964 0.99925,1.07522 0.72044,-0.21531 z m 30.31581,-0.0356 c -0.33444,-1.42265 -3.69161,-1.28711 -2.26027,0.39578 0.69046,0.19694 1.79195,0.24341 2.26027,-0.39578 z m -4.33848,-0.12685 c -0.0362,-1.0628 -0.45537,-2.14851 -1.75028,-1.26367 -0.37418,0.11142 -1.86178,1.11275 -1.06658,0.32203 1.41259,-1.09262 -1.42857,-0.79863 -2.19817,-1.01259 -1.25393,-0.62688 -2.43145,0.98997 -1.58077,1.77124 2.19551,0.2156 4.42549,0.30155 6.62858,0.2239 l -0.0328,-0.0409 z m -7.66228,-0.82978 c 0.0992,-1.53844 -1.39621,-1.44268 -2.46904,-1.38906 -0.60877,0.009 -0.15111,1.08502 -0.29203,1.56217 -0.26979,0.89127 0.78766,0.45531 1.30997,0.55449 0.54638,-0.0664 1.88803,0.28424 1.4511,-0.7276 z m -4.75533,-0.39687 c 0.0461,-1.48755 -1.74878,-0.89474 -2.75022,-1.16447 -0.85969,-0.31548 -0.97833,1.8086 -0.16555,1.90077 1.02081,0.19471 2.06682,0.095 3.09999,0.12354 -0.0614,-0.28661 -0.12281,-0.57322 -0.18422,-0.85984 z m -15.50614,-0.22746 c -2.01158,-1.32328 0.77567,1.53735 0,0 z m 10.6979,0.029 c -0.10677,-1.38646 -2.39552,0.86823 -0.6306,0.52916 0.32508,0.0676 0.86746,-0.0795 0.6306,-0.52916 z m -2.37958,-0.63395 c 0.52853,-0.32764 1.4623,-0.73587 0.30787,-0.72881 -1.0406,-0.57135 -2.50667,0.19908 -1.6801,1.34235 0.50759,-0.0446 0.94033,-0.37398 1.37223,-0.61354 z m -3.25334,-0.0275 c -0.13472,-1.13381 -2.29844,0.97459 -0.4139,0.36666 0.18474,-0.021 0.42669,-0.14359 0.4139,-0.36666 z m 30.18781,-0.41489 c 2.23551,-1.03155 -2.30096,-2.41922 -1.33509,-0.13591 -0.0545,1.05234 0.89719,0.49755 1.33509,0.13591 z m -33.62739,-0.51115 c 0.0923,-1.51089 -1.61147,-0.0654 -2.37411,0.13531 0.12903,0.16078 1.88491,0.94425 2.32996,0.36163 l 0.0354,-0.21212 z m 29.65073,-0.53848 c 0.93217,-0.49113 0.52169,-2.3796 -0.48652,-1.01434 -1.30452,0.70803 -0.94033,1.73223 0.48652,1.01434 z m -3.81938,-0.85059 c 0.51208,-1.65888 -3.33016,-1.8777 -2.64947,-0.27846 -0.0153,0.60235 3.16736,1.39898 2.64947,0.27846 z m -12.07302,-0.7276 c 0.12982,-1.45104 -3.79233,-1.05551 -2.90959,0.40208 0.80733,-0.3128 3.2938,1.029 2.90959,-0.40208 z m 4.49792,0.13229 c -0.0341,-1.62044 -3.88267,-0.30024 -1.83803,0.64355 0.55415,-0.0835 1.98523,0.36997 1.83803,-0.64355 z m 3.46866,0.0662 c -0.4474,-1.51017 -3.04017,-0.29603 -1.39629,0.57568 0.40593,-0.0602 1.89982,0.32267 1.39629,-0.57568 z m -23.82419,-0.55147 c -0.76924,-0.60503 -1.13219,1.6391 -0.005,0.44571 0.18367,-0.0841 0.16233,-0.35166 0.005,-0.44571 z m 11.09511,-0.0438 c -0.22343,-1.45473 -1.65332,0.14938 -2.24895,0.6451 0.69008,-0.14607 2.31768,0.4684 2.24895,-0.6451 z m -8.87779,-0.72761 c 0.4059,-0.98386 0.52357,-3.27846 -0.84937,-1.64904 -1.12847,0.61594 -1.45027,1.77704 0.20234,1.87501 0.20351,0.12622 0.63833,0.10008 0.64703,-0.22597 z m 6.11525,-0.0577 c 1.0534,-1.15411 -2.19671,0.29432 -0.42321,0.27776 l 0.19486,-0.11574 0.22835,-0.16243 z m 27.56723,-0.66697 c 1.87381,-0.57359 -0.28949,-2.179 -1.02467,-0.78557 -1.5716,0.958 0.14182,1.74997 1.02467,0.78557 z m -3.99056,-1.50197 c -0.39576,0.0531 -2.32688,0.96348 -1.01182,0.94215 0.7328,0.31455 1.34771,-0.14679 1.01182,-0.94215 z m -27.05036,0.7353 c -0.57317,-2.23117 -1.09489,1.02117 0,0 z m 11.21836,-0.94772 c 0.50641,-1.78087 -4.02918,-1.49336 -2.84873,-0.28587 1.93308,-1.03302 -0.87388,0.92472 -0.0425,0.93038 0.92418,-0.0816 2.39492,0.63968 2.85371,-0.3666 l 0.0375,-0.27788 z m 4.27829,-0.008 c 0.14167,-1.80143 -3.05351,-0.92293 -2.31268,0.76274 0.67047,0.18691 2.67807,0.6017 2.31268,-0.76274 z m 3.175,-0.16315 c 0.10255,-2.68083 -3.25183,0.84899 -0.79375,1.08919 0.75529,0.18409 0.85446,-0.51427 0.79375,-1.08919 z m 3.96875,-0.10144 c 0.53848,-2.03891 -3.1539,-1.3374 -2.38125,0.4629 -0.28815,0.9002 0.47242,0.75169 1.10843,0.72773 0.55592,-0.0699 1.55355,0.30194 1.27282,-0.6046 z m -16.40417,0.13229 c 0.10533,-1.58169 -1.2862,0.10373 -1.85103,0.49412 0.69347,-0.0388 2.10055,0.83083 1.85103,-0.49412 z m 20.10834,-1.21676 c -1.03672,-0.83212 -2.44749,0.70177 -1.67852,1.09651 0.5668,-0.35266 1.18458,-0.64037 1.67852,-1.09651 z m -25.53229,0.42301 c -0.0734,-0.88628 -0.7274,0.83218 0,0 z m 5.1058,-1.18114 c -1.05527,-0.87314 -3.50788,-0.86366 -3.12143,1.06102 -0.10143,0.78561 0.94599,-0.19304 1.38235,-0.23331 0.58378,-0.26588 1.18063,-0.51078 1.73908,-0.82771 z m 5.49319,-2.13837 c 0.75468,-1.85557 -1.25326,-1.32545 -2.40705,-1.19879 -0.79546,-0.0851 -1.13024,0.21127 -0.86752,1.00232 -0.29434,1.47518 3.64846,2.10016 3.27457,0.19647 z m 4.20342,0.87212 c -0.13149,-0.59543 0.87212,-2.30813 -0.0252,-2.31511 h -2.2095 v 2.64584 c 0.73302,-0.0618 1.64486,0.19084 2.23471,-0.33073 z m 3.32154,-0.46302 c -0.21789,-1.42207 -3.14189,0.11474 -1.18106,0.524 0.40332,-0.0175 1.24023,0.13418 1.18106,-0.524 z m 3.96875,-0.007 c -0.39117,-1.05612 -3.6496,-1.0604 -2.24534,0.22462 0.72207,0.0271 1.61667,0.18874 2.24534,-0.22462 z m -16.13958,-0.42273 c -0.17127,-0.88111 -1.36269,1.03506 -0.11658,0.30317 l 0.0853,-0.1365 0.0313,-0.16668 z m 11.57255,-0.53046 c 1.59054,-0.70028 -2.2735,-0.97545 -0.97981,0.13872 0.33506,0.037 0.65987,-0.0594 0.97981,-0.13872 z m 91.96082,43.71405 c -2.16042,-1.19585 -2.35134,-4.26512 -1.05052,-6.17243 2.61401,-4.33216 7.54391,-6.20471 11.82473,-8.42021 3.54772,-1.7965 7.18197,-3.65236 9.90672,-6.62194 0.66725,-0.34888 0.43257,-1.0589 0.43418,-1.67431 -0.10618,-3.72414 -0.23921,-7.46652 -1.06438,-11.11403 -1.32356,-8.13333 -0.6881,-16.42323 0.13841,-24.57212 0.4105,-4.81858 2.14988,-9.38618 2.74542,-14.17207 0.28796,-2.48611 -1.57694,-4.5177 -3.22918,-6.12573 -2.13341,-2.05187 -4.64938,-3.73563 -7.53208,-4.51752 -3.31346,-1.08759 -6.79995,-1.78568 -10.29948,-1.47682 -2.68576,0.13891 -5.41083,0.0949 -8.01666,0.83306 -5.41654,0.90948 -10.87137,1.68353 -16.35493,2.0263 -4.17452,0.0757 -8.19187,-1.16449 -12.21332,-2.09908 -3.76688,-0.33587 -6.899,-2.62832 -10.10934,-4.40762 -3.60965,-2.30574 -7.57642,-3.95024 -11.6281,-5.29955 -4.09318,-1.3346 -8.09811,-3.03004 -12.32828,-3.89148 -4.50898,-0.52211 -8.98231,-1.48764 -13.54496,-1.38165 -4.09676,-0.0192 -8.20034,-0.0459 -12.29415,-0.004 -5.7965,1.21457 -11.76937,2.05963 -17.14466,4.67272 -2.29575,1.41724 -4.22305,3.40018 -5.89142,5.50491 -1.33067,2.11909 -0.42258,4.74393 0.14362,6.97379 1.79043,5.69932 1.21246,11.73485 0.73833,17.58415 -0.29571,2.91908 -0.46198,5.87886 -1.34396,8.69385 -1.36712,5.96412 -2.81685,11.92049 -4.86191,17.69511 -0.52373,1.9342 -1.23668,3.92695 -1.06464,5.95049 0.82868,1.48982 1.16603,3.16749 1.83045,4.71233 1.91632,2.85565 5.43358,3.96575 8.58357,4.87279 3.27467,0.9245 6.66797,1.33635 10.0491,1.57604 1.43578,-0.91492 3.23508,-0.15339 4.80657,0.0845 4.15194,0.92904 8.44611,0.36778 12.63331,0.94727 1.39989,0.70787 3.52434,-0.0677 4.38954,1.64191 1.00051,1.74806 0.74519,3.87965 0.0797,5.69354 -0.54177,1.66539 -2.77671,2.3621 -4.27783,3.13002 -1.22541,0.0504 -2.85821,1.63526 -3.21492,1.72645 -0.88853,-1.01274 -3.16681,0.54201 -4.60117,0.24408 -5.0309,0.35554 -10.08403,0.27535 -15.11087,0.71923 -4.58466,0.24708 -9.20485,-0.35216 -13.60924,-1.61559 4.21983,-0.26141 8.46302,-0.0394 12.68024,-0.33991 0.13049,-0.96667 -0.0824,-1.94266 -0.14868,-2.91042 -3.1952,0.0912 -6.36979,-0.31787 -9.52382,-0.78522 -0.31312,0.81463 -0.35211,1.4354 -0.4895,0.0457 -0.19028,-1.70562 -0.11321,-3.44496 -0.46454,-5.12873 -0.97053,-0.48312 -2.04886,-0.68932 -3.08085,-1.00639 1.10906,0.0706 2.21813,0.14122 3.32719,0.21182 -0.0507,-1.52727 -0.10147,-3.05455 -0.1522,-4.58183 -1.94304,-0.18316 -3.92714,-0.13813 -5.82651,-0.61631 -1.0395,-1.38311 2.43209,-0.75766 3.25556,-0.93181 -0.77877,-1.33341 -1.85853,-2.83092 -2.15619,-4.50739 -0.41259,-0.72727 -3.19517,-1.19376 -1.67083,-2.08385 0.64294,-0.0765 1.83338,0.51031 1.50318,-0.59521 v -4.27846 c -0.64023,-0.15022 -3.0692,-0.87405 -1.43778,-1.11225 0.57819,-0.17035 1.78243,0.63101 1.78368,-0.32427 0.3524,-1.09765 0.75838,-2.81843 -0.99967,-2.69209 -1.44216,0.19985 -2.00222,-1.40783 -0.17046,-1.07273 0.66969,-0.22333 1.8903,0.26842 2.32888,-0.23712 0.16604,-0.9911 0.74674,-2.00443 0.44833,-2.999 -0.61236,-0.78206 -3.70787,-0.21398 -2.99609,-1.42865 1.23735,-0.39727 2.54846,-0.15488 3.82123,-0.13952 0.27846,-1.16214 0.61646,-2.31272 0.82127,-3.49038 -1.07222,-0.37122 -3.52513,-0.27296 -3.68401,-1.17792 1.45167,-0.13476 4.18833,1.25554 4.20576,-1.14842 0.38044,-0.81011 -0.0716,-1.01492 -0.84175,-0.98851 -1.45218,-0.25897 -2.61466,-0.1516 -4.31029,-0.16347 -1.10718,0.28934 -3.79997,-0.67433 -4.58864,-1.95516 0.28585,-0.52899 -0.0513,-1.32964 -0.10442,-1.77844 2.08395,0.53744 6.96427,1.22004 9.10901,1.42811 0.72982,0.16672 1.52143,1.22341 1.50183,-0.0896 1.6541,-6.39278 1.94181,-13.04327 1.95967,-19.616 -0.19564,-3.2801 -1.35035,-6.43642 -1.34717,-9.74314 -0.002,-1.48782 -0.13156,-3.02704 -0.0198,-4.48814 1.15179,-1.66395 2.11328,-3.62926 4.03504,-4.52947 2.50245,-1.85801 5.25654,-3.37384 8.23943,-4.30553 6.09947,-1.922 12.44332,-3.10903 18.82398,-3.54022 5.37626,-0.33868 10.78786,0.0322 16.05197,1.19017 1.69261,0.45551 3.39254,-0.0245 4.98575,0.84583 3.05136,1.15224 6.27643,1.74881 9.34072,2.87163 4.86593,1.58117 9.71125,3.25804 14.31658,5.50621 5.52958,2.43814 10.92412,5.57619 17.0402,6.24174 5.68519,0.65739 11.3991,-0.28667 17.02119,-1.07764 3.29863,-0.44647 6.50518,-1.54435 9.86549,-1.46691 3.0566,-0.0838 6.16995,-0.11013 9.10519,0.87675 5.00575,1.33444 10.13151,3.42518 13.59064,7.43676 1.90941,2.15648 2.44857,5.1637 1.95637,7.93974 -0.76276,4.43407 -2.06877,8.81422 -2.21242,13.33493 -0.0779,0.68784 1.05245,0.19554 1.50927,0.36108 3.61617,0.12323 7.2571,-0.0424 10.85025,0.41783 1.28909,0.0251 2.80083,1.50106 0.89135,2.13935 -1.94462,0.55853 -3.96973,-0.28589 -5.95921,-0.0358 -2.52965,0.10732 -5.12504,0.0312 -7.59191,0.61766 -0.34574,1.77505 -0.39475,3.63295 -0.25653,5.43394 2.78429,-0.79924 5.85298,-0.89603 8.77166,-0.73722 0.92999,-0.014 1.63794,0.45926 0.23788,0.65981 -2.96905,0.91416 -6.09691,1.1868 -9.06529,2.08783 -0.31282,1.04676 -1.22762,4.06921 0.88932,2.84801 1.45414,0.16259 0.29183,-3.90133 1.38912,-2.20235 0.007,2.74444 3.03109,0.80107 4.68517,1.09967 1.06754,0.0814 2.89464,-0.38477 3.53278,0.37368 -2.4639,0.77866 -5.0573,1.06442 -7.57142,1.65987 0.13102,0.92568 0.15903,1.87593 0.42958,2.77403 2.28604,-0.15561 4.64527,-0.84505 6.91287,-0.0855 0.30857,0.17263 2.09679,0.55799 1.18624,0.58481 -2.67073,0.18846 -5.32637,0.53653 -7.96737,0.97185 0.24845,1.00401 0.0811,2.27238 0.80386,3.0341 2.96759,-0.4451 6.06537,-0.73885 8.97268,0.19911 0.90247,0.16288 1.12344,0.30485 0.082,0.40809 -1.02697,0.63626 -4.20164,-0.60398 -3.55982,1.25011 0.31208,0.54396 0.0242,1.78271 0.90614,1.67823 0.67247,0.16065 3.26244,0.0856 2.1806,0.6253 -1.47033,0.17659 -3.01336,0.92443 -1.99858,2.59223 0.21403,0.98431 3.31757,0.23587 2.56964,1.06217 -0.68081,0.46498 -2.27509,0.0548 -2.51592,0.81884 -0.0346,3.99781 -0.0108,8.00275 -0.35207,11.98639 -0.53794,0.43429 -0.38025,-1.95436 -0.42852,-2.69397 0.14737,-0.80226 -0.0886,-1.16923 -0.91164,-0.86975 -1.19283,0.23738 -2.6377,-5.5e-4 -3.56691,0.87501 -0.3135,1.04324 -0.17987,2.16105 -0.27145,3.23929 2.38205,0.26859 4.87257,0.20954 7.13295,1.00135 -1.55862,0.55125 -3.35259,0.3729 -5.00762,0.56899 -2.04589,0.18015 -4.11427,0.30276 -6.11734,0.77772 -0.48379,0.55221 1.60079,1.50921 1.26423,1.6177 -1.15788,-0.30219 -2.29619,-1.02468 -3.50311,-0.87425 -0.2593,0.63 -0.94839,2.36615 -1.02244,0.65206 -0.67963,-0.73581 -1.78887,0.009 -2.63573,0.11075 0.59867,0.50561 1.19734,1.01123 1.79601,1.51685 -1.01714,-0.33147 -2.00308,-0.86698 -3.08383,-0.9137 -0.53132,1.06647 -0.33822,2.86808 1.21167,1.94758 1.26749,-0.0695 4.15027,-0.86772 4.61063,-0.26702 -1.9487,1.12869 -4.17727,1.65903 -6.16447,2.6931 -0.6002,0.34139 -1.76792,0.47278 -1.89656,0.79982 -0.81279,1.24865 -2.52505,1.61591 -3.75295,2.40327 -2.24174,1.06891 -4.56742,2.03829 -6.99348,2.5947 -0.99496,0.16739 -2.07567,0.2808 -3.0322,-0.11866 z m 2.03538,-2.11463 c -0.57005,-0.75063 -2.76216,-1.53018 -1.23578,-0.11174 0.32331,0.11977 0.98051,0.48783 1.23578,0.11174 z m 3.38072,-0.83489 c 1.72592,-0.72573 -2.28477,-2.77664 -1.52863,-0.64646 -0.19486,1.16947 0.82236,1.3307 1.52863,0.64646 z m -3.38072,-1.56419 c 0.0382,-1.30425 -2.21119,0.25984 -0.44797,0.55492 0.42789,0.27758 0.45993,-0.30896 0.44797,-0.55492 z m 6.62773,-0.0151 c 2.26961,-0.63091 -1.85636,-3.32301 -1.07148,-0.78696 0.007,1.01302 -0.0848,1.56095 1.07148,0.78696 z m -2.99459,-1.60765 c -2.32198,-0.29825 0.63308,1.94846 0,0 z m 6.45876,-0.25715 c 1.79112,-0.2561 -1.10331,-1.74968 -1.09606,-1.14699 0.0215,0.83338 -0.23513,2.209 1.09606,1.14699 z m -2.68356,-0.90653 c -0.26645,-0.83113 -0.64339,0.93485 0,0 z m -5.09323,-0.16677 c 1.93086,-0.86628 -2.29112,-1.05452 -0.78989,0.14942 0.27131,-3.8e-4 0.53002,-0.0851 0.78989,-0.14942 z m 9.59114,-1.28277 c 0.27121,-1.08293 -2.26328,0.0906 -0.7421,0.29861 0.54186,0.29533 0.83176,0.60013 0.7421,-0.29861 z m -5.98721,-0.10512 c 0.91125,-0.64162 -2.15568,-1.67107 -0.89735,0.0231 0.1999,0.35516 0.63452,0.0398 0.89735,-0.0231 z m -111.78664,-0.44153 c -0.11059,-0.6692 0.0812,-2.06004 -0.45064,-2.40171 -1.44751,0.13503 -2.96757,0.004 -4.33967,0.53039 -0.0188,0.54676 -0.60744,2.23767 0.099,2.32481 1.56407,-0.14059 3.14294,-0.18884 4.69135,-0.45349 z m 109.50011,0.24883 c -0.97473,-0.29763 -0.41134,0.47949 0,0 z m -104.24032,-0.63201 c 1.34145,0.17695 0.73014,-1.53335 0.85989,-2.35572 -0.13745,-0.79056 -1.83202,0.22009 -2.4866,-0.006 -1.61625,-0.0894 -3.01404,0.38376 -2.77036,2.26588 -0.41783,0.81892 0.83981,0.22161 1.28601,0.31019 1.03483,-0.0975 2.07152,-0.19059 3.11106,-0.21443 z m 5.22772,-0.59781 c 0.21937,-1.43618 -0.31665,-2.92595 -2.05554,-2.28169 -1.53307,-0.10124 -1.23409,1.58763 -1.25394,2.5994 0.47554,0.15844 1.33869,-0.11052 1.96101,-0.11718 0.44867,-0.0618 0.90922,-0.0862 1.34847,-0.20053 z m 102.78843,-0.33012 c -0.32743,-1.11969 -1.66585,0.5648 -0.14803,0.35088 l 0.11531,-0.11146 z m 3.56605,-0.2792 c 0.71041,-0.24434 1.35477,-0.48952 0.28587,-0.75627 -0.93589,-0.65285 -3.35124,-0.83212 -2.54156,0.89623 -0.0221,1.13994 1.80193,-0.0943 2.25569,-0.13996 z m -103.22855,-0.1119 c 1.25037,-1.5833 -1.9176,-3.24521 -1.72324,-1.02933 -0.3817,0.95277 -0.30316,2.04752 0.97284,1.33245 0.25427,-0.0839 0.52923,-0.14246 0.7504,-0.30312 z m 3.52801,-0.62059 c 0.32675,-1.391 -0.5508,-2.90683 -1.93238,-1.80518 0.10517,0.51279 -0.49233,2.18427 0.20486,2.17623 0.57925,-0.10431 1.17642,-0.15142 1.72752,-0.37105 z m 3.52638,-2.85143 c -0.99234,-0.9099 -2.34592,0.7313 -1.83314,1.95276 -0.17265,1.11774 0.50176,-0.0744 0.86016,-0.40482 0.3788,-0.47012 0.81669,-0.95032 0.97298,-1.54794 z m 100.54561,2.02202 c 0.87275,-0.21309 1.05938,-0.44531 0.0954,-0.70959 -0.76155,-0.36581 -2.67072,-1.38471 -1.92195,0.31312 0.0902,1.19863 1.15345,0.63916 1.82657,0.39647 z m -131.8948,-0.54321 c 1.43702,-0.32953 4.55219,0.57651 4.36563,-1.74037 0.20711,-2.25908 -2.97686,-1.43603 -4.39815,-1.9293 -1.48957,0.17583 -3.85496,-1.16867 -4.84596,-0.16983 0.003,1.42722 -0.14217,2.84782 -0.35531,4.25759 1.73411,-0.24824 3.48633,-0.32193 5.23379,-0.41809 z m 128.32292,0.13536 c -0.71027,-0.85425 -0.63724,0.55153 0.0378,0.18686 z m -118.99636,-0.95412 c 0.61502,-0.0679 1.41482,0.0279 1.12448,-0.842 0.50152,-1.91271 -1.52764,-1.79548 -2.85037,-1.50332 -0.59316,0.13999 -1.48666,0.01 -1.91213,0.30059 -0.14948,1.19583 0.0238,2.85836 1.69998,2.26682 0.6475,-0.0603 1.29241,-0.14494 1.93804,-0.22209 z m 128.14651,-0.0948 c 1.2383,-0.41685 4.21357,0.0745 2.80744,-1.98537 -0.31656,-0.46625 0.164,-1.92986 -0.65707,-1.68961 -1.46613,0.25928 -3.06675,0.36158 -4.3552,1.10319 0.0454,1.31948 -0.25414,3.58259 1.82083,2.64015 l 0.38396,-0.0683 z m -3.62759,-1.13387 c 0.18906,-1.98626 -1.29063,-0.63509 -2.1506,-0.0613 -0.0811,0.40047 1.4082,0.67341 1.86008,1.01952 0.78933,0.56876 0.2392,-0.62035 0.29052,-0.95825 z m -119.09496,0.68747 c 0.56125,-0.12081 1.39223,0.004 1.78594,-0.26943 v -2.54621 c -1.4571,0.17999 -2.97433,0.0963 -4.37409,0.56597 -1.40661,1.8157 0.54408,3.01459 2.3074,2.27629 z m 5.93614,-0.71728 c -0.26963,-0.54785 0.24254,-2.23455 -0.63515,-2.12098 -0.64252,0.0512 -1.28504,0.10239 -1.92756,0.15358 v 2.38805 c 0.85439,-0.1368 1.71876,-0.22889 2.56271,-0.42065 z m 2.8829,-0.43321 c 0.47726,-0.40528 0.56391,-2.03432 0.1737,-2.38125 -0.5242,0.0701 -1.3757,-0.13742 -1.70336,0.0994 0.35582,0.74555 -0.21168,2.70355 0.92802,2.38009 l 0.21369,-0.0511 z m 3.76291,-1.35448 c 0.11783,-1.50079 -2.84837,-1.29359 -1.76742,0.42809 0.23881,0.70293 1.86647,0.39088 1.76742,-0.42809 z m 3.84579,-0.29916 c -0.79491,-0.67162 -3.04148,0.33206 -0.91043,0.25854 0.24994,-0.0793 0.76836,0.0296 0.91043,-0.25854 z m -26.91045,-1.5875 c -0.1338,-1.76828 -2.7402,-0.92237 -3.92875,-1.71712 -1.87746,-0.49131 -3.71507,-1.11956 -5.49843,-1.88383 0.0643,1.20624 -0.15661,2.45687 0.17532,3.62458 1.33722,1.02667 3.28195,0.40177 4.88235,0.57168 h 4.52943 c -0.0533,-0.19843 -0.10661,-0.39687 -0.15992,-0.59531 z m 5.6117,0.0789 c -0.21858,-0.59383 -2.9284,-0.32209 -3.99253,-0.70862 -0.70239,-0.08 -0.75434,1.83262 0.23882,1.2082 1.25529,-0.13059 2.5194,-0.22626 3.75371,-0.49958 z m 128.43143,-0.0434 c 0.45468,-0.24474 1.54365,0.031 1.52136,-0.60514 0.0978,-1.18807 0.0951,-3.0653 -1.68184,-2.07898 -1.30297,0.43474 -1.46177,1.98438 -2.31337,2.91647 -0.95344,0.94871 2.2765,-0.44907 2.47385,-0.23235 z m 8.03509,-2.13673 c 0.20356,-1.63896 -0.4436,-2.39999 -2.03887,-1.65014 -0.8744,0.16818 -1.74804,0.34026 -2.6221,0.51017 -2.3e-4,0.90015 -4.5e-4,1.8003 -6.8e-4,2.70045 1.54152,-0.21425 3.11512,-0.19295 4.60206,0.3184 0.24911,-0.56439 0.0657,-1.27752 0.0596,-1.87888 z m -7.19683,-2.49119 c 1.14223,-1.00768 0.13199,-3.97028 -1.12248,-2.00525 -0.0402,0.79305 -0.35229,2.83633 1.12248,2.00525 z m 7.0331,-1.8448 v -2.0054 c -1.48343,0.37105 -3.07674,0.32354 -4.49709,0.88214 -0.3839,0.69139 -0.33586,1.95611 -0.16466,2.60104 1.49066,-0.0636 2.95651,0.28996 4.41361,0.4778 0.33896,-0.57064 0.20371,-1.31312 0.24814,-1.95558 z m -7.19027,-2.45817 c 1.33887,-1.05843 -1.15871,-3.34112 -1.27384,-1.3632 -0.10089,0.82522 0.12707,2.27481 1.27384,1.3632 z m 4.932,-0.72043 c 0.66456,-0.0602 1.32912,-0.12044 1.99368,-0.18066 v -2.11292 c -1.5789,0.28145 -3.17021,0.48306 -4.7625,0.67126 -0.0118,0.94312 -0.22816,2.56084 1.24693,1.79361 0.50582,-0.0694 1.01347,-0.12491 1.52189,-0.17129 z m -4.94884,-3.67955 c 0.59243,-2.18601 -2.81461,-1.41031 -1.66026,0.41666 0.28869,0.82502 1.82821,0.52782 1.66026,-0.41666 z m 6.21492,-0.0429 c 0.45591,-1.27848 0.43514,-3.46391 -1.5054,-2.45368 -1.71607,-0.15259 -4.15348,0.7636 -2.64079,2.77826 1.34939,0.18383 2.80419,-0.10853 4.14619,-0.32458 z m -7.28788,-2.79089 c 1.36709,-0.387 0.35883,-2.00832 0.60715,-3.05413 0.0599,-0.76629 -2.30753,-0.13022 -2.00354,0.75683 0.18437,0.93867 -0.34856,3.46193 1.39639,2.2973 z m -0.48426,-4.60761 c 1.60337,-0.22278 1.00939,-4.25598 -0.91764,-2.80083 -0.57582,0.68368 -0.85441,3.82342 0.91764,2.80083 z m 16.19904,14.27004 c 0.0322,-0.5945 -0.0949,-3.0941 0.38365,-2.56635 0.12804,1.55948 0.18887,3.1849 -0.19464,4.7098 -0.25744,-0.60657 -0.13754,-1.44684 -0.18901,-2.14345 z m -21.87115,-3.54605 c -3.07896,-3.02863 -7.40087,-4.2253 -11.53142,-4.9903 -2.02292,-0.19806 1.43878,-0.95739 2.01427,-0.66605 2.36164,0.10713 4.62045,0.87731 6.78115,1.77346 0.0269,-1.13648 0.0804,-3.43962 -1.33677,-4.19654 -2.05754,-1.14039 -4.16613,-2.2532 -6.39729,-3.00456 -0.86087,0.23458 -0.66122,3.99868 -1.21769,1.72379 0.52171,-2.10814 -1.23682,-3.03108 -3.04219,-3.2387 -0.60048,-0.16328 -1.61922,-0.38049 -0.42307,-0.31213 1.1319,-0.01 2.2638,-0.0192 3.3957,-0.0288 0.078,-1.39476 -0.20869,-2.87469 0.27048,-4.19996 1.00448,0.6338 0.64293,2.34613 0.84385,3.49526 -0.0263,0.67498 0.0239,1.29159 0.83694,1.32501 1.03397,0.48016 2.93944,1.16883 2.54537,-0.7299 0.003,-1.03286 6.7e-4,-2.06574 10e-4,-3.0986 -2.35728,-1.17664 -4.87917,-1.9483 -7.43379,-2.56482 -1.00605,-0.46412 1.73805,-0.26297 2.29623,-0.30477 1.73431,-0.0632 3.35251,0.59853 5.00052,0.99777 0.21828,-1.35689 0.28266,-2.73396 0.41652,-4.10127 -2.86108,-1.19858 -5.88383,-1.9231 -8.87843,-2.7009 2.61922,-0.0729 5.26058,0.0236 7.78888,0.78366 1.65286,0.74458 1.07973,-1.5668 1.32085,-2.5832 0.1455,-0.67113 0.16493,-1.26 -0.67644,-1.28721 -2.88753,-1.08582 -5.90303,-1.77601 -8.96246,-2.14992 2.71681,-0.48786 5.54131,-0.38776 8.15887,0.53802 2.15226,1.26943 2.3718,-2.70156 0.98239,-3.38838 -1.31628,-1.06417 -1.33461,0.4162 -1.60064,1.31612 -0.33989,-1.08329 -0.24156,-2.83978 -2.02909,-2.83499 -1.66732,-1.02475 -2.91672,0.12281 -2.56005,1.93726 0.28555,-1.63879 -1.27679,-3.27707 -2.15773,-3.11201 2.26737,0.19094 1.97027,-2.57396 1.28664,-3.94917 -0.77164,-0.62743 -1.37223,-0.49061 -0.0835,-0.7688 0.81826,-1.60204 0.42613,-3.56534 0.55688,-5.31908 0.48307,-1.0582 -2.1798,-1.12164 -0.5405,-1.1404 1.40604,0.1976 0.68577,-3.73539 1.77669,-2.37934 0.2984,0.64756 -0.13628,1.86366 0.37883,2.2451 1.15111,0.0963 2.31409,0.3751 3.43132,0.47465 0.63897,-0.79531 0.32195,-2.91137 1.25901,-3.09776 0.15597,1.18096 0.0997,2.38062 0.13663,3.57059 0.83584,0.31969 1.67169,0.63937 2.50753,0.95905 0.2801,-0.95021 0.43433,-2.07866 1.23396,-2.72139 0.15978,1.05403 -0.0477,2.15819 -0.0579,3.23294 0.80713,0.45371 1.61426,0.90742 2.4214,1.36113 0.23083,-0.93697 0.47021,-1.87476 0.77635,-2.78814 -1.13331,-1.41857 -3.08833,-2.0001 -4.61903,-2.94052 -1.75961,-0.96995 -3.702,-1.62662 -5.43583,-2.60174 3.66828,0.24622 7.18283,1.72665 10.34478,3.5477 1.26284,0.87073 2.94013,1.73119 3.27976,3.35352 -0.21149,2.43055 -2.91179,-2.66779 -2.90638,0.0114 -0.75214,1.93327 1.0893,3.1576 1.55769,4.73627 -0.52994,1.15419 -1.67134,-1.15539 -1.86023,-0.4107 -0.1738,1.45593 -0.86581,3.32037 0.19466,4.54874 1.02906,0.72758 0.94881,2.85929 -0.57422,1.76305 -0.6843,1.53958 -0.46264,3.50256 0.28807,5.00234 0.2421,1.0776 -1.43438,0.69406 -0.96285,2.0426 -0.58128,1.52881 2.48527,3.17587 1.19902,4.12556 -0.65044,-0.32778 -1.37144,-1.80371 -1.40496,-0.14435 -0.44136,1.84461 0.56592,3.29547 1.49609,4.73938 0.40258,1.99437 -1.19783,-0.16814 -1.65269,0.0948 -0.15884,1.85268 -0.43503,3.9286 0.60623,5.58636 0.97445,1.59063 -1.54605,0.33638 -1.00463,1.87093 -0.45574,1.91634 1.17616,3.07661 2.12157,4.4611 0.89496,1.34766 -0.64819,1.52292 -1.17649,0.38328 -1.47239,-1.30604 -1.40596,2.71977 -0.0368,2.89184 1.06696,0.73399 2.84477,2.36661 2.00069,3.63929 -0.3859,-0.14874 -0.65537,-0.497 -0.94404,-0.77748 z m -3.68263,-13.36643 c -0.75366,-0.72028 -2.51517,-2.84935 -3.22163,-1.88457 -0.14128,1.29232 -0.075,2.59407 -0.0906,3.89132 1.19062,0.60107 2.38125,1.20214 3.57187,1.80321 -10e-4,-1.26365 0.36056,-2.64433 -0.25969,-3.80996 z m 0.1274,-4.47407 v -2.25478 c -0.83569,-0.52998 -1.67138,-1.05997 -2.50708,-1.58995 -0.39485,1.33866 -0.50217,2.73649 -0.67977,4.11514 1.0396,0.65472 2.0688,1.32645 3.12071,1.96128 0.0865,-0.73843 0.0528,-1.48889 0.0661,-2.23169 z m 0.26131,-5.74886 c 0.48311,-1.35619 -0.92373,-3.28878 -2.11757,-2.80783 -0.4155,1.61026 -1.0057,3.71215 1.14417,4.17173 1.47998,1.29324 0.79104,-0.35751 0.9734,-1.3639 z m -0.51213,-7.02995 c -1.4187,-1.9268 -1.58838,1.72766 -1.04542,2.54648 0.40916,0.0943 1.72993,1.56803 1.73584,0.65888 0.0915,-1.14332 0.52698,-2.46662 -0.69042,-3.20536 z m 1.14239,-1.96588 c 0.46242,-1.68033 0.26924,-3.80264 -1.82957,-4.11114 -0.13225,1.56155 -0.70346,3.72178 1.13501,4.51632 0.40872,0.41919 0.64415,-0.0679 0.69456,-0.40518 z m -3.4423,-3.15246 c 0.65801,-1.56721 -0.54362,-2.1528 -1.80542,-2.55008 -0.35904,0.29278 0.0114,1.62236 -0.21285,2.24192 -0.73425,1.42628 2.48154,2.8198 1.98031,0.63546 l 0.0375,-0.3273 z m -3.14273,-1.3455 c 0.54967,-1.90794 -1.54936,-2.3468 -2.98434,-2.30151 -1.03585,0.35232 -0.56819,2.4318 -0.60624,3.28879 1.30237,0.21447 4.23943,1.63349 3.59058,-0.98728 z m 7.33817,-2.72645 c 0.025,-0.6044 0.0501,-1.20881 0.0751,-1.81322 -0.74965,-0.41821 -1.4993,-0.83642 -2.24896,-1.25463 0.0867,1.44114 -0.26963,2.88693 -0.15657,4.30903 0.73821,1.11323 2.65948,1.42698 2.2897,-0.42447 0.0171,-0.27189 0.0301,-0.54495 0.0407,-0.81671 z m -3.60165,-1.47588 c 0.085,-0.71728 0.16992,-1.43456 0.25488,-2.15184 -0.71147,-0.30372 -1.42293,-0.60744 -2.1344,-0.91116 -0.28512,1.45967 -0.54362,2.98789 -0.27413,4.4584 1.64017,1.15684 2.05173,0.89147 2.15365,-1.3954 z m -3.59931,0.33858 c 0.0315,-1.29881 0.19688,-2.58891 0.32667,-3.88036 -1.21015,-0.29605 -2.40074,-0.71245 -3.63812,-0.86887 -0.18548,1.73147 -0.1807,3.47789 -0.2604,5.21695 1.10923,0.0633 2.21868,0.19497 3.32641,0.22227 0.26967,-0.106 0.22366,-0.47198 0.24544,-0.68999 z m -71.96667,31.28704 c -5.43576,-2.74087 -10.58857,-6.03064 -16.14222,-8.53515 -3.80791,-1.5896 -7.94243,-2.20046 -12.0155,-2.67079 -6.19129,-0.27583 -12.57936,-0.20607 -18.46924,1.96167 -2.32439,0.76899 -4.57117,1.89608 -7.01244,2.22719 -0.6617,-1.23299 2.18073,-2.18676 3.25872,-2.85819 6.15293,-3.11304 13.1964,-3.76562 19.99256,-3.64322 4.73793,0.27934 9.32004,1.72844 13.74687,3.35758 7.27785,2.87503 13.33134,7.98191 20.14721,11.71511 1.47552,0.98151 -1.30914,-0.42338 -1.70218,-0.62764 -0.60371,-0.30406 -1.20454,-0.6138 -1.80378,-0.92656 z m 54.80102,-3.30501 c 0.009,-2.57171 0.0258,-5.16578 0.44635,-7.70809 0.49474,0.88978 0.0623,3.775 0.0666,5.39985 -0.10283,1.16383 -0.16806,3.32066 -0.47655,3.90463 -0.0262,-0.53171 -0.0267,-1.06423 -0.0363,-1.59639 z m -52.28748,1.56808 c -6.10302,-3.45402 -12.02348,-7.21766 -18.07512,-10.75736 -3.50286,-1.80324 -7.45025,-2.62744 -11.34226,-3.05375 -5.4177,-0.32517 -10.9101,-0.35579 -16.26792,0.61106 -1.60603,0.31866 -3.39343,0.6609 -4.73818,1.45792 -1.53399,-0.0121 -3.41341,0.77244 -3.92116,2.08427 0.51727,-1.69278 -3.33444,0.17251 -1.58005,-1.51277 1.81959,-0.80973 2.24553,-2.65422 2.48717,-4.46758 0.80353,-1.24193 -1.38707,-1.24678 0.0888,-2.0236 0.88088,-1.0364 0.93855,-2.46244 1.28731,-3.72503 -1.96098,0.31299 -0.7782,-1.4438 0.25295,-2.04162 0.38788,-0.79708 1.46511,-3.04478 0.74383,-3.34597 -0.89511,0.77319 -3.23558,0.80079 -1.77961,-0.74062 1.43904,-0.9131 3.22469,-1.66241 3.05099,-3.71608 0.26018,-1.57881 -2.27216,0.18826 -3.20621,-0.0426 -2.10961,-0.49647 0.97196,-1.93556 1.87838,-2.15872 1.55094,0.0689 3.11213,-3.04256 1.25616,-3.23544 -0.75234,0.36668 -3.32236,0.52831 -1.66534,-0.65036 1.38271,-0.5008 3.11905,-0.77045 2.94929,-2.64483 0.41827,-0.87635 -0.66037,-0.3096 -1.12722,-0.33265 -1.53286,0.47364 -1.25433,-0.70659 -0.0563,-0.952 1.72332,-0.25246 2.12461,-3.89596 -0.12173,-2.4898 -0.81773,0.53566 -3.13221,0.45258 -1.56364,-0.76434 1.46685,-0.66203 3.72672,-0.97743 3.54121,-3.08366 -0.009,-0.73184 0.8795,-3.01747 0.96955,-1.04 0.12213,1.23307 0.0985,3.06178 1.80603,2.10846 1.94435,-0.036 1.48402,-2.30669 1.87109,-3.59795 0.026,-0.52173 0.54164,-1.57209 -0.38448,-1.06579 -2.80285,0.87553 -5.48154,2.1287 -8.16089,3.2988 -0.58575,-1.6714 2.13048,-2.32185 3.26926,-3.12028 4.11884,-2.24235 8.84907,-2.89029 13.42856,-3.54126 6.55627,-0.69648 13.18961,-0.44699 19.736,0.23899 5.01704,0.65567 10.0074,1.62644 14.87213,3.01986 3.89707,1.38359 7.56443,3.3337 11.43737,4.78607 4.96495,2.12511 10.208,3.56755 15.06023,5.95068 -6.65494,-2.02203 -13.21009,-4.37589 -19.78034,-6.661 -4.28935,-1.62593 -8.62866,-3.16261 -13.14524,-4.03342 -9.70005,-1.94928 -19.73548,-2.69588 -29.5724,-1.40122 -1.79164,0.35692 -3.69575,0.44044 -5.37827,1.16656 -0.64274,0.92654 -0.20939,2.16695 -0.32095,3.24109 -0.0804,0.71658 -0.0744,1.33189 0.79612,0.93422 l 4.19535,-0.66756 c 0.23648,-1.04493 0.2804,-2.32982 1.13642,-3.05092 0.42796,1.19353 -0.26598,3.55732 1.88741,2.8827 1.0995,-0.0947 2.19754,-0.20564 3.29642,-0.30728 0.20224,-1.01404 0.0256,-2.25561 0.73,-3.05004 0.69185,0.84849 0.53543,2.09211 0.73423,3.13933 5.22689,-0.0336 10.48822,-0.17581 15.65445,0.77472 5.03581,0.91937 10.16648,1.56865 15.02635,3.23529 4.53796,1.74619 8.62171,4.47838 13.16805,6.21555 3.01468,1.28452 6.20735,2.04949 9.32054,3.04015 -0.14792,0.34284 -2.47853,-0.28293 -3.45202,-0.37984 -5.51317,-0.92103 -10.51967,-3.54041 -15.68368,-5.54706 -3.84726,-1.57292 -7.75372,-3.08018 -11.87645,-3.74563 -4.29032,-0.8199 -8.60387,-1.60686 -12.97277,-1.8393 0.0349,1.58869 -0.16884,3.16788 -0.32989,4.74532 3.08411,0.44122 6.08246,1.32301 9.14905,1.84075 1.2001,0.30399 0.41507,-3.63322 1.4017,-1.86771 0.32304,0.73056 -0.20422,1.95277 0.29026,2.46808 3.81326,1.12753 7.43461,2.80567 11.20294,4.05815 0.95582,0.42413 1.38081,-1.29882 1.4407,0.36206 1.42314,1.06879 3.39818,1.28983 5.0455,1.99444 3.59703,1.20804 7.30794,2.42702 10.87169,3.52768 -1.48844,0.0261 -3.00129,-0.5214 -4.48585,-0.76898 -3.87674,-0.8766 -7.77408,-1.71397 -11.54445,-2.98789 -0.13076,1.17968 -0.54138,2.47164 -0.0307,3.5889 1.64559,0.91039 3.60444,1.11502 5.39847,1.64706 0.7152,0.22749 2.59688,0.48055 2.67713,0.70427 -2.76638,-0.21829 -5.50175,-0.73872 -8.23611,-1.17181 -0.72773,1.25139 -0.87238,3.17125 -0.73785,4.63499 1.16997,0.23144 -0.84152,0.4126 -0.54228,1.45937 -0.3885,1.38967 -0.66729,4.026 -1.12701,4.6359 -0.024,-1.87158 0.63814,-3.7505 0.33793,-5.6001 -1.25725,-0.93871 -3.12084,-0.57378 -4.6001,-1.08169 -2.55216,-0.49229 -5.03198,-1.28657 -7.44612,-2.24064 -0.53255,2.3677 -1.01759,4.74577 -1.52375,7.1192 4.77641,2.51851 9.59982,4.97194 14.18645,7.82353 -3.806,-1.74548 -7.55595,-3.63724 -11.39847,-5.31529 -1.02295,-0.46154 -2.04589,-0.92308 -3.06884,-1.38463 -0.24399,1.09084 -0.79111,2.1814 -0.66061,3.30289 5.79547,3.20436 11.44789,6.66701 17.22574,9.90566 1.35793,0.93367 -1.49561,-0.37299 -1.98072,-0.61384 -4.05471,-1.82842 -7.91801,-4.03097 -11.78849,-6.21122 -4.14655,-2.21033 -8.37623,-4.41922 -13.02633,-5.34539 -5.46166,-1.21054 -11.11308,-1.26715 -16.67373,-0.9568 -1.31149,-0.20687 -2.15839,1.38938 -2.6734,1.87878 0.46886,-0.92608 0.62998,-2.24376 -0.82378,-1.53286 -1.57083,0.45306 -4.20715,-0.29493 -4.68821,1.81983 -0.47559,0.91287 -0.59717,1.97553 0.7583,1.25063 5.45118,-1.37273 11.14259,-1.19005 16.7168,-0.98539 5.79487,0.16919 11.67259,1.66332 16.44465,5.05174 5.14105,3.47435 10.00564,7.33508 15.02266,10.98156 0.40397,0.39332 -0.5382,-0.13246 -0.54269,-0.13499 z m -51.33712,-13.68459 c 1.39742,-0.0695 2.56151,-2.95589 1.45626,-3.44875 -2.19011,-0.43736 -2.4705,2.39599 -2.87756,3.9094 0.42986,0.006 0.97408,-0.34346 1.4213,-0.46065 z m 37.26392,-3.64877 c -0.0577,-0.54866 0.51176,-1.46682 -0.3119,-1.56411 -2.76105,-1.15435 -5.56142,-2.25477 -8.45641,-3.01854 -1.30594,1.21909 -0.7783,3.21503 1.20111,3.11934 2.49647,0.79588 4.66397,2.39735 7.16361,3.14562 0.35679,-0.38759 0.27942,-1.16445 0.40359,-1.68231 z m -35.59437,-1.56799 c 1.24642,-0.30293 1.8389,-3.19414 1.23638,-3.69121 -1.86891,-0.19568 -2.79256,2.96718 -2.07365,3.85054 0.28202,-0.0375 0.55836,-0.1052 0.83727,-0.15933 z m 5.51591,-1.04056 c 2.25991,0.38334 2.59767,-1.84464 2.73562,-3.56018 -0.39149,-0.89318 -2.19259,0.0791 -3.18393,0.0829 -0.53963,0.20924 -1.41902,0.0408 -1.72848,0.50588 -0.25668,1.10015 -0.84986,2.19414 -0.78832,3.31325 0.9634,0.0428 1.98162,-0.30126 2.96511,-0.34186 z m 20.30406,-0.82671 c 0.80986,-2.15167 -2.14699,-1.5174 -3.39566,-2.02863 -1.94404,-0.33878 -3.88343,-0.7173 -5.84072,-0.97045 -0.65036,0.93811 -2.8488,3.48614 -0.42968,3.14108 3.08444,0.17755 6.18924,0.31892 9.20214,1.05744 0.36946,-0.23213 0.37304,-0.8092 0.46392,-1.19944 z m 10.06824,0.10938 c 0.5067,-1.22521 0.11827,-3.05345 0.20667,-3.76731 0.6326,-1.414 1.3167,-3.49279 -0.92442,-3.63365 -2.37103,-0.82971 -4.73532,-1.81371 -7.20468,-2.2724 -0.27094,1.05359 -0.19173,2.16009 -0.25857,3.24041 2.58239,0.92203 5.20266,1.74887 7.74347,2.77909 -2.74414,-0.63016 -5.46928,-1.38596 -8.12199,-2.33546 -0.0883,1.15005 -0.96478,2.63398 0.13408,3.48401 2.47793,1.10944 5.14799,1.75957 7.60651,2.93158 0.42508,0.26094 0.82314,0.0959 0.81893,-0.42627 z m -23.37172,0.0661 h 2.07339 c 0.28348,-1.12464 0.5627,-2.25051 0.81021,-3.38372 -1.59717,-0.0604 -3.21428,-0.42878 -4.79859,-0.16872 -1.09353,0.66442 -1.11925,2.15056 -1.59011,3.24778 -0.67437,1.13283 0.85729,0.2326 1.42462,0.37716 0.69231,-0.0493 1.38647,-0.0714 2.08048,-0.0725 z m 13.73546,-4.69359 c 0.76451,-2.00293 -1.47177,-2.19305 -2.86455,-2.39487 -1.79316,-0.22329 -3.7139,-0.87815 -5.44901,-0.72719 -0.57761,1.16277 -1.79395,3.37963 0.44355,3.27331 2.39138,0.55864 4.77933,1.17354 7.20855,1.53995 0.74741,-0.11592 0.54057,-1.15249 0.66146,-1.6912 z m 24.56757,-1.04246 c 0.23558,-1.29541 0.64732,-2.84696 -1.20877,-2.69714 -3.41936,-0.65996 -6.66235,-1.96013 -10.00748,-2.87816 -1.3092,0.3155 -0.8095,2.92986 -1.05748,4.15258 2.7049,1.3284 5.66769,2.08786 8.54123,2.98833 1.42399,0.41292 3.88099,1.55534 3.64758,-0.94212 l 0.0416,-0.29641 z m -48.6789,1.6163 c 0.34668,-1.21042 1.61381,-4.2315 -0.78579,-2.9249 -0.94345,0.83536 -0.81294,2.24568 -1.08773,3.3948 0.62628,-0.14649 1.27223,-0.23436 1.87352,-0.4699 z m 3.39466,-0.62557 c 1.55804,-0.2713 3.79293,-0.21792 3.60915,-2.41562 0.60442,-1.91287 -2.58766,-0.47231 -3.69741,-0.6242 -1.29468,0.13943 -1.6191,2.62903 -1.21715,3.2677 0.4372,-0.0636 0.87168,-0.14425 1.30541,-0.22788 z m 10.2446,-1.07552 c -0.14732,-0.65653 0.98409,-2.36839 0.0569,-2.38125 h -4.60324 c -0.2085,0.87064 -0.47127,1.73169 -0.59199,2.62041 1.51192,0.56254 3.21999,0.26405 4.80762,0.50019 0.25326,-0.12197 0.24463,-0.5134 0.33073,-0.73935 z m 10.83141,-2.3151 c 1.03303,-2.25322 -1.38317,-2.74261 -3.0538,-2.95799 -1.58205,-0.13767 -3.41928,-1.12143 -4.86076,-0.52977 -0.12591,0.64964 -0.73573,1.86329 -0.35783,2.32459 2.61931,0.64228 5.25896,1.23226 7.81814,2.08164 0.45902,0.0199 0.3443,-0.65063 0.45425,-0.91847 z m 10.71438,-1.63847 c 0.73298,-1.64381 0.0204,-2.98578 -1.82311,-2.99825 -2.18039,-0.5546 -4.35929,-1.15017 -6.58053,-1.51484 -1.04057,0.63773 -1.13513,3.58874 0.68661,3.67981 2.28485,0.88081 4.6569,1.55553 6.8721,2.60191 0.78758,0.0184 0.6594,-1.26489 0.84493,-1.76863 z m -34.0193,0.26031 c 0.39102,-0.8834 0.37428,-1.87843 0.51797,-2.8223 -1.2464,-0.0439 -2.42401,0.47225 -2.24671,1.97096 -0.10606,0.70876 -0.51818,1.73234 0.57355,1.21265 0.39112,-0.085 0.808,-0.14935 1.15519,-0.36131 z m 48.20575,-1.48692 c 0.96996,-2.23935 -1.54261,-2.47414 -3.03628,-3.13545 -2.84852,-1.04785 -5.67125,-2.21865 -8.59849,-3.01668 -0.29697,1.24479 -0.31781,2.5379 -0.46134,3.80725 3.84107,1.43547 7.6455,3.01523 11.60983,4.07537 0.41833,-0.42768 0.37269,-1.17635 0.48628,-1.73049 z m -34.9225,0.81456 c 0.62893,-1.253 0.13287,-2.41433 -1.38426,-2.10952 -1.34739,-0.10513 -3.59517,-0.82448 -3.39393,1.3349 -0.13023,1.90762 3.03091,0.87768 4.3152,1.39728 0.29567,-0.0247 0.39822,-0.38987 0.46299,-0.62266 z m -6.88308,0.0944 c 0.25403,-0.8471 0.31929,-1.73768 0.46591,-2.60798 -1.54565,0.0452 -3.12429,-0.13021 -4.64097,0.19844 -0.26565,0.90798 -0.3398,1.85775 -0.49022,2.78931 1.55494,-0.11791 3.12453,-0.13529 4.66528,-0.37977 z m 17.43392,-2.27725 c 0.83199,-1.76206 -0.53304,-2.89422 -2.24382,-2.80543 -1.82902,-0.32824 -3.66735,-0.59993 -5.50476,-0.87601 0.0195,0.90443 -0.89587,2.52507 0.4613,2.67967 2.2937,0.6971 4.69549,1.21073 6.93476,1.97318 0.27007,-0.23082 0.2705,-0.65408 0.35252,-0.97141 z m 11.17049,-3.54997 c -0.0109,-0.57066 0.27432,-1.34326 0.0834,-1.79108 -2.97901,-0.80789 -6.01493,-1.4908 -9.07957,-1.84483 -0.35937,1.09089 -0.40709,2.25646 -0.58993,3.38617 2.99322,0.72918 6.00442,1.41725 8.96594,2.24919 0.67479,-0.28475 0.4545,-1.41563 0.62021,-1.99945 z m -34.09768,1.53206 c -0.11056,-0.57327 0.81366,-2.14868 0.10818,-2.28157 -1.3012,-0.29551 -2.22331,0.50647 -2.09207,1.88199 -0.3679,0.88824 0.11432,0.90387 0.85658,0.65258 0.37785,-0.0741 0.75922,-0.13705 1.12731,-0.253 z m 13.14066,-0.23105 c 1.00025,-2.2184 -2.02889,-1.85497 -3.38399,-2.0003 -1.53697,-0.5541 -1.28371,1.22921 -1.52246,2.19659 0.39742,0.29418 1.39827,0.1089 1.99591,0.24378 0.83515,-0.12053 2.57636,0.62266 2.91054,-0.44007 z m -6.7124,-0.29766 c -0.26277,-0.61689 0.96427,-2.29596 -0.27387,-2.01745 h -4.1579 c -0.3513,1.13131 -0.58037,2.82286 1.20323,2.37941 1.02737,-0.11103 2.40495,0.27062 3.22854,-0.36196 z m 17.28082,-3.18479 c 0.91165,-2.31895 -1.82316,-2.04932 -3.29122,-2.22021 -1.5506,-0.1418 -3.10321,-0.26014 -4.65511,-0.38652 -0.0302,0.9686 -0.37023,1.98258 -0.0374,2.91888 1.42428,0.62196 3.18587,0.42376 4.71935,0.88717 1.38577,0.17332 3.44639,1.14901 3.26436,-1.19932 z m -22.98935,-1.28162 c 0.79814,-1.71046 -1.25634,-0.94712 -2.20691,-0.93738 -0.0513,0.70867 -0.007,1.50334 -0.0221,2.24468 0.8795,-0.18454 2.16414,-0.0746 2.22897,-1.3073 z m 12.93525,1.19219 c 0.26149,-0.88213 0.33221,-1.80618 0.47862,-2.71198 -1.61997,0.0491 -3.26487,-0.12303 -4.86477,0.14116 -0.14746,0.57291 -0.81198,2.27013 -0.2181,2.49521 1.49692,0.0458 3.00658,0.32183 4.49329,0.14873 l 0.11096,-0.0731 z m -6.59973,-0.92604 c 0.0954,-0.72972 0.63543,-2.29982 -0.63661,-1.80222 -1.29657,0.11504 -2.60558,0.15184 -3.8872,0.38572 0.0559,0.5665 -0.99765,2.29681 0.19924,2.01181 1.34688,-0.052 2.72891,0.14166 4.04689,-0.16019 l 0.13336,-0.10522 0.14471,-0.3299 z m 17.10239,-3.30729 c 0.0157,-1.26374 0.18611,-2.51742 0.336,-3.77031 h -8.54038 v 3.9236 c 2.53255,0.19022 5.05209,0.52124 7.57365,0.80007 0.61284,0.11486 0.68125,-0.52012 0.63073,-0.95336 z m -23.13833,0.39574 c -0.0925,-0.57151 0.82237,-2.2705 0.14103,-2.33802 -0.92563,0.29975 -2.70222,-0.12922 -2.65392,1.23466 0.0999,0.55316 -0.40019,1.85626 0.58334,1.42505 0.64438,-0.0964 1.29983,-0.15136 1.92955,-0.32169 z m 6.3392,-0.46869 c 0.20108,-1.08058 1.20143,-3.96604 -0.94148,-2.89574 -1.59974,0.20685 -4.22977,0.32307 -3.69043,2.64105 -0.26842,0.87561 0.80712,0.41463 1.30708,0.52608 1.10352,-0.0305 2.27644,0.10513 3.32483,-0.27139 z m 7.00725,-1.71299 c -0.0748,-0.53201 0.14503,-1.35873 -0.10077,-1.71979 -1.42271,0.0364 -2.86002,-0.0941 -4.2701,0.11434 -1.0947,0.63018 -0.52455,2.15177 -0.65621,3.23317 0.42146,0.21383 1.23914,0.0314 1.8138,0.0921 h 3.21328 v -1.71979 z m 57.15,43.92378 c -3.74964,-0.48455 -7.51586,-1.03898 -11.15647,-2.07425 -0.31727,-0.91029 2.70748,-0.21534 3.59448,-0.23742 7.52402,1.08588 15.10657,1.69673 22.68744,2.21601 2.21086,0.29768 -1.05279,0.45095 -1.75343,0.41906 -4.45701,0.0393 -8.92676,0.0321 -13.37202,-0.3234 z m 12.75037,-3.8394 c 0.1068,-1.73461 0.44833,-3.44317 0.70715,-5.15938 -0.15888,1.81257 -0.18753,3.66423 -0.66188,5.42368 l -0.0224,-0.0181 z m -11.198,-3.94186 c -3.17748,-1.09358 -6.68861,-0.9072 -9.84907,-2.10659 -0.71627,-0.96497 1.97612,-0.28402 2.5944,-0.26836 2.3805,0.26243 4.75994,0.66586 7.15417,0.71981 0.30804,-1.07869 0.32726,-2.21531 0.46786,-3.32483 -2.78334,-0.18914 -5.71013,-0.10375 -8.26207,-1.38153 -0.7467,-0.96545 1.93269,0.0402 2.46733,0.0425 1.92515,0.34097 3.88309,0.30663 5.82979,0.33894 0.72575,-6.11332 2.02448,-12.145 3.40396,-18.13914 -0.0127,-0.97965 0.88532,-1.47259 0.6481,-0.12876 -0.58222,6.12898 -2.08932,12.12397 -3.09642,18.18954 1.22515,0.4546 2.76091,0.11304 3.95828,0.65186 -1.69204,0.16071 -4.5687,-0.45105 -4.49426,2.10845 -0.45356,1.21396 -0.2881,2.21204 1.20348,2.01475 2.01902,0.32288 4.23722,0.45182 6.13457,0.89228 -2.44051,0.34348 -4.9354,0.33723 -7.38913,0.16096 -0.32157,-0.25021 -0.63221,0.73039 -0.77099,0.23013 z m 11.96227,-1.76873 c 0.2833,-1.00275 0.13603,1.18209 0,0 z m 14.56162,-19.0941 c 0.25812,-1.12434 -0.61032,-3.68195 0.63211,-3.94446 0.28388,1.82326 -0.10811,3.71784 -0.18713,5.56179 0.0103,0.6954 -0.37134,2.27801 -0.38795,0.63057 -0.041,-0.74853 -0.0502,-1.49841 -0.057,-2.2479 z m -34.74045,0.28228 c 1.24779,-0.16035 -0.26123,0.43896 0,0 z"
       id="path5" /></g></svg>
