<?xml version="1.0" encoding="UTF-8" standalone="no"?>
<!-- Created with Inkscape (http://www.inkscape.org/) -->

<svg
   width="335.40347mm"
   height="168.34195mm"
   viewBox="0 0 335.40347 168.34195"
   version="1.1"
   id="svg1"
   xml:space="preserve"
   inkscape:version="1.4 (86a8ad7, 2024-10-11)"
   sodipodi:docname="repetition9_b.svg"
   xmlns:inkscape="http://www.inkscape.org/namespaces/inkscape"
   xmlns:sodipodi="http://sodipodi.sourceforge.net/DTD/sodipodi-0.dtd"
   xmlns="http://www.w3.org/2000/svg"
   xmlns:svg="http://www.w3.org/2000/svg"><sodipodi:namedview
     id="namedview1"
     pagecolor="#ffffff"
     bordercolor="#666666"
     borderopacity="1.0"
     inkscape:showpageshadow="2"
     inkscape:pageopacity="0.0"
     inkscape:pagecheckerboard="0"
     inkscape:deskcolor="#d1d1d1"
     inkscape:document-units="mm"
     inkscape:zoom="1.2069424"
     inkscape:cx="817.76893"
     inkscape:cy="431.66932"
     inkscape:window-width="3840"
     inkscape:window-height="2126"
     inkscape:window-x="3829"
     inkscape:window-y="-11"
     inkscape:window-maximized="1"
     inkscape:current-layer="g1" /><defs
     id="defs1" /><g
     inkscape:label="Layer 1"
     inkscape:groupmode="layer"
     id="layer1"
     transform="translate(194.42465,-201.04986)"><g
       id="g1"
       inkscape:label="1"
       transform="matrix(0,0.26458333,0.26458333,0,-193.01495,195.58949)"><path
         id="path1"
         d="m 442.641,-3.996 0,554.91503"
         style="fill:none;stroke:#000000;stroke-width:8.12325;stroke-linecap:butt;stroke-linejoin:miter;stroke-miterlimit:4;stroke-dasharray:none;stroke-opacity:1"
         transform="scale(1.3333333)"
         sodipodi:nodetypes="cc" /><path
         id="path2"
         d="m 389.121,-3.996 0,554.91503"
         style="fill:none;stroke:#000000;stroke-width:8.12325;stroke-linecap:butt;stroke-linejoin:miter;stroke-miterlimit:4;stroke-dasharray:none;stroke-opacity:1"
         transform="scale(1.3333333)"
         sodipodi:nodetypes="cc" /><path
         id="path3"
         d="m 103.547,360.76873 0,585.98527"
         style="fill:none;stroke:#000000;stroke-width:8.12325;stroke-linecap:butt;stroke-linejoin:miter;stroke-miterlimit:4;stroke-dasharray:none;stroke-opacity:1"
         transform="scale(1.3333333)"
         sodipodi:nodetypes="cc" /><path
         id="path4"
         d="m 50.027,360.76873 0,585.98527"
         style="fill:none;stroke:#000000;stroke-width:8.12325;stroke-linecap:butt;stroke-linejoin:miter;stroke-miterlimit:4;stroke-dasharray:none;stroke-opacity:1"
         transform="scale(1.3333333)"
         sodipodi:nodetypes="cc" /><path
         id="path5"
         d="m 381.41,107.664 82.184,38.219 -12.742,157.875 -29.723,18.984 -23.984,58.203 -16.985,8.243 z"
         style="fill:#ffffff;fill-opacity:1;fill-rule:nonzero;stroke:none"
         transform="scale(1.3333333)" /><path
         id="path6"
         d="m 116.383,834.34 -28.445,6.512 -32.149,-7.598 -13.953,-14.66 -0.707,-229.098 69.418,-113.043 -0.356,187.938 -17.308,20.668 3.707,57.757 16.781,2.297 z"
         style="fill:#ffffff;fill-opacity:1;fill-rule:nonzero;stroke:none"
         transform="scale(1.3333333)" /><path
         id="path7"
         d="m 99.633,788.703 c -2.508,1.024 -6.809,-0.883 -10.332,-1.504 -18.188,-9.113 -25.555,-24.879 -29.106,-42.969 8.016,17.969 13.121,37.731 39.438,44.473"
         style="fill:#000000;fill-opacity:1;fill-rule:evenodd;stroke:none"
         transform="scale(1.3333333)" /><path
         id="path8"
         d="m 135.691,721.457 c 9.055,-15.019 7.032,-39.039 1.817,-50.148 -6.59,19.515 3.543,33.238 -4.641,53.847 1.914,-0.242 2.09,-2.472 2.824,-3.699 z m -91.406,85.16 c 4.297,21.34 49.578,36.719 66.496,20.379 -26.5,1.164 -47.988,-5.453 -66.496,-20.379 z m 70.824,14.973 c -24.992,-4.207 -57.343,-16.195 -70.64,-32.004 -2.278,25.519 54.722,38.816 70.64,32.004 z m 14.137,-184.848 c 14.32,-10.355 31.203,-16.512 48.551,-21.933 0.234,-0.598 2.101,-0.407 0.219,-0.922 -11.161,1.711 -21.395,5.347 -30.547,9.711 -10.465,4.988 -20.106,10.531 -28.965,17.382 -9.094,7.036 -16.641,16.407 -22.566,27.18 -2.141,3.899 -5.309,8.145 -4.348,12.094 8.793,-20.633 24.164,-30.524 37.656,-43.512 z m 32.352,151.242 c -14.207,16.555 -31.938,26.461 -55.266,27.618 28.621,1.878 46.906,-13.071 61.629,-33.872 -2.586,1.567 -4.449,4.016 -6.363,6.254 z M 374.082,191.469 C 375.035,179.23 361.965,157.836 349.301,169 c -0.848,2.355 -0.61,4.031 -0.969,6.082 1.188,3.359 6.965,5.5 10.699,4.027 0.801,-2.711 -0.422,-6.257 1.535,-8.39 7.325,5.703 9.946,14.301 12.5,22.937 0.079,-1.152 1.079,-0.801 1.016,-2.187 z m 6.656,12.789 c 0.828,-2.57 1.629,-5.695 1.996,-8.281 0.895,-6.508 0.774,-15.348 -1.246,-21.215 -2.539,-7.367 -9.468,-15.168 -16.015,-18.43 -3.188,-1.586 -6.559,-1.867 -10.016,-2.883 -6.769,0.047 -12.25,2.199 -17.269,5.098 -2.247,2.957 -4.454,5.976 -5.172,11.414 0.554,9.074 3.129,16.922 14.875,19.125 -0.508,-3.211 -3.852,-4.746 -5.461,-7.629 -0.942,-1.699 -1.95,-3.66 -2.016,-5.836 -0.461,-15.332 17.711,-19.883 26.977,-11.051 12.504,11.926 11.187,32.707 5.351,54.793 3.738,-4.039 6.266,-9.738 7.996,-15.105 z M 226.352,477.105 c 0.113,-0.449 0.503,-0.453 0.683,-0.8 0.371,-0.02 0.617,-0.266 0.684,-0.809 14.07,-9.246 28.738,-17.535 43.914,-24.988 13.32,-5.953 28.144,-12.246 41.945,-16.707 1.504,-0.488 4.817,-0.203 5.02,-2.684 -3.336,0.52 -7.34,-0.023 -10.778,0.336 -46.984,14.656 -86.746,41.117 -123.781,71.996 -20.055,13.406 -37.293,30.578 -53.668,49.406 -16.305,18.754 -32.183,39.993 -42.476,67.657 1.566,-0.688 2.312,-2.887 2.945,-4.172 12.828,-25.774 28.824,-46.063 45.258,-65.027 19.504,-17.465 37.996,-36.579 60.433,-49.247 31.735,-22.093 66.188,-41.285 102.61,-54.691 9.304,-3.426 19.238,-6.5 28.472,-9.238 3.469,-1.02 6.825,-1.43 7.75,-5.914 -39.644,9.562 -75.05,26.062 -109.011,44.882 z M 366.113,245.016 c 8.117,-8.688 17.102,-18.782 22.418,-30.625 1.285,-2.86 1.809,-6.301 2.774,-9.555 5.312,-17.969 2.265,-30.379 -3.293,-43.106 -6.867,-7.828 -11.981,-16.316 -25.547,-19.257 -6.281,-1.356 -15.465,-1.141 -21.68,1.132 -3.203,1.176 -9.351,4.594 -11.285,6.536 -10.41,10.484 -9.164,32.39 3.137,39.668 -0.414,-3.36 -2.953,-6.168 -3.985,-9.711 -3.125,-10.567 1.536,-21.567 9.473,-27.395 6.188,-2.375 12.738,-5.148 20.391,-3.875 11.359,1.895 19.293,11.414 23.812,18.348 3.598,10.972 7.215,22.547 2.774,37.152 -5.856,19.258 -18.809,35.203 -28.102,48.231 3.801,-0.664 6.32,-4.563 9.113,-7.543 z m -3.383,18.156 c 15.985,-16.125 35.696,-32.828 40.672,-64.188 2.375,-14.91 0.735,-29.148 -6.027,-41.816 -8.223,-15.41 -25.105,-30.031 -48.238,-28.094 -13.395,2.824 -27.883,8.715 -33.254,25.106 -1.918,5.851 -3.211,13.566 -0.633,16.871 1.461,-12.039 6.34,-21.805 13.379,-27.438 11.199,-8.957 33,-10.203 47.269,-0.347 14.704,10.152 25.168,30.16 21.504,52.339 -2.019,12.258 -5.73,20.477 -10.726,28.555 -14.442,23.293 -32.352,37.485 -49.848,53.719 -7.363,6.863 -15.726,11.699 -22.308,18.004 17.418,-8.695 32.168,-21.758 48.21,-32.711 z M 260.203,735.73 c 11.93,-0.82 20.035,-7.859 25.52,-19.183 4.312,-16.059 1.242,-28.168 -5.203,-39.188 -6.059,-10.324 -21.18,-23.711 -36.809,-20.976 31.109,9.176 46.742,33.222 33.914,65.519 -5.309,5.426 -10.574,10.911 -21.266,7.559 -3.933,-2.531 -5.191,-8.008 -3.222,-12.938 -10.071,3.825 -6.176,19.219 7.066,19.207 z m -21.734,-16.882 c -2.024,5.875 1.687,11.59 3.945,16.027 18.34,18.453 44.34,1.32 49.117,-22.281 3.09,-15.25 -1.937,-27.457 -8.515,-37.551 -1.188,0.391 -1.434,-1.602 -1.84,-0.441 7.523,10.836 11.859,27.382 6.277,42.851 -4.254,11.777 -15.367,20.735 -26.062,21.469 -12.364,0.875 -21.875,-10.32 -16.387,-20.949 2.066,-1.731 3.586,-4.375 6.848,-4.184 0.109,-0.812 3.035,-1.187 0.902,-1.73 -6.406,-0.516 -12.363,1.257 -14.285,6.789 z m 12.605,-365.196 c 6.25,-4.316 12.364,-9.312 18.789,-13.496 39.325,-25.679 79.047,-44.097 115.836,-75.375 11.203,-9.523 22.91,-19.511 33.281,-33.367 4.633,-6.187 9.696,-13.676 13.899,-21.48 3.863,-7.121 9.023,-18.852 10.059,-27.746 2.039,-17.512 5.996,-33.637 1.718,-47.743 -1.176,1.938 -2.527,3.555 -4.093,4.856 3.066,14.336 1.433,34.054 -4.18,52.019 -0.695,2.196 -1.633,5.493 -3.617,6.914 5.789,-20.554 7.73,-38.738 4.64,-53.855 -2.468,3.234 -4.054,7.898 -5.144,13.359 0.625,5.223 1.101,12.227 0.183,19.508 -0.89,7.125 -2.199,15.672 -6.793,20.258 9.114,-33.168 0.914,-58.465 -18.98,-75.074 1.965,4.543 6.648,10.824 9.793,15.961 2.051,6.722 5.769,12.422 5.82,20.371 -6.871,-19.961 -20.562,-40.711 -47.062,-49.227 -12.766,-4.097 -22.211,-3.203 -30.063,-0.387 -1.863,0.661 -4.906,0.606 -5.59,3.028 8.313,-1.461 20.899,-2.028 31.797,1.301 28.293,8.636 42.813,34.875 42.918,60.39 -1.906,-7.722 -4.019,-15.328 -6.754,-22.539 -4.183,-6.719 -8.734,-13.219 -13.843,-19.367 -7.071,-5.055 -12.317,-9.961 -21.7,-12.981 -25.535,-8.207 -47.554,3.208 -58.078,21.102 3.574,-2.277 6.754,-5.199 10.141,-7.789 3.176,-1.641 6.273,-3.418 9.465,-5.012 7.433,-1.972 13.894,-4.758 22.332,-3.902 22.687,2.285 36.746,18.101 45.054,31.23 6.52,15.508 10.934,32.352 3.868,54.918 -2.383,7.645 -6.942,16.582 -10.793,22.7 -12.34,19.644 -31.317,34.511 -46.239,46.808 -11.199,8.828 -22.871,16.871 -35.332,23.641 -11.32,8.836 -24.699,14.324 -35.437,24.097 27.097,-14.3 54.035,-29.273 79.273,-46.679 25.086,-17.281 49.442,-38.461 62.254,-75.067 -3.433,18.309 -13.578,31.153 -22.766,42.219 -9.183,11.883 -20.214,20.785 -31.027,30.02 -42.48,30.367 -90.738,54.375 -132.121,86.55 -8.355,6.493 -17.746,11.895 -25.871,18.598 -4.066,3.375 -8.043,6.813 -12.168,10.223 -4.031,3.332 -8.48,6.246 -12.527,9.636 -6.25,5.254 -11.676,11.813 -17.266,17.27 -1.5,1.461 -5.23,2.719 -4.312,5.785 27.703,-25.879 59.519,-50.23 90.636,-71.676 z m 202.93,-95.847 c -15.914,8.574 -31.797,17.476 -47.473,25.593 -5.363,2.766 -11.136,5.43 -17.144,6.59 16.144,-8.019 31.465,-17.359 47.121,-26.164 1.566,-1.297 3.269,-2.34 5.129,-3.144 0.75,-0.836 0.742,-0.86 -0.348,-0.571 -13.832,3.715 -27.351,8.157 -38.629,15.071 -3.859,2.355 -7.137,5.961 -11.863,6.875 3.43,-3.578 7.238,-6.547 10.683,-10.082 6,-3.016 11.602,-6.672 18.157,-8.782 16.492,-13.628 33.636,-26.187 45.433,-47.488 0.903,-5.574 4.864,-9.547 4.555,-14.961 -3.191,7.715 -7.914,14.707 -12.41,21.344 -4.434,6.539 -8.93,13.277 -14.649,16.437 10.739,-16.601 24.801,-29.785 28.485,-55.918 -0.543,-2.675 0.281,-6.199 -0.879,-8.488 -3.738,14.817 -8.055,28.672 -15.008,38.238 -0.637,1.606 -1.906,4.594 -3.184,3.133 5.633,-9.871 11.739,-26.547 14.176,-40.871 1.196,-7 1.672,-14.054 -1.336,-18.801 -0.05,20.133 -9.129,41.918 -17.461,56.625 -1.914,3.379 -4.171,6.622 -6.222,7.747 3.316,-8.036 9.926,-17.543 13.593,-28.368 4.059,-11.965 6.11,-25.336 5.629,-35.613 -0.371,-7.668 0.911,-14.16 -4.304,-16.598 2.562,12.821 0.922,37.133 -5.785,52.602 -0.567,1.301 -1.407,3.383 -2.84,3.699 6.855,-19.84 6.922,-38.933 5.211,-54.199 -0.383,-3.371 -0.028,-8.348 -3.539,-9.606 3.117,15.926 2.484,34.02 -3.938,55 -6.566,21.45 -19.434,40.305 -32.723,55.387 -20.183,22.899 -43.019,40.11 -66.347,55.617 -23.965,15.907 -51.035,27.657 -73.801,44.082 -31.68,21.075 -62.676,43.258 -91.449,69.051 -25.996,21.379 -49.074,47.508 -72.137,73.68 -1.184,2.539 -2.855,4.305 -4.41,6.238 -0.633,2.336 -5.063,4.004 -3.031,6.574 37.527,-46.75 80.898,-83.609 126.558,-116.093 30.727,-21.864 64.379,-39.828 99.403,-53.524 53.543,-20.953 109.246,-36.265 154.66,-70.929 -6.649,-1.129 -11.719,4.039 -16.692,6.707 -16.273,8.714 -31.742,17.039 -48.636,24.328 -22.817,8.66 -44.84,18.613 -68.118,26.488 38.875,-18.703 81.719,-30.949 115.891,-57.356 0.254,0.063 0.613,-0.242 0.109,-0.46 -3.375,0.484 -6.91,0.691 -10.437,0.91 z M 213.32,669.535 c 6.071,-7.168 12.875,-13.14 18.957,-20.273 -5.129,2.789 -10.382,6.261 -15.152,10.48 -4.715,4.168 -8.703,9.938 -13.301,12.86 2.903,-4.864 6.809,-8.098 9.871,-12.707 3.77,-2.575 6.813,-6.372 10.809,-8.602 2.836,-4.117 9.027,-2.773 9.762,-10.305 -3.727,0.332 -8.645,4.242 -11.969,7.348 -4.391,2.453 -8.305,5.664 -11.613,9.867 -7.938,6.25 -13.563,16.262 -20.411,24.289 9.11,-17.558 21.223,-30.222 34.594,-40.836 2.254,-0.793 3.895,-2.609 6.156,-3.394 1.434,-1.699 5.258,-1.524 4.204,-5.321 -1.395,-0.781 -2.942,0.758 -4.235,1.426 -4.488,2.301 -8.976,5.297 -12.304,8.719 -5.68,3.551 -10.29,8.828 -15.008,13.922 -9.246,10.722 -16.055,25.445 -23.836,38.551 11.004,-27.047 25.48,-48.434 45.64,-60.567 0.438,-1.472 2.579,-2.004 4.11,-2.906 1.195,-0.723 4.539,-1.551 3.066,-2.668 -4.269,-0.668 -8.301,2.336 -11.765,4.477 -11.575,7.089 -20.383,18.5 -28.973,29.546 7.801,-15.644 18.578,-26.457 31.101,-34.386 0.571,-0.059 3.375,-0.653 1.254,-1.16 -2.957,-0.348 -5.984,0.671 -8.242,1.906 -10.765,5.906 -18.129,17.066 -25.656,27.91 4.344,-13.391 13.633,-22.121 20.945,-28.543 -2.019,0.977 -4.152,1.762 -6.406,2.367 -8.52,7.211 -16.48,15.332 -20.711,29.563 -1.625,0.535 -0.48,5.597 -2.699,5.191 1.336,-11.777 7.754,-21.68 12.117,-28.23 -5.625,4.679 -11.703,10.671 -13.93,19.519 -1.457,5.817 1.18,12.688 -2.453,18.391 0.328,-7.332 -1.332,-15.102 -3.293,-20.731 -0.629,-1.804 -0.648,-5.082 -3.148,-5.14 1.75,9.906 4.633,21.218 0.781,33.254 1.438,-13.657 -1.375,-25.465 -5.051,-35.731 -1.191,-3.316 -1.968,-7.789 -5.492,-9.586 -2.133,0.949 -0.133,3.278 0.277,4.938 0.161,2.25 0.637,4.312 1.442,6.175 1.91,12.032 5.472,25.149 1.754,39.336 0.82,-15.593 -1.824,-30.941 -6.84,-42.507 -0.582,-1.364 -1.207,-3.836 -2.902,-4.098 -3.293,1.832 -1.348,4.445 -0.629,6.668 2.543,7.828 4.375,14.582 5.047,23.574 0.847,11.149 1.042,24.094 -1.93,36.504 -6.188,25.844 -23.184,45.902 -41.84,50.785 5.375,-3.187 10.777,-6.312 15.965,-9.793 11.379,-10.734 22.93,-28.804 25.558,-49.816 2.082,-16.692 -0.211,-34.028 -5.5,-46.067 -0.546,-1.238 -2.211,-5.453 -3.48,-3.757 -3.82,2.445 -0.598,6.164 0.32,8.836 4.731,13.738 6.551,30.839 1.637,50.015 -2.586,10.102 -10.113,25.574 -15.984,32.152 -7.102,7.989 -15.969,14.602 -28.188,14.161 -7.269,-0.254 -12.902,-3.739 -17.984,-8.2 -9.496,-12.453 -16.117,-30.636 -10.266,-52.554 0.602,-2.309 0.942,-5.805 3.602,-6.922 -5.856,13.402 -4.77,32.18 -0.953,42.586 2.277,6.211 8.73,16.152 14.3,19.472 5.176,3.082 14.668,4.012 19.297,2.668 29.942,-8.586 48.528,-68.343 28.793,-93.785 -3.183,3.914 -1.121,7.344 -0.121,10.68 1.102,3.652 1.941,7.23 2.742,10.859 2.254,17.692 -4.738,45 -17.015,54.782 -2.653,7.285 -9.106,11.437 -16.172,12.671 -4.871,0.856 -12.555,0.309 -17.696,-3.269 -5.48,-3.824 -9.132,-11.813 -10.863,-19.629 -2.289,-10.309 -2.293,-22.277 1.5,-34.656 9.43,-30.805 30.125,-51.399 49.524,-62.563 21.91,-12.25 45.328,-22.051 76.218,-19.672 4.336,-1.457 9.125,-2.175 13.145,-4.152 -28.18,-4.074 -51.957,1.129 -71.836,9.547 -6.797,2.859 -12.824,7.519 -19.867,9.816 27.031,-17.547 58.023,-28.644 99.363,-22.879 1.965,-0.211 3.207,-1.597 4.91,-2.222 0.91,-0.231 1.676,-0.696 2.281,-1.41 0.575,-0.047 3.375,-0.641 1.254,-1.149 -24.316,-5.75 -42.543,-1.539 -60.906,2.418 9.219,-4.062 19.965,-6.937 31.125,-8.101 11.262,-1.172 24.02,-1.848 36.973,2.05 0.886,-0.894 2.015,-1.41 2.965,-2.211 0.152,-0.933 3.632,-1.382 1.457,-2.086 -39.004,-7.515 -68.813,-0.015 -95.442,12.637 -26.125,13.492 -48.582,32.969 -66.066,60.539 7.629,-15.144 18.129,-27.859 29.57,-38.136 11.379,-10.243 23.914,-19.313 37.266,-25.61 27.019,-12.754 60.187,-19.609 97.738,-14.043 0.121,-1.398 -2.316,-4.594 -4.426,-5.918 -18.691,-3.828 -34.269,-2.574 -49.445,-0.66 12.894,-5.195 29.176,-4.875 45.375,-4.699 -2.789,-4.094 -7.52,-4.227 -12.09,-4.348 -13.32,-0.379 -27.266,0.653 -38.176,3.008 11.301,-5.684 25.731,-6.258 40.094,-6.93 -13.242,-6.289 -25.617,-1.109 -36.605,0.469 2.472,-1.953 5.507,-2.922 8.691,-3.766 3.109,-0.808 6.691,-0.957 9.387,-2.605 -8.012,-1.152 -13.871,-0.555 -19.949,2.035 -8.684,3.688 -15.786,13.141 -26.571,5.309 1.188,-5.305 7.469,-6.371 12.09,-7.813 14.168,-4.402 30.141,-8.652 48.016,-5.515 11.75,2.054 24.613,6.136 36.191,5.261 -25.324,-10.41 -55.43,-13.754 -74.746,-6.718 -5.148,1.32 -10.754,3.371 -14.984,5.644 -1.336,0.727 -2.657,2.91 -4.336,1.887 10.625,-7.164 22.324,-10.906 35.668,-12.852 17.718,-2.605 37.484,-0.804 57.648,5.051 9.731,2.832 24.063,7.063 30.211,3.836 -18.164,-4.715 -35.867,-11.254 -53.609,-13.824 -17.039,-2.449 -32.481,0.57 -45.508,3.199 12.765,-4.109 26.715,-6.645 42.734,-5.793 16.367,0.855 33.613,5.387 51.488,8.434 7.168,1.23 17.907,5.347 21.223,0.703 -13.176,-1.399 -26.047,-6.805 -37.031,-9.84 -11.227,-3.106 -22.914,-4.188 -32.524,-4.387 -5.097,-0.105 -9.828,0.469 -14.562,-0.094 22.141,-4.804 54.473,4.524 81.547,8.852 3.64,0.574 9.039,1.676 11.109,-1.727 -17.179,-1.941 -35.863,-10.5 -51.629,-11.867 -3.261,-0.293 -6.265,1.211 -9.07,-0.726 16.328,-1.887 40.398,5.324 58.586,7.226 2.215,0.231 5.898,2.18 7.445,-0.652 -8.406,-1.68 -16.859,-5.125 -24.965,-7.426 -3.843,-1.101 -9.007,-1.473 -10.464,-3 11.593,0.774 23.835,2.598 35.949,4.231 2.008,0.507 4.32,1.511 4.574,-0.852 1.605,-0.742 -2.102,-1.555 -3.457,-1.797 -22.223,-5.871 -42.734,-9.289 -59.957,-7.558 -5.707,0.574 -11.25,2.109 -16.504,1.89 21.473,-5.793 49.391,-5.777 76.977,-0.539 2.843,0.547 7.664,3.336 8.476,-0.887 0.633,-1.812 -2.742,-1.191 -3.918,-1.906 -6.98,-3.301 -17.297,-3.601 -23.465,-5.625 8.125,-0.398 17.285,0.875 26.301,1.926 1.242,-0.094 3.742,1.836 3.895,-0.031 0.957,-0.793 1.062,-2.981 1.918,-3.926 -16.692,-3.535 -31.68,-4.297 -46.164,-4.258 6.859,-1.758 14.632,-1.789 22.351,-1.937 8.121,-0.145 16.473,0.976 25.258,2.168 0.754,-1.762 1.922,-2.848 2.25,-5.305 -26.664,-3.59 -49.856,-1.512 -71.328,3.348 5.043,-2.848 11.125,-3.911 16.808,-5.211 17.563,-4.036 36.317,-6.188 57.438,-4.247 2.226,0.418 2.598,-2.152 4.449,-2.332 0.617,-1.011 5.074,-1.57 3.078,-2.671 -44.601,-4.821 -82.554,5.32 -116.73,18.234 -29.989,11.336 -57.512,30.113 -80.848,51.16 -3.172,2.871 -5.922,6.805 -9.894,8.824 26.82,-30.261 60.64,-49.125 96.312,-64.972 38.195,-15.34 79.41,-25.77 132.809,-16.328 -2.809,-1.684 -3.797,-4.469 -6.828,-6.016 -37.782,-6.586 -67.665,-0.285 -96.997,6.914 21.161,-9.109 45.661,-14.797 70.981,-16.066 3.769,-0.184 7.57,0.226 11.348,-0.684 -12.485,-5.32 -23.895,-4.242 -35.473,-2.168 -8.141,1.453 -16.199,3.148 -23.129,5.152 -15.855,4.606 -30.18,9.098 -43.453,14.883 -28.512,12.438 -54.637,27.445 -77.457,45.156 -22.285,17.844 -45.41,38.356 -64.168,66.84 -13.324,20.239 -26.871,43.008 -35.094,71.367 -9.664,33.286 -8.414,61.883 5.606,80.141 1.73,4.824 8.945,8.359 10.789,11.824 -2.364,-0.781 -3.758,-2.144 -6.11,-2.922 -16.492,-15.343 -20.441,-36.816 -20.683,-61.878 -0.098,-9.204 1.3,-20.004 3.363,-30.317 2.156,-10.742 5.039,-22.019 8.641,-31.984 21.019,-58.055 55.668,-95.297 93.086,-124.594 12.777,-9.988 25.445,-20.391 38.261,-29.742 26.489,-19.321 54.305,-36.469 83.512,-48.094 -4.719,-0.656 -8.398,0.379 -12.73,0.352 -26.372,11.605 -50.504,26.867 -73.34,44.207 -1.086,1.234 -3.414,3.773 -4.571,2.797 18.356,-17.848 39.825,-30.606 61.071,-43.743 -24.832,7.918 -67.305,25.707 -84.383,46.266 -5.442,2.406 -11.371,8.766 -22.574,20.023 -3.786,-3.664 27.328,-27.953 29.406,-30.879 2.238,-3.136 5.965,-5.949 8.98,-9.035 8.985,-9.226 14.098,-24.472 23.047,-31.941 17.91,-10.293 40.531,-8.109 61.035,-14.156 6.907,-2.032 18.555,-5.813 25.532,-7.403 7.261,-1.664 14.597,-2.398 21.871,-4.004 22.539,-4.984 42.496,-10.16 59.66,-23.648 15.629,-10.332 30.535,-21.863 43.355,-36.789 -8.718,-7.625 -23.183,-9.606 -35.906,-10.559 -20.875,-1.554 -39.23,2.578 -54.871,7.77 3.641,-3.356 8.813,-4.875 13.238,-6.555 4.793,-1.801 9.887,-3.285 15.106,-4.164 10.828,-1.832 22.621,-1.703 33,-3.766 8.312,-1.632 15.574,-6.406 22.859,-10.078 7.524,-3.812 15.238,-7.359 21.09,-12.949 -25.41,10.176 -51.418,19.375 -79.84,24.637 17.481,-6.469 36.09,-11.094 52.711,-18.985 8.449,-3.671 17.441,-6.441 25.824,-10.351 8.176,-3.789 16.473,-8.465 23.032,-14.899 -16.79,7.391 -33.641,14.665 -51.903,19.657 4.5,-3.973 11.348,-4.114 15.988,-7.832 17.071,-6.516 32.598,-15.52 47.481,-25.602 1.34,-2.293 2.605,-4.711 4.41,-6.238 0.418,-2.031 -1.656,0.219 -1.492,0.129 -5.785,2.922 -11.227,8.234 -16.996,10.035 -15.57,8.734 -32.211,15.609 -48.66,22.394 -16.657,6.895 -33.477,13.661 -50.391,19.543 -34.234,11.86 -67.363,25.282 -98.137,44.094 -7.535,4.613 -15.379,8.77 -22.691,13.539 -7.438,4.84 -14.492,10.457 -21.762,15.692 -14.535,10.488 -28.804,21.062 -42.82,32.547 -27.625,22.675 -52.215,49.761 -76.781,78.902 -14.039,18.18 -28.825,37.691 -41.75,60.519 -6.223,10.993 -12.578,23.274 -17.422,36.204 -4.922,13.113 -10.637,26.585 -14.633,40.742 -4.102,14.535 -5.613,29.386 -6.461,43.218 -2.512,41.219 4.727,77.149 26.484,102.657 -8.25,-13.5 -14.179,-28.145 -17.648,-44.121 -2.094,-9.684 -4.129,-20.418 -4.324,-30.707 -0.86,-48.36 14.449,-97.59 35.019,-138.024 4.867,-9.562 10.672,-18.738 16.367,-27.703 5.782,-9.074 11.579,-18.039 17.524,-26.434 5.801,-8.183 12.859,-15.609 19.172,-23.132 19.851,-23.707 40.426,-43.446 62.953,-61.774 22.246,-18.105 45.687,-35.746 69.844,-49.906 8.308,-4.867 16.882,-9.031 25.566,-13.336 8.469,-4.199 16.922,-8.832 25.805,-12.305 9.152,-3.554 18.406,-7.754 28.367,-8.758 -42.668,15.313 -82.348,35.481 -117.32,63.333 -13.528,9.179 -26.211,20.386 -39.164,31.484 -6.29,5.379 -12.098,11.734 -18.297,17.508 -18.7,17.375 -36.684,36.203 -52.325,57.98 -10.535,14.692 -21.554,29.442 -30.875,45.629 -9.531,16.555 -18.335,34.512 -25.168,54.277 -7.175,20.793 -10.996,42.02 -12.902,64.043 -3.543,40.813 4.746,76.012 22.926,103.262 9.812,10.613 20.062,20.914 38.676,25.328 15.05,3.571 28.871,0.024 38.965,-4.293 4.386,-1.879 8.933,-4.047 12.218,-6.32 24.121,-16.637 37.735,-51.328 52.114,-79.441 -2.504,0.941 -3.719,3.589 -5.219,5.57 -8.395,11.019 -13.969,26.699 -20.617,39.312 -13.02,24.723 -36.942,41.625 -63.957,41.586 -16.528,-0.011 -30.789,-7.933 -40.879,-16.121 -2.188,-3.23 -4.61,-6.328 -7.551,-9.097 -18.191,-28.926 -24.399,-66.547 -20.918,-107.653 1.238,-14.39 5.254,-28.941 9.785,-44.836 10.543,-37.078 26.285,-65.609 44.871,-91.879 17.035,-24.066 34.535,-45.839 53.633,-65.472 38.949,-40.008 82.43,-71.602 128.824,-95.106 16.289,-7.609 32.852,-14.035 50.059,-20.109 8.449,-2.988 17.305,-5.199 26.195,-7.844 8.93,-2.644 18.274,-5.351 28.051,-5.433 -25.145,5.98 -49.785,13.277 -73.195,23.332 -23.004,9.867 -45.793,20.703 -67.012,34.043 -31.664,19.878 -61.195,43.996 -87.652,71.406 -9.102,9.441 -18.063,18.558 -26.329,28.715 -32.554,40.011 -66.023,86.476 -79.836,154.527 -6.492,32.047 -5.57,62.074 0.403,87.652 2.859,12.231 7.484,24.668 14.465,35.086 8.109,12.098 20.715,23.16 39.949,26.117 14.883,2.27 27.762,-2.386 38.008,-8.418 11.511,-6.761 19.687,-13.945 27.625,-25.972 11.613,-17.598 17.937,-41.805 31.593,-54.692 4.645,-4.382 10.086,-7.207 14.559,-12.066 3.965,-1.586 7.395,-4.004 11.883,-4.938 2.644,-0.55 5.605,0.071 8.14,-1.464 -6.32,-1.801 -12.195,-1.411 -17.093,0.289 -4.543,1.574 -9.676,4.582 -13.36,7.019 -5.644,3.739 -10.121,9.192 -14.996,13.918 -12.203,16.352 -17.879,41.074 -30.437,55.934 -4.262,5.043 -9.153,8.89 -13.41,13.324 -11.692,8.25 -25.602,12.855 -42.793,12.121 -36.614,-9.711 -43.286,-37.797 -50.434,-65.582 -5.383,-26.465 -4.055,-56.844 3.137,-90.207 3.804,-17.684 10.941,-35.086 18.078,-51.129 6.894,-15.473 15.59,-30.316 23.902,-42.906 17.781,-26.969 37.512,-49.793 56.899,-71.012 10.23,-11.18 20.054,-22.23 30.898,-31.515 33.113,-28.297 69.481,-51.735 108.891,-68.754 35.988,-14.262 71.84,-28.739 115.703,-30.168 -11.426,4.617 -57.231,21.355 -64.137,26.129 21.32,-5.317 29.746,-1.844 33.754,-0.383 -9.301,1.926 -37.215,14.902 -57.398,25.09 -135.508,68.402 -297.821,180.379 -266.84,337.004 4.113,20.121 13.191,44.406 31.519,55.226 11.961,7.055 25.383,6.848 35.953,4.231 19.055,-4.735 33.364,-17.575 42.786,-36.442 4.16,-5.949 6.378,-13.137 9.55,-19.598 3.192,-6.484 6.364,-12.539 10.266,-18.464 7.238,-10.973 17.746,-20.012 28.324,-24.832 3.082,-1.395 6.961,-2.86 10.524,-3.317 10.539,-1.304 20.566,3.621 27.05,8.914 2.473,2.028 4.297,4.461 6.942,5.563 -2.426,-8.91 -11.797,-15.903 -21.977,-17.914 -6.859,-1.348 -15.191,0.355 -22.109,2.972 -10.32,3.895 -18.211,8.903 -25.094,15.387 -3.105,3.465 -5.359,8.34 -9.312,10.418 6.355,-11.551 15.711,-19.984 26.027,-25.387 10.352,-5.398 23.379,-8.484 39.777,-3.597 8.618,4.293 17.7,11.054 17.528,20.25 -0.051,2.687 -1.891,4.316 -1.196,7.004 7.77,0.308 5.461,-11.25 4.207,-15.528 -5.882,-11.808 -22.629,-21.074 -38.273,-18.898 -7.18,1 -13.555,4.91 -19.109,4.668 8.261,-4.473 18.906,-8.317 30.789,-6.735 16.773,2.254 29.496,14.649 31.027,28.84 -0.594,2.656 -1.164,5.332 -2.223,7.25 -1.293,0.864 -2.425,2.012 -3.98,2.457 -0.801,1.676 -4.434,-1.25 -5.047,0.735 -0.941,4.222 0.602,6.972 3.406,8.097 6.946,2.832 14.164,-4.351 17.59,-8.422 0.402,-0.613 0.027,-2.511 1.004,-2.187 7.09,-25.731 -4.816,-44.406 -25.191,-53.227 -8.125,-3.511 -16.965,-4.492 -22.743,-2.523 -2.57,3.066 -5.836,8.391 -8.511,9.144 2.41,-4.378 6.726,-9.078 7.664,-13.73 -5.008,4.426 -10.719,11.082 -15.817,13.242 z M 408.59,329.617 c 13.863,2.606 23.844,7.602 31.117,14.266 -7.23,7.894 -15.945,14.148 -23.543,21.101 -15.387,14.121 -32.027,25.938 -51.066,34.473 -18.707,8.375 -41.618,10.496 -63.059,15.535 -30.73,7.211 -60.418,19.149 -85.492,33.008 14.187,-8.223 26.351,-9.676 38.473,-14.613 10.25,-2.305 27.3,-7.371 39.437,-7.074 6.414,0.144 12.684,1.042 18.82,0.601 5.969,-0.41 11.95,-0.957 17.426,-1.656 3.664,-0.461 6.61,-2.598 10.195,-1.926 -2.05,12.887 -8.554,23.406 -14.835,31.465 26.64,-0.57 51.464,13.449 61.574,31.285 2.25,3.977 4.359,8.981 4.492,13.719 -10.125,-8.469 -31.348,-11.406 -38.801,-2.473 -6.137,10.465 -12.117,21.184 -18.281,31.61 -11.078,13.726 -22.141,24.902 -38.707,29.636 -16.106,4.594 -34.836,4.348 -56.906,-0.015 9.472,7.644 18.347,15.691 23.421,26.043 -3.48,5.586 -9.152,9.027 -14.218,12.652 -15.344,10.934 -34.516,14.625 -54.543,18.539 -12.727,2.488 -25.207,7.074 -36.133,12.754 -11.012,5.719 -22.75,10.933 -31.125,20.262 -5.606,4.707 -11.488,11.836 -17.356,19.683 -5.285,7.047 -10.734,15.547 -14.46,23.77 -7.985,17.621 -8.457,38.133 3.902,46.66 5.566,1.82 9.84,1.527 13.555,0.328 2.605,-0.867 4.257,-3.297 6.488,-4.777 8.402,-14.461 2.558,-32.211 5.371,-48.809 2.285,-13.484 7.152,-24.148 13.215,-32.828 6.797,-9.738 16.058,-17.797 26.98,-21.258 6.446,4.684 8.746,11.887 12.114,18.457 11.851,-23.961 34.582,-30.199 62.949,-27.222 2.316,7.183 -0.949,19.296 -3.059,26.984 26.547,-3.453 48.942,14.375 56.641,31.574 1.535,3.406 3.109,8.988 3.926,14.078 1.261,7.848 1.718,16.067 -1.918,26.285 -2.051,5.746 -5.836,8.454 -8.696,13.969 -6.281,5.34 -13.254,9.52 -20.996,12.485 -18.929,2.699 -37.418,-11.672 -32.515,-28.711 1.898,-6.618 5.828,-9.633 11.121,-11.934 -12.325,-8.047 -25.524,-2.328 -33.711,2.629 -15.199,15.273 -20.711,39.906 -31.067,60.656 -9.125,18.297 -22.207,31.16 -36.191,41.434 -6.77,2.609 -12.758,6.492 -20,8.34 C 108.188,863.113 17.723,840.734 40.043,783.668 21.184,756.52 13.316,721.762 15.984,681.102 c 1.414,-21.629 6.438,-43.758 13.59,-64.844 13.824,-40.84 31.86,-75.238 52.539,-105.598 10.274,-15.105 21.114,-28.664 32.508,-42.32 22.801,-27.297 45.289,-53.703 71.094,-75.387 6.91,-7.316 15.281,-13.156 23.203,-19.73 7.73,-6.426 15.051,-13.563 23.215,-19.739 4.004,-3.019 8.363,-5.543 12.305,-8.718 3.941,-3.172 7.656,-6.606 11.613,-9.875 7.699,-6.36 15.933,-11.946 23.453,-18.703 14.937,-13.391 31.281,-24.774 45.613,-40.137 14.203,-15.238 28.09,-32 36.863,-54.399 5.25,-13.402 5.942,-25.761 3.321,-36.183 -2.129,1.867 -3.387,5.148 -5.203,7.515 -9.719,7.145 -26.196,10.856 -39.344,1.762 -3.246,-2.254 -6.961,-6.324 -9.387,-9.543 -9.449,-12.629 -11.941,-32.254 -3.711,-51.476 4.418,-7.454 9.297,-13.469 15.649,-18.633 13.621,-11.071 31.336,-17.653 55.519,-12.477 16.75,3.594 29.34,13.028 39.242,23.024 4.387,6.984 9.309,13.648 11.801,21.8 5.047,-8.398 9.477,-17.82 16.992,-22.195 7.239,4.082 12.34,11.156 16.93,18.652 6.766,11.032 11.344,22.122 11.957,37.395 0.207,5.285 0.781,11.082 0.035,16.062 -4.34,29.141 -20.472,44.782 -36.371,58.407 15.16,-3.16 33.188,-7.239 52.094,-0.172 0.793,0.183 1.109,0.64 1.164,1.262 -2.488,5.765 -5.824,10.128 -8.57,15.453 -21.512,25.058 -44.371,47.941 -75.508,57.312"
         style="fill:#000000;fill-opacity:1;fill-rule:nonzero;stroke:none"
         transform="scale(1.3333333)" /><path
         id="path9"
         d="m 52.219,830.465 c 0,0 4.519,90.246 5.605,94.754 2.176,-3.906 1.211,-14.457 1.211,-14.457 0,0 0.84,-58.621 0.297,-61.324 5.43,-6.915 4.551,-2.09 4.551,-2.09 -0.801,8.652 2.305,51.293 5.519,61.246 0,0 -1.015,-57.086 0.071,-58.586 1.086,-1.504 3.382,-0.09 3.382,-0.09 -0.652,14.402 0.032,34.23 3.461,42.82 -0.144,-5.152 2.375,-41.617 1.848,-44.008 6.051,9.75 3.375,35.313 7.738,45.34 0,0 -0.476,-25.996 -0.207,-29.527 0.274,-3.531 1.442,-15.57 1.035,-18.875 5.227,-2.707 6.176,-2.02 6.176,-2.02 0,0 0.692,56.161 0.586,61.868 3.918,-12.485 2.84,-57.536 5.313,-66.371 0.883,-1.426 -1.703,-4.957 -1.703,-4.957 -24.899,4.953 -36.434,-2.622 -44.883,-3.723 z"
         style="fill:#000000;fill-opacity:1;fill-rule:nonzero;stroke:none"
         transform="scale(1.3333333)" /><path
         id="path10"
         d="m 54.305,563.59 c 0,0 2.769,-93.746 3.855,-98.254 2.176,3.91 1.445,7.352 1.445,7.352 0,0 1.856,57.734 1.313,60.437 1.309,3.168 4.801,-3.656 4.801,-3.656 0,0 -1.942,-53.653 -0.582,-59.364 1.629,0.602 1.715,8.879 1.715,8.879 0,0 3.492,42.454 4.578,43.954 1.086,1.503 3.261,-2.911 3.261,-2.911 0,0 1.293,-20.679 0.743,-27.886 -0.754,-9.965 -2.188,-34.512 0.218,-34.789 -0.14,5.152 4.625,50.73 4.098,53.121 2.273,-1.77 4.258,-3.993 4.258,-3.993 0,0 -2.348,-47.476 -0.445,-51.156 2.414,10.52 1.226,23.535 3.093,31.473 0.813,3.445 2.567,8.199 2.16,11.504 2.977,-0.418 4.926,-5.602 4.926,-5.602 3.516,-10.234 -2.996,-37.941 0.117,-42.234 0,0.301 5.899,40.937 6.778,42.367 0.883,1.426 -1.699,4.957 -1.699,4.957 -20.153,22.027 -35.934,57.828 -44.633,65.801 z"
         style="fill:#000000;fill-opacity:1;fill-rule:nonzero;stroke:none"
         transform="scale(1.3333333)" /><path
         id="path11"
         d="m 392.254,377.617 c 0,0 2.934,36.485 4.023,40.992 2.793,-21.464 2.703,-12.433 3.93,-35.843 0.875,-2.789 4.551,-2.086 4.551,-2.086 -2.113,13.816 -0.477,25.554 2.633,47.922 0,0 1.308,-51.954 2.394,-53.457 1.086,-1.5 3.637,-2.274 3.637,-2.274 3.207,21.149 -0.902,38.301 2.148,56.633 -0.144,-5.156 3.508,-60.375 2.981,-62.766 3.648,-2.972 3.715,-3.679 3.715,-3.679 -0.27,20.664 -0.473,47.23 3.371,65.839 0,0 0.726,-30.992 0.996,-34.523 0.273,-3.531 5.25,-67.293 4.844,-70.598 5.226,-2.707 2.98,-1.461 2.98,-1.461 0,0 -2.508,109.168 -3.324,111.875 5.984,-16.32 3.683,-45.785 7.984,-72.707 0.356,-1.64 2.434,-48.679 2.434,-48.679 -5.129,1.101 -34.762,11.265 -36.328,16.519 -1.457,4.879 29.621,8.973 27.609,12.125 -15.812,24.766 -31.254,32.016 -40.578,36.168 z"
         style="fill:#000000;fill-opacity:1;fill-rule:nonzero;stroke:none"
         transform="scale(1.3333333)" /><path
         id="path12"
         d="m 97.324,679.164 0.707,63.41 -8.476,-10.242 2.117,-46.633 z"
         style="fill:#000000;fill-opacity:1;fill-rule:nonzero;stroke:none"
         transform="scale(1.3333333)" /><path
         id="path13"
         d="m 430.645,139.41 c -2.68,-9.144 -2.45,-54.812 -3.547,-57.926 -1.629,0.602 -1.719,8.879 -1.719,8.879 0,0 -1.375,36.004 -2.461,37.508 -1.086,1.5 -3.258,-2.91 -3.258,-2.91 0,0 -1.601,-13.797 -1.055,-21.004 0.758,-9.965 1.942,-33.141 -0.464,-33.418 -1.231,3.906 -5.688,42.18 -5.157,44.57 -2.277,-1.773 -4.257,-3.996 -4.257,-3.996 0,0 1.843,-40.73 -0.055,-44.41 -2.418,10.52 -0.231,6.672 -2.098,14.61 -0.812,3.449 -3.566,25.062 -3.16,28.367 -2.976,-0.418 -3.316,-2.575 -3.426,-5.602 -0.207,-5.66 1.496,-37.941 -1.617,-42.234 0,0.301 -5.894,40.937 -6.777,42.367 -0.883,1.426 1.703,4.957 1.703,4.957 7.18,5.117 36.637,34.648 36.137,43.066 9.519,-5.648 2.945,-8.746 8.296,-15.98 -0.839,-16.766 -0.304,-34.902 -2.519,-50.293 -2.082,11.691 0.48,44.062 -4.566,53.449 z"
         style="fill:#000000;fill-opacity:1;fill-rule:nonzero;stroke:none"
         transform="scale(1.3333333)" /></g></g></svg>
