<?xml version="1.0" encoding="UTF-8" standalone="no"?>
<!-- Created with Inkscape (http://www.inkscape.org/) -->

<svg
   width="66.559624mm"
   height="31.619644mm"
   viewBox="0 0 66.559624 31.619644"
   version="1.1"
   id="svg1"
   xml:space="preserve"
   xmlns="http://www.w3.org/2000/svg"
   xmlns:svg="http://www.w3.org/2000/svg"><defs
     id="defs1" /><g
     id="layer1"
     transform="translate(-143.03844,-70.045584)"><path
       style="fill:#000000;stroke-width:1"
       d="m 172.59042,101.62797 c -1.03824,-0.15343 -2.07674,-0.33987 -3.0598,-0.72031 -0.78929,-0.30795 -1.61971,-0.59371 -2.28083,-1.139508 -0.39395,-0.524253 -0.98948,-0.850512 -1.40304,-1.360698 -1.22577,-1.389548 -2.08681,-3.129998 -2.3498,-4.970498 -0.10682,-0.913825 -0.028,-1.886488 0.38017,-2.720904 0.37082,-0.365878 0.35099,0.578849 0.42635,0.813154 0.33916,1.497632 1.14672,2.864555 2.15012,4.013609 1.31074,1.430343 3.22379,2.30357 5.1632,2.352097 0.91631,-0.01808 1.83562,-0.07192 2.74299,-0.202606 0.91027,-0.272024 1.83435,-0.496008 2.7477,-0.754256 0.78969,-0.303576 1.58969,-0.660463 2.22349,-1.232669 0.3257,-0.365217 -0.42541,0.02235 -0.58885,0.06664 -1.87767,0.755708 -3.97322,0.470306 -5.87245,-0.05384 -1.49843,-0.383106 -2.93833,-1.100416 -4.02425,-2.217847 -0.42161,-0.184102 -0.7728,-0.485798 -0.9738,-0.918234 -0.70951,-1.247723 -0.90952,-2.742836 -0.74555,-4.155147 0.0656,-0.761529 0.61512,-1.359486 1.1845,-1.813854 0.4488,-0.21343 -0.0522,0.517746 -0.12073,0.703514 -0.43532,1.073465 -0.1049,2.353899 0.69988,3.1649 0.28145,0.396749 0.72837,0.592492 1.11429,0.815095 0.40518,0.400243 0.99251,0.540522 1.5128,0.737464 1.12822,0.37506 2.33236,0.606785 3.51933,0.396596 0.94839,-0.113256 1.86705,-0.456562 2.62189,-1.048008 0.42605,-0.209894 0.53171,-0.629164 0.8553,-0.909314 0.62174,-0.849329 1.00983,-1.885767 1.01844,-2.944929 0.025,-0.382913 0.0277,-0.870011 -0.1596,-1.140105 0.12345,-0.386113 -0.11298,-0.767472 -0.50976,-0.684843 0.32267,-0.380922 0.18214,-0.962504 -0.14635,-1.313692 -0.21613,-0.368732 -0.25596,-0.846282 -0.65575,-1.152214 -0.70533,-0.72696 -1.48148,-1.466303 -2.46979,-1.774927 -0.68272,-0.120398 -1.37479,0.06329 -2.05106,0.157263 -2.98461,0.566812 -5.90995,1.425771 -8.76792,2.450272 -2.24507,0.810117 -4.33268,1.984934 -6.42448,3.120152 -3.68924,2.046402 -7.29288,4.246726 -10.79432,6.600157 -0.74341,0.463815 -1.45913,0.989445 -2.26609,1.339109 -0.46148,-0.01178 -0.89959,0.181898 -1.32631,0.353972 -0.17742,0.07659 -0.52203,0.189831 -0.18218,0.0041 1.08337,-0.623587 2.16548,-1.253585 3.1735,-1.99565 0.52059,-0.340542 1.09572,-0.589008 1.5998,-0.958797 1.95557,-1.255454 3.9039,-2.52449 5.89888,-3.716728 2.4071,-1.370112 4.82588,-2.722458 7.28874,-3.990122 2.18692,-1.098781 4.54149,-1.803087 6.87044,-2.529163 2.62555,-0.76989 5.32384,-1.435818 8.0752,-1.454692 1.12849,0.06959 2.21779,0.417065 3.30055,0.720042 0.64106,0.223841 1.29685,0.406338 1.94054,0.617045 0.77754,0.352123 1.43521,0.975761 2.30342,1.115085 0.54527,0.115105 1.01951,0.418924 1.5265,0.625822 -0.14778,-0.756125 -0.84046,-1.230058 -1.43276,-1.642207 -1.98643,-1.258278 -4.35895,-1.718701 -6.67334,-1.884934 -3.62076,-0.238165 -7.25642,0.37758 -10.69265,1.503361 -3.53334,1.127478 -6.95014,2.601349 -10.23384,4.321929 -0.36082,0.167036 -0.87821,0.468041 -1.15886,0.548049 1.28365,-0.825294 2.62001,-1.570326 3.97424,-2.273576 2.60402,-1.281744 5.33397,-2.28281 8.05679,-3.278014 0.22615,-0.166934 -0.21698,-0.385575 -0.32071,-0.546952 -2.33037,0.560676 -4.66066,1.147144 -6.90143,2.008988 -1.84241,0.687149 -3.62336,1.535889 -5.31675,2.535309 -0.48441,0.218783 0.38827,-0.343427 0.50489,-0.41994 2.99664,-1.986864 6.4219,-3.21486 9.89148,-4.083053 0.47946,-0.134996 0.96636,-0.249583 1.43597,-0.41606 -0.17904,-0.37885 -0.57733,-0.863896 -1.05367,-0.811499 -1.19883,0.256176 -2.35008,0.695784 -3.52143,1.052519 -1.948,0.633583 -3.89938,1.276685 -5.75778,2.145681 -0.99093,0.419971 -1.96535,0.87702 -2.93591,1.340836 -0.26969,0.03322 0.38182,-0.310301 0.49539,-0.390888 2.23193,-1.277031 4.63531,-2.222276 7.04685,-3.099347 1.43386,-0.507192 2.88411,-0.968092 4.31241,-1.490775 -0.24199,-0.238358 -0.57411,-0.367127 -0.86337,-0.544849 -1.37387,0.414658 -2.76372,0.780048 -4.12244,1.241872 -0.57239,0.02438 0.34283,0.759 -0.21169,0.541243 -0.36161,-0.325762 -0.83991,-0.221922 -1.2485,-0.06065 -0.82707,0.286367 -1.67768,0.528423 -2.45847,0.92957 -0.23613,0.190837 0.45672,0.175173 0.49389,0.450101 0.10418,0.362495 -0.6379,-0.111875 -0.83661,-0.133035 -0.49027,-0.100061 -0.93931,0.218895 -1.38846,0.370896 -0.71766,0.286225 -1.41747,0.631013 -2.1555,0.858238 0.90466,-0.558147 1.91433,-0.937119 2.82462,-1.491151 -0.0708,-0.224055 -0.47737,-0.354642 -0.70974,-0.510991 -0.14449,-0.03941 -0.28585,-0.249776 -0.43263,-0.163541 -0.74001,0.376605 -1.47706,0.768813 -2.26033,1.048079 0.1814,-0.211194 0.75397,-0.457659 1.10475,-0.664739 0.27833,-0.196597 0.80533,-0.342554 0.89627,-0.607426 -0.31525,-0.255231 -0.67084,-0.453372 -1.01014,-0.674014 -0.75864,0.375955 -1.4896,0.818173 -2.2857,1.110209 0.20849,-0.26471 0.68915,-0.46793 1.02337,-0.677407 0.34818,-0.193306 0.69636,-0.386611 1.04455,-0.579917 -0.2531,-0.218529 -0.5062,-0.437057 -0.7593,-0.655586 0.29511,0.190491 0.59022,0.380993 0.88532,0.571495 1.07789,-0.528616 2.18768,-1.000833 3.22884,-1.597683 -0.35496,-0.300101 -0.8296,-0.819524 -1.33725,-0.623364 -1.63987,0.598151 -3.19535,1.39752 -4.74872,2.187066 -0.56563,0.248893 0.31894,-0.272409 0.48949,-0.358248 1.30999,-0.744077 2.6685,-1.395935 4.0213,-2.0565 0.42536,-0.234802 -0.42164,-0.493447 -0.62872,-0.672338 -0.37999,-0.35199 -0.81573,-0.12694 -1.19968,0.08035 -1.35209,0.635016 -2.6747,1.331094 -3.9868,2.043537 -0.21321,0.0128 0.46106,-0.336001 0.59538,-0.429002 2.31262,-1.349491 4.70928,-2.570497 7.23395,-3.473758 1.05943,-0.401127 2.15369,-0.695499 3.24084,-1.008349 0.5512,-0.143986 -0.93445,-0.455038 -0.20941,-0.534122 0.67738,0.159925 1.38558,0.21732 2.06762,0.0451 0.56525,-0.118316 1.1267,-0.253881 1.69001,-0.381044 -0.31105,-0.142219 -0.66932,-0.22051 -0.93329,-0.435189 0.55318,-7.41e-4 1.06106,0.404236 1.63355,0.316497 0.40029,-0.07375 0.95442,-0.077 1.23777,-0.307598 -0.28698,-0.135098 -0.63907,-0.21413 -0.88786,-0.378586 0.67927,0.128088 1.35542,0.311235 2.05465,0.263988 0.43712,-0.03779 0.97844,0.045 1.35202,-0.149187 -0.83732,-0.305475 -1.73042,-0.577478 -2.63093,-0.427935 -1.709,0.249268 -3.40142,0.608441 -5.08267,1.001919 -4.24875,1.028686 -8.41795,2.570406 -12.08492,4.984453 -0.14174,0.117442 -0.79641,0.442828 -0.39004,0.07599 1.14664,-0.896363 2.41205,-1.629479 3.67692,-2.344818 2.21462,-1.198556 4.62143,-1.987554 7.02846,-2.699134 2.70536,-0.761844 5.45926,-1.412413 8.26516,-1.653971 0.43544,-0.03555 0.87235,-0.04145 1.30886,-0.05303 -1.29368,-0.248984 -2.61834,-0.190014 -3.9282,-0.152194 -0.95497,0.04835 -1.92629,0.06146 -2.84745,0.346769 -1.81551,0.400417 -3.69246,0.574868 -5.43417,1.264018 -2.33209,0.911011 -4.52591,2.13026 -6.74945,3.271797 -1.89217,0.971526 -3.74645,2.019158 -5.66806,2.932048 -0.21264,0.177641 -0.51175,0.077 -0.22555,-0.167096 0.82989,-0.79105 1.84219,-1.357608 2.81912,-1.946017 1.314,-0.768508 2.70547,-1.398536 3.99579,-2.207576 1.70413,-0.880526 3.4645,-1.659954 5.27203,-2.303168 1.97489,-0.705729 4.05719,-1.019595 6.10429,-1.438753 2.54241,-0.479602 5.16778,-0.491192 7.71345,-0.02733 3.10989,0.547105 6.1634,1.478707 9.00641,2.85971 0.96956,0.45388 1.84818,1.066019 2.74729,1.63987 0.52192,0.141711 0.6799,0.61476 1.00455,0.990004 0.80746,0.892492 1.55833,1.836802 2.20969,2.849693 0.18044,0.404946 0.91865,0.464973 0.68473,1.009162 -0.0763,0.55133 0.58936,0.759518 0.80817,1.188184 0.13917,0.235352 -0.24512,0.320825 -0.008,0.620601 0.35807,1.040268 0.88754,2.013875 1.20854,3.068781 0.39486,1.110523 0.57373,2.284831 0.9881,3.388284 -0.0512,0.266934 -0.23967,0.892279 0.0107,0.998628 0.12296,0.539679 0.043,1.112484 0.0372,1.664749 -0.064,1.731175 -0.45009,3.45982 -1.18554,5.030807 -0.67008,1.291029 -1.79336,2.277747 -2.94723,3.130537 -1.70619,1.216991 -3.66128,2.146531 -5.7541,2.425691 -1.64608,0.24653 -3.30975,0.44843 -4.97679,0.40993 -0.10161,-0.006 -0.2035,-0.0149 -0.30378,-0.0321 z m 3.17228,-0.70948 c 0.30946,-0.19371 -0.49337,-0.37433 -0.5421,-0.62041 -0.21071,-0.491646 -0.7302,-0.725212 -1.23347,-0.507996 -0.25228,0.317076 0.3212,0.820596 0.38768,0.965806 -0.50341,-0.0846 -0.74375,-0.60275 -0.82751,-1.04571 -0.20946,-0.269392 -1.05664,-0.565417 -0.90461,0.05049 0.004,0.6125 0.55007,0.9967 1.0655,1.20067 0.24537,0.10445 -0.26893,-0.04 -0.34793,-0.0474 -0.56314,-0.10437 -0.91457,-0.59865 -1.1083,-1.099824 -0.15693,-0.613799 -0.84908,-0.524781 -1.33726,-0.581343 -0.37633,-0.01869 -0.75278,-0.03505 -1.12916,-0.05282 0.0679,0.431244 0.18538,0.910817 0.61117,1.126167 0.41609,0.13727 0.58612,0.53442 1.061,0.53016 0.97125,0.21573 1.96826,0.25642 2.95864,0.19415 0.44907,-0.0256 0.90303,-0.0321 1.34635,-0.11194 z m -4.22853,-0.32707 c -0.40621,-0.24097 -0.72308,-0.689318 -0.75859,-1.163656 0.38828,-0.02743 0.41639,0.774696 0.80511,0.966836 0.14254,0.16599 0.79481,0.45042 0.21813,0.31192 -0.0911,-0.0311 -0.17992,-0.0694 -0.26465,-0.1151 z m 6.12146,0.11614 c 1.01683,-0.18717 2.03184,-0.43301 2.9908,-0.82399 0.21891,-0.250533 -0.62098,0.0541 -0.80281,-0.123158 -0.56507,-0.0229 -0.19473,-1.033829 -0.79482,-0.638079 -0.40716,0.131186 -0.79649,0.310937 -1.18121,0.491585 -0.27838,0.177686 -0.9567,-0.02479 -1.00249,0.311986 0.22005,0.332666 0.64568,0.377416 1.00264,0.467476 -0.41674,0.027 -0.93032,0.0407 -1.17719,-0.36392 -0.0819,-0.492299 -0.76718,-0.255798 -1.12494,-0.2928 -0.66755,-0.01879 0.0545,0.6342 0.27446,0.80482 0.34447,0.37188 0.83964,0.37404 1.29558,0.24822 0.17338,-0.0266 0.34705,-0.0538 0.51998,-0.0821 z m 0.75719,-0.66162 c -0.21257,-0.16589 -0.14662,-0.644239 0.0727,-0.237184 0.24184,0.229724 0.57958,0.276484 0.88992,0.352604 -0.32143,-0.003 -0.67756,0.0714 -0.96268,-0.11542 z m -8.15467,0.37167 c -0.5733,-0.27515 -0.834,-1.036876 -0.57255,-1.60786 0.12778,-0.157893 0.66069,-0.19808 0.19336,-0.305374 -0.26655,-0.05587 -1.02521,-0.331498 -0.76429,-0.565082 -0.61433,-0.416716 -1.30636,-0.715426 -1.8794,-1.196744 -0.5397,-0.397135 -0.98056,-0.91095 -1.51546,-1.312788 -0.17764,0.364709 -0.1398,0.816822 -0.16181,1.220813 -0.0608,0.691629 0.42882,1.22209 0.86537,1.69087 0.19583,0.248212 0.1079,0.07446 0.0134,-0.10915 -0.27215,-0.551418 -0.32528,-1.203601 -0.23228,-1.8055 0.25364,-0.452692 0.25703,0.454307 0.241,0.628301 -0.005,0.660178 0.24771,1.299595 0.61496,1.838357 -0.008,-0.316586 -0.28793,-0.75616 -0.30435,-1.14552 -0.0374,-0.283553 -0.13825,-0.969015 0.2367,-0.939952 0.0565,0.590806 -9.8e-4,1.211657 0.25761,1.768663 0.33796,0.858851 1.16272,1.403354 2.00152,1.700306 0.18004,-0.18047 -0.46062,-0.54194 -0.56819,-0.805159 -0.20429,-0.293973 -0.5266,-0.795351 -0.23713,-1.088971 0.13746,0.499509 0.33404,0.995679 0.68676,1.388502 0.35571,0.434338 0.84968,0.797118 1.42063,0.854308 -0.0466,-0.1033 -0.20583,-0.14417 -0.29584,-0.20802 z m -2.26077,-0.987509 c -0.39412,-0.444257 -0.66564,-1.047972 -0.6311,-1.649335 0.23157,-0.561987 0.41463,0.32661 0.35946,0.565819 0.0624,0.506542 0.43661,0.889421 0.6123,1.347382 -0.1226,-0.001 -0.24233,-0.192452 -0.34066,-0.263866 z m 12.76993,0.130526 c 0.62541,-0.194867 -0.28453,-0.282514 -0.3773,-0.583255 -0.28478,-0.510338 -0.99054,0.058 -0.53422,0.444978 0.222,0.375514 0.58078,0.31433 0.91152,0.138277 z m 1.55164,-0.562461 c 0.11454,-0.08462 0.36134,-0.195497 0.39215,-0.263467 -0.44559,-0.06176 -0.92668,-0.141741 -1.23547,-0.504273 -0.2924,-0.115085 -0.56672,0.162674 -0.8398,0.259271 -0.25814,0.0578 -0.17789,0.163237 -0.002,0.282101 0.32495,0.333306 0.79356,0.605045 1.26796,0.422833 0.14708,-0.04581 0.28672,-0.117239 0.41685,-0.196465 z m -10.0185,-0.436831 c -0.17754,-0.240153 -1.20449,-0.08086 -0.57311,0.0961 0.15583,0.0041 0.52123,0.08909 0.57311,-0.0961 z m 1.65962,-0.114974 c 0.54492,-0.202353 -0.59508,-0.369318 -0.73595,-0.04724 -0.17473,-0.03433 -0.65494,-0.06816 -0.6336,0.137211 0.45687,8.63e-4 0.91215,-0.08604 1.36955,-0.09 z m 2.64036,-0.130838 c -0.0425,-0.356348 -1.02801,0.395944 -0.31637,0.148666 0.10999,-0.0324 0.23539,-0.06146 0.31637,-0.148666 z m 6.96186,-0.166538 c 0.0619,-0.08401 0.42547,-0.273801 0.25439,-0.276107 -0.53663,0.02641 -1.05652,-0.121145 -1.57598,-0.228683 -0.52188,-0.03444 -0.59099,0.617397 -0.0803,0.742211 0.45924,0.221881 1.0223,0.07395 1.40183,-0.237421 z m -8.65219,0.0644 c 0.18737,-0.243681 -1.06399,-0.101178 -0.45606,0.103068 0.1577,0.02387 0.32222,-0.01849 0.45606,-0.103068 z m 2.31969,-0.115979 c 0.2709,-0.24743 -0.8015,-0.077 -0.25317,0.108005 0.0943,-0.0041 0.17537,-0.06126 0.25317,-0.108005 z m -1.33383,-0.169789 c 0.5308,-0.290467 -0.41424,-0.05719 -0.56542,0.06339 -0.35734,0.217015 0.54102,-0.0061 0.56542,-0.06339 z m 1.85576,-0.178165 c -0.48871,-0.43078 -0.22817,0.45474 0,0 z m 2.37767,0 c -0.0697,-0.357253 -0.32767,0.340142 -0.0102,0.045 z m -3.47953,-0.115979 c 0.32938,-0.324959 -0.67833,0.205278 -0.15694,0.07944 l 0.0803,-0.03576 z m 8.31467,-0.724908 c 0.80046,-0.773171 1.40412,-1.738753 1.72978,-2.804021 0.36926,-0.970793 0.46604,-2.0104 0.4888,-3.0406 0.018,-0.42113 0.0359,-0.842259 0.0538,-1.263388 -0.34563,-0.158401 -0.70286,-0.487789 -1.09922,-0.334955 -0.28371,0.502041 0.37469,0.93082 0.6819,1.256012 0.2818,0.120754 0.35239,0.852458 -0.0322,0.449756 -0.26008,-0.255607 -0.50667,-0.524481 -0.75978,-0.786925 0.0323,0.283959 0.22397,0.647714 -0.0421,0.866039 -0.24514,0.563551 0.6499,0.809183 0.51372,1.386885 -0.017,0.08218 0.0216,0.513083 -0.0365,0.337169 -0.12155,-0.315938 -0.19554,-0.689119 -0.48388,-0.896921 -0.30194,0.217249 -0.19204,0.826076 -0.23753,1.20137 -0.0259,0.376341 0.37787,0.875508 -0.22466,0.94105 -0.31279,0.294494 0.37527,0.89366 -0.24941,0.954205 -0.36995,0.224502 -0.55881,0.818396 -0.99006,1.085889 -0.3814,0.365461 -0.8001,0.728463 -1.32076,0.817472 -0.59294,0.405262 0.36777,0.490095 0.66641,0.551046 0.56729,0.09386 0.98079,-0.359813 1.34151,-0.720083 z m -6.36644,0.509914 c 0.34645,-0.408817 -0.92542,-0.387301 -0.44887,0.04896 0.14238,0.07731 0.31912,0.03312 0.44887,-0.04896 z m 1.05075,-0.0041 c 0.3193,-0.417584 -0.59525,0.0772 -0.16133,0.08249 l 0.0739,-0.0323 0.0876,-0.05029 z m 1.23445,-0.0127 c -0.0406,-0.395246 -0.3267,0.369555 1e-4,0 z m -1.62378,-0.347958 c -0.0578,-0.236296 -0.96292,-0.10128 -0.35792,0.08198 0.11991,0.04602 0.28559,0.04246 0.35792,-0.08198 z m 3.59858,-0.325548 c -0.20815,-0.05983 -0.41219,0.34425 -0.0675,0.108269 0.0262,-0.02011 0.1032,-0.06065 0.0675,-0.108269 z m -3.77255,0.04246 c -0.0896,-0.333076 -0.52423,0.09823 -0.11062,0.04714 0.0335,-0.01168 0.094,-0.0041 0.11062,-0.04714 z m -13.8728,-2.237463 c -0.24426,-0.368589 -0.84578,-0.383756 -0.62681,-0.958948 -0.0286,-0.514232 -0.26237,0.294615 -0.27164,0.505972 -0.0394,0.25766 -0.0587,0.270094 -0.0551,10e-4 -0.0434,-0.340684 0.0517,-0.671982 0.10627,-0.992929 -0.0912,-0.53404 -0.31645,-1.031998 -0.48528,-1.544178 0.062,1.263378 0.0434,2.563428 0.54845,3.750079 0.0522,0.349207 0.3217,0.479073 0.29636,0.02235 0.0347,-0.213358 0.0813,-0.813429 0.31062,-0.72249 -0.041,0.589272 -0.10954,1.196159 0.0758,1.771677 0.039,0.08838 0.0947,0.530983 0.11813,0.289353 0.0698,-0.576381 0.23338,-1.14944 0.20638,-1.731225 -0.0307,-0.150803 -0.13402,-0.271059 -0.22315,-0.391101 z m 14.6231,2.062463 c 0.0728,-0.480719 -1.02195,-0.261662 -0.43467,0.04358 0.13233,0.06735 0.34125,0.107172 0.43467,-0.04358 z m 1.22142,-0.109396 c -0.10571,-0.484234 -0.90945,0.212047 -0.24305,0.101483 0.0812,-0.01321 0.20684,-0.01036 0.24305,-0.101483 z m 2.66765,-0.388257 c -0.27663,-0.395702 -0.83867,0.575233 -0.22358,0.225234 0.0843,-0.0574 0.2001,-0.115431 0.22358,-0.225234 z m -3.36355,0.08584 c 0.25984,-0.288917 -0.46067,-0.07304 -0.29008,-0.402041 -0.51894,0.03738 -0.3115,0.648983 0.13167,0.548729 0.0661,-0.0321 0.11121,-0.09305 0.15841,-0.146688 z m 1.47979,-0.032 c -0.0659,-0.406542 -1.13145,-0.211743 -0.48266,0.07385 0.15023,0.08929 0.4254,0.163257 0.48266,-0.07385 z m 1.30286,-0.138958 c 0.32458,-0.32375 -0.37122,-0.430607 -0.45475,-0.06197 -0.36624,0.3148 0.37396,0.137393 0.45475,0.06197 z m -8.24786,-0.698953 c -0.16106,-0.262789 -0.72974,-0.706236 -0.89133,-0.30775 0.14367,0.145347 0.63217,0.751716 0.13932,0.384538 -0.35966,-0.335351 -0.74734,-0.718853 -1.27412,-0.726269 -0.168,-0.02143 -0.43165,-0.09163 -0.18294,0.09955 0.17454,0.125965 0.48726,0.644565 0.0832,0.296627 -0.41187,-0.426473 -0.78252,-0.980465 -1.38589,-1.13851 0.002,0.376574 0.25437,0.871363 0.62876,1.047836 0.8893,0.405749 1.86205,0.56098 2.81674,0.724593 0.55571,0.280851 0.24492,-0.164649 0.0663,-0.380658 z m 1.17679,0.02895 c -0.21923,-0.172064 -0.84955,-0.862647 -0.92517,-0.342086 0.22284,0.384955 0.55907,0.841456 1.06429,0.777031 0.10889,-0.02164 0.5051,0.0639 0.25997,-0.0896 -0.13303,-0.115095 -0.26606,-0.230201 -0.39909,-0.345296 z m 1.37733,0.361844 c 0.10433,-0.04236 0.51563,-0.04033 0.2442,-0.136895 -0.41095,-0.261885 -0.92497,-0.306146 -1.29394,-0.639445 -0.28258,-0.30581 -0.4355,0.01392 -0.15949,0.228129 0.3116,0.333299 0.70612,0.770519 1.20923,0.548161 z m 6.79657,-0.04287 c -0.17378,-0.443956 -0.38947,0.346352 0,0 z m -3.21487,-0.133899 c -0.0572,-0.494209 -1.00567,-0.07466 -0.59368,0.127753 0.17218,-0.01575 0.53186,0.07903 0.59368,-0.127753 z m -1.97313,-0.369778 c 0.49026,-0.225447 1.03384,-0.428342 1.39751,-0.841223 -0.20722,-0.240786 -0.72224,0.175742 -0.99548,0.295733 -0.30597,0.147583 -0.24229,0.451686 -0.63393,0.348426 -0.32473,0.447257 -0.82041,-0.160047 -1.21447,0.16925 0.24653,0.374939 0.76388,0.320438 1.12452,0.153129 0.10822,-0.03931 0.21543,-0.08168 0.32185,-0.125315 z m 3.09532,0.163744 c 0.0922,-0.539922 -0.92782,0.256938 -0.21438,0.09945 0.0758,-0.01635 0.16372,-0.03373 0.21438,-0.09945 z m -0.52369,-0.173903 c 0.14122,-0.445987 -0.55106,-0.376513 -0.8278,-0.262606 -0.30254,0.02834 0.0563,0.134599 0.1616,0.211001 0.20409,0.096 0.5034,0.354226 0.6662,0.0516 z m 1.73682,-0.109823 c -0.27838,-0.121333 -0.93729,-0.63913 -1.08319,-0.320906 0.24506,0.239649 0.84111,0.449512 1.08319,0.320906 z m -11.92882,-0.409112 c -0.21902,-0.365826 -0.46601,-0.709325 -0.77303,-1.008806 -0.14036,-0.150701 -0.28073,-0.301392 -0.42109,-0.452082 0.13275,0.54362 0.15432,1.232231 0.72433,1.511569 0.21116,0.109366 0.93235,0.544057 0.46979,-0.05069 z m 13.09833,0.165248 c -0.27673,-0.247867 -0.94373,-0.617401 -1.21226,-0.36094 0.31711,0.233736 0.8372,0.516375 1.21226,0.36094 z m -6.87449,-0.130425 c -0.23123,-0.161397 -0.44659,0.229135 0,0 z m 3.26572,-0.170083 c -0.46964,-0.248303 0.0609,0.485626 0.0583,0.04571 l -0.0582,-0.04571 z m -1.23869,-0.337129 c 0.0913,-0.0964 0.38278,-0.305912 0.0881,-0.18401 -0.1851,0.1154 -0.72955,0.04876 -0.63397,0.297359 0.14262,0.247013 0.41061,0.01138 0.54584,-0.113349 z m 2.06383,-0.003 c -0.12655,-0.08787 -0.84441,-0.385138 -0.68798,-0.115949 0.27209,0.19939 0.6636,0.427651 0.98943,0.305353 -0.0873,-0.08269 -0.19914,-0.1295 -0.30145,-0.189404 z m 3.36355,0.01087 c -0.0118,-0.45775 -0.81687,0.09915 -0.23009,0.177601 0.15726,0.07944 0.25312,-0.013 0.23009,-0.177601 z m -14.8366,-0.225264 c -0.17478,-0.474887 -0.0593,-1.067146 -0.57776,-1.361142 -0.0651,-0.413572 -0.38035,-0.698527 -0.69996,-0.963338 -0.32428,-0.274258 -0.18401,-0.869371 -0.63595,-1.036244 -0.15153,0.443335 0.11979,0.95903 0.22561,1.407171 0.20122,0.575964 0.42966,1.157313 0.79269,1.651969 0.10255,-0.208249 -0.26732,-0.821322 -0.13658,-1.197124 0.005,-0.247978 -0.25317,-0.638846 0.16106,-0.336855 0.27407,0.165095 -0.24745,0.418702 -0.0333,0.698984 0.0703,0.55456 0.26945,1.213042 0.86932,1.389505 0.22753,0.08899 0.0773,-0.169616 0.035,-0.252926 z m 4.07905,0.253576 c -0.27696,-0.102001 -0.44369,0.122338 -0.0438,0.05394 0.017,0.02509 0.1348,-0.04328 0.0438,-0.05394 z m 2.2327,-0.15515 c 0.46044,-0.269413 -0.91877,0.003 -0.31096,0.09732 0.10759,-0.01788 0.21094,-0.05486 0.31096,-0.09732 z m 6.43713,-0.06745 c -0.169,-0.211296 -0.9367,-0.521993 -0.94646,-0.200041 0.2309,0.138907 0.73349,0.465004 0.94646,0.200041 z m -5.74123,-0.164547 c -0.0406,-0.395236 -0.32669,0.369575 9e-5,0 z m 1.5658,-0.244098 c 0.21792,-0.238724 -0.50836,0.04287 -0.67065,0.140685 -0.27812,0.112718 -0.14338,0.0896 0.0696,0.04063 0.2055,-0.03982 0.41189,-0.0896 0.60108,-0.181369 z m 1.87894,0.104917 c -0.23963,-0.260931 -0.51252,0.284112 -0.0666,0.137637 0.10107,0.01199 0.19044,-0.05892 0.0666,-0.137637 z m 3.46582,0.02316 c 0.29068,-0.298842 -0.56175,-0.463876 -0.8128,-0.408238 -0.0998,0.0451 -0.55173,0.06085 -0.27066,0.158726 0.31693,0.165075 0.66195,0.405363 1.02992,0.253748 l 0.0535,-0.0041 z m -5.64053,-0.356166 c 0.10214,-0.365187 -1.0418,0.245286 -0.56716,0.204612 0.19566,-0.04094 0.40293,-0.08432 0.56716,-0.204612 z m 1.62958,0.124197 c -0.0585,-0.3757 -0.52248,0.223934 -0.0827,0.08188 l 0.0462,-0.03688 z m 1.61876,-0.191995 c -0.2973,-0.366944 -1.06543,0.0081 -0.37298,0.187312 0.15286,0.07568 0.7918,0.04907 0.37298,-0.187312 z m -7.40699,-0.02783 c -0.18529,-0.151777 -0.76729,-0.440633 -0.84718,-0.249624 0.28496,0.167249 0.65838,0.511042 0.97095,0.423588 -0.0238,-0.06928 -0.0781,-0.119707 -0.12377,-0.173964 z m 1.26166,0.105435 c 0.43013,-0.002 -0.32964,-0.350944 -0.47466,-0.352367 -0.23411,-0.134518 -0.98534,-0.09315 -0.52352,0.255902 0.29631,0.267503 0.65532,0.114009 0.99818,0.09651 z m 9.68788,-0.229917 c 0.0421,-0.528544 -0.52761,-0.152062 -0.8251,-0.135199 -0.31075,0.01554 0.0159,0.117768 0.12924,0.190969 0.2455,0.112658 0.78618,0.536916 0.69586,-0.05577 z m -11.94639,-0.0041 c -0.23498,-0.19938 -0.68288,-0.345967 -0.9181,-0.297369 0.2355,0.270317 0.79193,0.606318 1.07404,0.454328 -0.0391,-0.0641 -0.0986,-0.110586 -0.15594,-0.156959 z m 4.34942,0.05161 c 0.0701,-0.04805 0.48984,-0.205302 0.23959,-0.153362 -0.29059,0.05689 -0.63812,0.04622 -0.85152,0.27438 0.10149,0.155404 0.46728,-0.0771 0.61193,-0.121018 z m -1.50098,-0.113328 c -0.15542,-0.197176 -0.95585,-0.254286 -0.42744,0.04155 0.0957,0.109519 0.92014,0.268702 0.42744,-0.04155 z m 3.06676,-0.05425 c -0.22666,-0.259041 -0.66531,0.01097 -0.18446,0.10574 0.0609,-10e-4 0.45815,0.0515 0.18446,-0.10574 z m 1.73976,0 c -0.0875,-0.333756 -0.73673,0.266203 -0.15966,0.10574 0.057,-0.01514 0.14897,-0.03119 0.15966,-0.10574 z m 1.89391,0.03921 c -0.21409,-0.305333 -0.90473,-0.560758 -1.24846,-0.330191 0.33713,0.232009 0.83884,0.528748 1.24846,0.330191 z m -14.51263,-0.764079 c -0.30516,-0.662545 -0.3014,-1.396992 -0.40148,-2.103778 -0.0769,-0.582069 -0.35764,-1.109873 -0.45864,-1.685583 -0.23978,0.729895 -0.10589,1.526492 0.0387,2.265479 0.18875,0.812495 0.46136,1.657364 1.08021,2.24879 -0.0534,-0.250325 -0.16863,-0.485941 -0.25882,-0.724908 z m 8.84334,0.569575 c 0.41819,-0.350041 -0.57055,-0.296465 -0.74937,-0.1282 -0.39397,0.288967 0.5361,0.36861 0.70215,0.159569 l 0.0468,-0.03129 z m 3.06738,-0.06674 c 0.13545,-0.294576 -0.78858,-0.628169 -0.91578,-0.26793 0.20013,0.200701 0.64059,0.4667 0.91578,0.26793 z m 4.12347,-0.229887 c 0.31078,-0.03515 0.63509,-0.321027 0.14831,-0.393549 -0.48882,-0.222632 -1.09479,-0.197053 -1.52928,0.131095 -0.0475,0.470205 0.80705,0.534955 1.15749,0.340025 0.0747,-0.02529 0.14915,-0.0516 0.22348,-0.07761 z m -6.43106,-0.128006 c -0.13808,-0.328556 -0.76208,0.09061 -0.23197,0.115979 0.0799,-0.0051 0.21283,-0.01575 0.23197,-0.115979 z m 3.42155,0.0061 c 0.35499,-0.186845 -0.42005,-0.38465 -0.59047,-0.432629 -0.16091,-0.02022 -0.64554,0.102631 -0.63529,0.18463 0.39118,0.146739 0.80163,0.475711 1.22576,0.247999 z m -2.26496,-0.234102 c 0.34246,-0.394768 -0.817,-0.09935 -0.46797,0.109356 0.16144,0.0061 0.32696,-0.02936 0.46797,-0.109356 z m 3.44725,-0.260341 c 0.49606,-0.07355 0.32447,-0.508198 -0.10467,-0.422846 -0.36993,0.02458 -0.68989,0.260757 -1.06631,0.2718 -0.29375,0.01402 0.21799,0.14359 0.29699,0.203311 0.28573,0.131156 0.59615,0.05821 0.87399,-0.05221 z m -2.41825,-0.15127 c 0.0711,-0.298852 -0.95168,-0.144758 -0.79011,0.111296 0.25834,0.05029 0.56268,0.02926 0.79011,-0.111296 z m 5.15387,-0.186723 c -0.32773,-0.205495 -0.63796,0.16475 -0.1481,0.241457 0.21126,0.09204 0.33324,-0.09122 0.1481,-0.241457 z m -3.86426,-0.208847 c 0.21408,-0.03718 0.60448,-0.297125 0.15432,-0.301971 -0.33468,0.04327 -1.01764,0.100975 -1.02361,0.49103 0.2953,0.0639 0.59503,-0.09417 0.86929,-0.189059 z M 178.89,91.102246 c 0.11656,-0.064 0.61253,-0.09996 0.83576,-0.286012 0.15101,-0.0768 0.30202,-0.153494 0.45304,-0.230241 -0.37496,-0.02976 -0.81329,-0.257365 -1.13135,0.0386 -0.17742,0.232862 -0.65349,0.54041 -0.58481,0.798882 0.15318,-0.04703 0.43975,-0.119118 0.42736,-0.32119 z m 5.38453,0.194088 c 0.57174,-0.260961 -0.65973,-0.440715 -0.74416,-0.09061 0.17879,0.202844 0.51152,0.159295 0.74416,0.09061 z m -1.18754,-0.507162 c 0.4334,-0.234051 -1.00016,-0.06847 -0.44358,0.104328 0.15315,-0.003 0.30318,-0.04531 0.44358,-0.104328 z m 2.44044,-0.0081 c 0.21369,-0.518843 -0.97563,0.08503 -0.29864,0.120815 0.10631,-0.0071 0.23151,-0.02794 0.29864,-0.120815 z m -3.55219,-0.407659 c -0.0514,-0.292289 -0.46372,0.05536 -0.65237,0.142838 -0.21099,0.113013 0.305,-0.04653 0.39496,-0.05323 0.0867,-0.0255 0.17934,-0.04185 0.25741,-0.0896 z m -1.2583,-0.05262 c 0.60639,-0.392838 -0.28148,-0.724237 -0.5767,-0.332618 -0.52346,0.342533 0.36062,0.569107 0.5767,0.332618 z m 3.76187,0.0081 c 0.43082,-0.232791 -0.45126,-0.231399 -0.57969,-0.02336 -0.23058,0.102235 -0.25941,0.151808 0.0144,0.122379 0.19159,-0.001 0.3864,-0.03373 0.56529,-0.09905 z m -4.49837,-1.043518 c 0.10067,-0.247104 0.0619,-0.850497 -0.14999,-0.310707 -0.0669,0.32946 -0.43583,0.860219 -0.31789,1.078057 0.32456,-0.104134 0.40244,-0.475741 0.46788,-0.76735 z m 3.15603,0.676859 c 0.44352,-0.08421 0.21846,-0.402357 -0.12171,-0.228992 -0.30112,-0.03271 -0.68085,0.481673 -0.15848,0.318864 0.0946,-0.02621 0.18759,-0.0579 0.28019,-0.0899 z m 2.44418,-0.101585 c -0.15878,-0.355567 -0.578,0.183462 -0.10642,0.106837 0.0489,-0.01351 0.10529,-0.04937 0.10642,-0.106837 z m -3.58788,-0.120063 c 0.64707,-0.507872 -0.57183,-0.709741 -0.46295,0.02733 -0.0282,0.221526 0.37851,0.0061 0.46295,-0.02733 z m -1.16172,-0.404845 c 0.4859,-0.132213 0.26497,-0.524014 -0.15139,-0.492198 -0.47044,-0.205861 -0.58605,1.01607 -0.0202,0.5763 l 0.0814,-0.0386 0.0902,-0.04551 z m 3.64776,0.06095 c -0.0564,-0.241508 -0.81445,-0.08604 -0.26103,0.08096 0.0924,0.05232 0.21808,0.02692 0.26103,-0.08096 z m 2.64982,-0.318956 c -0.23793,-0.390369 -0.65807,-0.669158 -1.07836,-0.834121 -0.44458,0.05475 -0.0592,0.875862 0.35014,0.796098 0.16014,-10e-4 0.88293,0.443102 0.72822,0.03799 z m -3.75167,-0.03078 c 0.38256,-0.472308 -1.11427,-0.373801 -0.37137,0.0708 0.13295,0.0769 0.25892,0.0041 0.37137,-0.0708 z m 2.0418,-0.31477 c -0.3627,-0.149411 0.0477,0.631054 0.0352,0.09254 l -0.0118,-0.05374 z m -4.01354,-0.321373 c 0.14363,-0.625284 -1.19755,0.02763 -0.61104,0.194981 0.21747,0.0255 0.67906,0.218742 0.61104,-0.194981 z m 0.79528,0.186702 c 0.32328,-0.36731 -0.63712,-0.150721 -0.24335,0.09681 0.0903,-0.0051 0.169,-0.0512 0.24335,-0.09681 z m 2.28696,-0.114709 c -0.13902,-0.277276 -0.82594,-0.171404 -0.33287,0.04409 0.0689,0.01676 0.39149,0.129155 0.33287,-0.04409 z m -4.39368,-0.446729 c -0.12947,-0.165735 -0.0213,0.715806 0.0207,0.186845 0.0818,2.64e-4 -0.084,-0.18715 -0.0207,-0.186845 z m 0.67353,0.08482 c -0.0441,-0.410463 -0.3235,0.3769 0,0 z m 6.20516,-0.06562 c -0.0174,-0.490441 -0.4936,-0.857253 -0.9484,-0.926625 -0.55281,0.297572 0.0622,0.88853 0.48716,0.955414 0.12957,0.03566 0.49769,0.288724 0.46124,-0.02875 z m -1.62378,-0.101483 c -0.15471,-0.696698 -0.3758,0.42568 -0.009,0.06491 z m -3.04701,-0.250894 c -0.23121,-0.161347 -0.44665,0.229063 0,0 z m -0.91794,-0.248883 c -0.11531,-0.499735 -1.10802,-0.10517 -0.41805,0.114019 0.15423,0.0091 0.50336,0.212657 0.41805,-0.114019 z m 2.83061,-0.181531 c -0.5306,-0.35254 -0.37859,0.655708 0.0478,0.229357 0.25989,-0.08482 0.18369,-0.157578 -0.0382,-0.225131 z m -0.83739,0.03657 c -0.0434,-0.595469 -0.92035,0.21221 -0.24364,0.212525 0.14195,0.04338 0.2634,-0.06776 0.24364,-0.212525 z m -1.15984,-0.405942 c 0.0432,-0.429266 -0.35362,-0.24938 -0.21761,0.0833 0.11173,0.32951 0.26216,0.19168 0.21761,-0.0833 z m -0.8119,-0.11599 c -0.15064,-0.535371 -0.48478,0.393031 -0.0235,0.10961 l 0.0173,-0.04846 0.006,-0.06115 z m 5.33528,0.07568 c -0.33799,-0.524075 -0.79266,-0.993498 -1.32445,-1.324166 -0.21203,-0.133381 -0.39663,0.01595 -0.10314,0.09021 0.0434,0.415603 -0.0224,1.213581 0.61849,1.119239 0.2288,-0.06532 0.69173,0.363257 0.8091,0.11469 z m -6.64672,-0.566405 c -0.12947,-0.165705 -0.0213,0.715816 0.0207,0.186854 0.0818,2.64e-4 -0.084,-0.187159 -0.0207,-0.186854 z m 4.21105,0.316751 c -0.14071,-0.339486 -0.29365,0.175599 -0.015,0.08188 z m -3.21516,-0.163948 c 0.44787,-0.392147 -0.82251,-0.357009 -0.29793,0.14873 0.11516,0.002 0.20816,-0.08797 0.29793,-0.14873 z m 2.07984,-0.417391 c 0.10037,-0.405444 -0.50917,-0.57183 -0.45762,-0.100873 0.0493,0.32311 0.53468,0.766476 0.45762,0.100873 z m 0.77612,0.07294 c 0.20605,-0.46094 -0.50901,-0.09549 -0.1484,0.144453 0.0617,-0.03362 0.10207,-0.09437 0.1484,-0.144453 z m -1.8445,-0.528626 c 0.0706,-0.379927 -0.45896,-0.39616 -0.26064,0.003 0.0439,0.248121 0.27129,0.312485 0.26064,-0.003 z m 4.20659,-0.325295 c -0.20979,-0.812179 -1.03307,-1.219493 -1.70656,-1.59754 -0.23587,-0.15709 -1.04868,-0.502387 -0.65602,0.06715 0.30761,0.474461 0.64853,0.950354 1.10504,1.292034 0.469,0.133117 0.8648,0.427854 1.29893,0.634813 0.003,-0.13267 -0.0253,-0.265238 -0.0414,-0.396465 z m -6.29431,0.144474 c -0.1506,-0.535371 -0.48484,0.39296 -0.0235,0.109651 l 0.0173,-0.04846 0.006,-0.06115 z m 1.021,-0.332537 c -0.0536,-0.497877 -0.61647,-0.218143 -0.42429,0.167472 0.0516,0.346891 0.51729,0.10577 0.42429,-0.167472 z m 1.80482,-0.13074 c -0.33501,-0.416476 -0.16827,0.459346 0.0175,0.06725 z M 179.877,84.718423 c 0.063,-0.389607 -0.64813,-0.384975 -0.38626,0.03657 0.0491,0.279114 0.37582,0.231755 0.38626,-0.03657 z m 0.83232,-0.775344 c -0.41595,-0.368966 -0.34236,0.284691 -0.17235,0.417827 0.11634,-0.06948 0.4426,-0.309386 0.17235,-0.417827 z m -0.92788,0.195723 c 0.0293,-0.59682 -0.85614,0.0644 -0.23192,0.154642 0.0931,1.02e-4 0.22485,-0.04338 0.23192,-0.154642 z m 2.55165,-0.309295 c -0.28633,-0.446708 -0.28873,0.436885 0,0 z m -3.04251,-0.811885 c -0.10642,-0.445763 -0.64516,-0.04673 -0.18491,0.109549 0.21569,0.102722 0.42261,0.207202 0.18491,-0.109549 z m 0.49086,-1.05071 c -0.20414,-0.371973 -0.4491,0.258594 -0.0687,0.152783 0.0488,-0.03362 0.0694,-0.0959 0.0687,-0.152783 z M 178.6552,81.85778 c -0.0686,-0.371333 -0.70287,-0.24487 -0.32077,0.09011 0.10514,0.190055 0.42965,0.194525 0.32077,-0.09011 z m 6.03769,-0.506573 c -0.15873,-0.443853 -0.53458,-0.771047 -0.99626,-0.86932 -1.85021,-0.51413 -3.74504,-0.933858 -5.67344,-0.96412 -1.88104,-0.03779 -3.76958,-0.02641 -5.64274,0.16411 -0.55292,0.01636 0.006,0.53528 0.31454,0.365928 1.30999,-0.129449 2.62624,-0.204591 3.94342,-0.172673 1.55786,0.01016 3.12401,0.145073 4.62544,0.582263 1.26268,0.36028 2.54332,0.779936 3.62063,1.552122 0.25109,0.09315 -0.17573,-0.55061 -0.19159,-0.65831 z m -7.02718,0.361591 c -0.21033,-0.320906 -0.62128,-0.291609 -0.95785,-0.325945 0.33561,0.189811 0.64704,0.434732 1.01313,0.561469 0.12094,-0.01148 -0.0365,-0.187373 -0.0553,-0.235524 z m -7.84258,-1.072856 c 0.66488,-0.158665 1.33141,-0.328057 2.00574,-0.432506 0.13432,-0.530689 -0.73971,-0.317676 -1.06672,-0.261479 -0.9103,0.177112 -1.82845,0.329916 -2.72393,0.572063 -0.38969,0.122887 0.11014,0.741457 0.39408,0.458289 0.46417,-0.109731 0.92765,-0.222795 1.39083,-0.336367 z m -12.76196,-0.102123 c 0.67116,-0.322419 1.38568,-0.536285 2.07675,-0.807008 0.23018,-0.217239 -0.41186,-0.395571 -0.6092,-0.548365 -0.14698,-0.04876 -0.2856,-0.218335 -0.43783,-0.19107 -1.14684,0.448273 -2.32881,0.822592 -3.42005,1.399085 0.46021,0.189079 0.90368,0.47185 1.40147,0.527031 0.34231,-0.08889 0.66633,-0.2372 0.98886,-0.379673 z m -1.52046,-0.840481 c 0.6481,-0.329825 1.34193,-0.566964 1.9787,-0.915663 0.16427,-0.250477 -0.40075,-0.397826 -0.59725,-0.553088 -0.1399,-0.124401 -0.28803,-0.136184 -0.44455,-0.03291 -1.04474,0.420672 -2.12127,0.787108 -3.09667,1.355525 0.19834,0.284538 0.74924,0.484853 1.11592,0.647531 0.34588,-0.171374 0.69557,-0.335026 1.04385,-0.501442 z m 13.91812,0.05983 c 0.58041,-0.132152 1.1677,-0.243011 1.73804,-0.413876 -0.24728,-0.361794 -0.68431,-0.721658 -1.14348,-0.771749 -1.00025,0.08746 -1.98814,0.307314 -2.9613,0.550548 -0.27675,0.02976 -0.58374,0.188917 -0.23702,0.424146 0.33521,0.439852 0.82585,0.708777 1.36307,0.46666 0.41446,-0.08086 0.82786,-0.166995 1.24069,-0.255729 z m 14.34244,-0.06501 c -0.33353,-0.4827 -0.96073,-0.607802 -1.47225,-0.824553 -0.62899,-0.331592 -0.0204,0.68082 0.19617,0.82184 0.43783,0.12566 0.88091,0.287231 1.33922,0.300061 0.12396,-0.04256 -0.056,-0.231765 -0.0632,-0.297348 z m -20.69345,-1.229195 c 0.29915,-0.115918 1.27301,-0.246109 0.60915,-0.587179 -0.37016,-0.340604 -0.87072,-0.494393 -1.34876,-0.282203 -1.20719,0.328048 -2.40319,0.705932 -3.5705,1.156186 -0.26819,0.199898 0.40522,0.408157 0.60333,0.563145 0.15823,0.0576 0.30169,0.258939 0.47663,0.153941 1.07375,-0.344098 2.14696,-0.690339 3.23015,-1.00389 z m 18.37165,0.565461 c -0.28662,-0.523019 -0.88973,-0.554063 -1.40863,-0.636733 -0.63227,-0.08838 -1.26386,-0.23657 -1.90337,-0.236641 -0.1098,0.129866 0.31822,0.743488 -0.20314,0.607761 -0.47543,-0.23334 -0.82896,-0.757741 -1.4125,-0.721383 -0.97846,-0.02347 -1.96355,-0.01554 -2.93214,0.139668 0.29475,0.304663 0.5895,0.609325 0.88425,0.913988 1.13119,-0.08858 2.26641,-0.132375 3.40006,-0.05475 1.23798,0.05851 2.47551,0.170001 3.69166,0.413551 0.35951,0.09336 -0.0811,-0.32694 -0.11619,-0.425477 z m -7.93071,0.08879 c 0.10547,-0.04663 0.4443,-2.85e-4 0.40239,-0.105638 -0.23787,-0.270642 -0.41704,-0.606704 -0.72025,-0.809426 -0.47569,-0.08462 -0.96133,0.09051 -1.43957,0.123415 -0.39868,-0.02469 -0.72261,0.201158 -0.45411,0.597836 0.22094,0.509761 0.87404,0.332557 1.3096,0.312352 0.30142,-0.03332 0.60177,-0.07568 0.90194,-0.118539 z m -4.53436,-0.848872 c 0.3041,0.07507 0.79726,-0.140563 0.33809,-0.38529 -0.17878,-0.10835 -0.34899,-0.270683 -0.53615,-0.342645 -1.16362,0.239018 -2.33746,0.443051 -3.47495,0.791324 0.2906,0.19747 0.58119,0.394951 0.8718,0.592421 0.93016,-0.231664 1.85048,-0.522053 2.80121,-0.65581 z m 14.0146,0.111174 c -0.11374,-0.436763 -1.13654,-0.02743 -0.96873,-0.454784 0.33441,-0.173374 -0.46063,-0.356562 -0.6056,-0.458949 -0.42476,-0.133574 -0.98506,-0.477641 -1.35756,-0.43272 0.38317,0.423587 0.85769,0.770479 1.35591,1.048241 0.56279,0.149025 1.11401,0.339039 1.667,0.521028 -0.006,-0.08239 -0.0597,-0.149888 -0.091,-0.222816 z m -23.67545,-0.295784 c 0.89585,-0.351371 1.82634,-0.601706 2.73322,-0.919361 0.45136,-0.16285 -0.20429,-0.425091 -0.39917,-0.553799 -0.14437,-0.133777 -0.30392,-0.118143 -0.47037,-0.03464 -1.33714,0.450802 -2.69588,0.844798 -4.00593,1.370529 -0.19574,0.06258 0.19224,0.174004 0.2593,0.258574 0.39234,0.368 0.90085,0.287565 1.34475,0.07365 0.18029,-0.06247 0.35966,-0.12761 0.5382,-0.19493 z m 12.48297,-0.209366 c 0.30929,-0.04663 0.61858,-0.09315 0.92787,-0.13977 -0.44049,-0.282161 -0.83272,-0.762342 -1.40453,-0.704642 -0.61721,0.06705 -1.21713,0.236713 -1.82349,0.36475 0.43398,0.275091 0.85134,0.706318 1.41344,0.596637 0.29715,-0.0255 0.59185,-0.07375 0.88671,-0.116975 z m -5.46789,-0.307059 c 0.57856,-0.147115 1.16675,-0.283259 1.75166,-0.380608 -0.0982,-0.305028 -0.50192,-0.422937 -0.76523,-0.604428 -0.14656,-0.08533 -0.28676,-0.212302 -0.46085,-0.116802 -1.06273,0.255119 -2.14086,0.458502 -3.1849,0.781826 0.23551,0.325213 0.68422,0.509568 1.05915,0.660147 0.53757,-0.0448 1.0721,-0.224207 1.60017,-0.340135 z m 13.58678,0.05435 c -0.13889,-0.331359 -0.67327,-0.187169 -0.52568,0.124401 0.19456,0.05983 1.06196,0.292391 0.58953,-0.07162 l -0.0638,-0.05272 z m -34.67266,-0.296728 c -0.0814,-0.160585 -0.79455,0.4302 -0.64546,0.400172 0.22689,-0.109417 0.47325,-0.210433 0.64546,-0.400172 z m 12.88791,-0.200285 c 0.83016,-0.322998 1.67983,-0.592269 2.5232,-0.875344 0.30812,-0.199746 -0.36797,-0.410626 -0.54152,-0.546444 -0.15213,-0.06776 -0.29855,-0.192534 -0.45422,-0.224889 -1.38581,0.419332 -2.76329,0.874299 -4.10005,1.431785 0.13892,0.276158 0.67794,0.514892 0.99014,0.737962 0.4253,-0.0051 0.85693,-0.294413 1.28323,-0.410839 0.0998,-0.03738 0.1995,-0.07477 0.29922,-0.112231 z m 18.10865,0.381999 c -0.39516,-0.312068 -0.82442,-0.621545 -1.30923,-0.77828 -0.7581,-0.127205 -1.52394,0.06573 -2.28027,0.131633 -0.28247,-0.01229 -0.19749,0.07822 -0.0111,0.197013 0.34409,0.203556 0.36623,0.739719 0.87147,0.59295 0.91016,-0.02123 1.8227,-0.06054 2.72914,-0.143316 z m 2.57426,-0.103311 c 0.13991,-0.289842 0.25367,-0.528048 -0.16498,-0.651361 -0.65616,-0.176117 -1.34596,-0.06887 -2.01828,-0.07141 -0.21945,0.0061 -0.43891,0.01148 -0.65836,0.01727 0.55503,0.390207 1.1138,0.836702 1.81475,0.907801 0.28464,-0.02682 1.04999,0.292564 1.02687,-0.202285 z m -8.72602,-0.663328 c 0.31856,-0.03952 1.01606,-0.229175 0.40639,-0.49941 -0.37347,-0.32627 -0.87541,-0.322267 -1.33298,-0.226057 -0.34575,0.113166 -1.10536,0.0385 -1.20665,0.337566 0.3373,0.272217 0.74093,0.516761 1.17456,0.579144 0.31992,-0.06186 0.6393,-0.126706 0.95868,-0.191243 z m 11.61709,0.0447 c -0.3676,-0.458522 -0.7711,-0.933796 -1.31807,-1.177843 -0.91843,-0.182832 -1.8593,-0.191589 -2.79084,-0.260321 0.47959,0.372968 0.98396,0.7372 1.59317,0.861093 0.81432,0.180576 1.61944,0.404855 2.39124,0.723668 0.17301,0.07517 0.29706,0.03606 0.1245,-0.146597 z m -17.11465,-0.278321 c 0.54364,-0.140725 1.0992,-0.253281 1.62407,-0.454541 -0.0838,-0.261367 -0.43918,-0.341395 -0.669,-0.481948 -0.14476,-0.129713 -0.31131,-0.06979 -0.47655,-0.02133 -0.9008,0.23339 -1.81475,0.421586 -2.70188,0.703219 -0.44736,0.225569 0.45972,0.593569 0.69816,0.596587 0.5113,-0.100366 1.01821,-0.222024 1.5252,-0.341975 z m -7.58147,-0.534945 c 0.70038,-0.278098 1.41196,-0.526615 2.12963,-0.756094 -0.34488,-0.197318 -0.7523,-0.321749 -1.03043,-0.606115 0.31881,-0.04764 0.64675,0.143742 0.95805,0.238907 0.18199,0.04429 0.3594,0.175101 0.54424,0.165836 0.98076,-0.248689 1.96771,-0.475223 2.94105,-0.75135 -0.49153,-0.253403 -1.02805,-0.410879 -1.54296,-0.612769 -1.81863,0.443438 -3.62268,0.951696 -5.37824,1.605139 -0.56989,0.224766 -1.17541,0.369342 -1.72318,0.64361 0.089,0.255343 0.51189,0.401615 0.76307,0.5827 0.14826,0.07212 0.29111,0.209559 0.4427,0.241121 0.63181,-0.250853 1.26384,-0.501158 1.89607,-0.750985 z m 16.68175,0.241264 c 0.0879,-0.04165 0.51726,-0.02347 0.29065,-0.120266 -0.42349,-0.235159 -0.85242,-0.550792 -1.36654,-0.468001 -0.61046,0.04449 -1.22237,0.100671 -1.82232,0.225914 0.3511,0.242981 0.69484,0.588968 1.16171,0.520977 0.58052,-0.0254 1.16105,-0.07802 1.7365,-0.158624 z m 3.5575,-0.4532 c -0.46203,-0.337078 -1.04349,-0.433787 -1.60264,-0.362708 -0.5489,0.04134 -1.09662,0.09671 -1.64492,0.145276 0.50484,0.25899 1.00603,0.601392 1.60233,0.550548 0.70329,-0.001 1.40614,-0.0322 2.10918,-0.04896 -0.15465,-0.09468 -0.3093,-0.189405 -0.46395,-0.284112 z M 163.03366,75.58376 c 0.49661,-0.144972 1.02707,-0.242757 1.49517,-0.443356 -0.31244,-0.28912 -0.74989,-0.398263 -1.12784,-0.587048 -1.00903,0.246516 -2.03458,0.435087 -3.02706,0.742005 -0.20194,0.239008 0.5214,0.372237 0.69751,0.509508 0.42731,0.266568 0.9029,0.01117 1.34696,-0.06583 0.20552,-0.05008 0.41059,-0.101879 0.61526,-0.155262 z m 5.03337,0.124299 c 0.22671,-0.119606 1.00737,-0.06888 0.91052,-0.345032 -0.40432,-0.229612 -0.8503,-0.472003 -1.33168,-0.341376 -0.46622,0.08492 -0.97798,0.111683 -1.40459,0.288552 0.39777,0.336519 0.95913,0.614495 1.49469,0.461072 0.11084,-0.01839 0.22127,-0.03931 0.33106,-0.06319 z m 3.86436,-0.567178 c 0.15679,-0.260859 -0.58758,-0.397704 -0.79909,-0.528057 -0.57499,-0.116396 -1.15438,0.07314 -1.728,0.134254 -0.0951,0.04084 -0.50436,0.01595 -0.35808,0.107294 0.37723,0.231095 0.75688,0.540969 1.231,0.471454 0.5531,-0.0322 1.11234,-0.06471 1.65417,-0.184945 z m 3.0367,-0.224532 c 0.23196,-0.02479 0.46393,-0.04957 0.6959,-0.07436 -0.6412,-0.254571 -1.2554,-0.69235 -1.97608,-0.616213 -0.61796,0.04063 -1.23428,0.103099 -1.85139,0.154826 0.55293,0.303331 1.12151,0.647327 1.77816,0.618112 0.45245,0.0091 0.90399,-0.03586 1.35341,-0.08239 z m -8.62595,-0.193509 c 0.24182,-0.09244 1.24836,-0.135361 0.63066,-0.420581 -0.38345,-0.271718 -0.8537,-0.367797 -1.30666,-0.229144 -0.48754,0.09204 -0.97425,0.188297 -1.46138,0.282405 0.40845,0.182253 0.78058,0.500091 1.24038,0.522034 0.30377,-0.01585 0.59956,-0.09701 0.897,-0.154714 z m 12.49379,0.120815 c -0.80026,-0.254744 -1.64241,-0.374462 -2.47249,-0.499197 -0.17669,-0.045 -0.70087,-0.01839 -0.26238,0.14682 0.54697,0.328677 1.18512,0.432253 1.81496,0.407172 0.30259,-0.01321 0.63009,0.02052 0.91991,-0.05476 z m -9.63545,-0.59043 c 0.22109,-0.02377 0.98059,-0.126941 0.4523,-0.346242 -0.59222,-0.326269 -1.29488,-0.361123 -1.94126,-0.194372 -0.27189,0.03657 -0.94304,0.164141 -0.34374,0.360199 0.40999,0.203393 0.87163,0.400366 1.33267,0.25061 0.16644,-0.02499 0.33321,-0.04825 0.50003,-0.0702 z m -4.71533,-0.412688 c 0.35834,-0.08249 0.71668,-0.165004 1.07502,-0.247511 -0.52741,-0.252153 -1.05053,-0.631064 -1.66798,-0.523669 -0.72849,0.04988 -1.44465,0.201036 -2.14631,0.3981 0.54799,0.20385 1.09725,0.404378 1.64402,0.611438 0.36746,-0.06755 0.73067,-0.156948 1.09525,-0.238358 z m 13.00418,-0.171993 c -0.57329,-0.325396 -1.23109,-0.429866 -1.88251,-0.43077 -0.79272,-0.02966 -1.58566,-0.05262 -2.37849,-0.07903 0.5034,0.262465 1.03244,0.490532 1.60701,0.527773 1.03369,0.110971 2.08234,0.127652 3.09706,0.372623 0.51505,0.04978 -0.41131,-0.374685 -0.44307,-0.390593 z m -5.13089,0.115735 c 0.2513,-0.02702 0.5026,-0.05414 0.7539,-0.08117 -0.48135,-0.236326 -0.99633,-0.412515 -1.53962,-0.410859 -0.61202,-0.03596 -1.21976,0.05465 -1.82392,0.13974 0.5562,0.248639 1.12874,0.623841 1.76464,0.452793 0.28123,-0.03677 0.56314,-0.07019 0.845,-0.100467 z m -5.13452,-0.458289 c 0.21657,-0.0081 0.83049,-0.14425 0.32389,-0.301046 -0.66724,-0.311814 -1.42026,-0.377112 -2.14007,-0.238673 -0.19506,0.01463 -0.71315,0.103332 -0.27914,0.272877 0.41473,0.180871 0.85492,0.406115 1.31563,0.382679 0.25891,-0.0449 0.51923,-0.08127 0.77969,-0.115837 z m 3.01282,-0.502833 c 0.12622,-0.04449 0.47822,-0.08299 0.16772,-0.138877 -0.87124,-0.344199 -1.82631,-0.25453 -2.74036,-0.213947 -0.52804,0.122328 0.44699,0.413612 0.64804,0.453443 0.63716,0.106725 1.30084,0.05872 1.9246,-0.10067 z m 3.70642,-0.257822 c -0.82005,-0.191965 -1.67567,-0.16282 -2.51366,-0.194403 -0.39691,-0.06227 -0.31492,0.128617 6.7e-4,0.178098 0.80197,0.144535 1.63053,0.184001 2.44162,0.103586 0.0215,0.01432 0.17037,-0.05262 0.0714,-0.08726 z m 0.96694,0.01493 c -0.22666,-0.259041 -0.66533,0.01097 -0.18448,0.105749 0.0609,-0.001 0.45816,0.0515 0.18448,-0.105749 z m -2.37165,-0.786255 c -0.66178,-0.200833 -1.3259,-0.435311 -2.0146,-0.517025 -0.40765,0.281592 -0.92845,0.153413 -1.40172,0.105749 -0.64785,-0.0388 -1.31218,-0.129033 -1.95467,-0.02661 0.37908,0.20129 0.84415,0.293041 1.27384,0.38979 1.22031,0.177956 2.45986,0.08147 3.68801,0.07304 0.13592,-0.0081 0.2747,-0.002 0.40914,-0.02489 z m -21.93997,9.803497 c -0.32045,-0.189232 -0.72261,-0.354876 -0.9765,-0.594626 0.60737,0.250944 1.20396,0.553027 1.74664,0.924918 -0.1183,0.077 -0.5649,-0.254307 -0.77014,-0.330292 z"
       id="path2" /><g
       id="g23"
       transform="matrix(1,0,0,0.88410308,77.427714,9.9357888)"
       style="stroke-width:1.06353"><path
         id="path14"
         style="opacity:1;fill:#fdfdfd;fill-opacity:1;fill-rule:evenodd;stroke:#000000;stroke-width:2.12705;stroke-miterlimit:9;stroke-dasharray:none;stroke-opacity:1;paint-order:stroke markers fill"
         d="m 114.59224,81.19076 -17.602871,5.85e-4 c 0,0 -10.050355,2.14809 -15.817123,6.343653 -1.58851,1.155707 -3.911389,2.731401 -3.911389,2.731401 l 37.331383,-0.03449 z" /><path
         style="font-variation-settings:normal;opacity:1;fill:none;fill-opacity:1;stroke:#000000;stroke-width:0.388187;stroke-linecap:round;stroke-linejoin:round;stroke-miterlimit:9;stroke-dasharray:none;stroke-dashoffset:0;stroke-opacity:1;stop-color:#000000;stop-opacity:1"
         d="M 77.125646,89.946091 H 114.93155"
         id="path15" /><path
         style="font-variation-settings:normal;opacity:1;fill:none;fill-opacity:1;stroke:#000000;stroke-width:0.388187;stroke-linecap:round;stroke-linejoin:round;stroke-miterlimit:9;stroke-dasharray:none;stroke-dashoffset:0;stroke-opacity:1;stop-color:#000000;stop-opacity:1"
         d="M 78.111486,89.425281 H 114.93409"
         id="path16" /><path
         style="font-variation-settings:normal;opacity:1;fill:none;fill-opacity:1;stroke:#000000;stroke-width:0.388187;stroke-linecap:round;stroke-linejoin:round;stroke-miterlimit:9;stroke-dasharray:none;stroke-dashoffset:0;stroke-opacity:1;stop-color:#000000;stop-opacity:1"
         d="M 79.008708,88.749059 H 114.93641"
         id="path17" /><path
         style="font-variation-settings:normal;opacity:1;fill:none;fill-opacity:1;stroke:#000000;stroke-width:0.388187;stroke-linecap:round;stroke-linejoin:round;stroke-miterlimit:9;stroke-dasharray:none;stroke-dashoffset:0;stroke-opacity:1;stop-color:#000000;stop-opacity:1"
         d="M 80.196506,87.954631 H 114.93947"
         id="path18" /><path
         style="font-variation-settings:normal;opacity:1;fill:none;fill-opacity:1;stroke:#000000;stroke-width:0.388187;stroke-linecap:round;stroke-linejoin:round;stroke-miterlimit:9;stroke-dasharray:none;stroke-dashoffset:0;stroke-opacity:1;stop-color:#000000;stop-opacity:1"
         d="M 88.063227,83.662522 H 114.9571"
         id="path19" /><path
         style="font-variation-settings:normal;opacity:1;fill:none;fill-opacity:1;stroke:#000000;stroke-width:0.388187;stroke-linecap:round;stroke-linejoin:round;stroke-miterlimit:9;stroke-dasharray:none;stroke-dashoffset:0;stroke-opacity:1;stop-color:#000000;stop-opacity:1"
         d="M 90.699449,82.757275 H 114.96389"
         id="path20" /><path
         style="font-variation-settings:normal;opacity:1;fill:none;fill-opacity:1;stroke:#000000;stroke-width:0.388187;stroke-linecap:round;stroke-linejoin:round;stroke-miterlimit:9;stroke-dasharray:none;stroke-dashoffset:0;stroke-opacity:1;stop-color:#000000;stop-opacity:1"
         d="M 92.904855,82.013118 H 114.96957"
         id="path21" /><path
         style="font-variation-settings:normal;opacity:1;fill:none;fill-opacity:1;stroke:#000000;stroke-width:0.388187;stroke-linecap:round;stroke-linejoin:round;stroke-miterlimit:9;stroke-dasharray:none;stroke-dashoffset:0;stroke-opacity:1;stop-color:#000000;stop-opacity:1"
         d="M 82.110293,86.695171 H 114.9444"
         id="path22" /><path
         style="font-variation-settings:normal;opacity:1;fill:none;fill-opacity:1;stroke:#000000;stroke-width:0.388187;stroke-linecap:round;stroke-linejoin:round;stroke-miterlimit:9;stroke-dasharray:none;stroke-dashoffset:0;stroke-opacity:1;stop-color:#000000;stop-opacity:1"
         d="M 94.636466,81.519877 H 114.97404"
         id="path23" /><ellipse
         style="opacity:1;fill:#fdfdfd;fill-opacity:1;fill-rule:evenodd;stroke:#000000;stroke-width:1.27623;stroke-miterlimit:9;stroke-dasharray:none;stroke-opacity:1;paint-order:fill markers stroke"
         id="path24"
         cx="122.21027"
         cy="85.137985"
         rx="9.3219595"
         ry="10.543447" /></g><g
       id="g33"
       transform="matrix(-1,0,0,0.88410308,139.5804,9.9357888)"
       style="stroke-width:1.06353"><path
         d="m -58.496645,95.520462 c 0.06368,-0.649588 1.989857,0.245798 1.343952,-0.927184 0.831997,0.505792 1.445393,-1.076197 2.451585,-1.459057 0.763934,-0.428562 1.111086,-1.823914 1.771191,-1.685927 0.745097,-0.806868 1.175723,-2.113078 1.018314,-3.517242 -0.02611,-1.791896 0.452023,-3.631038 0.298138,-5.367074 -0.666446,-0.773218 -1.420676,-1.430556 -1.469165,-2.028682 0.832288,0.744347 2.935348,2.707863 2.413891,3.335961 -0.454637,0.245803 1.089117,1.281359 -0.220293,1.609963 0.537827,0.590933 0.327744,2.728543 -0.572086,1.224433 -0.747818,-0.738368 0.950518,1.560207 0.406912,1.66539 0.676133,0.135538 0.983623,0.979761 0.201549,0.978851 1.139023,0.567111 1.056069,-0.02722 2.158242,-0.514665 0.542874,0.468364 2.173605,1.774767 1.21811,0.1936 -0.192535,-0.752603 1.134312,-2.252563 0.97032,-0.455472 -0.03185,0.991615 -0.222368,1.061295 0.819093,0.487026 0.792659,0.474055 0.928839,0.150522 0.66044,-0.791155 0.203397,0.69482 0.995486,1.677563 0.898709,0.239805 0.07839,-1.931291 1.366359,-0.30802 1.469172,0.727609 0.341129,-0.604591 1.356474,0.589094 0.916827,-0.500057 0.782789,-1.953989 0.817217,2.307927 1.314692,0.173291 -0.170672,-1.16996 0.01073,-1.515157 0.815699,-0.322704 0.354584,0.967941 2.08793,1.374559 1.046168,0.05343 0.490693,-1.429505 1.143354,-1.017962 1.802604,-0.04488 -1.029019,0.865587 -0.383046,0.528636 0.473488,0.463561 0.547325,0.716412 1.59049,0.981391 0.554469,-0.162057 -0.631154,-0.48631 0.93724,-2.422734 0.877182,-0.70579 0.09657,1.226389 1.139899,-0.203094 0.513858,0.879095 0.672644,-0.640319 2.1715,1.663241 1.313428,-0.07183 -0.827311,-0.681997 0.383405,-1.737486 0.461919,-0.325296 -0.05145,-1.266421 0.905636,-0.521175 0.812169,0.07526 -0.518145,0.941935 1.024449,-0.0162 1.255393,1.215464 0.739426,-0.368547 -1.208216,-1.668385 -0.03658,-2.024794 0.08533,1.177633 0.788728,0.81756 1.03234,0.605223 -0.867441,1.011465 -0.389985,1.247888 0.47122,0.467301 0.621161,0.78253 1.57958,1.254898 0.925015,-0.173083 -0.26688,-1.248995 0.161735,-2.0257 0.956551,-0.851791 -0.568293,0.778647 -0.428692,1.242023 0.485009,0.541615 0.497973,0.820799 2.505431,1.924319 1.066748,0.323129 -0.732236,-0.745921 1.404869,-2.513005 0.359963,-0.600228 -0.563817,0.835641 0.915158,-0.425262 0.250939,0.721348 0.656627,-0.437348 1.407662,-1.791211 1.093639,-0.107762 -0.0552,0.823925 1.105804,-1.101504 0.996221,0.449507 -0.01716,0.759847 0.921526,-0.671077 1.333822,0.338427 0.83112,0.245702 1.124263,-1.54638 1.274104,-1.943417 0.575397,-0.712542 0.117629,-2.832602 -0.359491,-1.089673 -0.338941,2.088467 -0.48258,-2.284781 -1.1252,-0.233439 -0.902108,1.593353 -0.524991,-0.901477 -0.350036,-1.527974 -0.633953,-0.188652 -1.235123,2.238206 -1.010731,0.51322 0.501739,-1.770718 -0.656941,-0.241048 -0.810728,0.544988 -1.036155,-0.09188 0.291426,-3.04728 -0.825921,-1.243695 -0.833797,1.526353 -0.3339,-0.715644 -0.556018,-1.045808 -0.232842,0.6576 -1.453049,1.654702 -1.318946,0.331337 1.4307,-1.604228 -1.134453,-1.622524 -2.270596,-1.455949 -0.868743,0.45801 -0.191711,-1.403442 -1.012035,-0.341729 -0.873431,1.078839 -1.649582,-0.425944 -1.620786,-1.147893 -0.321906,1.600003 -1.223087,0.09178 -1.739356,-0.104503 -0.469662,0.32848 -1.256713,-0.01156 -0.362827,0.796688 -0.352207,0.714518 -0.293583,0.23225 -0.261988,0.980288 -0.156086,-0.918149 -1.701074,-1.352752 -1.224531,-0.2219 -0.140918,1.071088 -0.807943,1.823961 -1.229635,0.548967 0.45497,-0.731863 0.671248,-3.545297 -0.252975,-1.736059 0.08302,2.242927 -1.532954,-0.119488 -2.03195,0.192896 0.581358,0.835953 1.797927,1.442199 1.50862,2.506698 0.97007,-1.140363 1.227662,1.883955 2.006935,0.216678 0.05466,-1.021441 1.185231,-1.719857 0.855401,-0.422871 -1.413757,1.612846 2.61125,3.197363 0.295275,4.180843 -0.650416,-0.639287 -0.614064,-3.929529 -1.521237,-1.665332 -0.592371,-0.0015 -1.767139,-2.176558 -1.770847,-0.637289 -0.366243,0.207181 -1.097276,1.238575 -1.436497,-0.144679 0.09371,-0.609259 -1.289944,-0.466079 -1.034504,-0.511113 0.857941,0.722184 1.422023,4.582217 -0.114237,2.247551 -0.909983,-0.246478 0.424711,-2.171443 -0.701022,-1.285273 -0.428259,0.604373 -0.437112,-0.998185 -1.329301,-0.65301 -0.774915,-0.612959 -1.431463,-1.129065 -0.527186,0.04165 0.900818,0.785666 1.48505,2.302371 0.26424,2.945735 -0.518773,-0.784444 -0.06405,-3.539704 -1.488856,-2.822657 0.523916,2.413855 -1.615549,-0.77686 -2.45381,-1.158929 1.086314,0.864776 1.319609,2.618859 0.383886,3.450403 -0.660108,-0.697614 -0.426648,-1.920578 -1.425649,-1.612916 -0.745079,-0.481567 -0.845122,-0.847921 -0.406096,-1.477911 -0.509047,1.011727 -1.792323,-0.593546 -1.154581,0.716711 -0.940402,-0.72853 0.548285,-1.064379 0.982183,-1.404893 1.948957,1.190795 -0.505998,-1.451141 -1.068373,-1.92673 -0.642327,-0.579126 -1.71321,-1.427644 -0.773006,-0.110098 0.570166,1.652397 -1.996436,-1.507195 -0.714864,0.328803 0.714082,1.216076 -1.281168,-0.423729 -1.401301,-0.954565 -0.852812,-1.148497 -1.860648,-1.862245 -2.560598,-1.749937 0.184194,-1.475517 2.440105,1.451332 1.269055,-0.378827 -1.016435,-1.639395 -2.44248,-2.820627 -4.003853,-3.90023 -0.950113,-0.04312 -2.465817,-0.625942 -3.912083,-0.626036 -0.559973,-1.394372 -0.316334,1.83946 -0.492794,0.493895 -0.266827,-1.044493 -0.474378,0.629064 -0.674425,-0.600409 -0.714891,0.153823 -0.184808,2.500172 -0.587813,0.645226 -0.640927,-0.944803 0.113396,3.126587 -0.539793,0.81412 -0.564114,-2.255858 -0.411629,2.690915 -0.724632,0.300336 -0.240627,-2.180024 -0.890857,1.270787 0.06289,1.663337 0.0076,1.462987 -0.03412,0.02463 -0.399108,-0.09986 -0.480409,1.608401 -0.522434,-3.765933 -0.864124,-1.107968 0.289682,1.301534 -0.07119,1.114841 -0.172493,-0.04032 -0.586948,-0.729118 -0.28149,0.978206 -0.786628,0.473753 0.05524,0.964714 -0.224644,2.337329 -0.358842,0.526888 -0.584575,-1.303142 -0.223871,3.015236 -0.693812,0.802222 -0.7131,0.07865 -0.328565,3.574999 0.356198,2.920692 0.794858,1.417101 -1.249685,-0.04257 -1.029008,-0.834077 0.115274,-0.884121 -0.530264,-1.935273 -0.447533,-0.414048 0.156042,1.464832 -0.4997,-0.36159 -0.3661,1.02351 -0.302409,0.738615 -0.836771,1.918503 -0.200438,2.656929 0.227632,-0.513036 1.090307,0.967587 -0.0034,0.275587 0.843495,0.447165 0.453836,0.945954 0.06865,0.96151 1.838863,1.045355 -0.946536,0.563085 -0.628216,-0.166153 -0.274818,1.353457 1.93841,2.750407 1.392238,3.187605 -1.31905,0.297257 0.974291,2.013237 1.522014,2.593839 0.754522,1.472497 -1.279433,-1.083082 -1.66819,-1.436344 -1.551355,-1.204601 -0.305291,1.375755 0.530077,1.678898 0.375193,0.736851 3.088484,2.45826 1.639135,0.690632 -0.383253,-1.24641 1.371887,1.422843 1.333252,1.172086 0.794995,-0.479073 1.127895,2.022605 0.233006,0.545073 -1.878918,-1.592904 0.213259,1.535163 1.065333,1.543539 -0.457675,-1.150026 0.938247,0.910627 0.77822,-0.157645 0.616672,-0.135803 1.9409,1.285469 1.129876,-0.227361 -0.785222,-1.111244 -0.04359,-1.154813 0.326671,-0.005 0.655121,1.029099 1.596068,0.612083 2.496994,1.03894 l 0.0556,-0.0061 0.03833,-0.05396 z m -1.796341,-1.637751 c -0.491944,-0.681641 0.620854,0.206593 0.456437,-0.735798 0.7736,0.597564 -0.268964,0.370994 0.301547,1.349759 -0.315902,-0.05724 -0.487667,-0.454862 -0.757984,-0.613961 z m 1.247709,-0.04953 c -0.263061,-0.844339 0.03503,-1.637071 0.322518,-0.184599 0.599066,0.517775 0.21096,0.615508 -0.322518,0.184599 z m -2.564655,-0.795887 c 0.11893,-0.872166 1.138476,1.907981 0.108419,0.192878 l -0.108422,-0.192878 z m -1.798582,0.630055 c -0.166766,-0.370351 0.378574,0.421618 0,0 z m 5.558417,-0.406151 c 0.314421,0.16296 0.266376,0.916072 0,0 z m -2.948325,0.189302 c 0.395104,0.269185 0.05083,-0.03421 0,0 z m -1.769033,-0.08116 c 0.746519,0.302261 0.494278,0.355821 0,0 z m 4.04552,-0.135978 c 0.177368,-1.199939 0.805913,0.965589 0,0 z m -4.815932,0.0822 c -0.666444,-2.302354 1.063401,0.912913 0,0 z m 6.490944,-0.06042 c -0.4571,-1.058274 0.586231,0.451069 0,0 z m -3.529748,-0.285829 c 0.155871,-0.02416 0.03617,0.436925 0,0 z m 2.655932,-0.189743 c 0.315971,-1.068191 0.05373,0.946136 0,0 z m 1.2215,-0.236178 c -1.125878,-2.201935 1.161306,1.088877 0,0 z m -1.89939,-0.457866 c 0.180672,-1.029825 0.636504,1.877409 0,0 z m 1.076168,0.505619 c -0.6383,-0.844368 -0.01884,-2.451509 0.117536,-0.560925 0.04754,0.02732 0.0029,1.105061 -0.117536,0.560925 z m -5.186153,-0.342254 c 0.152188,-1.313295 0.0089,1.334822 0,0 z m 6.623148,-0.04246 c -0.73564,-1.793549 0.722012,1.083017 0,-2e-6 z m -3.927105,-0.03475 c 0.184559,-0.933823 0.213078,1.160241 0,0 z m -4.557596,-0.346451 c 0.810181,-0.226372 0.524641,1.493812 0,0 z m 8.923014,-0.142794 c 0.274128,-0.117254 0.24447,0.821604 0,0 z m 0.160083,-0.343913 c -0.843966,-1.212808 1.414878,0.947835 0.187857,0.149741 l -0.187859,-0.149741 z m -3.819394,-0.04214 c 0.511508,-0.200174 0.287387,1.16996 0,0 z m -0.706107,0.285551 c 0.293648,-0.04282 0.140965,0.467294 0,0 z m -3.518864,-0.297359 c 0.28243,-0.755714 0.02302,0.963345 0,0 z m 7.266164,-0.0087 c -0.305055,-2.041366 0.659735,1.066209 0,0 z m -9.080473,-0.08358 c 0.434197,0.07158 -0.546805,-1.217391 0.277066,-0.218403 0.137557,0.293211 0.01912,0.681511 -0.277066,0.218403 z m 10.594059,-0.184818 c -0.762128,-0.854264 -0.383659,-1.57142 0.0991,-0.262414 0.261134,0.277439 0.439629,0.956499 -0.0991,0.262414 z m -3.754491,0.0068 c -0.134828,-0.815536 0.527702,0.899864 0,0 z m -2.275709,-0.133711 c 0.280356,-0.526984 0.141025,0.880768 0,0 z m 3.724076,-0.07023 c 0.146893,-0.437969 0.201033,0.80307 0,0 z m -5.541721,-0.105114 c 0.415543,-0.500682 0.406463,1.077428 10e-7,10e-7 z m -1.854511,-0.423451 c 0.313332,-0.625246 0.893681,1.682247 0.02849,0.225777 l -0.02849,-0.225775 z m 2.98417,0.359849 c -0.689279,-1.373917 1.070051,0.510665 0,0 z m 5.975358,-0.163031 c -0.123663,-0.739096 0.320368,0.407501 0,0 z M -65.989386,90.06931 c 0.390367,-0.666443 0.447698,1.236318 -3e-6,0 z m 1.105687,-1.730754 c -0.696565,-0.158197 -1.563636,-2.454524 -1.092238,-1.98462 0.130519,-0.11903 1.669625,0.614431 0.332545,-0.449191 -1.369993,-2.094928 2.236773,1.145811 0.750015,-0.483742 -0.934749,-0.60491 -1.72748,-2.303729 -0.214754,-1.64463 -0.885954,-0.830547 -0.655744,-1.665763 0.357964,-0.612812 1.459917,0.48541 0.755863,0.99151 0.09942,1.18996 0.79124,-0.405982 2.416694,-0.179317 0.852199,-0.87029 -1.41168,-0.695221 -2.386918,-1.972403 -1.953612,-2.849052 0.222871,0.733583 1.137755,0.50593 2.005976,1.206433 -0.443126,-0.312764 -2.124062,-1.277146 -1.296076,-1.401609 0.114701,1.144002 0.392919,-0.285776 1.069797,0.855181 0.614468,0.547282 2.136225,2.174115 0.772504,0.481639 -1.12096,-0.596449 -2.237455,-2.8589 -0.429812,-1.299473 -0.695703,-0.857536 -0.420559,-1.38547 0.456097,-0.52777 0.430852,0.28378 1.133928,-0.63079 1.442047,-0.915989 -0.630252,-0.152431 -1.338326,-1.891797 -0.160168,-0.652318 1.14051,0.723152 0.990757,0.923518 -0.179562,1.278239 -1.041299,1.205719 1.816343,-1.059377 1.378252,0.168038 -1.798745,-0.142838 -1.098528,1.277936 -1.129583,2.459572 -0.306564,-1.320916 1.464444,-2.223488 2.202679,-1.122853 -1.022671,0.013 -1.843048,0.580661 -0.347883,0.396188 1.125385,-0.296858 1.497905,2.114454 0.203449,1.452397 -1.032943,0.622378 2.382138,1.069946 0.224023,0.979556 -1.01722,0.06244 1.617285,0.93576 -0.09952,0.354624 0.152,0.400299 -0.758311,-0.430438 -0.638764,0.283464 -0.446945,-0.820773 -0.257538,1.481094 -0.62333,0.09075 -0.309011,-1.915325 0.09945,0.515194 -0.396057,0.595321 1.068178,0.848689 -0.385794,0.07602 -0.480384,0.784199 0.0125,-0.870726 -0.580577,0.723716 -0.214222,-0.58459 1.114107,-1.762471 -0.494213,0.105371 -0.384973,0.856865 -0.03127,-0.880141 -0.295933,-1.771566 -0.312853,-0.294822 -0.429306,0.985022 0.162587,-2.37443 -0.40356,-0.236606 -0.150268,0.919657 -0.0859,1.392867 0.334172,0.687323 -0.497549,0.947424 1.887937,1.801484 1.335006,2.217553 -0.782634,-0.736889 -2.103548,-2.083753 -3.099552,-1.725487 0.515625,0.285277 3.237014,1.964035 1.451624,1.260955 -0.561383,-0.574668 -2.798839,-1.612443 -1.231991,-0.276034 -0.310828,0.745433 0.976548,1.260967 0.443451,1.253181 0.557945,0.365376 1.611066,1.805173 0.43468,0.634934 -0.487711,-0.516181 -0.97174,-1.036388 -1.456999,-1.554493 z m 1.458947,-1.867955 c 0.243099,-0.665344 0.246024,-2.586453 -0.02617,-0.81723 -0.008,0.100669 -0.196556,1.126175 0.02617,0.81723 z m -0.283208,-0.6851 c 0.412984,-0.984107 0.129795,-1.436975 -0.104806,-0.137931 -0.135199,0.02935 0.03703,0.491984 0.104806,0.137931 z m -0.195482,-0.836802 c 0.30233,-1.028965 -0.247401,0.19136 0,0 z m -0.188562,-0.22236 c 0.193959,-0.509302 -0.255747,0.120929 0,0 z m 0.877285,-1.804303 c -0.406682,-0.532635 -2.698671,-1.237453 -1.049299,-0.341554 -2.06995,-0.834636 1.923175,0.921986 1.049299,0.341554 z m 1.183555,-0.779311 c -0.08249,-0.845897 -1.900702,-3.123497 -0.823338,-1.072474 0.08372,0.117405 0.882311,1.640237 0.823338,1.072474 z m 2.214858,-0.133608 c 0.941898,-0.362021 -1.636676,0.248127 0,0 z m -3.327809,-0.964892 c -0.576341,-0.71675 -1.616653,-0.805373 -0.344499,-0.214193 0.03176,0.06684 0.500618,0.52861 0.344499,0.214193 z m 9.096005,8.4499 c -0.356363,-2.178799 1.094955,2.366352 -9e-6,2e-6 z m -4.932088,0.689761 c -0.208248,-0.427475 0.389196,0.569662 0,0 z m 6.241091,-0.07453 c 0.17408,0.124515 0.08963,0.341559 0,0 z m -4.890952,-0.244296 c 0.162695,-0.227066 0.237415,0.811045 0,0 z m -8.762679,-1.810355 c 0.273407,0.152123 2.043702,1.362447 1.55394,1.763287 -0.547976,-0.558333 -1.076545,-1.143249 -1.55394,-1.763287 z m -0.02381,1.775469 c -0.477946,-0.632957 0.709764,0.474038 0,0 z m 14.179561,-0.136385 c 0.249761,-0.202378 0.0699,0.545734 0,0 z m -8.402331,-0.0932 c -1.295962,-0.915151 1.26015,0.495493 0,0 z m 6.033789,-0.371152 c -0.443176,-1.178481 0.558455,0.651146 0.123878,0.289474 z m -7.646317,0.126627 c -0.779487,-0.358401 -1.61549,-1.26529 -0.253929,-0.556337 0.454622,0.100381 1.174524,1.136248 0.253929,0.556337 z m -4.993982,-0.35342 c -0.746817,-1.21048 2.365865,1.280148 0.356842,0.279187 l -0.174518,-0.119411 -0.182324,-0.159779 z m 45.948161,0.383666 c 0.273576,-0.474575 0.269314,0.297725 0,0 z m -37.840891,0.03518 c 0.0745,-0.262809 0.16011,0.257387 0,0 z m 5.679204,-0.308578 c -0.262304,-0.619158 -1.278801,-2.696685 -0.04345,-1.446353 -0.08559,0.09044 0.583784,2.129181 0.04345,1.446353 z m -2.54573,0.07811 c -0.54931,-0.922391 0.656932,0.54857 0,0 z m -1.624973,-0.140906 c 0.308397,0.109814 0.552725,0.638534 0,0 z m 35.845401,-0.07657 c -0.944775,-0.73162 1.177059,-0.627479 0.31794,0.230129 l -0.31794,-0.230125 z m -33.66289,-0.433163 c 0.265446,-0.78861 0.596019,1.673849 0,0 z m 2.672111,0.209507 c -0.585725,-1.215648 0.589042,0.546393 0,-5e-6 z m 24.123716,-0.33733 c 0.431607,0.05574 0.223039,0.801827 -2e-6,0 z m -21.136555,0.243449 c -0.06156,-1.278873 0.967064,0.454889 0.433591,-0.794609 0.833549,0.580706 0.292794,1.136383 -0.433591,0.794609 z m -10.830054,-0.380308 c 1.16482,-0.13066 0.507259,1.02645 0,0 z m 5.812696,-0.683287 c 0.576413,0.176134 1.304401,1.812659 0.276476,0.42644 l -0.14371,-0.188213 z m -2.105481,0.87068 c -0.3759,-1.005906 0.493361,0.419012 0,0 z m 30.753533,-0.221449 c -0.524748,-1.040983 0.905114,-2.138163 0.383879,-0.491186 -0.115428,0.104479 -0.08648,1.017897 -0.383879,0.491186 z m 4.627034,-0.02578 c -0.874589,-1.030551 1.205883,0.109951 0,0 z m -1.115143,-0.03067 c 0.280226,-0.125754 0.124752,0.333134 0,0 z m -44.998244,-0.07884 c 0.104963,-0.361607 0.677521,0.532882 0.04545,0.112336 z m 11.43541,-0.277517 c 0.546126,0.0855 0.152753,0.756466 0,0 z M -48.042,86.90626 c -0.203132,-0.03916 -0.913568,-1.936552 0.191714,-0.4873 0.832568,0.353776 0.403559,1.523168 -0.139434,1.53152 -0.04415,-0.344084 -0.218401,-0.706241 -0.05228,-1.04422 z m -11.507523,0.907077 c -0.224704,-1.093842 0.541942,0.761928 0,0 z m 30.130803,-0.07234 c -0.521727,-0.480735 0.887486,-2.081079 0.609412,-0.447377 -0.04587,0.185986 -0.285426,1.122129 -0.609412,0.447377 z m -2.848607,-1.050759 c 0.151811,-0.60121 -0.839988,-1.571414 -1.106406,-0.801118 -1.230351,-0.705968 -1.053145,-1.075312 -0.186457,-2.046841 1.071603,0.361563 0.363765,2.092333 1.565812,1.187058 0.494556,0.416634 -0.583529,-1.771704 0.698924,-0.75668 1.024807,0.24036 0.03805,2.594784 -0.689137,1.137353 -0.764522,-0.146524 1.51578,1.293211 0.870534,1.947121 -0.200383,1.04458 -0.669778,0.161688 -1.076344,-0.27104 -0.119454,-0.156499 -0.319414,-0.22667 -0.07695,-0.395853 z m -20.901424,0.542714 c -1.076083,-1.700149 1.211766,-0.402647 0.643813,-0.361018 -1.140014,-0.550237 0.781784,1.777618 -0.425412,0.520133 l -0.21841,-0.159092 z m -13.781816,0.328193 c -0.11704,-1.650309 1.531786,1.135767 0,0 z m 44.405342,0.192245 c -0.749393,-1.01446 1.060758,-0.120474 0,0 z m -38.521864,-0.0017 c -0.628736,-0.455227 -2.246956,-1.274518 -0.690373,-0.659484 0.182059,0.08499 2.028859,0.999816 0.690373,0.659484 z m 24.448233,-2.005446 c 0.576595,0.546681 1.138167,1.123643 0.445843,1.801506 -0.272444,0.538225 -0.309357,-1.826423 -0.445843,-1.801506 z m -7.693964,1.338449 c 0.03203,-1.430344 0.578485,1.392247 -4e-6,0 z m 22.924113,0.332498 c -0.411372,-1.048367 0.664232,-0.129688 0,0 z m -28.79063,-0.353261 c 0.222724,-0.28116 0.104645,0.916291 0,0 z m 22.529396,-0.428303 c 0.348868,-1.585103 1.209517,1.944408 0.101808,0.158084 z m 3.95532,0.588961 c -0.302825,-1.178057 0.629167,0.31214 0,0 z m -13.732726,-0.180855 c -0.143334,-1.93357 0.761235,0.588655 1.5e-5,0 z m -17.393355,0.01821 c -0.065,-0.693241 0.609759,0.71195 0,0 z m 16.373214,-0.105152 c 0.124906,-0.844172 0.161377,0.946939 0,0 z m -16.903322,0.214792 c 0.03905,-0.171976 0.279001,0.268735 0,0 z m -5.02344,-0.343998 c -0.779212,-0.839876 1.759691,0.628264 0.243591,0.111216 l -0.243585,-0.111216 z m -7.105169,0.130396 c -0.215862,-0.455629 0.465537,0.412911 0,0 z m 0.478909,-0.379323 c 0.801336,-0.113706 0.739171,0.668243 0,-3e-6 z m 36.936076,-0.79571 c -1.251141,-0.830911 0.976301,-0.990642 0.502499,-0.468593 0.0027,0.259641 -0.244576,2.657265 -0.502499,0.468593 z m -19.664264,0.851109 c 0.25748,-0.641285 0.46584,0.08647 0,0 z m -5.911426,-0.279794 c 0.541363,0.135318 0.336544,0.577667 0,0 z m -5.572745,-0.05072 c 0.461294,-0.206902 0.734303,0.744817 0,0 z m 7.1414,0.05967 c -0.490003,-0.407589 0.33687,-0.06259 0.19514,0.211757 z m -0.742351,0.09955 c -0.207561,-0.33381 0.358683,0.38322 0,0 z m -12.011671,-0.105287 c -0.367113,-0.52532 0.331598,-0.648842 -0.200608,-1.100204 0.376038,0.03385 1.013412,1.710162 0.200608,1.100204 z m 35.784759,-0.247136 c 0.534228,-0.777383 0.367045,0.849132 0,0 z m -21.615166,-0.53576 c 0.947889,0.526946 0.473179,1.152397 0,0 z m 27.054212,0.614047 c -0.635453,-1.115312 0.941488,0.05397 0,0 z M -59.476149,85.96647 c -0.847719,-0.657831 1.150544,0.472979 0.938288,0.181115 0.342917,0.430268 -0.908366,-0.09959 -0.938288,-0.181115 z m -2.0054,0.17883 c 0.140516,-0.365581 0.223248,0.480104 0,0 z m 10.979337,-0.259136 c -0.882891,-0.929043 1.746335,-0.176374 0.339871,0.337725 l -0.130684,-0.09798 z m -9.986432,0.235427 c -1.015983,-1.146462 1.25209,0.338404 0,0 z m 32.014217,-0.09446 c -0.705324,-1.087582 1.040744,0.33228 0,0 z m -39.192731,-0.183376 c -0.0048,-0.704792 0.419946,0.703652 0,0 z M -54.283809,85.4381 c 0.652176,0.182269 0.368946,0.952835 0,0 z m 27.626149,0.280445 c -1.426812,-0.350228 0.672492,-1.17258 0.212313,-0.09178 -0.743299,-0.708619 0.407117,0.584745 -0.212313,0.09178 z m -26.797934,-0.284927 c 1.315581,-1.205617 0.399339,1.242568 0,0 z m 3.913906,0.01994 c -0.429264,-1.487119 1.134173,1.195115 0,0 z m -8.969667,0.07589 c 0.269404,-0.04505 0.115966,0.107432 0,0 z m -0.671512,-0.192104 c -0.844923,-1.08594 0.518569,0.148669 0,0 z m 0.552651,-0.472122 c 0.813637,0.183739 0.630957,0.852844 0,0 z m 30.147861,0.02681 c 0.278109,-1.68777 1.408343,1.070597 0.09056,0.101418 z m -23.882119,0.02306 c -0.874663,-1.273255 1.247159,1.180802 0,0 z M -66.285003,84.81097 c 0.05106,-0.428815 0.178405,1.183325 0,0 z m -1.476887,0.07292 c 0.443211,0.03463 0.240459,0.67805 0,0 z m 7.795433,0.09045 c -1.089833,-0.629296 1.477118,0.463941 0,0 z m 6.444655,0.01815 c 0.160088,-0.257384 0.0745,0.262806 0,0 z m 3.417,-0.455043 c -0.246751,-0.842033 0.742825,0.729108 0,0 z m -7.724504,0.01257 c -1.567653,-0.719841 -0.07202,-0.944417 0.544967,-0.251896 0.231565,0.578201 -0.187662,0.348542 -0.544967,0.251896 z m -9.285049,-0.204988 c -0.310652,-1.293324 0.918314,1.095375 -10e-7,-3e-6 z m 37.472921,0.0919 c -1.070216,-0.755269 1.235917,0.591755 4e-6,-3e-6 z m -19.964034,-0.308797 c 1.161022,-1.136762 0.69792,1.057993 0,0 z m -3.452464,0.150009 c -0.0234,-0.621138 0.598619,0.216579 0,0 z m -0.56598,-0.13822 c 0.220185,-0.07988 0.205307,0.504936 0,0 z m 24.329919,-0.167389 c -0.946995,-0.903336 1.151581,0.723192 0,0 z m -23.066161,-0.107158 c -0.617008,-1.023664 0.899586,0.89749 0,0 z m 24.582566,0.02595 c -1.221777,-1.005697 1.872559,-1.166974 0.387577,0.157311 l -0.38758,-0.157309 z m -5.45564,-0.453583 c 0.0155,-0.954504 1.317649,1.356182 0.181088,0.197539 l -0.181078,-0.197539 z m 1.713064,0.06267 c -0.701484,-1.179974 1.900357,0.70344 0.574152,0.301174 l -0.306197,-0.158193 -0.267957,-0.142979 z m -17.219727,0.329944 c 0.178144,-1.131144 1.454039,0.483125 0,0 z m -4.768196,0.05952 c 0.05082,-1.064177 0.765104,0.379565 0,0 z m -13.014225,-0.501692 c 0.03703,-0.711496 0.237786,1.246073 0,0 z m -1.260999,0.395061 c -0.573826,-1.240606 0.585906,-0.02251 0,0 z m 17.812835,-0.416075 c -0.296109,-1.065834 1.217079,0.696187 0,0 z m -3.802684,-0.201257 c 0.641985,-0.260477 -0.242766,1.039998 0,0 z m -3.809935,-0.349108 c 0.04936,-1.400574 0.982907,1.597667 0.06154,0.362381 z m 28.331031,0.385036 c 1.088343,-0.338404 0.68036,0.599618 0,0 z m -29.148293,0.148558 c 0.423858,-0.122826 0.424152,0.213578 0,0 z m 5.456278,-0.268167 c 0.391215,0.08085 0.188505,0.526776 0,0 z m 3.40215,-0.273352 c 1.074641,-0.749275 0.984238,1.471625 0,0 z m -17.74467,-0.08532 c 0.2588,-0.749732 0.549314,1.623881 0,0 z m -1.448589,-0.105494 c 0.510107,-0.205817 0.713447,1.457407 0,0 z m 14.083255,0.227851 c 0.104012,-0.702515 0.648943,1.026813 0,0 z m 21.87645,0.106949 c -1.226892,-0.721294 1.421606,0.451505 0,0 z m -25.601108,0.108397 c -0.572312,-1.633581 -1.418791,-3.341691 -2.802624,-4.497815 1.399363,0.126452 2.267744,2.210141 2.985959,3.412083 0.09729,0.360252 0.779172,1.385175 -0.183335,1.085732 z m 5.760369,-0.372253 c 0.0943,-0.321364 -0.690617,-0.397011 -0.01401,-0.676575 0.478901,0.162924 0.839893,1.526742 0.01401,0.676575 z m -0.646483,0.09218 c -0.138354,-0.664772 0.433016,0.41778 10e-7,10e-7 z m -12.93469,-0.501023 c 0.01961,-0.93376 0.374008,1.462157 0,0 z m -1.612695,-0.08326 c 0.362251,-0.430117 0.02921,0.903633 0,0 z m 14.111971,0.194681 c 0.511503,-1.126272 0.762421,0.03724 0,0 z m 20.854003,-0.05829 c -0.769645,-0.688788 1.262189,0.290917 0,0 z m -22.352725,-0.185241 c -0.160634,-0.462377 0.494739,0.699234 0,0 z m -1.661936,-0.04167 c 0.162625,-1.095864 0.478138,0.798383 0,0 z m -11.427071,-0.126324 c -0.508624,-1.573163 0.865526,0.980628 0,0 z m 14.187305,-0.191503 c 0.543279,-0.994791 0.355434,0.912386 0,0 z m -3.24419,-0.281173 c -0.03255,-1.332707 0.439249,1.654245 0,0 z m 4.141887,0.172941 c 0.355827,-0.653142 0.439687,0.71536 0,0 z m -4.782266,-0.223096 c -0.678521,-0.539005 -0.979267,-2.42673 -0.190433,-0.911876 0.132848,0.155347 0.949951,1.559834 0.190433,0.911876 z m 3.24167,-0.413881 c 0.166942,-0.662973 0.19656,1.28 0,0 z m 1.177759,-0.02984 c 1.327612,-0.349392 -0.454575,1.123344 0,0 z m -12.79438,0.176411 c 0.106914,-0.399456 0.286132,0.815371 0,0 z m 12.130154,0.09963 c 0.0745,-0.262804 0.16009,0.257389 0,0 z m -2.054129,-0.267997 c 0.08475,-0.626058 0.18613,0.822456 0,0 z m -0.539497,-0.260984 c -0.992322,-2.880173 0.864795,1.246195 0,0 z m 2.74229,0.0808 c -0.21497,-1.026555 1.051166,0.317498 0,0 z m -1.304112,-0.180214 c 0.485261,-0.451624 0.250236,0.830879 0,0 z m -11.47744,0.250853 c -0.442668,-1.208636 0.592487,0.422637 0,0 z m 5.352516,-0.396996 c 0.183799,-0.803759 2.209566,-0.245088 0.918813,-0.08306 -0.258524,-0.180069 -1.151125,0.656139 -0.918813,0.08306 z m 3.755572,-0.289576 c 0.26901,-1.445543 1.098607,1.364434 0,0 z m -9.185184,-0.315395 c -0.224283,-1.076393 0.592545,0.677625 0.706173,0.553374 0.178802,0.712737 -0.703834,-0.566572 -0.706173,-0.553374 z m 12.514675,0.391204 c -0.79937,-0.769274 0.755087,0.22481 -3.2e-5,5e-6 z m 0.872981,-0.09621 c -0.292518,-0.866858 0.601438,0.588664 0,0 z m -2.763399,-0.356067 c 0.67819,0.401211 0.601711,0.759415 0,0 z m -9.661318,0.125746 c -0.811889,-0.808179 0.206806,-0.680877 0.32095,0.396271 -0.114577,-0.12587 -0.24409,-0.239524 -0.32095,-0.396271 z m 7.952191,-0.235953 c -0.04229,-1.511803 0.757982,0.231183 4e-6,-4e-6 z m 1.867733,-0.09249 c -0.948547,-1.035123 1.026039,0.67695 0,0 z m -9.131848,-0.253123 c 0.563169,-0.0081 0.135446,0.899235 0,0 z m 9.90818,0.180375 c -0.588985,-0.933125 0.519885,-0.273129 0.190358,0.181786 z m -7.886848,-0.192626 c -0.689478,-1.046718 -0.0021,-1.55256 0.708887,-0.48886 0.845961,0.0512 -0.65039,1.259343 -0.708887,0.48886 z m -1.425578,-0.465284 c 0.384003,-0.388748 0.680387,1.344293 0.06538,0.190512 z m 7.758984,0.438327 c -1.048623,-0.305805 -1.102319,-2.147093 -0.04852,-0.672466 0.751782,1.097906 -0.653939,-0.237635 0.205536,0.79293 z m 2.206747,-0.246584 c -0.630935,-1.084226 -1.374779,-1.158678 -2.524233,-2.200361 -0.467968,-0.650107 -2.849308,-1.928809 -1.30434,-0.4483 0.676101,0.297806 2.687988,2.519727 1.015233,1.162375 -0.627122,-0.487997 -1.747418,-1.794031 -2.109828,-1.036279 0.214169,-0.511702 -1.969485,-1.148887 -1.040416,-1.684829 1.640422,-0.189148 2.799013,0.808849 4.003118,1.744277 0.752039,0.653879 3.047391,1.755165 2.237318,2.684609 l -0.276852,-0.221498 z M -56.474612,78.3717 c 0.249095,-0.539697 1.000378,1.535537 0.06063,0.225227 z m -2.048138,0.170595 c 0.459671,-0.812762 -0.22506,0.857439 0,0 z m -6.553523,-0.03163 c 0.191204,-0.704808 0.16362,0.917526 0,0 z m 5.268464,-0.135431 c 0.545944,-0.309952 -0.0087,0.783118 0,0 z m 0.867181,-0.233669 c 0.288324,-0.433997 -0.08017,0.50032 0,0 z m -2.499943,0.06222 c 0.05181,-0.381162 0.154212,0.379919 0,0 z M -65.6993,77.786298 c 0.09843,0.142446 -0.09705,0.724712 0,0 z m 7.42831,0.140927 c 0.225299,-0.725164 0.227854,0.408721 0,0 z m -1.220624,-0.198864 c 0.240392,-0.443812 0.361074,0.460825 0,0 z m -2.310894,-0.193591 c 0.19572,-1.038268 0.161804,1.149625 0,0 z m -1.732013,-0.306881 c 0.659255,-0.109427 0.61265,1.126762 0,0 z m 4.845301,0.140939 c 0.266198,-0.429702 -0.01275,0.76088 0,0 z m -3.709665,-0.171053 c -0.582496,-1.000784 0.50922,-0.752383 0.22931,0.151891 l -0.229314,-0.151891 z m 3.214933,-0.278588 c 0.455566,-0.07358 -0.0796,0.59167 0,0 z m -2.58668,-0.481891 c 0.59482,0.536295 0.118102,0.09676 0,0 z m 0.973038,0.02081 c 0.209854,-0.284628 -0.07516,0.357899 0,0 z m -0.555572,-0.454796 c 0.192453,-0.722949 0.163747,0.942459 0,0 z m -3.209576,18.179066 c -0.443258,-0.910291 -0.551523,0.35091 0,0 z m -0.577724,-0.534794 c -0.362538,-0.723579 -0.140238,0.266955 0,0 z M -20.5867,90.911939 c 0.720581,-1.158039 2.230622,-3.090094 1.655506,-4.296867 -1.075931,1.26671 -1.334165,3.092421 -2.067171,4.578834 0.127968,0.181733 0.319247,-0.442304 0.411665,-0.281967 z m -48.44805,-6.185654 c 0.186277,-0.791498 -0.52505,-1.792681 -0.214785,-0.364868 0.06282,-0.04926 0.01179,0.599174 0.214785,0.364868 z m 24.973883,-0.135213 c -0.303869,-1.083715 -2.356815,-2.588082 -2.926162,-2.853571 0.791481,0.950169 1.801256,2.636747 2.926162,2.853571 z m 2.597888,-0.316678 c -0.372071,-1.086629 -1.965685,-2.747981 -2.908977,-2.899614 0.77448,1.015424 1.731844,2.50824 2.908977,2.899614 z m 2.534044,-0.12896 c -0.180232,-1.141165 -2.46732,-2.834137 -2.812807,-2.688008 0.919436,0.819679 1.733256,2.248441 2.812807,2.688008 z"
         style="fill:#000000;stroke-width:1.06352"
         id="path1-7" /></g></g></svg>
