<?xml version="1.0" encoding="UTF-8" standalone="no"?>
<!-- Created with Inkscape (http://www.inkscape.org/) -->

<svg
   width="6.3892145mm"
   height="6.5814223mm"
   viewBox="0 0 6.3892145 6.5814223"
   version="1.1"
   id="svg1"
   xml:space="preserve"
   inkscape:version="1.4 (86a8ad7, 2024-10-11)"
   sodipodi:docname="repetition2.svg"
   xmlns:inkscape="http://www.inkscape.org/namespaces/inkscape"
   xmlns:sodipodi="http://sodipodi.sourceforge.net/DTD/sodipodi-0.dtd"
   xmlns="http://www.w3.org/2000/svg"
   xmlns:svg="http://www.w3.org/2000/svg"><sodipodi:namedview
     id="namedview1"
     pagecolor="#ffffff"
     bordercolor="#666666"
     borderopacity="1.0"
     inkscape:showpageshadow="2"
     inkscape:pageopacity="0.0"
     inkscape:pagecheckerboard="0"
     inkscape:deskcolor="#d1d1d1"
     inkscape:document-units="mm"
     inkscape:zoom="13.654994"
     inkscape:cx="26.510447"
     inkscape:cy="27.572329"
     inkscape:window-width="1592"
     inkscape:window-height="1433"
     inkscape:window-x="4605"
     inkscape:window-y="239"
     inkscape:window-maximized="0"
     inkscape:current-layer="g1"><inkscape:page
       x="0"
       y="0"
       width="6.3892145"
       height="6.5814223"
       id="page2"
       margin="0"
       bleed="0" /></sodipodi:namedview><defs
     id="defs1"><clipPath
       clipPathUnits="userSpaceOnUse"
       id="clipPath6"><path
         d="M 0,0 H 19 V 19 H 0 Z"
         id="path6" /></clipPath></defs><g
     inkscape:label="Layer 1"
     inkscape:groupmode="layer"
     id="layer1"
     transform="translate(-220.00066)" /><g
     id="g1"
     inkscape:groupmode="layer"
     inkscape:label="1"
     transform="matrix(0.26458333,0,0,0.26458334,-6.47489e-4,0)"><path
       id="path1"
       d="m 4.461,18.633 5.109,-0.055 2.805,0.078 -0.395,-0.558 0.243,-0.567 1.683,-1.636 -0.183,-0.286 0.113,-0.222 1.18,-1.801 -0.305,-0.469 -2.078,-2.73 L 12.609,9.527 15.422,6.598 15.805,6.043 14.684,4.125 15.012,3.723 13.605,2.402 13.93,0.52 14.234,0 4.473,0.133 4.797,0.605 4.078,2.156 3.246,3.711 3.52,4.09 2.613,6.043 2.875,6.465 5,9.336 l 0.105,0.789 -2.203,3.086 -0.25,0.328 1.028,1.711 -0.149,0.402 -0.168,0.25 1.149,1.473 0.222,0.848 z"
       style="fill:#ffffff;fill-opacity:1;fill-rule:nonzero;stroke:none"
       transform="scale(1.3333333)" /><path
       id="path2"
       d="m 0.008,3.867 v 0.465 h 3.117 l 10.719,11.434 h 4.269 V 15.293 H 14.047 L 3.328,3.867 Z"
       style="fill:#000000;fill-opacity:1;fill-rule:nonzero;stroke:none"
       transform="scale(1.3333333)" /><path
       id="path3"
       d="M 18.113,17.906 H 12.469 L 2.434,6.703 H 0.008"
       style="fill:none;stroke:#000000;stroke-width:1.03465;stroke-linecap:butt;stroke-linejoin:miter;stroke-miterlimit:9.6;stroke-dasharray:none;stroke-opacity:1"
       transform="scale(1.3333333)" /><path
       id="path4"
       d="m 0.008,1.645 3.863,0.046 11.254,11.157 h 2.988"
       style="fill:none;stroke:#000000;stroke-width:1.03465;stroke-linecap:butt;stroke-linejoin:miter;stroke-miterlimit:9.6;stroke-dasharray:none;stroke-opacity:1"
       transform="scale(1.3333333)" /><path
       id="path5"
       d="M 0.008,0.352 V 2.234 H 3.773 L 8.316,7.074 9.48,5.898 4.586,0.352 Z m 12.879,9.171 -0.742,0.848 2.699,2.301 1.261,0.363 z"
       style="fill:#000000;fill-opacity:1;fill-rule:nonzero;stroke:none"
       transform="scale(1.3333333)"
       sodipodi:nodetypes="cccccccccccc" /><g
       opacity="0.994"
       id="g7"><path
         d="m 14.055,0.352 -1.582,1.882 h 5.64 V 0.352 Z"
         style="fill:#000000;fill-opacity:1;fill-rule:nonzero;stroke:none"
         transform="scale(1.3333333)"
         clip-path="url(#clipPath6)"
         id="path7" /></g><path
       id="path8"
       d="m 10.43,5.152 -6.371,6.45 3.699,2.714 5.765,-5.296 z"
       style="fill:#ffffff;fill-opacity:1;fill-rule:nonzero;stroke:none"
       transform="scale(1.3333333)" /><path
       id="path9"
       d="M 0.008,12.848 H 2.543 L 13.734,1.672 M 0.008,17.906 H 4.359 L 15.82,6.703 h 2.293"
       style="fill:none;stroke:#000000;stroke-width:1.03464;stroke-linecap:butt;stroke-linejoin:miter;stroke-miterlimit:9.6;stroke-dasharray:none;stroke-opacity:1"
       transform="scale(1.3333333)" /><path
       id="path10"
       d="M 14.922,3.867 3.246,15.293 H 0.008 v 0.473 h 3.43 L 15.109,4.332 h 3.004 c 0,0.004 0,-0.465 0,-0.465 z"
       style="fill:#000000;fill-opacity:1;fill-rule:nonzero;stroke:none"
       transform="scale(1.3333333)" /></g></svg>
