<?xml version="1.0" encoding="UTF-8" standalone="no"?>
<!-- Created with Inkscape (http://www.inkscape.org/) -->

<svg
   width="75.799698mm"
   height="32.803585mm"
   viewBox="0 0 75.799698 32.803585"
   version="1.1"
   id="svg1"
   xml:space="preserve"
   xmlns="http://www.w3.org/2000/svg"
   xmlns:svg="http://www.w3.org/2000/svg"><defs
     id="defs1" /><g
     id="layer1"
     transform="translate(-70.482601,-69.642076)"><path
       style="fill:#000000"
       d="m 121.75938,102.43074 c -1.23234,0.0612 -2.45619,-0.0736 -3.67139,-0.26366 -4.46316,-0.53036 -8.77979,-1.88732 -12.98621,-3.425205 -1.66378,-0.628472 -3.30544,-1.317894 -4.94545,-2.003279 -1.521106,-0.855494 -3.004385,-1.791455 -4.303726,-2.965416 -2.740484,-2.440667 -5.218846,-5.164394 -8.002757,-7.557079 -0.247123,-0.181666 -0.494245,-0.363332 -0.741368,-0.544998 -3.977903,2.128068 -7.814066,4.50898 -11.683669,6.825372 -1.541062,0.922301 -3.063352,1.882068 -4.660396,2.705751 -0.817713,-0.0845 0.377324,-0.714842 0.647208,-0.905505 4.507297,-2.718408 8.99873,-5.465948 13.569253,-8.077229 1.777331,-1.011604 3.651878,-1.847164 5.404918,-2.899717 0.378197,-0.3576 1.960574,-0.31036 1.306593,-1.067063 0.293524,-0.118003 0.539664,0.467802 0.83979,0.175957 0.345379,-0.525174 0.979627,-0.422756 1.489823,-0.796239 0.485015,-0.109464 1.285115,-0.296664 1.391792,-0.880681 0.620984,0.323446 1.30731,-0.255468 1.870155,-0.518333 0.467452,-0.571071 1.260453,-0.376281 1.875082,-0.691581 0.372812,-0.111203 1.174252,-0.515001 0.385654,-0.51972 0.01475,-0.360851 -0.525875,-0.708109 -0.618591,-0.858404 0.539119,0.241048 0.866121,0.889665 1.549709,0.726182 0.59197,0.123434 1.79763,-0.506371 0.91264,-1.05452 -0.21683,-0.1269 -0.75698,-0.282135 -0.20994,-0.238748 0.64366,-0.169228 0.70555,0.746827 0.94496,0.891069 0.7679,-0.429602 1.70158,-0.425309 2.46273,-0.862222 0.30198,-0.231622 -0.5429,-0.886853 -0.28215,-0.799226 0.4815,0.254702 0.4935,1.077968 1.20584,0.682077 0.34733,-0.0609 0.69379,-0.126591 1.04066,-0.189999 -0.16525,-0.195748 -0.43498,-0.451438 -0.003,-0.304336 0.72019,0.282148 0.78971,-0.375685 0.34498,-0.709227 0.58716,0.02873 0.47166,0.807639 0.53536,0.954595 0.48042,-0.113738 0.97442,-0.148346 1.46702,-0.135425 0.10124,-0.654584 -0.68079,-0.866091 -1.07182,-1.122487 -2.75975,0.212559 -5.41479,1.073414 -8.08476,1.751544 -0.623528,0.101753 0.55421,-0.270867 0.77075,-0.342014 1.81515,-0.576924 3.65634,-1.075545 5.51842,-1.476376 -0.36519,-0.38281 -0.91678,-0.321885 -1.38696,-0.200998 -0.62547,-0.02004 -0.0176,0.752513 -0.62799,0.348432 -0.81031,-0.191619 -1.5948,0.124337 -2.34861,0.375879 -0.79784,0.06974 -1.51716,0.458368 -2.257019,0.690253 -0.678614,0.210364 -1.398345,0.409524 -1.957242,0.864301 -0.733064,0.07857 -1.408045,0.487081 -2.094847,0.755816 -5.475886,2.458668 -10.78573,5.264523 -16.184346,7.884194 2.726541,-1.643709 5.60817,-3.010384 8.430352,-4.478889 2.916901,-1.481609 5.846842,-2.938711 8.806912,-4.331493 0.678898,-0.250315 -0.286798,-0.592135 -0.582657,-0.783543 -0.213792,-0.217888 -0.45362,-0.08333 -0.690612,0.01285 -0.29489,0.108629 -0.58978,0.217259 -0.88467,0.325889 0.203868,0.20252 0.788723,0.487139 0.644176,0.723381 -0.411234,-0.06713 -0.74445,-0.721505 -1.165151,-0.460163 -0.70464,0.333327 -1.47729,0.567927 -2.086965,1.064116 -0.529446,0.203434 -1.215784,0.365283 -1.768551,0.676946 -0.675761,0.337675 -1.391273,0.627387 -1.992646,1.090745 -0.386063,0.330776 -1.167858,0.402007 -1.672772,0.734015 -2.397285,1.118403 -4.709673,2.405618 -7.016568,3.696728 -0.279711,0.0346 0.667356,-0.478702 0.877607,-0.61488 2.266319,-1.360275 4.622773,-2.558941 6.967164,-3.775779 0.422188,-0.327865 -0.736558,-0.93088 -1.102643,-1.044487 -1.478356,0.712474 -2.911841,1.513505 -4.363957,2.277336 0.130065,0.433959 -0.03577,0.841342 -0.417707,0.336032 -0.192405,-0.132208 -0.437305,0.199201 -0.651116,0.256035 -1.12533,0.650521 -2.292806,1.228094 -3.407631,1.894242 -0.342442,0.371684 -0.606182,0.418684 -0.777663,-0.0691 -0.487926,-0.473478 -1.02415,-0.894232 -1.533358,-1.344591 0.689157,0.423526 1.281292,0.978184 1.879772,1.517335 1.465025,-0.824796 2.931894,-1.646677 4.37781,-2.504742 -0.364552,-0.334142 -0.680675,-0.739528 -1.116703,-0.981722 -1.032013,0.485381 -1.955062,1.177451 -2.975911,1.684653 0.908612,-0.678113 1.880175,-1.267693 2.823119,-1.896903 -0.366719,-0.280011 -0.733437,-0.560021 -1.100156,-0.840032 -0.506613,0.27611 -0.974567,0.657457 -1.488912,0.885908 0.291558,-0.416716 1.817596,-0.888381 0.801194,-1.305742 -0.672181,0.0056 -0.858268,-0.597879 -1.498112,-0.824038 -0.238333,-0.07326 -1.301061,-0.769784 -0.538838,-0.469281 0.625128,0.280654 1.24429,0.610676 1.916625,0.758114 1.115304,-0.706323 2.235458,-1.414946 3.292563,-2.20559 -0.500877,-0.329286 -1.074182,-0.532265 -1.613703,-0.791662 -1.016703,0.54949 -2.014186,1.138027 -3.028679,1.687442 0.458634,-0.419666 1.246331,-0.807178 1.849923,-1.186617 1.25015,-0.77133 2.587863,-1.390529 3.841263,-2.153269 0.247099,-0.202214 -0.271758,-0.234889 0.241328,-0.250158 1.029776,-0.35085 2.045675,-0.79334 2.958766,-1.38689 0.40777,-0.26651 1.108167,-0.342552 1.583995,-0.652854 0.745107,-0.317005 1.481693,-0.658276 2.232747,-0.95411 0.619696,-0.290099 1.233655,-0.488241 1.913215,-0.645947 0.221456,-0.09948 0.734636,-0.277422 0.211159,-0.209322 -1.311331,0.01561 -2.63647,0.151585 -3.85662,0.665898 -3.216697,1.168394 -6.201974,2.872585 -9.191574,4.518158 -1.029236,0.554585 -2.018224,1.20832 -3.090907,1.668021 2.779405,-1.670035 5.61151,-3.270609 8.468435,-4.811622 1.430215,-0.7593 2.933626,-1.367033 4.449085,-1.93249 -2.468667,0.247734 -4.639479,1.55811 -6.970855,2.288673 0.125889,-0.23403 1.024917,-0.522973 1.358315,-0.861161 -2.121477,0.740921 -4.138612,1.756034 -6.153126,2.746272 -1.729808,0.844756 -3.38904,1.828098 -5.12229,2.663819 -0.660337,0.351272 -0.473163,-0.39361 0.03072,-0.450867 2.920096,-1.673102 5.927537,-3.198185 8.999145,-4.573509 3.077479,-1.320653 6.350171,-2.344336 9.727104,-2.376367 3.413763,-0.064 6.877328,0.04192 10.188793,0.953975 2.08337,0.551312 4.1331,1.235368 6.1461,2.001791 4.13201,1.755451 8.27765,3.664616 11.77174,6.53307 1.07963,0.842877 1.92033,1.925779 2.70638,3.035168 1.38208,1.857551 2.61167,3.928642 4.5523,5.267964 0.37718,0.267403 0.79681,0.463647 1.20114,0.684885 2.9995,-1.614527 5.92631,-3.362694 8.84328,-5.121232 3.38263,-2.041259 6.7043,-4.18092 10.04778,-6.28459 0.20642,-0.311121 1.20458,-0.509931 0.68453,0.05905 -1.64972,1.255564 -3.45248,2.29422 -5.18827,3.424698 -4.51246,2.85731 -9.08694,5.616928 -13.73787,8.243149 -0.60178,0.359807 -1.1362,0.760764 -1.80315,0.975284 -0.61806,0.148256 -0.9514,0.934281 -1.56858,0.861145 -0.63056,0.343856 -1.25332,0.705446 -1.93926,0.991274 -0.7195,0.155731 -1.1701,0.975361 -1.833,0.989155 -0.70171,0.179781 -1.40101,0.465967 -1.98263,0.900543 -0.10023,0.488572 0.58941,1.349141 1.12353,0.856519 1.63376,-0.701342 3.22529,-1.506533 4.88205,-2.148401 0.75506,-0.342747 1.50847,-0.759444 2.32886,-0.902839 -0.96298,0.639141 -2.0693,1.03987 -3.10317,1.555491 -0.65894,0.193139 -1.17979,0.733714 -1.79655,0.869491 -1.9461,0.816682 -3.84186,1.757498 -5.82435,2.489704 -1.22413,0.449659 -2.45057,0.941521 -3.73785,1.172721 -0.82316,0.136536 -1.57364,-0.453064 -1.97044,-1.125044 0.0325,-0.831041 0.85266,0.558167 1.21972,0.645979 0.21361,0.101233 0.39269,0.410533 0.64885,0.255326 0.36232,-0.134466 0.91781,-0.170334 1.11151,-0.438554 -0.67685,-0.10798 -0.83324,-0.909747 -1.20547,-1.230355 -1.30143,0.194444 -2.59207,0.468958 -3.90518,0.580047 0.31255,0.522708 0.70519,0.99607 1.21917,1.330964 0.3474,0.33473 0.16567,0.63996 -0.21067,0.349778 -0.60086,-0.225942 -1.18354,-0.78467 -1.2173,-1.450018 0.15395,-0.340549 -0.34728,-0.14387 -0.54166,-0.198794 -1.32518,-0.0071 -2.6629,-0.0065 -3.96147,-0.301579 -0.37533,0.211995 -0.76116,0.555278 -0.81887,0.985557 0.15305,0.288108 0.24463,0.640966 0.43362,0.891215 1.06645,0.403826 2.12542,0.852459 3.19651,1.228498 1.17542,-0.0054 2.33712,-0.203104 3.46442,-0.530995 3.12001,-0.773622 6.18585,-1.775642 9.11651,-3.102131 2.81263,-1.289626 5.69931,-2.426906 8.4065,-3.93603 1.87195,-0.963465 3.68982,-2.044633 5.61688,-2.893958 0.6063,-0.317972 1.21355,-0.721964 1.85105,-1.021932 0.4212,-0.184095 1.30353,-0.8163 1.43954,-0.735914 -2.36609,1.589497 -4.9391,2.835087 -7.43856,4.196226 -1.06722,0.567791 -2.14242,1.137354 -3.18846,1.734718 -0.95324,0.39503 -1.8729,0.866081 -2.80691,1.304066 0.70183,0.311811 1.40367,0.626212 2.13038,0.876478 0.83655,-0.352811 1.66302,-0.731583 2.51574,-1.044369 -0.51772,-0.35076 -1.06924,-0.658726 -1.54665,-1.063564 0.72806,0.160327 1.28062,1.05677 2.06893,0.828978 0.50432,-0.183123 0.969,-0.453935 1.4474,-0.693264 -0.41532,-0.326659 -0.85741,-0.623477 -1.23681,-0.992549 0.51507,0.248942 0.97407,0.61414 1.45867,0.923491 1.7979,-0.764104 3.57548,-1.588539 5.43434,-2.196103 0.0514,-0.539967 0.78944,-0.250831 1.20963,-0.609487 1.23663,-0.566437 2.44267,-1.196584 3.66242,-1.79802 -0.32814,-0.166055 -0.5925,-0.621861 -0.004,-0.269299 0.20934,0.250257 0.44729,0.02573 0.67735,-0.06789 0.26476,-0.156763 0.72597,-0.279147 0.2103,0.04023 -0.38505,0.190127 -0.5231,0.351332 -0.0597,0.485832 1.16804,0.630644 2.3883,1.178094 3.48764,1.925073 -0.53285,-0.07746 -1.19044,-0.493533 -1.75278,-0.741047 -0.8084,-0.408928 -1.61297,-0.82542 -2.41965,-1.237744 -1.3935,0.750619 -2.78152,1.518182 -4.20495,2.206358 0.13208,0.326386 0.64312,0.51397 0.9548,0.756125 0.19731,0.239706 0.45555,0.05994 0.69606,0.0022 0.66959,-0.195549 1.26022,-0.583719 1.91304,-0.817413 -0.54794,0.500188 -1.26231,0.79247 -1.92683,1.107249 0.12026,0.317168 0.62275,0.477311 0.92723,0.698775 0.21187,0.14784 0.4485,-0.151864 0.67093,-0.194814 0.41414,-0.183899 0.81837,-0.401408 1.2551,-0.524969 -0.38349,0.382969 -1.2351,0.543631 -1.42738,0.955039 0.39249,0.253969 0.82469,0.436522 1.24062,0.647533 0.69899,-0.337034 1.37581,-0.729155 2.10153,-1.003961 -0.55776,0.394806 -1.17958,0.690167 -1.7721,1.029713 0.17521,0.186501 0.35041,0.373001 0.52562,0.559501 -0.39021,0.02963 -0.76615,-0.09157 -1.12235,-0.239027 -1.40784,0.738281 -2.83375,1.443985 -4.21903,2.223822 0.27097,0.310706 0.76476,0.383115 1.14575,0.559233 0.23065,0.04861 0.44606,-0.20017 0.67077,-0.267531 1.94011,-0.972854 3.86587,-1.975892 5.82457,-2.910495 -1.8866,1.232967 -3.92184,2.217454 -5.89645,3.299173 0.0749,0.270285 0.73849,0.682906 0.01,0.520161 -0.34299,-0.01877 -0.70041,-0.264442 -1.0209,-0.04737 -0.82778,0.331254 -1.65555,0.662509 -2.48333,0.993764 0.14336,0.134171 0.49411,0.341594 0.514,0.432161 -0.78495,-0.02246 -1.60657,-0.06428 -2.3154,0.342233 -0.12575,0.16026 -1.18829,0.315715 -0.72704,0.458256 0.59131,0.180816 1.23549,0.24107 1.84525,0.263533 3.80078,-1.677396 7.60228,-3.358463 11.30155,-5.252579 0.25047,-0.128201 1.05657,-0.514928 0.42381,-0.144009 -3.52058,2.085583 -7.2463,3.788647 -10.94492,5.526938 -0.59957,0.396441 -1.32029,0.515247 -1.96541,0.845016 -1.27938,0.584421 -2.62037,1.013091 -3.9337,1.509791 0.24927,0.10603 1.32189,-0.18861 1.85902,-0.29077 4.49935,-1.01841 8.67818,-3.045351 12.80219,-5.05516 1.16344,-0.55199 2.30738,-1.158356 3.50771,-1.624217 0.0225,0.659653 -1.15839,0.801998 -1.63046,1.207765 -3.92535,1.985288 -7.90614,3.910772 -12.10249,5.258402 -2.26518,0.69533 -4.60387,1.1563 -6.97275,1.27625 -1.15245,0.0735 -2.30635,0.12851 -3.46088,0.15493 z m -1.39579,-0.55339 c 0.43335,-0.008 1.17342,-0.12921 1.42229,-0.33551 -1.04242,-0.22428 -2.12855,-0.44005 -3.17791,-0.12588 -0.33263,0.0813 -0.6629,0.17191 -0.99448,0.25737 0.91605,0.0844 1.82632,0.27296 2.7501,0.20402 z m 2.75009,0.046 c 0.38071,0.0836 0.81433,-0.13947 0.18596,-0.20756 -0.31503,-0.0892 -1.07945,0.23406 -0.35628,0.20458 l 0.0809,0.002 z m 2.53926,-0.47566 c 0.8234,-0.0504 1.59458,-0.37259 2.37581,-0.61203 -0.73269,-0.14058 -1.47812,-0.19151 -2.22348,-0.1822 0.11098,0.13443 0.62707,0.32643 0.22792,0.38835 -0.61471,0.13346 -1.26855,0.0126 -1.86628,0.2463 0.4937,0.0673 0.98805,0.13689 1.48603,0.15958 z m -9.50226,-0.11437 c 0.80953,-0.014 1.62796,-0.10898 2.40038,-0.35702 -0.71471,-0.24918 -1.48336,-0.31858 -2.22484,-0.4728 -0.87493,0.19174 -1.7679,0.27153 -2.66247,0.28042 -0.37348,0.13157 0.6813,0.27011 0.90919,0.35348 0.51935,0.10481 1.04759,0.18157 1.57774,0.19592 z m 6.80715,-0.1141 c 0.44847,0.0414 0.55716,-0.21187 0.0364,-0.23117 -0.70234,-0.0934 -1.42124,-0.27476 -2.12837,-0.18301 0.56671,0.24985 1.30486,0.27687 1.94385,0.39733 l 0.14816,0.0168 z m -3.33256,-0.58512 c 0.48127,0.0708 0.52582,-0.22756 0.0369,-0.25911 -0.49016,-0.0815 -1.60061,-0.35797 -1.75598,-0.0826 0.55539,0.18154 1.13729,0.29297 1.71912,0.34167 z m 4.89272,-0.0114 c 0.41457,0.0672 0.91048,-0.1908 0.24445,-0.28161 -0.50162,-0.0989 -1.012,-0.24971 -1.51411,-0.30405 -0.23565,0.0961 -1.22577,0.3206 -0.57205,0.39526 0.61065,0.0891 1.22548,0.15712 1.84171,0.1904 z m -12.53146,-0.10286 c 0.52066,-0.0667 -0.42382,-0.10678 0,0 z m 17.03693,-0.0307 c 0.4332,-0.0544 0.83469,-0.23114 1.22877,-0.40906 -0.72491,0.0297 -1.43135,-0.189308 -2.15117,-0.188941 -0.41497,-0.02165 -1.0737,0.465001 -0.27711,0.405231 0.42352,-0.0348 0.77529,0.27934 1.19951,0.19277 z m -15.69348,-0.13554 c 0.5029,-0.10825 1.39013,0.0706 1.65044,-0.17554 -0.79155,-0.276689 -1.62015,0.0436 -2.39902,0.23415 0.24953,-0.0195 0.49905,-0.0391 0.74858,-0.0586 z m -2.85503,-0.25257 c 0.94077,-0.163766 1.93095,-0.151611 2.85541,-0.298859 -0.34375,-0.324955 -0.86741,-0.381148 -1.30243,-0.555307 -1.10272,0.09844 -2.21586,0.142201 -3.31005,0.291526 0.41441,0.392324 1.17113,0.57563 1.75707,0.56264 z m 10.69424,0.0644 c 0.42587,0.0367 1.75535,-0.351825 0.6886,-0.52319 -0.38486,-0.08345 -0.77783,-0.224906 -1.16297,-0.262135 -0.34913,0.153846 -0.80131,0.19558 -1.06052,0.468196 0.49021,0.171069 1.01776,0.262299 1.53489,0.317129 z m -4.72595,-0.12898 c 0.19323,-0.004 1.18024,-0.156758 0.53163,-0.223573 -0.59951,-0.124247 -1.28832,-0.335326 -1.84703,-0.03361 0.41813,0.156019 0.87193,0.219462 1.3154,0.257183 z m 9.65459,-3.5e-4 c 0.40472,0.0433 1.70757,-0.355885 0.68221,-0.433277 -0.53143,-0.09242 -1.06977,-0.260519 -1.59841,-0.314608 -0.33824,0.131854 -0.67648,0.263707 -1.01472,0.395558 0.63426,0.163945 1.26938,0.355867 1.93092,0.352327 z m 4.64625,-0.347334 c 0.28088,0.04777 1.06864,-0.136176 1.03775,-0.281733 -0.56157,-0.105257 -1.12624,-0.269161 -1.68592,-0.338643 -0.29175,0.132335 -0.85595,0.173969 -0.91156,0.454145 0.49885,0.160096 1.04285,0.118259 1.55973,0.166231 z m -16.4073,-0.166977 c 0.44871,0.01603 0.78589,-0.267607 0.15271,-0.386816 -0.3511,-0.08338 -0.69889,-0.320664 -1.06005,-0.156297 -0.32168,0.07431 -0.64337,0.14861 -0.96506,0.222915 0.61292,0.160949 1.22945,0.369867 1.8724,0.320198 z m 4.28281,0.01342 c 0.46627,-0.03346 0.91071,-0.183966 1.33441,-0.373131 -0.48079,-0.124797 -0.96218,-0.31446 -1.4426,-0.399271 -0.56834,0.178237 -1.13667,0.356475 -1.705,0.534713 0.59553,0.134352 1.19738,0.280728 1.81319,0.237689 z m 4.66963,-0.07303 c 0.43428,-0.02089 0.82104,-0.235086 1.21114,-0.405122 -0.57925,-0.14213 -1.1585,-0.284261 -1.73775,-0.426394 -0.39009,0.156971 -0.78017,0.313943 -1.17026,0.470915 0.56674,0.113906 1.11794,0.321136 1.69687,0.360601 z m 4.6225,-0.117828 c 0.34625,-0.04749 1.41317,-0.244478 1.2063,-0.524751 -0.49774,-0.150427 -1.01973,-0.325071 -1.52716,-0.399283 -0.43804,0.184569 -0.94339,0.274879 -1.31156,0.574829 0.51734,0.201478 1.08555,0.268492 1.63242,0.349205 z m -19.57458,-0.29867 c 1.56424,-0.107365 3.14504,-0.130872 4.68864,-0.425275 -0.49473,-0.208555 -0.30176,-0.681467 0.21701,-0.367108 0.59564,0.31511 1.2278,0.04862 1.82086,-0.124413 0.16254,-0.08846 0.67988,-0.119132 0.60156,-0.246819 -0.13316,-0.124506 -0.93889,-0.591709 -0.58654,-0.471338 0.45058,0.129895 0.92441,0.253754 1.38582,0.297505 0.52094,-0.18826 1.08694,-0.292213 1.55859,-0.58739 -0.2937,-0.317095 -1.13674,-0.503533 -1.21399,-0.734863 0.60842,0.153907 1.19119,0.391362 1.78445,0.593545 0.82448,-0.335879 1.68113,-0.605898 2.46972,-1.020305 -0.5641,-0.385369 -1.20764,-0.638636 -1.81468,-0.950305 -0.98265,0.420743 -1.95961,0.869104 -2.93134,1.301153 -2.882,1.029419 -5.81174,1.940074 -8.80688,2.579022 -0.92426,0.245784 0.72141,0.156652 0.82678,0.156591 z m 7.56033,0.06748 c 0.49352,-0.175356 1.45855,-0.252244 1.64662,-0.62386 -0.37268,-0.139151 -0.77855,-0.258536 -1.16836,-0.304775 -0.53148,0.178749 -1.0972,0.286871 -1.59406,0.546412 0.35596,0.166806 0.74358,0.258369 1.1158,0.382223 z m 4.93422,-0.239483 c 0.47583,-0.03365 0.90745,-0.252157 1.34513,-0.422686 -0.53602,-0.160808 -1.07203,-0.321617 -1.60805,-0.482427 -0.40632,0.173159 -0.8665,0.266661 -1.21788,0.533554 0.46823,0.197254 0.97464,0.323266 1.4808,0.371559 z m 4.32994,-0.109303 c 0.53991,-0.08612 1.44591,-0.266232 1.70016,-0.610068 -0.75824,-0.304248 -1.62097,-0.628375 -2.39407,-0.18066 -0.31254,0.107173 -1.25916,0.456018 -0.44679,0.543121 0.37398,0.107138 0.75154,0.214555 1.1407,0.247607 z m 4.85649,-0.235235 c 0.71747,-0.155907 1.41489,-0.449336 2.04647,-0.819441 -0.42137,-0.244376 -0.91544,-0.330701 -1.37541,-0.486145 -0.71417,0.303236 -1.48673,0.503696 -2.13909,0.92684 0.45796,0.174958 0.97232,0.310358 1.46803,0.378746 z m -11.56661,-0.235771 c 0.50462,-0.09189 0.97157,-0.319284 1.45222,-0.491554 -0.41878,-0.128509 -0.83781,-0.332449 -1.25644,-0.41478 -0.49912,0.179528 -0.99825,0.359058 -1.49737,0.53859 0.43242,0.127013 0.85938,0.277988 1.30159,0.367744 z m 4.33912,-0.118799 c 0.59804,-0.126048 1.15093,-0.4019 1.72062,-0.616781 -0.48289,-0.183272 -0.94885,-0.531698 -1.474,-0.508938 -0.5343,0.20425 -1.34544,0.408014 -1.67063,0.767764 0.50085,0.02271 0.94442,0.24208 1.42401,0.357955 z m 5.06258,-0.296533 c 0.80127,-0.288082 1.60303,-0.575076 2.39902,-0.877536 -0.6,-0.232098 -1.19999,-0.464195 -1.79999,-0.696291 -0.78723,0.347101 -1.61908,0.613466 -2.35441,1.062202 0.5185,0.291131 1.16035,0.481529 1.75538,0.511625 z m -7.40883,-0.281781 c 0.73819,-0.252454 1.49318,-0.481597 2.18688,-0.843915 -0.35769,-0.181785 -0.71538,-0.363569 -1.07307,-0.54535 -0.80729,0.326321 -1.61459,0.652643 -2.42188,0.978965 0.43603,0.136751 0.87211,0.273331 1.30807,0.4103 z m 12.36847,-0.235052 c 1.03436,-0.272811 2.03542,-0.693868 2.99583,-1.162102 -0.32813,-0.234274 -0.72793,-0.344534 -1.09428,-0.509197 -1.06825,0.424875 -2.15647,0.802045 -3.20887,1.264835 0.38129,0.237018 0.86529,0.327613 1.30732,0.406464 z m -7.5342,-0.233407 c 0.8299,-0.146208 1.58536,-0.548171 2.3648,-0.85393 -0.41769,-0.21228 -0.83537,-0.42456 -1.25306,-0.63684 -0.77441,0.351718 -1.60851,0.613449 -2.33082,1.050209 0.30265,0.298746 0.81076,0.371284 1.21908,0.440561 z m 5.67573,-0.431248 c 1.05351,-0.360465 2.11757,-0.71073 3.12799,-1.179611 -0.45019,-0.421253 -1.12889,-0.648791 -1.73752,-0.79045 -0.52755,0.07659 -0.99986,0.369561 -1.49344,0.567031 0.19144,0.137769 1.01264,0.410842 0.62088,0.528315 -0.71378,-0.407046 -1.46615,-0.322334 -2.15066,0.13167 -0.41121,0.294979 0.66193,0.457719 0.93396,0.612047 0.22724,0.06333 0.45907,0.147064 0.69879,0.130998 z m -29.17764,-0.155843 c 0.25613,-0.386412 0.35771,-0.928133 0.83047,-1.146344 -0.41662,-0.163473 -1.01491,-0.518805 -1.40442,-0.05205 -0.49695,0.287362 -0.84558,0.80897 -0.0606,0.949734 0.20973,0.08675 0.41724,0.182161 0.63456,0.248663 z m 12.76443,-0.585094 c 0.44307,-0.258811 1.90984,-0.340215 1.1029,-1.03705 -0.29108,-0.724013 -0.9111,-0.659238 -1.51952,-0.360296 -0.63348,0.24889 -1.35771,0.271824 -1.95273,0.590398 0.0926,0.606971 0.658,0.922804 1.11174,1.251296 0.4192,-0.148116 0.83841,-0.296232 1.25761,-0.444348 z m 8.73187,0.468861 c 0.95551,-0.195056 1.83952,-0.634682 2.74911,-0.976226 -0.48783,-0.188231 -0.96198,-0.560862 -1.49745,-0.503635 -0.84773,0.282873 -1.67037,0.645763 -2.46238,1.05899 0.39279,0.167808 0.77934,0.375638 1.21072,0.420871 z m -1.7371,-0.649552 c 0.86337,-0.336917 1.71334,-0.715643 2.53732,-1.140028 -0.53627,-0.419275 -1.20288,-0.6988 -1.85598,-0.893323 -0.94086,0.276306 -1.8221,0.732889 -2.69977,1.165627 0.49422,0.39614 1.15131,0.606197 1.75423,0.819432 l 0.11923,0.03163 z m 6.9756,0.06192 c 0.57543,-0.07909 1.0881,-0.374463 1.61826,-0.594472 -0.45647,-0.232599 -0.92061,-0.73246 -1.46265,-0.469882 -0.46565,0.193319 -1.21879,0.33098 -1.47145,0.656842 0.41036,0.205395 0.86249,0.340246 1.31584,0.407512 z m -28.38783,-0.107808 c 0.36013,-0.257503 0.64356,-0.606279 0.95931,-0.914881 -0.32989,-0.168297 -0.65979,-0.336595 -0.98968,-0.504892 -0.249917,0.296808 -0.926479,0.643633 -0.590215,1.048921 0.193347,0.141969 0.398437,0.278984 0.620585,0.370852 z m 6.13833,-0.47927 c -0.003,-0.293408 -1.15692,-0.395862 -0.93545,-0.274601 0.30945,0.0985 0.61523,0.216198 0.93545,0.274601 z m 10.04655,0.01314 c 0.73975,-0.239069 1.44675,-0.570738 2.15859,-0.881549 -0.41057,-0.267719 -0.52355,-0.993552 -0.9403,-1.089413 -0.5539,0.57489 -1.43528,0.402988 -2.0388,0.899119 -0.005,0.401677 0.49841,0.83441 0.82051,1.071843 z m -9.16886,-0.117025 c 0.38238,-0.129162 -0.41895,-0.312109 0,0 z m 19.34221,-0.01137 c 0.73834,-0.122541 1.48744,-0.368068 2.11397,-0.779634 -0.32497,-0.290777 -0.76979,-0.479944 -1.15229,-0.716367 -0.75249,0.319724 -1.52214,0.603236 -2.25277,0.971043 0.0547,0.316455 0.9724,0.462138 1.29109,0.524958 z m 8.20055,0.0018 c 1.50158,-0.534752 2.92205,-1.283259 4.34793,-1.993395 0.3667,-0.293326 -0.7404,-0.551695 -0.99818,-0.750513 -0.63712,-0.04709 -1.25305,0.439117 -1.87529,0.614859 -1.02908,0.430714 -2.06903,0.840231 -3.07576,1.321142 0.37645,0.415595 1.06254,0.639114 1.6013,0.807907 z m -25.72887,-0.11408 c 0.25646,-6e-5 0.665,0.02857 0.19897,-0.107787 -0.5226,-0.201 -1.03707,-0.427193 -1.57402,-0.587379 -0.16207,0.479767 0.98166,0.653472 1.37505,0.695166 z m 21.49299,-0.0031 c 0.48479,-0.111196 1.21188,-0.261825 1.46685,-0.611982 -0.26159,-0.201776 -0.55985,-0.456848 -0.85872,-0.561082 -0.53997,0.200091 -1.12885,0.320031 -1.59367,0.675304 0.31699,0.185791 0.61836,0.422747 0.98554,0.49776 z M 98.830932,94.907916 c 0.291145,-0.236606 0.495569,-0.56138 0.73702,-0.846481 -0.150318,-0.129264 -0.489588,-0.378696 -0.524338,-0.434463 0.248994,0.257492 1.241696,0.299472 0.577238,-0.08653 -0.568319,-0.157499 -1.186971,0.310655 -1.382756,0.837738 0.0028,0.198745 0.453416,0.399966 0.592836,0.529741 z m 3.325468,-0.0053 c 0.52068,-0.06631 -0.42367,-0.107374 0,0 z m 4.42746,0.0074 c 0.3895,-0.276588 -0.79209,-0.315922 -0.26328,-0.115225 0.0815,0.05062 0.16739,0.09815 0.26328,0.115225 z m -1.55945,-0.119442 c 0.16649,-0.270038 -1.12506,-0.907369 -0.40026,-0.229671 0.11518,0.09977 0.24295,0.210374 0.40026,0.229671 z m -3.64818,-0.120234 c 0.16778,-0.499971 -1.549632,-0.805021 -0.84443,-0.338957 0.28346,0.10797 0.56184,0.229262 0.84443,0.338957 z m 4.56399,-0.11221 c 0.53934,-0.229693 -1.21873,-0.87808 -0.4371,-0.226045 0.13302,0.09313 0.27297,0.197965 0.4371,0.226045 z m 2.89637,-0.235033 c 0.0213,-0.245705 -0.72217,-0.274527 -0.13423,-0.03332 z m 1.75538,-0.01719 c -0.12085,-0.233712 -1.44954,-0.63812 -0.72629,-0.173546 0.23602,0.07838 0.48035,0.137004 0.72629,0.173546 z m 18.43149,-0.108875 c 0.51476,-0.121617 1.21966,-0.271105 1.54892,-0.629377 -0.49271,-0.524562 -1.25405,-1.031644 -1.91498,-0.462844 -0.30601,0.148138 -0.61013,0.300157 -0.91531,0.450014 0.41979,0.226226 0.81914,0.510161 1.28137,0.642207 z m 3.62779,-0.03443 c 1.68298,-0.646773 3.3241,-1.402629 5.0306,-1.98808 -0.35824,-0.233028 -0.71648,-0.466059 -1.07471,-0.699093 -1.69762,0.70171 -3.35965,1.489252 -5.06763,2.165192 0.35591,0.19743 0.69042,0.49859 1.11174,0.521981 z m -35.714146,-0.07347 c -0.285798,-0.297602 -0.629948,-1.101625 -1.033618,-0.961966 0.273741,0.381309 0.668413,0.671526 1.033618,0.961966 z m 5.118926,0.0035 c 0.43611,-0.250392 -0.56414,-0.216074 0,0 z m -4.401718,-0.117026 c 0.371394,-0.304705 0.6508,-0.749249 1.108584,-0.968217 0.21902,-0.259633 -0.858079,0.117035 -1.002766,0.343085 -0.314449,0.127871 -0.501588,0.43165 -0.105818,0.625132 z m 7.174168,-0.0018 c 0.47276,-0.568497 -0.88019,-0.204727 -0.10785,-0.03033 l 0.10783,0.03033 z m 1.79116,0.0018 c 0.0671,-0.194617 -0.61365,-0.513832 -0.6783,-0.578536 0.22218,0.197006 0.42555,0.419656 0.6783,0.578536 z m 1.39089,-0.0037 c 0.0605,-0.28285 -0.86571,-0.471674 -0.2531,-0.101675 l 0.0988,0.05383 z m 4.6133,-0.250021 c 0.0404,-0.536883 -1.21009,-0.462752 -0.36422,-0.05201 0.0958,0.02958 0.27328,0.166348 0.36422,0.05201 z m 0.60121,0.136717 c 0.76793,-0.120426 -0.79907,-0.24633 0,0 z m -4.33607,-0.117025 c 0.35484,-0.285299 -0.68298,-0.685984 -0.94495,-0.880577 -0.67525,-0.305533 -0.31591,0.442488 0.11727,0.489954 0.2703,0.139672 0.53808,0.294301 0.82768,0.390623 z m -6.45951,-0.118817 c 0.0489,-0.387499 -0.68075,-0.223402 -0.0722,-0.03458 l 0.0722,0.03459 z m -5.330952,-0.232259 c 0.152073,-0.489911 1.546406,-0.784259 0.668455,-1.270454 -0.198602,-0.190842 -0.400693,-0.356081 -0.653716,-0.147574 -0.260153,0.158387 -0.85269,0.384304 -0.857853,0.645014 0.272369,0.264534 0.512083,0.581277 0.843114,0.773014 z m 3.429292,-0.0036 c 0.95557,-0.181409 -0.385,-0.539272 -0.27447,-0.09976 l 0.14555,0.07046 0.12888,0.0293 z m 3.36447,-1.38e-4 c 0.51603,-0.506306 -0.88811,-0.487997 -0.3066,-0.169802 0.0941,0.06929 0.19167,0.139235 0.3066,0.169802 z m 2.72775,0.0037 c 0.25094,-0.546137 -0.40529,-0.231361 0,0 z m 7.28483,-0.0037 c 0.55443,0.105925 -0.63372,-0.618872 -0.22949,-0.0729 0.0659,0.04841 0.14799,0.07323 0.22949,0.0729 z m 17.26881,-0.0088 c 1.50493,-0.441931 2.92288,-1.142098 4.36682,-1.749938 0.25533,-0.115489 0.51065,-0.230978 0.76597,-0.346467 -0.4029,-0.320794 -0.8058,-0.641588 -1.2087,-0.962382 -1.74376,0.755631 -3.5223,1.438359 -5.22471,2.283453 -0.027,0.282474 0.9541,0.666067 1.30062,0.775334 z m -20.70983,-0.104942 c 0.0936,-0.4429 -1.2666,-0.940369 -0.56814,-0.285538 0.1787,0.111783 0.36267,0.231471 0.56814,0.285538 z m 5.09847,-0.0042 c -0.0281,-0.369191 -1.01835,-0.602161 -0.40634,-0.194838 0.13304,0.06963 0.26444,0.144025 0.40634,0.194838 z m -10.69024,-0.11234 c 0.0899,-0.150239 -0.62477,-0.615868 -0.20478,-0.204791 0.0621,0.07365 0.11982,0.154906 0.20478,0.204791 z m -9.103536,-0.241948 c 0.02781,-0.343845 -0.907487,-1.2338 -0.587869,-0.420436 0.144246,0.163467 0.351481,0.455413 0.587869,0.420436 z m 15.256716,0.124923 c 0.14327,-0.47851 -0.83303,-0.939049 -1.27511,-1.027444 0.13249,0.418899 0.8779,0.780705 1.27511,1.027444 z m -4.91639,-0.117463 c 0.29928,-0.287266 -0.45677,-0.593323 -0.69221,-0.831496 -0.40473,-0.255524 0.0473,0.718556 0.38507,0.689241 0.10094,0.04848 0.19605,0.117152 0.30714,0.142255 z m -6.536658,-0.184878 c 0.845928,-0.207806 -0.412813,-0.418129 -0.274855,0.0048 0.08825,0.03385 0.186609,0.02017 0.274855,-0.0048 z m 15.127858,0.0366 c 0.13145,-0.431653 -0.21263,-0.181228 0,0 z m 1.78182,-0.270132 c 0.198,-0.594681 -0.88763,-1.013076 -0.9941,-0.475058 0.28355,0.303516 0.63248,0.533489 0.95547,0.791615 0.0129,-0.105519 0.0258,-0.211038 0.0386,-0.316557 z m 0.48798,0.184801 c 0.38241,-0.129137 -0.41894,-0.312131 0,0 z m -16.208,-0.244068 c 0.45484,-0.04309 0.79132,-0.305235 0.14259,-0.318462 -0.4476,0.04219 -0.90119,0.10786 -0.14259,0.318462 z m 5.93903,0.0091 c 0.20246,-0.587123 -0.81692,-1.326877 -1.33756,-1.305179 -0.0398,0.536667 0.93357,0.97747 1.33756,1.305179 z m 10.92843,-0.0028 c 0.14858,-0.148956 1.05021,-0.219856 0.57274,-0.465765 -0.33103,-0.390553 -0.83685,-0.158017 -1.2322,-0.1381 0.12094,0.276596 0.43146,0.425164 0.65946,0.603865 z M 96.249471,92.05947 c 0.100427,-0.294547 0.98691,-0.414843 0.704556,-0.658758 -0.190499,-0.160294 -0.380997,-0.320588 -0.571496,-0.480882 -0.401603,0.181001 -0.75036,0.452984 -1.064834,0.758397 0.210769,0.219995 0.421538,0.43999 0.632307,0.659986 0.09982,-0.09291 0.199645,-0.185829 0.299467,-0.278743 z m 2.455581,0.158969 c 0.924606,0.103272 0.146337,-0.777561 -0.306465,-0.663665 -0.05743,0.394549 -0.850436,-0.185848 -0.366019,0.263812 0.172873,0.200076 0.396077,0.38641 0.672484,0.399853 z m 12.399208,-0.0619 c 0.0133,-0.46472 -0.94726,-0.489426 -0.22182,-0.09277 0.0701,0.02566 0.13743,0.110233 0.22182,0.09277 z m 2.61447,0.0619 c 0.43694,-0.04832 0.6211,-0.303427 0.18218,-0.50088 -0.15604,-0.08355 -0.44406,-0.515933 -0.41571,-0.112152 -0.0304,0.207989 -0.0527,0.578517 0.23353,0.613032 z M 94.750685,92.035027 c 0.430129,-0.491586 -0.889138,-1.116935 -0.366797,-0.246047 0.07983,0.108266 0.211812,0.279017 0.366797,0.246047 z m 7.591005,0.0097 c 0.40573,-0.521628 -0.42624,-0.164315 0,0 z m 5.99755,0.05124 c 0.0966,-0.209078 -0.49735,-0.574332 -0.70564,-0.837022 -0.38623,-0.319348 0.066,0.684141 0.39357,0.673701 0.10147,0.05578 0.20043,0.131262 0.31207,0.163321 z m -8.425828,-0.232916 c 0.127298,-0.206459 0.208398,-0.733722 -0.201562,-0.578988 -0.856707,-0.04864 -0.122543,0.457864 0.201562,0.578988 z m 0.373428,-0.110887 c 0.4044,-0.213044 -0.24691,-0.565702 0,0 z m 2.89491,-0.07142 c 0.10195,-0.486117 -0.69065,-0.516149 -0.18907,-0.04078 0.0517,0.03674 0.12536,0.07491 0.18907,0.04078 z m 16.19403,0.07142 c 0.58559,-0.197967 -0.55114,-0.443674 -0.13809,-0.03073 l 0.13812,0.03077 z m -10.38477,-0.229197 c -0.25325,-0.447338 -0.87225,-1.196108 -1.36075,-1.085213 0.2928,0.441613 0.8549,0.972667 1.36075,1.085213 z m 6.32375,0.11038 c 0.66482,-0.02711 -0.16116,-0.778686 -0.21731,-0.658483 0.002,0.222967 0.0133,0.524982 0.21731,0.658483 z m -5.16748,-0.115233 c 0.50342,-0.164439 -0.77604,-1.007097 -0.3471,-0.206967 0.0776,0.115104 0.20925,0.191246 0.3471,0.206967 z M 94.058899,91.158613 c 0.283196,-0.587828 -0.712877,-0.725922 -0.371692,-0.07126 0.183539,0.171621 0.275052,0.541356 0.371692,0.07126 z m 1.001919,0.24244 c 0.343963,-0.227922 0.630751,-0.530858 0.941783,-0.80075 -0.31636,-0.452151 -0.807334,-0.366844 -1.133097,0.04849 -0.251031,0.152986 -0.385548,0.314136 -0.08707,0.505619 0.08587,0.08909 0.167215,0.187036 0.278379,0.246643 z m 2.610604,-0.08593 c 0.636531,-0.165591 -0.129408,-0.61091 -0.362248,-0.835526 -0.20167,0.06973 -0.409373,0.183544 -0.613319,0.269909 0.29958,0.220959 0.56934,0.585206 0.975567,0.565617 z m 3.617038,0.08593 c 0.81522,-0.100773 -0.38309,-0.598266 -0.24397,-0.06643 0.0723,0.04622 0.15909,0.06512 0.24397,0.06643 z m 2.59691,-0.0031 c 0.7276,-0.383146 -1.23851,-1.23204 -0.67492,-0.514713 0.20593,0.191151 0.42169,0.389521 0.67492,0.514713 z m 16.23697,-0.02338 c 0.71047,-0.50142 -0.5507,-0.913592 -0.57165,-0.39456 0.15708,0.167491 0.31649,0.399075 0.57165,0.39456 z m -13.963,-0.0905 c 0.0899,-0.150242 -0.62476,-0.615867 -0.20477,-0.20479 0.062,0.07365 0.11984,0.154917 0.20477,0.20479 z m 6.48748,0 c 0.41511,-0.324933 -0.60178,-0.224495 0,0 z m 3.66865,0 c -0.0604,-0.290529 -0.63029,-0.600133 -0.91573,-0.89225 -0.35867,-0.321672 -0.13983,-0.09524 0.0692,0.121906 0.26705,0.269851 0.51298,0.583695 0.8465,0.770344 z m -13.90308,-0.14872 c 0.13151,-0.43162 -0.21267,-0.181247 0,0 z m 4.53807,-0.194348 c 0.41867,-0.499962 -0.75641,-0.347601 -0.41906,-0.09826 0.19097,0.147426 0.31146,0.559523 0.41906,0.09826 z m -8.210798,0.03459 c 0.130324,-0.333745 -0.703669,-0.31709 -0.124599,-4.39e-4 l 0.06805,0.01459 0.05656,-0.01415 z m 6.140228,-0.07185 c 0.0941,-0.390479 -0.11311,-0.622922 -0.0493,-0.06192 -0.0337,-0.0033 0.0427,0.201779 0.0493,0.06192 z m -5.469688,-0.09424 c 0.138276,-0.186254 -0.521306,-0.495274 -0.713032,-0.730035 0.1004,0.138007 0.422317,0.6469 0.713032,0.730035 z m 6.164008,0.0065 c 0.0899,-0.150238 -0.62477,-0.615868 -0.20478,-0.204791 0.0621,0.07365 0.11982,0.154908 0.20478,0.204791 z m 5.46045,0 c -0.23286,-0.482329 -0.80239,-1.230821 -1.26478,-1.236492 0.374,0.451613 0.78364,0.899209 1.26478,1.236492 z m 1.1079,-0.0018 c 0.36903,-0.07128 0.54934,-0.277028 0.17554,-0.488463 -0.22834,-0.303875 -0.31666,-0.269153 -0.26331,0.108128 0.0178,0.113287 -0.017,0.298949 0.0878,0.380335 z M 94.746528,90.250094 c 0.47779,-0.156877 0.368774,-1.00188 -0.08876,-0.55077 -0.276389,0.216994 -0.529286,0.518406 -0.726678,0.694386 0.215322,0.395111 0.611774,0.07651 0.815442,-0.143616 z m 5.898292,0.448807 c 0.71323,0.170581 -0.3965,-0.723681 -0.29256,-0.308144 -0.0323,0.189013 0.0863,0.343297 0.29256,0.308144 z m 8.34816,-0.250966 c 0.27219,-0.617215 -1.00972,-0.584443 -0.70161,-0.273624 0.22075,0.173573 0.4415,0.347142 0.66225,0.520711 0.0131,-0.08236 0.0262,-0.164725 0.0394,-0.247087 z m 5.37742,0.150119 c -0.21058,-0.865669 -0.18587,0.528258 0,0 z m 7.02841,0.100847 c -0.0883,-0.411986 -0.76628,-0.499953 -0.18885,-0.101528 l 0.0838,0.05277 z M 93.345613,90.207249 c 0.189042,-0.240337 0.262619,-0.52753 -0.103731,-0.634483 -0.578038,-0.02762 -0.408066,1.047854 -0.06022,0.947298 0.05465,-0.104272 0.109298,-0.208543 0.163947,-0.312815 z m 10.824297,0.374627 c 0.12833,-0.364157 0.0514,-0.860352 -0.24323,-0.317202 0.007,0.137871 0.13498,0.247789 0.24323,0.317202 z m 1.99674,-0.0044 c 0.21019,-0.120819 0.92779,-0.158639 0.45826,-0.445962 -0.31945,-0.358671 -0.70119,-0.814083 -1.1997,-0.434644 -0.42444,0.05786 0.075,0.276433 0.19768,0.429462 0.17994,0.151832 0.35618,0.30875 0.54376,0.451144 z m -9.490541,-0.255573 c 0.528431,-0.08919 0.0731,-0.346076 -0.208051,-0.442185 -0.140255,0.186825 -0.202502,0.800125 0.168658,0.460134 l 0.03762,-0.01714 z m 4.921741,0.142942 c 0.43961,-0.402451 -0.6586,-1.276515 -1.11161,-0.949161 -0.0237,0.403083 0.7693,0.776106 1.11161,0.949161 z m -1.56741,-0.119628 c 0.46922,-0.459949 -1.104472,-0.815428 -0.378558,-0.226046 0.118565,0.08668 0.23708,0.178915 0.378558,0.226046 z m 21.90876,0.0026 c 0.321,-0.07305 0.75153,-0.319983 0.28907,-0.533601 -0.16008,-0.289573 -0.39836,-0.07538 -0.61737,0.01464 -0.47474,0.05416 0.21659,0.473108 0.3283,0.518961 z M 96.114452,90.129953 c -0.210645,-0.865673 -0.185897,0.528248 0,0 z m 17.569118,-0.01618 c 0.58645,0.02417 0.48644,-0.354791 0.0488,-0.524164 -0.1921,0.02385 -0.21651,0.458264 -0.0488,0.524164 z m 3.94943,0 c 0.46702,-0.009 -0.46498,-0.920388 -0.31207,-0.414717 -0.0134,0.199558 0.0616,0.441323 0.31207,0.414717 z m -14.00403,-0.191475 c 0.40621,-0.06767 0.8129,-0.312047 0.26775,-0.603181 -0.31043,-0.465706 -1.28618,-0.848425 -1.07054,0.08727 0.0789,0.327782 0.48301,0.551373 0.80279,0.515908 z m 7.4396,0.07445 c -0.0205,-0.237894 0.25974,-0.936101 -0.19802,-0.819177 -0.74881,-0.07192 0.0146,0.62857 0.19802,0.819177 z M 92.592106,89.51579 c 0.374699,-0.606633 -0.464743,-0.919702 -0.538395,-0.209122 -0.09392,0.227486 0.277906,0.382667 0.382746,0.579295 0.05188,-0.123391 0.103766,-0.246782 0.155649,-0.370173 z m 4.673312,0.363934 c 0.08985,-0.150275 -0.624779,-0.615851 -0.204798,-0.204791 0.06208,0.07364 0.119815,0.154892 0.204798,0.204791 z m 9.736342,-0.05708 c 0.0313,-0.33658 -0.72738,-0.693236 -0.27162,-0.176973 0.0756,0.06002 0.15862,0.195454 0.27162,0.176973 z m 1.1955,-0.02716 c 0.52615,-0.175523 -0.2932,-0.561912 -0.48089,-0.785291 -0.23414,-0.226335 0.0311,0.773377 0.28774,0.788301 l 0.0956,0.0097 0.0975,-0.01274 z m 8.52099,0.02378 c -0.10023,-0.617048 -0.45673,-0.02516 0,0 z m 1.60596,-0.05656 c 0.73876,0.112715 0.66228,-1.283209 -0.0964,-0.695996 -0.73511,0.05067 -0.31847,0.546078 0.0964,0.695996 z m 4.52617,-0.0037 c 0.46789,-0.506888 -0.91007,-0.531076 -0.21034,-0.101657 l 0.0862,0.05186 0.12421,0.0498 z M 95.47336,89.643881 c 0.543224,-0.05211 0.523584,-0.392366 -0.01515,-0.325271 -0.272972,0.02008 -0.278703,0.306358 0.01515,0.325271 z m 2.633602,0.0018 c -0.02348,-0.349933 -0.711241,-0.429771 -0.185443,-0.105103 l 0.08307,0.05463 0.102378,0.05047 z m 0.95609,-0.193109 c -0.0824,-0.3999 -0.930693,-0.483149 -0.233235,-0.08135 0.07112,0.02571 0.147776,0.110763 0.233235,0.08135 z m 5.864518,0.07608 c 0.3367,-0.560131 -0.0203,-1.622907 -0.80163,-1.130048 -0.3018,0.05998 -0.53872,0.134637 -0.16976,0.346262 0.31368,0.271674 0.60235,0.588603 0.97139,0.783786 z M 94.069506,89.304794 c 0.288943,-0.478805 -0.838739,-0.398986 -0.181961,0.01644 0.05512,0.03398 0.135833,0.03416 0.181961,-0.01644 z m 11.246754,0.106829 c 0.88486,0.06379 -0.26223,-1.080201 0,0 z m 7.40406,0 c -0.0478,-0.238027 0.20262,-0.883555 -0.0874,-0.935113 -0.31935,-0.02169 -0.86179,0.204561 -0.40376,0.460684 0.15894,0.162849 0.31005,0.335341 0.49117,0.474429 z m 8.39804,0 c 0.53797,0.08713 0.28907,-0.647279 0.0221,-0.175533 l -0.0343,0.123975 0.0122,0.05156 z m -12.12538,-0.355167 c 0.27266,-0.598702 -0.93447,-0.584574 -0.44896,-0.178144 0.13326,0.07464 0.40186,0.585598 0.42817,0.315441 0.007,-0.04577 0.0139,-0.09153 0.0208,-0.137297 z m 0.48725,0.238141 c 0.38241,-0.129137 -0.41894,-0.312131 0,0 z m 14.11602,0 c 0.52157,0.149304 -0.51744,-0.804843 -0.26666,-0.180585 0.0438,0.104559 0.15387,0.177483 0.26666,0.180585 z m -23.45919,-0.260541 c 0.48414,-0.396456 -0.835986,-0.452192 -0.384518,-0.171339 0.0973,0.09077 0.260618,0.366756 0.384518,0.171339 z m 24.60807,0.143516 c 0.43274,-0.264115 -0.22308,-0.342487 0,0 z m -14.45202,-0.118817 c 0.62589,-0.200733 -0.48116,-1.260126 -0.86868,-0.827591 0.28521,0.279317 0.53894,0.600333 0.86868,0.827591 z m 11.59181,0.0018 c 0.81986,-0.510975 -0.71241,-0.350955 0,0 z M 91.878213,88.773704 c 0.527981,-0.758204 -0.860223,-0.702389 -0.244235,0.05264 0.09614,0.30512 0.106622,0.09197 0.244235,-0.05264 z m 2.911672,0.169817 c 0.583077,-0.112222 -0.605649,-0.824572 -0.207462,-0.11047 0.05081,0.06162 0.125544,0.108825 0.207462,0.11047 z m 12.189385,-0.08049 c 0.42691,-0.411256 -0.53201,-1.421874 -1.00936,-1.092506 -0.37373,0.113594 0.1038,0.325959 0.20131,0.494231 0.24021,0.226242 0.47004,0.535807 0.80805,0.598275 z m 7.63023,0.02232 c -0.075,-0.297085 -0.83936,-1.060748 -0.90396,-0.744193 0.25422,0.286809 0.54728,0.597628 0.90396,0.744193 z m 1.2105,0.05817 c 0.21833,-0.320588 -0.36306,-0.660792 -0.55702,-0.948906 -0.21543,0.119755 0.24318,0.882332 0.55702,0.948906 z m 1.79349,-0.120609 c 0.35968,-0.02406 0.50735,-0.397149 0.0585,-0.113441 -0.009,-0.0639 -0.15633,0.131413 -0.0585,0.113441 z m 2.76939,0.0036 c 0.57923,-0.350787 0.0228,-0.96087 -0.37036,-0.355695 0.0566,0.1638 0.20259,0.308471 0.37036,0.355695 z M 93.384238,88.583731 c 0.271728,-0.528771 -0.943803,-0.371033 -0.379394,-0.08732 0.103005,0.07511 0.256674,0.186325 0.379394,0.08732 z m 8.391392,0.05544 c 0.50626,-0.567746 -0.63929,-0.611267 -0.56027,-0.263314 0.17202,0.10684 0.34346,0.292773 0.56027,0.263314 z m 14.57294,0.06361 c 0.44594,-0.271881 -0.48066,-0.908512 -0.74031,-1.213336 -0.74089,-0.457679 0.12423,0.820171 0.74031,1.213336 z m 7.89725,0.0067 c 0.36952,-0.315084 -0.99159,-0.992405 -0.35217,-0.271993 0.10484,0.104638 0.20952,0.217928 0.35217,0.271993 z M 95.509543,88.592445 C 96.509692,88.45459 94.804091,87.7356 95.343582,88.452014 l 0.106681,0.09918 z m 30.318077,-0.0037 c 0.21756,-0.355721 -0.47051,-0.514549 -0.7093,-0.716096 0.20525,0.267139 0.42047,0.534793 0.7093,0.716096 z m -14.15316,-0.117451 c 0.2682,-0.11121 0.8707,-0.269733 0.37994,-0.527755 -0.14257,-0.07677 -0.46834,-0.582801 -0.46771,-0.324077 0.0177,0.280248 -0.0534,0.603149 0.0878,0.851832 z M 99.396552,88.349177 c 0.48148,-0.263493 -0.848883,-0.513892 -0.30231,-0.06826 l 0.14916,0.0444 0.15315,0.02387 z m 8.746388,0.0092 c 0.64763,-0.05901 -0.23586,-0.635334 -0.4344,-0.888118 -0.36816,-0.496812 -0.30894,0.65144 0.0329,0.711676 0.11329,0.09341 0.25069,0.172139 0.40152,0.176442 z m 13.20846,0 c 0.43273,-0.264147 -0.22308,-0.342458 0,0 z m -3.56237,-0.200143 c 0.6266,-0.103389 -0.41833,-0.996071 -0.23405,-0.15956 -0.0197,0.265636 -0.0138,0.230253 0.23405,0.15956 z m 3.2251,0.08312 c 0.2805,-0.536183 -0.42269,-0.232026 0,0 z m -29.894273,-0.11701 c 0.597501,-0.218758 -0.473996,-0.987624 -0.223724,-0.196139 0.0099,0.116343 0.119915,0.185015 0.223724,0.196139 z m 12.318643,-0.0053 c 0.1936,-0.06135 1.13106,-0.16148 0.76132,-0.428347 -0.16826,-0.203538 -0.35509,-0.326117 -0.60619,-0.168515 -0.54548,0.101226 -1.07412,0.329993 -0.15513,0.596862 z M 92.511564,88.007319 C 93.112793,87.794886 92.198958,87.2534 92.329717,87.880097 l 0.08585,0.08985 0.09599,0.03737 z m 18.742896,-0.143516 c 0.33341,-0.573037 -0.14886,-0.619805 -0.50634,-0.305959 0.14031,0.09981 0.32533,0.524691 0.50634,0.305959 z m 5.48022,0.143516 c 0.46414,-0.311574 -0.0971,-0.704185 -0.15452,-0.16585 l 0.0716,0.117134 0.0829,0.04872 z m -15.81402,-0.175568 c 1.05032,-0.22754 -0.74911,-0.873843 -0.33466,-0.0061 0.10535,0.04779 0.22634,0.03073 0.33466,0.0061 z m 8.07041,-0.251347 c -0.0965,-0.601513 -0.63947,-0.999642 -1.00351,-1.460118 -0.13856,-0.09076 -0.42454,-0.625856 -0.44862,-0.371586 0.001,0.255587 -0.0907,0.547336 -0.0328,0.780858 0.48249,0.444932 0.96498,0.889862 1.44748,1.334789 0.0125,-0.09465 0.025,-0.189295 0.0375,-0.283943 z m 5.63828,0.30989 c 0.47157,-0.315034 -0.45561,-0.275838 0,0 z m 5.20033,-0.01808 c 0.73952,-0.462356 -0.65886,-0.197216 0,0 z m 2.11096,0.01808 c 0.50539,0.04688 -0.0129,-0.956909 -0.23586,-0.581306 -0.24799,0.169293 0.008,0.550889 0.23586,0.581306 z m 1.41928,-0.03169 c 0.1315,-0.431628 -0.21267,-0.181251 0,0 z m -28.50785,-0.08533 c 0.403595,-0.277271 -0.43856,-0.44781 0,0 z m 18.42458,0 c 0.4044,-0.213044 -0.24691,-0.565702 0,0 z m 5.41792,0 c -0.0568,-0.307273 -0.99188,-1.156105 -0.4438,-0.421418 0.13981,0.148274 0.27815,0.301084 0.4438,0.421418 z m -28.159636,-0.30048 c 0.466755,-0.386162 -0.808298,-0.880064 -0.286473,-0.213731 0.06905,0.08177 0.155854,0.23919 0.286473,0.213731 z m 7.710868,0.06642 c 0.477908,-0.405 -0.460471,-0.493272 0,0 z m 7.395828,-0.102713 c 0.65983,-0.131072 -0.0896,-0.768677 -0.25728,-0.832947 0,0.309374 0,0.618747 0,0.928121 0.0858,-0.03173 0.17152,-0.06345 0.25728,-0.09517 z m 14.84589,0.102717 c 0.45708,-0.403119 -0.64449,-0.349645 0,0 z M 91.794485,87.4204 c 0.779534,-0.106917 -0.102153,-0.810654 -0.273214,-0.288794 0.04377,0.128335 0.14276,0.244365 0.273214,0.288794 z m 3.851865,-0.09905 c -0.210631,-0.865673 -0.18588,0.528252 0,0 z m 23.43107,0.09437 c 0.23422,-0.201844 0.50502,-0.522774 0.14345,-0.729908 -0.13205,-0.31571 -0.38085,-0.06659 -0.59399,0.01 -0.32541,0.07931 0.41876,0.607248 0.45054,0.719935 z m -16.60197,-0.117968 c 0.44305,-0.328686 0.0957,-0.79586 -0.36343,-0.436574 -0.52769,0.192571 0.18197,0.386804 0.36343,0.436574 z m 2.53423,-0.166183 c -0.4211,-0.71549 -1.11776,-1.232105 -1.73059,-1.781353 -0.5724,-0.242567 0.29152,0.609109 0.44393,0.74561 0.40298,0.352979 0.79554,0.839243 1.28666,1.035743 z m 5.47502,0.173601 c 0.4257,-0.100194 0.83081,-0.364676 0.27788,-0.669548 -0.40112,-0.379488 -0.79735,-0.771098 -1.25649,-1.080994 -0.014,0.256618 -0.13155,0.548215 -0.0855,0.784549 0.3512,0.324709 0.67179,0.690881 1.06408,0.965993 z m 2.36338,-0.09788 c -0.0799,-0.435848 -0.89034,-1.358783 -1.1009,-1.114832 0.31564,0.391199 0.64675,0.918217 1.1009,1.114832 z m 1.2458,0.09608 c 0.76473,-0.0091 0.11151,-0.497428 0.2644,-0.779268 0.27022,0.08546 0.5285,0.78676 0.58786,0.188382 -0.0583,-0.753582 -0.8618,-0.302017 -1.27126,-0.101974 -0.51666,0.0858 0.10975,0.427686 0.2501,0.60889 l 0.0986,0.06177 0.0704,0.0222 z m 2.11825,0.0018 c 0.32926,-0.02984 1.3598,-0.702648 0.46279,-0.5321 -0.17609,0.07245 -0.83797,0.299257 -0.46279,0.5321 z M 93.791936,87.188142 c 0.563036,-0.03369 0.243775,-0.539016 -0.151302,-0.196224 -0.190321,0.1 0.0341,0.22654 0.151302,0.196224 z m 9.251904,0 c 0.38241,-0.129137 -0.41894,-0.312128 0,0 z m 19.54044,0 c 0.66242,-0.226791 -0.60091,-1.048973 -0.23794,-0.246615 0.0592,0.09283 0.12231,0.215881 0.23794,0.246615 z M 96.724475,87.071116 c 0.382396,-0.129203 -0.418936,-0.312065 0,0 z m 3.046237,0 c 0.475658,0.07076 0.822128,-0.686898 0.152427,-0.399348 -0.08532,0.04869 -0.34649,0.355698 -0.152427,0.399348 z m 21.405308,0 c 0.40181,-0.218757 0.0227,-0.882273 -0.18405,-0.2581 -0.04,0.121622 0.0679,0.23927 0.18405,0.2581 z m -14.41127,-0.117025 c 0.2357,-0.350164 -0.78877,-0.805028 -1.06571,-1.113265 -0.47113,-0.231916 0.42939,0.630899 0.58059,0.77077 0.15157,0.124778 0.29442,0.278332 0.48512,0.342495 z m 13.13074,0 c 0.47157,-0.315034 -0.45561,-0.275838 0,0 z M 97.375021,86.837066 c 0.235157,-0.321804 -0.435381,-0.28608 0,0 z m -7.585158,-0.164925 c 0.07799,-0.393635 -0.585566,-0.33619 -0.08131,-0.01457 l 0.04883,0.02129 z m 1.324819,0.0479 c 0.587517,0.07678 0.105416,-0.828074 -0.137361,-0.620833 -0.355337,0.225871 -0.337581,0.574728 0.137361,0.620833 z m 1.952752,-0.0092 c 0.237585,-0.553162 -0.744784,-0.2361 -0.06363,-0.02387 l 0.06363,0.02386 z m 1.967081,0.0092 c 0.436105,-0.2504 -0.564149,-0.216062 0,0 z m 20.648365,-0.117025 c 0.53138,-0.03128 0.97115,-0.474151 0.30447,-0.782386 -0.56282,-0.420408 -0.81285,0.604414 -0.30447,0.782386 z m 1.88591,0 c 0.26438,-0.176571 -0.48123,-0.357012 -0.10389,-0.03438 z m 1.95807,-0.06046 c -0.10008,-0.616942 -0.45686,-0.0253 0,0 z m -25.962068,-0.05656 c 0.403597,-0.277278 -0.438562,-0.447807 0,0 z m 7.876858,-0.0018 c 0.67431,-0.03527 0.19255,-0.56578 -0.18496,-0.205386 -0.10699,0.108586 0.097,0.210184 0.18496,0.205386 z m 19.31233,-0.219567 c 0.31316,-0.167887 0.15753,-0.363677 -0.036,-0.561722 -0.13768,-0.325673 -0.32066,-0.246287 -0.5201,-0.01972 -0.34015,0.143611 -0.16706,0.322157 0.0426,0.503191 0.22215,0.223057 0.26821,0.437871 0.51356,0.07825 z m -21.747508,0.104333 c 0.460677,-0.321944 -0.458467,-0.297361 0,0 z m 19.169778,0 c 0.50448,0.08923 0.70142,-0.83526 0.11016,-0.472634 -0.11558,0.09208 -0.45293,0.444298 -0.11016,0.472634 z m -7.07575,-0.117025 c -0.3018,-0.42176 -0.64801,-1.008478 -1.1719,-1.153003 0.25431,0.468498 0.762,0.814747 1.1719,1.153003 z m 10.79132,0 c 0.40701,-0.245777 -0.35377,-0.695217 -0.18226,-0.117021 l 0.0834,0.08265 0.099,0.03438 z M 89.165223,86.132311 c 0.05795,-0.436996 -1.050525,-0.622101 -0.276516,-0.142386 0.0881,0.05238 0.17289,0.122384 0.276516,0.142386 z m 1.252173,-0.120999 c 0.759402,-0.631974 -1.112446,-0.272134 -0.109815,0.04652 l 0.109817,-0.04652 z m 1.699625,0.123602 c 1.007108,-0.348779 0.228477,-1.339235 -0.39326,-0.476938 -0.104812,0.20665 0.199548,0.465985 0.39326,0.476938 z m 4.74683,-0.0037 c 0.837147,-0.10548 -0.04937,-0.464075 -0.31491,-0.0037 0.10497,0.0012 0.20994,0.0025 0.31491,0.0037 z m 16.171929,-0.222343 c 0.43025,-0.481957 -0.8197,-0.320463 -0.38351,-0.05907 0.19491,0.156724 0.26424,0.50063 0.38351,0.05907 z m 0.34734,0.226043 c 0.74519,-0.03739 0.9461,-0.524475 0.24203,-0.792443 -0.14501,0.03845 -0.32613,0.602753 -0.24203,0.792443 z m -6.20114,-0.117026 c 0.218,-0.834291 -0.20825,-1.78384 -0.89749,-2.292401 -0.94592,-0.08383 0.90057,0.715655 0.35784,0.815469 -0.34355,-0.207194 -0.6831,-0.420912 -1.02397,-0.632464 -0.10461,0.651689 0.47136,1.103684 0.87647,1.522392 0.22086,0.203254 0.42587,0.435147 0.68715,0.587004 z m 9.82867,0 c 0.0802,-0.294374 -0.9211,-0.882392 -0.39187,-0.292563 0.11668,0.109086 0.23207,0.247372 0.39187,0.292563 z M 95.086121,85.900863 c 0.852537,-0.116015 -0.459636,-0.635203 -0.247415,-0.07209 0.07253,0.04889 0.160712,0.07077 0.247415,0.07209 z m 14.058559,-0.193449 c 0.47337,-0.617312 -0.74397,-0.290171 -0.24749,0.02033 0.15261,0.189319 0.16656,0.268716 0.24749,-0.02033 z m -10.774428,0.07642 c 0.689988,-0.294402 -0.50527,-0.652491 -0.305619,-0.252875 0.08497,0.101829 0.169907,0.217119 0.305619,0.252875 z m 2.450108,0 c 0.4716,-0.315024 -0.45562,-0.27585 0,0 z m 16.80291,-0.117026 c 0.86183,-0.18014 0.3116,-1.097297 -0.32532,-0.568147 -0.5128,0.06313 0.12824,0.497633 0.32532,0.568151 z M 88.393861,85.549787 c -0.0235,-0.34993 -0.711256,-0.42977 -0.185451,-0.105103 l 0.08307,0.05463 z m 1.200107,0 c 0.893944,-0.347795 -0.668032,-0.953247 -0.373345,-0.229684 0.10207,0.105412 0.233162,0.186198 0.373345,0.229684 z m 11.981552,-0.0026 c 0.44354,0.08364 -0.0365,-0.228806 -0.14628,-0.382491 -0.18345,-0.188483 -0.36691,-0.376962 -0.55037,-0.565444 -0.16704,0.499222 0.19299,0.884621 0.69665,0.947935 z m 13.28276,-0.05756 c 0.63976,0.08087 0.42958,-0.793534 -0.0203,-0.576359 -0.22577,0.06929 -0.45153,0.13858 -0.6773,0.207869 0.18229,0.200285 0.37943,0.485362 0.69761,0.36849 z m 4.98534,-0.08024 c 0.32594,-0.28475 0.33815,-1.005536 -0.16672,-0.440164 -0.31899,0.150905 -0.26153,0.336459 -0.0215,0.538806 0.0561,0.133524 0.12467,-0.06959 0.1882,-0.09864 z m 1.4228,0.140408 c 0.43142,-0.280787 0.4305,-1.24811 0.0289,-1.254612 -0.12086,0.254683 -0.24171,0.509367 -0.36256,0.76405 0.10906,0.164641 0.1977,0.345772 0.33371,0.490562 z M 105.10611,85.43277 c 0.0899,-0.150238 -0.62477,-0.615868 -0.20478,-0.204791 0.0621,0.07365 0.11982,0.154908 0.20478,0.204791 z m 7.20087,0 c 0.36868,-0.234037 -0.84188,-1.009872 -0.36773,-0.309532 0.0955,0.128487 0.21165,0.256097 0.36773,0.309532 z M 91.286015,85.313944 c 0.151267,-0.06808 0.975373,-0.396517 0.45569,-0.472039 -0.314697,-0.118223 -1.299104,0.333493 -0.45569,0.472039 z m 2.769245,0.0018 c 0.582658,-0.171699 -0.393435,-0.165131 0.177306,-0.402646 0.189478,-0.603927 -0.989958,-0.107962 -0.745184,0.127391 0.164496,0.133447 0.348938,0.262857 0.567878,0.275255 z m 6.08635,0 c 0.69565,-0.103653 -0.908414,-1.019395 -0.405562,-0.206961 0.08683,0.132463 0.252375,0.199004 0.405562,0.206961 z m 2.63892,-0.0037 c 0.0671,-0.478814 -0.54605,-0.678616 -0.86866,-0.945273 -0.43884,-0.343836 0.085,0.194444 0.20104,0.332337 0.20881,0.218159 0.42475,0.43268 0.66762,0.612936 z m -5.87361,-0.113333 c 0.235155,-0.321807 -0.435376,-0.286075 0,0 z m 7.15008,0 c 0.0204,-0.397543 -0.53082,-0.554394 -0.13505,-0.10911 l 0.0575,0.05671 z M 89.006229,84.934114 c 0.671382,-0.428262 -0.451146,-0.314567 -0.251843,0.06739 0.08922,0.02292 0.177709,-0.0249 0.251843,-0.06739 z m 19.347341,0.14578 c 0.57581,-0.04818 0.38686,-0.313416 0.0556,-0.509776 -0.0263,0.457337 -0.72322,-0.04988 -0.37855,0.276078 0.0832,0.102779 0.18564,0.213534 0.32295,0.233698 z m 7.64996,-0.04611 c 0.078,-0.39359 -0.58559,-0.33623 -0.0813,-0.01457 l 0.0488,0.02129 z M 95.397052,84.882903 c 0.494901,-0.07724 -0.537867,-0.421278 -0.403816,-0.205711 0.09217,0.126795 0.230853,0.264814 0.403816,0.205711 z m 17.703608,0.07861 c 0.12211,-0.285777 -1.22062,-1.057433 -0.51926,-0.347928 0.14888,0.141789 0.31048,0.30485 0.51926,0.347928 z M 90.530171,84.847635 c 0.393678,-0.208552 0.432282,-0.450694 -0.04166,-0.347701 -0.249192,0.0055 -0.684923,-0.05085 -0.265826,0.175841 0.09531,0.06852 0.19212,0.14027 0.307491,0.17186 z M 100.56642,84.53836 c 0.2919,-0.679524 -1.052581,-0.478622 -0.581346,-0.138791 0.180906,0.149252 0.361816,0.298502 0.542726,0.447753 0.0129,-0.102987 0.0258,-0.205975 0.0386,-0.308962 z m 10.99537,0.208428 c -0.21058,-0.865674 -0.1859,0.528252 0,0 z m 5.42546,-0.06538 c 0.81502,-0.327044 -0.21447,-0.702171 -0.58762,-0.328119 -0.2976,0.04975 0.18145,0.402918 0.27613,0.459094 0.10383,-0.04366 0.20766,-0.08732 0.31149,-0.130975 z m 2.44976,-0.07468 c 0.40779,-0.33467 0.59644,-0.702055 0.95436,-1.013087 0.22355,-0.398641 0.19377,-1.172286 -0.13789,-1.337741 0.0696,0.774119 -0.40862,1.471119 -1.04204,1.872872 -0.22863,0.181434 -0.57813,0.351826 -0.21196,0.592128 0.11659,0.262036 0.27776,-0.05354 0.43753,-0.114172 z m -21.040348,0.123879 c 0.249913,0.0091 -0.738589,-0.639773 -0.315911,-0.246957 0.0824,0.103923 0.178922,0.220902 0.315911,0.246957 z m 15.205368,0 c 0.68016,-0.0628 1.06251,-0.71603 0.24852,-0.936203 -0.29318,0.05108 -0.22101,0.71056 -0.24852,0.936203 z M 92.570076,84.613584 c 0.67434,-0.4551 -0.595,-0.215513 0,0 z m 16.705364,-0.0019 c 0.0802,-0.54943 -0.64534,-1.305744 -1.12331,-1.611531 -0.98172,0.233701 0.14059,1.085765 0.59765,1.306715 0.17234,0.105122 0.33772,0.228427 0.52566,0.304816 z m -6.61015,-0.120382 c -0.28299,-0.313469 -0.60362,-1.083856 -0.99999,-1.001167 -0.0412,0.481365 0.68715,0.731327 0.99999,1.001167 z m 0.80247,0.0052 c 0.0899,-0.150247 -0.62477,-0.615865 -0.20478,-0.204791 0.062,0.07365 0.11985,0.154917 0.20478,0.204791 z m 17.25594,-0.0641 c 0.20961,-0.308408 0.48314,-1.037219 0.18207,-1.231753 -0.0855,0.275935 -0.56767,1.101298 -0.18207,1.231753 z m -7.41674,-0.05293 c 0.32767,-0.451092 -0.6246,-0.636456 -0.17555,-0.140432 l 0.10948,0.09918 0.0661,0.04125 z M 91.4416,84.248933 c -0.295522,-0.559236 0.272489,-0.205298 0.597459,-0.254789 0.480016,-0.307288 -0.757539,-0.345588 -0.941621,-0.0687 -0.330706,0.187195 0.221175,0.285322 0.344162,0.323488 z m 4.047203,-0.10345 c 0.606264,-0.262386 -0.436395,-0.22738 0,0 z m 4.334799,-0.137386 c 0.525728,-0.07447 0.01894,-0.398392 -0.236845,-0.422557 -0.03679,0.275155 -0.218798,0.760129 0.236845,0.422557 z m -2.540529,0.02036 c 0.565299,0.05439 -0.730007,-0.680109 -0.159484,-0.03666 l 0.159464,0.03666 z m 13.420427,0 c 0.50481,-0.03482 0.41357,-0.245819 0.10787,-0.483398 -0.29741,-0.272839 -0.65308,-0.357943 -0.70216,-0.767376 -0.23551,0.127551 -0.36045,0.61661 -0.0287,0.74318 0.20343,0.173794 0.39641,0.36444 0.62296,0.507594 z m 4.31772,0 c 0.0802,-0.294375 -0.9211,-0.882393 -0.39187,-0.292564 0.11668,0.109086 0.23207,0.247372 0.39187,0.292564 z m 1.26083,-0.139564 c 0.77177,-0.035 -0.24176,-1.207215 -0.20714,-0.251859 -0.11584,0.351783 -0.24033,0.440048 0.20714,0.251859 z m 2.10094,0.139564 c 0.29128,-0.278455 0.46972,-1.320828 -0.11064,-0.636088 -0.40674,0.175886 -0.24711,0.488183 0.11063,0.636088 z m -15.46268,-0.19025 c 0.0194,-0.131762 -0.70545,-0.79556 -0.37519,-0.402218 0.11304,0.138881 0.20043,0.344156 0.37519,0.402218 z m 16.15755,-0.161932 c 0.56825,-0.130301 0.2733,-0.994582 -0.15305,-0.55815 -0.02,0.15411 -0.39865,1.06134 0.006,0.663157 0.0492,-0.035 0.0983,-0.07001 0.14745,-0.105007 z m -24.413848,0.118131 c 0.376459,-0.365202 -0.161007,-0.347198 0,0 z m 10.445908,0 c 0.53355,-0.147668 -1.10323,-0.987998 -0.40859,-0.296599 0.10214,0.132095 0.2338,0.273609 0.40859,0.296599 z m 10.46254,0 c 0.34301,-0.137831 -0.57689,-0.248995 0,0 z M 96.476612,83.677382 c 0.615465,-0.279175 -0.241161,-0.301216 0,0 z m 2.33496,-0.203074 c 0.186966,-0.849407 -1.373071,-0.388133 -0.312848,4.03e-4 0.142323,0.04798 0.314116,0.299164 0.312848,-4.03e-4 z m 5.030158,0.200472 c -0.0276,-0.290295 -0.78445,-0.945354 -0.42017,-0.312371 0.12447,0.122665 0.26917,0.225105 0.42017,0.312371 z m 11.95634,-0.190412 c 0.34065,-0.297673 0.17188,-0.959463 -0.19538,-0.380183 -0.0169,0.107966 0.0282,0.441819 0.19538,0.380183 z m -10.00046,-0.04104 c 0.61555,-0.15494 -0.44725,-0.55109 0,0 z m 6.49123,-0.08312 c 0.66368,-0.287534 -0.54053,-0.652259 -0.16532,0.01488 l 0.0744,0.0013 0.0909,-0.01615 z m -18.467648,-0.0357 c 0.802163,-0.334301 -0.307451,-0.130403 -0.115217,-10e-4 0.03841,3.47e-4 0.07681,6.95e-4 0.115217,10e-4 z M 105.43079,83.09653 c 0.18401,-0.245169 -0.41858,-1.041324 -0.40874,-0.445108 -0.23939,0.241606 0.28869,0.945212 0.38644,0.495071 l 0.0169,-0.03775 z m -4.64519,0.112744 c 0.27621,-0.510328 -0.39194,-1.187832 -0.817342,-0.921932 0.168652,0.374459 0.523462,0.647056 0.817342,0.921932 z m 16.89305,0 c 0.27994,-0.150015 0.66954,-0.438003 0.79656,-0.672396 -0.26096,-0.252715 -0.52193,-0.50543 -0.7829,-0.758146 -0.58376,0.263327 -0.80789,0.939538 -0.16025,1.339966 l 0.086,0.06625 z M 93.44086,83.092255 c 0.436371,-0.314476 -0.276622,-0.224357 0,0 z m 26.29508,-0.177617 c 0.25873,-0.483599 0.25559,-1.474565 -0.2686,-1.615679 0.0798,0.437074 -0.23685,0.856832 -0.26665,1.260479 0.14243,0.13266 0.27634,0.596988 0.4245,0.50666 0.0369,-0.05049 0.0738,-0.100973 0.11075,-0.15146 z m -21.909298,0.06059 c 0.66901,0.04604 0.122221,-0.657523 -0.04894,-0.175533 l 0.01436,0.123975 0.03454,0.05156 z m 9.249678,-0.0018 c 0.78386,-0.163506 0.33713,-0.852969 -0.16734,-1.011775 -0.18589,-0.09508 -0.12252,0.619098 -0.33505,0.375958 -0.19192,-0.172298 -0.65864,-1.054699 -0.51999,-0.34265 0.28859,0.367189 0.60991,0.750245 1.02238,0.978467 z m 2.53527,0.0018 c 0.47269,-0.47987 -0.34629,-0.744396 -0.35611,-0.305296 0.10189,0.118626 0.19494,0.262625 0.35611,0.305296 z M 94.735045,82.858204 c 0.382394,-0.129204 -0.418935,-0.312065 0,0 z m 9.789915,-0.120583 c 0.1528,-0.508655 -0.64445,-0.52632 -0.22555,-0.124218 0.0745,0.04252 0.14817,0.08695 0.22555,0.124218 z m 10.84084,-0.06248 c 0.48479,-0.411558 -0.57964,0.249752 0,0 z m -3.96318,-0.116758 c 0.96673,-0.07295 -0.28474,-0.961727 -0.72288,-0.562625 -0.75959,0.151383 0.50594,0.691576 0.72288,0.562625 z m -8.91465,-0.06116 c 0.40258,-0.422156 -0.70506,-1.154967 -0.82165,-0.863605 0.26606,0.293472 0.49849,0.631174 0.82165,0.863605 z m -0.74896,-0.167583 c -0.10023,-0.617053 -0.45673,-0.02515 0,0 z m 13.3718,-0.02615 c 0.51207,0.0036 -0.16482,-0.516262 -0.38722,-0.307973 -0.34678,0.03948 0.30853,0.442134 0.38722,0.307973 z m -11.07528,-0.173212 c 0.79083,-0.183901 -0.8697,-0.956108 -0.55112,-0.124946 0.0845,0.216815 0.37578,0.224531 0.55112,0.124946 z m 4.94044,0.132894 c 0.79897,-0.17304 -0.70871,-0.659767 -0.92052,-0.926294 0.0958,0.371464 0.5279,0.803787 0.92052,0.926294 z m -9.238088,-0.108911 c 0.04888,-0.387472 -0.680746,-0.223439 -0.0722,-0.03458 l 0.07225,0.03459 z m -1.03509,-0.118303 c -0.104088,-0.485739 -0.711368,-0.678767 -0.945947,-0.410167 0.314372,0.13861 0.622623,0.293425 0.945947,0.410167 z m 20.166498,0.0031 c 0.36702,-0.488562 0.17118,-1.233269 -0.16687,-1.699285 -0.18326,-0.312811 -0.31029,-0.359123 -0.34295,0.04169 -0.0727,0.284145 -0.14543,0.568293 -0.21815,0.852439 0.23523,0.273026 0.42707,0.60059 0.72797,0.805154 z m -5.38094,-0.12072 c 0.42216,-0.368725 -0.91589,-0.90924 -0.59617,-0.451379 0.19032,0.159363 0.3657,0.351554 0.59617,0.451379 z m -13.0365,-0.179108 c -0.0682,-0.521153 -1.174268,-1.312945 -1.067529,-0.41851 0.346683,0.154643 0.693179,0.346853 1.067529,0.41851 z m 2.78652,-0.02199 c 0.0756,-0.629102 -0.17412,-0.199078 0,0 z m 7.12912,0.04178 c 0.81318,0.08559 -0.15207,-0.792268 -0.18514,-0.110116 -0.0198,0.10902 0.10103,0.163186 0.18514,0.110116 z M 81.354424,81.67755 c 1.417366,-0.782757 2.863047,-1.519103 4.259141,-2.339714 0.141879,-0.332632 -0.642968,-0.553893 -0.945943,-0.801639 -0.216682,-0.243712 -0.446257,-0.09361 -0.675454,0.04492 -1.220779,0.629396 -2.411384,1.330211 -3.605484,1.997859 0.212804,0.439894 0.637899,0.745768 0.96774,1.098574 z m 15.253026,-0.008 c 0.709667,-0.120067 -0.665384,-0.05214 0,0 z m 10.42906,0.01848 c 0.26438,-0.17657 -0.48122,-0.357011 -0.10388,-0.03438 z m 2.94111,-0.2513 c 0.28015,-0.349055 -0.24774,-0.524191 -0.48571,-0.668686 -0.53958,0.0052 0.18422,0.597626 0.32003,0.858168 0.0973,0.220439 0.10976,-0.128482 0.16568,-0.189482 z m 4.5347,0.134275 c 0.40363,-0.277158 -0.43859,-0.447928 0,0 z m 2.45011,-0.08118 c 0.71292,0.06229 -0.16439,-0.910422 -0.1096,-0.4919 0.069,0.164486 -0.28968,0.633214 0.1096,0.4919 z m -16.06542,-0.03585 c 0.35412,-0.325223 -0.69722,-0.891629 -0.47584,-0.556759 0.13387,0.201733 0.27818,0.412718 0.47584,0.556759 z m 3.52188,-0.0075 c 0.30567,-0.563656 -0.61809,-0.943127 -0.75987,-0.428355 0.21718,0.197989 0.50105,0.298942 0.75987,0.428355 z m 1.21765,0.0075 c 0.38075,-0.32522 -0.94476,-0.697825 -0.22064,-0.143173 l 0.0886,0.07442 0.13206,0.06875 z m 5.31717,0 c -0.0246,-0.559222 -0.54995,-0.352713 0,0 z m 3.16335,0 c 0.34395,-0.549592 -0.59307,-0.416621 -0.0707,-0.04755 z m 2.33309,0 c 0.23513,-0.321791 -0.43541,-0.286096 0,0 z m -14.61638,-0.351076 c -0.007,-0.490873 -0.81313,-0.391181 -0.16888,-0.105125 l 0.0792,0.05463 0.0897,0.05047 z m -3.256578,-0.141146 c 0.69306,-0.325116 -0.339578,-0.685164 -0.277,-0.09951 0.05981,0.08677 0.177576,0.116254 0.277,0.09951 z m 13.671438,0.02023 c 0.21387,-0.435541 -0.8791,-0.637617 -0.38027,-0.305454 0.12534,0.103548 0.2483,0.210344 0.38027,0.305454 z m 0.32587,0.0039 c 0.43274,-0.264115 -0.22308,-0.342485 0,0 z m -6.78056,-0.156267 c 0.52947,-0.623708 -0.37437,-0.601654 -0.77684,-0.397327 0.24817,0.146149 0.47922,0.374597 0.77684,0.397327 z m 12.1899,-0.220851 c 0.41993,-0.342952 -0.0629,-1.406008 -0.39661,-1.138841 -0.0945,0.279622 -0.18904,0.559241 -0.28356,0.83886 0.1774,0.188834 0.3548,0.377668 0.5322,0.566502 0.0493,-0.08884 0.0987,-0.177681 0.14797,-0.266521 z m -18.731128,0.111373 c 0.131447,-0.431655 -0.212634,-0.181221 0,0 z m 4.054438,0.003 c 0.50753,-0.208593 -0.17194,-1.000809 -0.14628,-0.30898 0.0122,0.08389 -0.0149,0.341605 0.14628,0.30898 z m 6.7513,0.02867 c 0.43639,-0.314508 -0.27659,-0.2243 0,0 z m -2.30434,-0.122198 c 0.60784,-0.736203 -0.95265,-1.09963 -0.9573,-0.509234 0.29025,0.214284 0.61781,0.388676 0.9573,0.509234 z m 5.85448,0.0052 c 0.52026,0.130097 -0.20706,-0.574814 -0.41294,-0.349347 -0.1124,0.191528 0.26482,0.356231 0.41294,0.349347 z m 2.67711,0 c 0.6758,-0.386064 -0.48129,-0.845676 -0.2391,-0.160014 0.0635,0.07276 0.14022,0.141134 0.2391,0.160014 z m -13.79773,-0.124443 c 0.53129,-0.567201 -0.99489,-0.74543 -0.5387,-0.216221 0.16161,0.10842 0.35086,0.171377 0.5387,0.216221 z m 1.30963,0.0074 c 0.51046,-0.03723 -0.29812,-0.343729 -0.0649,-0.0094 z M 80.15919,80.399952 c 1.231965,-0.600769 2.36578,-1.389255 3.593461,-2.002784 0.735417,-0.278364 -0.290786,-0.59902 -0.596929,-0.838588 -0.215128,-0.166928 -0.430624,-0.283126 -0.648642,-0.05114 -1.134442,0.673484 -2.309591,1.28501 -3.397312,2.031636 0.01488,0.349261 0.720786,0.684975 1.049422,0.860878 z m 29.41838,-0.06216 c 0.92042,-0.09915 -0.53635,-0.804795 -0.78194,-0.688637 -0.12397,0.423732 0.43137,0.714063 0.78194,0.688637 z m 1.83498,0.06288 c 0.62475,-0.05961 0.71744,-0.573983 0.24839,-0.94047 -0.24959,-0.264201 -0.5253,-0.895366 -0.83659,-0.871777 -0.0628,0.336375 1.11627,1.276504 0.26782,0.978927 -0.315,-0.280176 -0.18025,0.190475 -0.20762,0.390484 0.32063,-0.02955 0.66502,-0.08621 0.99471,-0.126088 -0.14367,0.227858 -0.90177,0.292984 -0.46671,0.568924 z M 87.699556,80.168241 c 1.075675,-0.468799 2.15968,-0.942316 3.171811,-1.53707 -0.428021,-0.405763 -0.958673,-0.686062 -1.442101,-1.021547 -1.014802,0.512474 -2.036558,1.01356 -3.017587,1.589286 0.426183,0.326178 0.825565,0.695371 1.287877,0.969331 z m 13.150064,-0.13249 c 0.36742,-0.466907 -0.83464,-0.244856 -0.70923,-0.153778 0.23611,0.05249 0.47166,0.108713 0.70923,0.153778 z m 3.57326,-0.0389 c 0.20349,-0.45663 -0.81979,-0.565189 -0.26663,-0.180586 0.0756,0.06002 0.15488,0.192705 0.26663,0.180586 z m 11.12234,0.05275 c 0.24732,-0.155971 0.6915,-0.393112 0.27318,-0.629005 -0.14816,-0.328223 -0.38016,-0.0031 -0.58335,0.09766 -0.36913,0.102215 0.24084,0.420461 0.31017,0.531341 z m -2.67125,-0.117026 c 0.4036,-0.277199 -0.43859,-0.447888 0,0 z m 4.08122,0 c 0.50315,-0.359068 0.40648,-1.026537 -0.15018,-1.247128 -0.13316,0.164169 -0.16933,0.749105 -0.0604,1.02953 0.0523,0.08208 0.10819,0.190687 0.21062,0.217598 z M 101.464,79.81555 c 0.46068,-0.321946 -0.45846,-0.29736 0,0 z m 2.02559,-0.0082 c -0.13378,-0.360252 -0.7826,-0.203589 -0.17652,-0.06912 l 0.0822,0.03375 0.0943,0.03535 z m 10.45421,-0.177577 c 0.0259,-0.485508 -0.54353,-0.740315 -0.91138,-0.969561 -0.16621,-0.03367 0.47107,0.64875 0.64568,0.830928 0.0787,0.04801 0.15761,0.159424 0.2657,0.138633 z m -7.87529,-0.169829 c 0.007,-0.425525 -0.74518,-0.394471 -0.1691,-0.0084 0.0309,0.03756 0.14927,0.09949 0.1691,0.0084 z m -27.286756,-0.0061 c 1.002672,-0.460607 1.871848,-1.173193 2.8495,-1.687644 0.595215,-0.24798 1.108956,-0.697849 0.179432,-0.853524 -0.241029,-0.121189 -0.478665,-0.208676 -0.684221,0.02252 -1.045332,0.678211 -2.127669,1.30633 -3.125833,2.051748 0.198901,0.228959 0.49331,0.381881 0.781122,0.4669 z m 23.530676,0.0089 c 0.55716,-0.221343 -0.79324,-0.339854 -0.35849,-0.13892 0.107,0.07239 0.22828,0.126471 0.35849,0.13892 z m 2.83787,0.0018 c 0.38238,-0.129162 -0.41895,-0.312109 0,0 z m 1.89799,-0.243289 c 0.206,-0.52149 -0.82725,-0.259308 -0.10242,-0.02387 l 0.10239,0.02387 z m 7.60481,0.0092 c 0.63894,-0.62799 -1.52221,-1.267093 -0.55584,-0.485348 0.17556,0.168594 0.33871,0.369149 0.55584,0.485348 z m 0.26291,0 c 0.53798,0.08714 0.28908,-0.647281 0.0221,-0.175533 l -0.0343,0.123975 0.0122,0.05156 z m -5.92143,-0.177488 c -0.10008,-0.616942 -0.45686,-0.0253 0,0 z m -22.802384,-0.05293 c 0.994583,-0.470439 1.999246,-0.943926 2.923556,-1.542023 -0.340543,-0.349182 -0.792421,-0.566531 -1.19229,-0.841993 -1.007898,0.522958 -2.060982,0.971213 -3.015097,1.588092 0.355051,0.350761 0.844097,0.566625 1.283831,0.795924 z m 17.443674,-0.0036 c 0.46492,-0.451533 -0.57187,-0.215139 0,0 z m 0.43194,-0.0018 c 0.86183,-0.166157 -0.39261,-0.488572 0,0 z m 12.17979,-0.293801 c 0.11542,-0.435174 -0.35046,-0.663813 -0.20705,-0.07054 -0.009,0.258453 0.17455,0.485567 0.20705,0.07054 z m -8.14241,-0.02106 c 0.45171,-0.785203 -0.73079,-1.17625 -1.2909,-0.878751 -0.0441,0.602136 0.78729,0.911155 1.2909,0.878751 z m 2.10645,-0.157348 c 0.35006,-0.472256 -1.29612,-0.744892 -1.06657,-0.59351 0.34411,0.21456 0.69056,0.439444 1.06657,0.59351 z m 1.82248,-0.178922 c 0.1849,-0.303606 0.59598,-0.553296 -0.0781,-0.545253 -0.39999,-0.03162 -1.53977,-0.37736 -0.75951,0.254461 0.22038,0.07458 0.71123,0.58693 0.82729,0.336136 l 0.009,-0.0403 z m 3.03819,0.172404 c -0.26415,-0.301561 -0.15105,-0.907443 0.25771,-0.398724 0.27707,0.469949 0.57826,0.200187 0.29152,-0.201363 -0.34185,-0.348818 -0.82065,-0.537029 -1.22629,-0.810892 0,0.353182 0,0.706364 0,1.059546 0.22539,0.117694 0.44872,0.239508 0.67706,0.351433 z M 91.458336,78.40487 c 0.66472,-0.270381 1.36584,-0.513749 1.941699,-0.95078 -0.221148,-0.374062 -0.702841,-0.596063 -1.062601,-0.872107 -0.200609,-0.238834 -0.428746,-0.183444 -0.665921,-0.03146 -0.564437,0.260783 -1.152108,0.481846 -1.67959,0.813311 0.375973,0.460398 0.966653,0.727674 1.466413,1.041037 z m 14.394114,-0.246156 c 0.70942,-0.120031 -0.6653,-0.05215 0,0 z m 8.33815,-0.272174 c 0.24233,-0.408176 -0.15606,-1.323154 -0.55017,-1.141241 0.25197,0.323311 -0.17241,1.515705 0.55017,1.141241 z M 84.464882,77.9405 c 1.028518,-0.452442 2.050276,-0.940096 3.014593,-1.517371 -0.48463,-0.36564 -1.126264,-0.964205 -1.733524,-0.490866 -0.877629,0.391967 -1.737891,0.821114 -2.605296,1.234899 0.438458,0.261678 0.856333,0.566624 1.324227,0.773338 z m 28.816448,-0.231408 c 0.73892,-0.220271 -0.13103,-1.6927 -0.37299,-1.19638 0.39051,0.278497 -0.005,0.963305 0.37299,1.19638 z m -15.971728,-0.19002 c 0.463758,-0.178152 0.926455,-0.359047 1.38953,-0.538963 -0.238764,-0.453323 -0.75752,-0.628801 -1.15223,-0.903611 -0.549954,0.135976 -1.048486,0.41833 -1.565026,0.644005 0.425916,0.282105 0.806483,0.723044 1.327726,0.798569 z m 14.370178,-0.170297 c 0.69319,-0.118682 1.04262,-1.25868 0.0799,-1.24261 -0.31345,-0.113718 -0.44618,-0.04398 -0.31872,0.289894 0.17062,0.380311 -0.52217,0.983331 0.23879,0.952716 z m 1.23487,-0.101655 c 0.13276,-0.301874 -0.23923,-0.81624 -0.33117,-0.959731 -0.0376,0.297928 -0.1424,1.14538 0.33117,0.959731 z m -23.249656,-0.0087 c 0.669372,-0.307811 1.337313,-0.621904 1.986416,-0.970661 -0.453079,-0.302152 -0.98816,-0.464623 -1.48278,-0.692478 -0.586642,0.282312 -1.216606,0.494425 -1.752825,0.86614 0.354252,0.342753 0.829538,0.544588 1.249189,0.796999 z m 4.367899,-0.001 c 0.475993,-0.125972 1.705524,-0.426306 0.700806,-0.843318 -0.539542,-0.303634 -1.089803,-0.954665 -1.702876,-0.425021 -0.12786,0.109243 -0.747394,0.201454 -0.417496,0.326554 0.521205,0.240108 0.954935,0.616277 1.419566,0.941785 z m 15.732997,-0.113396 c 0.19672,-0.06147 0.65226,0.13589 0.65055,-0.124012 0.10972,-0.385435 -0.97935,-1.017296 -0.12539,-0.699637 0.35439,0.05559 0.34175,0.890601 0.59999,0.74813 0.7094,-0.409971 0.0712,-1.221004 -0.59496,-1.071956 -0.72005,-0.03274 -1.4411,-0.01018 -2.16164,-0.01241 0.4157,0.241319 1.02501,0.428336 1.06929,0.982219 -0.10499,0.255103 0.45108,0.132456 0.56216,0.177662 z M 82.826527,77.0004 c 1.030355,-0.450366 2.059275,-0.932134 3.014593,-1.526277 -0.561966,-0.331058 -1.325375,-0.847836 -1.907588,-0.267917 -0.75094,0.440329 -1.482905,0.911846 -2.222891,1.370136 0.370396,0.144929 0.733182,0.313927 1.115886,0.424058 z m 16.512855,-0.345674 c 0.514851,-0.16149 1.362708,-0.277145 1.669668,-0.572513 -0.35455,-0.289677 -0.7346,-0.545808 -1.104258,-0.815445 -0.519074,0.172214 -1.072561,0.281533 -1.555656,0.53192 0.160423,0.388966 0.639626,0.645597 0.990246,0.856038 z m -3.641195,-0.116949 c 0.55028,-0.166541 1.072787,-0.412321 1.606858,-0.623735 -0.507097,-0.35164 -1.063958,-0.621651 -1.604098,-0.917567 -0.522911,0.188085 -1.045822,0.37617 -1.568733,0.564255 0.518766,0.329903 1.014371,0.70395 1.565973,0.977047 z M 81.376832,76.416865 c 0.957473,-0.440238 1.860314,-1.020152 2.707311,-1.646423 -0.391506,-0.270199 -0.867362,-0.387572 -1.304168,-0.571216 -0.999206,0.526236 -2.038487,0.986454 -2.992091,1.591523 0.510009,0.248202 1.037749,0.486964 1.588948,0.626116 z M 87.916104,76.1787 c 0.523331,-0.202352 1.37945,-0.459896 1.618768,-0.872772 -0.390514,-0.233724 -0.826115,-0.374678 -1.243106,-0.552449 -0.505162,0.240268 -1.043451,0.425057 -1.511297,0.733451 0.322922,0.296712 0.721701,0.542529 1.135635,0.69177 z M 92.219,76.055383 c 0.412397,-0.113502 0.77589,-0.350874 1.157077,-0.539147 -0.491889,-0.252783 -0.950251,-0.656185 -1.52262,-0.677578 -0.439374,0.124747 -0.852936,0.321558 -1.272811,0.4983 0.543287,0.244789 1.071149,0.532846 1.638354,0.718425 z m 9.47905,-0.106755 c 0.518,-0.09716 1.01575,-0.277892 1.52133,-0.423944 -0.38598,-0.251716 -0.78489,-0.488254 -1.2367,-0.590484 -0.45199,-0.292309 -0.96221,0.03069 -1.43038,0.123248 0.37465,0.303703 0.71077,0.675286 1.14575,0.89118 z m 5.19393,-0.147091 c 1.61631,-0.150559 3.25138,-0.174976 4.87025,-0.05734 0.42373,0.120709 0.31246,0.05141 -0.0211,-0.09684 -0.3,-0.143352 -0.58785,-0.339578 -0.93606,-0.273235 -1.60644,0.0072 -3.21965,-0.05051 -4.8179,0.142962 0.13272,0.215821 0.23083,0.508768 0.53275,0.347763 0.12403,-0.0211 0.24805,-0.0422 0.37207,-0.0633 z m -8.229448,-0.372779 c 0.386153,-0.122463 1.20383,-0.331928 0.426164,-0.608919 -0.345844,-0.167421 -0.688426,-0.418817 -1.043918,-0.531046 -0.551454,0.162817 -1.141357,0.258873 -1.654576,0.503594 0.408462,0.420278 1.001424,0.610318 1.50637,0.904017 0.25532,-0.08921 0.51064,-0.178431 0.76596,-0.267646 z m 5.434538,-0.0113 c 0.20107,-0.01589 1.20972,-0.210865 0.64364,-0.3552 -0.46935,-0.178959 -0.87954,-0.537973 -1.32775,-0.72238 -0.36452,0.07775 -0.72904,0.155489 -1.09356,0.233233 0.41702,0.30515 0.83404,0.610303 1.25105,0.915458 0.17554,-0.0237 0.35108,-0.04741 0.52662,-0.07111 z m -10.302844,-0.05649 c 0.413314,-0.17515 1.228983,-0.304245 1.350233,-0.646698 -0.45348,-0.254938 -0.950174,-0.418286 -1.428831,-0.618441 -0.442447,0.162985 -0.884893,0.325971 -1.327339,0.488957 0.467636,0.260264 0.92476,0.541599 1.405937,0.776182 z m -7.426492,-0.125125 c 0.541322,-0.09737 1.007585,-0.411189 1.495539,-0.648445 -0.546179,-0.210837 -1.081188,-0.455655 -1.643052,-0.622017 -0.477253,0.19345 -0.908433,0.48308 -1.358838,0.730652 0.494877,0.197237 0.976557,0.451867 1.506351,0.53981 z m 3.712217,-0.107689 c 0.497474,-0.149191 0.959937,-0.394402 1.436897,-0.597649 -0.472949,-0.191135 -0.945897,-0.382269 -1.418846,-0.573404 -0.437474,0.214373 -0.908321,0.376545 -1.309133,0.653433 0.416911,0.200868 0.849533,0.378646 1.291082,0.51762 z m 15.876599,-0.04443 c 0.20762,-0.143 1.26416,0.106136 0.82792,-0.233061 -0.47584,-0.35966 -1.02754,-0.597725 -1.5515,-0.877191 -0.29157,0.08387 -0.92725,0.01169 -0.96175,0.274655 0.36487,0.332479 0.778,0.605424 1.17164,0.901809 0.17123,-0.02207 0.34246,-0.04414 0.51369,-0.06621 z m -5.54578,-0.203277 c 0.14214,-0.07165 1.07084,-0.195818 0.73794,-0.349712 -0.48387,-0.219408 -0.95907,-0.511389 -1.448378,-0.685309 -0.410603,0.09189 -0.821206,0.183778 -1.23181,0.275666 0.638268,0.273717 1.270024,0.580348 1.942248,0.759355 z m 8.46711,0.01475 c 0.45434,-0.0018 0.90868,-0.0035 1.36302,-0.0053 -0.87465,-0.503052 -1.82198,-0.909181 -2.84385,-0.953718 -0.37798,-0.03203 -0.7567,-0.05457 -1.13501,-0.08233 0.42441,0.340664 0.8407,0.691246 1.25283,1.046626 0.45434,-0.0018 0.90867,-0.0035 1.36301,-0.0053 z M 84.436816,74.537119 c 0.531856,-0.134371 0.982063,-0.470439 1.46065,-0.726779 -0.428371,-0.146354 -0.856741,-0.292708 -1.285112,-0.439062 -0.489308,0.227748 -1.028864,0.37765 -1.462816,0.702649 0.367217,0.265154 0.84922,0.364422 1.287278,0.463192 z m 11.280327,0.0022 c 0.596983,-0.111428 1.17175,-0.316197 1.755316,-0.481618 -0.541724,-0.313954 -1.153969,-0.472216 -1.739124,-0.684887 -0.492307,0.173798 -0.984614,0.347597 -1.476921,0.521397 0.484792,0.219005 0.957036,0.472085 1.460729,0.645108 z m -7.359978,-0.192127 c 0.442208,-0.144323 0.861647,-0.347514 1.287278,-0.533277 -0.640816,-0.19092 -1.270657,-0.430891 -1.930918,-0.545882 -0.431318,0.08676 -1.633111,0.623111 -0.623353,0.782567 0.408905,0.135927 0.826659,0.327804 1.266993,0.296592 z m 13.984525,-0.0039 c 0.32925,-0.08055 1.04895,-0.194443 0.41762,-0.407658 -0.34103,-0.173042 -0.66949,-0.427014 -1.01819,-0.550757 -0.38553,0.09412 -0.7904,0.136613 -1.15481,0.29609 0.53341,0.30172 1.12568,0.659914 1.75538,0.662325 z m -10.356055,-0.07884 c 0.409501,-0.05494 0.790708,-0.219552 1.169449,-0.375842 -0.542844,-0.165695 -1.085689,-0.331391 -1.628533,-0.497086 -0.315302,0.138964 -0.630603,0.277928 -0.945905,0.416891 0.448016,0.203484 0.895218,0.47794 1.404989,0.456037 z m 11.935895,-0.323869 c 0.16001,-0.05816 1.25258,-0.05762 0.72278,-0.285737 -0.3195,-0.168352 -0.62511,-0.411742 -0.95326,-0.533364 -0.39031,0.06639 -0.78061,0.132774 -1.17092,0.19916 0.45539,0.228491 0.89141,0.5325 1.4014,0.619941 z m -5.675728,-0.156734 c 0.140452,-0.104427 1.201093,-0.147637 0.638422,-0.297494 -0.71378,-0.253912 -1.539303,-0.693272 -2.263904,-0.273942 0.09696,0.08595 0.995428,0.328881 1.329632,0.519029 0.09616,0.0276 0.193734,0.0612 0.29585,0.05241 z m -12.170631,-0.0713 c 0.531829,-0.212381 1.029292,-0.501723 1.541646,-0.756606 -0.665831,-0.1202 -1.378279,-0.466492 -2.020433,-0.09041 -0.292568,0.132085 -0.575128,0.284902 -0.86243,0.427869 0.446602,0.141093 0.889762,0.294211 1.341217,0.419142 z m 7.50463,0.006 c 0.536239,-0.135849 1.044705,-0.362441 1.564814,-0.548938 -0.568439,-0.172658 -1.136879,-0.345316 -1.705318,-0.517974 -0.454959,0.18495 -0.942383,0.311726 -1.362362,0.565951 0.486591,0.203476 0.997738,0.350393 1.502866,0.500961 z m 13.735469,-0.0085 c 0.61579,-0.03801 -0.5415,-0.384968 -0.75693,-0.485735 -0.33863,-0.09719 -0.66683,-0.299484 -1.01242,-0.328935 -0.34642,0.05199 -0.69284,0.10398 -1.03926,0.15597 0.83717,0.539179 1.8391,0.61433 2.80861,0.6587 z M 90.112544,73.601811 c 0.155003,-0.07158 0.987658,-0.332226 0.767315,-0.446189 -0.600745,-0.171279 -1.192198,-0.453991 -1.821284,-0.460762 -0.263916,0.07103 -0.973206,0.320047 -0.359846,0.414114 0.468268,0.171872 0.92933,0.371179 1.413815,0.492837 z m 9.736598,-0.223023 c 0.258598,-0.101144 1.252838,-0.114521 1.035608,-0.430734 -0.37695,0.111207 -0.10381,-0.275499 -0.56911,-0.1022 -0.627147,-0.07723 -1.267704,-0.379199 -1.894038,-0.128857 0.475529,0.221183 0.946178,0.453589 1.42754,0.661791 z m -8.552694,-0.362396 c 0.407608,-0.06663 1.295844,-0.290808 1.318262,-0.577305 -0.550886,-0.155092 -1.119093,-0.342148 -1.677072,-0.431129 -0.441097,0.164079 -0.915266,0.26663 -1.320973,0.504735 0.539567,0.220258 1.103735,0.40823 1.679783,0.503699 z m 4.579594,-0.11691 c 0.925816,-0.09412 -0.676639,-0.51513 -0.987276,-0.594862 -0.323406,-0.194583 -1.183913,0.163774 -0.433597,0.254249 0.462304,0.153474 0.931007,0.310718 1.420873,0.340613 z m 6.284258,0.0018 c 0.9049,-0.0959 -0.84735,-0.632286 -1.19918,-0.614471 -0.50043,-0.0032 -0.38839,0.146596 -0.004,0.266425 0.37799,0.179492 0.78302,0.319934 1.20295,0.348046 z M 87.737275,72.781494 c 0.199202,0.02506 1.140439,-0.214565 0.794927,-0.326033 -0.253388,-0.07768 -0.506776,-0.155363 -0.760164,-0.233045 0.762379,0.09879 1.583882,0.157274 2.254079,-0.29702 -0.0078,-0.281596 -0.768295,-0.241204 -1.097397,-0.361566 -0.341784,-0.113143 -0.655545,0.157751 -0.98323,0.231995 -0.544691,0.140195 -0.342728,0.539752 -0.974162,0.466512 -0.276328,0.0786 -0.859301,0.32368 -0.272094,0.345899 0.342179,0.07781 0.687308,0.148966 1.038041,0.173258 z m 16.067235,-0.112629 c 0.19629,0.0033 1.22568,-0.08549 0.67788,-0.232552 -0.46458,-0.140504 -0.96229,-0.501341 -1.44051,-0.255945 -0.27328,0.06745 -0.92377,-0.01965 -0.33674,0.169525 0.35083,0.151128 0.71495,0.292202 1.09937,0.318972 z m -6.87524,-0.121159 c 0.0121,-0.254015 -1.344005,-0.667782 -0.441389,-0.435275 0.583559,0.131118 1.255527,0.498908 1.816445,0.112314 -0.998629,0.01898 -1.955328,-0.492717 -2.960288,-0.264375 0.130569,0.226887 1.141534,0.400263 1.585236,0.58736 z m -3.657042,-0.350927 c 0.376105,0.08828 0.832061,-0.259547 0.2249,-0.323744 -0.656857,-0.15575 -1.388003,-0.460571 -2.025156,-0.08023 -0.07883,0.08745 0.446728,0.126332 0.611166,0.194233 0.391491,0.09172 0.787319,0.180557 1.18909,0.209745 z m 5.344154,-0.23499 c 0.304756,-0.37571 1.153511,0.173427 1.251081,-0.08248 -0.826262,-0.263186 -1.690205,-0.497135 -2.560414,-0.510277 -0.955885,0.148326 0.470025,0.43713 0.78573,0.495721 0.17381,0.03583 0.347289,0.0755 0.523603,0.09703 z m -4.115388,-0.122552 c 0.344047,-0.130991 0.652043,-0.384107 0.114749,-0.388345 -0.56245,-0.106167 -1.174766,-0.320903 -1.732326,-0.118377 0.308975,0.34512 1.139651,0.346607 1.617577,0.506722 z m 7.001836,-0.04932 c 0.36908,-0.02691 0.76927,-0.105579 0.18968,-0.265563 -0.92976,-0.308771 -1.939163,-0.601551 -2.920338,-0.398969 -0.428578,0.161123 0.116947,0.144871 0.30612,0.193507 0.816817,0.110151 1.600838,0.424779 2.424538,0.471025 z m -10.847851,-0.06428 c 0.125776,-0.05327 1.106591,-0.285887 0.631198,-0.352726 -0.787601,-0.191 -1.640207,-0.303407 -2.400026,0.04568 -0.03455,0.06463 0.461438,0.08194 0.633626,0.128134 0.378526,0.05882 0.757349,0.115889 1.135202,0.178912 z m 5.191806,-0.356144 c 0.140476,-0.04529 1.029287,-0.233666 0.792549,-0.312848 -0.796145,-0.17523 -1.642514,-0.444583 -2.430903,-0.09442 0.544969,0.139352 1.084729,0.305985 1.638354,0.40727 z m -4.037373,-0.124402 c 0.202081,-0.01563 1.106557,-0.158204 0.480423,-0.23451 -0.746534,-0.130585 -1.574003,-0.335312 -2.294316,8.77e-4 0.605128,0.07367 1.20667,0.181339 1.813893,0.233633 z m 5.50019,-0.34335 c 0.415933,-0.0036 0.822369,-0.09902 1.22877,-0.17702 -0.852874,-0.237128 -1.769245,-0.461419 -2.629798,-0.137602 -0.34908,0.06947 0.317101,0.112551 0.451317,0.169459 0.313715,0.06372 0.629739,0.124499 0.949711,0.145163 z m -4.212912,-0.11842 c 0.681733,0.141336 0.973281,-0.4792 1.641203,-0.362733 0.25098,0.0032 0.822515,-0.142321 0.212536,-0.185243 -0.688524,-0.05925 -1.38597,-0.128039 -2.074037,-0.143576 -0.495549,0.155187 -1.022041,0.2563 -1.485745,0.479996 0.533477,0.190278 1.144057,0.151271 1.706043,0.211556 z m 0.282811,-0.339044 c -0.443511,-0.125249 0.522878,-0.06026 0,0 z m 11.519729,27.627216 c -0.71998,-0.216537 -1.40828,-0.907068 -1.33759,-1.703408 0.0556,-0.462256 0.84912,-0.625974 0.33574,-0.08847 -0.14703,0.764561 0.72769,1.154576 1.09533,1.708472 0.13725,0.129737 0.0191,0.0704 -0.0935,0.0834 z m 1.98438,-0.250571 c -0.12296,0.37884 -0.32495,0.133291 -0.51884,-0.04814 -0.47585,-0.405643 -1.09362,-0.989932 -0.87356,-1.669826 0.70844,-0.465098 0.34872,0.954977 1.01774,1.103003 0.17362,0.278727 0.7981,0.253932 0.37466,0.614963 z M 144.23236,86.4813 c -0.43391,-0.223822 -1.41343,-0.597514 -1.19068,-1.165568 0.45098,0.316422 0.84098,0.743425 1.19068,1.165568 z M 78.58555,85.315736 c -0.612948,0.297621 0.352629,-0.425214 0.165298,-0.105654 l -0.07442,0.0524 z m 20.060092,-7.264809 c -0.443521,-0.125256 0.522886,-0.06025 0,0 z M 74.372638,77.475039 c -0.612946,0.29762 0.352629,-0.425214 0.165298,-0.105654 l -0.07442,0.0524 z"
       id="path1" /></g></svg>
