<?xml version="1.0" encoding="UTF-8" standalone="no"?>
<!-- Created with Inkscape (http://www.inkscape.org/) -->

<svg
   width="174.66391mm"
   height="226.29521mm"
   viewBox="0 0 174.66391 226.29522"
   version="1.1"
   id="svg1"
   xml:space="preserve"
   inkscape:version="1.4 (86a8ad7, 2024-10-11)"
   sodipodi:docname="corner14_all_assets.svg"
   xmlns:inkscape="http://www.inkscape.org/namespaces/inkscape"
   xmlns:sodipodi="http://sodipodi.sourceforge.net/DTD/sodipodi-0.dtd"
   xmlns="http://www.w3.org/2000/svg"
   xmlns:svg="http://www.w3.org/2000/svg"><sodipodi:namedview
     id="namedview1"
     pagecolor="#ffffff"
     bordercolor="#666666"
     borderopacity="1.0"
     inkscape:showpageshadow="2"
     inkscape:pageopacity="0.0"
     inkscape:pagecheckerboard="0"
     inkscape:deskcolor="#d1d1d1"
     inkscape:document-units="mm"
     inkscape:zoom="0.42671858"
     inkscape:cx="2445.4056"
     inkscape:cy="476.8951"
     inkscape:window-width="3840"
     inkscape:window-height="2126"
     inkscape:window-x="3829"
     inkscape:window-y="-11"
     inkscape:window-maximized="1"
     inkscape:current-layer="layer1"
     showgrid="false"><inkscape:page
       x="-6.189051e-13"
       y="-5.1979014e-14"
       width="174.66393"
       height="226.29521"
       id="page2"
       margin="0"
       bleed="0" /></sodipodi:namedview><defs
     id="defs1" /><g
     inkscape:label="Layer 1"
     inkscape:groupmode="layer"
     id="layer1"
     transform="translate(-273.97865,116.78136)"><path
       style="fill:#000000"
       d="m 358.01077,109.37215 c -8.12595,-1.18865 -16.3283,-2.92932 -23.56463,-6.97767 -4.18512,-2.00202 -7.98097,-4.740061 -11.13134,-8.148541 -4.4219,-4.67272 -8.75591,-9.76829 -10.6771,-16.02942 -2.59542,-7.73155 -2.53493,-16.11538 -0.92413,-24.04601 0.48557,-3.33104 1.92889,-6.37828 3.48213,-9.32107 1.47318,-4.75629 5.39999,-8.20245 7.34754,-12.738 0.602,-1.36513 1.36928,-2.6955 1.86529,-4.08528 -0.11872,-4.22812 0.35787,-8.53686 -0.62309,-12.68634 -1.06094,-1.91054 -1.8641,-6.3773194 -4.84824,-4.74496 -2.56085,0.21997 -5.06789,0.99239 -7.65254,1.18737 -8.91451,1.32825 -17.95616,1.30905 -26.94412,1.08618 -1.69373,-0.37332 -5.37328,-0.39311 -5.60953,-2.14545 1.72289,-1.6985694 3.83041,-1.4034294 6.04617,-0.9859797 4.97326,0.21348 9.93611,0.7548697 14.91404,0.7893797 5.05295,-0.3678 10.11632,-0.7682197 15.13804,-1.4362094 5.55971,-1.0444594 10.85753,-3.3476694 15.60591,-6.3905094 1.1136,-1.81140997 3.79754,-1.74908997 5.20695,-3.7034799 2.4224,-1.9885201 4.59181,-4.4040801 7.51321,-5.6562801 3.90501,-2.8556695 7.84499,-6.2677912 9.36201,-11.0255212 0.3432,-3.26414 0.0546,-6.59518 -0.33968,-9.8405 -1.94462,0.93034 -5.91334,0.0358 -5.93595,3.02491 -0.48149,2.27297 0.84796,1.59423 1.77315,0.35757 0.79345,-1.26908 2.03521,-1.17462 0.94864,0.32301 -1.04056,1.26471 -3.14338,3.2713 -2.21923,4.69956 1.19109,-0.94231 2.29617,-2.01636 3.59873,-2.79999 -0.34344,2.33419 -3.33969,3.22855 -3.84117,5.46003 -0.17656,1.43067 2.79061,-0.0568 0.89984,1.82507 -1.10293,0.76594 0.12933,3.803431 -1.69734,2.18246 -2.17072,1.122081 -3.96667,2.9559817 -6.11852,4.1791112 -7.33678,4.7156 -15.03598,9.26037003 -23.68226,11.0349 -5.64628,1.17195 -11.44553,2.17091 -17.21883,1.40682 -1.00394,-0.21127 -4.02517,-0.0944 -3.93212,-0.66475 10.20336,-0.79606 20.77159,-1.11164 30.2652,-5.3684899 6.06179,-2.5955001 11.4975,-6.3743501 17.05602,-9.8655513 0.85763,-0.6311 -0.15004,-2.78123 -1.05924,-1.46902 -1.53091,0.71577 -2.81697,1.814871 -3.07458,3.3768517 -1.60631,-1.7089607 -3.92903,1.1478295 -5.73776,1.5970995 -1.32821,0.21153 -3.02335,2.34701 -3.25988,2.20268 -0.11855,-1.21061 -1.30957,0.18777 -1.96983,0.29499 -4.27171,2.15429 -8.92124,3.5223501 -13.66484,4.1147501 -1.07978,0.29687 -0.47962,1.57755996 -1.26854,0.16583 -3.77199,0.14683 -7.60409,0.67964007 -11.39924,0.57892007 2.11164,-0.94069007 4.63896,-1.10716007 6.94019,-1.57595007 1.46126,-0.2337501 2.92853,-0.4267401 4.39361,-0.6344601 0.0505,-1.71059 0.10093,-3.42117 0.1514,-5.13176 -1.24339,0.054 -2.38045,-0.14771 -0.3374,-0.50415 0.64727,-2.2558602 0.24502,-4.8797512 0.73498,-7.2629512 0.006,-1.0524 0.62179,-3.10453 0.57911,-0.77926 0.37452,2.41277 -0.5627,6.012821 0.66892,7.6839512 1.85075,-0.9283002 5.49593,-0.4229595 6.23938,-2.3444702 0.0546,-1.355861 0.0753,-2.712741 0.11026,-4.069181 -0.73113,0.0415 -2.22324,0.2357 -0.70528,-0.17417 1.78124,-1.24726 0.87462,-4.18778 1.54422,-6.13173 0.25568,-0.86131 0.4462,-4.24946 1.10101,-3.78928 0.2621,2.96348 -0.2205,5.92567 -0.24745,8.88454 2.0662,-0.91191 6.22584,-0.4114 5.82388,-3.58583 0.30399,-2.54693 0.55818,-5.10037 0.92823,-7.639 -1.2089,0.0395 -2.4178,0.0789 -3.6267,0.1184 1.28018,-0.69123 2.67805,-1.18204 3.92819,-1.89501 0.42411,-1.20175 0.81808,-3.07962 -1.14554,-2.09827 -3.99998,0.56513 -8.0104,1.0927 -12.04306,1.35796 6.79731,-2.14681 14.03311,-2.66015 20.72784,-5.15044 1.96847,-0.9927 -0.67034,-4.19645 -2.3138,-2.38107 -8.43028,2.28528 -17.12135,3.62427 -25.83057,4.22545 -1.67762,0.11623 -3.35571,10e-4 -5.01889,-0.22158 10.37711,-2.11299 21.05138,-2.80597 31.21995,-5.8882 1.87209,-0.71721 -0.6056,-4.44278 -2.29906,-2.70816 -8.3171,2.1278 -16.72299,4.22256 -25.34713,4.49569 -5.85427,0.34564 -11.73936,0.063 -17.5088,-1.01178 -3.41938,-0.59648 -7.03115,-0.7934 -10.18905,-2.34488 -1.71472,-0.86968 2.21631,-1.0862 -0.0231,-1.23658 -1.22208,0.31658 -2.86698,-1.96808 -3.48727,-0.58572 -1.7496,2.45731 -1.95141,-1.80429 -1.25817,-2.95439 0.0548,-1.79856 1.19372,-4.56128 3.08174,-2.9706 2.14877,0.79455 4.74497,2.67739 6.94774,0.99261 0.54791,-2.33155 -0.96234,-4.80494 -1.06936,-7.21887 -1.13927,-7.63748 -1.53247,-15.3963 -1.2933,-23.10998 0.46056,-7.03863 3.28199,-13.77521 7.66263,-19.2699 2.86934,-3.891839 5.86424,-7.821139 9.99344,-10.462789 7.41902,-4.93221 16.06762,-8.70376 25.13329,-8.52504 4.74839,-0.16499 9.42244,1.03032 13.70059,3.04414 2.81978,1.30109 5.83925,2.38456 8.37749,4.14551 1.78831,1.73407 4.00777,3.0716 5.79808,4.85044 1.59436,1.64904 3.02916,3.12125 4.43184,4.907317 1.80077,2.607492 3.54448,5.355192 4.72167,8.268002 4.25941,3.04041 8.22891,7.20163 9.26479,12.51214 -0.6683,2.20608 0.0597,4.85894 -0.7041,7.23087 -0.84866,2.70824 -1.93334,5.53515 -3.93412,7.6016 -1.24839,0.16605 -2.95118,-4.02154 -3.28131,-0.69245 -0.60854,3.24962 -2.27334,6.11786 -3.70288,9.04334 -0.87502,3.57736 -2.69416,6.84625 -3.60163,10.41223 0.75594,2.46819 4.82748,-1.02919 5.66547,1.5745 1.49404,3.79929 -0.44241,7.8514 -2.73962,10.87281 -0.68724,0.98235 -3.61781,3.17096 -0.76921,2.58597 1.50925,0.006 -0.35032,2.78724 -1.20384,1.83015 -1.37754,-1.1165 -3.05732,-0.30838 -2.12419,1.56153 0.10191,3.22052 -0.70161,6.40084 -0.50645,9.63145 -0.0848,3.42829 -2.87431,5.863791 -4.84949,8.3711412 -2.87409,2.94361 -6.36021,5.19695 -9.38822,7.9721801 -2.96055,0.80022999 -0.12733,4.0551599 0.26596,5.9594199 0.63888,4.8527191 -0.83554,9.6709788 -1.62715,14.4304788 -1.03946,5.57249 -2.86448,10.98763 -5.57494,15.97187 -0.63855,0.75195 -0.40168,1.63533 -0.22078,2.51031 0.45647,3.24464 1.14895,6.56024 3.28206,9.16673 2.61527,3.8099 7.04375,5.84555 11.32947,7.17145 6.57271,1.47745 13.37876,2.9224 20.13836,2.01903 5.33278,-1.15313 10.55662,-3.18649 15.11257,-6.2103 2.11741,-1.82605 4.0284,-4.20584 4.58038,-6.99394 0.98979,-2.25967 0.22949,-4.94454 -0.003,-7.33104 -1.9381,-6.91009 -4.61903,-13.7709 -4.69888,-21.04609 -0.15173,-5.9561091 -0.47274,-11.9399588 -0.006,-17.8856688 0.79426,-4.11724 2.64176,-7.9566002 4.38783,-11.7417912 2.16934,-3.65319 2.72185,-7.97206 2.55019,-12.15222 0.10465,-4.38935 -0.006,-8.83328 -1.34993,-13.0559 -1.47419,-5.50086 -3.1037,-11.18314 -2.49076,-16.93029 0.61734,-3.48733 2.21657,-6.92797 5.20902,-8.98659 3.95225,-2.85495 8.16143,-5.41993 12.61259,-7.41512 3.76817,-1.1188 7.81051,-1.0079 11.68906,-0.67458 6.20423,1.32668 12.8145,3.46617 16.91192,8.60262 2.45636,3.05296 1.8524,7.20599 0.9424,10.71476 -0.66019,3.44362 -1.54458,6.89239 -1.56814,10.41726 4.11975,0.13969 8.26423,-0.0347 12.36151,0.44448 2.54352,0.013 1.93772,2.64557 -0.28129,2.3493 -3.95664,-0.41132 -7.96726,-0.28194 -11.91152,0.22321 -1.16794,0.96929 -1.00866,4.64352 -0.4204,5.49352 2.96084,-0.70749 6.09058,-0.91445 9.11525,-0.54558 1.19324,0.56498 -2.37466,0.94721 -3.07921,1.22692 -2.06424,0.81005 -5.25542,0.28461 -6.59196,2.01107 -0.52183,1.52916 -0.41741,3.49634 1.60398,2.05598 0.36267,-0.78823 0.29654,-4.03629 0.99404,-1.50778 0.55959,2.24619 3.78035,0.0141 5.5169,0.56586 1.18502,-0.28882 3.99417,0.38827 1.33691,0.78317 -2.1044,0.45564 -4.22621,0.82797 -6.32977,1.2888 0.0653,1.67899 0.32881,3.58254 2.4832,2.53489 2.17243,-0.43486 4.41844,-0.15775 6.44716,0.70497 -2.80436,0.20065 -5.59584,0.54418 -8.36905,1.00538 0.2338,1.45223 0.14236,3.91102 2.33511,2.82093 2.8298,-0.44288 5.6871,-0.17175 8.41519,0.65521 -1.42212,0.59586 -4.0076,-0.12964 -4.54442,1.01478 0.27627,1.01033 0.19279,2.45967 1.63426,2.15022 1.21549,0.0193 2.93183,0.43227 0.73856,0.78651 -2.68134,0.0228 -1.30648,3.84468 0.92127,2.98884 2.17069,0.82544 -2.22852,0.25803 -2.06035,1.37805 -0.0587,4.038761 0.0528,8.1091312 -0.43271,12.1125613 -0.5489,-1.0907301 -0.26703,-2.6298801 -0.35767,-3.9208101 -1.48563,0.2991 -3.25876,2.4e-4 -4.46776,0.97956 -0.0181,0.88117 -0.64293,2.7503401 0.0132,3.2639701 2.27852,0.23591 4.60871,0.24475 6.80962,0.92537007 -1.76085,0.71875989 -4.12202,0.41850992 -6.12431,0.71268989667 C 435.9174,0.44564026 432.25295,-0.17143971 432.33996,1.2217702 c 0.98402,0.80594 1.81236,1.45661 0.12342,0.73406 -1.51642,-0.87175 -2.9027,-0.69971 -3.33628,0.92745 0.58354,-1.80743 -3.15683,-1.00216 -2.46985,-0.416 0.29516,0.33863 2.13435,1.57542 0.93209,1.04301 -1.54344,-1.09621 -3.81039,-0.56685 -2.45453,1.46011 1.70627,-0.27022 4.7652,-1.02824 5.72944,-0.49599 -2.19662,1.13528 -4.55128,1.98957 -6.84267,2.87072 -1.53874,0.41952 -2.18211,1.9622494 -4.10296,2.5829391 -2.84356,1.3755197 -5.79437,2.7969097 -8.95498,3.2121297 -3.13642,0.46226 -4.78401,-3.5410197 -3.26538,-5.9435888 2.61075,-4.94548 8.20732,-6.85497994 12.85953,-9.3287499 3.53603,-1.7180701 6.95203,-3.7790701 9.62446,-6.7016001 -0.12965,-4.3406512 -0.24534,-8.7028712 -1.20591,-12.9567512 -1.2125,-8.31183 -0.55446,-16.75987 0.38045,-25.06507 0.47783,-4.75177 2.42642,-9.2603 2.61946,-14.04265 -0.65138,-3.45034 -3.80413,-5.71083 -6.44153,-7.6981 -3.43512,-2.05879 -7.46249,-3.00976 -11.41055,-3.46658 -5.21322,-0.16066 -10.60171,0.43833 -15.23087,3.02001 -3.75023,1.9678 -7.50725,4.28461 -10.15389,7.65315 -2.63861,6.11276 -0.92361,12.89175 0.58097,19.06516 1.18393,4.23496 2.1579,8.56234 2.0824,12.98725 0.26701,5.0374 -0.24294,10.18069 -2.34244,14.82079 -1.12758,2.85366 -2.57026,5.5976712 -3.71308,8.4315212 -0.9408,10.66829 -1.79325,21.6540488 1.32177,32.0652888 0.77035,2.95051 2.014,5.73241 3.02527,8.59974 2.13563,4.46041 2.37821,9.51812 4.03688,14.14638 1.28742,3.87996 2.62887,7.78711 2.80968,11.91036 0.86834,6.67513 0.74405,13.63921 -1.45773,20.05553 -2.76744,5.24567 -7.54188,9.13764 -12.47006,12.27841 -3.19909,1.98167 -6.48551,4.02428 -10.1385,5.022223 1.2944,-1.461273 3.44484,-2.411213 4.96031,-3.815833 0.44609,-0.50385 2.31833,-1.62192 0.62218,-1.26094 -1.08976,-0.0323 -2.86889,0.36904 -3.48002,-0.0536 0.79011,-0.71942 3.12793,-0.0895 2.88107,-1.53209 -0.19354,-0.63607 0.5037,-2.15328 -0.57151,-1.91723 -1.19893,-0.007 -4.46991,0.0384 -1.52544,-0.55645 0.75287,-0.34849 2.25044,-0.13022 1.83237,-1.36777 0.40063,-3.02759 -2.97382,-0.51379 -4.64782,-0.79777 -1.34179,0.19649 -1.43147,0.073 -0.12836,-0.40625 1.46976,-0.65354 2.95231,-1.27997 4.4039,-1.97318 -0.22843,-1.8984 0.17833,-5.27212 -2.67372,-3.6857 -1.47815,0.316 -2.99089,0.33068 -4.49463,0.30497 1.97041,-0.81539 4.10251,-1.32135 5.93091,-2.42067 1.15002,-2.79747 -3.14054,-0.64346 -4.69843,-1.0367 -0.79913,0.15155 -2.17118,-0.29822 -1.91238,0.96369 -0.27635,2.06294 -0.32292,4.22982 -0.86175,6.19841 -0.40637,-6.48396 0.0336,-13.04616 -0.88741,-19.50611 0.28086,-2.77858 1.2773,0.92943 1.43522,2.00438 -0.0377,1.38845 1.17761,0.21191 1.90301,0.0382 1.07855,-0.46993 2.1571,-0.93985 3.23565,-1.40977 -0.0823,-1.64335 -0.47391,-3.29356 -2.50074,-2.14526 -0.13094,-0.54041 3.03242,-1.82682 4.17641,-2.60277 3.4915,-1.9728 7.02616,-4.08515 9.71308,-7.11109 0.91562,-0.35147 0.26014,-3.3935 1.81081,-1.72659 0.91155,-0.28123 2.28764,-1.71616 0.4113,-1.28954 -2.31741,-0.54152 -3.77602,1.54687 -5.63949,2.4576 -6.57481,3.53495 -14.03338,6.11561 -21.59453,5.29065 -5.12382,-0.53193 -10.27569,-1.30505 -15.18906,-2.88472 -2.03696,-0.7165 -3.90618,-1.8052 -5.79302,-2.83756 -0.28348,0.88646 -0.56696,1.77293 -0.85044,2.65939 1.76523,1.13017 3.67596,2.28533 5.82618,2.34116 2.88264,1.31863 6.09694,1.78119 9.17746,2.47744 2.86207,0.43563 5.75278,0.62508 8.63432,0.88253 -5.50216,1.64565 -11.35195,0.77242 -16.79563,-0.67616 -2.0317,-0.77515 -1.85164,3.39471 0.40872,2.6164 1.3711,0.48504 3.7199,0.54271 4.33995,0.062 0.82006,1.41289 3.11018,1.07822 4.61253,1.59868 0.51684,0.16683 2.71511,0.38013 1.16321,0.48979 -1.90839,0.29732 -3.83127,0.56668 -5.76732,0.50683 0.24609,1.07202 -0.56931,2.95793 -0.0405,3.43958 2.7279,0 5.45581,0 8.18372,0 0.44382,-0.95267 -0.239,-4.22417 0.91467,-1.96713 0.16431,5.10505 -0.22118,10.22709 -0.5948,15.31892 -0.22806,0.98578 -0.40595,4.28662 -1.10631,2.04669 -3.21304,0.36892 -6.42078,0.88927 -9.65967,1.06178 -0.26109,1.21603 -0.52218,2.43205 -0.78327,3.64808 5.04168,0.0207 10.08337,0.0413 15.12505,0.062 -7.31702,1.71936 -14.88464,1.7909 -22.35326,1.36727 -0.002,1.45825 -1.02723,2.4005 -1.07422,0.15122 -2.24844,-1.42296 -5.5889,-1.78319 -7.45364,-4.18096 -0.84773,-0.62805 -3.22318,-3.2467 -0.69441,-1.75143 0.94101,-0.42651 0.0964,-4.0361 -1.80769,-2.23772 -2.37572,0.50213 -0.31844,-1.41191 -0.23114,-1.52955 -1.01295,-0.69125 -3.63429,-2.64286 -2.01394,-0.22924 1.57039,2.82168 3.41221,5.59793 5.91603,7.67231 -0.12275,1.57898 3.43743,2.56686 4.83051,3.62519 1.77414,0.95602 3.63465,1.74257 5.56718,2.31414 -2.50417,0.15534 -4.90463,-0.76567 -7.34675,-1.12763 -3.05665,-1.5257 -5.35972,-4.23579 -7.49508,-6.83826 -3.24564,-4.51043 -5.88308,-9.50826 -7.69659,-14.76229 -1.34235,-4.61384 -1.29421,-9.51561 -0.95595,-14.26559 1.73909,-6.88779 6.1332,-12.65707 9.47485,-18.8182 2.79287,-4.84533 5.55536,-9.77678 6.9502,-15.23765 1.38152,-5.25441 2.61315,-10.61306 2.91278,-16.0512588 0.0364,-2.29934 -0.55653,-4.54553 -1.14092,-6.74979997 -1.4091,1.58076997 -5.31658,1.31353997 -4.05611,4.23970997 0.78906,5.3124088 -0.9774,10.5731588 -2.47164,15.6089388 -1.43518,4.20932 -3.68671,8.06247 -5.40827,12.1431 -2.64851,4.36311 -6.35769,8.10425 -8.12384,12.98026 -1.9811,4.20666 -3.19239,8.69521 -4.17567,13.22295 -1.4991,5.29149 -0.44199,10.86909 0.65379,16.1321 1.08681,4.59474 4.51607,8.07012 7.14974,11.82914 2.12807,2.6371 4.0489,5.50457 6.60199,7.75335 1.27346,2.0439 3.54514,3.272703 5.54455,4.533247 6.31521,3.555384 13.2177,6.052014 20.39085,7.142174 6.6545,1.05247 13.58789,1.2292 20.15185,-0.45254 6.71118,-1.92666 11.92397,-6.879454 17.1191,-11.287231 1.80534,-1.77843 3.40058,-3.79525 4.83826,-5.88591 2.97443,-5.23883 5.66565,-10.80514 6.49259,-16.84145 0.42823,-2.82589 0.80862,-5.72613 0.48858,-8.57341 -1.50679,-3.15248 -2.29113,-6.66017 -3.40776,-9.98835 -1.25338,-4.21988 -2.72818,-8.42204 -3.17345,-12.81899 -2.07507,-6.46912 -4.3807,-12.86497 -6.38422,-19.35493 -0.94645,-4.3536 -1.79595,-8.82527 -1.53171,-13.2955888 0.59352,-5.12859 2.03128,-10.1201899 3.43877,-15.07204 1.72431,-2.9444602 4.09282,-5.8945512 7.57623,-6.7175312 4.63057,-1.5637 9.4532,-2.85551 14.39054,-2.44334 4.04781,0.21706 8.78321,0.4809 11.46389,4.00719 2.30546,2.229311 -0.53574,4.5953212 -2.43385,5.7784212 -4.25235,2.23234 -8.757,4.1375301 -12.73913,6.78359006 -2.06103,1.47961994 -4.10309,3.25768994 -5.40134,5.46277994 -1.58302,3.5133694 0.37128,7.3439788 2.72005,9.9795088 2.21645,2.52851 5.78852,1.4566 8.47258,0.45581 3.75897,-1.44842 7.2569,-3.49643 10.608,-5.6999 4.43267,-2.4672388 9.64691,-2.5705788 14.58496,-2.4578788 1.86176,0.0736 1.89399,2.5781588 -0.31944,2.0123488 -5.26057,0.59276 -10.67555,1.14996 -15.40447,3.73966 -4.82037,2.32612 -9.56535,5.69224 -15.12698,5.63325 -3.86861,-0.15035 -6.2378,-3.73046 -7.62134,-6.94028 -1.12931,-2.20707 -1.1938,-4.7826888 -0.27004,-7.0712688 1.30319,-4.19135 3.18997,-8.29093 3.27283,-12.76046 -0.32009,-1.73247 1.08502,-5.8471212 -1.34116,-5.7414612 -2.93549,0.98881 -6.55229,1.603071 -8.31338,4.4370212 -0.82065,3.00428 -0.63718,6.1914901 -0.85574,9.28318003 -0.19625,2.27073997 0.68892,4.50364997 0.41291,6.73435997 0.59565,5.3284788 1.85869,10.5605088 3.80475,15.5584588 1.50223,4.24754 3.40474,8.33726 5.30301,12.41309 0.75964,4.85625 0.13114,9.81585 0.3024,14.71265 -0.0238,6.21463 0.75853,12.41546 0.24341,18.62932 -0.285,5.63848 -2.62922,10.90611 -4.75017,16.05446 -2.2078,4.36795 -3.75601,9.23548 -7.36158,12.72158 -4.00298,4.452411 -9.581,6.867521 -14.86916,9.403931 -5.899,2.86495 -12.62581,2.51542 -19.00489,2.60931 -0.19882,0.28785 -0.61653,-0.22408 -0.83806,-0.052 z m 25.47778,-19.521501 c 1.12669,-0.51829 3.89703,-2.90699 0.9344,-1.83418 -2.00264,1.34954 -6.42247,-0.18307 -6.55259,3.03211 -0.61754,1.39565 0.65699,0.73296 1.49834,0.54151 1.45682,-0.34735 2.856,-0.93518 4.11985,-1.73944 z m -37.60956,-2.24654 c 9.9e-4,-0.79098 0.73723,-2.18314 -0.60966,-1.87204 -1.53476,-0.063 -3.08953,-0.32357 -4.61462,-0.0868 -0.007,0.83184 -1.08768,2.94035 -0.13254,3.24724 1.63138,0.0744 3.29453,0.62085 4.89081,0.38766 0.4146,-0.43695 0.3493,-1.12278 0.46601,-1.67603 z m -7.21252,-0.73495 c 0.72278,-3.1355 -3.91611,-1.81758 -5.62608,-1.13669 -1.20741,0.86401 2.68621,1.5158 3.49337,2.0971 1.35222,0.53747 2.11886,0.94017 2.13271,-0.96041 z m 41.85341,0.5941 c 1.73842,-0.52063 3.4476,-1.13151 5.13985,-1.78535 0.10972,-1.39326 0.11181,-3.9806 -1.99791,-2.6732 -1.78335,0.78808 -3.57767,1.55303 -5.41042,2.22007 -0.0147,1.52162 -0.35871,3.79706 1.84549,2.36582 l 0.42302,-0.12734 z m -47.89398,-2.83707 c 3.17518,-0.54236 -2.97196,-2.62738 -1.30543,0.25367 0.45003,0.006 0.87212,-0.16342 1.30543,-0.25367 z m 56.37373,-0.68564 c -1.15407,-1.35389 -2.42941,0.56078 -1.49446,0.85006 0.50146,-0.27055 1.09184,-0.43104 1.49446,-0.85006 z m -31.38573,-4.13899 c 0,-1.53048 0,-3.06097 0,-4.59145 -2.75908,0.94336 -5.71986,0.5223 -8.54916,0.91467 -0.27989,1.32664 -0.33123,2.689 -0.47872,4.0349 1.21059,0.0303 1.90387,0.0331 0.26218,0.36345 -1.33412,1.631 -0.77906,3.89749 1.68349,3.25947 2.37019,0.11038 4.721,0.4604 7.08221,0.61041 0,-1.53048 0,-3.06097 0,-4.59145 z m -10.96725,2.3304 c 0.88871,-2.49879 -2.29425,-1.53781 -3.84059,-1.83823 -1.13292,-0.25881 -1.92797,-0.059 -1.68497,1.27732 0.54049,1.03308 -0.87699,1.84407 1.15226,1.8517 1.32365,-0.01 3.08412,0.36056 4.20767,0.0347 0.0552,-0.44184 0.11042,-0.88367 0.16563,-1.3255 z m 35.30891,-0.33894 c 2.36098,-0.70347 4.25135,-2.72861 2.75914,-5.03815 -2.38312,0.79232 -4.65458,1.94236 -6.95434,2.94092 -0.2449,1.46744 -0.0172,5.3385 2.29793,3.09636 0.6364,-0.32542 1.26837,-0.65946 1.89727,-0.99913 z m -42.95463,0.94752 c 1.01725,-1.72144 0.30264,-3.90918 -1.92894,-2.77804 -1.07775,0.41824 -5.6431,1.37156 -2.37051,2.11237 1.33055,0.16823 3.09641,1.4256 4.29945,0.66567 z m 52.5313,-0.3814 c 1.98982,-2.0189 -3.74816,-2.89254 -4.55782,-0.81942 0.3278,1.08004 3.8028,2.04625 4.55782,0.81942 z m -60.66762,-3.83934 c -0.51546,-0.93029 -3.61529,0.66542 -1.06223,1.21683 1.02776,1.03148 0.81134,-0.4945 1.06223,-1.21683 z m 3.40157,1.05683 c 0.4528,-0.27706 2.68179,-0.42256 1.48725,-0.82163 -1.13703,-0.29287 -3.07815,-2.21275 -3.44737,-0.24105 -1.10756,2.50564 0.40752,1.39359 1.96012,1.06268 z m 12.95205,-1.59976 c 1.24743,-3.23021 -2.96232,-2.42457 -4.92086,-2.74151 -0.71397,0.29798 -1.11655,3.05336 0.4363,2.24315 1.08829,-0.14841 1.98703,-0.2448 0.48039,0.31891 -1.64718,0.14452 -2.32033,1.39798 -0.24201,1.4485 1.7247,0.0657 4.55319,1.81469 4.24618,-1.26905 z m 45.58525,0.85989 c 0.21083,-2.01479 -3.50129,1.1774 -0.5611,0.72079 0.46161,0.202 0.65747,-0.41176 0.5611,-0.72079 z m -1.31844,-2.38462 c 0.33399,-1.06763 -3.30489,-1.4217 -4.36231,-1.12413 -2.31312,2.5143 1.50298,3.95041 3.28635,1.81892 0.37026,-0.21273 0.73412,-0.43832 1.07596,-0.69479 z m -51.59532,0.86327 c -0.16296,-1.138 1.04594,-2.94131 -0.77915,-2.93791 -1.86991,-0.53674 -3.59743,-1.44487 -5.30571,-2.35701 -0.65493,1.67045 -1.18848,4.4634 1.65577,3.82622 2.0375,-0.44885 -1.30354,0.80853 0.9536,1.10276 0.86153,0.19793 3.2719,2.06976 3.47549,0.36594 z m 43.05803,-1.79077 c 1.44962,-0.2025 1.85668,-1.48663 1.14967,-2.24413 -1.19353,0.22868 -4.28041,2.31976 -6.3082,2.94033 -1.57977,0.28476 -0.57628,2.62685 0.63154,1.27164 1.51052,-0.65241 3.0201,-1.30732 4.52699,-1.96784 z m -54.21416,1.8388 c 1.27905,-0.18168 2.81414,-0.71117 0.83212,-1.56958 -1.1616,-1.08801 -3.16787,-1.79088 -2.70366,0.64582 -0.45934,1.9021 0.72154,1.21665 1.87154,0.92376 z m 43.56468,-1.12612 c 0.97014,-0.32414 1.94028,-0.64829 2.91042,-0.97243 -0.056,-1.6213 0.13075,-3.95536 -2.17383,-2.52323 -1.11822,0.41147 -4.42541,1.21563 -1.70221,-0.0261 2.55015,-0.44935 4.53465,-3.05252 2.51351,-5.14498 -1.57917,0.47326 -3.18781,0.84257 -4.79512,1.20703 0.0586,2.81679 -0.0478,5.64537 0.20453,8.45179 1.02044,-0.31092 2.0298,-0.6577 3.0427,-0.99208 z m -46.69896,-1.10472 c 1.15674,-2.98713 -4.7509,-0.81008 -1.57615,0.60181 1.20306,1.31291 1.73564,1.20061 1.57615,-0.60181 z m 32.19756,-2.84427 c 0.18314,-1.38502 0.77859,-3.44885 -1.28966,-2.26027 -2.27751,0.64305 -4.62495,0.96381 -6.9631,1.29431 -0.54126,1.93054 0.44618,3.22658 2.60673,2.90432 1.93456,-0.14377 5.76977,2.03695 5.56423,-1.23398 l 0.04,-0.3346 z m 21.52955,1.17297 c 1.40758,-1.00823 5.75017,-1.98968 3.53505,-4.12634 0.72817,-1.23225 -3.33816,0.95248 -4.28303,1.27688 -2.08322,0.32789 -3.19091,2.1704 -1.7976,3.99159 0.8894,-0.27271 1.71042,-0.74029 2.54558,-1.14213 z m 12.42724,-0.0227 c -0.0655,-1.39351 -0.90478,-0.55501 -1.62286,-0.0661 -1.64197,0.67804 0.15101,0.73422 0.96358,0.94972 1.11627,0.39748 0.93696,-0.0876 0.65928,-0.88361 z m 2.79635,0.49105 c 0.0425,-2.27491 -2.30135,-0.2801 -0.37004,0.69737 0.24775,-0.13697 0.28496,-0.4624 0.37004,-0.69737 z m -62.76708,-2.207 c -2.45947,-0.11464 -3.54001,1.25327 -1.04726,2.24779 1.03334,1.12532 0.75742,-1.83767 1.04726,-2.24779 z m 16.09156,0.83026 c 0.51723,-1.26402 -0.74284,-1.06797 -1.62162,-1.18517 -1.5431,-0.0455 -4.71118,-1.27188 -3.90352,1.40056 1.39218,0.13403 5.19651,1.86689 5.52514,-0.21539 z m 40.20676,0.14852 c 0.71234,-0.44735 2.01174,-0.955 0.46699,-1.1705 -1.83626,-1.79079 -4.29453,2.45075 -1.50107,1.75352 0.3566,-0.17271 0.69666,-0.37623 1.03408,-0.58302 z m -63.8444,-0.44921 c 0.7139,-1.397 -2.07978,-1.21568 -0.72612,0.20967 l 0.32259,-0.0206 z m 16.32981,-0.40599 c 0.16185,-2.66531 -3.83473,-2.57423 -5.63198,-3.80816 -1.26167,0.89473 -0.0473,2.25064 0.91724,1.98524 -0.88769,1.06815 2.76361,1.70035 3.64633,2.31527 0.46495,0.25021 1.05078,0.10615 1.06841,-0.49235 z m 54.35349,-1.21155 c 0.005,-2.07334 -2.79214,1.49879 -0.19711,0.69713 l 0.15907,-0.23231 z m -72.97376,-1.41212 c -0.99256,-0.54066 -0.11257,3.45544 -0.0633,1.22881 0.0643,-0.4048 0.13857,-0.81878 0.0633,-1.22881 z m 8.00988,1.58513 c 1.27628,-0.11469 1.48172,-0.44349 0.26987,-1.05569 -1.11543,-1.13999 -2.66002,-1.43119 -2.43676,0.71068 -0.23714,1.30787 1.56926,0.34366 2.16689,0.34501 z m -3.59451,-2.32769 c -0.19444,-0.58223 -3.07633,-0.0368 -1.52263,0.72711 0.65677,0.73368 1.39418,1.71485 1.39155,0.12881 l 0.0599,-0.33012 z m 53.5135,-0.26829 c 0.93816,-0.5196 1.87633,-1.03919 2.81449,-1.55879 -0.19977,-1.61614 -0.9325,-3.49175 -2.70573,-1.71319 -1.86627,1.26444 -6.13395,1.43112 -4.36479,4.6255 0.4172,1.74043 3.1863,-1.17867 4.25603,-1.35352 z m 10.80794,1.95995 c 0.15727,-2.98052 -3.42343,0.8395 0,0 z m 2.76518,-1.36226 c -0.90258,-1.6485 -2.09904,0.70918 -0.63045,0.49462 l 0.38534,-0.25242 0.24508,-0.2422 z m -45.0949,0.0101 c -0.36469,-0.92059 1.17983,-3.15118 -0.52467,-2.97757 -1.44773,-0.17869 -2.89516,-0.4517 -4.32902,-0.64598 -0.16318,0.92005 -1.39854,3.3365 -0.19301,3.64017 1.63564,0.24147 3.41541,0.73752 4.99689,0.23695 z m 39.06397,-0.23536 c 3.58579,-2.26255 -5.42757,-1.85654 -2.151,0.69096 0.77603,0.1159 1.51085,-0.30647 2.151,-0.69096 z m -54.5713,-1.19644 c 0.78344,-1.71141 -3.65678,-0.47986 -2.40007,0.0211 0.85712,0.53696 2.30852,2.0445 2.40007,-0.0211 z m 8.61845,-1.04428 c 0.9359,-2.8324 -3.49118,-2.97804 -5.206,-4.14826 -1.76072,1.23432 0.41435,2.65667 0.20158,2.70039 -2.60984,1.15175 2.17794,2.06309 3.18005,2.75041 1.26754,0.85312 1.70743,-0.13083 1.82437,-1.30254 z m -15.73136,0.31984 c -0.45357,-1.30196 -1.71572,-0.94371 -1.30973,0.35375 0.45408,0.0267 0.94892,-0.0571 1.30973,-0.35375 z m 68.02584,-0.14803 c -0.86669,-0.95209 -0.98483,1.29967 0.0952,0.33424 l -0.0951,-0.33422 z m -70.94809,-1.32878 c 1.46934,-1.78955 -3.09064,-1.85115 -1.85076,-0.71153 0.66174,0.71442 1.68504,3.33688 1.85076,0.71153 z m 66.33201,0.0944 c -1.11039,-0.10181 -2.32198,1.26316 -0.46917,0.91199 0.53397,0.0284 1.01045,-0.476 0.46917,-0.91199 z m -58.71154,0.0774 c -0.29433,-1.65543 -2.02817,-1.40004 -1.57834,0.39529 0.52403,0.11576 1.11028,-0.17831 1.57834,-0.39529 z m 55.25437,-0.49919 c 0.41778,-0.40347 2.39449,-1.11444 0.89013,-1.13878 -1.34063,-0.21499 -4.27217,-1.2447 -3.13089,1.19356 0.19176,1.85826 1.42614,0.27533 2.24076,-0.0548 z m 6.3239,0.0871 c 1.62498,-0.91366 -1.17349,-0.91123 -1.21893,-0.24295 0.0587,1.15228 0.56785,1.00184 1.21893,0.24295 z m -15.44857,-0.42054 c 1.54089,-0.8583 6.71571,-2.51062 4.22181,-4.39132 -2.30757,0.72582 -4.4899,1.79868 -6.72415,2.71613 -0.1769,1.36567 0.6242,3.3196 2.13558,1.83939 z m -49.16762,-0.77977 c 1.25695,-1.6943 -3.17001,-0.72525 -1.63659,0.0246 0.67385,0.74443 1.45696,1.65828 1.63659,-0.0246 z m 6.41341,-0.58563 c 0.58809,-1.33763 0.76419,-2.68252 -1.0498,-1.60943 -1.65188,0.0766 -2.58713,0.97882 -0.70346,1.92871 0.83617,0.83172 1.5849,1.16364 1.75326,-0.31928 z m -12.46545,-0.70688 c 0.49303,-0.62966 -1.23458,-3.03841 -0.76391,-1.0049 -0.004,0.49181 -0.0841,1.73064 0.76391,1.0049 z m 71.1974,-0.1374 c -0.46423,-1.67084 -1.5947,1.6341 0,0 z m -49.83143,-1.25357 c 0.56316,-1.93391 -2.71539,-1.83117 -3.91676,-2.91413 -0.80173,-0.50164 -1.58335,-0.95668 -1.59674,0.3682 -0.41636,2.38938 3.38408,2.85534 5.04307,3.77081 0.21952,-0.38218 0.33885,-0.80802 0.47043,-1.22488 z m 45.47108,0.37806 c -0.0653,-2.5918 -2.17029,-0.29297 -3.19993,0.40698 -0.80334,0.70192 2.38435,0.20512 2.89337,0.53622 0.61547,0.16613 0.33498,-0.69243 0.30656,-0.9432 z m -63.75608,-2.90394 c -0.64038,0.29081 -3.58905,-0.31091 -2.27733,0.97511 0.48285,0.72722 0.9657,1.45444 1.44854,2.18166 0.28301,-1.05018 0.62758,-2.08666 0.82879,-3.15677 z m 2.23518,2.87019 c -0.94822,-2.227 -1.61515,1.25989 0,0 z m 67.61521,-1.52534 c -1.03716,-1.87399 0.15448,3.32773 0.0885,0.63612 l -0.0326,-0.3371 z m -3.49279,0.50076 c 1.39749,-1.12371 -0.19858,-1.41058 -1.35221,-1.34942 -0.27054,0.8991 0.3079,3.64066 1.35221,1.34942 z m -6.28222,-0.51406 c 1.75614,-0.65444 1.47873,-1.92829 0.82723,-2.15856 2.1043,0.81782 2.10767,-1.50857 1.12615,-2.16663 -1.40594,1.29317 -2.85745,2.5463 -4.44658,3.61088 -0.0768,2.45877 0.9202,2.05354 2.4932,0.71431 z m -50.17798,0.71249 c -1.39867,-0.98469 -4.08151,-3.88395 -4.12434,-0.46593 -0.37031,1.30116 3.31445,0.41151 4.12434,0.46593 z m -5.70766,-1.43063 c 1.84099,-2.3158 -3.26452,-1.39038 -0.92766,0.13276 0.34208,0.56242 0.82018,0.68413 0.92766,-0.13276 z m 6.98812,-1.8293 c 0.89456,-1.73666 -1.62396,-2.57922 -2.58936,-3.76083 -1.12001,-1.61561 -0.9792,0.89109 -1.42167,1.64429 -0.26242,1.37566 4.23162,0.15866 3.55925,1.18648 -0.56951,0.34362 -3.11901,0.29036 -1.47074,1.04069 0.63853,0.54007 1.73776,1.20575 1.92252,-0.11063 z m 55.42773,0.0849 c -1.3003,-1.97631 -1.34021,2.3383 0,0 z m -67.72683,-0.54008 c -0.28752,-0.70541 -0.74231,-3.57836 -1.20737,-1.56244 -0.81973,1.20772 -0.96765,3.04147 0.9893,1.89418 l 0.1755,-0.15294 z m 4.90147,-1.22489 c -1.75184,-1.14799 -0.39425,1.79616 0.50526,0.53782 -0.16842,-0.17927 -0.33684,-0.35855 -0.50526,-0.53782 z m 65.03092,-0.7573 c -1.73775,-1.78102 -0.43045,3.1947 -0.13082,1.18706 0.13225,-0.3778 0.21865,-0.78617 0.13082,-1.18706 z m -3.87375,0.60404 c 2.37954,-1.25155 -1.64977,-1.84036 -1.39941,-0.84261 0.32999,0.96978 0.30037,2.55909 1.39941,0.84261 z m -63.23161,-2.00763 c -1.79769,-0.21661 -2.95746,0.61081 -1.40868,2.06185 0.68633,1.83604 0.98432,-1.88654 1.40868,-2.06185 z m 4.16554,-0.19909 c -2.37571,-0.68498 0.36158,2.77184 0,10e-6 z m 7.09672,-0.0614 c 0.81954,-0.80283 0.32599,-1.45034 -0.40922,-2.06928 -1.24991,-0.77081 -2.54715,-4.8579 -3.39361,-1.93968 -1.47384,1.60719 0.32779,2.82508 1.67614,2.78837 -1.48542,0.45181 2.19587,3.48383 2.12669,1.22059 z m 64.21227,-2.22976 c 0.009,-0.81223 -0.40969,-4.30215 -0.76805,-3.61116 -0.5275,1.97558 0.12378,3.95377 0.84061,5.79397 0.0101,-0.72768 -0.0441,-1.45593 -0.0726,-2.18281 z m -76.59137,1.48494 c 1.13535,-0.1297 -0.36248,-3.76911 -0.65446,-2.14175 -0.37772,0.77015 -0.75544,1.5403 -1.13316,2.31045 0.60026,0.007 1.20446,-0.0127 1.78762,-0.1687 z m 5.83693,-0.77186 c -0.43624,-0.83588 -1.36385,-2.97448 -1.60628,-0.93116 -1.08772,1.90693 0.32612,1.20791 1.60628,0.93116 z m 61.00078,-0.007 c 0.64105,-2.37384 -2.14433,-0.27147 -0.18428,0.32093 z m -63.81253,-2.72606 c 0.34125,-0.81678 1.14167,-1.89319 -0.31935,-1.69097 -2.9942,-1.4369 -0.58333,5.58529 0.18016,2.00377 l 0.13919,-0.31278 z m 60.03382,0.76694 c 1.08639,0.34001 0.26174,-3.42741 -0.3067,-1.86607 -0.61816,0.9602 -2.71956,2.84873 -0.37055,1.91927 l 0.35814,-0.0382 z m -55.82575,-2.59931 c -2.37775,-0.92579 -1.04001,2.57992 -0.37756,2.38301 0.5135,-0.76696 1.027,-1.53391 1.54049,-2.30086 -0.38764,-0.0274 -0.77528,-0.0548 -1.16293,-0.0822 z m 58.15897,-1.30691 c -0.12725,-1.92859 -1.98733,-0.0954 -0.72172,1.0103 0.48422,1.59687 0.71565,-0.55841 0.72172,-1.0103 z m -62.40144,-0.0661 c 0.82055,-0.18799 0.74042,-3.37349 -0.13637,-1.48165 -0.67255,0.83015 -1.9802,2.31507 0.13637,1.48165 z m 4.80344,-1.07946 c -0.30104,-1.96278 -1.05287,-0.0924 -1.31543,0.89271 0.93203,0.43719 2.31069,0.35313 1.32153,-0.8772 z m -0.95454,-3.34028 c -1.76005,-0.65502 -2.67825,1.54201 -1.5764,2.48833 0.6348,-0.73986 1.22332,-1.57528 1.5764,-2.48833 z m 58.11461,1.57547 c -0.03,-0.94913 -0.68025,-2.74049 -0.57907,-0.66146 -0.38005,0.89749 0.78074,2.88699 0.57907,0.66146 z m 11.82955,-1.76389 c -0.10683,-2.82945 -0.6465,3.64443 -0.0199,0.43128 z m -70.06518,-2.00643 c 0.73908,-2.57267 -2.28434,1.41081 -0.8306,1.05834 0.69517,0.15441 0.82604,-0.5426 0.8306,-1.05834 z m 68.83894,-4.17011 c -0.56583,-2.35322 -1.37016,2.15183 -1.19808,2.97667 0.40307,3.11899 1.35693,-2.24069 1.19808,-2.97667 z m -1.80915,-2.45431 c 0.56282,-0.9327 0.13131,-2.89729 -0.2963,-0.9162 -0.34229,0.70001 -0.59635,3.40747 0.1675,1.28851 z m -3.3622,-4.68651 c 0.94113,-0.94562 2.38277,-4.69235 0.70341,-4.45428 -0.49871,1.28714 -2.87371,4.40058 -1.18959,4.81454 l 0.22682,-0.15143 z m -0.23255,-8.98912 c -0.27136,-1.63158 -0.57441,-0.0602 -0.86951,0.70819 -0.14422,1.4133 -2.54176,4.01242 -1.00853,4.70714 0.71478,-1.67239 2.28333,-3.52675 1.87804,-5.41533 z m -68.15414,-0.80047 c 0.19147,-2.24082 -1.41844,-1.57499 -0.86856,0.24766 0.17384,0.65143 0.45857,4.44013 0.70429,3.22407 0.23461,-1.14086 0.25667,-2.3133 0.16427,-3.47173 z m 65.4779,0.79375 c 0.51933,-2.06236 1.94471,-4.04032 1.28333,-6.21249 -0.17717,-0.57999 -0.6382,1.36928 -0.92847,1.79709 -0.61836,1.81632 -1.99992,3.68426 -1.29754,5.65504 0.30869,0.97537 0.78447,-1.02111 0.94268,-1.23964 z m -63.18945,-2.79374 c 0.38608,-1.39313 -0.80449,-3.24492 -1.00381,-0.82983 -0.0991,1.22282 1.101,4.03168 1.00007,1.16171 l 0.004,-0.33188 z m -3.537,-3.26718 c -0.3329,-1.7136 -2.02108,-5.5292288 -3.78069,-3.2500097 1.69351,1.4145397 2.66132,4.8039697 4.06085,5.5546597 0.44271,-0.72189 -0.11692,-1.5876 -0.28016,-2.30465 z m 66.37311,-1.19249 c 0.41441,-0.8415 1.84604,-4.3225988 0.68886,-3.7612588 -0.83893,1.7329291 -3.36087,5.3472488 -1.8893,6.4301288 0.4391,-0.87124 0.80189,-1.77884 1.20044,-2.66887 z m -63.99882,-0.27399 c 1.08143,-1.7709697 -0.49541,-5.7062488 -2.61382,-3.5692188 -0.99438,0.7452497 1.34043,2.3968088 1.39062,3.5530488 0.36236,1.50453 0.5385,1.39939 1.2232,0.0162 z m 3.24633,-2.0637394 c -0.68154,-0.7614797 -1.18379,2.8712594 -0.61719,3.1683694 0.24569,-1.04737 0.54178,-2.09055 0.61719,-3.1683694 z m 79.67668,1.4813394 c -0.54136,-0.70475 -2.76507,-1.6022494 -1.23578,-0.11174 0.287,0.0718 1.00974,0.52826 1.23578,0.11174 z m 3.38071,-0.8348897 c 1.69218,-0.9984694 -2.66887,-2.7304791 -1.50635,-0.24695 4.6e-4,0.9908197 1.03108,0.6896297 1.50635,0.24695 z m -3.38071,-1.5641891 c -0.42727,-1.64958 -1.97125,1.1220794 -0.0399,0.4275697 z m 6.62772,-0.0151 c 2.23462,-0.98215 -2.23611,-3.228 -1.06,-0.32466 -0.11563,1.1350794 0.47707,0.5840897 1.06,0.32466 z m -27.26522,-0.39008 c 0.41524,-1.54573 -1.26663,0.6923597 -0.23615,0.37372 z m -59.53465,-2.73403 c -1.32267,-0.91679 -3.22142,1.55611 -1.35856,2.84384 0.42467,0.5323797 1.23942,-2.58167 1.35856,-2.84384 z m 83.80528,1.51647 c -2.26083,-0.24858 0.61109,1.9072097 0,0 z m 6.45876,-0.25716 c 1.89271,-0.26172 -1.8605,-2.38293 -1.09606,-0.59197 -0.17078,1.03141 0.25902,1.15262 1.09606,0.59197 z m -2.68356,-0.90653 c -0.30208,-0.84498 -0.60021,0.92201 0,0 z m -5.09322,-0.16676 c 1.93857,-1.30665 -2.75993,-0.362 -0.48699,0.11852 l 0.48694,-0.11856 z m 9.59114,-1.28278 c -0.22681,-1.16535 -2.3091,0.36104 -0.292,0.54038 0.42837,0.47928 0.20285,-0.54613 0.292,-0.54038 z m -5.98721,-0.10512 c 0.90058,-0.85905 -2.39855,-1.45342 -0.72989,0.17451 l 0.27477,-0.0152 z m -2.28653,-0.19269 c -1.06025,-0.2451 -0.52601,0.48459 0,0 z m 3.77582,-1.55994 c -1.32945,-1.63804997 -0.92782,1.55122 0,0 z m 3.56606,-0.2792 c 1.93429,-0.37801 -0.13671,-0.97270997 -1.03052,-1.20408997 -2.78289,-0.24218 -1.09049,3.24323997 1.03052,1.20408997 z m -29.57906,-0.69645 c -0.51932,-0.24238 0.20831,1.17167 0,0 z m 16.65586,-3.3051999 c 0.19478,-2.4605001 -2.58899,1.28717007 -2.81109,2.16907996 -1.07772,2.12962994 2.66589,-1.56063996 2.81109,-2.16907996 z m 17.29464,2.43973996 c 1.75876,-0.32104 -0.15217,-0.75111997 -0.88756,-1.13616989 -2.28192,-1.38794007 -0.68996,2.96136983 0.88756,1.13616989 z m -3.57187,-0.40785 c -1.1489,-0.97892989 -0.13591,0.89518997 0,0 z M 392.77262,-2.5224297 c -0.55665,-0.5906001 -1.06538,3.14717993 -0.10208,0.56802 l 0.0774,-0.31036 0.0251,-0.25766 z m 39.21121,1.46459 c 1.67765,-0.31732 4.27903,-0.11033 2.71904,-2.4940701 0.17887,-1.32397 -0.63359,-1.33196 -1.68281,-1.01114 -2.32589,-0.06 -4.29393,1.25437 -2.92469,3.67195017 0.61847,0.16599 1.27043,-0.097 1.88846,-0.16674007 z m -3.62758,-1.13386 c 0.8053,-2.3394001 -3.09585,-0.0348 -1.79178,0.28471 0.89381,0.24711 2.48217,1.74378999 1.79178,-0.28471 z m -111.2236,-1.6762001 c 1.92312,-0.18557 4.17595,-0.79395 3.08585,-3.2376 0.4156,-3.7256002 -3.90415,-1.08584 -5.98772,-1.28711 -1.92005,0.46914 -1.08616,3.13338 -1.33147,4.65337 -0.0897,1.3290601 2.26467,-0.13238 3.05812,0.10358 0.39247,-0.0737 0.78441,-0.1502 1.17522,-0.23224 z m 96.5913,-0.46177 c -1.39372,-0.32709 -1.01806,1.64724 0.0701,0.1323 l -0.0701,-0.13234 z m -4.25172,-1.96017 c 0.0449,-0.94973 -1.16082,0.19598 -1.57952,-0.1359 -0.22069,0.53406 -1.21627,3.44645 0.0493,2.02807 0.61297,-0.51887 1.47075,-1.00519 1.53019,-1.89217 z m 6.64505,1.01697 c 1.48241,-0.65733 1.79073,-3.59714 -0.11742,-1.62965 -0.55917,0.40926 -1.43953,3.15364 0.11742,1.62965 z m -92.73717,-0.52822 c 1.60199,-0.67108 3.18858,-1.37793 4.76973,-2.09648 -0.36466,-0.99035 0.0845,-3.3307702 -1.21606,-3.2138402 -2.06041,1.1185207 -6.54186,0.36259 -5.56782,3.8264802 -0.1856,1.52118 -0.0425,2.92913 1.64611,1.63754 l 0.36802,-0.1537 z m 109.4416,-0.0592 c 0.97918,-0.0946 1.88769,-0.24723 1.52135,-1.44593 0.20317,-3.0084302 -3.5241,-0.53745 -3.67935,1.21285 -1.73309,1.83855 1.38652,0.0321 2.158,0.23308 z m 8.03509,-2.13673 c 0.55983,-2.7151702 -1.79129,-1.7020195 -3.46021,-1.37413 -1.13223,-0.075 -1.39687,0.56501 -1.2011,1.58438 -0.22317,1.11597 0.10542,1.6254 1.25643,1.23073 1.75212,-0.51179 4.2279,1.83115 3.40488,-1.44098 z m -27.56227,0.4906 c 1.4255,-1.89472 -1.83566,0.65903 -0.27698,0.18628 z m 6.92659,-0.0343 c 0.6266,-1.88431 -1.81734,0.9256 -0.22601,0.27413 z m -84.23998,-4.4182412 c 1.2921,-1.886 -0.75536,-2.84327 -2.21087,-1.53936 -1.98351,0.87834 -5.48122,1.1091 -4.47049,4.1028912 -0.30321,1.47852 0.85804,0.42471 1.58085,0.12905 1.71233,-0.8734602 3.45268,-1.7007602 5.10051,-2.6925812 z m 73.27182,3.0455912 c 1.81366,-1.8187802 -1.3987,-2.3501902 -1.08739,-0.23497 -0.0481,0.81639 0.70285,0.73126 1.08739,0.23497 z m 7.13225,-2.0065402 c 0.22122,-1.358931 -2.27525,2.3073302 -0.31117,0.45593 l 0.31117,-0.45592 z m 6.64851,-0.50409 c -1.31661,-0.737161 -1.56297,2.9804102 -0.40809,1.02788 0.18852,-0.24074 0.77869,-0.67185 0.40809,-1.02788 z m 10.62625,0.93583 c 1.38244,-1.144721 -0.27343,-4.135121 -1.14888,-1.776401 -0.0606,0.794451 -0.17462,2.5604617 1.14888,1.776401 z m 7.03309,-1.844801 c -0.21455,-0.59951 0.52349,-2.35106 -0.56137,-1.89803 -1.66944,0.42259 -4.92406,-0.0532 -4.20113,2.64072 -0.12405,1.6512817 2.86104,0.291881 3.88731,1.146541 1.22164,0.5861607 0.7342,-1.349851 0.87519,-1.889231 z m -27.55056,1.238201 c 1.03718,-1.676811 -1.71698,0.86192 0,0 z m 6.66588,-0.0359 c 1.36497,-1.139651 -0.13173,-3.234181 -0.69139,-0.808221 -0.31644,0.624541 -0.095,1.494161 0.69139,0.808221 z m -95.2674,-0.885101 c 0.92604,-0.29458 1.85208,-0.58916 2.77812,-0.88374 0.0523,-1.28054 0.10454,-2.56107 0.1568,-3.84161 -1.86498,0.53606 -3.81867,0.66518 -5.69228,1.15275 -0.1966,1.68323 -1.32894,5.8041517 1.66088,3.91615 0.36597,-0.11285 0.73164,-0.22747 1.09648,-0.34355 z m 84.52021,-0.25314 c 1.42552,-1.89472 -1.83566,0.65902 -0.27698,0.18628 z m 3.35853,-0.52083 c 0.63449,-1.45981 -1.77963,1.760191 -0.27212,0.42793 l 0.27212,-0.42788 z m 3.27091,-0.93122 c -1.7195,-0.0218 -0.44786,2.219891 0.36241,0.41133 0.77476,-0.58341 8.8e-4,-0.25282 -0.36241,-0.41133 z m -75.67153,-0.54981 c 1.46707,0.0392 2.21795,-3.44087 0.96053,-2.87367 -1.07518,0.88165 -3.47836,1.2153 -3.09062,2.8809 0.0716,1.96456 1.28686,0.29553 2.13009,-0.007 z m 4.8948,-0.25539 c -0.99553,-3.90566 -1.72427,4.260121 0,0 z m 63.53375,0.82511 c 0.55602,-1.03968 -1.3359,1.35739 0,0 z m -76.51479,-0.70714 c 2.59707,-0.5411 4.93993,-2.23733 3.88062,-5.17984 -2.23443,0.88815 -4.45752,1.81889 -6.77458,2.47789 0.0765,1.1953 -0.20653,2.50075 0.27455,3.60753 0.89676,-0.22391 1.753,-0.58864 2.61941,-0.90558 z m 101.56994,-0.38299 c 1.44822,-3.03508 -2.98923,-2.01906 -0.79453,0.26646 0.29047,0.0399 0.55753,-0.12748 0.79453,-0.26646 z m 4.93199,-0.72042 c 0.63647,-0.2764 2.23991,0.3305 1.99369,-0.75221 0.0242,-0.87581 0.24124,-1.97954 -0.98637,-1.37562 -1.17679,0.32314 -2.82527,0.17259 -3.77613,0.6484 -0.44525,2.43446 0.96545,1.69187 2.76881,1.47943 z m -93.78548,-2.92681 c -0.4497,-2.83184 -2.31041,3.06415 -0.29226,1.08778 0.18553,-0.33066 0.29045,-0.70783 0.29226,-1.08778 z m -5.02708,0.33827 c 0.76156,-0.4677 1.8103,-0.77425 1.44731,-1.87293 0.61012,-2.62468 -1.49089,-1.59675 -2.8426,-0.76524 -1.16862,0.20398 -0.59075,1.48962 -0.71656,2.33043 -0.23279,2.12117 1.19088,0.72572 2.11185,0.30774 z m 93.86372,-1.09101 c 0.42937,-2.77117 -3.38968,-0.58518 -1.23689,0.84566 0.59714,0.17414 1.32419,-0.12284 1.23689,-0.84566 z m -100.4783,-1.02395 c 0.92604,-0.36905 1.85208,-0.7381 2.77812,-1.10715 0.0521,-1.08277 0.10427,-2.16555 0.1564,-3.24832 -2.08714,0.74736 -4.3093,0.90679 -6.50639,1.02175 2.05625,-1.1356 4.27894,-1.91273 6.44896,-2.77409 0.12563,-0.73617 1.39783,-3.84066 -0.20602,-3.07304 -2.00132,0.51362 -4.01584,0.97521 -6.045,1.36514 -0.34895,3.08849 -0.4893,6.1947 -0.67042,9.29619 1.38283,-0.39026 2.7053,-0.96524 4.04435,-1.48048 z m 106.69323,0.98104 c 0.97246,-2.19952 -0.3766,-3.17772 -2.38448,-2.34479 -2.68354,-0.77453 -2.91596,3.69747 -0.17223,2.68432 0.8534,-0.0909 1.72071,-0.1368 2.55671,-0.33953 z m -95.74864,-1.48583 c 1.14461,-1.11102 -0.005,-5.02008 -0.86676,-1.84712 0.0471,0.56223 -0.36994,2.97238 0.86676,1.84712 z m 88.46076,-1.30505 c 1.257,-0.29526 0.72368,-3.00697 0.32693,-3.39402 -2.26047,-0.5734 -2.33194,3.90822 -0.6821,3.51836 z m -93.07279,-0.90496 c 0.71066,-0.40249 1.98501,-0.43503 1.60494,-1.55337 0.97005,-2.90163 -2.68403,-1.61471 -3.17156,-0.0571 -0.0246,1.29297 -0.7425,3.16477 1.23475,1.75411 z m 4.5114,-2.46675 c 1.45991,-1.85614 -2.79841,-0.33788 -0.54305,0.37723 l 0.24029,-0.15343 z m 88.07713,-1.23591 c 2.23734,-0.57089 0.0103,-5.09006 -1.27326,-2.10773 0.067,1.01927 -0.45654,2.93305 1.27326,2.10773 z m -93.51202,-0.52699 c 0.92118,-1.72665 -2.01972,-0.0237 0,0 z m 6.9699,-3.07884 c 0.1602,-0.61113 1.76621,-1.65237 0.60578,-1.87061 -1.84903,-1.0962 -2.5204,1.8314 -3.92698,2.61789 -1.63531,1.11952 1.48374,0.48284 2.05473,0.85865 0.51066,-0.44824 0.8627,-1.06455 1.26647,-1.60593 z m 3.01938,0.19932 c 1.66134,-2.06566 -1.58273,-1.92337 -1.91784,-0.10123 -1.59398,1.30359 -0.35162,2.07566 1.13975,1.24038 0.36018,-0.30558 0.5499,-0.74063 0.77809,-1.13915 z m 1.94998,0.80302 c 1.36107,-0.47352 4.15194,-1.68084 3.96375,-2.88616 -1.42531,0.22486 -3.77034,3.41824 -2.79725,0.64557 -1.21243,-0.6044 -4.60433,4.12912 -1.1665,2.24059 z m -9.11155,-0.86916 c 1.13113,-0.54477 3.21439,-4.28555 0.71139,-3.18685 -0.74659,1.51122 -3.04475,2.4171 -3.45631,3.61249 0.99133,0.68057 2.04211,0.66265 2.74492,-0.42564 z m -7.94932,-0.49379 c 1.51284,-0.29291 3.36212,-0.44236 3.19591,-2.3257 1.91667,-2.37111 -2.21457,0.12589 -3.25453,0.0885 -0.9972,0.4249 -2.47149,0.33818 -3.28207,0.86656 -0.78775,2.45604 1.22938,2.14709 3.02726,1.44186 l 0.31339,-0.0712 z m 6.78871,-2.5724 c 1.04874,-1.45542 2.76702,-3.52387 2.47623,-5.20204 -1.0955,0.384 -2.09143,2.90618 -2.74763,2.67912 0.83475,-1.86318 3.66345,-3.1347 2.76933,-5.46458 -0.21277,-0.96889 -1.19677,1.51345 -1.72141,1.73076 -1.13395,1.22821 -1.97754,1.96791 -1.54558,3.24949 0.55497,1.27746 -0.6022,3.58658 -0.36616,4.06463 0.41858,-0.30608 0.78307,-0.68084 1.13522,-1.05738 z m 9.33431,0.68494 c 0.61158,-1.1749 0.25068,-3.28286 -0.86409,-1.27034 -0.75671,0.85497 -0.19373,1.98735 0.86409,1.27034 z m 2.85819,-0.26459 c 1.45742,-1.4779 -0.76075,-2.98199 -1.26309,-0.92604 -0.78054,1.37012 0.18727,1.91536 1.26309,0.92604 z m -4.84896,-1.03281 c 1.31235,-2.39826 -3.71707,-0.94107 -2.03117,0.788 0.81477,0.31662 1.7881,0.18452 2.03117,-0.788 z m 7.43639,0.76418 c 1.36148,-1.24812 -0.0916,-3.05459 -1.06323,-1.25049 -0.5808,1.18819 -0.41582,1.89053 1.06323,1.25049 z m 2.31811,-1.37934 c 1.37229,-1.08821 -0.0115,-1.98104 -0.44648,-0.41995 -0.47305,1.11608 -0.62979,2.20765 0.44648,0.41995 z m -13.02422,-0.29105 c 0.60026,-3.89877 -3.25582,1.83437 -0.235,0.68214 l 0.11235,-0.29297 0.12312,-0.38917 z m 6.00214,-1.66395 c -0.29305,-2.13796 -1.49706,2.338 -0.0674,0.31377 z m 2.36089,0.72423 c 2.26762,-1.79087 -2.44326,-1.48827 -0.56129,0.12795 l 0.24393,-0.0473 z m -4.34083,-0.68158 c 0.34828,-1.84324 -4.07406,-0.72155 -1.44221,0.47359 0.5136,0.093 1.31596,0.24618 1.44221,-0.47359 z m 7.16346,0.15858 c 1.83028,-3.13376 -3.21907,0.55434 0,0 z m -10.53496,-1.04235 c 0.41329,-1.84993 -2.40626,-0.90784 -0.90989,0.56795 0.4029,0.44622 0.87266,-0.17297 0.90989,-0.56795 z m 13.55156,-0.31841 c -0.26544,-1.99544 -2.31656,1.61466 -0.24658,0.47967 l 0.15957,-0.21079 z m -10.00642,-1.37707 c -0.0275,-1.35655 -4.57416,-2.07418 -2.20483,-0.29562 -0.006,0.82025 2.73455,1.64813 2.20483,0.29562 z m 2.33351,0.0515 c -0.61628,-2.0873 -1.62285,1.80786 -0.0795,0.29193 l 0.0795,-0.29188 z m -48.04028,0.279 c -2.37697,-0.13659 -0.6616,0.36037 0,0 z m 37.61628,-2.18152 c 0.90079,-0.89665 2.44037,-3.38214 0.84005,-3.36535 -0.27021,-1.55317 -0.79287,-1.26284 -1.48883,-0.11603 -0.70275,1.44 -3.36539,2.55676 -2.19852,4.24985 1.09325,2.88423 1.60687,0.44447 2.8473,-0.76847 z m 12.85299,1.83908 c -1.32134,-2.13918 -1.33296,2.08045 0,0 z m 2.53284,0.0621 c 2.1219,-1.88789 -3.61116,-0.77372 -0.91805,0.18114 l 0.4809,-0.008 z m -10.84629,-0.47583 c -1.32488,-0.89019 -0.55878,0.81976 0.21898,0.25977 z m 13.60512,-0.90918 c -0.19104,-2.24171 -2.47443,1.73196 -0.12127,0.64823 l 0.0965,-0.24143 z m -55.28452,-0.025 c 0.74487,-1.1926 -3.54953,0.8092 -1.95542,0.53877 0.67113,-0.0277 1.58461,0.18547 1.95542,-0.53877 z m 5.21769,-0.19012 c -0.63883,-0.71982 -0.9159,1.25979 0,0 z m 35.20151,-0.18284 c -1.05905,-1.81819 0.45152,2.03678 0,0 z m 16.45282,-0.97784 c -0.44625,-2.17691 -0.22542,2.45271 0,0 z m -43.77767,0.2999 c 0.16555,-1.18282 -1.7868,1.13929 4e-5,0 z m -9.4947,-0.65732 c 2.56702,-2.01335 -1.87034,-0.6764 -1.02332,0.64026 0.3869,-0.13394 0.69735,-0.40559 1.02332,-0.64026 z m 6.43706,-0.32406 c -0.29128,-2.14554 -2.60973,2.18443 -0.80759,0.61136 0.29082,-0.16853 0.61892,-0.31458 0.80759,-0.61136 z m 26.19637,-4.0281 c 0.79692,-1.10837 -0.65368,-2.93788 -1.24938,-1.11467 -0.78117,1.29362 -2.78796,2.41106 -2.20655,4.0058 0.30817,1.41168 0.77389,1.46263 1.36405,0.17533 0.69626,-1.02286 1.3923,-2.04594 2.09188,-3.06646 z m -36.29758,3.0357 c -0.76865,0.28 -0.22631,1.21735 0,0 z m 18.49903,-0.84553 c -0.55788,-2.48797 -4.23124,2.61951 -1.1586,0.85836 0.40531,-0.25711 0.83485,-0.49426 1.1586,-0.85836 z m 4.98582,0.87372 c 2.20924,-0.68212 4.57976,-0.79214 6.72875,-1.65361 -0.54971,-3.51731 -3.60019,-1.52742 -5.29814,-0.17682 -1.04553,0.57555 -4.91147,3.00889 -1.43061,1.83043 z m -49.36292,-0.94723 c -0.7124,-1.06627 -0.6235,1.03014 0,0 z m 24.54011,-0.76518 c 0.94501,-2.00018 -3.25307,2.00936 -0.41278,0.43145 l 0.20707,-0.20193 z m 42.92864,0.76518 c -1.06516,-0.97145 -0.43826,0.73567 4e-5,0 z m -39.02604,-0.52916 c 1.11068,-1.53256 -2.10969,1.0782 -0.34257,0.32214 z m 6.16778,-0.77627 c -0.73725,-0.64696 -2.866,2.32268 -0.65092,0.65799 l 0.3054,-0.24316 z m 4.94343,1.04294 c -0.0254,-2.88146 -1.26053,1.21487 0,0 z m 32.41275,-0.53781 c -0.79705,-1.21511 -2.72535,-0.39586 -0.57114,0.13547 0.10524,0.0873 0.65098,0.21471 0.57114,-0.13547 z m -25.32125,-0.59007 c 1.97351,-2.21204 -2.61007,-1.01566 -0.87566,0.55988 0.34371,-0.0971 0.59789,-0.35459 0.87566,-0.55988 z m 13.60366,-2.75046 c 0.71023,-0.65271 1.10245,-1.33336 0.32585,-2.11667 -0.99457,-2.83489 -3.19264,1.47273 -3.49029,2.83656 0.31833,0.9068 0.77817,3.45201 1.53244,1.48315 0.51177,-0.75738 1.06132,-1.48918 1.632,-2.20304 z m -17.34346,1.57274 c 0.60099,-2.17524 -3.80855,1.77343 -1.05099,0.77932 0.37398,-0.22518 0.74048,-0.46897 1.05099,-0.77932 z m -21.34208,0.71601 c -1.14888,-0.97892 -0.1359,0.89518 0,0 z m 47.08454,0.0183 c -0.37679,-1.62965 -1.53008,0.9617 0,0 z m 7.11844,-0.41516 c -1.99613,-1.48101 -0.48563,1.45014 0,0 z m -43.24853,-1.04 c -0.93298,0.5429 -0.92692,1.74914 0,0 z m 33.44894,0.53691 c -1.31109,-2.46813 -1.42083,1.54536 0,0 z m 7.01949,-0.54087 c -1.15724,-0.75973 -2.70126,0.078 -0.62957,0.39868 0.27601,0.0852 0.85131,0.0533 0.62957,-0.39868 z m -34.67475,0.065 c 0.96732,-1.69131 -1.8892,1.04001 0,2e-5 z m 11.49638,-0.27913 c 1.12921,-0.42411 0.43637,-1.40356 0.22996,-2.23476 -0.16333,-1.59292 -1.12721,-2.7794 -2.33068,-1.00869 -1.28439,1.2349 1.34455,1.94104 0.89082,2.04327 -0.95452,0.85564 0.12202,2.66763 1.2099,1.20018 z m -26.26013,-0.22835 c -0.45305,-0.58835 -0.7458,1.0695 -0.0777,0.23491 z m 5.91198,-0.37746 c -0.87973,-0.68096 -1.02619,1.99729 0.0255,0.18386 l -0.0255,-0.18384 z m 16.78172,-0.24801 c 0.33398,-2.10471 -2.27623,-0.43459 -1.77448,0.66798 0.53053,0.28517 1.25209,-0.49961 1.77448,-0.66798 z m 23.3438,0.43621 c -0.62488,-1.52421 -1.06517,0.90144 0,0 z m 9.25824,-3.47793 c 1.93679,-4.73795 3.93305,-9.46736 5.34123,-14.40024 0.30155,-1.77622 -2.42561,0.73715 -3.00865,0.77083 -1.28862,1.77033 -1.16741,4.39823 -2.43448,6.32988 -0.70558,2.13754 -2.7313,3.76806 -3.26243,5.81127 0.66301,1.34746 1.40339,4.68118 2.0595,4.79773 0.47806,-1.08553 0.87949,-2.20272 1.30483,-3.30947 z m -47.23941,2.0198 c 2.22095,-1.97228 -2.42895,-0.44852 -1.08384,0.75606 0.39101,0.45517 0.81973,-0.60904 1.08384,-0.75606 z m 5.27696,-0.32775 c -0.41458,-0.92418 -2.72234,2.07687 -0.5302,0.61593 l 0.22878,-0.20076 0.30142,-0.41515 z m 4.40693,0.80895 c 2.45969,-1.77969 -2.05085,-0.15804 -0.92122,0.38401 0.32256,-0.0881 0.62483,-0.23257 0.92122,-0.38401 z m 25.61355,-0.15452 c -3.13718,-1.01761 0.43505,1.44339 0,0 z m 7.29801,0.0548 c -0.37796,-0.98808 -3.23688,-1.00149 -1.15508,0.007 0.30998,-0.0183 0.93395,0.45374 1.15508,-0.007 z m -20.83028,-3.53014 c 0.25063,-3.38478 -2.45289,-5.83719 -3.43859,-8.85924 -1.52804,-0.0419 -3.61755,2.46101 -0.91276,2.02833 -0.19514,0.9804 -1.02454,2.52852 0.6207,3.16967 0.35335,2.40258 1.29132,4.98709 2.36876,7.02473 1.20654,-0.26278 1.78068,-1.02775 1.42357,-2.21198 -0.0206,-0.38383 -0.0411,-0.76767 -0.0617,-1.15151 z m 3.64824,1.98262 c 0.25553,-1.22074 2.67069,-2.29962 1.89124,-3.36523 -0.57384,-0.39837 -1.23874,-2.15585 -1.70125,-0.89217 -1.16937,1.52142 -2.14188,3.40929 -1.46865,5.36164 0.53625,0.41035 0.98706,-0.80183 1.27866,-1.10424 z m -28.81512,0.17186 c 1.17151,-1.51101 -2.1837,0.70808 -0.41596,0.3881 l 0.41596,-0.38808 z m 35.82663,0.43946 c -0.58615,-0.93168 -0.66888,0.49125 0,0 z m 6.69471,-0.27657 c -1.10563,-1.39744 -1.1625,1.32623 0,0 z m -59.09048,-0.65682 c 2.84791,-0.92459 -0.85359,-3.8565 -0.92807,-5.78567 -1.39683,-4.84403 -0.7329,-9.96234 -0.61205,-14.92898 0.23622,-5.82419 0.83346,-11.78727 3.55912,-17.04621 3.68077,-7.78102 9.80879,-14.711269 17.83738,-18.106899 1.65279,-0.49668 4.45171,-1.55355 5.53936,-1.36492 -3.668,1.37677 -7.18369,3.17473 -10.23176,5.66261 -2.17158,1.61891 -4.30004,3.323179 -5.81238,5.598079 -0.82313,1.12826 -1.45655,2.37487 -2.13808,3.58948 1.99783,-1.81989 4.11516,-3.52636 6.08026,-5.3646 0.0986,-1.001212 0.94921,-3.127149 1.09218,-0.883912 2.289,-1.346357 4.51297,-2.957277 7.03261,-3.942747 4.19476,-1.885 8.60762,-3.42938 13.24564,-3.60687 5.58996,-0.29566 11.41335,0.0172 16.52725,2.51534 3.18316,1.26218 6.11822,3.10237 8.4468,5.634119 1.82214,1.72555 3.41458,3.66945 4.93588,5.65239 1.42487,0.12057 3.0091,-0.1755 4.51447,-0.0552 1.12204,-0.31523 -1.43736,-2.43771 -1.73367,-3.28535 -1.45301,-2.09061 -2.73835,-4.312359 -4.35394,-6.229659 -3.31644,-3.06412 -7.11641,-5.55698 -11.2546,-7.36397 -3.88903,-1.53216 -7.63812,-3.72143 -11.91317,-3.95501 -6.53879,-0.7475 -13.23712,0.32464 -19.18603,3.15131 -6.03036,2.83138 -12.09639,6.14821 -16.30306,11.466747 -2.75159,3.152272 -5.04252,6.742232 -6.21797,10.786002 -1.34035,3.9192 -3.22561,7.82649 -2.99338,12.07176 -0.12364,8.12467 0.35346,16.32176 2.10769,24.27191 0.30725,1.82315 0.91539,3.14043 2.75952,1.5202 z m 7.81348,0.5209 c -1.14891,-0.97893 -0.1359,0.8952 0,0 z m 25.43108,-0.3401 c 1.78358,-2.27322 -3.0808,0.51778 -0.45048,0.2167 l 0.45048,-0.21673 z m 23.32631,-0.60008 c -2.3093,-1.04946 -0.98399,1.81245 0.01,0.18832 l -0.01,-0.18834 z m -43.01815,-0.43787 c -2.68074,-0.15874 -0.34902,1.76531 0,0 z m 16.04214,-0.59387 c -0.57702,-1.32811 -2.96097,2.68904 -0.6173,0.71153 0.23223,-0.20459 0.51382,-0.40278 0.6173,-0.71153 z m 32.8457,1.24432 c -0.24867,-1.64095 -1.30495,-1.59104 -0.70828,-0.0135 -0.016,0.0882 0.73858,0.39395 0.70828,0.0135 z m -9.14083,-0.76547 c 8.9e-4,-1.96779 -1.2738,1.46496 0,0 z m -42.70813,-0.51961 c -0.60107,-1.17651 -1.93906,1.38088 -0.10082,0.30196 l 0.10082,-0.30192 z m 26.64084,0.19478 c 0.21638,-0.72569 -0.48125,-3.11038 -1.34587,-1.57673 -1.86033,1.35946 -0.44954,2.6836 1.34587,1.57673 z m 23.06157,-0.0696 c 0.81231,-2.09072 -3.04286,-0.23245 -0.79761,0.45939 0.37204,0.31403 0.64,-0.26471 0.79761,-0.45939 z m -8.93857,-0.26277 c 0.45925,-1.61964 -2.39599,-1.07507 -0.64533,0.30652 0.16364,0.54481 0.64503,-0.13747 0.64533,-0.30652 z m -46.70795,0.0957 c 0.17105,-1.50739 0.95686,-4.98717 -0.38134,-5.37025 0.0415,1.44635 0.19585,2.92003 0.23369,4.38211 -0.32967,-0.53396 -0.76519,-1.86314 -1.03496,-1.94705 -0.26949,1.01881 -0.55947,3.7017 1.18261,2.93519 z m 21.02131,-0.67302 c -0.13045,-1.31235 -0.94076,1.68425 -0.0749,0.45746 z m 32.01864,-0.59941 c -1.05793,-1.85261 -2.48073,2.05663 -0.38146,0.75361 l 0.27355,-0.34908 z m -24.7925,-0.63534 c -0.88843,-1.68572 -3.22209,2.87766 -0.61934,0.91641 0.32686,-0.18104 0.78012,-0.46793 0.61934,-0.91641 z m -16.85424,0.74884 c 0.9878,-1.50143 -1.83793,1.60163 -2e-5,0 z m 11.75449,-0.39353 c 1.40273,-0.55826 1.20338,-2.63303 -0.1239,-0.9616 -1.97838,0.17373 -1.63449,2.63269 0.1239,0.9616 z m 26.97245,-0.95703 c -1.38623,-0.96185 -1.23853,2.7074 -0.12232,0.42807 z m -45.36666,-0.15973 c 2.28577,-0.51351 4.24555,-2.20547 5.81548,-3.57602 2.25057,-0.85642 3.39621,-3.15616 5.82528,-3.96638 3.28132,-1.73494 6.46968,-3.68776 9.32046,-6.06186 2.10542,-0.84763 4.34907,-2.64802 2.32221,-4.89445 -1.12537,-1.78575 -1.43093,-4.71135 -3.20055,-5.70108 -2.67845,0.56949 -5.41726,1.03726 -7.88362,2.3254 -6.50666,3.82431 -11.42031,10.14624 -14.03405,17.18044 -0.68025,1.95119 -0.70186,4.02934 -0.67884,6.0704 0.68611,-0.69762 1.56326,-1.14899 2.51363,-1.37645 z m 43.02714,0.0138 c -0.11034,-2.21337 -1.98223,2.45879 0,0 z m -16.23068,-0.44635 c 0.29918,-3.07086 -3.59511,0.22341 -1.4346,0.74063 0.48713,-0.22866 0.9686,-0.47119 1.4346,-0.74063 z m 24.05199,0.34422 c -0.51932,-0.24223 0.20832,1.17162 0,0 z m -10.1896,-0.12369 c 1.64812,-2.37089 -2.9733,-0.40563 -0.4006,0.31928 l 0.40061,-0.31928 z m -18.1649,-1.42024 c 0.77719,-2.81866 -4.03731,2.63563 -0.81943,0.65535 0.28714,-0.1992 0.57597,-0.4026 0.81943,-0.65535 z m 26.86297,0.77713 c 0.62965,-2.30393 -3.09963,0.56342 -0.49718,0.49021 l 0.26867,-0.16639 z m 3.95662,0.15495 c -0.68592,-1.3935 -0.16407,1.26196 0,0 z m -60.60818,-1.52135 c -2.07477,-2.06888 -0.0749,3.37512 0,0 z m 14.60443,0.92604 c 0.57727,-1.0122 -1.88341,1.5073 0,0 z m 7.90375,-0.19844 c 0.44282,-1.41238 -1.58469,1.32989 0,0 z m 31.3143,-0.98886 c -1.48038,-0.72884 -0.95927,2.65211 0.0224,0.37815 l 0.0265,-0.20575 -0.049,-0.1724 z m -10.9498,-0.10524 c -0.26596,-1.19967 -0.99773,-2.92451 -0.77246,-0.79495 -0.0848,1.00279 0.0445,3.01877 0.77246,0.79495 z m 20.10051,-2.0368 c -1.07901,-0.98429 -1.44998,2.11124 -1.26263,3.1309 0.4577,-1.02605 1.04453,-2.01798 1.26263,-3.1309 z m -43.35803,2.46014 c 1.89009,-1.95231 -1.93855,0.2849 -0.34176,0.1617 l 0.34176,-0.16175 z m 31.93891,-0.36533 c 0.23083,-2.54315 -2.11103,2.37905 -1e-5,0 z m 8.50635,-0.74984 c -0.82058,-0.97074 -0.43705,2.46327 0,0 z m -10.56879,-0.26459 c -1.13374,-1.81936 -1.74238,2.34781 -0.0629,0.44909 z m -17.21698,0.39688 c 2.81499,-1.91744 -2.92079,-0.6397 -1.04105,0.46302 0.37297,-0.0905 0.70752,-0.28169 1.04105,-0.46302 z m 7.68021,-1.12362 c 0.14207,-1.4407 1.04655,-4.31087 0.0583,-5.0507 -0.87667,0.74708 -2.06979,2.0366 -2.86842,2.09605 0.71806,0.95229 1.69463,4.43356 2.51905,3.88069 0.0473,-0.3198 0.0892,-0.65756 0.29104,-0.92604 z m 17.04542,0.9267 c -1.11027,-0.95999 0.20377,1.17742 0,0 z m -53.68173,-0.86141 c 1.08093,-4.14829 3.70764,-7.66314 6.0679,-11.1636 3.44502,-3.92924 7.37273,-7.90931 12.51406,-9.43531 1.69262,-0.37663 0.46759,-3.70291 -1.15646,-1.85854 -4.32715,2.00417 -8.23187,4.85865 -11.86785,7.92021 -1.03929,0.60427 -0.3369,2.74607 -1.20536,1.14127 -1.70752,1.99395 -3.6451,4.29799 -3.72597,7.04207 0.20051,1.26544 -0.12136,3.37533 -0.76244,0.97427 -0.70589,0.62942 -0.79285,2.91537 -1.18676,4.27004 -0.62826,1.03485 -0.0128,2.53322 1.18898,1.72535 l 0.0652,-0.26248 z m 43.46515,0.25344 c 1.09963,-1.89523 -3.71644,-0.0321 -0.96611,0.60651 0.40506,-0.0373 0.72648,-0.30432 0.96611,-0.60651 z m -20.23285,0.10016 c 0.86178,-1.74796 -2.32552,0.78969 -0.26453,0.18122 l 0.26452,-0.18122 z m -27.23802,-1.96776 c -0.29671,-0.91206 -1.06478,-2.90772 -0.88016,-0.66057 -0.56483,1.2128 0.70599,3.53113 1.44153,2.15238 -0.18712,-0.49727 -0.37425,-0.99454 -0.56137,-1.49181 z m 55.94454,1.54439 c 0.63857,-1.94364 -3.0456,-0.36597 -0.84836,0.40443 0.37807,0.35677 0.69295,-0.1633 0.84836,-0.40443 z m -32.47421,-0.67036 c 1.11772,0.007 1.10368,-0.7353 -0.2913,-0.0983 -0.98763,0.56863 0.0643,0.6183 0.2913,0.0982 z m 30.07299,-0.75399 c -1.20065,-1.45383 -1.24746,2.50862 -0.0332,0.35522 z m -8.33905,0.0477 c -1.07658,-0.4284 0.69863,1.19881 0,0 z m 6.24322,-0.31731 c -0.28396,-3.41132 -2.85121,2.61112 0,0 z m -16.39264,-1.06813 c -0.48088,-1.67526 -2.97582,2.89878 -0.60615,0.70986 l 0.29249,-0.26094 z m 23.83596,0.67581 c 1.22267,-0.45395 -0.0742,-1.32998 -0.38511,-2.04085 -1.80183,-2.76744 -3.6987,-5.4783 -5.35229,-8.3379 -1.52492,0.4798 -4.53024,1.6293 -2.25391,3.51959 1.64505,2.32375 2.99697,4.93087 5.05572,6.91533 1.02417,-0.10135 2.07143,0.89047 2.93559,-0.0562 z m -10.02795,-0.29685 c 0.66102,-2.78324 -2.93114,1.25363 -0.33217,0.34298 z m -21.58418,-0.49504 c -1.30069,-1.67008 -1.58387,2.03957 0,0 z m 25.99285,0.33902 c 0.53116,-1.45168 -1.97589,-3.27789 -2.5663,-4.88993 -0.66688,-0.77445 -1.08278,-2.29937 -1.80426,-2.79743 -0.80523,0.43825 -1.61046,0.87651 -2.41569,1.31477 1.12964,1.59252 1.81921,3.60562 3.29993,4.83692 0.83174,0.52269 3.52776,1.22768 2.24972,1.42049 0.33923,0.34713 0.82986,0.26566 1.2366,0.11518 z m -50.69704,-3.83856 c 1.14575,-1.35391 -0.49457,-6.09273 -1.33879,-2.59725 -0.42223,1.11766 -2.11643,3.60997 0.21305,3.62439 -1.99417,-0.30538 -0.1119,3.64102 -0.002,2.28832 0.28452,-1.13388 0.64166,-2.25065 1.12781,-3.31546 z m 43.86662,3.05081 c 0.39726,-1.60177 -1.5078,-1.02909 -1.79488,0.0737 -1.81894,0.51313 2.01538,0.88869 1.79488,-0.0737 z m -14.51856,-0.61312 c -1.31728,-0.50585 -0.72368,2.21306 0,0 z m 29.88439,-0.0647 c 2.91791,-1.2475 -1.04814,-3.62322 -1.6211,-5.41748 -0.91422,-1.76387 -2.97027,-3.83566 -3.00374,-5.55068 2.08496,2.17813 3.56301,4.90541 5.38415,7.31613 0.43931,1.54004 2.54912,2.65537 2.94472,0.84941 -0.64155,-1.38767 -0.60723,-2.96951 -1.32188,-4.27609 -1.2561,-2.02718 -2.48553,-4.10326 -4.05938,-5.90112 -2.18939,0.41543 -5.10208,2.67667 -6.03189,4.29319 2.58411,2.82369 4.38911,6.2318 6.29077,9.51993 0.48858,-0.25015 0.95069,-0.54712 1.41835,-0.83329 z m -24.09326,-0.33243 c 2.10274,-0.67544 -1.31873,-1.60195 -1.16405,-0.0905 -0.44668,1.26444 0.77256,0.40548 1.16405,0.0905 z m 1.35667,0.37198 c -0.71239,-1.06626 -0.62353,1.03012 0,0 z m -9.78958,-0.52917 c -0.16709,-1.36322 -2.42123,0.8033 -0.15665,0.47563 l 0.1267,-0.14626 0.03,-0.32937 z m 14.91079,-0.12825 c -0.74173,-2.24903 -1.20735,1.17899 0,2e-5 z m 3.34546,0.15221 c -1.09129,-0.57138 -1.93395,-0.45387 -0.33031,0.0854 -0.0633,0.15552 1.14082,0.20785 0.33031,-0.0854 z m -12.17084,-0.65673 c -0.40276,-2.04874 -3.22685,0.23888 -0.65954,0.49919 0.42723,0.47641 0.76384,-0.17814 0.65954,-0.49919 z m -34.85781,-6.32354 c 1.59603,-1.24939 0.4692,-5.88435 -0.76464,-2.75798 -0.64765,0.59795 -0.42258,3.93722 -0.57533,5.53803 -0.0319,1.26 0.0178,2.51976 0.0427,3.77939 0.20537,-2.22524 -0.0185,-4.61379 1.29728,-6.55944 z m 46.11214,5.43969 c -0.4988,-1.50802 -1.33263,-2.74816 -2.78523,-1.19748 -1.2951,0.68733 -0.29012,1.08573 0.43683,0.9908 -0.83801,0.40413 2.24339,0.7793 2.81967,1.03547 -0.0803,-0.31284 -0.31497,-0.55604 -0.47127,-0.82879 z m -14.29704,-0.18474 c -0.22701,-1.64022 -2.61321,0.94763 -0.37353,0.55029 l 0.27063,-0.19548 z m 8.20209,-0.1241 c -0.59195,-1.38403 -5.13444,-1.58549 -2.38851,0.0179 0.57796,0.17468 2.07762,0.82516 2.38851,-0.0179 z m -4.45106,-1.24395 c -0.45667,-2.44653 -2.24157,1.66516 0,0 z m 30.76998,0.0928 c -0.30961,-1.05996 -2.1922,-2.76717 -1.0756,-0.62868 0.0858,0.4305 0.72193,1.53544 1.0756,0.62868 z m 10.21044,-1.18613 c 1.08726,-0.9591 0.41679,-5.21209 -0.68917,-2.3668 0.0415,0.99966 -0.68556,6.17923 0.68917,2.3668 z m -32.81575,-0.22388 c 1.36194,-0.30369 1.8906,-4.41787 0.59103,-1.78318 -0.54488,0.9926 -1.31259,2.89735 -2.72004,2.06933 0.33161,2.36364 1.28108,0.2948 2.12901,-0.28615 z m -9.66674,0.65001 c -0.59225,-1.3288 -0.89683,1.77958 0,0 z m 34.29738,-0.1277 c 2.42719,-0.74566 -1.10959,-3.16871 -1.34082,-4.79775 -1.4561,-1.54726 -2.28783,-4.19768 -4.27839,-4.94999 -1.50938,-0.019 -3.28642,0.72951 -1.3703,2.04076 1.72222,1.7302 2.61024,3.98593 3.95919,5.95287 0.88014,0.89327 1.49618,2.96542 3.03032,1.75411 z m 6.35053,-2.18044 c -0.58858,-2.30001 -2.33911,-3.98419 -3.83692,-5.72926 0.70131,2.37599 0.7207,4.90235 1.30828,7.27605 0.51918,-0.73292 1.45185,-4.76097 1.71974,-1.90556 -0.75378,0.90939 0.23847,3.26795 1.01603,1.70085 0.0144,-0.45593 -0.10073,-0.90324 -0.20713,-1.34208 z m -35.88541,1.16286 c -0.44234,-1.44545 -1.26318,-2.73577 -1.93258,-4.08369 -0.41538,1.20198 -0.8543,2.39623 -1.24126,3.60772 1.08956,-0.35064 2.43333,1.57968 3.17384,0.47597 z m 2.89182,-0.74055 c -1.17796,-1.1079 -0.47946,2.26012 -0.0904,0.36095 z m 29.38735,0.76399 c -0.30808,-2.50693 -1.15285,-4.9507 -1.15487,-7.49016 -1.27893,-1.31638 -4.83222,-2.32191 -5.87674,-1.17615 2.91986,2.35297 4.14446,6.06433 6.57479,8.8284 0.17124,0.29089 0.55022,0.19972 0.45682,-0.16209 z m -64.38406,-4.43056 c 0.83459,-0.56649 1.0702,-1.29001 0.59602,-2.19961 -0.26201,-1.19063 -0.60033,-3.21078 -1.597,-1.10832 -1.23759,1.99823 -3.76389,3.95906 -2.42313,6.51666 0.64921,2.19109 2.03785,-2.21635 2.9832,-2.70324 l 0.23465,-0.27886 z m 28.79554,1.16167 c 1.33375,-1.52776 0.38654,-3.11856 -0.52964,-4.52743 -0.49211,0.29376 -0.97288,2.06202 -1.36692,2.83285 -0.80908,1.18534 1.43143,5.01803 1.89656,1.69458 z m 13.66583,1.09633 c 1.9786,-1.0715 -1.61675,-0.0659 -0.86282,0.38747 0.30248,-0.0943 0.58135,-0.24561 0.86282,-0.38747 z m -6.25544,-0.64195 c 0.73198,-2.37573 -2.41883,1.19425 -0.26565,0.5051 z m 4.60433,-0.0395 c 0.74462,-2.66394 -1.97438,0.74035 -0.28247,0.61357 l 0.13889,-0.2531 0.14358,-0.36048 z m -7.0252,-0.52615 c 0.44175,-1.46879 -2.63542,-0.77464 -0.86437,0.3231 0.39417,0.71089 0.8951,0.37102 0.86437,-0.3231 z m 35.61767,-0.70427 c -0.11012,-0.89956 -0.7659,-3.14367 -1.41432,-1.32622 -1.04457,0.7865 -0.10969,1.60881 0.41424,2.39767 0.54357,0.81934 1.00063,-0.65928 1.00008,-1.07145 z m -25.92075,0.21157 c 1.36321,-0.8648 -0.17158,-3.30928 -0.48468,-1.05723 -0.24806,0.95573 -0.88851,2.29672 0.48464,1.05723 z m 27.76448,-1.12448 c -0.2,-2.57338 -0.52587,2.71343 -0.003,0.43662 z m -33.48133,-0.35237 c 0.62013,-2.53131 -3.10917,1.3495 -0.28451,0.25204 z m 3.81531,-0.17679 c -1.23606,-2.0127 -2.03137,2.04767 0,0 z m 5.34112,-0.25931 c -1.1382,-0.90191 -1.89981,1.77786 -0.2002,0.26108 z m -11.92188,-0.17451 c 0.26162,-1.86172 -2.60094,0.94391 -0.26967,0.32662 z m -8.02054,-4.3484 c -0.51893,-1.60103 -1.89008,-2.37886 -2.06744,-0.11854 -1.03134,1.50139 -0.0424,3.92747 0.98368,4.67234 0.57959,-1.14968 1.15918,-2.29935 1.73877,-3.44903 -0.21833,-0.36826 -0.43667,-0.73651 -0.65501,-1.10477 z m 40.12438,3.66903 c 0.86339,-0.88366 -0.0732,-1.3701 -0.76645,-1.91023 -1.29176,-1.63625 -2.31552,1.67783 -0.54147,2.21531 0.60919,0.9847 0.97942,0.46697 1.30792,-0.30508 z m -70.55569,-0.7389 c 0.93151,-1.29635 1.93319,-2.53959 2.94893,-3.77031 -0.25368,-0.95832 -0.33491,-4.11837 -1.54785,-2.17007 -1.2424,1.93258 -3.70738,3.74454 -2.93839,6.31916 0.19637,2.01787 0.94327,0.31816 1.53731,-0.37878 z m 52.78873,0.94887 c 0.34823,-1.08292 -1.74649,1.43444 0,0 z m -44.48375,-2.12835 c 3.35506,-2.51983 6.97745,-4.74513 10.90238,-6.23577 1.35731,-3.33125 -2.66465,-0.26039 -4.08528,0.27808 -1.14678,0.41074 -3.35066,2.17607 -3.77439,1.9059 2.29251,-2.186 5.2952,-3.36978 8.04425,-4.83349 0.59695,-1.26754 2.30268,-5.25341 -0.57143,-3.28028 -3.03962,1.19713 -5.95038,2.92677 -8.22449,5.276 -0.43552,0.37202 -0.0186,3.71911 -0.37163,2.42011 -0.10658,-3.13732 -2.50556,-0.23828 -3.68946,0.7589 -0.61316,0.89066 -2.32623,1.50702 -1.81078,2.79436 0.18965,1.4712 0.35489,4.23408 2.12921,1.98508 0.48348,-0.35682 0.96736,-0.71318 1.45162,-1.06889 z m 27.36229,1.86922 c 0.43103,-1.20227 -2.6671,-0.95714 -0.86856,0.28179 0.27942,0.28108 0.79171,0.0927 0.86856,-0.28179 z m 37.86521,-1.56967 c -1.93657,-3.04019 -0.18016,4.04977 0.31906,0.81966 l -0.10793,-0.37334 -0.21113,-0.4463 z m -22.89417,0.57751 c -0.29603,-2.89914 -2.64296,1.09175 -0.12138,0.80813 0.11488,-0.25207 0.11059,-0.5381 0.12138,-0.80813 z m 3.83646,0.0601 c 1.89919,-1.10477 -1.18907,0.24861 -1.45707,-0.9291 -1.6038,-0.18136 -1.15937,2.92837 0.61511,1.37167 l 0.42828,-0.20069 0.41368,-0.24185 z m -11.64167,-0.48524 c 1.35607,-1.34248 -1.87605,-0.93327 -1.43191,0.28933 0.53148,0.64391 1.22155,0.58764 1.43191,-0.28933 z m 4.95123,0 c -0.75149,-3.02021 -1.24882,2.7483 0,0 z m -7.73866,-0.51177 c 1.01764,-2.10891 -3.23907,0.35184 -0.89219,0.50212 0.32321,-0.0738 0.71051,-0.19215 0.89219,-0.50212 z m 26.91992,-1.63938 c -0.94188,-0.83083 -3.32895,0.9161 -1.24891,1.1323 0.87287,0.50771 1.78357,1.00561 1.91102,-0.39805 0.13506,-0.4138 -0.43886,-0.57719 -0.66211,-0.73425 z m -70.79598,0.65529 c -0.9087,-0.63031 0.3934,2.03414 -5e-5,0 z m 40.97495,-0.14221 c -1.17127,-0.94491 -1.5167,2.20871 -0.10942,0.33945 l 0.10938,-0.33945 z m 20.10834,0.51903 c -0.9496,-0.14143 -0.75706,1.16476 0,-1e-5 z m 13.31499,-2.24794 c -1.09498,-1.56993 -1.37139,1.49115 -0.26391,1.81722 1.19924,1.77648 1.28601,-1.3534 0.26389,-1.81722 z m -36.44674,2.10616 c 1.83986,-1.37932 -2.59486,-1.96387 -0.69222,-0.0613 0.0954,0.32664 0.52332,0.25964 0.69222,0.0613 z m 21.42284,-0.0797 c 0.29293,-1.21394 -1.27235,1.04954 0,0 z m 3.80816,-1.45292 c 2.35025,-3.19485 -3.25125,2.03309 -0.87843,1.04118 0.33061,-0.31301 0.6117,-0.67372 0.87843,-1.04118 z m 1.5052,0.61063 c 1.2126,-0.82149 1.20337,-2.33037 -0.26406,-0.86765 -0.97863,0.73854 -1.58261,2.42243 0.26406,0.86765 z m 3.72019,-0.19127 c 0.78741,-2.40883 -3.92852,0.0664 -2.21699,0.47113 0.81952,-0.004 2.05102,0.7841 2.21699,-0.47113 z m 9.87327,0.14542 c 0.11399,-1.30239 -2.7207,-3.46426 -1.3492,-0.9572 0.2107,0.23537 1.49395,2.57423 1.3492,0.9572 z m -46.87585,-5.06813 c -0.77707,-2.3182 -1.18986,-0.76425 -1.24671,0.78377 -0.8486,1.63146 0.0191,3.25553 0.59793,4.79323 0.42188,-1.38386 0.84376,-2.76771 1.26564,-4.15157 -0.20562,-0.47514 -0.41124,-0.95029 -0.61686,-1.42543 z m 20.63165,4.73507 c -0.25416,-1.64478 -1.83705,1.4835 -0.19377,0.42987 l 0.19381,-0.42987 z m 2.79432,-0.11129 c 0.63734,-1.78296 -1.91527,-1.50896 -1.32313,0.22561 -0.40144,1.05263 1.56101,0.62536 1.32313,-0.22561 z m 2.01864,0.15947 c 1.65433,-2.15639 -2.25784,2.13011 0,0 z m -8.99584,-0.0794 c -1.15416,-3.52806 -1.95465,2.25688 0,0 z m -2.49835,-0.87604 c 0.99586,-1.9022 -3.44474,-0.16168 -1.01179,0.77922 0.51875,0.13999 0.81399,-0.41258 1.01179,-0.77922 z m 14.00773,0.55854 c -0.0815,-0.93541 -1.16964,0.94521 0,0 z m -54.608,-4.37276 c 0.71242,-0.59704 1.29277,-1.23459 0.83043,-2.192 -0.15051,-1.35401 -0.49728,-3.97254 -1.91204,-1.64895 -1.8099,2.08784 -3.71634,4.92688 -2.48172,7.78111 0.18695,1.02043 0.90774,-0.91714 1.33209,-1.21216 0.69828,-0.94458 1.43013,-1.86806 2.23124,-2.728 z m 67.44029,3.34274 c 0.0454,-2.9637 -2.9595,0.6267 -0.44672,0.9396 0.58798,0.20561 0.39521,-0.66531 0.44672,-0.9396 z m -30.03021,-0.0283 c 0.90787,-2.27247 -2.414,1.13295 -0.30727,0.55445 l 0.14325,-0.2479 0.16405,-0.30655 z m -2.24896,-0.9483 c -0.55111,-1.74034 -2.49198,2.12869 -0.38059,0.75543 l 0.27289,-0.35006 0.10765,-0.40537 z m 29.47274,0.52978 c 1.0567,-2.02708 -1.49905,-2.45092 -1.56665,-0.3363 -0.53123,0.62889 1.59046,1.02523 1.56665,0.3363 z m -32.12795,-1.22851 c -1.18928,0.16014 -3.20689,-1.07482 -1.54705,0.8747 0.57843,0.80437 1.49199,-0.22547 1.54705,-0.8747 z m 27.52506,0.72203 c 1.73351,-2.92662 -2.75805,2.31216 0,0 z m -53.09437,-2.72426 c 0.698,-0.52672 1.63969,-0.95128 1.15519,-1.97377 0.14213,-1.96244 -0.81752,-3.02142 -2.21194,-1.06413 -1.11908,1.01202 -2.2118,2.05273 -3.31794,3.07883 0.10933,1.59751 0.40245,4.0822 2.13705,1.78225 0.73294,-0.62331 1.47686,-1.23409 2.23764,-1.82318 z m 15.06113,0.9278 c 0.17977,-1.32232 0.54425,-2.81074 -0.32817,-0.74755 -0.61385,0.92393 -1.76105,4.23884 0.091,1.93805 0.15629,-0.37909 0.19575,-0.78788 0.23715,-1.1905 z m 39.877,1.68052 c 0.88303,-3.92704 -3.12998,2.02337 0,0 z m -40.67028,-3.51935 c 1.2006,-1.76336 1.87131,-3.77903 1.61815,-5.94353 -1.44463,1.10878 -0.79209,3.84468 -1.59642,4.60527 -1.02424,-0.5261 -1.13205,3.61675 -1.05985,4.93541 0.22443,-1.23286 0.50519,-2.45355 1.03812,-3.59715 z m 24.11991,2.69297 c -1.9534,-1.28869 0.33661,2.33406 0.42039,0.28718 z m 9.83794,0.50692 c 1.02028,-1.44618 -1.83021,1.61785 10e-6,0 z m 14.35426,-1.10911 c -2.08855,-1.14912 1.02299,3.43437 0.43984,0.53377 l -0.17693,-0.27553 z m -16.35722,0.73249 c 0.95894,-2.6265 -2.94793,1.56978 -0.32246,0.44352 l 0.18725,-0.19765 z m -28.75069,-2.03329 c 0.23253,-1.59638 1.60368,-3.95119 2.61149,-3.99877 -2.30585,-1.69374 -3.39603,2.58888 -3.91584,4.23982 -0.6442,2.70055 1.12974,2.1184 1.30435,-0.24105 z m 16.67229,1.32466 c -1.00301,-1.91969 -0.84356,1.91655 0.2533,0.59706 l -0.097,-0.26628 z m -2.48024,-0.31686 c -0.68467,-2.12964 -1.15059,1.65006 0,0 z m 28.575,-0.24934 c -0.32234,-1.86222 -1.99617,0.31361 -0.1876,0.59945 l 0.1404,-0.18938 z m 4.70862,0.11347 c -0.71361,-1.02528 -0.32344,0.40004 0.22082,0.51713 l -0.0227,-0.15191 z m -10.30435,-0.0379 c 2.1977,-0.74881 -0.58608,-2.74936 -0.85086,-0.43714 -0.47193,0.96791 0.36856,0.63929 0.85086,0.43714 z m -25.19966,-0.43714 c 1.12925,-2.3532 -2.92129,0.89995 -0.34579,0.29782 z m 11.47825,-0.71844 c 1.02665,-2.59557 -2.86961,-2.88381 -4.38112,-4.06053 -0.66949,-0.20747 -3.88071,-2.10879 -2.70512,-0.43758 0.86891,1.65719 1.7714,3.44477 3.65344,4.13198 1.13136,0.22159 3.25843,2.78852 3.4328,0.36613 z m 2.09627,0.41426 c 1.7148,-0.80332 -1.90986,-1.66359 -0.94943,0.39868 0.29475,0.23732 0.70927,-0.29679 0.94943,-0.39868 z m 14.83962,0.002 c -1.57653,-2.8426 -1.25164,2.15933 0,0 z m -31.08221,-0.31283 c 0.42571,-2.05829 -1.51217,1.0051 -0.18498,0.36111 l 0.18454,-0.36111 z m -2.30303,-0.44578 c -0.37213,-1.99143 -2.24651,1.50734 -0.19216,0.43185 l 0.12297,-0.19338 z m 24.654,0.47402 c -0.81075,-0.59013 -1.13229,0.93231 0,0 z m 13.49374,-0.41367 c 0.11039,-1.63941 -2.19757,-2.50449 -1.02474,-0.42228 0.1624,0.23336 0.76796,0.8417 1.02474,0.42228 z m -3.16714,-1.69663 c -1.32456,-1.88071 -0.0615,2.14992 0.17638,0.43792 z m -12.75278,0.24144 c 2.22041,-1.37688 -1.70326,-3.1602 -2.65123,-4.39153 -0.41775,0.36865 -1.3537,2.7335 -0.58739,3.47737 1.00117,0.80684 1.95029,2.01814 3.23862,0.91416 z m 8.49654,0.27306 c 0.744,-2.37563 -2.24671,-0.68795 -0.62478,0.1606 l 0.35617,-0.11341 0.2686,-0.0472 z m -47.82797,-3.41368 c 2.09551,-1.21971 4.54649,-1.63693 6.65516,-2.78765 1.00379,-1.68909 4.42547,-4.21706 4.2541,-5.27409 -5.95808,1.50798 -11.56746,4.30112 -16.55189,7.87585 0.35267,0.94584 -0.2234,3.62647 1.02365,3.19472 1.52151,-1.03051 2.97623,-2.16411 4.61898,-3.00883 z m 50.12029,2.99516 c -0.91843,-3.03425 -1.43592,1.99428 0,0 z m -58.69967,-2.98144 c 0.49247,-0.6539 1.68115,-0.99759 1.64921,-1.88515 0.0107,-1.53772 -0.0758,-3.07946 -0.39341,-4.58724 -1.91284,1.82631 -3.82569,3.65261 -5.73854,5.47891 0.19859,1.40415 0.48469,2.79456 0.87311,4.15871 1.20584,-1.05208 2.40883,-2.10744 3.60963,-3.16523 z m 31.36442,2.60919 c -1.03867,-1.40632 -0.22565,1.71724 0,0 z m 1.48353,-0.73058 c 0.22378,-1.76701 -1.82932,0.60246 -0.23445,0.44019 z m -3.19661,-0.19844 c -0.0421,-2.58097 -1.59414,2.07797 0,0 z m -10.45185,-3.59165 c 0.32045,-1.32216 -0.38215,-2.6475 -0.77459,-0.55098 -0.17908,0.9014 -1.39721,5.21981 0.40393,2.88605 0.40815,-0.70572 0.32167,-1.55374 0.37066,-2.33507 z m 31.52092,0.057 c -1.55949,-3.2554 -4.29837,-5.83932 -7.10561,-8.044302 -4.6487,-3.178377 -10.12436,-5.192347 -15.78294,-5.337217 -5.98449,-0.3355 -12.19176,0.28001 -17.55566,3.15117 -2.79002,1.27558 -5.36899,2.942689 -7.82491,4.769159 0.0834,1.51617 -0.22143,3.11392 0.27576,4.56042 2.70537,-0.79795 5.15167,-3.13047 8.00734,-4.02401 5.43746,-2.27048 11.29059,-4.006539 17.2452,-3.508979 2.45471,0.0496 4.96117,0.0594 7.26521,1.012989 0.61101,-0.0806 1.49302,-3.585779 1.55152,-1.153569 -0.0378,0.905969 -0.65173,2.148049 0.71831,2.206189 2.64848,0.92469 5.00714,2.48684 7.19175,4.22043 0.20032,-1.41217 2.20844,-3.73476 1.2876,-0.87337 -0.35375,0.86376 -0.51182,1.67613 0.43105,2.19935 1.34805,1.3795 2.6961,2.75899 4.04415,4.13849 0.36026,-1.07822 0.73419,-2.19355 0.25123,-3.31675 z m -6.88099,0.56146 c -0.61692,-2.60548 -4.22403,-3.61842 -6.44328,-4.8643 -1.86228,-0.24227 -3.04043,4.48269 -0.40486,4.43882 2.04288,0.95054 4.14088,1.8122 6.06486,2.99418 0.29684,-0.84493 0.5896,-1.69277 0.78328,-2.5687 z m 11.914,2.05931 c 0.85914,-2.38762 -3.4288,-1.70173 -0.94014,-0.0532 0.20396,0.2434 0.75025,0.45708 0.94014,0.0532 z m 4.10856,-0.26113 c -0.99076,-1.66312 -0.91092,0.98262 0,0 z m -1.85208,-0.2613 c -0.13914,-1.19344 -2.41818,-1.45392 -0.95571,-0.0131 0.16587,0.18605 0.93492,0.51895 0.95571,0.0131 z m -35.83978,-1.14338 c 0.0146,-1.31731 2.20272,-3.60067 1.19138,-4.38365 -1.78532,0.55477 -0.83671,4.67575 -2.10839,4.44311 0.0445,-1.03185 -0.20919,-4.38014 -1.02882,-1.78588 -1.18479,1.51664 1.46109,3.65817 1.94583,1.72642 z m 12.13429,-2.00961 c 0.69573,-1.27073 0.43531,-3.36813 -0.84354,-1.3191 -0.36621,0.43687 0.18742,2.10351 0.84354,1.3191 z m -12.93783,-2.1592 c 1.31289,-1.59222 -1.76473,0.12622 -0.65095,0.5053 l 0.29543,-0.17027 z m 5.42249,-1.30191 c -1.43502,-0.62654 -2.89373,2.17225 -0.63091,0.53786 l 0.32795,-0.21767 0.30296,-0.32014 z m -2.49709,-0.83977 c 0.0858,-0.78614 -3.10436,2.13249 -1.51188,1.01305 0.52577,-0.30275 1.0736,-0.58474 1.51188,-1.01305 z m 4.98899,0.3952 c 1.88814,-1.46117 -3.62114,0.57695 0,0 z m 3.94969,-0.43471 c -0.87282,-0.54619 -4.59985,0.0687 -1.75257,0.19439 0.56335,-0.0386 1.26171,0.10335 1.75257,-0.19439 z m -6.64003,-0.51597 c 2.35091,-1.54481 -3.81521,0.98838 -0.66048,0.24523 l 0.33859,-0.12705 z m 120.87481,85.33054 c -0.18263,-0.91677 0.29023,-4.28528 0.46197,-1.65957 0.22996,1.1514 -0.35893,5.6402612 -0.45246,2.26958 l -0.006,-0.29263 z m -56.47082,-1.58106 c -0.24485,-1.92173 2.10431,-2.9852 3.49555,-3.97867 1.03158,-0.3212 0.35497,-3.18883 -0.36716,-2.77533 -2.30907,1.64448 -1.27252,-1.48053 0.25449,-1.88899 0.34236,-0.37974 0.92232,-3.63349 -0.0685,-2.83449 -2.38846,1.48929 -1.45962,-1.749 0.2397,-2.07368 0.91556,-1.0579 0.92705,-4.64931 -1.10514,-2.77137 -1.44022,-0.7204 2.28571,-3.12667 2.23034,-3.29323 1.11318,0.86491 2.99857,-0.97627 4.10163,-0.0652 -2.12769,0.88416 -4.64845,2.53273 -2.99341,5.12238 0.88757,-0.76384 3.48617,0.45046 3.2966,-1.0607 -0.30002,-1.37764 0.66898,-2.26859 0.9306,-0.32195 0.54111,1.79424 0.15052,4.99836 0.88024,5.80611 -0.61415,0.57873 -0.97942,4.17828 -1.27766,1.52977 -0.31102,-1.74849 -3.63833,0.2434 -4.37545,1.13505 -0.37741,1.19668 -1.61936,3.93406 0.68799,2.39338 2.35097,-1.03807 4.83275,-1.95913 7.37076,-2.26886 0.35083,-0.7316 -0.40989,-4.9913 0.69523,-2.49038 0.30112,1.041 -0.43114,2.723 1.24599,2.44351 1.026,0.17221 4.45987,0.50629 1.77115,0.78446 -5.48552,0.68198 -10.66092,2.9868 -15.33374,5.85602 -0.47109,0.15775 -1.14932,1.23701 -1.67918,0.7522 z m 7.82726,-10.22992 c 0.97976,-0.0914 1.88778,-0.2418 1.52135,-1.44119 0.41894,-1.93972 -0.57293,-2.84724 -2.29319,-1.60423 -0.91565,0.25622 -1.69943,0.60627 -1.43223,1.7041 -0.42964,2.4826 0.38411,1.70329 2.20407,1.34132 z m 26.77242,8.26493 c -3.26409,-3.23907 -8.01104,-4.35564 -12.32365,-5.15784 2.52543,-1.14564 5.50494,-0.1646 8.01524,0.65721 1.21416,0.80247 2.25335,0.76487 1.48755,-0.91843 0.18014,-2.7713 -2.86149,-3.42909 -4.79804,-4.49096 -2.09621,-1.61651 -3.79697,-1.16574 -3.87388,1.3979 0.12207,-2.27004 -0.76754,-4.08061 -3.31846,-4.10884 -1.62803,-0.33159 -0.48383,-0.30575 0.52457,-0.29743 0.84312,-0.007 1.68623,-0.0143 2.52935,-0.0215 0.076,-1.39488 -0.20507,-2.87417 0.27048,-4.19996 1.07646,0.86966 0.65063,2.79019 0.89167,4.15838 0.34199,0.8232 2.55283,1.5097 3.24788,0.95958 0.17367,-1.36548 0.0526,-2.75157 0.0879,-4.12619 -2.49277,-1.27344 -5.2107,-1.96093 -7.88147,-2.73301 2.60207,-0.45361 5.25725,0.0678 7.74442,0.86118 0.21761,-1.35704 0.28316,-2.73386 0.41653,-4.10126 -2.86124,-1.19862 -5.88372,-1.92374 -8.87844,-2.7009 2.89771,-0.12828 5.78039,0.18883 8.58505,0.93126 0.66123,-0.79742 0.38219,-2.46654 0.60058,-3.63612 -0.5603,-0.4798 -1.65568,-0.61048 -2.42234,-0.95565 -2.35875,-0.82144 -4.82529,-1.24118 -7.29245,-1.57616 3.00497,-0.59976 6.09059,-0.23563 8.9765,0.74456 2.5341,-0.11113 -0.052,-5.84291 -1.1713,-3.22046 -0.75392,2.59373 0.0434,-2.35132 -1.95297,-1.78836 -1.68787,-1.05824 -3.4187,-0.35048 -2.90075,1.83229 0.22825,-1.61324 -1.10116,-3.34295 -2.15773,-3.11201 3.29478,0.31518 1.05591,-4.71796 0.69815,-4.55853 1.697,-1.1632 1.02134,-4.41014 0.82404,-6.26791 -2.26061,-0.55646 1.19423,0.0238 0.62341,-1.74579 0.0957,-2.0453 1.19123,-1.30252 0.97336,0.25778 -0.39391,1.58156 1.59066,0.90012 2.49116,1.30715 2.12909,1.74241 1.65392,-4.52767 2.52332,-2.36227 0.4373,0.97182 -0.64891,2.97307 0.73589,3.26058 0.65795,0.0408 1.92478,1.27669 1.98885,0.15194 0.12773,-1.29438 1.61512,-3.35017 1.11664,-0.68698 0.0431,0.82071 -0.48185,1.9546 0.65814,2.17051 0.66205,0.18933 1.84347,1.58748 1.84878,0.2483 1.6945,-2.40825 -0.98346,-3.4774 -2.79887,-4.40211 -2.14204,-1.22599 -4.498,-2.0854 -6.65436,-3.23555 4.33604,0.37948 8.55703,2.17619 12.05921,4.73795 1.54016,0.43489 2.25204,4.31731 0.11791,2.16027 -2.09057,-2.53086 -2.00688,2.88024 -0.40734,3.5963 1.59622,2.23966 -1.08188,0.59942 -1.35084,0.72743 -0.43263,1.88369 -0.72735,4.03531 0.77562,5.50131 0.89268,2.08933 -2.27371,-0.19097 -1.52575,2.2706 -0.32582,1.96643 1.46347,3.9886 -0.28386,5.08556 -0.95656,1.74424 2.41512,3.532 1.17533,4.641 -1.89484,-2.8053 -1.89262,2.49849 -0.63999,3.36334 1.22226,0.83269 0.81251,3.33948 -0.53618,1.30564 -1.17031,1.14119 -0.38161,4.59195 0.39532,6.39281 -2.46295,0.2834 -0.8536,4.11888 0.70423,5.17064 1.16657,1.23351 -0.0596,2.33139 -0.93826,0.75903 -1.71242,-1.14494 -1.21803,3.17037 0.42244,3.2356 1.2143,0.17177 3.07464,5.06947 0.59742,2.51808 z m -3.68264,-13.36642 c -0.92493,-1.17598 -3.89906,-3.7767 -3.308,-0.51456 0.20862,0.84962 -0.45015,2.24228 0.37848,2.71449 1.06307,0.53667 2.12615,1.07335 3.18922,1.61002 2.3e-4,-1.26556 0.35303,-2.63583 -0.2597,-3.80995 z m 0.12741,-4.47407 c -0.17884,-0.79613 0.39571,-2.00659 -0.362,-2.48436 -0.71503,-0.45346 -1.43005,-0.90691 -2.14508,-1.36037 -0.39485,1.33869 -0.50198,2.73661 -0.67977,4.11514 1.0395,0.65488 2.06906,1.326 3.1207,1.96128 0.0852,-0.73839 0.0517,-1.48939 0.0662,-2.23169 z m 0.26131,-5.74886 c 0.85258,-2.12614 -2.84454,-4.41122 -2.42795,-1.18606 -1.15909,1.6099 2.12789,3.43749 2.41085,2.53348 0.0143,-0.44898 0.0175,-0.89829 0.0171,-1.34742 z m -0.51214,-7.02995 c -1.71404,-2.12688 -1.96652,3.27751 0.0295,3.25001 1.15143,0.98155 0.83193,-2.23421 0.49115,-2.72929 l -0.22416,-0.23735 z m 1.1424,-1.96589 c 1.00889,-1.49179 -0.71237,-4.9792 -1.90466,-3.55908 -0.63473,1.11053 0.49537,5.4126 1.90466,3.55908 z m -3.44231,-3.15245 c 1.14655,-1.3511 -1.62916,-3.12104 -1.94875,-2.18068 -0.47993,1.50559 0.0584,4.52313 1.78069,3.32756 0.076,-0.37901 0.12661,-0.76335 0.16806,-1.14688 z m -3.14273,-1.3455 c 0.8512,-2.64721 -4.79894,-3.40262 -3.61646,-0.23497 -1.18999,1.81998 4.86137,2.84607 3.61646,0.23497 z m 7.33817,-2.72645 c -0.0572,-0.83729 0.47223,-2.00292 -0.67359,-2.2309 -0.58965,-0.19285 -1.81728,-1.47495 -1.50188,-0.12252 -0.39882,1.63036 -0.3635,5.47506 1.99614,4.22274 0.14726,-0.61143 0.14427,-1.24575 0.17933,-1.86932 z m -3.60164,-1.47588 c -0.13002,-0.72501 0.70874,-2.01078 -0.13936,-2.32014 -0.61038,-0.05 -1.88057,-1.34061 -1.84796,-0.18157 -0.38049,1.66836 -0.82829,4.96775 1.66028,4.46722 0.16317,-0.64487 0.24372,-1.30677 0.32704,-1.96551 z m -3.59931,0.33857 c -0.0934,-1.25896 0.43187,-2.83788 0.1886,-3.91714 -1.1302,-0.15787 -2.71563,-1.07675 -3.53697,-0.59828 -0.13091,1.65798 -0.15547,3.32188 -0.22348,4.98315 1.07235,-0.19109 3.51236,1.02289 3.57185,-0.46773 z m -23.63611,21.21605 c -0.34552,-2.94161 4.43574,-3.3914 6.64005,-3.51545 0.50818,0.897 -3.11306,1.66098 -4.1912,2.44384 -0.85116,0.0594 -1.68587,1.50826 -2.44885,1.07161 z m -1.09905,-4.58064 c 0.11659,-2.12383 4.1293,-2.33474 2.11995,-4.88658 -0.41189,-1.43601 -3.2937,2.20884 -2.79554,-0.33454 1.38448,-1.19987 3.35644,-2.84176 1.70849,-4.6498 -0.77141,1.23523 -3.14446,1.76912 -1.79308,-0.25482 0.44487,-0.97653 2.1618,-1.44255 1.62549,-2.69945 -0.17443,-0.66172 -0.13073,-2.0079 -0.43798,-2.25284 -0.82015,0.6461 -1.75751,2.40297 -2.61739,2.14383 -0.25569,-2.57186 3.34409,-3.60571 3.04317,-6.30095 0.51303,-1.91379 -0.66376,0.0378 -1.40679,0.41211 -2.35776,-0.5712 1.4679,-3.88571 2.64893,-4.7129 3.40486,-2.57474 7.61448,-4.36702 11.91447,-4.40517 -1.22179,1.01516 -3.8324,1.41235 -5.44438,2.4884 -2.27023,1.08913 -4.41071,2.41853 -6.45206,3.88782 0.0342,1.06188 -0.68601,4.05848 1.19222,2.53099 0.60938,-0.61544 2.227,-0.72604 1.85346,-1.86526 -0.17565,-1.17282 -0.0254,-3.48119 0.65047,-1.09067 0.13968,1.14178 0.62885,1.52568 1.62283,0.81487 1.79495,-0.79713 4.91139,-0.70675 3.37127,-3.5029 0.36249,-0.77103 2.20822,2.96128 1.25429,3.82288 0.0674,1.18282 -0.34057,6.21995 -0.71048,2.70486 -0.33736,-0.79202 0.29808,-2.95648 -0.36593,-3.12582 -1.51727,0.69303 -3.03454,1.38606 -4.55181,2.07909 0.59382,1.52192 -0.60626,4.49306 1.8316,4.21726 1.7764,0.59624 -1.78488,0.62565 -1.25319,1.76146 -0.0675,1.23968 0.17569,2.5578 -0.20862,3.73651 -0.79084,-0.85259 -0.74028,-2.70794 -1.36906,-3.38013 -0.89403,0.53717 -1.78806,1.07433 -2.68209,1.61149 0.36214,1.07901 -0.26957,3.73839 1.42473,3.28568 1.32059,-0.54362 2.61968,-0.10459 0.67402,0.71781 -0.65014,0.51142 -1.88854,0.73454 -1.41567,1.79632 0.0495,1.34803 0.1092,2.8888 1.81761,1.72692 1.16043,-0.33659 3.40573,-0.47244 1.29124,0.37926 -1.89716,0.95337 -3.4601,2.16205 -5.34329,3.1031 -0.33225,0.11479 -0.93455,0.80402 -1.19688,0.24117 z m 5.36602,-16.40278 c 0.82044,-3.69407 -4.36078,-0.20929 -3.11324,1.93983 -0.19508,2.34452 2.02693,0.39437 3.0355,-0.0809 0.0259,-0.61964 0.0518,-1.23929 0.0777,-1.85893 z"
       id="path2"
       inkscape:export-filename="path2.svg"
       inkscape:export-xdpi="400"
       inkscape:export-ydpi="400" /></g></svg>
