<?xml version="1.0" encoding="UTF-8" standalone="no"?>
<!-- Created with Inkscape (http://www.inkscape.org/) -->

<svg
   width="24.465626mm"
   height="14.826114mm"
   viewBox="0 0 24.465626 14.826114"
   version="1.1"
   id="svg1"
   xml:space="preserve"
   xmlns="http://www.w3.org/2000/svg"
   xmlns:svg="http://www.w3.org/2000/svg"><defs
     id="defs1" /><g
     id="layer1"
     transform="translate(-158.87327,-184.31344)"><path
       style="fill:#000000;stroke-width:0.999997"
       d="m 183.20059,190.48277 c -0.16904,-0.12284 -0.48798,-0.0614 -0.9336,0.17987 -3.36251,1.82019 -6.24559,2.17375 -11.02736,1.35232 -0.95558,-0.16411 -0.95558,-0.16411 -0.0967,-0.31739 4.36045,-0.77802 5.66698,-1.29421 6.95968,-2.74966 2.51762,-2.8346 2.91738,-6.29216 0.4333,-3.74766 -1.2673,1.29812 -1.43009,1.40824 -3.35176,2.26725 -2.34825,1.04971 -2.54091,1.06709 -5.30779,0.47883 -4.27823,-0.9096 -9.02838,-0.55712 -9.36384,0.69485 -0.12893,0.48117 -0.32241,0.49893 1.67686,-0.15392 0.8891,-0.29031 3.88713,-0.47438 4.95364,-0.30411 0.44966,0.0718 1.87586,0.347 3.16933,0.6116 2.24405,0.45904 2.3946,0.46632 3.28709,0.15875 1.90609,-0.65688 3.74955,-1.56023 4.42236,-2.16707 1.34897,-1.21674 1.32587,-1.20446 1.06402,-0.56534 -0.96699,2.36027 -3.59697,4.19451 -6.42669,4.4822 -3.26567,0.33202 -5.1238,1.32791 -3.3596,1.80062 3.99656,1.07087 7.95995,1.00886 10.94747,-0.17128 0.89079,-0.35189 1.62804,-0.58321 1.59209,-0.53707 -3.14038,4.03012 -8.65872,1.89058 -14.57965,2.69972 -3.13988,0.42909 -4.64096,0.96676 -6.61356,2.49743 -0.6978,0.54148 -1.3515,1.19024 -1.51124,1.29937 -0.18963,0.12952 -0.30602,0.24278 -0.24509,0.54529 0.0933,0.46335 0.29882,0.4839 1.6296,-0.58408 1.64006,-1.31618 2.4596,-1.59608 3.14491,-1.88256 0.44382,-0.2641 1.4036,-0.4871 1.77875,-0.65373 0.40916,-0.18178 1.32261,-0.46174 2.34099,-0.54001 5.97252,-0.45907 11.01826,1.3169 14.11845,-2.31025 1.36303,-1.59473 1.65268,-2.12659 1.29833,-2.38398 z"
       id="path4" /></g></svg>
