<?xml version="1.0" encoding="UTF-8" standalone="no"?>
<!-- Created with Inkscape (http://www.inkscape.org/) -->

<svg
   width="238.92979mm"
   height="179.46474mm"
   viewBox="0 0 238.9298 179.46474"
   version="1.1"
   id="svg1"
   xml:space="preserve"
   inkscape:version="1.4 (86a8ad7, 2024-10-11)"
   sodipodi:docname="corner14_all_assets.svg"
   xmlns:inkscape="http://www.inkscape.org/namespaces/inkscape"
   xmlns:sodipodi="http://sodipodi.sourceforge.net/DTD/sodipodi-0.dtd"
   xmlns="http://www.w3.org/2000/svg"
   xmlns:svg="http://www.w3.org/2000/svg"><sodipodi:namedview
     id="namedview1"
     pagecolor="#ffffff"
     bordercolor="#666666"
     borderopacity="1.0"
     inkscape:showpageshadow="2"
     inkscape:pageopacity="0.0"
     inkscape:pagecheckerboard="0"
     inkscape:deskcolor="#d1d1d1"
     inkscape:document-units="mm"
     inkscape:zoom="0.42671858"
     inkscape:cx="4034.2748"
     inkscape:cy="656.17016"
     inkscape:window-width="3840"
     inkscape:window-height="2126"
     inkscape:window-x="3829"
     inkscape:window-y="-11"
     inkscape:window-maximized="1"
     inkscape:current-layer="layer1"
     showgrid="false"><inkscape:page
       x="0"
       y="-4.6430226e-13"
       width="238.92979"
       height="179.46474"
       id="page2"
       margin="0"
       bleed="0" /></sodipodi:namedview><defs
     id="defs1" /><g
     inkscape:label="Layer 1"
     inkscape:groupmode="layer"
     id="layer1"
     transform="translate(-772.21283,-126.61657)"><path
       style="fill:#000000"
       d="m 901.8894,305.90308 c -4.85838,-0.66246 -9.69489,-1.75295 -14.30582,-3.41817 -5.37212,-2.66364 -9.07441,-7.9368 -11.12139,-13.44837 -1.01509,-3.74992 -1.2275,-7.73364 -0.85096,-11.58854 1.20159,-5.53132 3.39747,-10.76377 5.78943,-15.8699 2.07252,-4.66354 3.44779,-9.64053 3.64338,-14.75766 0.46983,-1.91787 -0.25041,-3.90091 -2.52881,-2.70382 -5.05597,0.95766 -10.20809,0.60118 -15.278,-0.0141 -4.79283,-0.47257 -9.68301,-0.48905 -14.37614,-1.6135 -1.55932,-0.92246 -4.30604,-1.03516 -6.26638,-1.84841 -7.16065,-2.10673 -13.93046,-5.41931 -20.05683,-9.67447 -2.17774,-1.58962 0.15703,2.78609 -0.37095,4.07215 0.12549,4.38242 1.83756,8.48188 2.39015,12.80439 0.78131,2.75842 0.49786,5.8001 -0.83593,8.34161 -2.11542,3.69898 -6.29819,5.1531 -9.91593,6.92631 -2.2826,0.92314 -4.52875,2.09059 -7.0289,2.23116 -5.13815,1.14545 -10.42361,1.62109 -15.66868,2.03063 -6.09114,0.18355 -12.2057,0.395 -18.2891,-0.003 -1.48831,-0.19678 -6.96111,-1.23765 -3.45108,-2.83756 1.92906,-1.2765 4.32277,0.0963 6.56265,-0.0722 5.99092,0.17037 11.99188,1.17357 17.97392,0.30282 5.82012,-0.54098 11.79338,-0.76179 17.27505,-3.01993 2.31085,-1.05596 4.8778,-1.47204 6.93067,-3.05712 1.96886,-1.10621 3.35358,-3.07282 4.34855,-5.01299 -0.0764,-2.12893 0.2024,-4.30738 -0.24093,-6.39596 -2.18068,-0.30566 -4.01487,-2.2319 -6.29061,-2.73578 -3.95331,-1.05015 -8.11865,-0.82108 -12.17351,-1.12228 -6.18419,-0.37071 -12.61562,-0.60593 -18.28778,-3.37589 -3.97136,-1.16205 -6.83056,-6.36646 -4.17614,-10.03076 1.83964,-2.6472 4.34052,-4.84271 7.18006,-6.2967 3.56563,-0.47951 6.67724,-2.83136 10.36925,-2.70198 4.57295,0.0832 9.37455,-0.27185 13.60198,1.82471 2.78458,1.1575 5.55139,2.41296 7.90994,4.31872 6.12531,3.89772 12.2593,7.98454 19.25736,10.15701 5.33454,1.84836 10.85791,3.17486 16.43201,4.02197 4.64595,0.34991 9.29441,0.70527 13.93959,1.03921 3.12649,-0.0813 6.48068,0.13471 9.38639,-1.16744 2.40897,-0.66274 4.98037,-0.90305 7.26502,-2.07949 4.91641,-2.17319 9.93611,-4.26388 14.43712,-7.23011 3.68532,-2.70737 5.57917,-7.3942 5.18244,-11.90747 -0.1621,-4.64389 -1.29123,-9.46227 0.51468,-13.94819 0.9402,-3.28259 2.82121,-6.39246 5.89761,-8.06083 3.1682,-2.25884 6.79626,-3.77378 10.63142,-4.43614 4.8213,-1.09986 9.90148,-1.66552 14.72623,-0.25333 3.83176,0.81102 7.28601,2.79828 10.1021,5.49319 1.89141,1.8735 3.85816,3.34511 4.4163,5.95891 1.77807,3.92676 3.18723,8.11946 3.05891,12.4858 0.0795,2.33025 -0.38565,4.62508 -0.43552,6.95322 -0.58882,4.74851 -4.37943,8.01797 -7.28784,11.46289 -0.11793,2.24205 -2.88571,3.15627 -4.83029,3.95498 -4.68996,1.90348 -9.26874,4.09762 -14.16448,5.44924 -2.60109,0.77539 -5.1989,1.58659 -7.8054,2.32821 2.22005,-1.74886 5.31385,-1.68125 7.72663,-3.0714 -6.44558,1.53614 -12.74373,3.75119 -18.90302,6.22368 -5.56801,2.08803 -11.05378,4.42095 -16.15963,7.49307 -4.47593,2.49535 -8.77304,5.29173 -13.03194,8.1319 1.09302,-1.61063 3.49925,-3.26358 5.27842,-4.69939 1.82945,-1.24358 3.3422,-2.87924 5.38848,-3.74546 4.52508,-2.76331 9.17769,-5.32702 14.14508,-7.2116 3.81634,-1.56952 7.62783,-3.18615 11.60487,-4.28332 6.41215,-2.31502 12.99116,-4.14996 19.42391,-6.39064 1.16385,-0.2571 1.0194,-4.27127 -0.39932,-3.05704 -0.92944,0.42955 -1.85889,0.8591 -2.78833,1.28864 -0.0845,0.73595 -0.0803,2.25356 -0.22007,2.50261 -0.20136,-1.91657 -1.25077,-2.51468 -2.94972,-1.21982 -1.4575,0.74901 -3.7132,0.88811 -3.66997,2.98428 -0.11668,-2.63021 -3.64777,0.56172 -5.27083,0.58932 -3.02499,1.02585 -6.05534,2.12921 -9.17747,2.79104 4.45466,-2.3894 9.33964,-3.94062 13.75502,-6.409 1.29913,-3.2849 -3.26555,0.15639 -4.76176,0.53442 -6.631,3.32599 -13.58735,5.91502 -20.57889,8.36281 -2.64552,0.56984 -4.43905,2.39054 -5.50498,4.67505 -0.11521,-0.87665 0.80723,-3.07769 -0.66379,-1.7433 -2.56009,0.85735 -3.00568,3.46228 -3.86312,5.66592 -1.71044,3.61014 0.55103,-3.01614 -0.54429,-2.77731 -2.27021,0.5177 -3.0113,4.53991 -4.12504,4.90048 -0.0934,-0.68107 1.40384,-3.32606 -0.0508,-1.96727 -2.24328,1.34738 1.18776,-2.01462 1.33537,-2.87009 0.36536,-1.41285 1.52727,-4.45291 0.73966,-5.17967 -2.74547,1.33245 1.45774,-1.52331 0.75032,-2.99726 -0.11159,-0.84927 1.11047,-3.5046 -0.5889,-2.25581 -1.19496,0.84258 -2.48911,0.36372 -0.82937,-0.76091 1.01811,-0.60116 2.82878,-2.749 0.59248,-1.0889 -1.41416,0.73903 -3.81059,0.81588 -4.6179,2.22849 -0.19408,3.35139 0.085,6.77673 -0.66666,10.06065 -1.45537,4.49827 -3.30316,8.84782 -5.28565,13.13756 -1.36458,3.21533 -2.55576,6.52989 -3.50639,9.88007 0.11703,4.49952 -0.5311,9.25453 1.67944,13.38296 2.15395,4.3355 5.42186,8.37895 9.80277,10.58914 3.04236,1.49301 6.59638,1.23921 9.697,2.47009 2.10811,0.67886 4.7313,0.22305 7.04727,0.30033 4.50299,-0.079 9.0717,-0.26981 13.34193,-1.8564 9.36913,-2.94549 17.73294,-8.24334 26.19357,-13.09548 6.57884,-4.01237 13.11995,-8.09792 20.00403,-11.57775 10.32791,-5.6958 21.57795,-9.52345 32.945,-12.53937 2.31198,-0.59756 4.87808,-0.91402 6.34178,-2.23659 2.272,-0.56356 3.248,0.79352 3.3836,2.57003 -1.9956,0.83687 -4.9597,0.74211 -7.2559,1.50305 -10.22475,2.54867 -20.27175,5.95142 -29.80995,10.44527 -7.72619,3.94315 -15.30178,8.17424 -22.6311,12.81641 -7.58751,4.44567 -15.13119,9.07169 -23.24807,12.50171 -5.09792,2.04135 -10.44852,3.73083 -15.99926,3.65542 -2.41782,0.0671 -4.85076,0.1089 -7.25935,-0.12593 z m -7.12753,-54.31436 c 0.25275,-1.28092 2.17852,-6.13875 -0.37259,-4.10205 -0.86933,1.50836 -1.23672,4.28915 -1.48535,5.53209 0.63406,-0.45632 1.31147,-0.86455 1.85794,-1.43004 z m 4.61235,-2.85817 c 0.6714,-1.5265 1.7795,-5.47116 -1.01209,-3.38234 -1.09058,0.26756 -0.76634,1.65644 -1.13159,2.49886 -0.0178,0.66584 -0.814,2.38374 -0.29898,2.32935 0.81911,-0.47331 1.65385,-0.92257 2.44266,-1.44587 z m 4.35242,-1.96015 c 2.64386,-0.40651 4.29317,-2.39342 3.66077,-5.08931 -1.40027,-0.32671 -2.98115,1.01082 -4.43575,1.46884 -1.08973,0.13721 -0.80592,1.42023 -1.13299,2.19365 -0.43882,1.32573 -0.92881,3.24206 1.03261,1.79341 l 0.42404,-0.17693 z m -8.4149,-1.15535 c 1.10919,-0.68364 1.46201,-3.94018 1.03151,-4.4087 -2.22302,0.54202 -2.11423,2.94507 -2.07629,4.83024 0.29708,0.14333 0.72935,-0.37801 1.04478,-0.42154 z m 16.91678,-2.15501 c 0.95434,-0.2983 1.84802,-0.64157 1.61999,-1.81639 0.17834,-1.31688 0.6088,-3.46895 -1.4215,-2.12084 -1.09843,0.38259 -2.18524,0.79746 -3.27767,1.1967 -0.32051,1.44416 -0.63944,2.88885 -0.91999,4.34141 1.33873,-0.51935 2.67408,-1.04748 3.99917,-1.60088 z m -87.09311,0.60919 c 0.2046,-2.01556 -5.25639,-2.77352 -2.33415,-0.89026 0.70322,0.22397 1.71851,1.24033 2.33415,0.89026 z m 75.85547,-3.40006 c 0.47699,-1.35263 0.30111,-2.5499 -1.20111,-1.28627 -1.85435,0.52006 -1.8144,3.54718 -1.82412,4.63082 1.3608,-0.81997 3.12083,-1.39775 3.02523,-3.34455 z m 15.5657,0.97648 c 0.68551,-0.4663 2.15811,-0.38624 1.87555,-1.52454 0.0415,-0.99711 0.0829,-1.99423 0.1244,-2.99134 -1.24504,0.7719 -3.44876,0.61692 -3.7878,2.23515 -0.1667,2.0678 -1.22124,4.04684 1.78785,2.28073 z m -95.41906,0.15086 c -0.33827,-1.90022 -3.31536,-1.50517 -4.58232,-0.31273 1.28271,0.1742 2.76189,0.36281 4.07979,0.63207 l 0.26651,-0.10476 z m -4.32187,-0.9773 c -0.0109,-1.99063 -4.42844,-0.88581 -6.13623,-1.36337 -1.8647,-0.073 -3.72969,-0.13819 -5.59454,-0.20723 0.0802,0.70312 -0.75593,2.20062 0.5334,1.85534 3.49103,0.05 6.98669,0.29761 10.47478,0.14416 0.29995,-0.008 0.5538,-0.1976 0.72259,-0.4289 z m 88.53667,-0.40553 c 0.70841,-0.4694 2.02334,-0.48622 2.32898,-1.25616 0.0357,-1.32331 1.07008,-4.42794 -1.27921,-2.91172 -2.38247,0.28409 -4.65868,3.27341 -3.29263,5.04845 0.75738,-0.26794 1.50081,-0.57332 2.24286,-0.88057 z m -101.4814,0.0909 c -0.48226,-2.42471 -4.22289,-1.29705 -6.08165,-2.2108 -1.98733,-0.61956 -4.27074,-1.03063 -3.93421,1.67199 3.27743,0.4103 6.60639,0.85884 9.91528,1.08857 0.25826,-0.0522 0.12672,-0.40669 0.10058,-0.54976 z m 116.29786,-0.42687 c 1.47434,-1.14765 3.2148,-1.4806 4.91963,-2.20218 0.92628,-0.25284 0.34395,-1.59569 0.59798,-2.33425 -0.0307,-0.70626 -1.14465,1.07802 -1.61629,1.38555 -0.75704,0.97791 -2.62665,2.53125 -1.19515,0.36379 0.83902,-1.15559 2.05191,-3.4662 -0.36639,-1.91411 -2.59001,0.17971 -4.40553,3.62934 -3.17056,5.0494 l 0.37924,-0.15677 0.45155,-0.19143 z m -126.62277,-0.71925 c 0.3229,-2.32988 -4.24512,0.74732 -0.93766,0.36818 0.30178,-0.001 1.1832,0.1987 0.93766,-0.36818 z m 30.26648,-0.23615 c -0.62298,-1.83468 -2.79316,-0.50413 -0.78075,0.34767 0.25747,0.0411 0.76385,0.0362 0.78075,-0.34767 z m 120.29572,-0.44955 c 2.42101,-0.70591 4.57121,-2.5709 2.77215,-4.9812 -1.64929,0.5932 -3.20377,1.41976 -4.79912,2.14212 0.22796,0.98984 -0.64334,3.67473 0.86509,3.24521 0.39036,-0.12644 0.7773,-0.26316 1.16188,-0.40613 z m -30.07308,-3.34538 c 0.85679,-3.29207 -4.49832,-0.85125 -4.47335,0.99699 0.15777,0.69302 -0.97552,3.10751 0.40254,2.3297 1.35685,-0.46354 2.71369,-0.92709 4.07053,-1.39064 9e-5,-0.64535 1.9e-4,-1.2907 2.8e-4,-1.93605 z m -121.85018,2.08425 c -1.08318,-2.23784 -2.44539,2.09912 -1.28174,1.03813 0.44648,-0.32093 0.90973,-0.62795 1.28174,-1.03813 z m 141.62436,0.316 c 0.76558,-0.41423 1.91009,-0.57235 2.4443,-1.14295 0.63494,-3.07762 -2.37134,-0.78984 -3.90155,-0.13284 -2.11103,0.46292 -1.48815,3.37864 0.49305,1.6614 l 0.46956,-0.18609 0.49494,-0.19952 z m -144.07163,-0.3319 c -0.2838,-1.71482 -2.23351,0.21106 -0.18617,0.62383 0.55007,0.68771 0.0561,-0.69838 0.18617,-0.62383 z m 30.31581,-0.0356 c -0.41981,-1.79895 -4.05799,-0.80905 -1.96412,0.48216 0.62952,0.0572 1.56777,0.11066 1.96412,-0.48216 z m -4.33848,-0.12685 c 0.32603,-2.31303 -1.84135,-1.38348 -3.06477,-0.60313 0.32729,-0.49774 1.31275,-1.27562 -0.28489,-1.19633 -1.37989,-0.73466 -4.88254,0.1607 -2.97469,1.66469 2.06804,0.10946 4.40481,0.33176 6.32435,0.13477 z m 112.85195,-0.8674 c 1.45352,-0.53435 2.00562,-1.86407 0.5231,-0.46023 0.70398,-0.79098 2.13341,-4.51419 -0.3415,-3.05841 -2.227,0.32872 -3.21114,2.65041 -2.60558,4.49679 0.85104,-0.19764 1.63083,-0.62397 2.42398,-0.97815 z m -120.51423,0.0376 c 0.44037,-1.4744 -2.88951,-2.08351 -2.76107,-0.79068 -0.047,0.90213 -0.21569,1.92599 1.04717,1.51828 0.56898,-0.10274 2.18014,0.37734 1.7139,-0.7276 z m -4.75533,-0.39688 c 0.10495,-1.36836 -2.70138,-1.3651 -3.29877,-0.91924 -0.87324,1.96243 1.52691,1.85635 2.83818,1.77742 0.93479,0.16765 0.5569,-0.19571 0.46059,-0.85818 z m 113.78071,0.24853 c 0.86454,-0.30763 1.98432,-0.42996 1.62447,-1.62644 0.0387,-1.09662 0.0775,-2.19325 0.11623,-3.28988 -1.15627,0.48431 -2.34428,0.90202 -3.46052,1.47491 -0.0939,1.57814 -1.39962,5.5077 1.71982,3.44141 z m -129.28685,-0.47599 c -1.57553,-0.83129 0.53212,1.1957 0,0 z m 10.6979,0.029 c -0.97503,-1.48269 -1.90911,1.69881 0.0398,0.26812 z m 140.76709,-0.39688 c 1.99304,-0.14967 2.29978,-3.04719 0.17915,-1.97207 -2.18685,-0.82232 -3.58187,4.22084 -0.87732,2.28679 l 0.34156,-0.15391 0.35661,-0.16125 z m 11.79571,-1.73587 c 1.01617,-1.06355 4.0614,-3.02058 1.13257,-2.64519 -1.7808,1.48874 -5.46392,1.82777 -4.13597,4.92646 0.99023,-0.18842 2.06977,-1.59804 3.0034,-2.28127 z m -154.94238,1.4988 c 1.9142,-0.74343 -0.20022,-0.86183 -1.21175,-0.87373 -1.06084,1.63664 0.047,1.81114 1.21175,0.87373 z m -3.25334,-0.0275 c -0.36457,-1.14238 -2.28991,1.18168 -0.18601,0.2935 0.11695,-0.0471 0.18609,-0.17264 0.18601,-0.2935 z m 30.1878,-0.41489 c 2.22395,-1.9071 -3.33139,-1.49019 -0.90637,0.49105 0.3426,-0.0729 0.62092,-0.30582 0.90637,-0.49105 z M 932.512,234.6399 c 1.75382,-0.9542 3.27512,-3.29414 3.10858,-5.18178 -1.80435,1.31746 -4.55058,3.56783 -4.45338,5.7748 0.48289,-0.11297 0.90096,-0.38726 1.3448,-0.59302 z m -143.09534,-0.41928 c 0.553,-1.68802 -3.69556,0.4381 -1.7963,0.41026 0.59816,0.13218 2.02777,0.84376 1.7963,-0.41026 z m 131.25557,0.38537 c 1.90321,-1.56018 2.91485,-3.92117 4.25692,-5.94595 -1.71133,0.93187 -4.49218,1.09611 -4.98623,3.281 0.0618,0.85419 -1.16337,4.11021 0.72931,2.66495 z m -11.88702,-2.10351 c 0.39246,-1.79601 -1.82844,1.12871 -2.64683,1.67523 -0.72338,0.63807 2.33926,-0.78388 2.48217,-1.2746 z m -89.71782,1.17966 c 1.84873,-2.07137 -1.3,-1.45407 -1.26313,0.0626 0.37689,0.32063 0.89148,0.17759 1.26313,-0.0626 z m 124.24739,-0.20022 c 1.00527,-0.82656 3.80716,-3.36401 2.82417,-4.06155 -1.43301,0.72939 -5.46287,3.08517 -3.48657,4.39494 l 0.28977,-0.13706 z m -17.82014,-1.0954 c 0.14286,-0.72015 0.4332,-3.88441 -0.60727,-1.94493 -0.71035,1.04962 -3.75269,3.93524 -1.00072,2.69671 0.54206,-0.23039 1.11958,-0.41423 1.60799,-0.75178 z M 815.248,232.83155 c 0.44769,-2.41464 -4.7798,-1.11002 -1.93831,0.32754 0.44435,-0.20458 2.40408,0.85694 1.93831,-0.32754 z m 120.33678,0.24152 c 1.39007,-1.61256 -1.48037,0.0632 -0.4954,0.30125 z m -132.40979,-0.96912 c -0.15395,-2.30204 -5.28717,0.3532 -1.84141,0.4887 0.73533,-0.367 2.16023,1.02535 1.84141,-0.4887 z m 4.49792,0.13229 c -0.50047,-2.08043 -4.20643,0.65978 -1.19063,0.66146 0.46049,-0.0109 1.34845,0.10101 1.19063,-0.66146 z m 3.46866,0.0661 c -0.84371,-1.99528 -3.24987,0.65905 -0.83135,0.59531 0.35535,0.0483 1.25776,0.04 0.83135,-0.59531 z m -23.82419,-0.55147 c -1.15303,-0.42074 -0.66453,1.77978 0.11602,0.15915 l -0.11602,-0.15911 z m 125.25289,0.33402 c 0.97846,-0.24175 1.82423,-0.57553 1.46513,-1.74495 -0.0884,-1.37019 -0.18102,-2.87758 -0.39992,-3.35816 -3.16044,0.0393 -2.78098,3.2381 -3.24832,5.43025 0.42006,0.58028 1.6216,-0.23751 2.18311,-0.32714 z m -114.15778,-0.37787 c 0.0805,-1.81225 -3.54384,1.25997 -1.35141,0.65149 0.49857,-0.0292 1.49846,0.19153 1.35141,-0.65149 z m 140.77066,-0.55232 c 0.62072,-0.55095 1.9149,-0.7129 2.10434,-1.51297 0,-1.07145 0,-2.1429 0,-3.21435 -1.57897,1.73227 -3.4074,3.34785 -4.49792,5.43861 -0.0697,1.32898 1.91471,-0.7373 2.39358,-0.71129 z m -10.62845,-2.20492 c 0.95237,-1.13648 2.35883,-3.17588 -0.0438,-1.7509 -2.00806,-0.12718 -2.40136,3.79207 -1.60434,3.94488 0.59185,-0.69796 1.10411,-1.45914 1.64818,-2.19398 z m -139.02,2.02964 c 0.47824,-1.17732 0.38199,-3.27337 -1.03342,-1.49022 -2.0525,0.99365 0.17628,2.2033 1.03342,1.49022 z m 6.11524,-0.0577 c 1.10081,-1.09947 -2.23484,0.23069 -0.42321,0.27776 l 0.42321,-0.27818 z m 157.09958,-3.26126 c 1.3413,-1.23308 4.10277,-2.57984 3.95242,-4.30141 -1.6596,2.0204 -3.45125,3.90564 -6.08814,4.57592 -1.57074,-0.13031 -4.47824,4.88817 -1.48327,2.42196 1.2213,-0.8785 2.41741,-1.79137 3.61899,-2.69647 z m -34.01776,1.87723 c 0.58266,-1.18452 0.22716,-2.61904 0.31483,-3.91605 -0.80678,0.88587 -2.80215,3.25684 -1.20537,0.70606 -0.21911,-1.05875 -3.34139,0.48969 -2.47764,2.14762 0.23918,0.66761 -0.5547,2.96026 0.54059,2.31867 0.94144,-0.42118 1.88044,-0.84807 2.82759,-1.2563 z m -95.51458,0.71706 c 2.50055,-1.56692 -2.27149,-1.64193 -1.52136,0.24993 0.48354,0.53282 1.06972,0.005 1.52136,-0.24993 z m 106.80372,0.17805 c 1.37886,-1.95563 -1.24487,-0.22477 -0.47984,0.29673 z m -110.79428,-1.68002 c -2.05903,0.22539 -1.3206,1.71175 0.0432,0.62212 l 0.0234,-0.38545 z m -27.05036,0.73529 c -0.60523,-2.21323 -1.0954,1.00774 0,0 z m 11.21836,-0.94771 c 0.55467,-2.27128 -4.71606,-0.79554 -2.53473,-0.43178 1.01929,-0.34506 -1.83974,1.61673 0.38624,1.13274 0.69888,-0.0503 2.25404,0.54654 2.14849,-0.70096 z m 4.27829,-0.008 c -0.19792,-2.85624 -4.30955,1.02733 -1.22149,0.92605 0.63038,0.0648 1.49254,-0.009 1.22149,-0.92605 z m 3.175,-0.16315 c -0.38652,-3.15848 -3.26926,2.17577 -0.11435,0.93228 0.15008,-0.29134 0.0991,-0.62083 0.11435,-0.93228 z m 3.96875,-0.10143 c 0.051,-2.50075 -3.32905,-0.73752 -2.38125,1.19063 0.72465,-0.21869 2.37209,0.4854 2.38125,-0.44879 0,-0.24728 0,-0.49456 0,-0.74184 z m 118.02653,0.58791 c 1.27926,-1.05623 3.63013,-3.60732 2.46353,-4.89741 -2.01587,0.38875 -4.57331,4.41984 -3.14909,5.32308 l 0.32381,-0.19165 z m -134.4307,-0.45562 c 0.16855,-1.84578 -3.34521,1.33698 -0.55216,0.69375 0.53189,0.3816 0.57632,-0.43977 0.55216,-0.69375 z m 123.40878,-0.63062 c 0.80906,-1.59129 2.91235,-3.91096 2.8805,-5.10583 -1.41068,0.50335 -2.7916,1.08472 -4.18408,1.63541 0.009,1.37982 -0.23634,2.79263 -0.004,4.14915 0.46875,0.2513 1.05486,-0.33851 1.3071,-0.67873 z m -103.30045,-0.58614 c -1.61256,-1.26751 -2.71587,2.14438 -0.95019,0.66679 0.32636,-0.20639 0.67818,-0.3856 0.95019,-0.66679 z m 126.15824,-0.96037 c 0.96185,-0.8952 2.39345,-4.07808 -0.0831,-2.16625 -0.70712,0.56427 -2.1073,0.7391 -1.72095,1.925 -0.0359,1.01898 -0.0915,3.43512 1.00184,1.2779 0.26829,-0.34486 0.53563,-0.69047 0.80223,-1.03665 z m -151.69053,1.38338 c -0.0117,-1.0646 -0.95409,0.99144 0,0 z m 5.1058,-1.18115 c -1.30069,-1.78516 -4.15854,0.46598 -2.84779,1.31805 0.953,-0.43083 1.92627,-0.82126 2.84779,-1.31805 z m 126.80213,0.24832 c 1.44008,-0.64259 0.65172,-3.11321 -0.24927,-0.78696 -0.50977,0.67605 -1.18972,1.71404 0.24927,0.78696 z m 14.62143,-1.78004 c 1.98876,-0.46544 1.80412,-3.14742 1.28892,-4.09782 -1.17111,1.77349 -2.43961,3.48886 -3.48807,5.33862 0.68067,0.0211 1.53028,-0.91275 2.19915,-1.2408 z m 10.17109,0.0233 c 2.38158,-0.16312 1.62109,-5.5575 0.0116,-2.38663 -0.85756,0.75357 -3.42644,4.70472 -0.64149,2.79358 l 0.29591,-0.19008 z M 803.58753,224.2868 c 0.73807,-2.22564 -2.05515,-1.06176 -3.35024,-1.10021 -0.61232,1.92075 2.53457,3.22698 3.2796,1.53147 l 0.0707,-0.4313 z m 4.20342,0.87212 c 0.26022,-1.18956 0.88513,-2.84854 -0.92843,-2.31511 -1.25112,-0.32485 -1.50749,0.34504 -1.30628,1.47252 -0.51126,1.54334 1.10738,1.28899 2.1148,0.97573 z m 121.18986,-2.08481 c 0.68179,-0.93643 3.27169,-4.05505 0.44726,-2.37228 -2.06453,0.31048 -3.12397,3.74897 -2.13979,4.59722 0.58875,-0.72249 1.14011,-1.4746 1.69253,-2.22494 z m -117.86832,1.62179 c -0.4069,-1.64861 -3.24946,0.50599 -0.92604,0.52916 0.34129,0.0162 1.00914,0.004 0.92604,-0.52916 z m 3.96875,-0.007 c -0.60336,-1.59827 -4.25921,-0.30619 -1.70894,0.2672 0.54569,-0.0385 1.26209,0.10888 1.70894,-0.2672 z m 98.35885,0.10437 c 1.53354,-0.8872 -0.041,-3.00622 -0.73788,-0.72667 -0.84147,0.96225 -0.11182,1.0654 0.73788,0.72667 z m -114.49843,-0.5271 c -0.53113,-0.87139 -0.98624,1.39804 0,0 z m 131.67119,-0.24359 c 0.27786,-1.54105 -1.20191,1.42228 2e-5,0 z m -13.77479,-1.77453 c 0.20681,-0.81942 3.23765,-3.85225 1.03913,-2.76533 -0.73177,0.4327 -2.10865,0.39039 -2.3987,1.14834 0.0661,1.01734 -0.58102,4.62539 0.64463,2.68757 0.2443,-0.35282 0.48177,-0.71035 0.71494,-1.07058 z m -106.32386,1.48766 c 1.66065,-1.04664 -2.91576,-0.3677 -0.59292,0.13017 l 0.26886,-0.0502 z m 102.67871,-1.61995 c 1.01751,-2.85656 -1.26587,0.14321 -0.65013,1.45273 0.30128,-0.44277 0.44905,-0.96241 0.65013,-1.45273 z m 5.82349,-0.0858 c 0.55836,-2.03482 -1.66512,1.33392 -1.53372,1.45852 0.68388,-0.23965 1.58081,-0.56478 1.53372,-1.45852 z m 15.41532,-1.09164 c 1.28478,-0.63432 2.43299,-5.41783 0.22889,-2.80954 -1.00066,0.98648 -3.37106,4.62747 -1.81929,4.82827 0.57845,-0.6334 1.07467,-1.33505 1.5904,-2.01873 z M 953.98748,219.3 c 0.0839,-1.12626 0.0844,-2.05564 -0.85935,-0.75457 -1.32988,0.97752 -0.8736,2.71182 -0.9819,4.12665 0.96491,-0.91963 2.15622,-1.84869 1.84125,-3.37208 z m -8.46714,-1.02843 c -1.54884,-0.31454 -3.28271,1.81923 -2.90927,3.64578 1.00521,-1.17637 2.26697,-2.21819 2.90927,-3.64578 z m -21.56306,2.74715 c 1.07865,-0.16777 1.6031,-0.73812 1.38744,-1.84613 0.15353,-1.23529 0.0617,-2.53876 -0.84491,-0.78052 -0.4611,1.01814 -3.73918,4.22371 -0.54253,2.62665 z m -1.8888,-1.87949 c 0.99713,-1.1665 1.4334,-2.53873 -0.35739,-1.13498 -1.45794,0.32799 -1.40208,4.68172 -0.12817,1.85411 l 0.23626,-0.34709 z m 16.68563,0.65909 c 2.04841,-0.63798 2.11767,-2.72 1.87189,-4.47276 -1.11419,1.67465 -2.73496,3.16722 -3.28263,5.09247 0.47513,0.10757 0.97431,-0.48329 1.41074,-0.61971 z m -24.99209,-1.26372 c 0.41036,-2.24831 -1.38149,0.31002 -1.03357,1.31192 0.42986,0.82466 1.33361,-0.88239 1.03357,-1.31192 z m 34.62751,0.0416 c -1.41022,-0.0932 -1.47877,2.11591 -0.0895,0.52072 0.15891,-0.0723 0.36116,-0.42164 0.0895,-0.52072 z m -19.27879,-1.67707 c 0.7425,-0.96756 3.1971,-4.60729 0.28673,-2.68586 -2.80895,0.36057 -3.18388,3.96066 -2.06256,5.23664 0.61766,-0.8319 1.19609,-1.69226 1.77583,-2.55078 z m 27.64558,-0.18939 c 1.17871,-3.41933 -2.23905,1.04092 -1.29081,2.07384 0.69194,-0.48072 1.00563,-1.318 1.29081,-2.07384 z m -38.76654,1.11394 c 1.70314,-0.28771 1.44585,-5.25618 0.27528,-2.14833 -0.30115,0.71861 -2.79187,3.72196 -0.27528,2.14833 z m 32.27492,0.0588 c 0.90004,-0.72902 0.23948,-3.5054 -0.61761,-1.50201 -0.99314,0.79162 -1.20118,3.01981 0.61761,1.50201 z m -33.86833,-1.98437 c 1.35849,-1.63904 0.0677,-1.7323 -1.17099,-0.58701 -0.54089,1.55167 0.11833,3.26998 0.95771,0.96568 z m -3.30171,0.39854 c -0.27527,-1.8606 -1.11185,2.58856 -0.13244,0.40397 z m 25.15813,-0.54486 c -1.45797,0.34608 -0.67404,1.61621 0,0 z m 5.94511,0.60934 c 0.55761,-1.46675 -1.34854,1.37404 0,0 z m -10.60947,-0.25107 c 1.89025,-0.56509 3.41446,-4.33465 1.87717,-5.17233 -1.3101,1.24479 -3.64219,4.05433 -2.46209,5.45513 l 0.25226,-0.11387 z m -10.9445,-2.50929 c 0.62658,-0.82742 2.11431,-2.99084 -0.0353,-1.56943 -0.75899,0.50465 -2.38445,0.43589 -1.95863,1.72604 -0.0994,1.26924 0.0426,3.38383 1.0907,1.13171 0.30305,-0.42806 0.60394,-0.85764 0.90324,-1.28832 z m 31.52901,0.0396 c -0.65766,-3.87877 -3.84481,2.55996 -0.97732,1.88928 0.58908,-0.44463 1.10014,-1.10418 0.97732,-1.88928 z m -8.65212,1.34111 c -0.12263,-1.62249 -1.36136,1.34262 -0.007,0.46142 z m -2.77813,0.18899 c -0.0117,-1.06463 -0.95412,0.99142 0,0 z m -28.97187,-1.85888 c 0.34075,-2.96894 -3.03086,3.52782 -0.38287,1.2119 0.39088,-0.26627 0.37884,-0.80245 0.38287,-1.2119 z m 11.55135,0.65427 c 0.71021,-2.85685 -2.00651,0.88811 -1.49673,0.8201 0.5339,-0.19648 1.14162,-0.32998 1.49673,-0.8201 z m 22.4633,-0.62209 c -0.99088,-1.10494 -0.78647,2.28445 7.9e-4,0.33058 z m -3.34522,-0.2619 c 1.13119,-0.922 0.88403,-2.35456 -0.582,-1.03583 -1.68091,0.18111 -1.80543,2.80321 0.0172,1.67717 l 0.26422,-0.27882 z m -26.30381,-0.89891 c 1.67761,-0.32265 1.3886,-3.96772 -0.0587,-1.51869 -0.75085,0.84276 -2.04982,3.10446 0.0587,1.51869 z m 31.53451,0.031 c 1.49889,-1.15043 0.007,-4.06542 -1.19649,-1.62793 -1.62287,0.92057 -0.0107,3.10204 1.19649,1.62793 z m -33.94709,-0.62908 c -0.0648,-1.11462 -0.70779,1.3905 0,0 z m 12.53503,-1.19761 c 0.38219,-0.62612 1.78029,-2.12812 0.32707,-1.17181 -1.81112,-0.12469 -2.50799,4.3373 -0.74076,1.7408 l 0.1967,-0.26741 z m 2.70273,0.0801 c 0.36453,-1.70695 -1.73325,1.25482 -1.34651,1.37008 0.61337,-0.21161 1.42308,-0.5867 1.34651,-1.37008 z m 23.29045,0.94606 c -0.52481,-1.36273 -0.28956,1.70671 0,0 z m -16.47662,-0.52102 c -1.135,-0.35674 0.601,1.57433 10e-6,0 z m 2.98287,-0.006 c -0.14041,-2.03248 -1.26492,2.16687 -0.0236,0.37413 l 0.0241,-0.37413 z m -27.52697,-0.52848 c 1.22963,-1.17854 0.2071,-3.59079 -0.82925,-1.23231 -0.43814,0.85381 -0.46473,2.81558 0.82925,1.23231 z m 11.18895,-1.04365 c 1.9096,-0.67311 0.86513,-3.50008 -0.77499,-1.57278 -1.01698,0.73513 -3.34607,3.88313 -0.46988,2.17568 0.41967,-0.19104 0.83384,-0.39398 1.24487,-0.6029 z m 15.85279,-1.11953 c -0.48337,-0.48649 -3.75778,2.25357 -1.44203,1.85163 0.53089,-0.57406 1.02813,-1.18731 1.44203,-1.85163 z m 2.39023,1.3664 c -1.03424,-0.20548 0.53303,1.69261 0,0 z m 13.35148,-0.0132 c -0.43554,0.27751 0.2593,1.329 0,0 z m -22.13039,-0.0695 c 2.68724,-0.66322 -1.75891,-4.37284 -1.28258,-1.11915 -0.0545,1.32919 -0.38148,2.47716 1.28258,1.11915 z m 19.2182,-0.27472 c 2.28076,-0.5464 -1.40681,-3.00429 -1.05066,-1.04677 -0.20796,1.10051 -0.46777,2.52988 1.05066,1.04677 z m -36.52761,-0.0915 c 1.13245,-0.68947 3.76242,-4.42736 0.66331,-2.58178 -0.80096,0.28245 -3.33567,4.42375 -0.66331,2.58178 z m 28.08592,-1.33717 c 2.19059,-2.37946 -1.63421,-2.35736 -2.08277,-0.11775 -0.50421,0.89602 1.8586,1.53866 2.08277,0.11775 z m -16.8956,-1.20365 c 2.03594,-2.24273 -2.17838,-0.35657 -0.94252,1.19062 0.35887,-0.35988 0.63901,-0.78603 0.94252,-1.19062 z m 8.1824,-0.27541 c 0.51401,-2.03594 -2.8883,-0.35709 -1.4163,0.38651 0.68384,0.94332 1.75247,1.3071 1.4163,-0.38651 z m 18.35225,0.38087 c 0.69057,-2.44496 -1.8288,-1.34116 -2.12215,-0.29849 0.77231,0.50262 2.19252,2.44507 2.12215,0.29849 z m -32.53795,0.0144 c 0.96666,-0.69324 4.41623,-4.79699 1.31215,-2.91144 -0.97163,-0.0286 -3.61608,3.73116 -1.31215,2.91144 z m -7.72662,-1.45209 c -0.0668,-2.65597 -1.61209,3.39057 -0.0301,0.42789 z m 34.81444,0.96553 c 1.44933,-2.88782 -2.68841,1.74704 0,0 z m -18.00538,-0.77181 c -1.45798,0.34607 -0.67404,1.61622 0,0 z m -13.84128,-1.27002 c 2.3768,-2.97539 -4.04436,0.57068 -1.32994,1.2541 0.55652,-0.2705 0.96532,-0.77028 1.32994,-1.2541 z m 23.60784,0.89445 c 1.71383,-2.69598 -2.45214,0.97833 -0.41479,0.42395 z m 9.931,-1.1979 c 0.56317,-2.12465 -1.7687,0.62261 -0.28731,0.97682 0.35952,-0.12119 0.2413,-0.69995 0.28731,-0.97682 z m -16.65799,-1.21691 c -1.60782,-1.15598 -1.76501,3.35626 -0.74938,1.37048 0.30441,-0.39713 0.80792,-0.84142 0.74938,-1.37048 z m 5.67177,0.12839 c -1.15335,-0.0696 -2.96828,2.45839 -0.84943,1.17076 0.32764,-0.34903 0.68386,-0.7112 0.84943,-1.17076 z m -19.9682,0.12001 c -0.1117,-1.77208 -2.21921,2.98701 -0.14082,0.70643 l 0.10958,-0.30247 z m 9.21356,0.22382 c -1.31819,-1.95279 -2.49073,-0.45613 -2.06571,1.25087 0.68903,-0.41617 1.38222,-0.8259 2.06571,-1.25087 z m 15.62118,-0.34028 c 1.48923,-0.49513 -1.11746,-2.07751 -1.65434,-1.57505 -1.08755,1.35092 0.32513,2.77626 1.65434,1.57505 z m 4.63698,-0.15801 c 1.12538,-2.16012 -2.42895,1.13163 -0.3158,0.41333 z m 3.86983,0.41548 c -1.20077,-2.27683 -0.90734,1.05832 0,0 z m -30.96896,-1.46913 c 2.38572,-3.2357 -2.6714,1.00243 -0.60468,0.82783 l 0.28212,-0.37271 z m 8.59667,0.31953 c 1.53684,-2.49205 -2.3017,-2.05377 -2.64988,-0.60984 0.72089,0.61606 1.84035,1.88399 2.64988,0.60984 z m -12.96837,-0.94168 c 1.03724,-0.1545 3.57343,-2.89888 1.17815,-1.58583 -0.69551,0.4899 -4.12982,2.52935 -2.87486,2.43338 0.57955,-0.25347 1.1388,-0.55027 1.69671,-0.84755 z m 17.64733,0.53753 c 0.7539,-1.2065 -1.52012,1.48465 0,0 z m 2.75525,-0.0838 c 0.2929,-1.21394 -1.27232,1.04955 2e-5,0 z m 12.55683,-0.69187 c -0.7365,-0.84266 -0.58769,1.68204 0,0 z m -25.27813,-0.332 c -0.25984,-1.49544 -2.12472,1.78086 -0.27608,0.27481 z m 20.73004,-0.2153 c 0.13736,-2.21 -3.11559,-0.2449 -0.75529,0.60524 0.75829,0.74731 0.85882,0.0759 0.75529,-0.60524 z m -5.74064,-0.21396 c 2.18004,-1.91408 -2.54784,-1.32027 -1.21799,0.37636 0.43549,0.0187 0.83773,-0.19842 1.21799,-0.37636 z m -6.51879,-2.48033 c -1.89106,-0.93254 -1.72408,4.21835 -0.1538,1.07639 0.21247,-0.2994 0.56407,-0.76579 0.1538,-1.07639 z m -6.16843,1.53934 c 1.72381,-0.27664 -0.54867,-2.41475 -1.00323,-1.12045 -0.21386,0.94648 -0.26773,2.369 1.00323,1.12045 z m 7.8947,-0.0199 c -0.88385,-0.57889 -0.83548,1.30684 0,0 z m 12.68469,-0.0635 c 0.0121,-2.35435 -1.8134,0.99286 0,0 z m -25.63188,-1.29752 c -1.15303,-0.42074 -0.66453,1.77979 0.11602,0.15915 l -0.11602,-0.15911 z m 20.97499,0.15317 c -0.89992,-2.40751 -1.87531,0.24274 -0.6342,0.47233 l 0.3985,-0.25232 z m -5.65595,-0.0484 c 1.74352,-0.49299 -1.65619,-2.45453 -1.04893,-0.39758 -0.1471,0.97152 0.42893,1.02445 1.04893,0.39758 z m -13.48435,-0.81508 c 2.00103,-1.11262 -2.30058,0.23369 -1.17739,0.52829 0.43753,-0.0556 0.83239,-0.26647 1.17739,-0.52829 z m 5.39256,-0.37422 c 2.5233,-2.76973 -3.55093,0.41379 -0.77517,0.83615 0.33382,-0.20315 0.53409,-0.54353 0.77517,-0.83615 z m 5.96775,-1.18314 c 0.0421,-1.39386 -2.14305,2.90897 -0.28399,0.85811 l 0.15016,-0.28132 z m 9.01261,1.32366 c -1.04815,-0.87278 -2.42606,-1.00172 -0.6421,0.0497 0.1052,0.11117 0.67736,0.35379 0.6421,-0.0497 z m -4.80781,-0.84539 c 0.95,-1.5006 -3.99269,-1.04069 -1.04233,0.21781 0.36001,0.37859 0.88235,0.36498 1.04233,-0.21781 z m -6.64093,-0.92784 c -1.06025,-0.2451 -0.52601,0.48459 0,0 z m -37.1023,103.52394 c -5.74831,-2.15536 -10.90382,-6.75205 -12.84387,-12.67699 -1.55123,-4.40253 0.47373,-8.95823 2.68586,-12.72968 2.38883,-3.59619 6.42121,-5.57758 9.88399,-7.96926 9.96341,-5.96308 20.84517,-10.11818 31.44726,-14.76782 1.50076,-0.36681 2.71177,1.07367 4.3761,-0.11687 5.37137,-1.42037 11.0274,-2.15634 15.91212,-4.98941 3.75719,-1.7532 7.3057,-4.14218 9.63889,-7.64409 3.58615,-4.67408 6.9641,-10.03067 6.8518,-16.14428 0.36792,-5.00706 -1.86083,-9.66969 -2.88676,-14.47401 -0.29447,-2.87383 -1.98282,-5.28209 -2.57889,-8.03296 -0.42606,-6.53646 -0.1804,-13.10284 -0.0763,-19.64934 0.0974,-7.47388 1.24991,-14.9442 3.83468,-21.97541 1.15282,-3.74076 2.8565,-7.34935 3.50384,-11.22347 0.19531,-2.78949 0.17265,-5.76585 -1.83312,-7.95694 -1.58648,-2.6119 -3.58537,-5.04468 -6.4166,-6.35833 -5.10105,-3.04462 -11.24724,-3.14101 -17.01043,-3.28076 -7.44237,0.0325 -14.87348,2.41406 -21.04999,6.54447 -2.27413,1.69646 -4.72464,3.62256 -5.77823,6.32667 -0.45,5.18202 1.99781,10.05359 2.01779,15.21777 0.2295,5.52386 0.17649,11.06739 0.13326,16.59015 -1.06799,5.23338 -2.31514,10.43061 -4.03498,15.49188 -0.42154,2.33641 -1.58984,4.37474 -3.00882,6.01383 -1.63507,3.7421 -3.29271,7.58701 -3.37781,11.74175 -0.19888,4.19729 -0.6111,8.47011 -6e-4,12.63992 0.77847,2.94022 -0.95252,6.00385 -3.0486,8.01105 -4.84995,4.94476 -11.7248,7.27236 -18.51172,7.76421 5.27075,-2.14353 10.94102,-3.81163 15.20376,-7.77512 1.19874,-1.22867 4.11036,-3.46448 3.51691,-4.69174 -4.09166,3.01221 -8.89648,5.26921 -13.97729,5.89605 -2.7538,-0.17476 1.93094,-1.56335 2.63794,-1.94747 2.66833,-0.86675 5.04624,-2.66574 4.63851,-5.7425 -0.41941,-1.38228 -3.8405,0.889 -4.48722,0.28262 2.40932,-1.05023 5.71209,-2.04469 5.21074,-5.35611 0.21863,-1.05366 0.31011,-1.97763 -1.03283,-1.43869 -2.1932,0.53568 -2.34326,-0.75391 -0.22728,-1.10277 2.13193,-0.24458 3.03363,-4.31331 0.86735,-4.90156 1.12358,0.0975 1.9247,-2.25471 1.7328,-3.81031 0.49255,-1.30567 -0.279,-1.33608 -1.35892,-1.0554 -2.05098,0.52885 -2.2014,-0.65024 -0.19283,-1.02901 1.7366,0.46938 2.07411,-2.50066 2.07146,-2.14928 0.0723,2.37032 2.71445,0.39805 4.05407,0.14662 1.32272,-0.0384 1.34511,-1.09437 1.30017,-2.16755 -2.03838,-0.75202 -5.31979,0.70124 -7.84966,0.61468 -1.17282,0.22241 -4.57797,0.25489 -1.65688,-0.46476 3.07132,-0.8737 6.21254,-1.5698 9.18873,-2.73526 0.32071,-0.57798 0.91803,-3.43717 -0.49166,-2.33083 -4.42801,1.48876 -9.14761,2.19169 -13.81295,2.26738 -2.72878,-0.73393 3.44917,-1.08843 4.36825,-1.7041 3.28147,-0.9976 6.78528,-1.55585 9.83153,-3.15786 0.6897,-1.65219 -0.0757,-2.85878 -1.70013,-1.57647 -4.00436,1.49981 -8.3546,2.97241 -12.67518,2.29877 -2.07774,-0.47191 0.99651,-0.18083 1.64908,-0.43899 6.31045,-1.26489 11.91807,-4.59001 17.6655,-7.34225 -0.19849,-0.58927 0.43677,-2.54 -0.39975,-2.08743 -4.90726,2.56202 -10.23489,4.25128 -15.56218,5.69318 -1.47766,0.23413 -4.61032,0.83251 -5.14244,-0.0919 4.85216,-0.36042 9.37701,-2.44258 13.81351,-4.29947 2.41586,-1.18804 5.01242,-2.21059 7.07409,-3.96645 0.13254,-1.17318 0.87859,-3.00086 1.58704,-1.01457 1.82305,-1.51143 4.15262,-3.15175 4.28901,-5.75034 0.0458,-0.65748 0.47596,-4.07827 -0.50334,-2.28378 -3.69309,5.70637 -9.82616,9.14738 -15.96393,11.67629 -3.24699,1.38482 -6.54069,2.82735 -10.10233,3.09597 -2.99164,1.06174 -6.27334,1.06392 -9.42407,1.07109 -4.36915,-0.31337 -8.52867,-1.84678 -12.83401,-2.53734 -5.66791,-2.11148 -10.36031,-6.24253 -16.15072,-8.10828 -5.12376,-1.74976 -10.16798,-3.83923 -15.46178,-5.01901 -5.13297,-0.66696 -10.25409,-1.59497 -15.45442,-1.39802 -3.52373,0.037 -7.06501,-0.0881 -10.57925,0.0516 -5.93177,1.26517 -12.12025,2.05264 -17.51875,4.96895 -2.14299,1.6164 -4.2113,3.47102 -5.66235,5.74555 -1.10829,3.55193 1.05898,7.01265 1.40078,10.5278 0.75952,6.36537 -0.10214,12.79592 -0.80707,19.12834 -1.66254,7.14622 -3.29491,14.32823 -5.74423,21.26141 -0.64378,2.397 -1.664,5.12965 -0.017,7.35924 0.41341,2.69336 2.27165,4.84951 4.76755,5.90174 4.62233,2.17907 9.76725,2.93091 14.81411,3.30417 2.17176,-1.13762 4.70154,0.38937 7.02072,0.44986 3.82408,0.54276 7.80535,-0.1541 11.53765,0.91113 3.10211,-0.58918 4.51102,2.85264 3.81555,5.36335 -0.0101,2.68749 -2.60323,3.84397 -4.74257,4.77292 -1.20702,0.20834 -2.87146,1.48112 -3.21493,1.72645 -1.95182,-0.73772 -5.39417,0.81547 -7.93443,0.43876 -5.08236,-0.0111 -10.14384,0.59476 -15.22261,0.55411 -3.43756,-0.11855 -6.86187,-0.70608 -10.16424,-1.64515 4.22081,-0.26297 8.46156,-0.0392 12.68025,-0.3399 -0.24535,-0.87547 0.59137,-3.35092 -1.04624,-2.91265 -2.89708,0.068 -5.76597,-0.39016 -8.62625,-0.78299 -0.71391,2.64303 -0.54323,-2.87737 -0.74771,-3.66336 0.38717,-2.02358 -1.94383,-1.90567 -3.27102,-2.42147 1.03834,0.0579 2.21859,0.14008 3.31103,0.20723 -0.0507,-1.52728 -0.10147,-3.05455 -0.1522,-4.58183 -2.0172,-0.22329 -4.13484,-0.0538 -6.05603,-0.74158 -0.41165,-1.86206 5.31102,0.43836 2.74894,-1.99669 -1.16606,-1.72453 -1.18784,-4.08473 -3.51305,-4.67045 -0.27026,-1.60312 2.69922,0.32414 1.92535,-1.66766 0,-1.31223 0,-2.62447 0,-3.9367 -1.2377,-0.1261 -3.2467,-1.4442 -0.64684,-1.04524 1.42695,0.58882 1.08947,-1.60178 1.34549,-2.42598 -0.51481,-0.76301 -4.46566,-1.08087 -1.76866,-1.71964 1.02563,-0.25141 2.8757,0.57934 2.78212,-1.0674 1.59002,-2.72897 -1.80442,-2.42967 -3.0169,-3.43192 1.17845,-0.84853 3.00067,-0.055 4.11928,-0.46056 0.26519,-1.55165 1.70282,-3.99049 -0.95302,-3.66936 -0.97082,0.0496 -3.34886,-1.15244 -0.95328,-0.78299 1.75385,1.08992 4.07776,-0.73197 3.07353,-2.11471 -2.03486,-0.34507 -4.11711,0.0199 -6.09199,-0.75268 -1.64929,-0.24972 -4.49704,-1.72399 -1.4556,-2.31208 0.22752,-1.37412 1.42067,-0.50369 2.3224,-0.37547 1.88027,0.75536 4.12206,0.3406 5.82238,1.49392 0.45318,-0.52227 0.52754,-2.02664 0.82971,-2.90638 1.2008,-5.99281 1.53349,-12.1513 1.38353,-18.25039 -0.61806,-3.76013 -1.49391,-7.50922 -1.34065,-11.35086 0.0261,-0.9909 -0.27969,-2.07923 0.55069,-2.83409 1.02288,-1.71291 2.30583,-3.2816 4.14607,-4.15327 5.78693,-4.36056 13.19544,-5.50799 20.14375,-6.76244 7.60287,-1.18865 15.41915,-1.06765 22.93761,0.62347 2.61057,-0.0298 4.95438,0.96925 7.43707,1.74252 5.97493,1.66612 11.91029,3.58397 17.61586,6.02798 7.04253,2.9302 13.76225,7.30026 21.57512,7.74355 3.14503,0.28017 6.3269,0.0775 9.30754,-1.02246 4.87338,-1.10002 9.89392,-2.09946 14.30565,-4.54283 2.62212,-1.76929 5.28383,-3.48454 7.90769,-5.24511 2.52718,-2.31332 4.43418,-5.38282 5.60602,-8.56792 -0.20777,-5.83324 -0.93025,-11.62612 -1.66894,-17.41057 -0.0667,-2.33469 -1.60507,-5.12977 0.31922,-7.13799 4.54174,-5.79987 11.6429,-8.89349 18.54806,-10.88602 4.15218,-1.19239 8.47777,-1.70389 12.78784,-1.31829 4.51087,0.12258 9.18464,0.41897 13.22291,2.64704 3.05038,1.39728 5.80271,3.46287 7.61656,6.32733 1.65311,2.13668 2.83542,4.59303 2.85024,7.31574 0.88359,3.67129 -0.0774,7.53521 -1.90613,10.75977 -3.11186,7.60456 -5.24455,15.71088 -5.22731,23.97334 -0.0558,6.33358 -0.52794,12.68966 -0.0174,19.0115 1.27734,6.92204 4.21259,13.45457 5.23145,20.44073 3.30821,-1.97485 6.83412,-3.56141 10.59012,-4.47365 7.14224,-1.97164 14.62613,-1.94481 21.96763,-2.42461 2.36053,-0.0558 4.64333,0.19545 6.92203,-0.16287 1.6537,0.33557 5.7752,-0.23393 5.6745,1.96816 -2.0741,1.52416 -4.9663,0.258 -7.3701,0.36208 -5.97265,-0.32861 -11.94597,0.39902 -17.9005,0.78468 -6.19216,0.54591 -12.25921,2.22775 -17.8354,4.97959 -1.95238,-0.38744 -2.48687,3.07014 -1.27508,3.07989 2.21467,-0.96839 6.01986,-2.30641 7.49233,-2.2736 -2.70576,1.46866 -5.52419,2.71587 -8.25953,4.12683 -0.24288,1.52956 -2.02869,5.68778 0.94689,3.6796 3.25226,-1.31328 6.62281,-2.41724 10.06615,-3.08069 -3.91609,2.00699 -8.3245,3.0082 -12.2348,5.05284 -0.7321,1.44122 -1.96931,3.71733 -2.28776,4.78931 3.87296,-1.64103 7.68965,-3.55675 11.76139,-4.62991 -4.0923,2.14924 -8.40431,3.87749 -12.50629,5.9895 -2.04951,2.12209 -3.54381,4.75402 -5.7375,6.77068 -0.64384,0.65144 -1.28768,1.30288 -1.93152,1.95432 1.25242,-0.59371 2.45024,-1.33765 3.77468,-1.75318 -1.71846,1.53974 -6.15881,1.70712 -4.70403,4.89813 0.23864,3.89242 3.85887,-0.37798 5.83061,-0.70738 2.97433,-1.35958 -2.19337,1.62566 -3.10091,2.17274 -3.16243,0.97583 -1.42358,4.36884 -0.87657,6.53919 3.42629,-1.02731 6.42157,-3.27143 9.83019,-4.37599 -3.1331,1.83795 -6.46825,3.31063 -9.68404,4.99864 0.83157,1.45314 0.2046,6.30733 2.68457,5.27536 4.0059,-1.52213 8.19185,-3.32649 12.08679,-4.70803 -4.15528,2.35267 -8.92699,3.58593 -12.83321,6.35987 -0.51084,1.17154 -2.98342,0.73229 -4.30846,2.02007 -2.52074,1.39818 -5.20187,2.54977 -7.57463,4.18972 -0.35075,1.75318 0.30203,5.15644 2.54996,2.74847 7.61427,-4.23393 15.47442,-8.0559 23.53958,-11.35403 0.73633,-0.34582 3.68467,-1.37017 1.36346,-0.28299 -5.59713,2.74391 -11.21519,5.45787 -16.56983,8.65549 -3.40115,1.75693 -6.74624,3.76733 -9.96883,5.74412 -0.0154,1.33591 0.37383,2.72778 -0.40439,0.80655 -1.75024,-0.71779 -3.96786,1.8134 -5.8711,2.3768 -1.32325,0.70473 -2.64651,1.40947 -3.96976,2.1142 0.0754,1.31916 0.0212,2.65619 0.2622,3.9579 5.72742,-2.65135 10.876,-6.41176 16.47886,-9.32096 7.11452,-3.87604 14.23374,-7.84983 21.95163,-10.41873 2.35654,-0.76831 5.94231,-2.35683 7.64451,-2.47214 -8.86892,3.75898 -17.39064,8.2569 -25.79988,12.93999 -7.34893,3.80142 -14.22299,8.4366 -21.60656,12.17648 -4.52734,2.19916 -8.82136,4.84209 -13.34175,7.04544 -3.66621,1.72825 -7.6058,2.7374 -11.40973,4.0851 -0.62918,1.33386 -1.83746,-0.44179 -3.3406,0.54269 -3.4525,0.50363 -7.05931,1.07208 -10.52586,0.46178 z m 3.73707,-1.43336 c 0.0158,-1.27787 -0.70162,-4.32799 -2.18925,-2.38491 0.83184,0.98106 -1.71801,-0.59085 -2.04842,-0.12863 -1.07525,-1.00267 -1.76343,-0.25166 -0.88988,0.48711 -1.0385,-1.17648 -4.53715,-1.5475 -5.02556,-1.3347 1.99558,1.78375 4.62867,2.94617 7.18076,3.68615 0.74263,-0.1672 2.76858,0.63815 2.97235,-0.32502 z m 3.21873,-0.0441 c 2.91637,0.37799 0.0439,-5.60594 -0.67022,-2.57857 0.58332,0.92016 1.57422,2.25561 0.19858,0.80453 -1.69356,-2.29212 -2.81979,-0.46465 -2.38312,1.47621 -0.28641,1.2218 2.35309,0.12968 2.85476,0.29783 z m 4.24467,-0.83105 c 1.7973,0.18281 1.25123,-1.49699 0.4695,-2.50636 -2.6079,-3.22713 -4.41531,4.18949 -0.88676,2.59537 z m 6.1488,-1.70143 c 2.46171,-0.85773 5.06739,-1.531 7.2509,-2.99741 0.0333,-0.75503 0.0884,-3.54981 -1.27033,-2.55156 -1.39353,0.54445 -2.81649,1.05382 -4.22167,1.52986 -0.36951,0.43617 0.28417,3.68594 -0.0738,2.79325 -0.13988,-2.5261 -2.04658,-2.62542 -3.996,-1.47273 -2.94693,-0.37719 -2.76516,5.57851 0.16946,3.36133 0.71522,-0.21635 1.42887,-0.43791 2.14146,-0.66274 z m -19.1559,-2.71512 c -1.44225,-1.56424 -1.78747,1.58441 0.2145,0.7276 1.11789,0.179 -0.024,-0.37918 -0.2145,-0.7276 z m 4.84934,0.29183 c -0.27897,-2.07587 -3.56647,-3.77502 -2.91042,-0.53979 -0.47879,1.52265 1.28944,0.83124 2.17823,0.95695 0.22527,-0.0204 0.76775,-0.0364 0.73219,-0.41716 z m -8.18921,-0.29183 c -0.27374,-1.23989 -2.89487,-2.72919 -1.45476,-0.50699 0.0237,0.44586 1.94114,1.66699 1.45476,0.50699 z m 11.72591,0.0714 c 1.74761,0.22231 0.64718,-1.84105 0.37294,-2.74753 -2.6545,-2.6762 -4.60998,3.41488 -1.22752,2.90586 l 0.42186,-0.0814 z m -9.87765,-0.94826 c 0.52516,-1.56384 -1.3421,-1.38209 -0.49916,0.23731 -0.0434,0.65435 0.58883,-0.15289 0.49916,-0.23731 z m 32.56417,-1.73114 c 3.15849,-1.84408 6.59171,-3.19951 9.68288,-5.15107 0.49923,-1.31162 -0.45444,-5.10414 -2.16493,-2.72705 -1.71175,1.22575 -4.88608,3.5182 -5.17082,4.41037 -1.87685,-0.67765 -4.45871,1.70351 -6.44818,2.41833 -0.55579,0.61311 -0.44268,4.24234 0.90128,2.91338 1.07501,-0.60667 2.14746,-1.21844 3.19977,-1.86396 z m -17.88618,0.48297 c 0.8002,-2.92152 -4.77026,-2.39377 -2.42679,0.0169 0.48491,1.22441 3.07585,2.23846 2.42679,-0.0169 z m -12.49293,0.73889 c -0.93976,-1.33802 0.22999,1.51496 2e-5,0 z M 909.3939,290.029 c -0.98395,-0.88555 -0.0628,1.23156 0,0 z m 2.76644,-0.54477 c 0.87824,-0.30437 2.12366,-0.38518 1.50941,-1.59824 -0.13123,-1.28478 -1.39888,-2.87006 -2.68225,-1.86415 -2.88656,-0.22249 -2.58991,4.34395 -0.0867,3.85951 0.4229,-0.12244 0.84236,-0.25658 1.25957,-0.39712 z m 3.19798,-1.14113 c -0.58617,-0.93166 -0.66888,0.49124 0,0 z m -20.6375,-1.17692 c 0.0773,-1.5555 -1.07769,-2.83049 -1.93963,-1.12962 -1.54183,0.76683 0.0989,2.04272 1.192,2.15864 0.67862,0.1862 0.84369,-0.52894 0.74763,-1.02902 z m 24.97028,-0.5521 c 0.4188,-1.65062 -0.58556,-4.92819 -2.1224,-2.98344 2.01848,2.27 -0.95106,-0.72401 -2.14646,0.6842 -1.81447,0.47588 -0.46795,3.96245 0.91809,3.70541 1.12593,-0.44358 2.3004,-0.79729 3.35077,-1.40617 z m -29.80115,-0.72348 c -0.51666,-1.16367 -1.74901,-1.83951 -1.1587,-0.0274 -0.005,2.53084 2.97683,2.30859 1.1587,0.0274 z m -2.31693,1.4447 c -0.8003,-2.98228 -1.67947,1.56283 0,0 z m 11.11655,-0.59531 c -0.35769,-2.72808 -2.01855,2.49827 -0.0225,0.457 z m 2.64583,0.10562 c -0.58983,-0.95856 -2.13666,-2.88239 -1.41693,-0.6922 -0.25234,1.1422 0.66541,1.41968 1.41693,0.6922 z m 1.75033,-2.15037 c 0.49296,-2.02617 -1.55622,-2.88602 -2.62655,-1.29708 0.60917,1.11432 3.40021,5.58123 2.62655,1.29708 z m -5.40282,0.93691 c 2.45201,-1.80578 -1.40262,-3.31331 -1.90376,-1.16692 0.11972,1.07566 0.86001,2.71762 1.90376,1.16692 z m -12.05153,-1.1434 c -1.74939,-1.74746 0.58616,3.36121 0.36127,0.45616 z m 19.66689,1.39134 c -0.60567,-1.47833 -1.46205,-1.82969 -0.9451,0.0255 0.2047,0.25641 0.75707,0.24839 0.9451,-0.0255 z m 18.68907,-1.25426 c 1.0266,-0.48423 2.0532,-0.96847 3.0798,-1.4527 -0.37334,-1.20517 -0.32134,-3.06459 -0.79842,-3.88092 -1.0328,0.68258 -4.08934,1.30589 -2.19489,2.74779 0.47137,0.50185 2.22216,2.03341 0.72124,0.94553 -1.27356,-1.03271 -3.17288,-2.11858 -4.39667,-0.51619 0.057,1.84538 -0.0527,4.83466 2.38508,2.72055 0.4018,-0.18691 0.80305,-0.37501 1.20386,-0.56406 z m -31.13031,-0.62278 c -1.65943,0.0801 -1.08567,2.7766 -0.14749,0.56947 0.0265,-0.14827 0.32618,-0.39896 0.14749,-0.56947 z m 13.9807,-0.48569 c 0.50462,-2.14288 -1.53243,-2.82081 -2.75162,-1.25133 0.78801,1.07128 3.58944,5.6672 2.75162,1.25133 z m -16.08566,1.10596 c -0.69302,-1.41527 -0.1314,1.26661 0,0 z m 19.01052,0.10641 c 2.3112,-0.21642 -2.72415,-4.89024 -1.45048,-1.60554 0.22909,1.01621 -0.0712,2.52716 1.45048,1.60554 z m -22.4501,-0.76787 c -0.97911,-1.00797 -0.62206,0.8807 0,0 z m 25.18431,-2.40402 c 0.57692,-2.53493 -1.43522,-2.1275 -3.01376,-1.06539 0.6677,1.30643 3.68161,5.34665 3.01376,1.06539 z m 2.97538,0.84635 c -0.31706,-0.68994 -1.81502,-3.07578 -1.42932,-0.96705 -0.21584,1.13885 0.41571,1.80207 1.42932,0.96705 z m 14.8351,-1.37996 c 2.00847,-1.45811 4.9982,-2.53206 3.4085,-5.56675 -2.08229,1.01328 -4.55975,1.93838 -6.03544,3.75008 0.0233,1.49233 -0.25592,4.80602 1.78937,2.44276 l 0.40827,-0.30221 0.42925,-0.32388 z m -40.08438,-0.37815 c -0.93057,-3.03401 -2.95222,1.29902 -1.31763,1.46556 0.5323,-0.37953 1.08291,-0.83303 1.31763,-1.46556 z m 3.94914,0.86839 c -0.22886,-0.74582 0.0649,-4.38933 -1.01184,-2.36928 -2.00236,0.69707 0.79279,4.75115 1.01184,2.36928 z m 2.87641,0.36947 c 0.42445,-1.82802 -2.04016,0.97952 0,0 z m -11.3375,-0.41871 c 0.65706,-1.95128 -1.66728,-1.18462 -0.57511,0.34191 l 0.24487,-0.0339 0.33022,-0.30806 z m 32.19959,-0.016 c 2.32661,-1.31041 -0.40618,-5.64464 -2.73616,-3.22963 -2.18433,0.29675 1.3991,4.74019 2.73616,3.22963 z m -21.60222,-0.78603 c -0.74856,-1.56793 -1.34314,-1.05917 -0.79736,0.48681 -0.0941,0.85049 0.84682,-0.1835 0.79736,-0.48681 z m 5.16893,0.33028 c -0.40465,-0.29931 -2.07739,-3.17761 -1.99393,-1.79294 -0.13566,1.63218 0.0342,2.95477 1.99393,1.79294 z m -3.31685,-1.6618 c 0.34994,-1.37797 -0.3745,-1.71597 -1.65292,-1.43824 -2.18208,0.64673 2.13798,1.44077 1.21948,2.46928 0.50781,1.3453 0.39566,-0.84035 0.43344,-1.03104 z m 4.37525,-1.10012 c -0.24104,-1.88195 -3.61597,-0.25252 -1.16411,0.89374 1.47547,2.1695 1.32639,0.64669 1.16411,-0.89374 z m 17.97075,1.74329 c -0.98397,-0.88553 -0.0627,1.23158 0,0 z m -15.31941,-0.0131 c 3.20518,-0.0253 -2.14187,-5.01264 -1.57435,-1.97229 0.25266,1.2267 -0.40574,2.97649 1.57435,1.97229 z m -18.23691,-0.5639 c 0.40524,-2.05683 -1.22746,-1.23672 -0.64059,0.0565 0.12078,0.53592 0.9881,0.75972 0.64059,-0.0565 z m 36.97111,-0.85989 c 0.59586,-0.54402 2.12231,-0.57311 2.01624,-1.50554 -0.25887,-1.2155 0.11596,-3.17269 -0.67231,-3.83345 -1.69233,1.35343 -4.31806,1.73872 -5.70261,3.39812 0.2841,2.40443 2.35619,3.89245 4.35868,1.94087 z m -31.8462,0.13229 c -0.0141,-2.0148 -1.0757,1.70889 0,0 z m 17.65101,-0.0359 c 4.02063,-0.10619 -2.02238,-5.50755 -2.15902,-1.74144 0.33912,1.74111 -0.1394,2.99365 2.15902,1.74144 z m 30.61056,-3.41312 c 1.53433,-0.79689 3.06866,-1.59377 4.60299,-2.39066 -0.57572,-1.13801 -0.0544,-4.3107 -1.933,-2.88603 -2.59071,1.37854 -5.23499,2.71113 -7.64491,4.38863 -0.94523,1.22479 -0.20686,4.5444 1.65496,2.57647 1.11272,-0.55076 2.21792,-1.11661 3.31996,-1.68841 z m -24.93397,1.21901 c 1.49129,-0.23014 -0.2473,-1.08332 -0.64382,-1.67762 -0.49304,-0.26967 -1.67844,-2.19615 -1.51712,-0.8999 0.0836,1.5508 -0.30091,4.30295 2.16094,2.57752 z m 17.74869,-4.80703 c 0.29976,-1.87717 -0.62066,-2.97812 -2.30318,-1.51144 -2.04231,1.04675 -5.04339,2.07327 -3.70045,4.91723 0.16454,0.75563 -0.16643,2.43824 0.97244,1.37118 1.6992,-0.90393 3.3984,-1.80786 5.0976,-2.71178 -0.0221,-0.6884 -0.0443,-1.37679 -0.0664,-2.06519 z m -42.92838,3.55131 c 0.27177,-1.58903 -0.30006,-1.34372 -1.14808,-0.26042 -2.12534,1.70238 1.86255,2.55775 1.14808,0.26042 z m 2.16959,1.05154 c -1.91767,-0.56981 0.33978,1.17414 0,0 z m 4.6407,-0.0706 c -0.54916,-2.3671 -3.02849,1.33068 -0.29738,0.0814 l 0.29738,-0.0816 z m 14.75741,-0.91595 c -0.64449,-1.95129 -1.79528,0.68913 0.034,0.89123 0.15619,-0.28651 -0.005,-0.6012 -0.034,-0.89123 z m -9.58906,0.33322 c 0.28258,-1.43445 -2.30262,-4.96188 -3.42729,-4.10081 0.0522,1.94618 -0.22871,5.76378 2.86583,4.25588 z m -8.65506,-0.80198 c -1.51203,-0.89198 0.47895,2.10709 0,0 z m 1.92706,-0.51988 c -1.39518,-1.78414 -0.45027,3.06775 0.43506,0.59421 l -0.115,-0.23521 -0.32007,-0.359 z m 22.15703,-0.54283 c 0.70703,-2.46838 -2.07067,-1.93552 -2.6945,-0.71883 0.93072,0.78729 3.46176,4.52272 2.6945,0.71883 z m -20.12439,-1.58466 c -0.0836,-1.72285 -4.2909,-0.67198 -1.95144,0.67891 0.5277,0.26497 1.96084,3.02747 1.99349,1.66304 0.0766,-0.77867 0.0864,-1.56802 -0.0421,-2.34195 z m 8.15646,1.28471 c 0.5938,-2.03643 -3.61019,-5.00057 -2.53425,-1.34148 -0.0972,1.52073 2.78269,4.74624 2.53425,1.34148 z m 15.28227,0.57983 c 3.46379,-0.58428 -3.34806,-5.19959 -2.05598,-1.37745 0.11115,1.63411 0.20907,2.82393 2.05598,1.37745 z m -32.28054,-0.42097 c 1.53045,-1.73717 -1.10556,0.32102 -0.63621,0.79624 0.25294,-0.23102 0.4387,-0.52009 0.63621,-0.79624 z m 4.67984,-1.11615 c -0.82765,-2.84497 -3.53067,1.77724 -0.9149,1.71734 0.53396,-0.40397 1.04338,-0.99395 0.9149,-1.71734 z m 14.34119,1.44688 c -0.90904,-1.13541 -0.1629,1.04075 0,0 z m 2.74582,-0.9296 c 2.98904,-1.32345 -2.68721,-6.5282 -3.37439,-3.07866 -0.22567,1.69733 1.49874,4.28492 3.37439,3.07866 z m 13.70094,-0.67963 c 1.16994,-0.21018 1.1731,-1.05847 0.93327,-2.03965 0.14573,-1.04656 -0.55145,-3.69329 -1.16698,-1.55716 -1.96278,0.045 -4.75428,1.51935 -2.08938,3.06691 0.74655,0.87834 1.23422,1.43602 2.32309,0.5299 z m 19.72326,-4.58314 c -0.49792,-1.81362 0.11887,-6.77357 -2.64319,-4.05535 -2.38625,1.48214 -4.82768,2.87986 -7.12924,4.4941 0.18137,1.54408 0.314,3.0979 0.64104,4.62017 3.04428,-1.68541 6.09702,-3.35572 9.13139,-5.05892 z m -41.8736,3.48039 c -1.4772,-2.67785 0.0188,2.19078 0,0 z m 13.32228,-0.46302 c 2.95404,-0.52771 0.87501,-3.09383 -0.62534,-3.99957 -0.6646,-0.54285 -1.53918,0.54028 -2.2929,0.68758 0.27917,1.27408 -0.0926,3.68844 1.27498,3.97156 0.54666,-0.22257 1.09488,-0.44128 1.64326,-0.65957 z m 17.17666,-3.09537 c -0.002,-1.72569 -0.38078,-5.3202 -2.60216,-2.91043 -2.07945,1.0232 -4.8086,2.0212 -3.50332,4.80258 -0.0725,1.25773 0.27333,1.736 1.35204,0.84827 1.60394,-0.87219 3.32261,-1.59636 4.75344,-2.74042 z m -35.974,2.16806 c 1.7687,-0.003 0.10727,-3.09864 -0.82636,-1.90278 -1.89888,1.01542 -1.61835,3.05965 0.82636,1.90278 z m 4.67913,-0.91823 c 2.00882,-1.0725 -3.64531,-5.1925 -2.71132,-1.32554 0.1052,1.40476 1.56566,1.87732 2.71132,1.32554 z m 19.25749,-0.7251 c 1.02441,-0.4035 1.71073,-0.84561 0.42515,-1.51297 -1.05839,-1.51086 -3.88874,-2.57278 -2.85296,0.3171 0.13979,1.86171 0.80505,2.41484 2.42781,1.19587 z m -9.58298,0.18939 c -0.90904,-1.13541 -0.1629,1.04075 0,0 z m -5.62183,-0.52917 c 0.29486,-2.01011 -0.41532,-4.36543 -2.65976,-2.88679 -0.55447,0.94813 0.22244,4.07477 2.08195,3.03396 l 0.28181,-0.0765 z m 2.18225,-0.76135 c -0.87479,-2.05031 -1.13286,0.92643 0,0 z m 9.0769,-0.93647 c -2.10018,-0.78613 0.63323,1.7701 0,0 z m 7.76222,-1.5721 c 0.10873,-2.97162 -2.4338,-1.47866 -3.85959,-0.5821 -1.13628,0.39326 0.71387,1.24109 1.02891,1.85526 0.62226,0.69752 1.22512,1.54399 2.06092,0.60216 0.85248,-0.30046 0.96025,-1.08326 0.76976,-1.87532 z m 24.54431,0.53435 c 2.35328,-1.22324 4.73198,-2.40461 7.19776,-3.38582 -0.62741,-1.90803 -1.25482,-3.81606 -1.88223,-5.72409 -3.42144,1.8556 -6.59143,4.16378 -9.9838,6.05907 0.13334,1.69765 -0.0802,6.47172 2.56238,4.13458 0.704,-0.35727 1.40567,-0.71911 2.10589,-1.08374 z m -38.34011,-0.40827 c 0.83733,-3.00913 -4.19856,-1.65132 -3.75563,-0.42328 0.85766,1.41375 4.2897,4.12418 3.75563,0.42328 z m 27.94677,-0.58829 c 1.95103,-1.41637 5.69129,-2.26144 3.95833,-5.31754 -0.30141,-0.62645 -0.0604,-2.6673 -1.02366,-1.56786 -2.40393,1.77922 -4.82603,3.55609 -7.49167,4.92899 0.40315,0.38684 2.22649,1.66695 0.80186,0.90419 -2.62006,-1.63894 -1.29483,2.50527 -0.83004,3.72602 1.55563,-0.84249 3.06184,-1.77484 4.58518,-2.6738 z m -36.90222,1.17139 c -1.51987,-0.25729 0.59062,2.1416 0,0 z m 11.2038,-0.0527 c -0.87481,-2.05029 -1.13284,0.92647 0,0 z m 13.75833,-0.42518 c -0.88283,-1.71013 -1.11513,1.08375 0,0 z m -11.25195,-0.54732 c 2.46103,-1.32278 -1.50013,-4.42686 -3.1306,-2.36476 -2.08744,0.63834 2.23573,3.78417 3.1306,2.36476 z m 14.18811,-0.94146 c 2.9147,-0.66649 1.80166,-2.80032 -0.22541,-3.72689 -0.9587,-0.0789 -2.01168,1.03917 -2.97693,1.40179 -2.64033,1.19161 1.14492,4.92452 2.77695,2.54362 z m -9.23978,-1.31685 c 0.65213,-0.43199 2.32301,-0.70066 0.98412,-1.45184 -0.6613,-0.38571 -1.1136,-1.74787 -1.94022,-1.36115 -2.25157,0.20629 -3.11217,2.55308 -0.73638,3.62884 0.57562,-0.24765 1.13194,-0.53658 1.69248,-0.81585 z m -11.83357,-0.53991 c -0.2999,-0.61685 -3.01696,1.173 -0.71707,0.3154 l 0.30639,-0.10312 z m 1.46844,-0.7669 c -1.16691,-0.59964 -0.4668,1.30745 0,0 z m 24.41661,-0.15744 c 2.52576,-1.43184 5.00756,-2.95174 7.40182,-4.59459 -0.0525,-0.78338 -0.0417,-3.21818 -0.7095,-3.27068 -2.78699,2.09081 -5.9498,3.58482 -8.93835,5.35046 0.0828,1.44322 0.0255,4.4863 2.24603,2.51481 z m 11.37708,-0.26215 c 2.84646,-1.51135 5.70635,-3.03359 8.38261,-4.82906 -0.35448,-1.68242 -0.78429,-3.34795 -1.18151,-5.02067 -3.24628,1.9364 -6.63657,3.65151 -9.80196,5.70328 0.146,1.34478 0.0812,6.55436 2.60086,4.14645 z m -32.99831,-0.39477 c -0.53651,-1.57952 -2.96853,1.57404 -0.6227,0.39077 l 0.28446,-0.13969 0.33824,-0.25111 z m 10.86852,0.15696 c -0.037,-0.88402 0.33499,-3.57638 -1.14127,-2.29618 -2.96272,0.31041 0.25935,3.24995 1.14127,2.29618 z m 7.32693,-1.20446 c -2.19449,-0.27652 0.90926,1.91683 0,0 z m -16.02989,0.37949 c 2.34511,-1.87768 -2.99877,-0.37946 -0.46091,0.11497 l 0.46091,-0.1146 z m 11.56318,-0.41257 c 1.40404,-0.36465 1.09066,-0.872 -0.0268,-1.44616 -1.87521,-2.09346 -2.3982,0.43397 -1.48803,1.9472 0.42325,0.22487 1.08154,-0.4244 1.51481,-0.50104 z M 798.6428,258.15315 c -0.0677,-1.09941 0.18727,-2.97692 -1.44428,-2.34544 -1.60945,0.0667 -4.1406,-0.10737 -3.54622,2.24485 -0.18188,1.13235 1.52214,0.2343 2.23492,0.40344 0.91891,-0.0849 1.84963,-0.12219 2.75558,-0.30285 z m 118.95512,-0.11691 c 1.84695,-1.78051 -3.34983,0.0575 -0.57277,0.23163 l 0.27429,-0.11443 z M 803.9026,257.76997 c 1.13717,0.33966 1.40385,-3.23859 0.11946,-2.58821 -1.86433,0.40486 -4.90659,-0.24301 -4.54177,2.5868 0.0375,0.81103 2.15186,-0.15042 2.90208,0.0793 0.50618,-0.0352 1.0127,-0.0702 1.52023,-0.0778 z m 125.50644,-0.54523 c 1.16309,-0.22089 1.12794,-1.07969 0.88238,-2.05052 0.23584,-3.19983 -3.0223,0.14178 -4.34127,0.78505 0.98553,0.83169 2.12931,2.5032 3.45889,1.26547 z m -120.27873,-0.0526 c 1.19757,-2.82239 -3.87122,-3.27666 -3.30948,-0.49154 -0.45319,1.45901 1.14943,0.63913 1.96101,0.69207 0.45129,-0.0536 0.90496,-0.0964 1.34847,-0.20053 z m 112.17613,-0.78377 c 1.05726,-0.25822 2.67551,-1.92094 0.46883,-1.039 -1.17409,0.0396 -4.34371,1.92837 -1.60667,1.59728 0.38137,-0.18178 0.75889,-0.37188 1.13784,-0.55828 z m -109.0502,0.0626 c 1.18037,-2.31233 -2.54757,-2.89855 -1.8442,-0.27384 -0.57585,1.43641 1.29975,0.47417 1.8442,0.27384 z m 3.52802,-0.6206 c 0.99777,-2.54136 -2.69863,-2.87917 -2.02593,-0.35697 -0.44311,1.47699 1.36561,0.33094 2.02593,0.35697 z m 118.16633,-0.86887 c 2.484,-1.38604 5.15612,-2.66947 7.15609,-4.72057 1.29102,0.0311 3.15979,-1.45534 0.70336,-0.51132 -3.61632,0.91 -7.31624,1.60865 -10.79589,2.97124 -0.44082,1.36513 0.0147,4.70012 1.9801,2.73401 l 0.46369,-0.22847 0.49268,-0.24489 z m -114.63995,-1.98255 c -1.46114,-1.52317 -2.39719,2.30928 -1.63288,2.31357 0.59051,-0.72977 1.3499,-1.39531 1.63288,-2.31357 z m 130.37737,-1.54569 c 2.29766,-0.81773 3.59212,-2.40734 2.52927,-4.79124 0.0356,-1.30177 -0.39889,-1.5275 -1.33738,-0.59941 -2.90503,1.96786 -5.88396,3.84377 -8.77989,5.80763 -0.0784,0.78968 -0.0794,4.06163 1.17479,3.12855 2.15297,-1.15407 4.28856,-2.34015 6.41321,-3.54553 z m -161.72656,3.02449 c 2.0353,0.27677 5.9211,-0.33636 3.9387,-3.04822 -2.81154,-0.63232 -5.72036,-0.74674 -8.56133,-1.23634 -0.54685,1.36622 -0.23359,3.16852 -0.61116,4.70266 1.73413,-0.24858 3.48624,-0.32244 5.23379,-0.4181 z m 137.18645,-0.0214 c 2.10341,-1.10468 -2.95725,0.66406 -0.55155,0.27233 l 0.27309,-0.11992 z M 797.28801,253.639 c 1.54424,0.33063 1.19661,-1.32782 0.96176,-2.30291 -1.37991,-0.33319 -3.40633,-0.1017 -4.59978,0.30701 -0.69128,2.88447 1.72422,2.29829 3.63802,1.9959 z m 5.42396,-0.54124 c 0.92739,-0.10309 2.21425,0.12094 1.78594,-1.21584 0.11103,-1.053 0.1193,-1.99418 -1.19251,-1.49899 -1.74013,-0.006 -4.52278,0.20374 -3.44399,2.69578 0.84571,0.44461 1.93865,-0.004 2.85056,0.019 z m 5.93614,-0.71727 c -0.0888,-1.05793 0.14554,-2.70998 -1.39803,-2.0602 -1.33472,-0.29554 -1.2478,0.72179 -1.16467,1.73562 -0.44895,1.51308 1.90075,0.13197 2.5627,0.32458 z m 2.8829,-0.43321 c 0.46944,-0.59224 0.90239,-2.92316 -0.58543,-2.38125 -1.72399,-0.50022 -0.46603,1.73453 -0.5137,2.5611 0.38372,0.0435 0.7149,-0.21081 1.09913,-0.17985 z m 3.76291,-1.35448 c -0.0479,-2.03293 -3.40321,-0.5645 -1.36772,0.7941 0.54704,0.008 1.40673,-0.025 1.36772,-0.7941 z m 3.84578,-0.29917 c -1.28684,-0.74398 -2.87977,0.57712 -0.5195,0.21956 0.10981,-0.0964 0.49033,0.009 0.5195,-0.21956 z m -26.91044,-1.5875 c -1.17671,-2.1523 -5.30474,-1.38824 -7.49699,-2.82365 -0.77711,-0.14211 -2.34126,-1.48599 -1.9278,0.12027 -0.67826,2.52565 1.16715,3.89728 3.60676,3.30115 1.99265,-0.005 3.9853,-0.002 5.97795,-0.002 -0.0533,-0.19844 -0.10661,-0.39688 -0.15992,-0.59532 z m 5.6117,0.079 c -0.2817,-0.0888 -4.08146,-1.40117 -4.45555,-0.13608 -0.29821,1.32317 1.50571,0.32856 2.26704,0.47597 0.73262,-0.089 1.46851,-0.17337 2.18851,-0.33989 z m 102.5684,-27.5351 c 1.04782,-1.05983 3.36608,-2.53673 3.09705,-3.9137 -2.13023,0.9178 -4.2852,1.78366 -6.50555,2.46411 -0.32226,1.30096 -0.69003,2.59203 -0.95108,3.90707 1.57705,-0.30729 3.02525,-1.53729 4.35958,-2.45748 z m 2.11667,-6.05735 c 1.77279,-0.80415 1.54629,-4.12714 -0.70262,-2.28411 -1.88108,0.60444 -4.55323,0.31687 -4.12174,3.13006 -0.4358,1.52997 -0.66094,2.67547 0.91869,1.40662 1.32033,-0.71795 2.63878,-1.44292 3.90567,-2.25257 z m -2.20117,-3.96212 c 2.07245,0.2114 4.91085,-3.46163 1.41104,-3.08379 -2.25125,-0.56961 -4.48909,1.8499 -2.88641,3.54442 0.49825,-0.13191 0.98767,-0.29458 1.47537,-0.46063 z m 1.40742,-4.6329 c 0.86623,-0.29518 1.94859,-0.40889 1.75854,-1.59099 0.24302,-1.50742 1.11152,-3.96995 -1.39317,-2.57158 -2.34386,-0.20747 -3.75513,1.15612 -3.37804,3.52071 -0.32672,1.31827 -0.0126,1.93652 1.35857,1.18617 0.55488,-0.1705 1.10625,-0.35241 1.6541,-0.54431 z m 4.93473,-12.39565 c 1.65108,-1.96123 1.95713,-4.11431 -0.74235,-2.39247 -0.72906,0.17065 -0.50587,3.88121 0.74235,2.39247 z m 0.23219,-5.22933 c 0.82947,-0.42856 1.96439,-0.66915 1.57995,-1.84473 0.49825,-2.59137 -3.19064,0.20022 -3.67844,0.81316 0.009,1.89553 0.56023,2.07185 2.09849,1.03157 z m 4.32041,-7.86727 c 0.46637,-1.44178 0.82632,-3.03525 -0.74704,-1.33648 -0.81319,0.80887 -0.49118,3.57779 0.74704,1.33648 z m 55.4646,69.71914 c -1.15706,-4.5994 -2.38951,-9.19332 -3.31682,-13.84587 0.37019,-2.16307 1.14644,2.21514 1.3823,2.92793 0.96835,3.94057 1.978,7.91186 2.37966,11.95162 -0.24698,-0.29497 -0.31009,-0.68622 -0.44514,-1.03368 z m 11.15278,-11.77567 c -0.16816,-1.42296 -0.5533,-3.86946 -0.50542,-4.82525 0.96109,2.04912 0.91067,4.42653 1.01055,6.64451 -0.24316,0.71937 -0.42034,-1.63824 -0.50513,-1.81926 z m -139.20783,-10.0153 c -6.08238,-2.99224 -11.72281,-6.91222 -18.10128,-9.2753 -7.38167,-2.26174 -15.26471,-2.53586 -22.87578,-1.4514 -4.40917,0.56128 -8.33211,2.9091 -12.66234,3.70963 -0.23577,-1.88716 3.85916,-2.9285 5.54345,-3.8777 5.9528,-2.36571 12.50131,-2.84379 18.8459,-2.54498 7.89193,0.96494 15.4937,3.93511 22.10578,8.33015 3.68391,2.44192 7.42383,4.80328 11.22393,7.05373 -1.41223,-0.47617 -2.73456,-1.28738 -4.07966,-1.94413 z m 2.51354,-1.73692 c -6.4678,-3.60494 -12.6402,-7.72325 -19.12322,-11.29298 -7.48184,-3.18403 -15.83129,-3.01137 -23.77949,-2.34323 -2.42193,0.39904 -5.02479,0.58924 -7.19228,1.77623 -1.48614,0.19414 -3.72554,0.67597 -4.24965,2.20212 0.51257,-1.68852 -3.3646,0.16546 -1.58005,-1.51277 1.94256,-0.76817 3.28729,-4.5289 1.9508,-5.75836 1.16498,-1.03775 1.56755,-2.71147 1.86755,-4.26223 -0.60244,-0.16629 -2.00817,-0.7031 -0.31021,-1.64658 1.15822,-0.816 2.93901,-5.48337 0.004,-3.42329 -2.42857,-0.32801 1.21812,-2.33613 2.06967,-2.90766 0.7813,-1.49983 0.98756,-3.60087 -1.2342,-2.37938 -1.55286,0.99692 -3.34884,-0.58953 -0.9555,-1.28285 1.7151,-0.099 5.10078,-2.83974 2.66798,-3.83686 -1.33807,0.78278 -3.37655,-0.10015 -1.1044,-0.92454 1.58236,0.50292 3.36063,-2.77747 1.89341,-2.79812 -1.21603,0.44637 -2.79306,-0.15195 -0.68858,-0.85718 1.93013,-0.45363 1.98576,-4.06778 -0.45583,-2.40184 -2.76437,1.14852 -1.41853,-1.58445 0.48973,-1.53866 2.35492,-0.19472 1.37869,-3.37155 2.61141,-4.2697 0.26568,1.78738 0.30447,4.16728 2.70302,2.74509 1.33673,-0.96827 0.88926,-3.09737 1.35664,-4.61303 -3.07497,0.76045 -5.92796,2.34633 -8.84806,3.41778 0.24554,-2.51186 3.9167,-3.00769 5.782,-4.22456 9.76797,-3.36276 20.33668,-3.19061 30.49689,-2.20206 5.57594,0.79047 11.20426,1.69714 16.53814,3.55407 6.58371,2.91599 13.23513,5.69084 20.03594,8.0645 1.18698,0.51425 5.11183,1.94986 4.54448,2.04348 -8.78117,-2.76997 -17.43698,-5.92254 -26.12351,-8.96498 -10.71611,-3.11574 -22.03197,-4.23491 -33.15308,-3.3287 -2.71449,0.3325 -5.51926,0.56544 -8.09333,1.4893 -0.64425,1.28523 -0.19152,2.87741 -0.32095,4.30199 1.66382,-0.26475 3.32765,-0.52949 4.99147,-0.79424 -0.008,-1.25707 1.42685,-4.63236 1.35853,-1.59571 -0.28381,2.55521 2.98073,1.06391 4.54885,1.15921 1.06933,-0.011 0.20092,-3.96996 1.45975,-2.62619 0.62083,0.81297 -0.32764,3.15204 1.31491,2.67178 5.85706,-0.11357 11.74208,0.0196 17.49653,1.24188 5.99549,1.07085 12.17691,2.01441 17.49756,5.18627 5.23263,2.90431 10.81814,5.12501 16.61205,6.61784 2.01647,0.86268 -3.37114,-0.29208 -4.42323,-0.47038 -6.75057,-1.68828 -12.90615,-5.10149 -19.48365,-7.31363 -5.33543,-1.77966 -10.96053,-2.52047 -16.51437,-3.28481 -0.84409,0.14257 -2.53869,-0.59787 -2.89799,0.0807 0.0174,1.48878 -0.18273,2.96754 -0.32988,4.44613 3.20104,0.42652 6.3004,1.45324 9.49519,1.83856 0.44661,-0.60686 0.51912,-3.79207 1.10644,-1.49216 -0.0153,1.19858 -0.21528,2.43589 1.33212,2.43607 3.55476,1.10512 6.92345,2.76592 10.49753,3.78982 1.29531,-1.22008 0.81986,1.13646 2.59031,1.08349 4.77459,1.6217 9.54268,3.28249 14.38656,4.68366 -2.49939,-0.0164 -5.12578,-0.98244 -7.64871,-1.43912 -2.82395,-0.65031 -5.64157,-1.34294 -8.3879,-2.27373 -0.43033,1.83272 -0.65229,4.38692 1.96147,4.35727 1.91412,0.60194 4.70897,1.07438 6.08344,1.58295 -2.80983,-0.16493 -5.6062,-0.87039 -8.3709,-1.11736 -0.70861,1.40189 -0.76266,4.47097 -0.39013,4.87256 -1.44581,1.17049 -1.08394,4.96097 -1.88222,5.80326 -0.33371,-2.01876 1.96332,-6.14924 -1.38802,-6.19844 -3.5416,-0.45676 -7.00797,-1.39721 -10.32027,-2.72399 -0.53226,2.36776 -1.01764,4.74576 -1.52375,7.1192 4.77538,2.52031 9.6024,4.96672 14.18644,7.82352 -4.80302,-2.26286 -9.60793,-4.54698 -14.4673,-6.69991 -0.087,1.14455 -1.52419,3.02663 -0.0537,3.61291 5.72375,3.28384 11.42092,6.6184 17.13152,9.92255 -2.31232,-0.59535 -4.93423,-2.19113 -7.29035,-3.29142 -7.11924,-3.75946 -14.03029,-8.48248 -22.18257,-9.63032 -4.92266,-0.76186 -9.9595,-0.8856 -14.91766,-0.46912 -1.57688,-0.0102 -2.82199,3.58387 -1.88532,0.34133 -1.73703,0.0902 -5.69524,-0.52188 -6.05302,2.25029 -0.7506,2.20644 2.98458,-0.27512 4.21677,0.0963 6.2318,-0.68979 12.58126,-0.65593 18.79106,0.22695 4.70742,0.79036 9.09319,2.86538 12.88301,5.74093 4.49481,3.21388 8.92735,6.54465 13.31691,9.88246 l -0.1844,-0.0409 -0.46221,-0.23141 z m -51.33712,-13.68459 c 2.31244,-0.28866 2.66282,-5.21077 -0.19629,-3.02096 -0.29712,1.00765 -2.7357,4.81439 0.19629,3.02096 z m 37.26392,-3.64877 c 0.36964,-1.06116 0.0408,-1.71073 -1.08972,-1.88792 -2.51027,-1.02399 -5.05303,-2.01347 -7.67859,-2.69473 -1.62556,1.55884 -0.35904,3.29562 1.68252,3.29753 2.34175,0.76842 4.38275,2.38997 6.76973,2.93364 0.19606,-0.52611 0.23583,-1.09743 0.31606,-1.64852 z m -35.59437,-1.56799 c 1.64742,-0.54465 2.35184,-5.43961 -0.30754,-3.07182 -0.19786,0.84242 -2.0853,4.15205 0.30754,3.07182 z m 5.51591,-1.04056 c 2.37438,0.61264 2.99096,-2.70625 2.48262,-3.95467 -1.54748,0.17675 -3.06966,0.51656 -4.60162,0.79021 -0.18236,1.15022 -1.14401,2.53926 -0.71614,3.5558 0.94501,-0.1298 1.88543,-0.29426 2.83514,-0.39134 z m 20.30406,-0.82671 c 0.32868,-2.7129 -4.23255,-1.59506 -6.09494,-2.50583 -2.26394,-1.23204 -4.95211,0.42771 -4.57359,2.56257 3.41139,0.27789 6.86578,0.30148 10.20461,1.1427 0.38409,-0.22953 0.35251,-0.82493 0.46392,-1.19944 z m 10.06824,0.10938 c 0.31763,-2.66572 0.0636,-4.12419 0.88222,-6.69026 -2.8195,-1.26612 -5.78859,-2.31229 -8.80464,-2.9831 0.15514,0.95551 -0.94368,3.06604 0.30654,3.43714 2.39427,0.85563 4.82554,1.61908 7.17836,2.58236 -2.74247,-0.63579 -5.47034,-1.38265 -8.12199,-2.33546 -0.85553,2.06921 -0.23637,4.22257 2.32806,4.34787 2.00275,0.1909 4.80544,2.76382 6.23151,1.64145 z m -23.37172,0.0661 c 0.80083,-0.17886 2.28656,0.51965 2.25494,-0.72561 0.13956,-1.13154 1.4207,-3.15131 -0.56437,-2.75253 -1.62442,-0.0291 -4.12086,-0.91381 -4.57743,1.31676 0.0485,0.70014 -1.60015,2.92405 -0.0935,2.34277 0.98302,-0.16346 1.98639,-0.16725 2.98034,-0.18139 z m 13.73545,-4.69359 c 0.59042,-3.05636 -3.76915,-2.13611 -5.68377,-2.89127 -2.21411,-1.13084 -3.62359,0.40144 -3.5578,2.64828 2.81643,0.80675 5.6917,1.44379 8.58012,1.93419 0.76613,-0.0903 0.52424,-1.16809 0.66145,-1.6912 z m 24.56758,-1.04246 c 1.52165,-3.30594 -2.49014,-2.67676 -4.51011,-3.5172 -2.44114,-0.52188 -4.75364,-1.84321 -7.22422,-2.03231 -0.63584,2.22758 -1.24269,5.10086 1.99352,5.19565 2.96934,0.98321 5.93484,2.06607 9.01661,2.63488 0.71609,-0.3905 0.53052,-1.57679 0.7242,-2.28102 z m -48.6789,1.6163 c 1.18281,-1.77343 0.59674,-4.75494 -1.32109,-2.22769 0.0127,0.77174 -1.33717,3.29423 0.3353,2.50726 0.33236,-0.0778 0.67109,-0.1418 0.98579,-0.27957 z m 3.39466,-0.62556 c 2.14103,-0.0216 4.01225,-0.8726 3.78333,-3.33982 -2.31281,-0.0905 -5.61163,-0.0729 -5.31493,3.12269 -0.30661,1.01515 1.13063,0.0902 1.5316,0.21713 z m 10.2446,-1.07552 c 0.26033,-1.25248 1.03121,-2.92632 -0.88642,-2.38125 -1.21998,0 -2.43996,0 -3.65994,0 -0.42045,1.42544 -1.13825,3.4389 1.23979,2.95439 0.96456,-0.32244 3.16785,0.9486 3.30657,-0.57314 z m 10.83141,-2.31511 c 1.2085,-3.40526 -3.64912,-2.68259 -5.59078,-3.47022 -1.98751,-1.06971 -2.80987,0.53892 -2.87745,2.25946 2.74004,0.63556 5.47598,1.36929 8.17135,2.10888 0.2802,-0.19282 0.20092,-0.61832 0.29688,-0.89812 z m 10.71438,-1.63847 c 1.46393,-3.02014 -2.24459,-3.02898 -4.22789,-3.61184 -1.88733,-0.34259 -5.61059,-2.20693 -4.8267,1.31331 0.50001,2.26828 4.13909,1.98882 5.927,3.11727 1.54931,0.56468 3.19515,1.95245 3.12759,-0.81874 z m -34.0193,0.26031 c 0.0667,-0.81761 1.31137,-3.39307 -0.44135,-2.7103 -1.33804,-0.26579 -2.04869,3.45082 -0.91805,3.1098 0.4642,-0.0882 0.94117,-0.16444 1.3594,-0.3995 z m 48.20575,-1.48692 c 0.79975,-3.3708 -4.38468,-2.95773 -6.41462,-4.40388 -1.95385,-0.32261 -6.03199,-3.48561 -5.52392,0.36358 -0.0905,0.91623 -0.48037,2.01901 0.82112,2.06787 3.51295,1.31681 7.00372,2.7355 10.63114,3.70292 0.42654,-0.41915 0.37448,-1.17265 0.48628,-1.73049 z m -34.92251,0.81456 c 1.56507,-2.77871 -3.45128,-2.59654 -4.56043,-1.83451 -1.43463,2.85085 2.77511,2.32046 4.3678,2.29025 l 0.19266,-0.45574 z m -6.88307,0.0944 c 0.0155,-0.9345 1.2364,-3.13559 -0.58126,-2.60798 -1.5912,0.11253 -4.2592,-0.64999 -3.9175,1.84035 -0.59683,1.35147 0.45352,1.18529 1.47584,1.04493 1.00863,-0.0723 2.02714,-0.0966 3.02292,-0.2773 z m 17.43392,-2.27725 c 1.30529,-3.56846 -3.694,-2.67058 -5.72325,-3.37626 -0.76792,0.0692 -2.29247,-0.88583 -2.13626,0.43453 -1.00546,2.76174 2.96161,2.20372 4.61124,3.05167 1.04937,-0.0905 3.30458,1.90066 3.24827,-0.10994 z m 11.17048,-3.54997 c 0.0843,-0.92753 0.5359,-2.10555 -0.82835,-2.04502 -2.69341,-0.65149 -5.41263,-1.29111 -8.16786,-1.59089 0.0291,0.95779 -1.11598,3.01107 -0.15367,3.49146 2.90258,0.66166 5.82077,1.48621 8.69082,2.09029 0.43573,-0.51933 0.34187,-1.31206 0.45906,-1.94584 z m -34.09767,1.53206 c 0.2706,-1.17185 0.91862,-2.82423 -0.89904,-2.27552 -1.00987,-0.16695 -1.85222,3.26395 -0.48354,2.57621 0.46304,-0.0893 0.93082,-0.16231 1.38258,-0.30069 z m 13.14066,-0.23105 c 1.11977,-2.4951 -3.69315,-2.28068 -4.59338,-1.60511 -0.3701,1.19258 -0.59408,2.34228 1.01335,1.99896 0.95463,-0.21716 3.10964,0.79142 3.58003,-0.39385 z m -6.7124,-0.29766 c 0.37702,-1.39775 0.56167,-2.44579 -1.16523,-2.01744 -1.08884,0 -2.17769,0 -3.26654,0 -1.25299,2.48582 1.28607,2.68612 3.20055,2.36402 0.36013,-0.0968 1.05056,0.10382 1.23122,-0.34658 z m 17.28082,-3.18479 c 0.76864,-3.19157 -3.88494,-1.82863 -5.80053,-2.43391 -0.71143,0.16856 -2.32439,-0.74027 -2.20368,0.42276 -0.98653,2.5979 1.38149,2.97547 3.44317,2.9716 1.52532,-0.0989 4.76915,1.97807 4.56104,-0.96045 z m -22.98935,-1.28162 c 1.13766,-1.5392 -2.713,-1.533 -2.22897,-0.18709 -0.2808,1.3303 0.22292,1.80316 1.52575,1.2177 0.47152,-0.10008 0.61394,-0.63926 0.70322,-1.03061 z m 12.93524,1.19219 c -0.008,-0.93858 1.28583,-3.24269 -0.56854,-2.71198 -1.4724,0.23321 -4.34476,-0.86893 -4.11175,1.4502 -0.77211,1.45917 0.62154,1.22543 1.65485,1.28421 0.99181,-0.0285 2.07679,0.33334 3.02544,-0.0224 z m -6.59972,-0.92604 c 0.55124,-1.41063 0.15488,-2.26088 -1.32441,-1.74935 -1.54637,0.15675 -3.82252,-0.23828 -3.54502,1.9765 -0.0299,0.80763 1.65015,0.16038 2.32527,0.36816 0.76433,-0.13565 2.2204,0.35788 2.54416,-0.59531 z m 17.10239,-3.30729 c -0.2668,-1.11139 0.7097,-3.15596 0.0368,-3.77031 -2.74706,0 -5.49412,0 -8.24118,0 0,1.30787 0,2.61573 0,3.9236 2.63756,0.1641 5.25865,0.63938 7.88645,0.76676 0.41104,-0.0993 0.28782,-0.62509 0.31793,-0.92005 z m -23.13833,0.39574 c 0.15904,-1.05743 1.05643,-2.99858 -0.74358,-2.20562 -1.68993,-0.84898 -2.60386,2.73853 -1.19213,2.52815 0.64693,-0.0954 1.30232,-0.15343 1.93571,-0.32253 z m 6.33919,-0.46869 c 0.56499,-1.63399 0.82803,-4.11775 -1.65133,-2.76838 -1.88941,-0.64448 -4.15531,2.15627 -2.53467,3.03977 1.39202,-0.0478 2.84715,0.15355 4.186,-0.27139 z m 7.00726,-1.71299 c 0.002,-0.92401 0.30739,-2.15203 -1.04717,-1.71979 -1.50905,0.11778 -4.35398,-0.66181 -3.97917,1.7629 -0.17489,1.18101 -0.0479,2.06293 1.34562,1.67668 1.22691,0 2.45381,0 3.68072,0 0,-0.57326 0,-1.14653 0,-1.71979 z m 57.15,43.92378 c -3.85263,-0.56941 -7.81188,-0.94812 -11.49343,-2.25406 1.7738,-0.62887 4.45634,0.13525 6.56416,0.27583 6.29164,0.96764 12.66962,1.17298 18.97764,1.952 -1.38255,0.76996 -5.31529,0.23983 -7.64744,0.34832 -2.13527,-0.0572 -4.27414,-0.11208 -6.40093,-0.32209 z m 12.75037,-3.8394 c 0.10524,-1.73485 0.44897,-3.44314 0.70714,-5.15938 -0.16869,1.8031 -0.16511,3.69364 -0.68432,5.40556 z m 8.85641,-2.91042 c 0.69021,-5.76763 1.4401,-11.53342 2.33583,-17.27138 0.11266,6.00262 -1.12569,11.95419 -2.24417,17.8302 -0.25295,1.42899 -0.11909,-0.38153 -0.0917,-0.55882 z m -20.05442,-1.03144 c -3.25452,-1.16219 -6.95059,-0.8115 -10.10548,-2.28258 1.83365,-0.79321 4.66739,0.41525 6.8773,0.38844 2.16544,0.69323 3.839,0.23925 3.50657,-2.23455 0.5457,-1.31084 -1.06711,-0.78216 -1.85281,-0.95834 -2.24086,-0.19327 -4.76047,-0.18508 -6.62741,-1.5679 2.16042,-0.0758 4.55133,0.86497 6.8534,0.64992 0.92786,0.008 2.14203,0.34524 1.88277,-1.01389 0.80853,-6.0183 2.03192,-11.98594 3.49286,-17.87713 1.06876,0.38014 -0.22582,4.42696 -0.29998,6.04105 -0.72844,4.27673 -1.62747,8.5224 -2.36917,12.79655 0.89366,0.31105 5.75274,0.5648 2.64584,0.71301 -2.55354,-0.8942 -4.00398,2.29205 -3.07518,3.8989 2.41107,0.38774 4.84874,0.59593 7.25411,1.0175 -2.56238,0.62662 -5.38071,0.007 -7.8835,0.40273 l -0.17642,0.17783 -0.1229,-0.15163 z m 11.96227,-1.76873 c 0.29761,-1.00631 0.1385,1.17797 0,0 z m -20.17883,-18.81182 c 1.1766,-0.19425 -0.14948,0.48231 0,1e-5 z m 94.49858,-0.26135 c -2.94819,-2.41295 -5.39214,-5.56575 -9.06461,-6.95112 -2.65821,-1.54973 2.46031,-0.1235 3.29631,0.36407 2.82383,1.30211 5.52737,3.25913 7.19823,5.91624 0.74088,1.27439 -0.74017,1.28804 -1.42993,0.67081 z m -42.06147,-4.82709 c 0.93315,-2.53583 4.47368,-2.79771 5.55916,-4.99894 -0.26867,-0.84958 1.13482,-3.70688 -0.56801,-2.27802 -0.96401,0.63601 -4.43481,2.5286 -3.44458,0.36565 1.48945,-1.96098 5.19895,-2.07284 4.81114,-5.18302 1.03073,-3.15672 -4.155,2.55276 -2.85557,-0.99483 1.35229,-1.68917 3.9789,-2.52733 3.57188,-5.17617 0.92215,-1.98024 -1.74473,-0.0519 -1.73961,-1.35495 1.59837,-1.33709 3.32193,-4.13938 2.11676,-5.91808 -2.94285,0.72265 -0.31693,-1.60142 0.51098,-2.39144 0.33999,-1.42922 0.84026,-4.52341 -1.54129,-3.12486 -2.60263,-0.0808 0.53127,-2.20216 1.41493,-2.57694 -0.18963,-0.66795 0.64432,-3.53842 -0.29596,-3.2297 -1.08136,1.13532 -4.25878,1.17994 -2.28448,-0.74757 1.88665,-0.41715 3.76688,-4.01633 1.41695,-4.5921 -1.37573,0.86767 -3.01867,-0.0883 -1.01056,-1.09637 2.11222,-0.59402 1.46693,-2.74046 1.4355,-4.3824 -1.39194,0.45392 -4.3901,0.18144 -1.67321,-1.2345 1.13887,-0.22703 1.37388,-1.01981 1.19062,-2.07441 0.69931,-2.65832 -1.58728,-0.68282 -2.38125,-1.23714 1.41637,-2.2528 4.0533,-3.41385 6.32917,-4.66373 5.64425,-2.81842 12.16963,-3.76098 18.38996,-2.78831 -1.02588,1.36259 -4.57472,1.07694 -6.61535,1.54395 -2.84184,-0.52593 -2.79979,1.87287 -2.49586,3.92525 -0.27813,1.2651 0.47211,1.4519 1.56478,1.27964 1.0521,-0.24851 5.05222,0.7603 2.06101,1.06937 -1.25345,0.30433 -2.50384,0.62109 -3.75558,0.93238 0.0197,1.49308 -0.29734,3.03028 0.0793,4.48888 0.94527,0.69353 -1.10905,2.12029 -0.49187,3.65866 -0.0801,3.53898 -0.58468,-1.55995 -0.59444,-2.56676 -1.46572,-0.0977 -3.09123,0.60305 -4.63232,0.83853 -1.13713,-0.0355 -0.33872,1.42957 -0.52247,2.1332 0.20786,0.75612 -0.43949,2.30755 0.8198,2.08586 0.73285,0.10801 2.41138,0.0935 0.80046,0.50511 -0.867,0.34143 -2.00749,0.47325 -1.752,1.67497 -0.16091,1.69401 -1.12015,4.14347 1.63664,3.62176 1.53297,0.0545 2.56227,0.99961 0.41468,1.19098 -1.95049,1.02516 -6.38052,-0.33298 -5.67964,3.00705 -0.62576,3.51772 3.6087,0.42814 5.55163,1.30088 1.27854,0.0684 1.74579,0.23886 0.26921,0.65363 -2.02678,1.28528 -6.34803,0.43942 -6.15564,3.72647 0.17827,0.77081 -0.7502,2.56803 0.21804,2.6292 1.66761,-0.005 3.34384,0.0477 4.98011,0.39668 -1.76908,0.6012 -3.62834,0.94086 -5.37775,1.5613 -0.33022,0.61461 -1.51164,3.74885 -0.28347,3.37756 1.7361,-0.558 3.55656,-0.79656 5.31044,-1.24217 0.34882,-1.02129 1.14688,-2.18954 1.10502,-0.32015 0.62784,1.17025 2.89475,0.42852 0.79529,1.31572 -1.08551,0.24628 -0.40256,1.58778 -0.59204,2.38899 -0.0295,2.259 0.61243,3.46788 -0.20928,5.57918 -0.0241,1.35329 -0.79188,5.70814 -0.88541,2.02006 0.0475,-1.91766 0.39802,-5.03018 -2.42636,-3.06612 -2.14764,0.96672 -5.73923,1.02756 -5.8015,4.09571 -0.82406,1.89545 0.50066,1.02196 1.58774,0.50329 1.68222,-0.61804 5.17647,-0.71843 6.02551,-0.12781 -4.85133,1.35971 -9.23032,3.92316 -13.78939,6.00326 l -0.0791,-0.14883 -0.0329,-0.35785 z m 8.76413,-10.76697 c 1.8299,-0.56947 3.76044,-0.60611 5.65566,-0.76489 -0.009,-1.50403 0.24672,-3.03619 -0.0254,-4.51951 -2.11124,0.88957 -5.80964,0.51323 -6.57189,3.11901 -0.12819,1.10268 -1.39308,3.54549 0.94167,2.16539 z m 2.6791,-23.76409 c 1.26241,-0.68806 1.31331,-5.48409 -0.96371,-3.60235 -1.22542,0.009 -0.95762,1.08746 -0.95456,1.97607 -0.13614,1.67326 0.12432,2.38673 1.91827,1.62628 z m 0.7276,-7.73511 c -0.10514,-0.7966 0.43995,-2.46106 -0.86142,-1.66104 -2.18195,-0.0208 -2.53311,1.65931 -2.05796,3.41021 -0.17958,1.27326 1.35726,0.2543 2.08412,0.31706 1.38912,0.13846 0.65458,-1.21336 0.83526,-2.06623 z m -1.5835,-3.17574 c 1.00726,-0.18135 1.96283,-0.40198 1.5835,-1.63702 0.39594,-2.04823 -0.49986,-2.93485 -2.40036,-1.71097 -0.88272,0.2265 -1.82424,0.41355 -1.3658,1.53929 0.12034,1.74628 0.0533,2.83444 2.18266,1.8087 z m 5.97077,-0.88266 c 0.71962,-0.22228 2.42874,0.54494 2.22732,-0.59838 -0.11398,-1.24983 0.27613,-2.69958 -0.25731,-3.81176 -2.08246,0.5041 -5.98739,0.11142 -5.03103,3.40395 -0.45629,2.16985 1.97919,0.58512 3.06102,1.00619 z m -6.35703,-4.5886 c 0.78287,-0.37925 2.25405,-0.28998 1.79244,-1.51629 -0.1234,-1.31794 0.31463,-3.90597 -1.68177,-2.21826 -2.22047,0.30819 -4.2057,2.96544 -1.9937,4.30549 0.63598,-0.16155 1.26096,-0.36329 1.88303,-0.57094 z m 8.66181,-2.02598 c 0.27568,-1.57998 0.27521,-3.19436 0.39499,-4.79209 -2.1652,0.47018 -4.32986,1.03043 -6.38182,1.86747 -0.18404,1.39037 0.26208,2.77575 0.44046,4.15322 1.84951,-0.40065 3.73495,-0.67774 5.54637,-1.2286 z m 23.01589,52.02156 c -2.6268,-1.54129 -4.84245,-3.71726 -7.55926,-5.14298 -0.97097,-0.62105 -4.85961,-2.16693 -1.63819,-1.71031 2.38547,0.35342 4.61991,1.28914 6.74159,2.4005 0.0321,-1.59125 0.2064,-3.52134 -1.65301,-4.16101 -0.96638,-1.08705 -3.59617,-1.43156 -3.95323,-2.34226 1.6872,-1.15335 4.2749,1.00833 5.33679,0.33288 0.81561,-3.08429 -2.59266,-3.60222 -4.64008,-4.60888 -1.44939,-0.33034 -3.66944,-1.46972 -0.74985,-1.31313 1.87596,-0.41467 5.75429,2.65334 5.13027,-0.78758 0.12687,-0.99224 0.0825,-1.86958 -1.10756,-1.9779 -1.52585,-0.70512 -3.35419,-1.14941 -4.60385,-2.16665 1.62602,-2.11407 6.19956,2.35516 5.92157,-1.39107 0.41318,-1.09401 -0.25272,-1.60733 -1.21164,-1.96298 -2.00329,-0.52212 -1.65118,-2.06337 0.31205,-1.3246 1.95588,0.82943 1.73675,-3.02078 1.67909,-4.21336 -1.77662,-1.48783 -5.02804,-1.89421 -6.40117,-3.10889 2.40503,-0.26397 5.01475,1.81174 7.18154,0.96835 1.34289,-1.80119 -0.36615,-3.30511 -1.99493,-3.19724 -0.091,1.63715 -0.66272,-1.60598 -2.14085,-1.25012 -2.32228,-1.44551 3.17397,0.13836 2.13614,-2.38389 0.19544,-1.16305 0.27725,-2.26728 -1.15809,-2.37694 -1.03791,-0.29912 -3.80601,-1.58785 -1.17489,-1.19462 2.17477,0.95093 3.59555,-0.0953 3.60611,-2.39285 1.1927,-2.86207 -3.37511,-2.44916 -5.11658,-2.88756 -0.51546,2.22846 -0.18087,0.45088 -1.18282,-0.47696 0.76879,-0.84547 0.42947,-4.50682 1.5684,-6.27523 2.19662,-0.8206 4.84372,0.2743 7.13324,0.7143 3.11801,0.9859 6.21226,2.54482 8.38594,5.03828 0.64484,3.04861 -2.98736,-0.18974 -4.0148,-0.84685 -1.90152,-1.72305 -4.48357,-2.77841 -4.41017,0.76215 -0.39698,1.84543 3.9894,3.09019 4.36924,0.73169 1.18917,-0.6802 -0.98382,2.87789 1.15381,2.82304 1.72997,0.303 3.57396,3.49643 0.64151,2.51991 -1.60012,-1.29787 -3.32729,-0.91509 -3.34125,1.34578 -1.79235,1.96364 3.89696,3.49099 1.17645,4.74537 -1.48697,-1.37579 -3.37914,-1.13184 -2.72943,1.31423 0.71477,0.80305 3.11214,3.63679 1.34227,3.86169 -0.98923,-0.1617 -2.42396,-3.02899 -2.49636,-0.85408 -0.13419,0.83064 -0.80348,1.8308 0.26926,2.27911 1.52675,0.66186 2.68722,3.87173 0.0511,2.42577 -1.06249,-1.23804 -1.36202,-0.67416 -1.42519,0.70205 -1.32119,1.88499 1.41013,3.33489 1.00479,4.63733 -2.66021,-1.28759 -1.86436,3.2542 -0.39833,4.13864 1.21063,1.64865 0.0649,1.66833 -1.20171,0.72588 -1.22683,1.78981 0.54959,3.43948 0.63871,4.91942 -2.4428,0.4727 -0.82687,4.14902 0.4914,5.20298 -0.18795,1.45529 -2.71471,0.25772 -1.98683,2.53774 -0.1922,2.00734 3.54121,3.84443 2.64429,5.4094 l -0.28827,-0.0793 -0.33704,-0.10934 z m 0.41845,-37.97198 c 1.3398,-2.17226 -3.42904,-3.96156 -2.85342,-0.63728 -0.9589,1.45874 3.10937,2.53757 2.85342,0.63728 z m 1.73277,-4.99322 c 1.74242,-1.91339 -0.72973,-3.57713 -2.48451,-3.24197 -1.2487,1.96706 -1.60129,5.35969 1.66577,4.87268 0.3608,-0.49433 0.59414,-1.06588 0.81874,-1.63071 z m -2.59633,-7.13813 c 2.23896,-2.90128 -1.77855,-3.25036 -3.85892,-3.78053 -2.77305,-1.1439 -2.61611,3.14786 -2.51245,4.85583 1.91097,-0.0608 5.8455,1.59265 6.37137,-1.0753 z m -12.44919,46.67272 c -0.18847,-1.56444 -0.33736,-5.27912 1.37871,-5.24931 -0.83047,1.74861 -0.7735,4.29808 -1.25454,5.7764 z m 9.1573,-30.59929 c 0.27153,-1.60462 0.11781,1.50452 0,0 z m 6.73258,-23.15075 c -1.90558,-1.11041 -4.78464,-1.51958 -6.24533,-2.76195 2.62824,0.35328 6.13961,0.35249 7.86878,2.57263 0.008,0.90821 -1.22364,0.54241 -1.62345,0.18932 z"
       id="path6" /></g></svg>
