<?xml version="1.0" encoding="UTF-8" standalone="no"?>
<!-- Created with Inkscape (http://www.inkscape.org/) -->

<svg
   width="69.801758mm"
   height="26.714003mm"
   viewBox="0 0 69.801758 26.714003"
   version="1.1"
   id="svg1"
   xml:space="preserve"
   xmlns="http://www.w3.org/2000/svg"
   xmlns:svg="http://www.w3.org/2000/svg"><defs
     id="defs1" /><g
     id="layer1"
     transform="translate(-113.38841,-209.89343)"><path
       style="fill:#000000;stroke-width:1"
       d="m 146.87781,236.04112 c -2.7257,-0.73983 -4.23235,-1.21664 -4.5849,-1.45097 -0.20173,-0.13406 -1.1425,-0.45361 -2.09059,-0.71003 -5.66561,-1.53226 -8.67824,-11.62464 -4.25072,-14.24003 1.51373,-0.89419 1.29572,-1.06787 -1.6919,-1.34784 -3.57755,-0.33524 -5.83988,0.0408 -8.03596,1.33563 -2.88814,1.70293 -3.02041,1.91789 -2.11954,3.44476 1.71288,2.90308 0.136,5.658 -3.2385,5.658 -1.52214,0 -3.45051,0.63813 -5.6594,1.87282 -0.75485,0.42192 -1.3315,0.25912 -0.95804,-0.34512 0.45977,-0.74392 2.41859,-1.47579 5.32117,-2.02385 2.28751,-0.43193 3.08391,-0.75456 3.73714,-1.51401 1.58424,-1.84178 0.79902,-2.30378 -0.94738,-0.55739 -1.08236,1.08236 -1.89039,1.41395 -1.89039,0.77576 0,-0.17853 0.42696,-0.60437 0.9488,-0.94628 1.38636,-0.90838 0.82027,-1.10301 -0.63233,-0.21742 -0.67841,0.4136 -1.43977,0.7526 -1.69194,0.75337 -0.87696,0.003 -0.45025,-0.6003 0.8707,-1.2302 0.73104,-0.34861 1.22345,-0.73956 1.09426,-0.86876 -0.1292,-0.1292 -0.43024,-0.0396 -0.66897,0.19911 -0.50228,0.5023 -2.12127,0.58861 -2.12127,0.11312 0,-0.17651 0.52612,-0.42615 1.16915,-0.55477 1.5041,-0.30083 0.96217,-0.86867 -0.98575,-1.03292 -1.46717,-0.12366 -1.46717,-0.12366 -0.1834,-0.76074 1.28377,-0.63704 1.36127,-1.16021 -1.29796,-0.9955 -0.87304,0.0541 -2.58132,0.84469 -3.08693,0.80088 -0.98819,-0.0856 -0.30107,-0.5953 0.37128,-0.85296 0.4701,-0.18015 1.62719,-0.55652 2.84418,-0.74622 1.60092,-0.24953 1.6203,-0.017 1.39401,-1.72281 -0.89512,-6.74777 12.80075,-11.51078 21.66239,-7.53354 3.03935,1.36411 4.53303,8.64094 2.48945,12.12804 -1.29406,2.20814 0.75993,4.52583 4.01092,4.52583 1.94869,0 1.94869,0 1.78295,-1.74227 -0.6123,-6.4364 14.47508,-10.00898 21.60758,-5.1165 1.70245,1.16776 3.24089,3.54743 3.24089,5.01297 0,1.23059 0.66249,1.17079 1.88252,-0.16994 2.25741,-2.48072 8.02085,-5.64249 8.02085,-4.40016 0,0.30098 -0.23741,0.54723 -0.52758,0.54723 -1.96213,0 -9.37579,6.10683 -9.37579,7.72307 0,1.10876 3.2512,-0.5738 4.07191,-2.10732 0.31294,-0.58475 0.5816,-0.74216 0.83469,-0.48908 0.59791,0.59791 -0.88933,2.25089 -3.10673,3.45298 -1.9019,1.03105 -2.51566,1.55283 -2.52785,2.14901 -0.0112,0.51842 1.27822,0.27231 2.51161,-0.47964 1.42403,-0.86817 1.99008,-0.65706 0.9175,0.3422 -1.07049,0.99731 -2.16441,1.51291 -3.20994,1.51291 -1.07633,0 -2.79232,0.71241 -2.79232,1.15924 0,0.93333 5.26519,-0.41839 7.31495,-1.87796 0.57811,-0.41164 1.14903,-0.74846 1.26872,-0.74846 0.30963,0 4.01648,-2.65371 4.34013,-3.10704 0.15615,-0.21873 0.27184,-0.10675 0.27509,0.26628 0.009,1.07719 -5.05964,4.54645 -8.90635,6.09553 -5.26351,2.11964 -11.28288,-1.83501 -9.85828,-6.47677 0.55424,-1.80591 -0.1256,-2.25328 -3.44702,-2.2682 -4.76079,-0.0215 -6.13034,0.78153 -5.26733,3.08811 1.57678,4.21431 -3.11117,7.2295 -8.82778,5.67787 z m 5.87108,-1.0695 c 2.23655,-0.63059 2.95474,-1.92402 2.26535,-4.0798 -0.66067,-2.06593 -0.92959,-2.15948 -2.33557,-0.81248 -0.56371,0.54009 -1.14549,0.86139 -1.29284,0.71403 -0.76872,-0.76871 3.4907,-3.5395 6.51116,-4.23553 3.9985,-0.92145 10.98612,0.50569 12.9394,2.64272 1.07916,1.18063 1.07916,1.18063 0.83188,0.0803 -0.13598,-0.6052 -0.81779,-1.57029 -1.51511,-2.14463 -0.69733,-0.57432 -1.26785,-1.21228 -1.26785,-1.41764 0,-0.46781 1.79769,0.633 2.6684,1.63397 0.35808,0.41166 0.74284,0.65668 0.85501,0.54451 0.44462,-0.44462 -0.7263,-1.82514 -2.44498,-2.88267 -2.7741,-1.70691 -2.47798,-2.472 0.33446,-0.86419 2.41914,1.38293 2.62186,0.99736 0.58065,-1.1045 -3.94136,-4.05852 -14.35032,-4.49784 -18.72937,-0.79049 -2.97566,2.51923 -3.90445,3.84254 -1.97054,2.80754 1.20231,-0.64347 1.34186,-0.12449 0.24087,0.89583 -0.53595,0.49671 -0.97447,1.15857 -0.97447,1.47081 0,0.70688 0.5868,0.7457 0.85135,0.0563 0.28884,-0.75273 2.48001,-2.32761 3.64186,-2.61754 1.17026,-0.29206 1.41732,0.38225 0.27311,0.74541 -2.4835,0.78824 -4.34112,3.65754 -3.46491,5.35193 0.32266,0.62396 0.49607,1.22503 0.38537,1.33574 -0.33453,0.33454 -1.67953,-1.48098 -1.92873,-2.60349 -0.2238,-1.00805 -0.30103,-1.04248 -1.92127,-0.8562 -1.97172,0.2267 -3.47214,-0.36136 -5.00543,-1.96176 -1.39622,-1.45735 -1.77735,-1.36776 -0.85216,0.20032 0.92529,1.56824 0.28673,1.70762 -0.84018,0.18339 -0.44745,-0.60521 -0.95868,-1.10037 -1.13607,-1.10037 -0.48688,0 0.0819,1.5455 0.89703,2.43715 0.41419,0.45312 0.56681,0.88063 0.36001,1.00845 -0.19744,0.12199 -0.85778,-0.39699 -1.46744,-1.15339 -1.40388,-1.74177 -2.10902,-0.83465 -0.79052,1.017 1.04118,1.46221 0.75191,1.74991 -0.50037,0.49764 -1.28019,-1.28017 -1.33042,-3.1212 -0.10702,-3.9228 0.47604,-0.3119 1.095,-0.78585 1.37547,-1.05319 0.28047,-0.26734 1.05904,-0.93892 1.73017,-1.49242 0.67113,-0.5535 1.0425,-1.00637 0.82528,-1.00637 -0.21721,0 -0.39492,-0.24758 -0.39492,-0.55018 0,-0.78144 -0.39201,-0.68601 -1.65058,0.40178 -1.39323,1.20418 -3.11418,2.10817 -3.42385,1.7985 -0.13087,-0.13086 0.0908,-0.41725 0.49257,-0.63643 1.63201,-0.89019 4.01866,-3.61599 3.46546,-3.95789 -0.37356,-0.23086 -0.60292,-0.12727 -0.78037,0.3524 -0.31134,0.84161 -1.77146,1.90137 -2.22961,1.61821 -0.18638,-0.1152 0.203,-0.76854 0.86532,-1.45187 1.5406,-1.58951 0.64261,-1.66739 -1.24884,-0.10828 -4.30382,3.54758 -0.85123,13.53754 4.67867,13.53754 0.31064,0 0.5648,0.16505 0.5648,0.36679 0,0.20174 0.37138,0.37409 0.82528,0.38299 0.4539,0.008 1.65056,0.24535 2.65924,0.52543 2.19072,0.6083 5.38506,0.69648 7.15487,0.1975 z m 15.76964,-0.3073 c 0,-0.16599 0.74275,-0.67273 1.65055,-1.12611 1.51663,-0.75746 2.27433,-1.35559 1.19207,-0.94103 -0.28849,0.1105 -0.47923,-0.18392 -0.51444,-0.79409 -0.12019,-2.08397 -2.28632,-4.02011 -4.1911,-3.74618 -0.95139,0.13684 -1.99315,2.80424 -1.59057,4.07265 0.48131,1.51651 3.45349,3.69798 3.45349,2.53476 z M 123.3377,223.415 c -0.30771,-0.67534 -0.53664,-0.81439 -0.87645,-0.53235 -1.04335,0.86589 -0.78601,-0.37934 0.35348,-1.7106 1.0677,-1.24735 3.61754,-2.72834 6.27369,-3.64385 2.63777,-0.90919 9.36203,-0.22367 11.405,1.16273 1.56049,1.05897 1.63343,0.40203 0.14307,-1.28886 -1.41232,-1.60234 -0.81413,-1.99272 0.72308,-0.47188 0.3954,0.39123 0.57224,0.4128 0.68211,0.0832 0.0815,-0.24471 -0.15865,-0.66034 -0.53383,-0.92366 -1.66294,-1.16717 -2.49706,-1.98675 -2.2621,-2.22265 0.13969,-0.14024 0.76816,0.11118 1.39659,0.55864 1.7454,1.24282 1.83859,0.48952 0.13601,-1.0987 -2.80879,-2.61997 -11.17324,-3.48437 -14.25743,-1.47337 -0.20174,0.13156 -1.08731,0.46665 -1.96792,0.74468 -0.88063,0.27805 -1.78688,0.80293 -2.0139,1.16645 -0.227,0.36351 -0.55291,0.66094 -0.72421,0.66094 -0.75371,0 -3.07594,3.54315 -2.60663,3.97709 0.14335,0.13252 0.34496,0.003 0.44801,-0.28835 0.30555,-0.86322 1.83181,-2.22159 2.49618,-2.22159 0.44793,0 0.30169,0.27588 -0.5347,1.00867 -1.2392,1.08573 -2.04624,3.16533 -1.56329,4.02831 0.22846,0.40826 0.40218,0.27953 0.74737,-0.55382 0.53029,-1.28026 2.84439,-3.62881 3.21268,-3.26052 0.14053,0.14054 -0.24983,0.78948 -0.86747,1.4421 -2.47499,2.61514 -2.63304,5.77148 -0.28899,5.77148 0.82209,0 0.86177,-0.0756 0.47971,-0.91413 z"
       id="path3" /></g></svg>
