<?xml version="1.0" encoding="UTF-8" standalone="no"?>
<svg
   xmlns:dc="http://purl.org/dc/elements/1.1/"
   xmlns:cc="http://creativecommons.org/ns#"
   xmlns:rdf="http://www.w3.org/1999/02/22-rdf-syntax-ns#"
   xmlns:svg="http://www.w3.org/2000/svg"
   xmlns="http://www.w3.org/2000/svg"
   viewBox="0 0 533.08521 995.88409"
   height="995.88409"
   width="533.08521"
   xml:space="preserve"
   id="svg2"
   version="1.1"><metadata
     id="metadata8"><rdf:RDF><cc:Work
         rdf:about=""><dc:format>image/svg+xml</dc:format><dc:type
           rdf:resource="http://purl.org/dc/dcmitype/StillImage" /></cc:Work></rdf:RDF></metadata><defs
     id="defs6" /><g
     transform="matrix(1.3333333,0,0,1.3333333,0,2.0230436e-5)"
     id="g10"><g
       id="g12"><g
         id="g14"><path
           id="path16"
           style="fill:none;stroke:#000000;stroke-width:7.19999981;stroke-linecap:butt;stroke-linejoin:miter;stroke-miterlimit:4;stroke-dasharray:none;stroke-opacity:1"
           d="M 396.215,0 V 746.914" /></g><g
         id="g18"><path
           id="path20"
           style="fill:none;stroke:#000000;stroke-width:7.19999981;stroke-linecap:butt;stroke-linejoin:miter;stroke-miterlimit:4;stroke-dasharray:none;stroke-opacity:1"
           d="M 342.691,0 V 746.914" /></g><g
         id="g22"><path
           id="path24"
           style="fill:none;stroke:#000000;stroke-width:7.19999981;stroke-linecap:butt;stroke-linejoin:miter;stroke-miterlimit:4;stroke-dasharray:none;stroke-opacity:1"
           d="M 57.121,0 V 746.914" /></g><g
         id="g26"><path
           id="path28"
           style="fill:none;stroke:#000000;stroke-width:7.19999981;stroke-linecap:butt;stroke-linejoin:miter;stroke-miterlimit:4;stroke-dasharray:none;stroke-opacity:1"
           d="M 3.602,0 V 746.914" /></g><path
         id="path30"
         style="fill:#000000;fill-opacity:1;fill-rule:nonzero;stroke:none"
         d="m 164.406,417.242 c 5.094,-10.902 13.789,-19.629 20.364,-29.547 0.3,-0.449 1.003,-0.043 0.726,0.43 -3.129,5.297 -7.07,10.07 -10.488,15.176 -3.195,4.769 -5.617,10.582 -9.82,14.554 -0.442,0.411 -1.016,-0.113 -0.782,-0.613" /><path
         id="path32"
         style="fill:#000000;fill-opacity:1;fill-rule:nonzero;stroke:none"
         d="m 209.988,656.617 c -10.004,18.504 -29.636,25.281 -48.23,24.164 -0.891,-0.051 -0.766,-1.258 0.144,-1.398 9.442,-1.371 18.223,-2.731 27.243,-7.043 8.433,-4.051 12.796,-10.828 19.714,-16.621 0.762,-0.625 1.575,0.074 1.129,0.898" /><path
         id="path34"
         style="fill:#000000;fill-opacity:1;fill-rule:nonzero;stroke:none"
         d="m 195.813,682.063 c -5.063,4.128 -12.383,6.355 -18.325,5.898 -0.711,-0.055 -0.617,-0.984 0.11,-1.102 3.203,-0.511 6.336,-1.433 9.437,-2.668 2.793,-1.089 5.375,-2.539 8.266,-3.168 0.582,-0.132 1.094,0.559 0.512,1.04" /><g
         id="g36"><path
           id="path38"
           style="fill:none;stroke:#000000;stroke-width:7.08094406;stroke-linecap:butt;stroke-linejoin:miter;stroke-miterlimit:4;stroke-dasharray:none;stroke-opacity:1"
           d="m 215.168,116.82 c 0,0 1.07,-23.652 15.547,-31.953 1.609,-21.164 42.523,-29.746 68.793,-21.863 26.273,7.883 48.097,39.801 49.863,67.797 6.137,97.422 -105.582,169.058 -194.894,321.676 -60.793,103.886 -54.348,216.941 31.007,188.89 -17.129,-37.043 24.457,-63.273 45.903,-57.465 21.445,5.809 47.777,27.028 38.703,65.848 -7.551,32.301 -37.516,59.348 -67.004,63.082 -29.488,3.738 -73.035,1.996 -99.348,-19.48 -182.527,-149.004 150.84,-420.082 157,-552.879 1.59,-34.25 -32,-27.446 -45.57,-23.653 z" /></g><path
         id="path40"
         style="fill:#000000;fill-opacity:1;fill-rule:nonzero;stroke:none"
         d="m 215.523,118.719 c 1.653,-31.403 29.657,-58.766 51.559,-57.801 2.25,1.023 5.746,-1.766 8.219,-1.844 19.39,1.465 29.926,14.633 40.488,26.09 0.328,0.356 -0.394,0.617 -0.726,0.281 -9.696,-9.765 -26.75,-19.679 -43.692,-20.543 -5.789,-0.3 -11.25,0.668 -15.555,1.688 17.368,-0.625 39.375,5.898 44.739,17.023 0.222,0.465 -0.727,0.59 -0.996,0.153 -4.969,-8.184 -22.289,-13.926 -33.778,-14.61 -3.133,-0.183 -5.879,-0.133 -8.379,0.125 11.852,0.824 23.254,4.492 30.508,11.739 0.367,0.382 -0.422,0.656 -0.82,0.308 -6.301,-5.762 -18.156,-8.98 -27.766,-9.09 -6.258,-0.082 -10.437,0.746 -13.933,2.43 8.621,-1.203 17.882,-0.852 26.386,1.883 10.782,3.461 17.852,10.617 22.496,17.98 0.829,1.313 -2.285,2.125 -3.144,0.821 -8.629,-13.11 -28.918,-17.778 -46.621,-13.692 -0.278,0.067 -0.551,0.156 -0.828,0.223 2.664,-0.602 5.324,-0.988 7.816,-1.129 17.172,-0.93 31.434,6.605 38.348,17.867 0.234,0.352 -0.578,0.567 -0.828,0.223 -7.203,-10.235 -23.918,-17.817 -39.403,-14.973 -4.527,0.832 -8.195,2.031 -11.34,3.524 4.11,-1.274 8.477,-1.993 12.543,-1.985 8.864,0.016 17.45,1.817 24.86,5.883 7.328,4.031 10.437,8.934 15.82,14.07 0.293,0.266 -0.289,0.473 -0.582,0.215 C 285.203,100.395 280.188,95 271.602,91.945 264.641,89.48 256.543,87.93 249.145,88.887 c -6.762,0.871 -11.266,2.726 -14.926,5.246 4.437,-1.535 9.422,-2.137 15.23,-1.793 18.696,1.113 32.524,12.769 39.723,24.078 0.125,0.176 -0.313,0.293 -0.438,0.109 -5.98,-9.214 -19.39,-17.714 -33.355,-20.152 -13.719,-2.398 -21.141,0.813 -26.934,6.527 2.184,-0.672 4.446,-1.152 6.516,-1.476 8.809,-1.379 18.363,-0.492 27.168,2.004 21.301,6.074 25.191,29.093 25.969,41.84 0.023,0.406 -0.868,0.371 -0.891,-0.04 -0.672,-8.414 -2.644,-17.144 -8.422,-25.011 -3.73,-5.098 -9.41,-12.063 -17.609,-14.024 -13.297,-3.179 -25.547,-2.828 -35.363,2.356 5.089,-1.328 10.562,-2.328 16.019,-1.785 9.078,0.89 22.363,7.785 28.652,12.714 -20.226,-10.472 -39.222,-5.609 -54.961,-0.761 z" /><path
         id="path42"
         style="fill:#000000;fill-opacity:1;fill-rule:nonzero;stroke:none"
         d="m 125.852,405.32 c 17.007,-21.8 31.968,-45.402 47.851,-68.023 16.457,-23.434 32.399,-47.223 47.047,-71.824 13.238,-22.239 25.934,-45.246 36.965,-68.668 8.957,-18.992 17.812,-42.575 11.98,-63.692 -0.179,-0.652 -1.187,-0.449 -1.031,0.219 5.707,22.938 -7.676,50.461 -17.625,70.41 -11.559,23.207 -24.332,46.067 -37.742,68.25 -13.715,22.676 -28.567,44.664 -43.766,66.379 -15.246,21.785 -31.371,43.266 -43.929,66.793 -0.082,0.16 0.136,0.301 0.25,0.156" /><path
         id="path44"
         style="fill:#000000;fill-opacity:1;fill-rule:nonzero;stroke:none"
         d="m 296.508,234.156 c 4.961,-7.402 12.058,-13.976 17.14,-21.375 5.36,-7.785 9.922,-15.742 13.922,-23.91 3.543,-7.215 6.606,-14.402 8.594,-21.902 1.996,-7.571 4.828,-16.731 3.066,-24.379 -0.07,-0.293 -0.699,-0.25 -0.734,0.035 -2.055,16.539 -6.34,32.016 -13.855,47.793 -3.578,7.512 -7.899,14.777 -12.641,21.965 -4.902,7.41 -11.512,14.168 -16.246,21.59 -0.219,0.332 0.531,0.5 0.754,0.183" /><path
         id="path46"
         style="fill:#000000;fill-opacity:1;fill-rule:nonzero;stroke:none"
         d="m 319.535,190.324 c 4.469,-9.347 8.067,-18.336 9.363,-28.179 0.024,-0.223 -0.488,-0.305 -0.57,-0.079 -1.664,4.907 -2.367,9.926 -4.355,14.778 -1.817,4.441 -4.664,8.734 -5.285,13.363 -0.047,0.352 0.691,0.445 0.847,0.117" /><path
         id="path48"
         style="fill:#000000;fill-opacity:1;fill-rule:nonzero;stroke:none"
         d="m 200.75,647.797 c -10.355,-6.871 -12.055,-22.77 -8.059,-32.867 0.926,-1.133 1.844,-2.258 2.782,-3.375 l 0.386,-0.336 c -5.879,11.726 -2.894,27.551 4.891,36.578 z m 58.293,-45.91 c -11.199,-13.324 -30.266,-19.563 -50.086,-12.961 -20.621,6.867 -27.871,29.332 -23.402,45.769 0.652,2.356 1.59,4.555 2.793,6.535 -14.637,11.098 -54.512,2.602 -64.578,-4.82 -14.895,-10.976 -28.141,-17.816 -20.575,-9.551 8.309,9.075 17.848,17.133 29.207,22.621 5.532,2.676 12.051,4.391 18.684,4.043 -2.383,1.938 -5.66,1.567 -8.316,1.356 -5.45,-0.399 -10.735,-1.723 -15.649,-3.469 -5.168,-1.836 -8.949,-6.101 -13.57,-8.75 -0.524,-0.289 -1.172,0.469 -0.723,0.856 4.223,3.535 7.891,7.89 13.082,10.261 4.953,2.254 10.445,3.532 16.028,4.481 14.394,4.097 45.41,-6.75 52.996,-6.793 -11.625,6.871 -47.516,10.855 -58.969,9.484 -14.098,-1.683 -23.59,-10 -33.391,-18.312 -0.269,-0.227 -0.804,0.172 -0.676,0.519 4.856,12.192 19.356,17.578 32.168,20.813 14.141,3.57 52.215,-1.012 64.758,-12.485 1.094,0.375 2.262,0.582 3.469,0.668 -5.902,4.289 -16.113,8.864 -22.934,11.899 -7.796,3.476 -26.464,8.699 -41.839,7.375 -14.86,-0.485 -27.301,-6.629 -36.465,-16.356 -0.715,-0.746 -2.047,0.266 -1.551,1.2 6.363,12.257 22.992,17.332 37.109,18.816 23.137,1.578 64.961,-9.559 71.489,-24.41 -3.192,-7.153 -5.93,-13.227 -4.707,-22.043 1.367,-9.926 7.738,-16.727 17.777,-19.403 15.258,-4.058 25.777,10.274 31.762,20.329 0.257,0.433 0.968,-0.141 0.754,-0.582 -6.258,-12.629 -17.95,-29.969 -36.829,-22.864 -9.449,3.559 -16.324,10.778 -17.671,20.461 -1.2,8.578 2.394,15.617 6.128,22.18 -16.164,-12.867 -10.359,-46.133 17.247,-48.035 17.414,-1.215 33.945,14.222 37.585,29.324 0.094,0.402 0.739,0.094 0.665,-0.309 -3.809,-19.921 -24.852,-40.125 -46.2,-32.425 -0.746,0.168 -1.441,0.379 -2.144,0.582 19.336,-18.688 46.574,3.996 46.574,3.996 z m -49.988,39.636 c 0.269,0.274 0.777,-0.195 0.695,-0.535 -2.332,-8.922 2.02,-19.371 11.91,-24.629 9.227,-4.906 17.5,3.547 21.824,9.051 0.192,0.25 0.668,-0.101 0.481,-0.371 -5.141,-7.851 -12.738,-17.359 -24.871,-11.391 -9.914,4.891 -17.043,20.887 -10.039,27.875 m 6.668,-5.71 c 1.89,-3.161 1.882,-6.719 4.164,-9.856 3.804,-5.234 9.711,-4.398 13.211,-1.602 0.414,0.344 1.23,-0.417 0.855,-0.82 -2.984,-3.168 -7.269,-6.14 -12.512,-2.754 -5.156,3.332 -8.73,10.035 -6.535,15.102 0.149,0.324 0.59,0.301 0.817,-0.07" /><path
         id="path50"
         style="fill:#000000;fill-opacity:1;fill-rule:nonzero;stroke:none"
         d="m 200.621,306.223 c 23.539,-30.637 62.305,-89.399 71.531,-124.024 2.723,-10.492 6.578,-23.187 4.18,-33.785 -0.098,-0.41 -0.953,-0.348 -1,0.051 -3.762,51.39 -50.496,118.644 -75.738,157.504 -0.293,0.457 0.726,0.691 1.027,0.254" /><path
         id="path52"
         style="fill:#000000;fill-opacity:1;fill-rule:nonzero;stroke:none"
         d="m 67.98,597.492 c 0.86,-12.082 -1.554,-24.957 -0.843,-37.133 0.738,-12.82 2.57,-25.191 5.265,-37.339 2.368,-10.747 5.278,-21.075 9.739,-30.891 4.511,-9.899 9.488,-22.207 18.515,-29.191 0.352,-0.266 1.055,0.281 0.832,0.625 -12.586,19.781 -21.582,40.183 -27.027,63.488 -2.594,11.097 -4.09,22.515 -5.012,34.187 -0.937,12.043 0.735,24.731 -0.414,36.657 -0.043,0.531 -1.078,0.121 -1.055,-0.403" /><path
         id="path54"
         style="fill:#000000;fill-opacity:1;fill-rule:nonzero;stroke:none"
         d="m 80.582,531.027 c 3.203,-13.824 7.113,-26.554 14.523,-38.386 0.176,-0.266 0.856,0.054 0.747,0.367 -2.489,6.711 -6.219,12.777 -8.274,19.687 -1.887,6.321 -2.422,13.305 -5.89,18.879 -0.266,0.422 -1.219,-0.066 -1.106,-0.551" /><path
         id="path56"
         style="fill:#ffffff;fill-opacity:1;fill-rule:nonzero;stroke:none"
         d="m 64.078,519.109 -9.539,24.817 -1.941,-31.266 -25.789,72.774 25.964,66.152 1.946,-42.746 c 1.801,14.668 6.441,23.781 12.011,34.887 z" /><path
         id="path58"
         style="fill:#ffffff;fill-opacity:1;fill-rule:nonzero;stroke:none"
         d="m 333.477,96.035 c 3.968,5.664 7.621,12.121 10.925,19.449 1.317,-7.101 1.555,-17.16 2.282,-25.886 l 25.386,58.488 -25.035,52.051 -1.418,-35.864 c -3.258,10.938 -7.851,20.375 -12.406,29.852 z" /></g></g></svg>