<svg xmlns="http://www.w3.org/2000/svg" viewBox="0 0 200 200" width="200" height="200">
  <!-- Fondo circular -->
  <circle cx="100" cy="100" r="95" fill="#6366f1" opacity="0.1"/>

  <!-- Libro abierto -->
  <g fill="none" stroke="#6366f1" stroke-width="3" stroke-linecap="round" stroke-linejoin="round">
    <path d="M 50 60 Q 75 50 95 60 L 95 130 Q 75 120 50 130 Z"/>
    <path d="M 105 60 Q 125 50 150 60 L 150 130 Q 125 120 105 130 Z"/>
    <line x1="100" y1="55" x2="100" y2="135"/>
  </g>

  <!-- Líneas de contenido -->
  <g stroke="#6366f1" stroke-width="2" opacity="0.45" stroke-linecap="round">
    <line x1="58" y1="77" x2="88" y2="77"/>
    <line x1="58" y1="89" x2="86" y2="89"/>
    <line x1="58" y1="101" x2="83" y2="101"/>
    <line x1="112" y1="77" x2="142" y2="77"/>
    <line x1="114" y1="89" x2="142" y2="89"/>
    <line x1="117" y1="101" x2="142" y2="101"/>
  </g>

  <!-- Bombilla (idea/concepto) -->
  <g fill="none" stroke="#6366f1" stroke-width="3" stroke-linecap="round" stroke-linejoin="round">
    <circle cx="100" cy="142" r="14"/>
    <path d="M 94 156 L 106 156"/>
    <path d="M 95 161 L 105 161"/>
    <line x1="100" y1="128" x2="100" y2="122"/>
    <line x1="88" y1="132" x2="84" y2="128"/>
    <line x1="112" y1="132" x2="116" y2="128"/>
  </g>

  <!-- Texto -->
  <text x="100" y="185" font-family="Arial, sans-serif" font-size="16" text-anchor="middle" fill="#2b2b2b">Teoria</text>
</svg>
