<?xml version="1.0" encoding="UTF-8"?>
<svg xmlns="http://www.w3.org/2000/svg" xmlns:xlink="http://www.w3.org/1999/xlink" width="296pt" height="296pt" viewBox="0 0 296 296" version="1.1">
<defs>
<clipPath id="clip1">
  <path d="M 176 24 L 272 24 L 272 120 L 176 120 Z M 176 24 "/>
</clipPath>
<clipPath id="clip2">
  <path d="M 191.128906 104.851562 C 199.464844 98.964844 210.925781 91.742188 215.46875 92.945312 C 224.453125 95.324219 220.023438 103.925781 220.023438 103.925781 C 222.027344 102.828125 229.617188 97.070312 236.496094 101.25 C 243.277344 105.371094 241.695312 117.328125 226.585938 115.710938 C 232.476562 120.800781 247.429688 122.414062 253.238281 109.417969 C 258.863281 96.828125 249.621094 85.445312 237.03125 84.910156 C 248.28125 84.242188 248.949219 79.015625 248.683594 77.410156 C 248.414062 75.800781 246.941406 70.714844 240.246094 72.855469 C 245.601562 64.550781 250.734375 66.109375 253.90625 66.695312 C 259.546875 67.738281 266.019531 71.628906 270.652344 64.492188 C 274.074219 59.222656 264.546875 38.847656 267.816406 28.164062 C 257.132812 31.4375 236.757812 21.90625 231.488281 25.328125 C 224.351562 29.960938 228.242188 36.433594 229.285156 42.074219 C 229.871094 45.246094 231.429688 50.378906 223.125 55.734375 C 225.269531 49.039062 220.179688 47.566406 218.570312 47.296875 C 216.964844 47.03125 211.742188 47.699219 211.070312 58.949219 C 210.535156 46.359375 199.152344 37.121094 186.5625 42.746094 C 173.566406 48.550781 175.179688 63.503906 180.269531 69.394531 C 178.652344 54.285156 190.609375 52.707031 194.730469 59.488281 C 198.910156 66.363281 193.152344 73.953125 192.054688 75.960938 C 192.054688 75.960938 200.660156 71.527344 203.035156 80.511719 C 204.238281 85.054688 197.015625 96.515625 191.128906 104.851562 Z M 191.128906 104.851562 "/>
</clipPath>
<clipPath id="clip3">
  <rect x="0" y="0" width="7" height="7"/>
</clipPath>
<g id="surface5" clip-path="url(#clip3)">
<path style=" stroke:none;fill-rule:nonzero;fill:rgb(0%,0%,0%);fill-opacity:1;" d="M 0 -3.5 L 3.5 -3.5 L 3.5 10.5 L 0 10.5 Z M 0 -3.5 "/>
</g>
<pattern id="pattern0" patternUnits="userSpaceOnUse" width="7" height="7" patternTransform="matrix(0.635126,0.635126,-0.681084,0.681084,-1.31759,294.30567)">
<use xlink:href="#surface5"/>
</pattern>
</defs>
<g id="surface1">
<path style=" stroke:none;fill-rule:nonzero;fill:rgb(100%,100%,100%);fill-opacity:1;" d="M 231.941406 258.210938 L 244.800781 258.75 L 243.847656 238.5 L 266.09375 231.425781 L 274.53125 225.933594 L 273.226562 221.480469 L 286.109375 209.925781 L 291.601562 202.257812 L 294.441406 1.582031 L 293.730469 2.25 L 294.398438 1.539062 L 93.722656 4.382812 L 86.054688 9.875 L 74.5 22.753906 L 70.046875 21.453125 L 64.554688 29.890625 L 57.480469 52.136719 L 37.234375 51.183594 L 37.769531 64.042969 L 118.382812 177.597656 Z M 231.941406 258.210938 "/>
<path style="fill:none;stroke-width:113.386;stroke-linecap:butt;stroke-linejoin:miter;stroke:rgb(0%,0%,0%);stroke-opacity:1;stroke-miterlimit:4;" d="M 2632.8125 0.195312 L 2632.8125 616.25 C 2502.773438 635.507812 2051.992188 712.851562 2051.992188 1189.296875 C 2051.992188 1600.46875 2420.546875 1740.15625 2651.5625 1664.921875 C 2834.84375 1605.234375 2929.179688 1389.414062 2828.359375 1205.546875 C 2737.265625 1039.492188 2583.085938 1070.234375 2523.007812 1106.445312 C 2436.523438 1158.515625 2412.65625 1277.695312 2465.390625 1350.195312 C 2543.476562 1457.460938 2651.5625 1395.742188 2651.5625 1395.742188 L 2651.5625 2145.742188 L 2839.0625 2145.742188 L 2839.0625 2839.257812 L 2145.546875 2839.257812 L 2145.546875 2651.757812 L 1395.546875 2651.757812 C 1395.546875 2651.757812 1457.265625 2543.671875 1350 2465.585938 C 1277.5 2412.8125 1158.320312 2436.71875 1106.25 2523.164062 C 1070.039062 2583.28125 1039.296875 2737.460938 1205.351562 2828.515625 C 1389.21875 2929.375 1605.039062 2835 1664.726562 2651.757812 C 1739.960938 2420.742188 1600.273438 2052.148438 1189.101562 2052.148438 C 712.65625 2052.148438 635.351562 2502.96875 616.054688 2632.96875 L 0 2632.96875 " transform="matrix(0.1,0,0,-0.1,0,296)"/>
<path style=" stroke:none;fill-rule:nonzero;fill:rgb(0%,0%,0%);fill-opacity:1;" d="M 262.628906 141.832031 C 263.519531 141.632812 262.96875 138.257812 265.386719 137.871094 C 272.082031 136.796875 283.402344 135.679688 285.398438 124.234375 C 287.253906 113.585938 280.558594 108.179688 273.984375 106.40625 C 279.058594 100.019531 288.652344 101.835938 293.589844 109.734375 C 301.976562 123.148438 287.523438 147.691406 262.628906 141.832031 Z M 154.148438 33.355469 C 154.347656 32.464844 157.722656 33.015625 158.109375 30.597656 C 159.183594 23.902344 160.300781 12.578125 171.746094 10.585938 C 182.394531 8.726562 187.800781 15.421875 189.574219 21.996094 C 195.964844 16.925781 194.144531 7.332031 186.246094 2.394531 C 172.832031 -5.996094 148.289062 8.460938 154.148438 33.355469 Z M 154.148438 33.355469 "/>
<path style=" stroke:none;fill-rule:nonzero;fill:rgb(0%,0%,0%);fill-opacity:1;" d="M 272.488281 212.527344 C 275.929688 218.703125 280.386719 221.777344 286.101562 221 C 285.015625 232.265625 270.410156 230.546875 264.199219 221.078125 C 255.960938 208.515625 267.714844 190.355469 278.992188 187.71875 C 273.6875 192.140625 268.425781 204.316406 272.488281 212.527344 Z M 83.453125 23.492188 C 77.277344 20.054688 74.203125 15.59375 74.980469 9.878906 C 63.714844 10.96875 65.4375 25.574219 74.90625 31.785156 C 87.464844 40.023438 105.625 28.265625 108.261719 16.988281 C 103.839844 22.296875 91.664062 27.558594 83.453125 23.492188 Z M 83.453125 23.492188 "/>
<path style="fill:none;stroke-width:42.5197;stroke-linecap:butt;stroke-linejoin:miter;stroke:rgb(0%,0%,0%);stroke-opacity:1;stroke-miterlimit:10.7;" d="M 2364.84375 10.3125 L 2364.84375 385.3125 C 2364.84375 421.835938 2360.078125 492.109375 2430.195312 490.429688 C 2490.585938 489.882812 2499.6875 424.335938 2469.023438 392.890625 C 2444.804688 368.085938 2386.054688 355.507812 2308.007812 384.375 C 2220.742188 416.679688 1972.382812 547.265625 1878.085938 849.375 C 1780.15625 1162.890625 1848.59375 1383.28125 1893.242188 1491.445312 C 1929.960938 1580.46875 1998.28125 1694.335938 2116.71875 1821.015625 C 2073.164062 1862.65625 2075.039062 1910.039062 2075.039062 1910.039062 C 2014.21875 1886.757812 1887.8125 1752.460938 1852.460938 1688.203125 C 1827.539062 1642.890625 1776.757812 1545.273438 1830.234375 1472.5 C 1865.273438 1424.804688 1955.546875 1387.8125 2010.664062 1455.9375 C 2057.539062 1513.90625 2034.0625 1602.382812 1950.039062 1637.265625 C 1872.734375 1669.375 1721.992188 1659.53125 1520.664062 1520.859375 C 1659.375 1722.1875 1669.179688 1872.929688 1637.109375 1950.234375 C 1602.226562 2034.257812 1513.710938 2057.734375 1455.742188 2010.820312 C 1387.617188 1955.742188 1424.648438 1865.46875 1472.304688 1830.429688 C 1545.078125 1776.953125 1642.734375 1827.695312 1688.046875 1852.617188 C 1752.265625 1887.96875 1886.5625 2014.375 1909.84375 2075.234375 C 1909.84375 2075.234375 1862.5 2073.320312 1820.820312 2116.914062 C 1694.179688 1998.4375 1580.273438 1930.117188 1491.25 1893.398438 C 1383.085938 1848.789062 1162.695312 1780.351562 849.179688 1878.242188 C 547.070312 1972.578125 416.484375 2220.898438 384.179688 2308.164062 C 355.3125 2386.210938 367.890625 2444.960938 392.695312 2469.179688 C 424.140625 2499.84375 489.6875 2490.742188 490.273438 2430.351562 C 491.914062 2360.234375 421.640625 2365 385.117188 2365 L 10.117188 2365 " transform="matrix(0.1,0,0,-0.1,0,296)"/>
<path style="fill:none;stroke-width:42.5197;stroke-linecap:butt;stroke-linejoin:miter;stroke:rgb(0%,0%,0%);stroke-opacity:1;stroke-miterlimit:4;" d="M 2879.257812 6.875 L 2879.257812 882.773438 C 2879.257812 882.773438 2662.265625 789.023438 2517.65625 849.296875 C 2355.585938 914.921875 2273.476562 1025.3125 2258.75 1160.585938 C 2243.984375 1295.820312 2302.617188 1407.148438 2344.140625 1450 C 2385.664062 1492.851562 2448.085938 1554.882812 2600.664062 1554.882812 C 2654.765625 1554.882812 2682.070312 1557.265625 2682.070312 1557.265625 M 6.679688 2879.414062 L 882.578125 2879.414062 C 882.578125 2879.414062 788.828125 2662.460938 849.101562 2517.8125 C 914.726562 2355.742188 1025.117188 2273.632812 1160.390625 2258.90625 C 1295.664062 2244.179688 1406.953125 2302.8125 1449.804688 2344.335938 C 1492.65625 2385.859375 1554.6875 2448.28125 1554.6875 2600.820312 C 1554.6875 2654.960938 1557.070312 2682.265625 1557.070312 2682.265625 " transform="matrix(0.1,0,0,-0.1,0,296)"/>
<g clip-path="url(#clip1)" clip-rule="nonzero">
<g clip-path="url(#clip2)" clip-rule="nonzero">
<path style=" stroke:none;fill-rule:nonzero;fill:url(#pattern0);" d="M 173.566406 122.414062 L 274.074219 122.414062 L 274.074219 21.90625 L 173.566406 21.90625 Z M 173.566406 122.414062 "/>
</g>
</g>
<path style="fill:none;stroke-width:34.0158;stroke-linecap:butt;stroke-linejoin:miter;stroke:rgb(0%,0%,0%);stroke-opacity:1;stroke-miterlimit:12;" d="M 1911.289062 1911.484375 C 1994.648438 1970.351562 2109.257812 2042.578125 2154.6875 2030.546875 C 2244.53125 2006.757812 2200.234375 1920.742188 2200.234375 1920.742188 C 2220.273438 1931.71875 2296.171875 1989.296875 2364.960938 1947.5 C 2432.773438 1906.289062 2416.953125 1786.71875 2265.859375 1802.890625 C 2324.765625 1751.992188 2474.296875 1735.859375 2532.382812 1865.820312 C 2588.632812 1991.71875 2496.210938 2105.546875 2370.3125 2110.898438 C 2482.8125 2117.578125 2489.492188 2169.84375 2486.835938 2185.898438 C 2484.140625 2201.992188 2469.414062 2252.851562 2402.460938 2231.445312 C 2456.015625 2314.492188 2507.34375 2298.90625 2539.0625 2293.046875 C 2595.46875 2282.617188 2660.195312 2243.710938 2706.523438 2315.078125 C 2740.742188 2367.773438 2645.46875 2571.523438 2678.164062 2678.359375 C 2571.328125 2645.625 2367.578125 2740.9375 2314.882812 2706.71875 C 2243.515625 2660.390625 2282.421875 2595.664062 2292.851562 2539.257812 C 2298.710938 2507.539062 2314.296875 2456.210938 2231.25 2402.65625 C 2252.695312 2469.609375 2201.796875 2484.335938 2185.703125 2487.03125 C 2169.648438 2489.6875 2117.421875 2483.007812 2110.703125 2370.507812 C 2105.351562 2496.40625 1991.523438 2588.789062 1865.625 2532.539062 C 1735.664062 2474.492188 1751.796875 2324.960938 1802.695312 2266.054688 C 1786.523438 2417.148438 1906.09375 2432.929688 1947.304688 2365.117188 C 1989.101562 2296.367188 1931.523438 2220.46875 1920.546875 2200.390625 C 1920.546875 2200.390625 2006.601562 2244.726562 2030.351562 2154.882812 C 2042.382812 2109.453125 1970.15625 1994.84375 1911.289062 1911.484375 Z M 1911.289062 1911.484375 " transform="matrix(0.1,0,0,-0.1,0,296)"/>
<path style=" stroke:none;fill-rule:nonzero;fill:rgb(0%,0%,0%);fill-opacity:1;" d="M 152.066406 143.914062 C 152.070312 143.914062 176.496094 124.015625 178.640625 123.480469 C 178.382812 121.566406 178.007812 119.714844 177.683594 118.300781 C 176.265625 117.976562 174.414062 117.597656 172.5 117.34375 C 171.964844 119.484375 152.070312 143.910156 152.066406 143.914062 Z M 152.066406 143.914062 "/>
<path style="fill:none;stroke-width:42.5197;stroke-linecap:butt;stroke-linejoin:miter;stroke:rgb(0%,0%,0%);stroke-opacity:1;stroke-miterlimit:4;" d="M 2323.4375 993.945312 C 2323.4375 993.945312 2234.765625 1200.703125 2071.640625 1235 C 1908.554688 1269.296875 1806.523438 1243.398438 1734.140625 1181.445312 C 1622.265625 1085.664062 1589.960938 965.546875 1605.585938 861.367188 C 1616.09375 791.210938 1665.742188 671.601562 1798.4375 648.398438 C 1935.742188 624.375 2005.390625 729.257812 2020.78125 797.070312 C 2039.179688 878.359375 1995.3125 945.742188 1949.765625 975.195312 C 1904.257812 1004.648438 1808.90625 1005.117188 1764.960938 928.320312 C 1746.09375 895.3125 1727.460938 809.140625 1811.835938 758.242188 M 993.75 2323.59375 C 993.75 2323.59375 1200.546875 2234.921875 1234.84375 2071.835938 C 1269.140625 1908.75 1243.203125 1806.679688 1181.25 1734.335938 C 1085.46875 1622.460938 965.351562 1590.117188 861.171875 1605.742188 C 791.054688 1616.289062 671.445312 1665.9375 648.242188 1798.59375 C 624.21875 1935.898438 729.0625 2005.546875 796.875 2020.9375 C 878.164062 2039.375 945.546875 1995.46875 975 1949.960938 C 1004.492188 1904.414062 1004.960938 1809.101562 928.125 1765.117188 C 895.15625 1746.25 808.945312 1727.617188 758.046875 1811.992188 " transform="matrix(0.1,0,0,-0.1,0,296)"/>
<path style=" stroke:none;fill-rule:nonzero;fill:rgb(0%,0%,0%);fill-opacity:1;" d="M 179.664062 221.671875 C 179.664062 221.671875 180.988281 222.902344 183.828125 222.996094 C 181.652344 214.945312 182.507812 210.144531 186.574219 207.085938 C 190.253906 204.324219 196.953125 203.351562 201.347656 208.222656 C 198.792969 201.78125 193.394531 197.332031 193.394531 197.332031 L 180.324219 198.375 L 174.738281 208.316406 L 178.335938 217.976562 Z M 74.3125 116.320312 C 74.3125 116.320312 73.082031 114.996094 72.984375 112.152344 C 81.035156 114.332031 85.835938 113.476562 88.894531 109.40625 C 91.660156 105.730469 92.628906 99.03125 87.757812 94.632812 C 94.199219 97.191406 98.648438 102.589844 98.648438 102.589844 L 97.609375 115.65625 L 87.664062 121.246094 L 78.003906 117.644531 Z M 74.3125 116.320312 "/>
<path style=" stroke:none;fill-rule:nonzero;fill:rgb(0%,0%,0%);fill-opacity:1;" d="M 171.421875 182.464844 C 167.65625 184.902344 164.128906 200.898438 171.328125 205.761719 C 165.835938 206.707031 161.101562 201.78125 161.101562 201.78125 L 165.742188 186.25 Z M 113.519531 124.558594 C 111.078125 128.328125 95.082031 131.855469 90.222656 124.652344 C 89.273438 130.148438 94.199219 134.882812 94.199219 134.882812 L 109.730469 130.242188 Z M 113.519531 124.558594 "/>
<path style=" stroke:none;fill-rule:nonzero;fill:rgb(0%,0%,0%);fill-opacity:1;" d="M 169.246094 228.203125 C 169.246094 228.203125 178.175781 234.222656 176.804688 242.378906 C 175.585938 249.621094 169.054688 253.488281 169.054688 253.488281 C 174.738281 255.289062 183.085938 251.511719 184.585938 245.914062 C 186.035156 240.523438 183.703125 234.851562 175.984375 231.425781 Z M 67.777344 126.738281 C 67.777344 126.738281 61.757812 117.804688 53.601562 119.179688 C 46.363281 120.398438 42.492188 126.925781 42.492188 126.925781 C 40.691406 121.246094 44.46875 112.898438 50.066406 111.394531 C 55.460938 109.949219 61.128906 112.28125 64.554688 119.996094 Z M 67.777344 126.738281 "/>
<path style=" stroke:none;fill-rule:nonzero;fill:rgb(0%,0%,0%);fill-opacity:1;" d="M 228.71875 180.757812 C 223.488281 180.757812 219.25 185 219.25 190.230469 C 219.25 195.460938 223.488281 199.699219 228.71875 199.699219 C 233.949219 199.699219 238.1875 195.460938 238.1875 190.230469 C 238.1875 185 233.949219 180.757812 228.71875 180.757812 Z M 115.222656 67.265625 C 115.222656 72.496094 110.980469 76.734375 105.753906 76.734375 C 100.523438 76.734375 96.28125 72.496094 96.28125 67.265625 C 96.28125 62.035156 100.523438 57.792969 105.75 57.792969 C 110.980469 57.792969 115.222656 62.035156 115.222656 67.265625 Z M 115.222656 67.265625 "/>
<path style=" stroke:none;fill-rule:nonzero;fill:rgb(0%,0%,0%);fill-opacity:1;" d="M 229.855469 76.964844 C 229.855469 82.195312 225.613281 86.4375 220.382812 86.4375 C 215.15625 86.4375 210.914062 82.195312 210.914062 76.964844 C 210.914062 71.734375 215.15625 67.496094 220.382812 67.496094 C 225.613281 67.496094 229.855469 71.734375 229.855469 76.964844 Z M 229.855469 76.964844 "/>
<path style=" stroke:none;fill-rule:nonzero;fill:rgb(0%,0%,0%);fill-opacity:1;" d="M 189.449219 111.292969 C 189.449219 114.230469 187.066406 116.613281 184.128906 116.613281 C 181.191406 116.613281 178.8125 114.230469 178.8125 111.292969 C 178.8125 108.355469 181.191406 105.976562 184.128906 105.976562 C 187.066406 105.976562 189.449219 108.355469 189.449219 111.292969 Z M 189.449219 111.292969 "/>
</g>
</svg>
