<?xml version="1.0" encoding="us-ascii" standalone="no"?><svg xmlns="http://www.w3.org/2000/svg" xmlns:xlink="http://www.w3.org/1999/xlink" contentStyleType="text/css" height="771px" preserveAspectRatio="none" style="width:608px;height:771px;background:#FFFFFF;" version="1.1" viewBox="0 0 608 771" width="608px" zoomAndPan="magnify"><defs/><g><rect fill="#F1F1F1" height="36.2969" rx="12.5" ry="12.5" style="stroke:#181818;stroke-width:1.5;" width="85" x="10" y="366.6719"/><text fill="#000000" font-family="sans-serif" font-size="14" x="20" y="389.667">Requisito</text><rect fill="#F1F1F1" height="52.5938" rx="12.5" ry="12.5" style="stroke:#181818;stroke-width:1.5;" width="141" x="145" y="20"/><text fill="#000000" font-family="sans-serif" font-size="14" x="155" y="42.9951">Requisito general</text><text fill="#000000" font-family="sans-serif" font-size="14" x="155" y="59.292">(objetivo)</text><path d="M95,384.8203 L105,384.8203 C120,384.8203 120,46.2969 135,46.2969 L145,46.2969 " fill="none" style="stroke:#181818;stroke-width:1.0;"/><rect fill="#F1F1F1" height="52.5938" rx="12.5" ry="12.5" style="stroke:#181818;stroke-width:1.5;" width="93" x="145" y="394.8203"/><text fill="#000000" font-family="sans-serif" font-size="14" x="155" y="417.8154">Requisito</text><text fill="#000000" font-family="sans-serif" font-size="14" x="155" y="434.1123">(detallado)</text><rect fill="#F1F1F1" height="36.2969" rx="12.5" ry="12.5" style="stroke:#181818;stroke-width:1.5;" width="151" x="288" y="229.6328"/><text fill="#000000" font-family="sans-serif" font-size="14" x="298" y="252.6279">Requisito funcional</text><rect fill="#F1F1F1" height="52.5938" rx="12.5" ry="12.5" style="stroke:#181818;stroke-width:1.5;" width="107" x="489" y="92.5938"/><text fill="#000000" font-family="sans-serif" font-size="14" x="499" y="115.5889">Requisito de</text><text fill="#000000" font-family="sans-serif" font-size="14" x="499" y="131.8857">informaci&#243;n</text><path d="M439,247.7813 L449,247.7813 C464,247.7813 464,118.8906 479,118.8906 L489,118.8906 " fill="none" style="stroke:#181818;stroke-width:1.0;"/><rect fill="#F1F1F1" height="52.5938" rx="12.5" ry="12.5" style="stroke:#181818;stroke-width:1.5;" width="81" x="489" y="165.1875"/><text fill="#000000" font-family="sans-serif" font-size="14" x="499" y="188.1826">Regla de</text><text fill="#000000" font-family="sans-serif" font-size="14" x="499" y="204.4795">negocio</text><path d="M439,247.7813 L449,247.7813 C464,247.7813 464,191.4844 479,191.4844 L489,191.4844 " fill="none" style="stroke:#181818;stroke-width:1.0;"/><rect fill="#F1F1F1" height="52.5938" rx="12.5" ry="12.5" style="stroke:#181818;stroke-width:1.5;" width="107" x="489" y="237.7813"/><text fill="#000000" font-family="sans-serif" font-size="14" x="499" y="260.7764">Requisito de</text><text fill="#000000" font-family="sans-serif" font-size="14" x="499" y="277.0732">interfaz</text><path d="M439,247.7813 L449,247.7813 C464,247.7813 464,264.0781 479,264.0781 L489,264.0781 " fill="none" style="stroke:#181818;stroke-width:1.0;"/><rect fill="#F1F1F1" height="36.2969" rx="12.5" ry="12.5" style="stroke:#181818;stroke-width:1.5;" width="107" x="489" y="310.375"/><text fill="#000000" font-family="sans-serif" font-size="14" x="499" y="333.3701">Caso de uso</text><path d="M439,247.7813 L449,247.7813 C464,247.7813 464,328.5234 479,328.5234 L489,328.5234 " fill="none" style="stroke:#181818;stroke-width:1.0;"/><rect fill="#F1F1F1" height="36.2969" rx="12.5" ry="12.5" style="stroke:#181818;stroke-width:1.5;" width="32" x="489" y="366.6719"/><text fill="#000000" font-family="sans-serif" font-size="14" x="499" y="389.667">...</text><path d="M439,247.7813 L449,247.7813 C464,247.7813 464,384.8203 479,384.8203 L489,384.8203 " fill="none" style="stroke:#181818;stroke-width:1.0;"/><path d="M238,421.1172 L248,421.1172 C263,421.1172 263,247.7813 278,247.7813 L288,247.7813 " fill="none" style="stroke:#181818;stroke-width:1.0;"/><rect fill="#F1F1F1" height="52.5938" rx="12.5" ry="12.5" style="stroke:#181818;stroke-width:1.5;" width="107" x="288" y="560.0078"/><text fill="#000000" font-family="sans-serif" font-size="14" x="298" y="583.0029">Requisito no</text><text fill="#000000" font-family="sans-serif" font-size="14" x="298" y="599.2998">funcional</text><rect fill="#F1F1F1" height="52.5938" rx="12.5" ry="12.5" style="stroke:#181818;stroke-width:1.5;" width="107" x="445" y="422.9688"/><text fill="#000000" font-family="sans-serif" font-size="14" x="455" y="445.9639">Requisito de</text><text fill="#000000" font-family="sans-serif" font-size="14" x="455" y="462.2607">usabilidad</text><path d="M395,586.3047 L405,586.3047 C420,586.3047 420,449.2656 435,449.2656 L445,449.2656 " fill="none" style="stroke:#181818;stroke-width:1.0;"/><rect fill="#F1F1F1" height="52.5938" rx="12.5" ry="12.5" style="stroke:#181818;stroke-width:1.5;" width="107" x="445" y="495.5625"/><text fill="#000000" font-family="sans-serif" font-size="14" x="455" y="518.5576">Requisito de</text><text fill="#000000" font-family="sans-serif" font-size="14" x="455" y="534.8545">seguridad</text><path d="M395,586.3047 L405,586.3047 C420,586.3047 420,521.8594 435,521.8594 L445,521.8594 " fill="none" style="stroke:#181818;stroke-width:1.0;"/><rect fill="#F1F1F1" height="52.5938" rx="12.5" ry="12.5" style="stroke:#181818;stroke-width:1.5;" width="107" x="445" y="568.1563"/><text fill="#000000" font-family="sans-serif" font-size="14" x="455" y="591.1514">Requisito de</text><text fill="#000000" font-family="sans-serif" font-size="14" x="455" y="607.4482">fiabilidad</text><path d="M395,586.3047 L405,586.3047 C420,586.3047 420,594.4531 435,594.4531 L445,594.4531 " fill="none" style="stroke:#181818;stroke-width:1.0;"/><rect fill="#F1F1F1" height="52.5938" rx="12.5" ry="12.5" style="stroke:#181818;stroke-width:1.5;" width="97" x="445" y="640.75"/><text fill="#000000" font-family="sans-serif" font-size="14" x="455" y="663.7451">Restricci&#243;n</text><text fill="#000000" font-family="sans-serif" font-size="14" x="455" y="680.042">t&#233;cnica</text><path d="M395,586.3047 L405,586.3047 C420,586.3047 420,667.0469 435,667.0469 L445,667.0469 " fill="none" style="stroke:#181818;stroke-width:1.0;"/><rect fill="#F1F1F1" height="36.2969" rx="12.5" ry="12.5" style="stroke:#181818;stroke-width:1.5;" width="32" x="445" y="713.3438"/><text fill="#000000" font-family="sans-serif" font-size="14" x="455" y="736.3389">...</text><path d="M395,586.3047 L405,586.3047 C420,586.3047 420,731.4922 435,731.4922 L445,731.4922 " fill="none" style="stroke:#181818;stroke-width:1.0;"/><path d="M238,421.1172 L248,421.1172 C263,421.1172 263,586.3047 278,586.3047 L288,586.3047 " fill="none" style="stroke:#181818;stroke-width:1.0;"/><path d="M95,384.8203 L105,384.8203 C120,384.8203 120,421.1172 135,421.1172 L145,421.1172 " fill="none" style="stroke:#181818;stroke-width:1.0;"/><!--SRC=[xP7DJkD048JlynHz8q722Y4Wv5Eq0LRA9W91mYcNjgVjxTMu9yoFfTqRZyEPHyYBCGb41CHovSBH_LMLQrH37z25XaKtk5HxiBftXJMW2HpTHVOSh8SE-S36WkU63Jf0C0Z1eL_Yix8YHr8oTfNQX-kjKUtlV41DGWxDGZgs-4E1Mzjz8qX0Kq1ZK6_8hhUAATqAclLz5sXQ24jbNOCbhnvbosk36oPKs-Jys1R8LVZlcOtGhyyG_Oiuox9t9IHL_BH8z5YmOOtw8-gfZkv_iEBtLXySbvitBIIi7ahX4b-RgI6bnLvMKyCt8tvFy0KJN1cKC9zEe2NdKpqupFgz_Y0xwin-HxYW0WwFeT_B1xsyTmoZynciSLTrVbvDsZvu6rr9e7dzpoA6bD1LOsmHhgC4RYY7ooN9-EpNzW3dqhApqf04DRwTlWfE1WS_EC0DkTG5RgVgZ2gC9YH7QJLBdSDyTd5mgYOeTSGwPPEeaKsvxcyE4erv0W00]--></g></svg>