<?xml version="1.0" encoding="UTF-8"?>
<svg xmlns="http://www.w3.org/2000/svg" xmlns:xlink="http://www.w3.org/1999/xlink" width="90.214386pt" height="90.221062pt" viewBox="0 0 90.214386 90.221062" version="1.1">
<defs>
<clipPath id="clip1">
  <path d="M 36 12 L 90.214844 12 L 90.214844 90.222656 L 36 90.222656 Z M 36 12 "/>
</clipPath>
<clipPath id="clip2">
  <path d="M 48 0 L 90.214844 0 L 90.214844 42 L 48 42 Z M 48 0 "/>
</clipPath>
<clipPath id="clip3">
  <path d="M 0 0 L 90.214844 0 L 90.214844 55 L 0 55 Z M 0 0 "/>
</clipPath>
<clipPath id="clip4">
  <path d="M 44 9 L 90.214844 9 L 90.214844 90.222656 L 44 90.222656 Z M 44 9 "/>
</clipPath>
<clipPath id="clip5">
  <path d="M 41 15 L 90.214844 15 L 90.214844 90.222656 L 41 90.222656 Z M 41 15 "/>
</clipPath>
<clipPath id="clip6">
  <path d="M 50 0 L 90.214844 0 L 90.214844 35 L 50 35 Z M 50 0 "/>
</clipPath>
</defs>
<g id="surface1">
<path style="fill:none;stroke-width:2.451969;stroke-linecap:butt;stroke-linejoin:miter;stroke:rgb(0%,0%,0%);stroke-opacity:1;stroke-miterlimit:4;" d="M 0 8.371094 L 50.8125 8.371094 C 54.296875 8.371094 62.277344 11.109375 65.664062 16.894531 M 67.203125 23.367188 C 65.984375 33.867188 62.953125 44.324219 51.890625 44.792969 "/>
<g clip-path="url(#clip1)" clip-rule="nonzero">
<path style="fill:none;stroke-width:1.885039;stroke-linecap:butt;stroke-linejoin:miter;stroke:rgb(0%,0%,0%);stroke-opacity:1;stroke-miterlimit:4;" d="M 81.898438 90.214844 L 81.898438 41.199219 C 81.898438 33.542969 78.945312 29.234375 76.261719 26.617188 C 75.359375 25.738281 74.886719 24.921875 73.519531 24.246094 M 67.640625 22.953125 C 65.636719 22.90625 63.242188 23.230469 60.351562 24.097656 C 55.050781 25.6875 49.273438 29.089844 46.714844 33.460938 "/>
</g>
<g clip-path="url(#clip2)" clip-rule="nonzero">
<path style=" stroke:none;fill-rule:nonzero;fill:rgb(100%,100%,100%);fill-opacity:1;" d="M 48.75 0 L 90.078125 0.136719 L 90.214844 41.464844 L 89.453125 38.132812 L 86.402344 40.230469 L 85.917969 38.0625 L 83.730469 41.507812 L 83.144531 38.058594 L 81.515625 33.773438 L 76.375 13.839844 L 56.441406 8.699219 L 52.15625 7.070312 L 48.707031 6.484375 L 52.152344 4.296875 L 49.984375 3.808594 L 52.082031 0.761719 Z M 48.75 0 "/>
</g>
<path style="fill:none;stroke-width:1.417323;stroke-linecap:butt;stroke-linejoin:miter;stroke:rgb(0%,0%,0%);stroke-opacity:1;stroke-miterlimit:4;" d="M 0 1.152344 L 48.46875 1.152344 C 56.71875 1.152344 69.75 5.464844 72.28125 15.683594 C 74.8125 25.902344 73.875 35.089844 65.71875 44.746094 C 57.5625 54.402344 46.136719 52.585938 42.28125 48.214844 C 37.058594 42.304688 35.25 30.027344 49.78125 21.214844 C 55.632812 17.667969 61.511719 16.613281 66.660156 16.894531 M 67.582031 22.511719 C 65.308594 22.324219 62.375 22.871094 60.28125 23.371094 C 53.90625 24.90625 46.359375 29.710938 45.1875 35.980469 C 44.742188 38.351562 44.28125 47.546875 55.3125 45.214844 C 64.867188 43.199219 69.433594 25.648438 67.125 18.402344 C 65.890625 14.53125 60.65625 7.527344 48.9375 7.527344 L 0 7.527344 "/>
<path style=" stroke:none;fill-rule:nonzero;fill:rgb(100%,100%,100%);fill-opacity:1;" d="M 55.023438 18.453125 C 55.695312 17.339844 56.398438 16.316406 57.105469 15.378906 C 61.117188 10.046875 67.800781 2.382812 78.144531 2.449219 C 88.484375 2.515625 89.667969 10.265625 88.515625 16.820312 C 87.976562 19.871094 86.335938 23.210938 84.601562 25.734375 C 83.675781 23.914062 83.582031 23.679688 80.835938 20.976562 C 85.234375 14.71875 83.539062 10.375 81.980469 9.066406 C 76.238281 4.234375 67.894531 10.796875 62.792969 16.902344 C 61.0625 16.882812 58 17.4375 55.023438 18.453125 Z M 49.480469 40.625 C 43.914062 40.203125 38.390625 38.464844 33.371094 34.871094 C 22.632812 27.179688 16.179688 15.703125 10.699219 15.378906 C 6.386719 15.125 5.199219 18.894531 5.199219 18.894531 C 5.199219 18.894531 2.570312 10.359375 8.988281 8.339844 C 14.636719 6.5625 17.707031 10.574219 18.589844 11.871094 C 19.15625 9.863281 20.605469 8.203125 22.632812 7.890625 C 24.410156 7.613281 27.09375 7.910156 28.167969 11.929688 C 29.484375 8.808594 31.171875 8.496094 33.015625 8.546875 C 35.066406 8.597656 37.0625 9.4375 38.066406 11.925781 C 39.386719 8.703125 45.902344 6.03125 49.214844 9.8125 C 52.53125 13.589844 51.46875 17.898438 50.34375 18.960938 C 47.824219 15.378906 42.085938 15.917969 39.667969 20.019531 C 37.828125 23.144531 38.097656 28.988281 43.515625 31.886719 C 48.582031 34.597656 61.554688 37.917969 74.140625 27.84375 C 74.882812 27.246094 75.773438 26.460938 76.410156 25.878906 C 78.453125 27.757812 79.097656 28.914062 80.042969 30.679688 C 76.765625 33.574219 72.679688 35.894531 67.976562 37.71875 C 60.636719 40.566406 57.371094 40.71875 49.480469 40.625 Z M 49.480469 40.625 "/>
<g clip-path="url(#clip3)" clip-rule="nonzero">
<path style="fill:none;stroke-width:1.417323;stroke-linecap:round;stroke-linejoin:miter;stroke:rgb(0%,0%,0%);stroke-opacity:1;stroke-miterlimit:6.9;" d="M 55.023438 18.453125 C 55.695312 17.339844 56.398438 16.316406 57.105469 15.378906 C 61.117188 10.046875 67.800781 2.382812 78.144531 2.449219 C 88.484375 2.515625 89.667969 10.265625 88.515625 16.820312 C 87.976562 19.871094 86.335938 23.210938 84.601562 25.734375 C 83.675781 23.914062 83.582031 23.679688 80.835938 20.976562 C 85.234375 14.71875 83.539062 10.375 81.980469 9.066406 C 76.238281 4.234375 67.894531 10.796875 62.792969 16.902344 C 61.0625 16.882812 58 17.4375 55.023438 18.453125 Z M 49.480469 40.625 C 43.914062 40.203125 38.390625 38.464844 33.371094 34.871094 C 22.632812 27.179688 16.179688 15.703125 10.699219 15.378906 C 6.386719 15.125 5.199219 18.894531 5.199219 18.894531 C 5.199219 18.894531 2.570312 10.359375 8.988281 8.339844 C 14.636719 6.5625 17.707031 10.574219 18.589844 11.871094 C 19.15625 9.863281 20.605469 8.203125 22.632812 7.890625 C 24.410156 7.613281 27.09375 7.910156 28.167969 11.929688 C 29.484375 8.808594 31.171875 8.496094 33.015625 8.546875 C 35.066406 8.597656 37.0625 9.4375 38.066406 11.925781 C 39.386719 8.703125 45.902344 6.03125 49.214844 9.8125 C 52.53125 13.589844 51.46875 17.898438 50.34375 18.960938 C 47.824219 15.378906 42.085938 15.917969 39.667969 20.019531 C 37.828125 23.144531 38.097656 28.988281 43.515625 31.886719 C 48.582031 34.597656 61.554688 37.917969 74.140625 27.84375 C 74.882812 27.246094 75.773438 26.460938 76.410156 25.878906 C 78.453125 27.757812 79.097656 28.914062 80.042969 30.679688 C 76.765625 33.574219 72.679688 35.894531 67.976562 37.71875 C 60.636719 40.566406 57.371094 40.71875 49.480469 40.625 Z M 49.480469 40.625 "/>
</g>
<g clip-path="url(#clip4)" clip-rule="nonzero">
<path style="fill:none;stroke-width:1.417323;stroke-linecap:butt;stroke-linejoin:miter;stroke:rgb(0%,0%,0%);stroke-opacity:1;stroke-miterlimit:4;" d="M -90.186148 -89.060308 L -41.717398 -89.060317 C -36.06896 -89.062403 -28.178986 -87.040329 -22.949986 -82.483957 C -22.828926 -82.378449 -17.740674 -77.43931 -17.386675 -72.876696 M -51.721371 -52.481509 C -51.621967 -57.907258 -48.635626 -64.007858 -40.407455 -69.001301 C -39.13377 -69.770422 -37.864028 -70.422356 -36.598227 -70.968823 M -22.603185 -67.706502 C -24.880468 -67.894735 -27.814237 -67.348806 -29.904245 -66.841667 C -30.744152 -66.642718 -31.60361 -66.385183 -32.463086 -66.07296 M -23.648231 -73.38262 C -24.311783 -74.964865 -25.174647 -76.262018 -27.892694 -78.442581 C -30.829435 -80.798996 -35.164764 -82.687112 -41.250701 -82.689072 L -90.188202 -82.685309 " transform="matrix(0.000322205,-1,-1,-0.000322205,0,0)"/>
</g>
<path style=" stroke:none;fill-rule:nonzero;fill:rgb(100%,100%,100%);fill-opacity:1;" d="M 52.359375 51.824219 C 53.167969 53.515625 54.152344 55.1875 55.328125 56.832031 C 63.015625 67.574219 74.488281 74.03125 74.8125 79.511719 C 75.066406 83.824219 71.296875 85.011719 71.296875 85.011719 C 71.296875 85.011719 78.679688 88.96875 81.847656 81.226562 C 83.75 76.589844 80.78125 72.71875 78.292969 71.691406 C 80.882812 71.03125 82.015625 69.574219 82.304688 67.582031 C 82.5625 65.796875 82.007812 63.4375 78.328125 62.242188 C 82.566406 60.933594 82.511719 58.152344 82.449219 57.152344 C 82.34375 55.429688 81.28125 53.363281 78.367188 52.265625 C 81.648438 50.910156 84.167969 44.3125 80.390625 41 C 76.613281 37.683594 72.304688 38.742188 71.242188 39.867188 C 74.824219 42.386719 74.28125 48.125 70.179688 50.539062 C 67.703125 52 63.511719 52.132812 60.441406 49.421875 C 58.410156 50.816406 53.558594 51.78125 52.359375 51.824219 Z M 57.320312 44.375 C 55.726562 39.777344 54.96875 32.203125 58.320312 24.007812 C 54.582031 25.261719 53.652344 26.148438 50.734375 27.953125 C 49.21875 33.734375 48.8125 39.628906 50.121094 45.386719 C 53.113281 45.941406 55.605469 45.15625 57.320312 44.375 Z M 57.320312 44.375 "/>
<g clip-path="url(#clip5)" clip-rule="nonzero">
<path style="fill:none;stroke-width:1.417323;stroke-linecap:round;stroke-linejoin:miter;stroke:rgb(0%,0%,0%);stroke-opacity:1;stroke-miterlimit:4;" d="M -51.807343 -52.376068 C -53.498488 -53.185206 -55.170046 -54.17012 -56.814198 -55.346431 C -67.553908 -63.037391 -74.007242 -74.512127 -79.487606 -74.838111 C -83.800023 -75.093407 -84.988738 -71.324259 -84.988738 -71.324259 C -84.988738 -71.324259 -88.94339 -78.708346 -81.200182 -81.873819 C -76.562851 -83.774669 -72.692714 -80.804672 -71.666172 -78.31606 C -71.005182 -80.905691 -69.547786 -82.038034 -67.555505 -82.326454 C -65.770266 -82.583692 -63.41107 -82.028244 -62.216943 -78.348172 C -60.906984 -82.586031 -58.125752 -82.530447 -57.125772 -82.467625 C -55.40315 -82.361601 -53.337086 -81.298435 -52.240369 -78.38402 C -50.883843 -81.664833 -44.285376 -84.182238 -40.974093 -80.403827 C -37.658905 -76.625415 -38.718887 -72.317163 -39.844229 -71.255026 C -42.362606 -74.837868 -48.101061 -74.296748 -50.516445 -70.195964 C -51.97818 -67.719873 -52.112343 -63.52851 -49.402395 -60.457324 C -50.797581 -58.426523 -51.763988 -53.575272 -51.807343 -52.376068 Z M -44.356527 -57.334604 C -39.759384 -55.739373 -32.18541 -54.97912 -23.989019 -58.328042 C -25.24413 -54.590165 -26.131148 -53.660763 -27.936775 -50.743376 C -33.718513 -49.229614 -39.613175 -48.825264 -45.370565 -50.135712 C -45.924288 -53.128078 -45.138329 -55.620013 -44.356527 -57.334604 Z M -44.356527 -57.334604 " transform="matrix(0.000322205,-1,-1,-0.000322205,0,0)"/>
</g>
<path style="fill:none;stroke-width:0.749999;stroke-linecap:butt;stroke-linejoin:miter;stroke:rgb(0%,0%,0%);stroke-opacity:1;stroke-miterlimit:4;" d="M 0 4.527344 L 50.15625 4.527344 C 53.730469 4.527344 58.855469 5.703125 63.007812 8.449219 M 67.429688 12.617188 C 68.609375 14.257812 69.339844 16.203125 69.84375 18.402344 C 70.789062 22.523438 70.714844 26.523438 69.890625 30.253906 M 66.714844 38.386719 C 65.691406 40.164062 64.503906 41.828125 63.1875 43.339844 C 57.65625 49.714844 48.84375 49.621094 45.84375 47.371094 C 44.113281 46.074219 41.949219 43.128906 41.539062 39.269531 M 43.238281 31.351562 C 43.554688 30.761719 43.921875 30.164062 44.34375 29.558594 C 49.382812 22.324219 59.640625 19.53125 67.167969 19.648438 M 73.378906 20.640625 C 79.714844 22.859375 85.199219 29.066406 85.6875 38.652344 C 86.25 49.714844 85.6875 90.214844 85.6875 90.214844 "/>
<path style=" stroke:none;fill-rule:nonzero;fill:rgb(0%,0%,0%);fill-opacity:1;" d="M 79.019531 4.375 C 77.453125 4.1875 75.820312 4.316406 74.222656 4.695312 C 71.027344 5.449219 67.933594 7.167969 65.601562 9.269531 C 62.574219 11.996094 60.578125 14.226562 58.898438 16.824219 L 59.53125 17.234375 C 61.167969 14.699219 63.109375 12.523438 66.105469 9.820312 C 68.339844 7.808594 71.339844 6.148438 74.394531 5.425781 C 77.449219 4.707031 80.53125 4.921875 83.007812 6.605469 C 85.367188 8.207031 86.074219 11.109375 85.792969 14.238281 C 85.515625 17.371094 84.222656 20.675781 82.695312 22.882812 L 83.308594 23.308594 C 84.925781 20.980469 86.246094 17.589844 86.542969 14.304688 C 86.835938 11.019531 86.078125 7.785156 83.429688 5.984375 C 82.085938 5.070312 80.585938 4.5625 79.019531 4.375 Z M 20.6875 12.546875 C 21.429688 11.933594 22.308594 11.527344 23.132812 11.761719 C 24.042969 12.019531 24.449219 12.785156 24.976562 13.925781 C 25.503906 15.0625 25.984375 16.65625 26.703125 18.535156 C 28.144531 22.296875 29.804688 26.894531 35.558594 31.84375 C 39.648438 35.363281 44.699219 36.84375 48.910156 37.488281 L 49.027344 36.277344 C 44.839844 35.089844 41.683594 34.207031 37.359375 31.226562 C 34.5625 29.300781 31.855469 25.949219 30.042969 22.320312 C 27.359375 16.957031 25.917969 11.632812 24.257812 10.945312 C 22.949219 10.40625 21.496094 10.773438 20.6875 12.546875 Z M 54.863281 24.726562 C 54.660156 25.191406 54.457031 25.671875 54.242188 26.171875 C 51.441406 32.703125 51.40625 39.347656 53.121094 45.226562 L 54.589844 45.015625 C 52.90625 39.246094 52.214844 32.792969 54.929688 26.464844 C 55.140625 25.96875 55.347656 25.488281 55.550781 25.023438 Z M 78.253906 27.910156 C 75.011719 30.960938 71.222656 33.394531 67.1875 34.847656 C 64.742188 35.726562 60.710938 36.585938 56.121094 37.011719 L 56.28125 38.230469 C 60.972656 37.792969 64.980469 36.441406 67.441406 35.554688 C 71.589844 34.0625 75.453125 31.570312 78.761719 28.457031 Z M 57.988281 50.832031 L 55.890625 51.285156 C 58.710938 54.984375 63.105469 58.472656 67.085938 61.050781 C 71.011719 63.417969 76.988281 66.296875 76.609375 69.71875 C 77.625 68.347656 77.277344 66.511719 76.1875 65.464844 C 75.714844 65.011719 74.992188 64.359375 73.53125 63.488281 C 72.070312 62.613281 68.902344 60.671875 66.925781 59.394531 C 62.976562 56.835938 60.703125 54.394531 57.988281 50.832031 Z M 57.988281 50.832031 "/>
<g clip-path="url(#clip6)" clip-rule="nonzero">
<path style="fill:none;stroke-width:2.451969;stroke-linecap:butt;stroke-linejoin:miter;stroke:rgb(0%,0%,0%);stroke-opacity:1;stroke-miterlimit:4;" d="M 64.261719 16.574219 C 64.261719 16.574219 64.515625 16.242188 64.972656 15.714844 M 70.257812 10.832031 C 71.933594 9.644531 73.820312 8.65625 75.730469 8.351562 C 81.566406 7.425781 83.820312 11.535156 82.691406 15.113281 C 81.566406 18.695312 80.238281 20.816406 80.238281 20.816406 "/>
</g>
<path style="fill:none;stroke-width:2.451969;stroke-linecap:butt;stroke-linejoin:miter;stroke:rgb(0%,0%,0%);stroke-opacity:1;stroke-miterlimit:4;" d="M 45.421875 40.726562 C 45.421875 40.726562 47.90625 41.371094 48.75 41.324219 C 48.796875 43.058594 49.40625 44.839844 49.40625 44.839844 "/>
<path style=" stroke:none;fill-rule:nonzero;fill:rgb(0%,0%,0%);fill-opacity:1;" d="M 31.015625 12.691406 C 30.4375 13.132812 30.179688 13.699219 30.179688 13.699219 C 31.265625 12.710938 32.003906 12.328125 33.144531 13.042969 C 34.757812 14.058594 34.722656 18.125 34.867188 20.257812 C 35.027344 22.679688 35.8125 27.269531 37.675781 28.472656 C 36.445312 26.1875 36.148438 21.988281 36.078125 19.714844 C 36 17.320312 35.980469 15.117188 34.914062 13.480469 C 33.910156 11.9375 32.226562 11.796875 31.015625 12.691406 Z M 31.015625 12.691406 "/>
<path style=" stroke:none;fill-rule:nonzero;fill:rgb(0%,0%,0%);fill-opacity:1;" d="M 7.769531 13.871094 C 8.042969 12.429688 9.859375 12.125 11.136719 12.230469 C 14.417969 12.496094 17.003906 16.570312 18.640625 17.953125 C 20.421875 19.457031 26.792969 27.625 29.007812 27.464844 C 26.648438 26.378906 20.707031 18.5625 19.28125 16.789062 C 17.777344 14.921875 15.417969 12.355469 13.640625 11.546875 C 11.441406 10.546875 7.796875 11.125 7.769531 13.871094 Z M 7.769531 13.871094 "/>
<path style=" stroke:none;fill-rule:nonzero;fill:rgb(0%,0%,0%);fill-opacity:1;" d="M 48.59375 13.726562 C 48.640625 14.453125 48.386719 15.019531 48.386719 15.019531 C 48.410156 13.550781 46.90625 12.601562 45.5625 12.574219 C 41.4375 12.488281 39.691406 16.378906 38.375 18.703125 C 38.996094 14.675781 41.390625 11.046875 45.421875 11.324219 C 46.984375 11.429688 48.464844 12.226562 48.59375 13.726562 Z M 48.59375 13.726562 "/>
<path style=" stroke:none;fill-rule:nonzero;fill:rgb(0%,0%,0%);fill-opacity:1;" d="M 78.058594 59.351562 C 77.617188 59.933594 77.050781 60.1875 77.050781 60.1875 C 78.039062 59.101562 78.417969 58.363281 77.707031 57.226562 C 76.691406 55.609375 72.625 55.644531 70.492188 55.503906 C 68.070312 55.34375 63.480469 54.558594 62.277344 52.695312 C 64.5625 53.921875 68.761719 54.21875 71.03125 54.292969 C 73.429688 54.367188 75.632812 54.390625 77.269531 55.453125 C 78.8125 56.457031 78.953125 58.144531 78.058594 59.351562 Z M 78.058594 59.351562 "/>
<path style=" stroke:none;fill-rule:nonzero;fill:rgb(0%,0%,0%);fill-opacity:1;" d="M 76.878906 82.601562 C 78.320312 82.328125 78.625 80.507812 78.519531 79.234375 C 78.253906 75.949219 74.175781 73.363281 72.796875 71.730469 C 71.292969 69.945312 63.125 63.574219 63.285156 61.363281 C 64.371094 63.71875 72.1875 69.664062 73.957031 71.085938 C 75.828125 72.589844 78.394531 74.949219 79.203125 76.726562 C 80.203125 78.929688 79.621094 82.574219 76.878906 82.601562 Z M 76.878906 82.601562 "/>
<path style=" stroke:none;fill-rule:nonzero;fill:rgb(0%,0%,0%);fill-opacity:1;" d="M 77.023438 41.777344 C 76.296875 41.726562 75.730469 41.980469 75.730469 41.980469 C 77.195312 41.957031 78.148438 43.464844 78.175781 44.808594 C 78.257812 48.933594 74.371094 50.679688 72.046875 51.996094 C 76.074219 51.375 79.703125 48.980469 79.425781 44.945312 C 79.316406 43.386719 78.523438 41.90625 77.023438 41.777344 Z M 77.023438 41.777344 "/>
<path style="fill:none;stroke-width:2.168504;stroke-linecap:butt;stroke-linejoin:miter;stroke:rgb(0%,0%,0%);stroke-opacity:1;stroke-miterlimit:4;" d="M 5.726562 9.414062 C 5.726562 9.414062 2.28125 12.925781 5.199219 21.015625 C 7.1875 16.539062 11.660156 15.808594 13.683594 17.234375 C 15.953125 18.835938 31.449219 36.0625 37.878906 38.382812 C 36.6875 44.414062 43.316406 53.164062 51.933594 52.636719 C 54.785156 57.410156 56.042969 59.398438 59.488281 63.109375 C 62.9375 66.820312 68.375 71.460938 70.296875 73.515625 C 72.21875 75.570312 74.136719 77.976562 74.007812 80.34375 C 73.949219 81.453125 72.09375 82.992188 69.632812 84.652344 C 72.84375 86.644531 73.808594 87.039062 76.660156 86.710938 C 79.511719 86.378906 82.09375 82.863281 82.09375 82.863281 "/>
<path style=" stroke:none;fill-rule:nonzero;fill:rgb(0%,0%,0%);fill-opacity:1;" d="M 47.554688 16.847656 C 45.6875 16.222656 43.765625 16.53125 42.230469 17.582031 C 40.695312 18.636719 39.492188 20.332031 38.542969 22.480469 C 37.441406 24.976562 38.300781 27.40625 39.316406 29.03125 C 40.335938 30.660156 41.832031 31.402344 41.832031 31.402344 C 40.488281 28.488281 39.035156 25.5 40.394531 22.480469 C 41.746094 20.421875 44.496094 18.222656 46.78125 19.171875 C 47.664062 19.484375 49.613281 20.707031 50.132812 21.476562 C 50.117188 20.039062 50.984375 20.390625 51.109375 18.984375 C 50.542969 18.246094 49.273438 17.417969 47.554688 16.847656 Z M 47.554688 16.847656 "/>
<path style=" stroke:none;fill-rule:nonzero;fill:rgb(0%,0%,0%);fill-opacity:1;" d="M 73.304688 42.664062 C 73.925781 44.53125 73.621094 46.457031 72.566406 47.992188 C 71.515625 49.527344 69.820312 50.726562 67.667969 51.679688 C 65.175781 52.78125 62.746094 51.921875 61.117188 50.902344 C 59.492188 49.886719 59.808594 49.1875 59.808594 49.1875 C 62.722656 50.527344 64.648438 51.183594 67.671875 49.828125 C 69.730469 48.472656 71.929688 45.726562 70.976562 43.441406 C 70.664062 42.554688 69.609375 40.675781 68.835938 40.152344 C 70.308594 39.671875 70.125 39.566406 71.015625 39.160156 C 71.753906 39.726562 72.730469 40.949219 73.304688 42.664062 Z M 73.304688 42.664062 "/>
</g>
</svg>
