<?xml version="1.0" encoding="UTF-8"?>
<svg xmlns="http://www.w3.org/2000/svg" xmlns:xlink="http://www.w3.org/1999/xlink" width="71.434662pt" height="71.426941pt" viewBox="0 0 71.434662 71.426941" version="1.1">
<defs>
<clipPath id="clip1">
  <path d="M 0 0 L 71.433594 0 L 71.433594 71.425781 L 0 71.425781 Z M 0 0 "/>
</clipPath>
<clipPath id="clip2">
  <path d="M 0 10 L 61 10 L 61 71.425781 L 0 71.425781 Z M 0 10 "/>
</clipPath>
<clipPath id="clip3">
  <path d="M 0 9 L 62 9 L 62 71.425781 L 0 71.425781 Z M 0 9 "/>
</clipPath>
<clipPath id="clip4">
  <path d="M 0 4 L 67 4 L 67 71.425781 L 0 71.425781 Z M 0 4 "/>
</clipPath>
</defs>
<g id="surface1">
<path style=" stroke:none;fill-rule:nonzero;fill:rgb(100%,100%,100%);fill-opacity:1;" d="M 14.652344 17.394531 L 13.964844 14.128906 L 13.046875 13.765625 L 14.628906 12.441406 L 13.019531 12.15625 L 15.855469 12.207031 L 15.027344 10.941406 L 12.707031 10.441406 L 25.425781 6.457031 L 25.9375 5.6875 L 24.304688 4.320312 L 24.515625 4.28125 L 23.71875 3.554688 L 23.230469 3.320312 L 23.136719 1.585938 L 68.945312 2.046875 L 43.355469 25.515625 Z M 54.042969 56.773438 L 57.308594 57.460938 L 57.671875 58.382812 L 58.996094 56.796875 L 59.28125 58.40625 L 59.230469 55.570312 L 60.496094 56.402344 L 60.996094 58.71875 L 64.976562 46 L 65.75 45.484375 L 67.117188 47.117188 L 67.15625 46.90625 L 67.878906 47.707031 L 68.113281 48.195312 L 69.847656 48.285156 L 69.375 2.480469 L 45.914062 28.074219 Z M 54.042969 56.773438 "/>
<g clip-path="url(#clip1)" clip-rule="nonzero">
<path style=" stroke:none;fill-rule:nonzero;fill:rgb(0%,0%,0%);fill-opacity:1;" d="M 24.941406 0 C 24.121094 -0.0234375 23.285156 0.367188 22.808594 1.203125 C 22.519531 1.714844 22.601562 2.277344 22.738281 2.695312 C 22.804688 2.902344 22.835938 2.925781 22.902344 3.050781 L 0 3.050781 L 0 4.179688 L 24.390625 4.179688 C 24.390625 4.179688 23.75 3.589844 23.570312 3.207031 C 23.46875 2.996094 23.40625 2.746094 23.445312 2.515625 C 23.5 2.214844 23.65625 1.910156 23.898438 1.726562 C 24.238281 1.472656 24.710938 1.367188 25.128906 1.425781 C 25.511719 1.480469 25.902344 1.691406 26.132812 2.003906 C 26.496094 2.5 26.566406 3.191406 26.539062 3.804688 C 26.511719 4.351562 26.394531 4.953125 26.03125 5.367188 C 25.488281 5.988281 24.8125 6.421875 23.789062 6.421875 L 0 6.421875 L 0 6.894531 L 23.789062 6.894531 C 24.832031 6.894531 25.941406 6.394531 26.675781 5.648438 C 27.210938 5.109375 27.476562 4.359375 27.550781 3.542969 C 27.625 2.730469 27.488281 1.871094 27.054688 1.191406 C 26.578125 0.441406 25.761719 0.0234375 24.941406 0 Z M 71.433594 46.480469 C 71.457031 47.300781 71.070312 48.136719 70.234375 48.613281 C 69.722656 48.90625 69.15625 48.824219 68.738281 48.6875 C 68.53125 48.617188 68.511719 48.585938 68.382812 48.519531 L 68.390625 71.425781 L 67.261719 71.425781 L 67.253906 47.03125 C 67.253906 47.03125 67.84375 47.675781 68.230469 47.855469 C 68.441406 47.957031 68.691406 48.019531 68.921875 47.976562 C 69.21875 47.925781 69.527344 47.765625 69.707031 47.523438 C 69.960938 47.1875 70.066406 46.710938 70.007812 46.292969 C 69.953125 45.914062 69.742188 45.519531 69.429688 45.289062 C 68.933594 44.925781 68.246094 44.859375 67.628906 44.886719 C 67.082031 44.914062 66.480469 45.03125 66.070312 45.390625 C 65.449219 45.9375 65.011719 46.613281 65.011719 47.636719 L 65.015625 71.425781 L 64.546875 71.425781 L 64.542969 47.636719 C 64.539062 46.59375 65.039062 45.484375 65.785156 44.746094 C 66.328125 44.214844 67.074219 43.949219 67.890625 43.875 C 68.703125 43.800781 69.5625 43.933594 70.242188 44.367188 C 70.992188 44.84375 71.410156 45.664062 71.433594 46.480469 Z M 71.433594 46.480469 "/>
</g>
<g clip-path="url(#clip2)" clip-rule="nonzero">
<path style=" stroke:none;fill-rule:nonzero;fill:rgb(0%,0%,0%);fill-opacity:1;" d="M 0 10.914062 L 0 11.992188 L 14.226562 11.992188 C 15.265625 11.992188 16.640625 13.121094 16.605469 14.175781 C 16.578125 14.960938 16.3125 15.875 15.628906 16.316406 C 15.023438 16.710938 14.410156 16.8125 13.800781 16.472656 C 14.257812 16.132812 14.671875 15.675781 14.621094 15.160156 C 14.570312 14.632812 14.144531 13.996094 13.535156 13.996094 L 0 13.996094 L 0 14.46875 L 13.535156 14.46875 C 13.847656 14.46875 14.125 14.792969 14.15625 15.199219 C 14.1875 15.605469 13.996094 16.054688 13.277344 16.289062 L 12.855469 16.425781 C 12.855469 16.425781 13.09375 16.640625 13.203125 16.699219 C 13.988281 17.125 15.105469 17.148438 15.882812 16.710938 C 16.726562 16.234375 17.304688 15.257812 17.375 14.214844 C 17.503906 12.214844 15.960938 10.914062 14.617188 10.914062 Z M 60.527344 71.425781 L 59.449219 71.425781 L 59.445312 57.199219 C 59.445312 56.164062 58.3125 54.789062 57.257812 54.824219 C 56.476562 54.847656 55.5625 55.113281 55.121094 55.796875 C 54.726562 56.402344 54.625 57.015625 54.964844 57.628906 C 55.304688 57.167969 55.761719 56.757812 56.277344 56.804688 C 56.804688 56.855469 57.441406 57.28125 57.441406 57.890625 L 57.445312 71.425781 L 56.972656 71.425781 L 56.96875 57.890625 C 56.96875 57.582031 56.644531 57.300781 56.238281 57.269531 C 55.832031 57.238281 55.382812 57.429688 55.148438 58.152344 L 55.011719 58.570312 C 55.011719 58.570312 54.796875 58.332031 54.738281 58.222656 C 54.3125 57.4375 54.289062 56.320312 54.726562 55.542969 C 55.203125 54.699219 56.175781 54.121094 57.222656 54.054688 C 59.222656 53.921875 60.523438 55.464844 60.523438 56.808594 Z M 60.527344 71.425781 "/>
</g>
<path style=" stroke:none;fill-rule:nonzero;fill:rgb(100%,100%,100%);fill-opacity:1;" d="M 37.554688 19.570312 C 37.992188 18.976562 38.816406 16.585938 36.496094 14.496094 C 33.949219 12.203125 31.589844 13.503906 31.589844 13.503906 C 31.523438 11.648438 33.777344 9.589844 35.929688 10.121094 C 33.910156 8.628906 33.214844 5.28125 34.9375 2.664062 C 35.863281 4.222656 37.65625 5.148438 38.847656 5.347656 C 40.042969 5.546875 41.433594 7.207031 41.433594 7.207031 C 41.433594 4.953125 44.117188 2.730469 46.703125 3.425781 C 45.378906 5.214844 44.980469 6.839844 45.410156 8.796875 C 45.84375 10.75 46.636719 13.667969 44.316406 16.652344 C 46.503906 13.734375 48.726562 8.234375 47.53125 5.414062 C 49.421875 4.785156 51.210938 6.742188 51.210938 6.742188 C 51.839844 5.449219 53.132812 3.757812 55.71875 3.492188 C 56.613281 7.238281 54.292969 13.667969 50.878906 16.285156 C 55.15625 11.316406 59.398438 3.757812 59.664062 1.40625 C 62.214844 2.300781 62.554688 4.527344 62.554688 4.527344 C 62.859375 3.355469 64.992188 2.511719 66.328125 2.488281 C 67.207031 2.472656 68.703125 2.070312 69.625 1.800781 C 69.351562 2.722656 68.953125 4.21875 68.9375 5.097656 C 68.914062 6.433594 68.070312 8.566406 66.898438 8.871094 C 66.898438 8.871094 69.125 9.207031 70.023438 11.761719 C 67.667969 12.027344 60.113281 16.269531 55.140625 20.546875 C 57.757812 17.132812 64.1875 14.8125 67.933594 15.703125 C 67.667969 18.289062 65.980469 19.582031 64.6875 20.214844 C 64.6875 20.214844 66.644531 22.003906 66.015625 23.890625 C 63.195312 22.699219 57.695312 24.921875 54.777344 27.109375 C 57.761719 24.789062 60.679688 25.585938 62.632812 26.015625 C 64.589844 26.445312 66.214844 26.046875 68.003906 24.71875 C 68.699219 27.304688 66.480469 29.992188 64.226562 29.992188 C 64.226562 29.992188 65.882812 31.382812 66.082031 32.578125 C 66.28125 33.769531 67.210938 35.558594 68.769531 36.488281 C 66.148438 38.210938 62.800781 37.515625 61.308594 35.496094 C 61.839844 37.648438 59.785156 39.902344 57.929688 39.835938 C 57.929688 39.835938 59.226562 37.480469 56.933594 34.933594 C 54.847656 32.613281 52.453125 33.4375 51.863281 33.871094 C 51.042969 34.476562 50.007812 36.292969 50.007812 36.292969 L 46.625 35.5625 L 44.226562 27.203125 L 35.863281 24.804688 L 35.136719 21.425781 C 35.136719 21.425781 36.953125 20.386719 37.554688 19.570312 Z M 37.554688 19.570312 "/>
<path style=" stroke:none;fill-rule:nonzero;fill:rgb(0%,0%,0%);fill-opacity:1;" d="M 59.34375 0.898438 L 59.289062 1.363281 C 59.234375 1.863281 58.929688 2.769531 58.4375 3.871094 C 57.941406 4.972656 57.257812 6.28125 56.449219 7.675781 C 56.164062 8.167969 55.730469 8.644531 55.414062 9.152344 C 55.992188 7.128906 56.472656 5.03125 56.085938 3.40625 L 56.007812 3.085938 L 55.679688 3.117188 C 53.175781 3.375 51.875 4.917969 51.152344 6.21875 C 50.972656 6.039062 50.800781 5.839844 50.269531 5.519531 C 49.535156 5.082031 48.503906 4.699219 47.414062 5.0625 L 47.027344 5.1875 L 47.1875 5.558594 C 47.71875 6.808594 47.503906 8.832031 46.839844 10.878906 C 46.695312 11.324219 46.402344 11.640625 46.222656 12.082031 C 46.214844 10.800781 45.972656 9.609375 45.773438 8.714844 C 45.363281 6.851562 45.722656 5.382812 47.003906 3.648438 L 47.332031 3.207031 L 46.800781 3.0625 C 45.378906 2.679688 43.945312 3.101562 42.875 3.910156 C 41.992188 4.574219 41.585938 5.597656 41.378906 6.617188 C 41.226562 6.449219 41.15625 6.351562 40.835938 6.070312 C 40.316406 5.609375 39.648438 5.101562 38.910156 4.976562 C 37.84375 4.800781 36.113281 3.902344 35.261719 2.46875 L 34.953125 1.960938 L 34.625 2.460938 C 32.925781 5.039062 33.574219 8.164062 35.417969 9.917969 C 34.429688 9.875 33.421875 10.023438 32.6875 10.632812 C 31.789062 11.371094 31.175781 12.429688 31.214844 13.515625 L 31.238281 14.125 L 31.769531 13.832031 C 31.769531 13.832031 32.277344 13.550781 33.101562 13.515625 C 33.929688 13.480469 35.039062 13.695312 36.242188 14.777344 C 37.332031 15.757812 37.65625 16.765625 37.679688 17.605469 C 37.707031 18.449219 37.398438 19.152344 37.253906 19.34375 C 37.015625 19.671875 36.425781 20.144531 35.910156 20.496094 C 35.394531 20.847656 34.953125 21.101562 34.953125 21.101562 L 34.714844 21.234375 L 35.542969 25.101562 L 43.921875 27.507812 L 46.328125 35.886719 L 50.199219 36.714844 L 50.332031 36.476562 C 50.332031 36.476562 50.582031 36.035156 50.933594 35.519531 C 51.289062 35.003906 51.761719 34.410156 52.085938 34.171875 C 52.277344 34.03125 52.984375 33.722656 53.824219 33.746094 C 54.667969 33.773438 55.671875 34.09375 56.652344 35.183594 C 57.738281 36.390625 57.953125 37.5 57.917969 38.324219 C 57.882812 39.148438 57.601562 39.65625 57.601562 39.65625 L 57.308594 40.191406 L 57.917969 40.210938 C 59.003906 40.25 60.0625 39.636719 60.800781 38.738281 C 61.40625 38.003906 61.554688 36.996094 61.515625 36.007812 C 63.269531 37.851562 66.394531 38.5 68.972656 36.800781 L 69.472656 36.472656 L 68.960938 36.164062 C 67.53125 35.308594 66.632812 33.582031 66.453125 32.515625 C 66.328125 31.773438 65.820312 31.109375 65.363281 30.589844 C 65.082031 30.269531 64.980469 30.199219 64.8125 30.046875 C 65.835938 29.839844 66.855469 29.433594 67.519531 28.550781 C 68.328125 27.476562 68.75 26.046875 68.367188 24.625 L 68.222656 24.09375 L 67.78125 24.421875 C 66.046875 25.703125 64.582031 26.0625 62.714844 25.648438 C 61.820312 25.453125 60.628906 25.210938 59.347656 25.203125 C 59.789062 25.023438 60.105469 24.730469 60.550781 24.585938 C 62.597656 23.921875 64.617188 23.707031 65.871094 24.238281 L 66.242188 24.398438 L 66.367188 24.011719 C 66.730469 22.921875 66.347656 21.886719 65.90625 21.152344 C 65.589844 20.625 65.386719 20.453125 65.210938 20.273438 C 66.511719 19.546875 68.054688 18.246094 68.308594 15.746094 L 68.34375 15.417969 L 68.019531 15.339844 C 66.394531 14.953125 64.300781 15.433594 62.273438 16.011719 C 62.78125 15.695312 63.261719 15.261719 63.753906 14.976562 C 65.144531 14.167969 66.453125 13.480469 67.554688 12.988281 C 68.65625 12.492188 69.5625 12.191406 70.0625 12.132812 L 70.527344 12.078125 C 70.191406 10.191406 68.714844 9.03125 67.503906 8.71875 C 67.949219 8.390625 68.414062 8.082031 68.683594 7.535156 C 69.070312 6.742188 69.300781 5.847656 69.3125 5.101562 C 69.324219 4.515625 69.546875 3.492188 69.773438 2.644531 C 69.898438 2.179688 70.027344 1.671875 70.117188 1.304688 C 69.75 1.398438 69.242188 1.527344 68.78125 1.652344 C 67.933594 1.878906 66.910156 2.101562 66.320312 2.109375 C 65.578125 2.125 64.679688 2.355469 63.890625 2.742188 C 63.339844 3.011719 63.03125 3.476562 62.707031 3.921875 C 62.394531 2.710938 61.230469 1.234375 59.34375 0.898438 Z M 59.855469 2 C 60.84375 2.738281 61.925781 4.039062 62.28125 5.398438 C 62.386719 4.996094 63.53125 3.746094 64.21875 3.410156 C 64.90625 3.074219 65.738281 2.875 66.332031 2.863281 C 67.082031 2.851562 68.109375 2.605469 68.976562 2.371094 C 69.035156 2.355469 69.0625 2.347656 69.085938 2.339844 C 69.078125 2.363281 69.070312 2.390625 69.054688 2.445312 C 68.820312 3.316406 68.574219 4.34375 68.5625 5.09375 C 68.550781 5.683594 68.347656 6.519531 68.015625 7.207031 C 67.679688 7.894531 66.429688 9.039062 66.027344 9.140625 C 67.386719 9.496094 68.6875 10.582031 69.425781 11.570312 C 68.808594 11.710938 68.15625 11.894531 67.25 12.300781 C 66.117188 12.8125 64.789062 13.503906 63.375 14.324219 C 60.554688 15.960938 57.40625 18.105469 54.894531 20.265625 L 54.90625 20.277344 C 54.890625 20.296875 54.859375 20.304688 54.847656 20.320312 C 58.632812 18.574219 63.074219 16.101562 67.375 16.128906 C 67.625 17.765625 66.265625 19.28125 63.929688 20.449219 C 64.398438 20.871094 64.796875 21.246094 65.101562 21.652344 C 65.496094 22.183594 65.785156 22.84375 65.625 23.574219 C 64.109375 23.125 62.257812 23.25 60.316406 23.878906 C 58.179688 24.574219 56.054688 25.683594 54.554688 26.808594 C 54.550781 26.8125 54.550781 26.8125 54.546875 26.816406 C 59.226562 24.484375 65.726562 29.273438 67.5625 25.183594 C 67.714844 26.222656 67.535156 27.289062 66.921875 28.101562 C 66.230469 29.019531 65.203125 29.691406 64.226562 29.613281 L 62.46875 29.472656 C 63.605469 29.953125 63.925781 30.527344 64.46875 31.226562 C 64.964844 31.867188 65.328125 32.664062 65.570312 33.386719 C 65.96875 34.566406 66.195312 35.730469 68.261719 36.421875 C 65.726562 38.574219 61.730469 36.109375 60.4375 34.359375 C 60.558594 35.984375 60.699219 37.328125 59.710938 38.492188 C 59.222656 39.066406 58.945312 39.210938 58.320312 39.359375 C 58.769531 37.921875 58.160156 36.265625 57.167969 34.917969 C 56.296875 33.96875 54.871094 33.027344 53.847656 32.992188 C 52.824219 32.960938 52.042969 33.277344 51.644531 33.570312 C 51.148438 33.933594 50.691406 34.554688 50.320312 35.097656 C 50.039062 35.515625 49.921875 35.714844 49.832031 35.867188 L 46.925781 35.242188 L 44.527344 26.902344 L 36.1875 24.503906 L 35.558594 21.597656 C 35.710938 21.507812 35.914062 21.394531 36.328125 21.109375 C 36.875 20.742188 37.496094 20.28125 37.859375 19.789062 C 38.152344 19.390625 38.464844 18.609375 38.433594 17.585938 C 38.402344 16.5625 37.460938 15.132812 36.511719 14.265625 C 35.160156 13.273438 33.503906 12.660156 32.070312 13.113281 C 32.214844 12.488281 32.359375 12.210938 32.933594 11.722656 C 34.097656 10.730469 35.445312 10.875 37.066406 10.996094 C 35.316406 9.703125 32.847656 5.707031 35.003906 3.167969 C 35.695312 5.234375 36.859375 5.464844 38.039062 5.859375 C 38.761719 6.105469 39.558594 6.464844 40.199219 6.960938 C 40.898438 7.503906 41.472656 7.824219 41.953125 8.960938 L 41.8125 7.203125 C 41.734375 6.230469 42.40625 5.199219 43.324219 4.507812 C 44.136719 3.894531 45.203125 3.714844 46.238281 3.867188 C 42.152344 5.703125 46.941406 12.203125 44.613281 16.882812 C 44.613281 16.878906 44.613281 16.878906 44.617188 16.875 C 45.742188 15.375 46.851562 13.246094 47.546875 11.113281 C 48.175781 9.171875 48.300781 7.316406 47.851562 5.804688 C 48.578125 5.644531 49.242188 5.929688 49.769531 6.328125 C 50.179688 6.632812 50.554688 7.027344 50.976562 7.496094 C 52.144531 5.164062 53.660156 3.804688 55.296875 4.054688 C 55.324219 8.351562 52.851562 12.792969 51.105469 16.582031 C 51.125 16.570312 51.132812 16.535156 51.152344 16.523438 L 51.160156 16.53125 C 53.320312 14.023438 55.464844 10.875 57.101562 8.050781 C 57.921875 6.640625 58.613281 5.308594 59.125 4.175781 C 59.53125 3.273438 59.714844 2.617188 59.855469 2 Z M 59.855469 2 "/>
<path style=" stroke:none;fill-rule:nonzero;fill:rgb(100%,100%,100%);fill-opacity:1;" d="M 32.695312 29.089844 L 28.828125 22.972656 L 33.84375 18.519531 L 41.648438 26.042969 Z M 42.34375 38.734375 L 48.460938 42.601562 L 52.914062 37.585938 L 45.386719 29.78125 Z M 42.34375 38.734375 "/>
<path style=" stroke:none;fill-rule:nonzero;fill:rgb(0%,0%,0%);fill-opacity:1;" d="M 30.609375 1.195312 C 29.648438 1.167969 28.605469 1.429688 27.558594 2.730469 C 25.761719 6.1875 26.433594 8.003906 23.933594 9.730469 C 22.507812 10.714844 20.4375 10.246094 18.933594 11.144531 C 17.476562 12.023438 16.933594 13.164062 16.890625 14.195312 C 16.851562 15.226562 17.273438 16.128906 17.683594 16.632812 C 18.1875 17.246094 19.027344 17.488281 19.820312 17.429688 C 20.613281 17.371094 21.472656 17.097656 21.914062 16.226562 C 22.582031 14.910156 21.71875 13.945312 20.710938 13.792969 C 21.164062 13.578125 21.414062 13.460938 22.035156 13.621094 C 23.09375 13.890625 24.335938 15.125 25.6875 17.933594 C 27.128906 20.9375 33.84375 32.304688 36.378906 34.015625 C 38.632812 31.683594 40.898438 29.363281 43.160156 27.035156 L 42.972656 26.875 C 42.972656 26.875 38.8125 23.273438 34.421875 18.132812 C 32.246094 15.589844 31.007812 12.660156 30.351562 10.175781 C 30.023438 8.9375 29.910156 7.992188 29.8125 6.882812 C 29.757812 6.292969 29.71875 5.453125 29.78125 5.105469 C 30.855469 5.542969 31.824219 5.519531 32.328125 4.957031 C 32.898438 4.316406 33.046875 3.351562 32.71875 2.625 C 32.355469 1.8125 31.574219 1.226562 30.609375 1.195312 Z M 70.238281 40.8125 C 70.265625 41.773438 70.003906 42.816406 68.703125 43.863281 C 65.246094 45.664062 63.429688 44.992188 61.703125 47.492188 C 60.71875 48.917969 61.191406 50.988281 60.289062 52.492188 C 59.414062 53.953125 58.269531 54.492188 57.242188 54.535156 C 56.210938 54.578125 55.304688 54.15625 54.804688 53.746094 C 54.1875 53.242188 53.949219 52.398438 54.007812 51.605469 C 54.0625 50.816406 54.339844 49.957031 55.207031 49.515625 C 56.527344 48.84375 57.488281 49.707031 57.644531 50.714844 C 57.855469 50.261719 57.972656 50.015625 57.816406 49.390625 C 57.546875 48.332031 56.308594 47.09375 53.5 45.742188 C 50.496094 44.296875 39.128906 37.585938 37.414062 35.050781 C 39.746094 32.796875 42.070312 30.53125 44.394531 28.269531 L 44.554688 28.457031 C 44.554688 28.457031 48.15625 32.613281 53.300781 37.007812 C 55.84375 39.179688 58.773438 40.421875 61.257812 41.074219 C 62.496094 41.402344 63.441406 41.511719 64.550781 41.613281 C 65.140625 41.667969 65.980469 41.703125 66.328125 41.644531 C 65.890625 40.570312 65.914062 39.601562 66.476562 39.097656 C 67.117188 38.523438 68.082031 38.378906 68.808594 38.703125 C 69.621094 39.066406 70.207031 39.851562 70.238281 40.8125 Z M 31.265625 2.496094 C 31.621094 2.890625 31.648438 3.652344 31.398438 3.898438 C 30.671875 4.621094 29.960938 4.269531 29.167969 3.855469 C 29.003906 4.710938 28.875 6.238281 28.925781 6.898438 C 29.003906 7.832031 29.050781 9.15625 29.386719 10.421875 C 30.054688 12.957031 31.082031 16.058594 33.316406 18.671875 C 37.644531 23.738281 41.671875 27.144531 41.835938 27.285156 L 36.425781 33.296875 C 32.972656 30.015625 29 23.050781 26.160156 17.628906 C 24.652344 14.753906 23.757812 13.585938 22.152344 13.167969 C 21.109375 12.894531 19.972656 13.417969 19.316406 14.71875 C 20.660156 13.65625 21.636719 15.453125 21.332031 16.113281 C 21.078125 16.601562 20.460938 16.914062 19.789062 16.964844 C 19.113281 17.011719 18.417969 16.792969 18.042969 16.332031 C 17.710938 15.925781 17.328125 15.105469 17.363281 14.21875 C 17.398438 13.328125 17.820312 12.710938 19.171875 11.898438 C 20.484375 11.109375 23.269531 11.765625 24.742188 10.546875 C 26.78125 8.859375 26.613281 5.425781 28.023438 3.324219 C 28.6875 2.425781 30.292969 1.417969 31.265625 2.496094 Z M 68.9375 40.15625 C 68.542969 39.800781 67.78125 39.777344 67.53125 40.027344 C 66.8125 40.753906 67.164062 41.464844 67.578125 42.253906 C 66.722656 42.421875 65.195312 42.550781 64.535156 42.496094 C 63.601562 42.421875 62.277344 42.375 61.011719 42.042969 C 58.476562 41.371094 55.375 40.34375 52.761719 38.113281 C 47.691406 33.785156 44.285156 29.757812 44.144531 29.59375 L 38.136719 35.007812 C 41.417969 38.460938 48.382812 42.425781 53.804688 45.269531 C 56.679688 46.773438 57.847656 47.667969 58.269531 49.277344 C 58.542969 50.316406 58.015625 51.453125 56.714844 52.109375 C 57.777344 50.765625 55.984375 49.789062 55.324219 50.09375 C 54.835938 50.347656 54.519531 50.96875 54.472656 51.640625 C 54.421875 52.3125 54.644531 53.007812 55.101562 53.382812 C 55.507812 53.714844 56.328125 54.101562 57.21875 54.066406 C 58.105469 54.027344 58.726562 53.605469 59.539062 52.253906 C 60.324219 50.941406 59.671875 48.15625 60.886719 46.683594 C 62.574219 44.644531 66.007812 44.8125 68.113281 43.398438 C 69.007812 42.738281 70.015625 41.128906 68.9375 40.15625 Z M 68.9375 40.15625 "/>
<path style=" stroke:none;fill-rule:nonzero;fill:rgb(100%,100%,100%);fill-opacity:1;" d="M 30.289062 41.144531 C 30.519531 40.394531 30.90625 38.992188 30.859375 38.261719 C 30.792969 37.234375 30.761719 35.578125 32.484375 34.714844 C 29.898438 35.046875 28.039062 33.53125 27.3125 31.667969 C 26.691406 30.074219 26.78125 27.359375 28.804688 26.761719 C 30.828125 26.164062 31.570312 27.332031 31.308594 28.222656 C 31.050781 29.121094 29.898438 29.246094 29.765625 28.648438 C 29.933594 29.347656 32.949219 30.441406 36.59375 27.292969 C 40.242188 24.144531 38.714844 21.523438 38.648438 21.324219 C 38.78125 21.953125 38.132812 23.238281 36.828125 22.585938 C 35.253906 21.800781 35.796875 18.804688 37.886719 18.410156 C 39.976562 18.011719 42.363281 17.777344 42.824219 17.878906 C 43.289062 17.976562 45.542969 18.804688 45.046875 22.1875 C 45.476562 19.601562 48.261719 19.402344 49.421875 19.601562 C 50.582031 19.800781 52.769531 18.539062 52.769531 18.539062 L 52.726562 18.703125 L 52.886719 18.660156 C 52.886719 18.660156 51.628906 20.847656 51.828125 22.007812 C 52.027344 23.167969 51.828125 25.949219 49.242188 26.382812 C 52.625 25.882812 53.453125 28.136719 53.550781 28.601562 C 53.652344 29.066406 53.421875 31.453125 53.023438 33.539062 C 52.625 35.628906 49.632812 36.175781 48.847656 34.601562 C 48.195312 33.292969 49.476562 32.648438 50.105469 32.777344 C 49.90625 32.714844 47.289062 31.1875 44.140625 34.835938 C 40.992188 38.484375 42.085938 41.5 42.78125 41.664062 C 42.1875 41.53125 42.3125 40.382812 43.207031 40.121094 C 44.101562 39.859375 45.269531 40.601562 44.671875 42.625 C 44.078125 44.648438 41.359375 44.738281 39.765625 44.117188 C 37.902344 43.390625 36.386719 41.53125 36.714844 38.949219 C 35.855469 40.671875 34.199219 40.636719 33.171875 40.574219 C 32.441406 40.527344 31.039062 40.914062 30.289062 41.144531 Z M 30.289062 41.144531 "/>
<path style=" stroke:none;fill-rule:nonzero;fill:rgb(0%,0%,0%);fill-opacity:1;" d="M 35.753906 20.304688 C 35.535156 21.273438 35.820312 22.34375 36.722656 22.792969 C 37.445312 23.15625 38.078125 22.980469 38.445312 22.601562 C 38.617188 22.421875 38.667969 22.371094 38.742188 22.15625 C 38.832031 22.457031 38.8125 22.691406 38.78125 23.1875 C 38.71875 24.195312 38.226562 25.570312 36.441406 27.113281 C 35.144531 28.054688 33.035156 28.90625 31.257812 28.757812 C 31.566406 28.609375 31.835938 28.445312 31.917969 28.160156 C 32.101562 27.527344 31.90625 26.664062 31.390625 26.253906 C 30.71875 25.722656 29.878906 25.84375 28.824219 26.15625 C 27.71875 26.480469 27.050781 27.78125 26.839844 28.789062 C 26.632812 29.796875 26.765625 30.910156 27.09375 31.753906 C 27.804688 33.578125 29.648438 34.949219 32.078125 34.851562 C 31.460938 35.289062 30.949219 35.789062 30.777344 36.359375 C 30.5625 37.058594 30.59375 37.761719 30.628906 38.28125 C 30.65625 38.722656 30.484375 39.570312 30.296875 40.277344 C 30.144531 40.847656 29.984375 41.335938 29.929688 41.503906 C 30.097656 41.449219 30.585938 41.289062 31.15625 41.136719 C 31.863281 40.949219 32.710938 40.777344 33.152344 40.804688 C 33.671875 40.839844 34.375 40.871094 35.074219 40.65625 C 35.644531 40.480469 36.140625 39.96875 36.582031 39.355469 C 36.484375 41.785156 37.855469 43.625 39.683594 44.335938 C 40.523438 44.664062 41.636719 44.800781 42.644531 44.589844 C 43.652344 44.378906 44.953125 43.710938 45.277344 42.605469 C 45.589844 41.550781 45.710938 40.710938 45.175781 40.039062 C 44.769531 39.523438 43.90625 39.328125 43.273438 39.511719 C 42.988281 39.597656 42.824219 39.863281 42.675781 40.171875 C 42.527344 38.398438 43.378906 36.285156 44.320312 34.988281 C 45.863281 33.203125 47.234375 32.710938 48.242188 32.644531 C 48.742188 32.617188 48.972656 32.597656 49.273438 32.683594 C 49.058594 32.761719 49.007812 32.8125 48.832031 32.984375 C 48.453125 33.351562 48.277344 33.984375 48.636719 34.707031 C 49.085938 35.609375 50.15625 35.890625 51.128906 35.675781 C 52.082031 35.441406 53.695312 34.246094 53.878906 33.035156 C 54.027344 32.074219 54.210938 31.027344 54.304688 30.011719 C 54.363281 29.390625 54.480469 28.792969 54.386719 28.144531 C 54.347656 27.851562 54.082031 27.144531 53.390625 26.542969 C 52.796875 26.023438 51.082031 25.390625 49.710938 26.261719 C 50.902344 26.085938 51.96875 25.089844 52.277344 24.300781 C 52.644531 23.351562 52.554688 22.515625 52.519531 21.882812 C 52.441406 20.507812 53.042969 19.117188 53.539062 17.886719 C 52.3125 18.382812 50.921875 18.984375 49.546875 18.910156 C 48.914062 18.875 48.074219 18.785156 47.125 19.152344 C 46.335938 19.457031 45.34375 20.527344 45.167969 21.71875 C 46.035156 20.347656 45.402344 18.632812 44.882812 18.039062 C 44.28125 17.347656 43.574219 17.082031 43.285156 17.042969 C 42.632812 16.953125 42.035156 17.066406 41.414062 17.125 C 40.402344 17.21875 39.351562 17.402344 38.390625 17.550781 C 37.183594 17.738281 35.988281 19.351562 35.753906 20.304688 Z M 42.160156 18.09375 C 42.476562 18.082031 42.71875 18.09375 42.773438 18.105469 C 42.953125 18.144531 43.714844 18.285156 44.121094 18.957031 C 44.871094 20.199219 44.996094 21.339844 45.023438 22.367188 C 45.773438 21.476562 46.128906 20.464844 47.042969 20.070312 C 47.882812 19.742188 48.847656 19.742188 49.386719 19.832031 C 50.070312 19.949219 50.914062 19.65625 51.621094 19.363281 C 52.066406 19.175781 52.1875 19.09375 52.414062 18.972656 L 52.398438 19.027344 L 52.453125 19.015625 C 52.332031 19.238281 52.253906 19.363281 52.066406 19.804688 C 51.769531 20.511719 51.480469 21.359375 51.597656 22.042969 C 51.6875 22.578125 51.6875 23.542969 51.359375 24.386719 C 50.964844 25.300781 49.953125 25.65625 49.0625 26.402344 C 50.089844 26.429688 51.230469 26.554688 52.472656 27.308594 C 53.144531 27.714844 53.289062 28.476562 53.324219 28.652344 C 53.335938 28.710938 53.351562 28.953125 53.335938 29.269531 L 53.335938 29.265625 C 53.324219 29.582031 53.289062 29.980469 53.242188 30.433594 C 53.148438 31.34375 52.992188 32.460938 52.792969 33.496094 C 52.617188 34.4375 51.851562 35.03125 51.027344 35.214844 C 50.207031 35.398438 49.390625 35.164062 49.058594 34.496094 C 48.765625 33.910156 48.941406 33.601562 49.15625 33.316406 C 49.71875 32.570312 50.949219 33.214844 50.632812 34.113281 C 51 34.035156 51.332031 32.617188 49.601562 32.335938 C 49.140625 32.261719 48.785156 32.144531 48.214844 32.179688 C 47.078125 32.25 45.570312 32.824219 43.964844 34.683594 C 42.359375 36.542969 41.820312 38.253906 41.785156 39.546875 C 41.765625 40.191406 41.863281 40.625 42.046875 41.128906 C 42.429688 42.199219 43.4375 42.5 43.785156 42 C 43.304688 42.371094 42.546875 41.761719 42.664062 40.984375 C 42.707031 40.726562 42.914062 40.449219 43.273438 40.34375 C 43.636719 40.238281 44.046875 40.332031 44.316406 40.664062 C 44.582031 40.996094 44.730469 41.59375 44.449219 42.558594 C 44.175781 43.476562 43.441406 43.945312 42.542969 44.128906 C 41.644531 44.316406 40.605469 44.191406 39.851562 43.898438 C 38.074219 43.207031 36.515625 41.738281 37.0625 38.34375 C 36.816406 38.515625 36.441406 39.472656 34.9375 40.207031 C 34.332031 40.390625 33.695312 40.371094 33.1875 40.339844 C 32.601562 40.300781 31.757812 40.496094 31.03125 40.6875 C 30.863281 40.734375 30.738281 40.769531 30.632812 40.800781 C 30.664062 40.695312 30.699219 40.570312 30.742188 40.398438 C 30.9375 39.675781 31.128906 38.832031 31.09375 38.246094 C 31.058594 37.738281 31.042969 37.097656 31.226562 36.496094 C 31.960938 34.988281 32.914062 34.617188 33.085938 34.371094 C 29.691406 34.917969 28.226562 33.359375 27.53125 31.582031 C 27.242188 30.828125 27.113281 29.789062 27.300781 28.890625 C 27.488281 27.992188 27.953125 27.257812 28.871094 26.984375 C 29.835938 26.699219 30.433594 26.851562 30.765625 27.117188 C 31.097656 27.386719 31.191406 27.796875 31.085938 28.160156 C 30.980469 28.519531 30.703125 28.726562 30.445312 28.769531 C 29.667969 28.886719 29.058594 28.128906 29.433594 27.648438 C 28.929688 27.996094 29.230469 29.003906 30.300781 29.386719 C 30.804688 29.570312 31.238281 29.664062 31.886719 29.648438 C 33.175781 29.613281 34.886719 29.070312 36.746094 27.46875 C 38.605469 25.859375 39.179688 24.351562 39.25 23.214844 C 39.285156 22.648438 39.167969 22.289062 39.09375 21.832031 C 38.808594 20.097656 37.394531 20.429688 37.316406 20.796875 C 38.210938 20.484375 38.859375 21.710938 38.113281 22.273438 C 37.828125 22.488281 37.519531 22.664062 36.933594 22.375 C 36.265625 22.039062 36.03125 21.222656 36.214844 20.402344 C 36.398438 19.582031 36.988281 18.816406 37.929688 18.636719 C 38.96875 18.4375 40.082031 18.28125 40.992188 18.1875 C 41.445312 18.140625 41.847656 18.109375 42.160156 18.09375 Z M 42.160156 18.09375 "/>
<path style=" stroke:none;fill-rule:nonzero;fill:rgb(0%,0%,0%);fill-opacity:1;" d="M 32.953125 28.058594 C 32.953125 28.058594 27.421875 19.808594 27.679688 19.011719 C 28.804688 20.816406 33.1875 27.285156 33.960938 27.660156 C 32.835938 26.113281 31.054688 23.277344 31.054688 23.277344 C 31.054688 23.277344 33.867188 27.003906 34.335938 27.191406 C 33.773438 26.347656 31.570312 23.324219 31.59375 23.019531 C 32.507812 24.238281 34.59375 26.933594 34.875 27.050781 C 34.289062 26.160156 32.132812 23.089844 32.0625 22.738281 C 33.492188 24.472656 34.875 26.441406 35.367188 26.628906 C 34.945312 26.089844 32.53125 22.574219 32.53125 22.574219 C 32.53125 22.574219 35.507812 26.183594 35.8125 26.277344 C 35.4375 25.785156 32.976562 22.621094 33.046875 22.269531 C 33.492188 23.042969 36.304688 26.066406 36.304688 26.066406 C 36.304688 26.066406 33.597656 22.410156 33.609375 21.976562 C 34.160156 22.703125 36.246094 25.550781 36.714844 25.703125 C 36.269531 25.152344 34.125 22 34.136719 21.707031 C 34.570312 22.527344 36.878906 25.210938 37.125 25.292969 C 36.808594 24.941406 34.394531 21.660156 34.464844 21.355469 C 34.78125 21.929688 37.183594 24.789062 37.488281 24.871094 C 36.820312 24.238281 34.769531 21.15625 34.804688 21.039062 C 35.121094 21.554688 37.605469 24.507812 37.910156 24.519531 C 37.238281 24.21875 34.921875 20.796875 35.261719 20.570312 C 36.015625 21.941406 37.386719 22.9375 38.695312 23.96875 L 38.433594 25.558594 L 37.230469 26.792969 L 33.761719 28.902344 Z M 43.375 38.476562 C 43.375 38.476562 51.625 44.007812 52.421875 43.75 C 50.617188 42.625 44.148438 38.242188 43.773438 37.46875 C 45.320312 38.59375 48.15625 40.375 48.15625 40.375 C 48.15625 40.375 44.429688 37.5625 44.242188 37.09375 C 45.085938 37.65625 48.109375 39.859375 48.414062 39.835938 C 47.195312 38.921875 44.5 36.835938 44.382812 36.554688 C 45.273438 37.140625 48.34375 39.296875 48.695312 39.367188 C 46.960938 37.9375 44.992188 36.554688 44.804688 36.0625 C 45.34375 36.484375 48.859375 38.898438 48.859375 38.898438 C 48.859375 38.898438 45.25 35.921875 45.15625 35.617188 C 45.648438 35.992188 48.8125 38.453125 49.164062 38.382812 C 48.390625 37.9375 45.367188 35.125 45.367188 35.125 C 45.367188 35.125 49.023438 37.832031 49.457031 37.820312 C 48.730469 37.269531 45.882812 35.183594 45.730469 34.714844 C 46.28125 35.160156 49.433594 37.304688 49.726562 37.292969 C 48.90625 36.859375 46.222656 34.550781 46.140625 34.304688 C 46.492188 34.621094 49.773438 37.035156 50.078125 36.964844 C 49.503906 36.648438 46.644531 34.246094 46.5625 33.941406 C 47.195312 34.609375 50.277344 36.660156 50.394531 36.625 C 49.878906 36.308594 46.925781 33.824219 46.914062 33.519531 C 47.214844 34.191406 50.636719 36.507812 50.863281 36.167969 C 49.488281 35.414062 48.496094 34.042969 47.464844 32.734375 L 45.871094 32.996094 L 44.640625 34.199219 L 42.53125 37.667969 Z M 43.375 38.476562 "/>
<path style=" stroke:none;fill-rule:nonzero;fill:rgb(0%,0%,0%);fill-opacity:1;" d="M 27.578125 15.84375 C 28.210938 15.433594 28.496094 15.398438 29.074219 14.835938 C 28.703125 15.765625 28.394531 15.710938 27.578125 15.84375 Z M 55.589844 43.847656 C 56 43.214844 56.035156 42.933594 56.597656 42.355469 C 55.667969 42.722656 55.722656 43.03125 55.589844 43.847656 Z M 26.871094 15.207031 C 28 14.730469 28.167969 14.511719 28.746094 13.949219 C 28.460938 14.964844 28.019531 14.972656 26.871094 15.207031 Z M 56.226562 44.554688 C 56.703125 43.425781 56.921875 43.257812 57.484375 42.679688 C 56.46875 42.964844 56.460938 43.40625 56.226562 44.554688 Z M 26.308594 14.636719 C 27.621094 14.023438 27.8125 13.742188 28.484375 13.015625 C 28.152344 14.324219 27.640625 14.339844 26.308594 14.636719 Z M 56.796875 45.117188 C 57.410156 43.804688 57.691406 43.613281 58.417969 42.941406 C 57.109375 43.273438 57.097656 43.785156 56.796875 45.117188 Z M 25.265625 14.027344 C 27.585938 13.257812 27.691406 13.0625 28.566406 11.667969 C 27.933594 13.683594 27.535156 13.773438 25.265625 14.027344 Z M 57.40625 46.160156 C 58.179688 43.839844 58.371094 43.734375 59.765625 42.859375 C 57.75 43.492188 57.660156 43.890625 57.40625 46.160156 Z M 24.855469 13.289062 C 27.304688 12.6875 27.496094 11.914062 28.15625 10.273438 C 27.765625 12.695312 27.371094 13.109375 24.855469 13.289062 Z M 58.144531 46.570312 C 58.746094 44.121094 59.519531 43.929688 61.160156 43.269531 C 58.738281 43.660156 58.328125 44.054688 58.144531 46.570312 Z M 22.875 12.476562 C 26.679688 12.007812 27.332031 8.878906 27.792969 6.644531 C 28.183594 9.21875 26.550781 12.929688 22.875 12.476562 Z M 58.960938 48.550781 C 59.425781 44.746094 62.554688 44.09375 64.789062 43.632812 C 62.214844 43.242188 58.503906 44.875 58.960938 48.550781 Z M 23.5 12.957031 C 27.84375 11.925781 27.253906 9.921875 28.160156 7.996094 C 27.941406 10.585938 27.859375 12.507812 23.5 12.957031 Z M 58.476562 47.925781 C 59.507812 43.582031 61.511719 44.171875 63.4375 43.265625 C 60.847656 43.484375 58.925781 43.566406 58.476562 47.925781 Z M 21.390625 12.058594 C 27.589844 11.476562 26.792969 5.085938 28.132812 3.675781 C 27.671875 6.789062 26.660156 13.042969 21.390625 12.058594 Z M 59.375 50.035156 C 59.957031 43.835938 66.347656 44.632812 67.757812 43.289062 C 64.644531 43.75 58.390625 44.769531 59.375 50.035156 Z M 59.375 50.035156 "/>
<g clip-path="url(#clip3)" clip-rule="nonzero">
<path style="fill:none;stroke-width:0.467717;stroke-linecap:butt;stroke-linejoin:miter;stroke:rgb(0%,0%,0%);stroke-opacity:1;stroke-miterlimit:4;" d="M 0 12.636719 L 14.226562 12.636719 C 15.148438 12.636719 16.28125 13.613281 16.242188 14.535156 C 16.195312 15.613281 15.515625 16.996094 13.710938 16.550781 M 58.804688 71.425781 L 58.800781 57.199219 C 58.800781 56.277344 57.824219 55.148438 56.902344 55.1875 C 55.824219 55.230469 54.441406 55.914062 54.886719 57.71875 "/>
</g>
<g clip-path="url(#clip4)" clip-rule="nonzero">
<path style=" stroke:none;fill-rule:nonzero;fill:rgb(0%,0%,0%);fill-opacity:1;" d="M 0 4.589844 L 0 5.054688 L 25.152344 5.054688 L 24.621094 4.589844 Z M 66.851562 71.425781 L 66.386719 71.425781 L 66.378906 46.273438 L 66.84375 46.804688 Z M 66.851562 71.425781 "/>
</g>
<path style=" stroke:none;fill-rule:nonzero;fill:rgb(0%,0%,0%);fill-opacity:1;" d="M 53.039062 18.332031 C 53.039062 18.332031 61.453125 9.453125 64.476562 8.675781 C 61.949219 10.578125 56.890625 15.050781 56.890625 15.050781 C 56.890625 15.050781 63.792969 9.488281 64.691406 9.289062 C 64.367188 9.683594 57.683594 14.949219 57.371094 15.445312 C 58.035156 14.933594 64.433594 9.929688 65.230469 10.125 C 64.746094 10.320312 57.972656 15.585938 57.972656 15.585938 C 57.972656 15.585938 64.929688 10.710938 66.054688 10.804688 C 63.710938 12.023438 58.480469 15.847656 58.480469 15.847656 C 58.480469 15.847656 65.882812 11.3125 66.914062 11.40625 C 62.855469 13.253906 52.625 20.429688 51.941406 23.058594 C 52.691406 19.871094 53.039062 18.332031 53.039062 18.332031 Z M 53.039062 18.332031 "/>
<path style=" stroke:none;fill-rule:nonzero;fill:rgb(0%,0%,0%);fill-opacity:1;" d="M 51.820312 21.613281 L 59.507812 18.050781 L 53.695312 21.613281 C 53.695312 21.613281 59.132812 18.566406 60.867188 18.707031 C 59.085938 18.941406 53.8125 21.964844 53.8125 21.964844 C 53.8125 21.964844 59.59375 19.351562 60.488281 19.550781 C 59.496094 19.71875 54.183594 22.234375 54.183594 22.234375 C 54.183594 22.234375 59.136719 19.914062 60.230469 20.179688 C 58.835938 20.410156 54.515625 22.535156 54.515625 22.535156 C 54.515625 22.535156 59.460938 20.453125 60.257812 20.816406 C 58.929688 20.75 54.878906 23.0625 54.878906 23.0625 C 54.878906 23.0625 59.394531 21.160156 60.15625 21.488281 C 59.226562 21.488281 55.179688 23.5625 55.179688 23.5625 C 55.179688 23.5625 59.550781 21.867188 60.113281 22.234375 C 59.054688 22.234375 55.476562 24.125 55.476562 24.125 C 55.476562 24.125 58.625 22.601562 60.117188 22.898438 C 58.527344 23.296875 53.785156 25.617188 52.890625 26.808594 C 51.464844 26.3125 50.242188 26.015625 50.242188 26.015625 L 51.796875 24.523438 Z M 51.820312 21.613281 "/>
<path style=" stroke:none;fill-rule:nonzero;fill:rgb(0%,0%,0%);fill-opacity:1;" d="M 53.601562 31.925781 C 54.152344 31.53125 57.933594 33.128906 58.910156 35.011719 C 58.628906 33.171875 55.484375 31.558594 54.625 31.292969 C 55.832031 31.488281 57.804688 32.203125 59.167969 33.589844 C 57.992188 31.539062 55.3125 31.203125 54.960938 30.886719 C 55.628906 31.074219 58.230469 31.449219 59.179688 32.207031 C 58.6875 31.175781 55.101562 30.355469 55.101562 30.355469 C 55.101562 30.355469 58.335938 30.519531 59.296875 31.222656 C 58.664062 30.308594 55.617188 29.628906 55.617188 29.628906 C 55.4375 29.5 58.175781 29.683594 59.25 30.261719 C 58.617188 29.371094 55.421875 28.945312 55.21875 29.066406 C 54.984375 28.773438 58.269531 28.601562 59.15625 29.019531 C 58.546875 28.289062 55.167969 28.175781 55.007812 28.339844 C 54.734375 27.957031 57.503906 27.773438 59.039062 27.800781 C 56.554688 27.308594 53.902344 27.730469 54.070312 28.105469 Z M 53.601562 31.925781 "/>
<path style=" stroke:none;fill-rule:nonzero;fill:rgb(0%,0%,0%);fill-opacity:1;" d="M 51.964844 27.636719 C 49.910156 27.140625 47.023438 26.542969 45.035156 27.738281 C 47.421875 26.609375 51.929688 28.136719 51.929688 28.136719 C 50.40625 27.871094 46.757812 27.378906 45.351562 28.128906 C 46.898438 27.519531 51.257812 28.175781 51.867188 28.644531 C 50.976562 28.222656 46.523438 27.941406 45.539062 28.457031 C 46.804688 27.988281 51.164062 28.644531 51.867188 29.019531 C 50.601562 28.597656 46.757812 28.316406 45.867188 28.972656 C 46.898438 28.457031 50.882812 29.066406 51.632812 29.441406 C 50.695312 29.207031 47.085938 28.644531 46.007812 29.300781 C 47.320312 28.785156 51.117188 29.488281 51.445312 29.863281 C 50.554688 29.394531 47.039062 29.207031 46.289062 29.675781 C 47.226562 29.253906 50.8125 29.652344 51.539062 30.214844 C 50.765625 29.722656 47.132812 29.652344 46.476562 29.980469 C 47.25 29.675781 50.976562 30.074219 51.46875 30.566406 C 50.90625 30.144531 47.074219 30.023438 46.628906 30.4375 C 47.125 30.109375 51.035156 30.421875 51.398438 30.886719 C 50.902344 30.457031 47.589844 30.355469 46.792969 30.851562 C 47.753906 30.324219 50.636719 30.65625 51.269531 31.285156 C 50.570312 30.753906 45.632812 30.050781 42.585938 33.988281 C 39.539062 37.925781 40.992188 41.195312 40.992188 41.195312 C 40.460938 40.398438 40.066406 37.152344 40.792969 35.957031 C 39.867188 37.285156 39.800781 39.738281 40.261719 40.796875 C 39.601562 39.140625 39.601562 36.753906 40.328125 35.625 C 39.402344 36.953125 39.136719 38.941406 39.535156 40.199219 C 38.9375 39.007812 39.003906 36.089844 39.800781 35.097656 C 38.804688 36.355469 38.820312 39.171875 39.003906 39.851562 C 38.738281 39.140625 38.574219 36.304688 39.320312 34.832031 C 38.804688 35.675781 38.308594 38.0625 38.539062 39.191406 C 38.207031 38.046875 38.257812 35.230469 38.871094 34.417969 C 38.207031 35.195312 37.570312 37.457031 37.921875 38.652344 C 37.359375 37.316406 37.992188 34.457031 38.484375 33.941406 C 37.59375 34.925781 36.738281 37.683594 36.902344 38.410156 C 36.257812 34.542969 38.84375 30.976562 41.746094 28.9375 C 44.554688 26.964844 47.359375 25.871094 51.964844 27.636719 Z M 51.964844 27.636719 "/>
<path style=" stroke:none;fill-rule:nonzero;fill:rgb(0%,0%,0%);fill-opacity:1;" d="M 51.453125 19.964844 C 50.6875 21.855469 51.425781 22.75 50.890625 23.6875 C 50.1875 24.914062 48.285156 26.148438 47.6875 26.476562 C 47.089844 26.808594 43.328125 28.101562 43.328125 28.101562 C 43.824219 27.382812 46.710938 26.664062 47.03125 26.152344 C 46.175781 26.554688 44.835938 26.742188 44.835938 26.742188 C 44.835938 26.742188 47.953125 25.683594 48.949219 24.554688 C 47.027344 25.757812 46.164062 25.683594 46.164062 25.683594 C 46.164062 25.683594 48.308594 24.878906 48.875 24.007812 C 47.6875 24.671875 47.082031 24.621094 47.089844 24.621094 C 47.089844 24.621094 49.34375 23.429688 49.675781 22.832031 C 49.246094 23.429688 47.789062 23.660156 47.789062 23.660156 C 47.789062 23.660156 49.328125 23.136719 49.726562 22.308594 C 49.234375 22.832031 48.484375 22.863281 48.484375 22.863281 C 48.484375 22.863281 50.5625 21.273438 51.453125 19.964844 Z M 51.453125 19.964844 "/>
<path style=" stroke:none;fill-rule:nonzero;fill:rgb(0%,0%,0%);fill-opacity:1;" d="M 39.070312 31.714844 C 39.070312 31.714844 36.21875 35.226562 36.152344 37.546875 C 36.019531 35.359375 37.214844 33.703125 37.214844 33.703125 C 37.214844 33.703125 35.09375 37.53125 35.09375 38.460938 C 34.960938 37.132812 35.6875 35.757812 35.6875 35.757812 C 35.6875 35.757812 34.527344 37.898438 34.59375 38.757812 C 34.398438 38.226562 34.578125 36.921875 34.578125 36.921875 C 34.417969 37.324219 34.015625 38.332031 34.015625 38.859375 C 33.796875 38.21875 33.984375 37.359375 33.984375 37.359375 C 33.75 37.785156 33.558594 38.136719 33.550781 38.957031 C 33.480469 38.800781 33.433594 38.546875 33.414062 38.234375 C 33.34375 38.191406 33.199219 38.835938 33.089844 39.269531 C 33.066406 39.09375 33.074219 38.800781 33.082031 38.640625 C 33.089844 38.546875 32.675781 38.957031 32.511719 39.621094 C 32.417969 39.339844 32.757812 38.25 32.964844 37.917969 C 32.96875 38.121094 32.945312 38.21875 32.992188 38.34375 C 33.003906 38.058594 33.28125 37.191406 33.292969 37.113281 C 33.320312 37.421875 33.355469 37.546875 33.410156 37.703125 C 33.5 37.371094 33.695312 36.378906 33.898438 36.289062 C 33.660156 37.007812 33.75 37.1875 33.75 37.1875 C 33.75 37.1875 34.082031 35.796875 34.378906 35.40625 C 34.292969 35.859375 34.230469 36.234375 34.226562 36.832031 C 34.304688 35.933594 34.941406 35.050781 35.074219 34.902344 C 34.980469 35.355469 34.890625 35.824219 34.9375 36.222656 C 34.9375 36.222656 35.578125 34.574219 36.1875 33.941406 C 35.902344 34.777344 35.882812 35.066406 35.882812 35.066406 C 35.882812 35.066406 37.25 31.183594 40.066406 30.503906 C 39.320312 31.484375 39.070312 31.714844 39.070312 31.714844 Z M 39.070312 31.714844 "/>
<path style=" stroke:none;fill-rule:nonzero;fill:rgb(0%,0%,0%);fill-opacity:1;" d="M 37.941406 28.003906 C 37.941406 28.003906 40.328125 25.683594 40.726562 23.429688 C 41.125 21.175781 39.203125 18.058594 38.273438 18.390625 C 37.347656 18.722656 36.816406 18.789062 36.816406 18.789062 C 36.816406 18.789062 38.40625 17.527344 39.667969 20.578125 C 40.925781 23.628906 36.285156 27.671875 36.285156 27.671875 C 36.285156 27.671875 33.171875 29.859375 31.246094 29.992188 C 29.324219 30.125 27.070312 28.597656 28.597656 26.875 C 27.105469 28.164062 27.535156 30.128906 31.113281 30.523438 C 34.804688 30.925781 37.941406 28.003906 37.941406 28.003906 Z M 37.941406 28.003906 "/>
<path style=" stroke:none;fill-rule:nonzero;fill:rgb(0%,0%,0%);fill-opacity:1;" d="M 38.226562 18.238281 C 38.226562 18.238281 40.78125 20.746094 40.476562 22.503906 C 40.851562 21.121094 40.59375 20.019531 40.078125 19.152344 C 41.15625 21.074219 41.273438 22.738281 41.015625 23.464844 C 41.484375 22.292969 41.085938 19.972656 40.664062 19.058594 C 41.507812 20.582031 41.90625 22.550781 41.742188 23.230469 C 42.117188 22.105469 41.484375 19.667969 41.226562 18.941406 C 42.234375 20.863281 42.5625 22.292969 42.28125 23.066406 C 42.75 22.035156 42 19.152344 41.882812 18.894531 C 42.914062 21.238281 43.101562 22.199219 42.914062 22.878906 C 43.382812 22.128906 42.65625 19.457031 42.445312 18.964844 C 43.289062 20.582031 43.710938 21.800781 43.546875 22.644531 C 43.851562 21.636719 43.265625 19.316406 43.03125 18.917969 C 43.757812 20.042969 44.320312 21.988281 44.226562 22.550781 C 44.460938 21.613281 44.015625 19.175781 43.570312 18.800781 C 44.578125 19.902344 44.765625 22.457031 44.765625 22.457031 C 44.765625 22.457031 44.765625 19.480469 44.460938 18.800781 C 44.15625 18.121094 42.914062 17.652344 42.914062 17.652344 Z M 38.226562 18.238281 "/>
<path style=" stroke:none;fill-rule:nonzero;fill:rgb(0%,0%,0%);fill-opacity:1;" d="M 28.332031 27.175781 C 28.332031 27.175781 27.4375 28.269531 28.398438 29.195312 C 29.359375 30.125 29.722656 30.457031 30.984375 30.820312 C 28.730469 30.523438 27.800781 29.460938 27.800781 29.460938 C 27.800781 29.460938 28.828125 30.6875 30.152344 31.152344 C 28.628906 30.6875 27.832031 30.125 27.832031 30.125 C 27.832031 30.125 29.722656 31.648438 30.386719 31.816406 C 29.65625 31.75 28.296875 31.117188 28.164062 30.917969 C 28.761719 31.550781 29.789062 32.179688 30.1875 32.277344 C 29.65625 32.210938 28.265625 31.75 27.933594 31.417969 C 28.5625 32.011719 29.589844 32.742188 30.085938 32.875 C 29.425781 32.777344 28.164062 32.113281 28.164062 32.113281 C 28.164062 32.113281 29.257812 33.039062 29.890625 33.339844 C 29.226562 33.171875 28.265625 32.675781 28.132812 32.410156 C 28.597656 33.007812 29.457031 33.738281 29.789062 33.902344 C 29.257812 33.703125 27.898438 32.742188 27.898438 32.742188 L 26.90625 30.355469 L 27.105469 28.433594 L 27.964844 27.109375 Z M 28.332031 27.175781 "/>
<path style=" stroke:none;fill-rule:nonzero;fill:rgb(0%,0%,0%);fill-opacity:1;" d="M 42.882812 7.757812 C 42.988281 8.441406 43.75 11.578125 42.746094 13.191406 C 43.917969 12.175781 43.496094 8.726562 42.882812 7.757812 Z M 42.882812 7.757812 "/>
<path style=" stroke:none;fill-rule:nonzero;fill:rgb(0%,0%,0%);fill-opacity:1;" d="M 43.925781 8.035156 C 43.925781 8.035156 44.660156 11.832031 44.507812 13.539062 C 45.082031 12.519531 44.476562 8.699219 43.925781 8.035156 Z M 43.0625 7.46875 C 43.179688 7.390625 43.972656 10.445312 43.832031 13.394531 C 44.316406 11.105469 44.210938 9.050781 43.0625 7.46875 Z M 42.203125 7.992188 C 42.203125 7.992188 43.183594 11.703125 42.183594 13.355469 C 43.355469 12.339844 42.898438 8.847656 42.203125 7.992188 Z M 40.515625 7.402344 C 40.515625 7.402344 42.628906 11.320312 41.835938 13.46875 C 42.996094 12.011719 41.546875 7.632812 40.515625 7.402344 Z M 39.878906 7.519531 C 39.878906 7.519531 41.597656 10.542969 41.433594 13.453125 C 42.117188 11.71875 40.910156 7.75 39.878906 7.519531 Z M 38.28125 7.28125 C 38.296875 7.207031 40.84375 9.65625 40.859375 13.644531 C 41.546875 11.441406 39.695312 7.273438 38.28125 7.28125 Z M 37.683594 7.8125 C 37.761719 7.617188 40.585938 11.214844 40.074219 14.058594 C 41.105469 12.054688 39.097656 7.804688 37.683594 7.8125 Z M 36.9375 9.066406 C 36.9375 9.066406 39.804688 11.671875 39.523438 13.882812 C 40.402344 12.046875 38.351562 9.058594 36.9375 9.066406 Z M 36.753906 10 C 36.753906 10 38.96875 11.855469 39.011719 14.242188 C 39.621094 12.511719 38.003906 9.96875 36.753906 10 Z M 35.269531 11.492188 C 35.269531 11.492188 38.859375 12.882812 38.777344 14.820312 C 39.488281 13.132812 36.433594 11.027344 35.269531 11.492188 Z M 34.429688 12.292969 C 34.429688 12.292969 38.207031 13.019531 38.472656 14.945312 C 38.871094 13.152344 35.492188 11.628906 34.429688 12.292969 Z M 34.429688 12.292969 "/>
<path style=" stroke:none;fill-rule:nonzero;fill:rgb(0%,0%,0%);fill-opacity:1;" d="M 53.238281 6.507812 C 53.238281 6.507812 52.976562 9.851562 52.390625 11.253906 C 53.207031 10.515625 53.601562 7.179688 53.238281 6.507812 Z M 52.859375 6.800781 C 52.859375 6.800781 52.382812 10.355469 51.710938 11.816406 C 52.570312 11.082031 53.179688 7.542969 52.859375 6.800781 Z M 52.265625 7.199219 C 52.265625 7.199219 51.953125 10.636719 51.28125 12.210938 C 52.140625 11.421875 52.582031 8 52.265625 7.199219 Z M 51.667969 7.730469 C 51.667969 7.730469 51.390625 11.003906 50.714844 12.578125 C 51.578125 11.785156 51.984375 8.53125 51.667969 7.730469 Z M 51.070312 7.863281 C 51.070312 7.863281 50.460938 11.566406 50.054688 13.175781 C 50.78125 12.257812 51.390625 8.664062 51.070312 7.863281 Z M 50.207031 7.996094 C 50.207031 7.996094 49.730469 11.832031 49.058594 13.40625 C 49.921875 12.613281 50.527344 8.796875 50.207031 7.996094 Z M 49.546875 8.195312 C 49.546875 8.195312 49.070312 12.03125 48.394531 13.605469 C 49.257812 12.8125 49.863281 8.996094 49.546875 8.195312 Z M 49.015625 8.128906 C 49.015625 8.128906 48.445312 12.152344 47.773438 13.726562 C 48.632812 12.933594 49.335938 8.929688 49.015625 8.128906 Z M 48.417969 8.09375 C 48.417969 8.09375 47.941406 12.019531 46.941406 14.207031 C 48.148438 13.203125 48.734375 8.894531 48.417969 8.09375 Z M 54.160156 5.445312 C 54.160156 5.445312 53.683594 9.28125 53.007812 10.855469 C 53.871094 10.066406 54.476562 6.246094 54.160156 5.445312 Z M 54.160156 5.445312 "/>
<path style=" stroke:none;fill-rule:nonzero;fill:rgb(0%,0%,0%);fill-opacity:1;" d="M 43.667969 16.925781 C 43.667969 16.925781 43.480469 15.796875 43.070312 15.394531 C 43.324219 16.421875 43.039062 17.335938 43.039062 17.335938 C 43.039062 17.335938 42.988281 16.015625 42.332031 15.621094 C 42.679688 16.9375 42.285156 17.371094 42.285156 17.371094 C 42.285156 17.371094 42.230469 16.050781 41.769531 15.863281 C 42 16.75 41.257812 17.316406 41.257812 17.316406 C 41.257812 17.316406 41.175781 15.972656 40.585938 15.703125 C 40.765625 16.730469 40.339844 17.296875 40.339844 17.296875 C 40.339844 17.296875 40.316406 16.214844 39.765625 15.984375 C 39.921875 16.722656 39.515625 17.355469 39.515625 17.355469 C 39.515625 17.355469 39.167969 16.140625 38.804688 15.871094 C 39.097656 16.996094 38.898438 17.617188 38.898438 17.617188 L 38.675781 18.015625 L 43.550781 17.878906 Z M 43.667969 16.925781 "/>
<path style=" stroke:none;fill-rule:nonzero;fill:rgb(0%,0%,0%);fill-opacity:1;" d="M 44.96875 17.269531 C 44.96875 17.269531 45.699219 15.683594 46.28125 15.238281 C 45.539062 16.660156 45.347656 18.105469 45.347656 18.105469 C 45.347656 18.105469 46.050781 16.1875 46.859375 15.84375 C 45.878906 17.652344 46.035156 18.433594 46.035156 18.433594 C 46.035156 18.433594 46.738281 16.515625 47.261719 16.40625 C 46.609375 17.625 46.878906 18.835938 46.878906 18.835938 C 46.878906 18.835938 47.367188 17.128906 48.050781 16.949219 C 47.375 18.394531 47.574219 18.835938 47.574219 18.835938 C 47.574219 18.835938 47.996094 17.105469 48.625 16.964844 C 48.117188 17.996094 48.394531 18.808594 48.394531 18.808594 C 48.394531 18.808594 48.8125 17.613281 49.289062 17.347656 C 49.160156 17.65625 49.089844 18.59375 49.464844 18.824219 C 49.511719 18.328125 49.378906 17.660156 50.222656 17.148438 C 50.027344 17.671875 50.398438 19.457031 50.398438 19.457031 L 47.460938 19.503906 L 45.542969 21.035156 L 44.605469 18.71875 Z M 44.96875 17.269531 "/>
<path style="fill:none;stroke-width:1.012448;stroke-linecap:round;stroke-linejoin:miter;stroke:rgb(0%,0%,0%);stroke-opacity:1;stroke-miterlimit:4;" d="M 41.191406 30.941406 C 41.191406 31.777344 40.515625 32.453125 39.679688 32.453125 C 38.84375 32.453125 38.167969 31.777344 38.167969 30.941406 C 38.167969 30.105469 38.84375 29.429688 39.679688 29.429688 C 40.515625 29.429688 41.191406 30.105469 41.191406 30.941406 Z M 41.191406 30.941406 "/>
<path style=" stroke:none;fill-rule:nonzero;fill:rgb(100%,100%,100%);fill-opacity:1;" d="M 41.191406 30.941406 C 41.191406 31.777344 40.515625 32.453125 39.679688 32.453125 C 38.84375 32.453125 38.167969 31.777344 38.167969 30.941406 C 38.167969 30.105469 38.84375 29.429688 39.679688 29.429688 C 40.515625 29.429688 41.191406 30.105469 41.191406 30.941406 Z M 41.191406 30.941406 "/>
<path style=" stroke:none;fill-rule:nonzero;fill:rgb(0%,0%,0%);fill-opacity:1;" d="M 38.203125 30.378906 C 38.203125 30.378906 38.0625 30.847656 38.296875 30.847656 C 38.53125 30.847656 38.671875 30.121094 39 30.003906 C 39.328125 29.886719 39.164062 29.582031 38.859375 29.605469 C 39.1875 29.417969 39.914062 29.277344 39.914062 29.277344 L 40.78125 29.792969 C 40.78125 29.792969 40.921875 30.566406 40.21875 31.292969 C 39.515625 32.019531 38.90625 32.488281 38.625 32.136719 C 38.34375 31.785156 37.875 31.292969 37.875 31.292969 Z M 38.203125 30.378906 "/>
</g>
</svg>
