<?xml version="1.0" encoding="UTF-8"?>
<svg xmlns="http://www.w3.org/2000/svg" xmlns:xlink="http://www.w3.org/1999/xlink" width="87.977287pt" height="87.973106pt" viewBox="0 0 87.977287 87.973106" version="1.1">
<defs>
<clipPath id="clip1">
  <path d="M 2 0 L 87.976562 0 L 87.976562 49 L 2 49 Z M 2 0 "/>
</clipPath>
<clipPath id="clip2">
  <path d="M 51 0 L 87.976562 0 L 87.976562 37 L 51 37 Z M 51 0 "/>
</clipPath>
<clipPath id="clip3">
  <path d="M 0 0 L 87.976562 0 L 87.976562 44 L 0 44 Z M 0 0 "/>
</clipPath>
<clipPath id="clip4">
  <path d="M 0 0 L 87.976562 0 L 87.976562 44 L 0 44 Z M 0 0 "/>
</clipPath>
<clipPath id="clip5">
  <path d="M 56 0 L 87.976562 0 L 87.976562 17 L 56 17 Z M 56 0 "/>
</clipPath>
<clipPath id="clip6">
  <path d="M 0 0 L 87.976562 0 L 87.976562 87.972656 L 0 87.972656 Z M 0 0 "/>
</clipPath>
<filter id="alpha" filterUnits="objectBoundingBox" x="0%" y="0%" width="100%" height="100%">
  <feColorMatrix type="matrix" in="SourceGraphic" values="0 0 0 0 1 0 0 0 0 1 0 0 0 0 1 0 0 0 1 0"/>
</filter>
<mask id="mask0">
  <g filter="url(#alpha)">
<rect x="0" y="0" width="87.977287" height="87.973106" style="fill:rgb(0%,0%,0%);fill-opacity:0.994;stroke:none;"/>
  </g>
</mask>
<clipPath id="clip8">
  <path d="M 13 0 L 87.976562 0 L 87.976562 3 L 13 3 Z M 13 0 "/>
</clipPath>
<clipPath id="clip7">
  <rect x="0" y="0" width="88" height="88"/>
</clipPath>
<g id="surface5" clip-path="url(#clip7)">
<g clip-path="url(#clip8)" clip-rule="nonzero">
<path style=" stroke:none;fill-rule:nonzero;fill:rgb(0%,0%,0%);fill-opacity:1;" d="M 14.765625 0 L 13.1875 1.773438 L 87.242188 2.0625 L 87.972656 0 Z M 14.765625 0 "/>
</g>
</g>
<clipPath id="clip9">
  <path d="M 54 8 L 87.976562 8 L 87.976562 40 L 54 40 Z M 54 8 "/>
</clipPath>
<clipPath id="clip10">
  <path d="M 68 0 L 87.976562 0 L 87.976562 86 L 68 86 Z M 68 0 "/>
</clipPath>
<clipPath id="clip11">
  <path d="M 50 30 L 87 30 L 87 87.972656 L 50 87.972656 Z M 50 30 "/>
</clipPath>
<clipPath id="clip12">
  <path d="M 38 21 L 87.976562 21 L 87.976562 87.972656 L 38 87.972656 Z M 38 21 "/>
</clipPath>
<clipPath id="clip13">
  <path d="M 41 18 L 87.976562 18 L 87.976562 87.972656 L 41 87.972656 Z M 41 18 "/>
</clipPath>
<clipPath id="clip14">
  <path d="M 44 0 L 87.976562 0 L 87.976562 87.972656 L 44 87.972656 Z M 44 0 "/>
</clipPath>
<clipPath id="clip15">
  <path d="M 44 0 L 87.976562 0 L 87.976562 87.972656 L 44 87.972656 Z M 44 0 "/>
</clipPath>
<clipPath id="clip16">
  <path d="M 71 30 L 84 30 L 84 87.972656 L 71 87.972656 Z M 71 30 "/>
</clipPath>
<clipPath id="clip17">
  <path d="M 71 0 L 87.976562 0 L 87.976562 32 L 71 32 Z M 71 0 "/>
</clipPath>
<clipPath id="clip18">
  <path d="M 44 20 L 87.976562 20 L 87.976562 87.972656 L 44 87.972656 Z M 44 20 "/>
</clipPath>
<clipPath id="clip19">
  <path d="M 0 0 L 87.976562 0 L 87.976562 87.972656 L 0 87.972656 Z M 0 0 "/>
</clipPath>
<mask id="mask1">
  <g filter="url(#alpha)">
<rect x="0" y="0" width="87.977287" height="87.973106" style="fill:rgb(0%,0%,0%);fill-opacity:0.994;stroke:none;"/>
  </g>
</mask>
<clipPath id="clip21">
  <path d="M 85 0 L 87.976562 0 L 87.976562 75 L 85 75 Z M 85 0 "/>
</clipPath>
<clipPath id="clip20">
  <rect x="0" y="0" width="88" height="88"/>
</clipPath>
<g id="surface8" clip-path="url(#clip20)">
<g clip-path="url(#clip21)" clip-rule="nonzero">
<path style=" stroke:none;fill-rule:nonzero;fill:rgb(0%,0%,0%);fill-opacity:1;" d="M 87.976562 73.207031 L 86.203125 74.785156 L 85.910156 0.730469 L 87.972656 0 Z M 87.976562 73.207031 "/>
</g>
</g>
</defs>
<g id="surface1">
<g clip-path="url(#clip1)" clip-rule="nonzero">
<path style=" stroke:none;fill-rule:nonzero;fill:rgb(100%,100%,100%);fill-opacity:1;" d="M 4.753906 0.789062 L 3.226562 4.03125 L 3.347656 4.148438 L 2.066406 6.203125 L 2.28125 6.480469 L 5.34375 9.84375 L 2.363281 12.875 L 3.75 15.5 L 3.4375 16.023438 L 3.175781 16.285156 L 5.023438 17.90625 L 4.28125 19.128906 C 25.386719 18.585938 16.589844 18.328125 37.945312 19.734375 C 48.15625 24.820312 63.074219 34.355469 69.746094 48.398438 L 87.167969 0.441406 L 4.367188 0.367188 Z M 4.753906 0.789062 "/>
</g>
<path style=" stroke:none;fill-rule:nonzero;fill:rgb(50.195312%,50.195312%,50.195312%);fill-opacity:1;" d="M 77.917969 76.230469 L 74.515625 72.824219 L 72.640625 62.460938 L 68.808594 52.539062 L 58.976562 35.925781 L 51.152344 28.441406 L 43.527344 23.394531 L 33.820312 18.488281 L 24.167969 15.003906 L 15.101562 13.507812 L 11.773438 9.6875 L 15.191406 3.96875 L 86.1875 2.023438 L 84.046875 72.046875 Z M 77.917969 76.230469 "/>
<g clip-path="url(#clip2)" clip-rule="nonzero">
<path style="fill:none;stroke-width:1.601575;stroke-linecap:butt;stroke-linejoin:miter;stroke:rgb(0%,0%,0%);stroke-opacity:1;stroke-miterlimit:4;" d="M 60.335938 5.019531 C 60.335938 5.019531 69.707031 5.769531 71.867188 8.863281 C 73.292969 10.90625 73.535156 11.511719 74.445312 13.691406 C 74.445312 13.691406 80.140625 15.046875 81.945312 21.660156 C 82.929688 25.269531 83.257812 27.425781 83.257812 27.425781 "/>
</g>
<path style="fill:none;stroke-width:0.467717;stroke-linecap:butt;stroke-linejoin:miter;stroke:rgb(0%,0%,0%);stroke-opacity:1;stroke-miterlimit:4;" d="M 0.0078125 4.359375 L 3.226562 4.359375 L 14.507812 15.835938 C 22.851562 15.835938 40.757812 20.375 54.46875 34.382812 "/>
<path style="fill:none;stroke-width:1.034646;stroke-linecap:butt;stroke-linejoin:miter;stroke:rgb(0%,0%,0%);stroke-opacity:1;stroke-miterlimit:9.6;" d="M 52.886719 35.328125 C 50.152344 32.476562 33.863281 17.78125 12.953125 17.78125 C 3.664062 8.492188 2.433594 6.960938 2.433594 6.960938 L 0.0078125 6.960938 "/>
<path style="fill:none;stroke-width:1.034646;stroke-linecap:butt;stroke-linejoin:miter;stroke:rgb(0%,0%,0%);stroke-opacity:1;stroke-miterlimit:9.6;" d="M 0.0078125 1.902344 L 3.871094 1.953125 L 15.117188 13.703125 C 24.578125 13.605469 44.261719 21.175781 55.609375 32.605469 "/>
<path style=" stroke:none;fill-rule:nonzero;fill:rgb(100%,100%,100%);fill-opacity:1;" d="M 3.304688 12.34375 L 13.734375 1.929688 L 85.34375 1.9375 C 85.34375 1.9375 85.21875 2.074219 84.964844 2.300781 C 83.757812 3.359375 79.984375 6.230469 76.285156 4.359375 C 76.207031 7.097656 73.804688 7.867188 71.746094 5.882812 C 72.347656 9.097656 69.804688 10.15625 69.804688 10.15625 C 68.675781 6.230469 64.710938 4.828125 62.304688 4.464844 C 59.53125 4.042969 59.835938 5.765625 61.167969 5.734375 C 62.933594 5.699219 68.195312 5.929688 71.546875 9.476562 C 73.285156 11.316406 74.949219 14.992188 74.089844 20.0625 C 72.988281 26.59375 67.632812 29.746094 62.007812 29.75 C 56.078125 29.753906 52.261719 26.429688 48.578125 23.546875 C 44.894531 20.667969 34.582031 12.765625 29.894531 12.96875 C 25.207031 13.167969 26.410156 15.179688 26.410156 15.179688 C 26.410156 15.179688 24.203125 15.109375 24.269531 12.433594 C 24.335938 9.753906 27.214844 7.609375 30.699219 7.410156 C 34.179688 7.210938 36.835938 8.871094 38.09375 10.539062 C 38.496094 8.597656 39.691406 7.484375 41.574219 7.285156 C 43.320312 7.101562 44.839844 8.195312 45.707031 9.777344 C 46.558594 7.804688 48.019531 7.285156 49.398438 7.277344 C 51.007812 7.265625 52.328125 8.320312 52.871094 10.015625 C 54.34375 7.890625 56.042969 7.753906 57.683594 7.746094 C 60.425781 7.730469 63.308594 11.292969 61.5 15.042969 C 59.300781 14.160156 56.878906 16.316406 56.878906 18.929688 C 56.878906 21.539062 58.390625 23.394531 60.296875 24.554688 C 63.25 26.347656 67.277344 25.460938 68.867188 22.878906 C 70.917969 19.550781 71.027344 15.402344 68.820312 12.589844 C 66.609375 9.777344 64.246094 7.007812 57.75 6.671875 C 51.253906 6.339844 15.820312 6.671875 15.820312 6.671875 L 5.675781 16.847656 "/>
<g clip-path="url(#clip3)" clip-rule="nonzero">
<path style="fill:none;stroke-width:1.034643;stroke-linecap:butt;stroke-linejoin:miter;stroke:rgb(0%,0%,0%);stroke-opacity:1;stroke-miterlimit:9.6;" d="M 3.304688 12.34375 L 13.734375 1.929688 L 85.34375 1.9375 C 85.34375 1.9375 85.21875 2.074219 84.964844 2.300781 C 83.757812 3.359375 79.984375 6.230469 76.285156 4.359375 C 76.207031 7.097656 73.804688 7.867188 71.746094 5.882812 C 72.347656 9.097656 69.804688 10.15625 69.804688 10.15625 C 68.675781 6.230469 64.710938 4.828125 62.304688 4.464844 C 59.53125 4.042969 59.835938 5.765625 61.167969 5.734375 C 62.933594 5.699219 68.195312 5.929688 71.546875 9.476562 C 73.285156 11.316406 74.949219 14.992188 74.089844 20.0625 C 72.988281 26.59375 67.632812 29.746094 62.007812 29.75 C 56.078125 29.753906 52.261719 26.429688 48.578125 23.546875 C 44.894531 20.667969 34.582031 12.765625 29.894531 12.96875 C 25.207031 13.167969 26.410156 15.179688 26.410156 15.179688 C 26.410156 15.179688 24.203125 15.109375 24.269531 12.433594 C 24.335938 9.753906 27.214844 7.609375 30.699219 7.410156 C 34.179688 7.210938 36.835938 8.871094 38.09375 10.539062 C 38.496094 8.597656 39.691406 7.484375 41.574219 7.285156 C 43.320312 7.101562 44.839844 8.195312 45.707031 9.777344 C 46.558594 7.804688 48.019531 7.285156 49.398438 7.277344 C 51.007812 7.265625 52.328125 8.320312 52.871094 10.015625 C 54.34375 7.890625 56.042969 7.753906 57.683594 7.746094 C 60.425781 7.730469 63.308594 11.292969 61.5 15.042969 C 59.300781 14.160156 56.878906 16.316406 56.878906 18.929688 C 56.878906 21.539062 58.390625 23.394531 60.296875 24.554688 C 63.25 26.347656 67.277344 25.460938 68.867188 22.878906 C 70.917969 19.550781 71.027344 15.402344 68.820312 12.589844 C 66.609375 9.777344 64.246094 7.007812 57.75 6.671875 C 51.253906 6.339844 15.820312 6.671875 15.820312 6.671875 L 5.675781 16.847656 "/>
</g>
<path style=" stroke:none;fill-rule:nonzero;fill:rgb(0%,0%,0%);fill-opacity:1;" d="M 67.078125 8.382812 C 71.597656 11.414062 72.320312 15.144531 71.898438 18.757812 C 71.421875 22.847656 69.417969 25.257812 67.4375 26.105469 C 64.746094 27.253906 62.183594 27.128906 59.671875 26.28125 C 57.207031 25.453125 53.65625 23.667969 50.339844 19.371094 C 46.953125 14.988281 47.722656 12.347656 48.0625 11.375 C 48.390625 10.4375 49.332031 9.691406 50.316406 10.035156 C 49.503906 9.066406 48.15625 9.527344 47.410156 10.808594 C 46.601562 12.191406 46.066406 14.921875 49.1875 19.515625 C 52.320312 24.128906 56.785156 26.589844 59.402344 27.449219 C 62.175781 28.359375 65.726562 28.074219 67.742188 27.058594 C 69.839844 26.003906 72.210938 23.324219 72.742188 19.019531 C 73.324219 14.292969 70.625 9.828125 67.078125 8.378906 Z M 67.078125 8.382812 "/>
<path style=" stroke:none;fill-rule:nonzero;fill:rgb(0%,0%,0%);fill-opacity:1;" d="M 56.519531 10.539062 C 55.25 10.515625 54.15625 10.898438 53.300781 12.714844 C 51.351562 16.847656 55.601562 22.691406 55.746094 22.855469 C 56.875 23.695312 56.71875 23.535156 57.914062 24.273438 C 57.914062 24.273438 52.347656 16.589844 54.066406 13.140625 C 55.027344 11.207031 56.429688 10.542969 58.816406 11.757812 C 57.96875 10.835938 57.546875 10.5625 56.519531 10.539062 Z M 56.519531 10.539062 "/>
<path style=" stroke:none;fill-rule:nonzero;fill:rgb(0%,0%,0%);fill-opacity:1;" d="M 40.453125 10.5 C 39.976562 12.042969 40.953125 13.535156 41.605469 14.511719 C 42.90625 16.457031 44.636719 18.53125 46.054688 19.785156 C 47.433594 21.003906 50.605469 24.152344 53.351562 24.769531 C 50.863281 22.886719 50.546875 22.4375 49.355469 21.1875 C 47.929688 20.144531 48.136719 20.40625 46.722656 19.109375 C 45.371094 17.867188 43.699219 16.171875 42.476562 14.089844 C 40.132812 10.101562 41.601562 9.726562 42.621094 9.484375 C 41.410156 9.144531 40.71875 9.636719 40.453125 10.5 Z M 40.453125 10.5 "/>
<path style=" stroke:none;fill-rule:nonzero;fill:rgb(0%,0%,0%);fill-opacity:1;" d="M 27.800781 11.113281 C 29.417969 10.546875 31.367188 10.203125 33.324219 11.042969 C 34.53125 11.5625 36.632812 12.835938 38.605469 14.316406 C 40.578125 15.800781 42.679688 17.28125 42.679688 17.28125 L 40.578125 14.449219 C 38.140625 12.972656 36.367188 11.242188 33.15625 10.042969 C 31.507812 9.425781 28.996094 9.5625 27.800781 11.113281 Z M 27.800781 11.113281 "/>
<g clip-path="url(#clip4)" clip-rule="nonzero">
<path style="fill:none;stroke-width:1.034643;stroke-linecap:butt;stroke-linejoin:miter;stroke:rgb(0%,0%,0%);stroke-opacity:1;stroke-miterlimit:9.6;" d="M 0.0078125 13.105469 L 2.542969 13.105469 L 13.734375 1.929688 L 85.34375 1.9375 C 85.34375 1.9375 85.21875 2.074219 84.964844 2.300781 C 83.757812 3.359375 79.984375 6.230469 76.285156 4.359375 C 76.207031 7.097656 73.804688 7.867188 71.746094 5.882812 C 72.347656 9.097656 69.804688 10.15625 69.804688 10.15625 C 68.675781 6.230469 64.710938 4.828125 62.304688 4.464844 C 59.53125 4.042969 59.835938 5.765625 61.167969 5.734375 C 62.933594 5.699219 68.195312 5.929688 71.546875 9.476562 C 73.285156 11.316406 74.949219 14.992188 74.089844 20.0625 C 72.988281 26.59375 67.632812 29.746094 62.007812 29.75 C 56.078125 29.753906 52.261719 26.429688 48.578125 23.546875 C 44.894531 20.667969 34.582031 12.765625 29.894531 12.96875 C 25.207031 13.167969 26.410156 15.179688 26.410156 15.179688 C 26.410156 15.179688 24.203125 15.109375 24.269531 12.433594 C 24.335938 9.753906 27.214844 7.609375 30.699219 7.410156 C 34.179688 7.210938 36.835938 8.871094 38.09375 10.539062 C 38.496094 8.597656 39.691406 7.484375 41.574219 7.285156 C 43.320312 7.101562 44.839844 8.195312 45.707031 9.777344 C 46.558594 7.804688 48.019531 7.285156 49.398438 7.277344 C 51.007812 7.265625 52.328125 8.320312 52.871094 10.015625 C 54.34375 7.890625 56.042969 7.753906 57.683594 7.746094 C 60.425781 7.730469 63.308594 11.292969 61.5 15.042969 C 59.300781 14.160156 56.878906 16.316406 56.878906 18.929688 C 56.878906 21.539062 58.390625 23.394531 60.296875 24.554688 C 63.25 26.347656 67.277344 25.460938 68.867188 22.878906 C 70.917969 19.550781 71.027344 15.402344 68.820312 12.589844 C 66.609375 9.777344 64.246094 7.007812 57.75 6.671875 C 51.253906 6.339844 15.820312 6.671875 15.820312 6.671875 L 4.359375 18.164062 L 0.0078125 18.164062 "/>
</g>
<path style=" stroke:none;fill-rule:nonzero;fill:rgb(0%,0%,0%);fill-opacity:1;" d="M 14.921875 4.019531 L 3.246094 15.554688 L 0.0078125 15.554688 L 0.0078125 16.023438 L 3.4375 16.023438 L 15.109375 4.492188 L 57.214844 4.492188 L 57.789062 4.253906 L 57.214844 4.019531 Z M 14.921875 4.019531 "/>
<path style=" stroke:none;fill-rule:nonzero;fill:rgb(100%,100%,100%);fill-opacity:1;" d="M 84.949219 2.246094 C 84.949219 2.246094 80.769531 6.628906 76.285156 4.359375 C 76.207031 7.097656 73.804688 7.867188 71.746094 5.882812 C 72.347656 9.097656 69.804688 10.15625 69.804688 10.15625 C 68.675781 6.230469 64.710938 4.828125 62.304688 4.464844 "/>
<g clip-path="url(#clip5)" clip-rule="nonzero">
<path style="fill:none;stroke-width:1.034643;stroke-linecap:butt;stroke-linejoin:miter;stroke:rgb(0%,0%,0%);stroke-opacity:1;stroke-miterlimit:4;" d="M 84.949219 2.246094 C 84.949219 2.246094 80.769531 6.628906 76.285156 4.359375 C 76.207031 7.097656 73.804688 7.867188 71.746094 5.882812 C 72.347656 9.097656 69.804688 10.15625 69.804688 10.15625 C 68.675781 6.230469 64.710938 4.828125 62.304688 4.464844 "/>
</g>
<path style=" stroke:none;fill-rule:nonzero;fill:rgb(0%,0%,0%);fill-opacity:1;" d="M 64.402344 3.53125 C 65.203125 3.148438 71.292969 4.84375 70.320312 7.757812 C 69.40625 5.550781 66.070312 3.957031 64.402344 3.53125 Z M 64.402344 3.53125 "/>
<path style=" stroke:none;fill-rule:nonzero;fill:rgb(0%,0%,0%);fill-opacity:1;" d="M 68.339844 3.070312 C 68.339844 3.070312 75.886719 2.121094 74.46875 5.648438 C 73.84375 3.460938 70.828125 3.566406 68.339844 3.070312 Z M 68.339844 3.070312 "/>
<path style=" stroke:none;fill-rule:nonzero;fill:rgb(0%,0%,0%);fill-opacity:1;" d="M 77.628906 2.800781 C 77.628906 2.800781 80.058594 3.871094 81.371094 2.828125 C 80.675781 4.117188 78.632812 4.691406 77.628906 2.800781 Z M 77.628906 2.800781 "/>
<path style="fill:none;stroke-width:1.885039;stroke-linecap:butt;stroke-linejoin:miter;stroke:rgb(0%,0%,0%);stroke-opacity:1;stroke-miterlimit:4;" d="M 0.0078125 1.550781 L 4.179688 1.550781 L 9.003906 6.6875 M 12.539062 10.136719 L 15.242188 13.105469 C 17.765625 12.980469 24.382812 14.347656 29.257812 16.222656 C 34.132812 18.101562 41.070312 21.144531 44.726562 23.582031 C 46.867188 25.011719 55.039062 30.566406 56.351562 32.488281 "/>
<g clip-path="url(#clip6)" clip-rule="nonzero">
<use xlink:href="#surface5" mask="url(#mask0)"/>
</g>
<g clip-path="url(#clip9)" clip-rule="nonzero">
<path style="fill:none;stroke-width:1.601575;stroke-linecap:butt;stroke-linejoin:miter;stroke:rgb(0%,0%,0%);stroke-opacity:1;stroke-miterlimit:4;" d="M 69.269531 17.96875 C 69.269531 17.96875 61.644531 19.691406 63.367188 24.796875 C 65.09375 29.902344 67.414062 31.292969 70.394531 30.363281 C 73.378906 29.4375 72.25 26.1875 72.25 26.1875 C 75.035156 24.597656 80.273438 25.660156 80.871094 29.570312 "/>
</g>
<g clip-path="url(#clip10)" clip-rule="nonzero">
<path style=" stroke:none;fill-rule:nonzero;fill:rgb(100%,100%,100%);fill-opacity:1;" d="M 87.191406 83.21875 L 83.949219 84.746094 L 83.832031 84.625 L 81.777344 85.90625 L 81.5 85.691406 L 78.132812 82.628906 L 75.105469 85.609375 L 72.585938 84.28125 L 71.957031 84.535156 L 71.644531 84.808594 L 70.074219 82.953125 L 68.851562 83.695312 C 69.390625 62.585938 68.808594 52.539062 68.808594 52.539062 L 73.363281 64.875 L 76.59375 75.171875 L 81.199219 75.4375 C 81.199219 75.4375 84.558594 22.121094 87.53125 0.804688 L 87.613281 83.605469 Z M 87.191406 83.21875 "/>
</g>
<g clip-path="url(#clip11)" clip-rule="nonzero">
<path style="fill:none;stroke-width:0.467717;stroke-linecap:butt;stroke-linejoin:miter;stroke:rgb(0%,0%,0%);stroke-opacity:1;stroke-miterlimit:4;" d="M -87.971951 -83.613616 L -84.753201 -83.61389 L -73.470975 -72.138286 C -65.127225 -72.138996 -47.224496 -67.597549 -33.512368 -53.590902 " transform="matrix(-0.0000849964,-1,-1,0.0000849964,0,0)"/>
</g>
<g clip-path="url(#clip12)" clip-rule="nonzero">
<path style="fill:none;stroke-width:1.034646;stroke-linecap:butt;stroke-linejoin:miter;stroke:rgb(0%,0%,0%);stroke-opacity:1;stroke-miterlimit:9.6;" d="M -35.094318 -52.645455 C -37.82503 -55.496785 -54.119248 -70.194619 -75.025497 -70.192842 C -84.315349 -79.481115 -85.545948 -81.01226 -85.545948 -81.01226 L -87.975636 -81.012054 " transform="matrix(-0.0000849964,-1,-1,0.0000849964,0,0)"/>
</g>
<g clip-path="url(#clip13)" clip-rule="nonzero">
<path style="fill:none;stroke-width:1.034646;stroke-linecap:butt;stroke-linejoin:miter;stroke:rgb(0%,0%,0%);stroke-opacity:1;stroke-miterlimit:9.6;" d="M -87.972159 -86.070648 L -84.108874 -86.020195 L -72.861781 -74.267245 C -63.400852 -74.365705 -43.720521 -66.797065 -32.371894 -55.368342 " transform="matrix(-0.0000849964,-1,-1,0.0000849964,0,0)"/>
</g>
<path style=" stroke:none;fill-rule:nonzero;fill:rgb(100%,100%,100%);fill-opacity:1;" d="M 75.636719 84.667969 L 86.046875 74.238281 L 86.035156 2.628906 C 86.035156 2.628906 85.898438 2.753906 85.671875 3.007812 C 84.613281 4.214844 81.742188 7.988281 83.617188 11.6875 C 80.875 11.765625 80.109375 14.167969 82.09375 16.226562 C 78.878906 15.625 77.820312 18.167969 77.820312 18.167969 C 81.742188 19.300781 83.148438 23.261719 83.511719 25.667969 C 83.929688 28.445312 82.210938 28.136719 82.238281 26.808594 C 82.277344 25.039062 82.046875 19.777344 78.496094 16.425781 C 76.65625 14.691406 72.980469 13.027344 67.910156 13.882812 C 61.378906 14.988281 58.230469 20.34375 58.226562 25.96875 C 58.222656 31.894531 61.546875 35.714844 64.425781 39.398438 C 67.308594 43.082031 75.210938 53.394531 75.007812 58.082031 C 74.808594 62.769531 72.800781 61.5625 72.800781 61.5625 C 72.800781 61.5625 72.867188 63.773438 75.546875 63.707031 C 78.222656 63.636719 80.367188 60.757812 80.566406 57.277344 C 80.769531 53.792969 79.105469 51.136719 77.4375 49.882812 C 79.378906 49.476562 80.492188 48.28125 80.691406 46.398438 C 80.875 44.652344 79.78125 43.136719 78.199219 42.265625 C 80.171875 41.417969 80.691406 39.953125 80.699219 38.574219 C 80.710938 36.964844 79.65625 35.644531 77.960938 35.101562 C 80.085938 33.628906 80.222656 31.929688 80.230469 30.289062 C 80.246094 27.546875 76.679688 24.664062 72.929688 26.472656 C 73.8125 28.675781 71.660156 31.09375 69.046875 31.09375 C 66.4375 31.09375 64.578125 29.585938 63.421875 27.679688 C 61.628906 24.726562 62.515625 20.699219 65.09375 19.109375 C 68.421875 17.054688 72.570312 16.945312 75.382812 19.15625 C 78.195312 21.363281 80.964844 23.726562 81.300781 30.222656 C 81.636719 36.71875 81.304688 72.152344 81.304688 72.152344 L 71.132812 82.300781 "/>
<g clip-path="url(#clip14)" clip-rule="nonzero">
<path style="fill:none;stroke-width:1.034643;stroke-linecap:butt;stroke-linejoin:miter;stroke:rgb(0%,0%,0%);stroke-opacity:1;stroke-miterlimit:9.6;" d="M -84.674397 -75.629522 L -74.245594 -86.040564 L -2.636219 -86.034932 C -2.636219 -86.034932 -2.761207 -85.898203 -3.015094 -85.671619 C -4.222036 -84.612922 -7.995229 -81.741508 -11.694607 -83.616194 C -11.772499 -80.873999 -14.174778 -80.10817 -16.23354 -82.09237 C -15.631704 -78.877578 -18.174583 -77.818768 -18.174583 -77.818768 C -19.307729 -81.740546 -23.268786 -83.14646 -25.675067 -83.509536 C -28.452446 -83.927269 -28.143706 -82.208545 -26.815584 -82.236002 C -25.046056 -82.275215 -19.784317 -82.045193 -16.432453 -78.494697 C -14.697922 -76.655001 -13.033547 -72.979361 -13.888585 -67.908976 C -14.993498 -61.377632 -20.348699 -58.228739 -25.973699 -58.224355 C -31.89948 -58.219945 -35.720075 -61.543839 -39.403913 -64.422432 C -43.087752 -67.304931 -53.400924 -75.206399 -58.088406 -75.002875 C -62.775889 -74.803258 -61.568687 -72.795548 -61.568687 -72.795548 C -61.568687 -72.795548 -63.77963 -72.861766 -63.713452 -75.54146 C -63.643367 -78.217247 -60.764643 -80.362023 -57.284191 -80.561537 C -53.799833 -80.764958 -51.143442 -79.101122 -49.889394 -77.43326 C -49.483309 -79.3747 -48.288091 -80.488083 -46.405296 -80.687462 C -44.659218 -80.871204 -43.1435 -79.777583 -42.272271 -78.195626 C -41.424783 -80.168354 -39.959983 -80.68801 -38.581078 -80.695939 C -36.971704 -80.707795 -35.651301 -79.65322 -35.108189 -77.957953 C -33.635713 -80.083079 -31.936506 -80.219942 -30.295882 -80.227894 C -27.553695 -80.243752 -24.67058 -76.677591 -26.478855 -72.927437 C -28.682055 -73.810062 -31.099841 -71.657513 -31.099619 -69.044232 C -31.099397 -66.434857 -29.591426 -64.57561 -27.685078 -63.419522 C -24.731801 -61.626804 -20.704532 -62.513865 -19.114908 -65.092125 C -17.060503 -68.420425 -16.951481 -72.568872 -19.162657 -75.381184 C -21.369927 -78.193496 -23.733444 -80.962826 -30.229566 -81.298212 C -36.725689 -81.633597 -72.159254 -81.298554 -72.159254 -81.298554 L -82.306827 -71.125817 " transform="matrix(-0.0000849964,-1,-1,0.0000849964,0,0)"/>
</g>
<path style=" stroke:none;fill-rule:nonzero;fill:rgb(0%,0%,0%);fill-opacity:1;" d="M 79.59375 20.894531 C 76.558594 16.375 72.832031 15.65625 69.21875 16.074219 C 65.125 16.554688 62.714844 18.554688 61.871094 20.535156 C 60.71875 23.226562 60.847656 25.789062 61.691406 28.304688 C 62.523438 30.765625 64.308594 34.316406 68.605469 37.636719 C 72.988281 41.019531 75.628906 40.25 76.601562 39.910156 C 77.539062 39.582031 78.285156 38.644531 77.941406 37.65625 C 78.910156 38.46875 78.449219 39.816406 77.167969 40.566406 C 75.785156 41.371094 73.054688 41.910156 68.457031 38.789062 C 63.847656 35.65625 61.386719 31.1875 60.523438 28.570312 C 59.617188 25.800781 59.902344 22.25 60.914062 20.234375 C 61.972656 18.136719 64.648438 15.765625 68.957031 15.234375 C 73.679688 14.648438 78.144531 17.347656 79.59375 20.894531 Z M 79.59375 20.894531 "/>
<path style=" stroke:none;fill-rule:nonzero;fill:rgb(0%,0%,0%);fill-opacity:1;" d="M 77.433594 31.457031 C 77.460938 32.726562 77.078125 33.816406 75.261719 34.671875 C 71.125 36.621094 65.285156 32.371094 65.121094 32.226562 C 64.28125 31.097656 64.441406 31.257812 63.703125 30.058594 C 63.703125 30.0625 71.386719 35.628906 74.835938 33.90625 C 76.765625 32.945312 77.429688 31.542969 76.214844 29.15625 C 77.140625 30.003906 77.414062 30.425781 77.433594 31.457031 Z M 77.433594 31.457031 "/>
<path style=" stroke:none;fill-rule:nonzero;fill:rgb(0%,0%,0%);fill-opacity:1;" d="M 77.480469 47.519531 C 75.933594 48 74.441406 47.019531 73.464844 46.367188 C 71.519531 45.066406 69.445312 43.339844 68.191406 41.921875 C 66.972656 40.539062 63.824219 37.371094 63.207031 34.625 C 65.089844 37.113281 65.539062 37.425781 66.789062 38.621094 C 67.832031 40.042969 67.570312 39.835938 68.867188 41.253906 C 70.109375 42.601562 71.804688 44.277344 73.886719 45.5 C 77.875 47.839844 78.25 46.371094 78.492188 45.355469 C 78.832031 46.5625 78.339844 47.253906 77.480469 47.519531 Z M 77.480469 47.519531 "/>
<path style=" stroke:none;fill-rule:nonzero;fill:rgb(0%,0%,0%);fill-opacity:1;" d="M 76.867188 60.171875 C 77.433594 58.554688 77.773438 56.605469 76.933594 54.648438 C 76.417969 53.441406 75.140625 51.339844 73.660156 49.367188 C 72.175781 47.394531 70.695312 45.292969 70.695312 45.292969 L 73.527344 47.394531 C 75.003906 49.835938 76.734375 51.605469 77.933594 54.816406 C 78.550781 56.46875 78.414062 58.976562 76.867188 60.171875 Z M 76.867188 60.171875 "/>
<g clip-path="url(#clip15)" clip-rule="nonzero">
<path style="fill:none;stroke-width:1.034643;stroke-linecap:butt;stroke-linejoin:miter;stroke:rgb(0%,0%,0%);stroke-opacity:1;stroke-miterlimit:9.6;" d="M -87.975113 -74.867522 L -85.436051 -74.867738 L -74.245594 -86.040564 L -2.636219 -86.034932 C -2.636219 -86.034932 -2.761207 -85.898203 -3.015094 -85.671619 C -4.222036 -84.612922 -7.995229 -81.741508 -11.694607 -83.616194 C -11.772499 -80.873999 -14.174778 -80.10817 -16.23354 -82.09237 C -15.631704 -78.877578 -18.174583 -77.818768 -18.174583 -77.818768 C -19.307729 -81.740546 -23.268786 -83.14646 -25.675067 -83.509536 C -28.452446 -83.927269 -28.143706 -82.208545 -26.815584 -82.236002 C -25.046056 -82.275215 -19.784317 -82.045193 -16.432453 -78.494697 C -14.697922 -76.655001 -13.033547 -72.979361 -13.888585 -67.908976 C -14.993498 -61.377632 -20.348699 -58.228739 -25.973699 -58.224355 C -31.89948 -58.219945 -35.720075 -61.543839 -39.403913 -64.422432 C -43.087752 -67.304931 -53.400924 -75.206399 -58.088406 -75.002875 C -62.775889 -74.803258 -61.568687 -72.795548 -61.568687 -72.795548 C -61.568687 -72.795548 -63.77963 -72.861766 -63.713452 -75.54146 C -63.643367 -78.217247 -60.764643 -80.362023 -57.284191 -80.561537 C -53.799833 -80.764958 -51.143442 -79.101122 -49.889394 -77.43326 C -49.483309 -79.3747 -48.288091 -80.488083 -46.405296 -80.687462 C -44.659218 -80.871204 -43.1435 -79.777583 -42.272271 -78.195626 C -41.424783 -80.168354 -39.959983 -80.68801 -38.581078 -80.695939 C -36.971704 -80.707795 -35.651301 -79.65322 -35.108189 -77.957953 C -33.635713 -80.083079 -31.936506 -80.219942 -30.295882 -80.227894 C -27.553695 -80.243752 -24.67058 -76.677591 -26.478855 -72.927437 C -28.682055 -73.810062 -31.099841 -71.657513 -31.099619 -69.044232 C -31.099397 -66.434857 -29.591426 -64.57561 -27.685078 -63.419522 C -24.731801 -61.626804 -20.704532 -62.513865 -19.114908 -65.092125 C -17.060503 -68.420425 -16.951481 -72.568872 -19.162657 -75.381184 C -21.369927 -78.193496 -23.733444 -80.962826 -30.229566 -81.298212 C -36.725689 -81.633597 -72.159254 -81.298554 -72.159254 -81.298554 L -83.623121 -69.809299 L -87.974684 -69.808929 " transform="matrix(-0.0000849964,-1,-1,0.0000849964,0,0)"/>
</g>
<g clip-path="url(#clip16)" clip-rule="nonzero">
<path style=" stroke:none;fill-rule:nonzero;fill:rgb(0%,0%,0%);fill-opacity:1;" d="M 83.957031 73.050781 L 72.425781 84.730469 L 72.425781 87.96875 L 71.957031 87.96875 L 71.957031 84.535156 L 83.488281 72.863281 L 83.484375 30.757812 L 83.71875 30.183594 L 83.953125 30.757812 Z M 83.957031 73.050781 "/>
</g>
<path style=" stroke:none;fill-rule:nonzero;fill:rgb(100%,100%,100%);fill-opacity:1;" d="M 85.726562 3.027344 C 85.726562 3.027344 81.34375 7.203125 83.617188 11.6875 C 80.875 11.765625 80.109375 14.167969 82.09375 16.226562 C 78.878906 15.625 77.820312 18.167969 77.820312 18.167969 C 81.742188 19.300781 83.148438 23.261719 83.511719 25.667969 "/>
<g clip-path="url(#clip17)" clip-rule="nonzero">
<path style="fill:none;stroke-width:1.034643;stroke-linecap:butt;stroke-linejoin:miter;stroke:rgb(0%,0%,0%);stroke-opacity:1;stroke-miterlimit:4;" d="M -3.03463 -85.726305 C -3.03463 -85.726305 -7.210039 -81.343137 -11.694607 -83.616194 C -11.772499 -80.873999 -14.174778 -80.10817 -16.23354 -82.09237 C -15.631704 -78.877578 -18.174583 -77.818768 -18.174583 -77.818768 C -19.307729 -81.740546 -23.268786 -83.14646 -25.675067 -83.509536 " transform="matrix(-0.0000849964,-1,-1,0.0000849964,0,0)"/>
</g>
<path style=" stroke:none;fill-rule:nonzero;fill:rgb(0%,0%,0%);fill-opacity:1;" d="M 84.445312 23.570312 C 84.828125 22.769531 83.128906 16.679688 80.21875 17.652344 C 82.421875 18.566406 84.019531 21.902344 84.445312 23.570312 Z M 84.445312 23.570312 "/>
<path style=" stroke:none;fill-rule:nonzero;fill:rgb(0%,0%,0%);fill-opacity:1;" d="M 84.90625 19.632812 C 84.90625 19.632812 85.851562 12.085938 82.328125 13.507812 C 84.515625 14.128906 84.40625 17.148438 84.90625 19.632812 Z M 84.90625 19.632812 "/>
<path style=" stroke:none;fill-rule:nonzero;fill:rgb(0%,0%,0%);fill-opacity:1;" d="M 85.171875 10.34375 C 85.171875 10.34375 84.101562 7.914062 85.144531 6.601562 C 83.855469 7.296875 83.285156 9.339844 85.171875 10.34375 Z M 85.171875 10.34375 "/>
<g clip-path="url(#clip18)" clip-rule="nonzero">
<path style="fill:none;stroke-width:1.885039;stroke-linecap:butt;stroke-linejoin:miter;stroke:rgb(0%,0%,0%);stroke-opacity:1;stroke-miterlimit:4;" d="M -87.972189 -86.42221 L -83.800314 -86.418659 L -78.975659 -81.286256 M -75.440209 -77.833432 L -72.736832 -74.864911 C -70.213405 -74.990126 -63.596101 -73.623501 -58.720942 -71.748915 C -53.845783 -69.87433 -46.908024 -66.828044 -43.251567 -64.390855 C -41.11082 -62.961349 -32.942379 -57.40345 -31.629716 -55.481687 " transform="matrix(-0.0000849964,-1,-1,0.0000849964,0,0)"/>
</g>
<g clip-path="url(#clip19)" clip-rule="nonzero">
<use xlink:href="#surface8" mask="url(#mask1)"/>
</g>
<path style="fill-rule:nonzero;fill:rgb(100%,100%,100%);fill-opacity:1;stroke-width:1.034643;stroke-linecap:round;stroke-linejoin:miter;stroke:rgb(0%,0%,0%);stroke-opacity:1;stroke-miterlimit:9.6;" d="M 72.378906 24.566406 C 70.117188 28.050781 66.132812 29.746094 62.007812 29.75 C 56.078125 29.753906 52.261719 26.429688 48.578125 23.546875 C 44.894531 20.667969 34.582031 12.765625 29.894531 12.96875 C 25.207031 13.167969 26.410156 15.179688 26.410156 15.179688 C 26.410156 15.179688 24.203125 15.109375 24.269531 12.433594 C 24.335938 9.753906 27.214844 7.609375 30.699219 7.410156 C 34.179688 7.210938 36.835938 8.871094 38.09375 10.539062 C 38.496094 8.597656 39.691406 7.484375 41.574219 7.285156 C 43.320312 7.101562 44.839844 8.195312 45.707031 9.777344 C 46.558594 7.804688 48.019531 7.285156 49.398438 7.277344 C 51.007812 7.265625 52.328125 8.320312 52.871094 10.015625 C 54.34375 7.890625 56.042969 7.753906 57.683594 7.746094 C 60.425781 7.730469 63.308594 11.292969 61.5 15.042969 C 59.300781 14.160156 56.878906 16.316406 56.878906 18.929688 C 56.878906 21.539062 58.390625 23.394531 60.296875 24.554688 C 63.25 26.347656 67.277344 25.460938 68.867188 22.878906 "/>
<path style="fill:none;stroke-width:1.601575;stroke-linecap:butt;stroke-linejoin:miter;stroke:rgb(0%,0%,0%);stroke-opacity:1;stroke-miterlimit:4;" d="M 57.710938 7.316406 C 57.710938 7.316406 61.273438 7.691406 62.117188 10.457031 C 62.960938 13.222656 61.882812 15.707031 61.882812 15.707031 C 60.003906 15.707031 57.488281 16.605469 58.367188 20.816406 C 59.449219 25.988281 66.855469 24.945312 68.445312 22.597656 C 70.070312 20.199219 70.179688 17.675781 70.179688 17.675781 "/>
<path style=" stroke:none;fill-rule:nonzero;fill:rgb(0%,0%,0%);fill-opacity:1;" d="M 72.019531 13.644531 C 71.027344 11.199219 69.203125 9.25 67.078125 8.378906 L 67.078125 8.382812 C 69.476562 9.992188 70.804688 11.796875 71.460938 13.675781 Z M 71.984375 17.707031 C 71.96875 18.054688 71.9375 18.40625 71.898438 18.757812 C 71.421875 22.847656 69.417969 25.257812 67.4375 26.105469 C 64.746094 27.253906 62.183594 27.128906 59.671875 26.28125 C 57.207031 25.453125 53.65625 23.667969 50.339844 19.371094 C 46.953125 14.988281 47.722656 12.347656 48.0625 11.375 C 48.390625 10.4375 49.332031 9.691406 50.316406 10.035156 C 49.503906 9.066406 48.15625 9.527344 47.410156 10.808594 C 46.601562 12.191406 46.066406 14.921875 49.1875 19.515625 C 52.320312 24.128906 56.785156 26.589844 59.402344 27.449219 C 62.175781 28.359375 65.726562 28.074219 67.742188 27.058594 C 69.839844 26.003906 72.210938 23.324219 72.742188 19.019531 C 72.789062 18.636719 72.8125 18.253906 72.820312 17.875 Z M 71.984375 17.707031 "/>
<path style=" stroke:none;fill-rule:nonzero;fill:rgb(0%,0%,0%);fill-opacity:1;" d="M 56.519531 10.539062 C 55.25 10.515625 54.15625 10.898438 53.300781 12.714844 C 51.351562 16.847656 55.601562 22.691406 55.746094 22.855469 C 56.875 23.695312 56.71875 23.535156 57.914062 24.273438 C 57.914062 24.273438 52.347656 16.589844 54.066406 13.140625 C 55.027344 11.207031 56.429688 10.542969 58.816406 11.757812 C 57.96875 10.835938 57.546875 10.5625 56.519531 10.539062 Z M 56.519531 10.539062 "/>
<path style=" stroke:none;fill-rule:nonzero;fill:rgb(0%,0%,0%);fill-opacity:1;" d="M 40.453125 10.5 C 39.976562 12.042969 40.953125 13.535156 41.605469 14.511719 C 42.90625 16.457031 44.636719 18.53125 46.054688 19.785156 C 47.433594 21.003906 50.605469 24.152344 53.351562 24.769531 C 50.863281 22.886719 50.546875 22.4375 49.355469 21.1875 C 47.929688 20.144531 48.136719 20.40625 46.722656 19.109375 C 45.371094 17.867188 43.699219 16.171875 42.476562 14.089844 C 40.132812 10.101562 41.601562 9.726562 42.621094 9.484375 C 41.410156 9.144531 40.71875 9.636719 40.453125 10.5 Z M 40.453125 10.5 "/>
<path style=" stroke:none;fill-rule:nonzero;fill:rgb(0%,0%,0%);fill-opacity:1;" d="M 27.800781 11.113281 C 29.417969 10.546875 31.367188 10.203125 33.324219 11.042969 C 34.53125 11.5625 36.632812 12.835938 38.605469 14.316406 C 40.578125 15.800781 42.679688 17.28125 42.679688 17.28125 L 40.578125 14.449219 C 38.140625 12.972656 36.367188 11.242188 33.15625 10.042969 C 31.507812 9.425781 28.996094 9.5625 27.800781 11.113281 Z M 27.800781 11.113281 "/>
</g>
</svg>
