<?xml version="1.0" encoding="UTF-8" standalone="no"?>
<!-- Created with Inkscape (http://www.inkscape.org/) -->

<svg
   width="122.25849mm"
   height="121.55542mm"
   viewBox="0 0 122.25849 121.55542"
   version="1.1"
   id="svg1"
   xml:space="preserve"
   xmlns="http://www.w3.org/2000/svg"
   xmlns:svg="http://www.w3.org/2000/svg"><defs
     id="defs1" /><g
     id="layer1"
     transform="translate(-15.367519,-160.8899)"><path
       style="fill:#000000"
       d="m 52.006843,282.01887 c 0.08207,-0.13504 0.672006,-1.0223 1.310965,-1.9717 1.835997,-2.72801 3.020842,-6.69262 2.35546,-7.88159 -0.298592,-0.53355 -1.237792,1.43341 -1.243311,2.60387 -0.0051,1.07454 -0.50109,2.23242 -1.338537,3.1246 -0.961815,1.02467 -1.596508,0.69192 -0.765513,-0.40133 0.736556,-0.96901 1.126262,-1.82815 1.126262,-2.48294 0,-1.17402 -1.238503,-0.23769 -2.179421,1.64768 -1.172571,2.34954 -3.113776,4.13037 -3.77322,3.46149 -0.182501,-0.18511 -0.103743,-0.33172 0.354663,-0.66022 1.2242,-0.87726 3.459756,-4.0199 2.908718,-4.08894 -1.002052,-0.12555 -1.576581,0.099 -2.253028,0.88045 -0.395588,0.45702 -1.324763,1.41808 -2.064832,2.13571 -0.740069,0.71763 -1.609659,1.74951 -1.932422,2.29308 -0.57464,0.96776 -0.926858,1.20297 -1.182354,0.78957 -0.231918,-0.37525 1.158784,-2.36803 2.833511,-4.06022 1.735001,-1.7531 1.800558,-2.01104 0.511886,-2.01406 -7.364801,-0.0173 -9.879727,-17.18922 -3.350448,-22.8769 1.673964,-1.4582 1.854376,-1.52925 3.477095,-1.36935 1.673887,0.16494 1.732154,0.10692 1.736338,-1.72892 0.0052,-2.26198 -2.324164,-5.35316 -3.488443,-4.62942 -2.317182,1.4404 -2.294116,1.43417 -5.173001,1.39732 -3.117037,-0.0399 -3.878078,-0.20652 -5.183944,-1.13496 -0.528924,-0.37605 -1.000173,-0.64523 -1.04722,-0.59819 -0.18508,0.18508 0.587638,1.07991 0.932544,1.07991 0.776811,0 1.264338,0.65636 1.226696,1.65151 -0.03505,0.92664 -0.03505,0.92664 0.819301,0.79852 1.570458,-0.23551 1.879844,0.85928 0.557318,1.97212 -0.443043,0.37279 -0.538837,0.5906 -0.469007,1.06638 0.328993,2.24157 -1.436437,3.05477 -2.873271,1.32349 -0.207418,-0.24992 -0.358775,-0.25172 -1.149728,-0.0137 -1.656492,0.49853 -2.300514,-0.50339 -1.080168,-1.68045 0.462051,-0.44566 0.472754,-0.49495 0.149274,-0.68747 -1.260193,-0.75 -1.743599,-1.93206 -1.06687,-2.60879 0.19872,-0.19872 -1.613052,-4.04922 -2.184721,-4.64311 -0.331812,-0.34471 -3.952613,1.82113 -3.732401,2.2326 0.9369,1.75061 -1.32337,3.56468 -3.040024,2.43988 -0.46553,-0.30502 -0.475649,-0.29805 -0.682693,0.47086 -0.305808,1.13568 -1.314583,1.22729 -1.799326,0.16339 -0.202182,-0.44374 -0.2908,-0.46647 -1.454655,-0.37304 -2.669497,0.21428 -3.203992,-0.96077 -1.286312,-2.82785 0.621552,-0.60516 0.627999,-0.62934 0.32432,-1.21659 -0.643998,-1.24536 0.116372,-1.90965 1.505721,-1.31547 0.277999,0.11889 0.343735,0.0472 0.343735,-0.37482 0,-1.9192 2.106482,-2.94371 3.397684,-1.65251 0.962267,0.96226 2.587409,0.0655 3.146985,-1.73654 0.468845,-1.50986 -0.587175,-3.95637 -1.816237,-4.20774 -0.98768,-0.20201 -1.389287,-0.69416 -1.389287,-1.70253 0,-0.87931 0,-0.87931 -0.802161,-0.77172 -1.558009,0.20898 -1.940054,-0.95 -0.651963,-1.97779 0.505431,-0.40329 0.628451,-0.62428 0.541154,-0.9721 -0.533454,-2.12545 0.715143,-2.97642 2.545092,-1.73458 0.606196,0.41137 0.765797,0.43829 1.475477,0.24887 1.682434,-0.44907 2.197582,0.36758 1.077154,1.70758 -0.47558,0.56878 -0.47558,0.56878 0.258881,0.9821 0.828183,0.46607 1.155834,1.25633 0.823394,1.98596 -0.189254,0.41537 0.968828,2.96811 2.175534,4.79549 0.480512,0.72767 1.097629,-0.21733 1.158353,-1.77379 0.296528,-7.60054 4.950998,-14.36467 9.133007,-13.2726 1.371337,0.35811 1.470191,0.26863 1.730008,-1.56601 0.379099,-2.67692 1.541905,-5.27594 3.372871,-7.5388 0.906744,-1.12063 2.108574,-3.5798 2.108574,-4.31454 0,-0.22739 -0.307421,-0.44771 -0.932996,-0.66865 -1.655891,-0.58482 -1.867757,-0.76472 -2.68231,-2.27762 -0.960432,-1.78384 -1.186535,-4.14676 -0.626071,-6.54286 0.486032,-2.0779 0.517731,-2.0005 -1.741326,-4.25187 -2.365298,-2.35725 -2.325598,-2.34454 -6.618383,-2.11861 -1.313275,0.0691 -5.186679,3.8309 -5.110426,4.96315 0.05691,0.84507 -0.660931,1.66504 -1.457661,1.66504 -0.527104,0 -0.527104,0 -0.397078,1.26913 0.185947,1.81494 -2.298834,2.70984 -3.939918,1.41896 -0.318656,-0.25065 -0.849217,-0.41959 -1.389234,-0.44235 -1.444678,-0.0609 -2.602412,-1.29601 -2.60313,-2.77717 -1.7e-4,-0.35108 -0.22258,-0.95719 -0.502719,-1.36999 -0.327626,-0.48279 -0.459328,-0.87874 -0.378568,-1.13814 0.06811,-0.21879 0.11327,-0.81288 0.100345,-1.32022 -0.03012,-1.18239 0.509779,-1.63942 1.57559,-1.33375 1.124295,0.32245 1.36567,0.25859 1.36567,-0.36126 0,-0.73281 0.793488,-1.47465 1.577314,-1.47465 1.838381,0 5.749639,-5.21822 5.398236,-7.20208 -0.06697,-0.37811 -0.168891,-1.09403 -0.226481,-1.59093 -0.169132,-1.4593 -5.164847,-6.38687 -6.133023,-6.04937 -0.882971,0.30781 -1.459616,0.0126 -1.918634,-0.98232 -0.287133,-0.62235 -0.475969,-0.79652 -0.867856,-0.80049 -0.882446,-0.009 -1.375891,-1.29067 -0.741218,-1.92534 0.177138,-0.17714 0.157789,-0.31237 -0.08291,-0.57944 -0.569494,-0.6319 -0.620949,-1.3389 -0.130687,-1.79565 0.383253,-0.35705 0.411326,-0.4782 0.212121,-0.91541 -0.968777,-2.12624 0.693028,-3.72908 2.73386,-2.63686 0.342986,0.18356 0.481059,0.14822 0.812996,-0.20807 0.45011,-0.48313 1.332972,-0.43033 1.936459,0.11581 0.192504,0.17422 0.386587,0.22506 0.45243,0.11853 0.464454,-0.75151 2.240627,-0.0651 2.019513,0.78041 -0.06519,0.2493 0.01559,0.42764 0.227366,0.50194 1.305199,0.4579 1.901363,1.49383 1.399418,2.43172 -0.339207,0.63381 4.820635,5.73119 5.854128,5.78326 0.404433,0.0204 1.137456,0.12303 1.62894,0.22813 0.491484,0.1051 1.066013,0.12364 1.276732,0.0412 0.210718,-0.0824 0.66379,-0.15611 1.006825,-0.16371 0.957284,-0.0212 5.170698,-4.2511 5.170698,-5.19095 0,-0.79517 0.683017,-1.50114 1.45234,-1.50114 0.54313,0 0.54313,0 0.410637,-1.2372 -0.197619,-1.84535 1.971369,-2.62607 3.878105,-1.39592 0.426444,0.27513 1.026685,0.4725 1.43696,0.4725 1.527037,0 2.642972,1.1744 2.642972,2.78145 0,0.32739 0.166261,0.82988 0.369469,1.11663 0.473793,0.66859 0.528621,3.03672 0.0864,3.73191 -0.298964,0.46999 -0.554404,0.48198 -2.147116,0.10079 -0.337991,-0.0809 -0.436984,0.0132 -0.536249,0.50948 -0.18924,0.9462 -1.00407,1.65137 -1.73845,1.5045 -0.875446,-0.17509 -4.952478,3.77973 -4.788414,4.64488 0.05653,0.2981 -0.03222,1.06898 -0.197223,1.71306 -0.228503,0.89193 -0.247609,1.26895 -0.08016,1.58183 0.120916,0.22594 0.19279,0.66875 0.15972,0.98402 -0.176494,1.6826 2.190613,3.00128 3.322663,1.85101 2.565604,-2.6069 6.246327,-3.76963 8.793029,-2.77769 2.97959,1.16054 4.885089,2.65481 5.863825,4.59832 0.885685,1.75873 1.752794,1.66581 6.185806,-0.66292 2.976576,-1.56364 4.900335,-2.31782 6.458487,-2.53194 2.537406,-0.3487 2.604462,-0.41616 2.14209,-2.15498 -0.3306,-1.24327 0.0621,-2.41577 1.397487,-4.17254 1.521524,-2.00163 7.542477,-4.38841 11.850951,-4.69785 1.665189,-0.1196 2.528485,-0.57048 2.010549,-1.05007 -1.020231,-0.9447 -4.319346,-2.34404 -5.264463,-2.23296 -1.051272,0.12355 -1.871899,-0.41551 -1.871899,-1.22965 0,-0.41395 -0.351496,-0.31868 -0.822402,0.22291 -1.015157,1.16754 -2.030401,0.32637 -1.591361,-1.31849 0.115015,-0.43091 0.126523,-0.79899 0.0269,-0.86056 -1.667335,-1.03047 -1.114868,-3.02609 0.837742,-3.02609 0.926451,0 1.093574,-0.0692 1.659872,-0.68747 1.055278,-1.15209 1.936064,-0.74527 1.812544,0.8372 -0.05721,0.73298 -0.05616,0.73407 0.653833,0.6726 0.896471,-0.0776 1.735739,0.58382 1.822758,1.43651 0.09697,0.95017 2.845536,2.43581 3.727966,2.015 0.337931,-0.16114 0.884555,-0.35232 1.21472,-0.42484 1.08585,-0.23849 1.837568,-2.15102 1.092029,-2.77835 -1.454641,-1.224 -0.452802,-3.42769 1.558292,-3.42769 0.516379,0 0.595096,-0.0575 0.470874,-0.34373 -0.625081,-1.44053 -0.01341,-2.19976 1.2603,-1.56435 0.563072,0.2809 0.603214,0.26897 1.213525,-0.36071 1.86274,-1.92187 3.34471,-1.11229 2.80317,1.53134 -0.18524,0.90426 -0.1722,0.95421 0.30921,1.18494 1.15202,0.55215 0.9306,1.90955 -0.31148,1.90955 -0.52302,0 -0.54523,0.10984 -0.15888,0.78569 0.93408,1.634 -0.46406,3.51833 -2.2124,2.98175 -0.39266,-0.12051 -0.724375,-0.19988 -0.737143,-0.17639 -0.01277,0.0235 -0.437111,0.7835 -0.942985,1.6889 -1.149073,2.05656 -1.151695,2.02232 0.209647,2.73779 0.621179,0.32646 1.602051,0.85469 2.179731,1.17384 0.99827,0.55152 1.07993,0.56549 1.64813,0.28203 0.77915,-0.38869 1.48988,-0.14599 2.01439,0.68787 0.47101,0.74879 0.62016,0.77453 1.22044,0.21059 1.17174,-1.10079 2.06264,-0.14609 1.42608,1.5282 -0.1672,0.43979 -0.13436,0.60635 0.18705,0.94847 1.44165,1.53456 1.04106,2.73951 -0.91928,2.7651 -1.07879,0.0141 -1.22547,0.0695 -1.71126,0.64686 -0.97299,1.15634 -2.17788,0.64632 -1.80866,-0.76559 0.17722,-0.67768 -0.02,-0.8861 -0.75722,-0.80004 -0.87578,0.10224 -1.5886,-0.35837 -1.75962,-1.13704 -0.11978,-0.54535 -0.785388,-1.15221 -1.013524,-0.92407 -0.05219,0.0522 0.216248,0.52795 0.596524,1.05727 1.7764,2.47262 1.66554,7.53148 -0.22014,10.04533 -0.976485,1.30178 2.39088,3.90382 4.8016,3.71031 1.6076,-0.12904 1.66426,-0.19305 1.43235,-1.61797 -0.92897,-5.70785 12.26794,-9.728 19.65459,-5.98734 2.65593,1.34498 4.70169,3.86242 4.70622,5.79129 0.003,1.28867 0.26096,1.22312 2.01406,-0.51189 1.69219,-1.67472 3.9697,-3.26518 4.34118,-3.02727 0.51997,0.333 0.1685,0.73366 -1.07053,1.37612 -0.56121,0.291 -1.57545,1.19235 -2.29308,1.93242 -0.71763,0.74007 -1.6787,1.66924 -2.13571,2.06483 -0.78149,0.67645 -1.006,1.25098 -0.88045,2.25303 0.069,0.55104 3.21168,-1.68452 4.08894,-2.90872 0.3285,-0.4584 0.47511,-0.53716 0.66022,-0.35466 0.66888,0.65944 -1.11195,2.60065 -3.46149,3.77322 -1.88537,0.94092 -2.8217,2.17942 -1.64768,2.17942 0.65479,0 1.51393,-0.38971 2.48294,-1.12626 1.09325,-0.831 1.426,-0.1963 0.40132,0.76551 -0.89217,0.83745 -2.05006,1.33347 -3.12459,1.33854 -1.17046,0.006 -3.13742,0.94472 -2.60387,1.24331 1.18897,0.66538 5.49287,-0.3742 7.9591,-2.54922 0.98815,-0.87148 1.52663,-1.32577 1.87481,-1.19472 0.86019,0.43351 0.0983,0.83004 -1.00147,1.64451 -7.56747,5.6046 -17.08505,2.68871 -14.13312,-4.4178 0.35924,-0.86483 0.35717,-0.87228 -0.21159,-0.76355 -0.34395,0.0658 -0.5185,-0.007 -0.59507,-0.24834 -0.28327,-0.8925 -4.8511,-0.75908 -7.46248,0.21796 -1.22353,0.45778 -1.25747,0.7051 -0.36159,2.63481 1.71159,3.68669 -2.8943,6.58305 -8.47733,5.33086 -2.42169,-0.54314 -4.51726,-1.16547 -4.71069,-1.39895 -0.1099,-0.13265 -0.810866,-0.38663 -1.557706,-0.56441 -3.067525,-0.73019 -4.300171,-2.03531 -5.870447,-6.2156 -0.385517,-1.02629 -0.839315,-2.19461 -1.008442,-2.59626 -0.645584,-1.53315 0.402473,-3.97414 2.253358,-5.24819 1.581574,-1.08867 1.519585,-1.235 -0.490565,-1.15799 -2.041831,0.0782 -1.723318,-0.23537 -3.928153,3.8673 -1.726564,3.21272 -1.726564,3.21272 -1.309295,3.95515 0.932284,1.65877 0.319183,2.88685 -1.623132,3.25124 -1.153142,0.21633 -0.994143,1.69991 0.21057,1.96478 0.956364,0.21027 1.04415,0.26388 1.04415,0.63766 0,0.67516 -0.923927,1.31908 -1.863491,1.29873 -0.782283,-0.0169 -0.858418,0.0258 -0.961281,0.54016 -0.12397,0.61985 -0.947794,0.78187 -1.672932,0.32901 -0.290572,-0.18146 -0.512199,-0.16089 -1.058226,0.0982 -1.41643,0.67214 -2.365577,0.14037 -2.623018,-1.46957 -0.0665,-0.41588 -0.185097,-0.75614 -0.263546,-0.75614 -0.778326,0 -1.324106,-1.23294 -0.784601,-1.77244 1.963211,-1.96321 -2.043074,-1.94716 -5.32583,0.0213 -4.957834,2.97295 -13.587481,3.43657 -16.164376,0.86841 -1.289269,-1.2849 -1.888464,-2.5664 -1.888464,-4.03887 0,-1.80131 -1.0632,-1.34682 -1.579415,0.67515 -0.06019,0.23576 -0.294573,0.44346 -0.540586,0.47905 -0.443019,0.0641 -0.955792,0.74889 -0.737705,0.9852 4.658997,5.04845 10.874576,10.81445 11.542515,10.70764 0.852228,-0.13628 1.866036,0.21319 1.9989,0.68904 0.04954,0.17744 0.145899,0.60079 0.214124,0.94079 0.118719,0.59162 0.157313,0.61371 0.898556,0.51429 0.774508,-0.10388 0.774508,-0.10388 0.774508,0.69842 0,0.44127 0.09699,1.01518 0.215544,1.27537 0.227938,0.50027 -0.205612,1.70604 -0.613428,1.70604 -0.105257,0 -0.191377,0.48744 -0.191377,1.08319 0,1.62519 -0.833538,2.48635 -2.524997,2.6087 -0.663843,0.048 -1.206988,0.16281 -1.206988,0.25508 0,0.27737 -1.171766,0.79475 -1.429815,0.63133 -0.131867,-0.0835 -0.681703,-0.19762 -1.221859,-0.25356 -0.982101,-0.10171 -0.982101,-0.10171 -0.929432,-0.93649 0.05267,-0.83479 0.05267,-0.83479 -0.706133,-0.83479 -1.107093,0 -1.507159,-0.52522 -1.507159,-1.97864 0,-1.14316 -0.0083,-1.15964 -1.172373,-2.3362 -1.470642,-1.48639 -1.267515,-1.61049 -2.159531,1.31943 -0.898031,2.94968 -1.331038,3.87351 -2.54173,5.42282 -2.588276,3.3122 -3.268918,8.95612 -0.779917,6.46712 0.535086,-0.53509 0.981389,-0.37033 1.534849,0.5666 0.255473,0.43249 0.473262,0.55631 0.978492,0.55631 1.396397,0 2.200913,1.533 1.402632,2.6727 -0.247454,0.35329 -0.241389,0.51722 0.04911,1.32721 0.364197,1.01551 0.219512,1.29398 -0.675649,1.30043 -0.378036,0.003 -0.408433,0.0863 -0.319248,0.87752 0.08798,0.78056 0.03321,0.93987 -0.509838,1.48292 -0.745633,0.74563 -1.40477,0.5631 -1.40477,-0.38901 0,-1.32473 -1.63289,-1.62747 -1.972644,-0.36572 -0.547895,2.03473 -2.157753,2.68107 -3.546797,1.424 -1.054132,-0.95397 -7.489019,3.34157 -7.586854,5.06453 -0.126987,2.23636 0.100236,2.44093 1.067295,0.96088 1.308102,-2.00199 3.931292,-3.07111 5.613638,-2.28792 0.34703,0.16156 1.426466,0.57069 2.398746,0.9092 3.923125,1.36585 5.640989,3.03173 6.226,6.03761 0.119751,0.6153 0.372461,1.2689 0.561579,1.45245 0.189117,0.18355 0.407246,0.70897 0.484731,1.1676 0.07749,0.45863 0.312761,1.32492 0.522835,1.9251 2.017277,5.76335 -1.036419,12.01939 -4.90577,10.05036 -1.534532,-0.7809 -2.173248,-0.84358 -2.48344,-0.24374 -1.06551,2.06047 -1.422112,7.68899 -0.505575,7.97989 0.238006,0.0755 0.310587,0.25145 0.245097,0.59404 -0.108725,0.56877 -0.101274,0.57083 0.763552,0.21159 7.106506,-2.95192 10.216158,6.6044 4.611563,14.17187 -0.814478,1.09973 -2.354203,1.95854 -1.76076,0.9821 z m -6.55162,-8.33655 c -1.283085,-1.86493 -1.898578,-3.39956 -1.363459,-3.39956 0.367512,0 0.782508,0.51376 1.382974,1.71211 0.670886,1.33889 1.746234,2.41272 2.416132,2.41272 0.514634,0 0.514634,0 -0.205887,-0.69977 -0.895975,-0.87016 -1.792661,-2.55694 -1.466437,-2.75856 0.216713,-0.13393 0.606837,0.25302 1.720287,1.70633 0.628588,0.82044 1.635746,1.23647 2.54968,1.0532 0.704823,-0.14134 0.704823,-0.14134 0.01735,-0.32726 -3.325238,-0.89933 -4.929642,-10.75172 -2.571473,-15.79101 1.101672,-2.35422 2.875297,-4.28945 3.377101,-3.68482 0.218258,0.26299 0.208044,0.35099 -0.06381,0.54977 -1.175194,0.85933 -2.137503,2.47071 -1.475491,2.47071 0.24467,0 0.763015,0.17053 1.151878,0.37894 3.709111,1.98797 6.01138,-2.85604 4.241046,-8.92322 -0.2837,-0.97228 -0.57801,-2.12134 -0.65402,-2.55346 -0.07601,-0.43213 -0.237577,-0.87407 -0.359035,-0.98211 -0.121458,-0.10803 -0.428866,-0.83148 -0.683129,-1.60767 -0.829207,-2.53132 -2.198371,-3.65344 -6.182067,-5.06663 -3.252521,-1.15381 -4.622039,-0.95548 -5.99259,0.86785 -0.281171,0.37406 -0.814431,0.97053 -1.185022,1.32548 -0.370591,0.35496 -0.625687,0.69349 -0.56688,0.7523 0.05881,0.0588 0.611165,-0.43772 1.227462,-1.10339 0.817476,-0.88297 1.179194,-1.15166 1.337411,-0.99344 0.322898,0.32289 -0.03336,0.95985 -1.305227,2.33362 -0.941303,1.01672 -1.056199,1.2207 -0.805001,1.42918 0.398239,0.33051 0.949678,-0.0469 2.28494,-1.56384 1.005936,-1.1428 1.545612,-1.46738 1.545612,-0.92958 0,0.44282 -1.078378,1.97194 -1.93178,2.73924 -0.45058,0.40511 -0.771948,0.73657 -0.714151,0.73657 0.431767,0 1.595248,-0.70065 2.265626,-1.36436 1.311048,-1.29801 1.674908,-0.55954 0.408267,0.8286 -0.845962,0.9271 -1.232654,2.04365 -0.588353,1.69883 0.200184,-0.10713 0.36397,-0.35192 0.36397,-0.54397 0,-0.19205 0.251837,-0.59045 0.559636,-0.88534 0.3078,-0.2949 1.081205,-1.18726 1.718678,-1.98304 0.877712,-1.09568 1.302071,-1.46899 1.748302,-1.53796 0.954899,-0.1476 0.911759,0.25004 -0.138065,1.2726 -0.783876,0.76352 -0.965931,1.05895 -0.891737,1.44707 0.05128,0.26823 0.01669,0.53499 -0.07685,0.5928 -0.390271,0.2412 -0.101617,0.79442 1.057548,2.02684 1.592881,1.69354 1.986828,2.73304 1.719417,4.53696 -0.242585,1.63645 -0.246468,1.57136 0.09373,1.57136 0.159989,0 0.342884,-0.24307 0.406435,-0.54015 0.377209,-1.76338 0.972249,-1.87816 0.972249,-0.18754 0,1.0402 0.344218,1.67692 0.920961,1.70355 0.179839,0.008 0.363847,-1.34228 0.413633,-3.03597 0.03274,-1.11374 0.10307,-1.38465 0.372886,-1.43629 0.584853,-0.11195 0.720048,2.67922 0.236662,4.886 -0.08101,0.36983 0.0323,0.67572 0.421749,1.13856 0.838242,0.99619 0.866164,3.03993 0.03719,2.72182 -0.202273,-0.0776 -0.295971,-0.44578 -0.314151,-1.23437 -0.03042,-1.3193 -0.05962,-1.34996 -2.318749,-2.4341 -1.550111,-0.74388 -3.222056,-1.18867 -4.468213,-1.18867 -0.582389,0 -3.256618,2.49379 -3.25689,3.03714 -5.2e-5,0.10397 -0.222846,0.36914 -0.495098,0.58926 -0.977136,0.79003 -2.247283,7.45793 -1.96572,10.31944 0.348145,3.53818 2.312131,7.15916 4.459245,8.22147 0.991008,0.49031 1.115313,0.42843 0.611226,-0.30424 z m 7.761242,-0.0997 c 0.129637,-0.12964 0.236113,-0.4169 0.236613,-0.63837 5e-4,-0.22146 0.265667,-0.68513 0.589261,-1.03037 0.323594,-0.34524 0.588352,-0.76509 0.588352,-0.933 0,-0.19523 0.178209,-0.30528 0.494359,-0.30528 1.123252,0 -0.975257,-2.73785 -2.560461,-3.34055 -0.605872,-0.23035 -2.156209,0.008 -3.482771,0.53654 -1.68206,0.66956 0.155724,4.76821 2.138007,4.76821 0.36354,0 0.660982,0.098 0.660982,0.21772 0,0.13465 0.18899,0.17028 0.495364,0.0934 0.569432,-0.14292 0.932459,0.39262 0.466254,0.68782 -0.150781,0.0955 -0.181338,0.17494 -0.06791,0.1766 0.113433,0.002 0.312309,-0.10306 0.441946,-0.2327 z M 35.774344,251.43094 c 0,-0.61648 -0.103515,-0.84898 -0.49105,-1.1029 -0.750516,-0.49176 -0.628232,-0.86583 0.283038,-0.86583 1.014453,0 1.197262,-0.3221 0.255542,-0.45025 -1.05127,-0.14306 -2.585652,0.66367 -3.037083,1.5968 -0.515398,1.06536 -0.09061,0.94856 0.710647,-0.1954 0.360325,-0.51443 0.707544,-0.30777 0.707544,0.42113 0,0.37471 0.173335,0.69976 0.51754,0.97051 0.789727,0.6212 1.053822,0.52746 1.053822,-0.37406 z m -2.553463,-2.6562 c 0.134487,-0.16205 0.373081,-0.29463 0.53021,-0.29463 0.610871,0 1.471534,-1.12374 1.197157,-1.56309 -0.267273,-0.42797 -0.835965,-0.53466 -1.045214,-0.19609 -0.06969,0.11276 -0.01812,0.33587 0.114608,0.4958 0.132726,0.15992 0.206627,0.31686 0.164225,0.34875 -0.878766,0.66084 -1.646757,0.92416 -1.856956,0.6367 -0.34893,-0.47719 -0.871813,-0.38904 -0.871813,0.14698 0,0.77085 1.234573,1.06806 1.767783,0.42558 z M 20.312819,246.4668 c -0.04337,-0.081 -0.162033,-0.14731 -0.263689,-0.14731 -0.218831,0 -0.249622,0.85183 -0.03842,1.06303 0.158157,0.15815 0.432249,-0.67262 0.302114,-0.91572 z m -2.532407,0.24553 c 0.872076,0 1.161446,-0.40932 0.800654,-1.13255 -0.357978,-0.71758 -0.596701,-0.77487 -1.196567,-0.28713 -1.019008,0.82852 -1.212959,1.78978 -0.303121,1.50233 0.143874,-0.0455 0.45844,-0.0827 0.699034,-0.0827 z m 5.574397,-0.0137 c 0.76357,-0.26618 0.869654,-0.55212 0.493204,-1.32941 -0.310402,-0.64091 -0.840987,-0.84686 -0.840987,-0.32644 0,0.16205 0.122275,0.29464 0.271722,0.29464 0.437167,0 0.533362,0.75305 0.113229,0.88639 -0.531236,0.16861 -1.10009,-0.27291 -1.5025,-1.16616 -0.195581,-0.43415 -0.642867,-1.26662 -0.993968,-1.84995 -0.717476,-1.19204 -0.783219,-1.62578 -0.317079,-2.09192 0.373631,-0.37363 0.744208,-0.13197 0.753356,0.49127 0.0066,0.44649 0.369735,0.54934 0.457658,0.1296 0.03253,-0.15531 -0.15914,-0.53563 -0.425938,-0.84517 -1.075358,-1.2476 -2.128652,0.57921 -1.226252,2.12679 0.271317,0.4653 0.777595,1.40375 1.125063,2.08545 0.493126,0.96746 1.172679,1.80506 1.464473,1.80506 0.01386,0 0.296466,-0.0946 0.628019,-0.21015 z m 9.646498,-0.30853 c 0.216923,-0.47609 0.115331,-0.73812 -1.237507,-3.19183 -1.413544,-2.56381 -1.458907,-2.68582 -1.108976,-2.98284 0.884786,-0.751 0.111598,-2.67331 -0.827706,-2.05786 -0.596289,0.39071 -0.540929,0.45492 -2.107703,-2.44475 -1.37007,-2.53562 -1.460914,-2.65285 -2.187115,-2.8222 -0.875587,-0.20419 -0.915698,0.63369 -0.100621,2.10187 0.36988,0.66626 0.912997,1.67543 1.206927,2.24259 0.382933,0.7389 0.649471,1.03121 0.940311,1.03121 0.62638,0 1.124297,0.57269 1.124297,1.29314 0,1.43053 -1.975241,2.26293 -3.342961,1.40877 -0.359655,-0.22461 -1.899148,0.47693 -2.906277,1.32437 -2.294276,1.93051 0.243032,2.15009 3.734891,0.32323 2.911215,-1.52308 2.445352,-1.694 4.205982,1.54309 1.600412,2.94252 2.091013,3.36249 2.606458,2.23121 z m -12.744164,-1.14165 c 0,-0.22941 -0.471997,-1.08956 -0.597881,-1.08956 -0.26228,0 -0.373777,0.86709 -0.13131,1.02117 0.261008,0.16587 0.729191,0.20978 0.729191,0.0684 z m 15.648065,-0.89081 c -0.840716,-0.73816 -1.898646,-2.29046 -1.898646,-2.78589 0,-0.63028 0.535787,-0.38648 1.045247,0.47563 0.421092,0.71257 1.171087,1.44507 2.490318,2.43223 0.961066,0.71915 1.26258,0.49333 0.464886,-0.34817 -1.250373,-1.31905 -1.577723,-2.13317 -0.857727,-2.13317 0.216063,0 0.392841,0.0904 0.392841,0.20081 0,0.75925 2.717404,2.89311 3.281948,2.57718 0.3071,-0.17186 0.287587,-0.20852 -0.172479,-0.32398 -1.841209,-0.46212 -3.009978,-4.8677 -2.687534,-10.13045 0.0568,-0.92708 0.162419,-1.78131 0.234705,-1.89827 0.07229,-0.11696 0.305329,-0.77266 0.517875,-1.45711 0.902759,-2.9071 4.353606,-6.9268 5.020373,-5.84795 0.07097,0.11484 -0.0168,0.36996 -0.195054,0.56692 -0.584669,0.64606 0.848496,1.36497 1.60544,0.80534 0.384908,-0.28457 0.754202,-0.3817 1.235097,-0.32483 0.377307,0.0446 0.795373,-0.009 0.929036,-0.11847 0.339441,-0.27879 0.856536,-0.0415 0.714752,0.32796 -0.168133,0.43815 0.268053,0.37136 0.508466,-0.0779 0.325806,-0.60877 0.238411,-1.09 -0.28772,-1.58427 -0.584691,-0.54929 -0.631755,-1.0894 -0.118847,-1.3639 0.25677,-0.13742 0.473621,-0.65505 0.69921,-1.66903 0.361489,-1.62482 1.611136,-4.32901 2.27788,-4.92925 0.928961,-0.8363 1.621533,-2.17636 2.456623,-4.75332 1.211889,-3.73971 1.255154,-3.50804 -1.09183,-5.84622 -2.043281,-2.03561 -2.203692,-2.06338 -1.628317,-0.28183 0.252275,0.78112 0.276722,1.05973 0.09821,1.11923 -0.498679,0.16623 -0.207385,0.43933 0.468594,0.43933 0.765517,0 1.847194,0.53126 1.847194,0.90723 0,0.92971 -1.683422,4.98538 -2.069324,4.98538 -0.404556,0 -0.371931,-0.21756 0.397631,-2.65167 0.375704,-1.18835 0.684559,-2.27111 0.686345,-2.40615 0.0062,-0.46726 -0.596531,-0.24336 -0.793076,0.29463 -1.183194,3.23863 -1.94342,3.59784 -1.2471,0.58926 0.249542,-1.07819 -0.610576,-0.68084 -1.248511,0.57678 -0.925653,1.82483 -1.731564,2.03963 -1.036512,0.27627 0.472253,-1.19812 0.501648,-1.58963 0.119347,-1.58963 -0.172745,0 -0.406805,0.43435 -0.60862,1.12942 -0.473508,1.63081 -1.390579,3.39611 -2.117326,4.07572 -2.383507,2.22891 -3.870186,8.42915 -2.221344,9.26419 0.682503,0.34564 2.259203,1.99229 2.272877,2.37371 0.01281,0.35735 -0.469623,0.30043 -0.83232,-0.0982 -1.189071,-1.30689 -2.114218,-1.1886 -4.447257,0.56865 -0.522808,0.39377 -1.140681,0.7763 -1.373052,0.85005 -1.063685,0.3376 0.713324,-1.58017 2.470433,-2.66613 1.446177,-0.89378 -0.279794,-0.97041 -1.799821,-0.0799 -0.432124,0.25316 -1.135078,0.8211 -1.56212,1.2621 -0.677306,0.69944 -1.285974,1.02784 -1.285974,0.69384 0,-0.53644 1.401992,-2.14438 2.514153,-2.88347 0.45174,-0.3002 0.45174,-0.3002 -0.03547,-0.42249 -0.77778,-0.19521 -1.452882,0.18687 -2.916778,1.65077 -0.753677,0.75367 -1.448078,1.37032 -1.543114,1.37032 -0.493713,0 -2.329537,4.95486 -2.847508,7.68538 -0.497063,2.6203 0.190176,7.83182 1.032777,7.83182 0.19337,0 0.247888,0.12276 0.167291,0.3767 -0.270579,0.85252 1.552975,2.96379 3.039393,3.51894 0.72792,0.27186 0.710845,0.12752 -0.06556,-0.55417 z m -17.248072,-0.87409 c -0.03826,-0.0339 -0.290539,-0.12138 -0.560616,-0.19453 -0.491051,-0.13299 -0.491051,-0.13299 -0.0058,0.28767 0.307736,0.26678 0.512812,0.33794 0.560616,0.19452 0.04146,-0.12437 0.04407,-0.25382 0.0058,-0.28766 z m 8.536734,-3.28247 c 0.511712,-0.26934 0.736722,-0.57624 0.592993,-0.8088 -0.05761,-0.0932 -0.267184,-0.0225 -0.465714,0.15718 -0.448646,0.40602 -0.778558,0.22498 -0.778558,-0.42724 0,-0.67207 -0.472059,-0.49593 -0.554803,0.20701 -0.124271,1.05572 0.289079,1.35453 1.206082,0.87185 z m 14.374872,-5.95476 c 3.864463,-2.03055 4.615877,-2.51574 4.615877,-2.98044 0,-0.24221 0.08839,-0.49501 0.19642,-0.56178 0.336346,-0.20787 0.215628,-0.49105 -0.209333,-0.49105 -0.223164,0 -0.560057,-0.0826 -0.74865,-0.18351 -0.279017,-0.14932 -5.645695,2.45523 -6.29336,3.05429 -0.55144,0.51006 -0.328079,2.70859 0.239561,2.35799 0.237437,-0.14665 1.227205,-0.68463 2.199485,-1.1955 z m -17.776034,-1.18517 c 0.190248,-0.22924 0.192353,-0.35749 0.0095,-0.57784 -0.193445,-0.23309 -0.09481,-0.35475 0.557385,-0.68747 0.95078,-0.48505 1.200916,-0.50489 1.200916,-0.0952 0,0.18859 0.13397,0.28323 0.343736,0.24283 0.235853,-0.0454 0.343735,-0.25029 0.343735,-0.65276 0,-0.73328 -0.814224,-0.91078 -1.633163,-0.35603 -0.290103,0.19652 -0.76745,0.46255 -1.060771,0.59118 -0.615494,0.26991 -0.909209,1.09888 -0.544884,1.53787 0.30576,0.36842 0.476148,0.36786 0.783565,-0.003 z m 25.372971,-1.05254 c 0.181163,-0.36283 0.282193,-0.78268 0.224511,-0.93299 -0.168147,-0.43819 -0.64574,-0.31563 -0.848528,0.21775 -0.213743,0.56218 -0.559046,0.66032 -0.518331,0.14731 0.0478,-0.60222 -0.748455,-0.42967 -0.818719,0.17743 -0.13655,1.1798 1.412912,1.48835 1.961067,0.3905 z m -6.56573,-1.90129 c 2.228265,-1.16017 2.476912,-1.82973 1.020831,-2.74891 -0.644363,-0.40677 -0.773732,-0.58503 -0.678902,-0.93546 0.225487,-0.83326 -2.057295,1.8736 -2.753241,3.26471 -0.914699,1.82838 -0.925917,2.27441 -0.04394,1.74722 0.351102,-0.20986 1.455966,-0.80726 2.455254,-1.32756 z m 10.274813,-0.16972 c -0.444363,-0.71899 -0.856512,-0.89626 -2.093356,-0.90039 -1.151397,-0.004 -1.364829,-0.54551 -0.711286,-1.80518 0.584196,-1.12602 0.48999,-2.02561 -0.286186,-2.73286 -0.455731,-0.41525 -0.498535,-0.42514 -0.348723,-0.0805 0.302476,0.69581 0.127581,1.92796 -0.487909,3.43735 -0.330392,0.81023 -0.601016,1.48375 -0.601386,1.49671 -3.71e-4,0.013 0.37498,0.0666 0.834112,0.11929 1.723182,0.1976 3.342114,0.80606 3.66929,1.37905 0.277611,0.48619 0.314495,0.5005 0.3714,0.14417 0.03475,-0.2176 -0.120932,-0.69353 -0.345956,-1.05763 z m -29.357998,0.57005 c 0.397982,-0.27007 0.843853,-0.49105 0.990824,-0.49105 0.146972,0 0.267221,-0.14103 0.267221,-0.31341 0,-0.17238 0.190081,-0.58036 0.422402,-0.90662 0.422402,-0.59321 0.422402,-0.59321 0.01027,-0.37265 -0.226673,0.12132 -0.563538,0.47688 -0.748588,0.79014 -0.429949,0.72785 -0.862605,0.57654 -0.862605,-0.30167 0,-0.62134 -0.810198,-1.44546 -1.424047,-1.44852 -0.406343,-0.002 -0.128454,1.55696 0.343736,1.92838 0.792049,0.62303 0.644314,1.01719 -0.381249,1.01719 -1.14031,0 -1.344725,0.34791 -0.261594,0.44523 0.461595,0.0415 0.857435,0.0908 0.879645,0.10972 0.02221,0.0189 0.366004,-0.18666 0.763985,-0.45674 z m 22.990625,-1.57386 c 0.06271,-0.16342 0.0032,-0.43062 -0.132175,-0.59378 -0.212101,-0.25556 -0.156902,-0.28922 0.398598,-0.24302 1.162301,0.0967 0.927109,-0.76828 -0.261351,-0.96114 -0.635696,-0.10316 -0.720682,-0.069 -0.720682,0.29 0,0.22382 -0.08839,0.46157 -0.196421,0.52834 -0.316168,0.1954 -0.225979,0.84715 0.147315,1.06458 0.475706,0.27707 0.632468,0.25965 0.764716,-0.085 z m 7.686034,-0.13078 c -0.145714,-0.43714 -0.709842,-0.66417 -0.979731,-0.39428 -0.201439,0.20144 -0.193051,0.28484 0.0437,0.43452 0.414476,0.26204 1.028001,0.23567 0.936032,-0.0402 z m -1.737548,-1.19255 c 0.333908,-0.87026 -0.92116,-1.26132 -1.311644,-0.40869 -0.356646,0.77874 -0.318762,0.85063 0.448275,0.85063 0.538307,0 0.731804,-0.0991 0.863369,-0.44194 z m 1.773003,-0.62756 c 0.446406,-0.53789 0.172444,-1.18304 -0.531183,-1.25088 -0.674531,-0.065 -0.930094,0.39862 -0.343736,0.62363 0.162047,0.0622 0.294631,0.29261 0.294631,0.51206 0,0.46722 0.247374,0.51633 0.580288,0.11519 z m -2.151651,-1.74586 c 0,-0.25207 -0.05755,-0.51586 -0.127893,-0.5862 -0.187015,-0.18702 -0.631118,0.49263 -0.516712,0.79076 0.166625,0.43422 0.644605,0.28254 0.644605,-0.20456 z m 11.338886,-10.9353 c 0.08184,-0.61019 0.05047,-0.80576 -0.113035,-0.70471 -0.124473,0.0769 -0.226646,0.28934 -0.22705,0.47202 -4.03e-4,0.18268 -0.170803,0.61105 -0.378665,0.95195 -0.207862,0.34089 -0.322929,0.6748 -0.255703,0.74203 0.257817,0.25782 0.866252,-0.65459 0.974453,-1.46129 z m -1.308056,-0.22752 c 0.203509,-0.49131 0.198157,-0.62331 -0.03116,-0.76847 -0.445738,-0.28218 -0.514069,-0.22142 -0.624493,0.55529 -0.05759,0.40511 -0.17261,0.91335 -0.255589,1.12941 -0.259594,0.67594 0.616704,-0.20516 0.911239,-0.91623 z m 4.13673,0.39097 c 0.4664,-0.73565 0.197684,-1.49241 -0.565456,-1.59243 -0.405117,-0.0531 -0.95036,-0.16498 -1.211652,-0.24863 -0.416838,-0.13343 -0.45488,-0.10607 -0.310325,0.22323 0.09061,0.20642 0.203633,0.7613 0.251155,1.23306 0.08967,0.89019 1.348603,1.15398 1.836278,0.38477 z m -6.145857,-1.05534 c 0.329809,-0.72385 0.287885,-0.9697 -0.280562,-1.64526 -0.668873,-0.79491 -0.793709,-0.76274 -0.703675,0.18135 0.04652,0.48783 -0.0074,0.78568 -0.142125,0.78568 -0.289996,0 -0.277196,0.64697 0.01865,0.94282 0.384628,0.38462 0.864087,0.2701 1.107709,-0.26459 z m 3.281391,-1.55319 c 1.056521,-1.05653 0.09148,-2.84584 -1.68836,-3.13045 -0.449382,-0.0719 -1.081162,-0.26723 -1.403954,-0.43415 -0.716822,-0.37068 -0.872041,-0.26018 -0.487154,0.3468 0.300434,0.47379 0.637189,1.69816 0.553299,2.01168 -0.275332,1.02896 2.211978,2.02031 3.026169,1.20612 z m 3.700403,-0.48824 c 0.570181,-0.57018 0.310076,-0.65677 -0.621238,-0.20681 -0.445656,0.21532 -1.013429,0.39284 -1.261717,0.3945 -0.368891,0.002 -0.397562,0.0397 -0.156804,0.20354 0.425217,0.28941 1.580748,0.0678 2.039759,-0.39123 z m -1.395084,-0.86521 c 0.709814,-0.2967 1.52086,-1.10025 0.860411,-0.85246 -0.198498,0.0745 -0.695957,0.18899 -1.105464,0.25447 -0.607784,0.0972 -0.726709,0.18732 -0.647391,0.49063 0.115823,0.44291 0.09555,0.44047 0.892444,0.10736 z m -6.930123,-0.47066 c 0,-0.19258 -8.104495,-8.30047 -8.297003,-8.30047 -0.765669,0 0.16176,1.19135 3.630132,4.66314 3.47018,3.47361 4.666871,4.4063 4.666871,3.63733 z m 6.059717,-1.44497 c 0.600063,-0.20918 0.779387,-0.62104 0.468249,-1.07543 -0.25165,-0.36751 -0.794861,-0.46324 -1.028835,-0.18132 -0.143374,0.17275 -0.473674,0.24031 -0.90498,0.18509 -0.62255,-0.0797 -0.66213,-0.0551 -0.474534,0.29546 0.452047,0.84466 1.053474,1.08528 1.9401,0.7762 z m -6.648978,-0.86298 c 0,-0.0531 -0.309362,-0.50179 -0.687471,-0.99714 -1.147412,-1.5032 -0.671685,-1.91424 0.889288,-0.76838 1.798353,1.32011 1.212257,0.62097 -3.047707,-3.63553 -4.206171,-4.20276 -4.206171,-4.20276 -4.432131,-3.62474 -0.534323,1.36683 -0.525672,1.38066 3.349615,5.35166 3.301855,3.38342 3.928406,3.96941 3.928406,3.67413 z M 47.210617,206.703 c -0.590092,-0.83056 -1.025998,-1.99301 -1.025998,-2.73607 0,-0.97029 0.519447,-0.86652 0.795572,0.15893 0.338877,1.25849 1.93545,3.58317 2.246956,3.27166 0.0477,-0.0477 -0.131212,-0.51722 -0.397587,-1.04338 -0.503284,-0.99411 -0.629396,-1.95575 -0.284441,-2.16894 0.109933,-0.0679 0.356082,0.21411 0.546999,0.62677 0.611913,1.32266 1.04716,2.06626 1.149514,1.96391 0.0548,-0.0548 0.0028,-0.28066 -0.115641,-0.5019 -0.206327,-0.38553 -0.806517,-2.94706 -0.834091,-3.55979 -0.225271,-5.0059 5.707896,-14.06886 8.969651,-13.70122 1.127618,0.1271 1.113347,0.0259 -0.150151,-1.06494 -2.377268,-2.05239 -4.425837,-2.3917 -6.91197,-1.14485 -1.790358,0.8979 -4.075364,3.04587 -3.909387,3.67494 0.09133,0.34615 0.01302,0.45844 -0.390335,0.55968 -0.277525,0.0696 -0.56355,0.31673 -0.63561,0.54906 -0.07206,0.23233 -0.297854,0.65936 -0.501764,0.94895 -1.12709,1.6007 -2.844636,8.42463 -2.348357,9.3302 0.107644,0.19642 0.257822,0.71068 0.33373,1.14281 0.123671,0.70403 0.151221,0.73465 0.265112,0.29463 0.216835,-0.83776 0.652745,-0.56691 1.006726,0.62551 0.401099,1.35114 0.983027,2.32911 1.789893,3.00804 0.737683,0.62072 0.929104,0.50907 0.401179,-0.234 z m 9.645894,-5.39766 c -4.359022,-4.36243 -4.90405,-4.84512 -5.127315,-4.54091 -0.221243,0.30146 0.329265,0.92012 4.812297,5.40808 4.611097,4.61616 5.067926,5.02074 5.127315,4.5409 0.05671,-0.45822 -0.569568,-1.16204 -4.812297,-5.40807 z m -32.582775,-0.64726 c -0.156535,-0.37464 -0.284608,-0.86078 -0.284608,-1.08031 0,-0.21953 -0.08839,-0.39915 -0.19642,-0.39915 -0.322997,0 -0.222018,1.41394 0.128652,1.80142 0.509736,0.56325 0.663528,0.42273 0.352376,-0.32196 z m 2.19595,0.0711 c -0.272675,-1.36337 -1.11917,-2.35289 -1.495875,-1.74862 -0.396021,0.63525 0.490918,2.35867 1.213867,2.35867 0.347212,0 0.386863,-0.0858 0.282008,-0.61005 z m 83.747944,0.1382 c 2.68649,-0.82424 3.41087,-2.15418 2.33307,-4.28351 -0.20288,-0.40082 -0.36887,-0.95325 -0.36887,-1.22763 0,-0.75802 -1.07598,-0.23245 -2.34218,1.14407 -0.55542,0.60382 -0.71251,0.63757 -0.88425,0.19001 -0.26604,-0.69327 2.39382,-2.79466 4.56612,-3.60743 5.16119,-1.93104 14.27635,-0.15031 15.11565,2.953 0.18593,0.68747 0.18593,0.68747 0.32727,-0.0174 0.18327,-0.91393 -0.23276,-1.92109 -1.05321,-2.54968 -1.4533,-1.11345 -1.84026,-1.50357 -1.70632,-1.72028 0.20162,-0.32623 1.8884,0.57046 2.75856,1.46643 0.69976,0.72052 0.69976,0.72052 0.69976,0.20589 0,-0.6699 -1.07382,-1.74525 -2.41271,-2.41613 -1.19835,-0.60047 -1.71211,-1.01546 -1.71211,-1.38298 0,-0.53511 1.53463,0.0804 3.39956,1.36346 0.73267,0.50409 0.79454,0.37978 0.30423,-0.61122 -1.1042,-2.2318 -4.84931,-4.20287 -8.50988,-4.47878 -3.22216,-0.24287 -10.34762,1.17865 -10.17794,2.03048 0.0232,0.11631 -0.20374,0.31332 -0.50425,0.43779 -0.75939,0.31455 -2.97523,2.40902 -2.97523,2.81227 0,0.28832 0.11987,0.26765 0.92243,-0.15907 1.07847,-0.57343 1.76114,-0.18919 0.81557,0.45905 -1.00055,0.68592 -1.74154,1.57173 -1.62194,1.93891 0.0649,0.19931 0.15528,0.48404 0.20078,0.63274 0.0526,0.17199 0.28764,-0.0125 0.64597,-0.50719 1.01315,-1.39861 3.07476,-2.80768 4.10792,-2.80768 0.75978,0 0.46368,0.56509 -0.57078,1.08929 -3.1913,1.61715 -4.1697,4.06782 -2.4033,6.01967 0.28772,0.31793 0.28721,0.35705 -0.006,0.46962 -0.50316,0.19308 -2.01422,-1.58247 -2.31242,-2.71718 -0.27182,-1.03433 -0.2475,-1.02589 -2.13512,-0.74164 -1.45589,0.21924 -2.72984,-0.3515 -4.43114,-1.98516 -1.143407,-1.09796 -1.908882,-1.45047 -1.309261,-0.60292 1.284141,1.81508 1.173631,2.83774 -0.136947,1.26731 -1.033968,-1.23898 -1.25979,-1.43661 -1.437963,-1.25844 -0.282935,0.28294 0.04336,1.13348 0.752806,1.96231 0.69722,0.81454 0.864967,1.40765 0.398124,1.40765 -0.323992,0 -1.619101,-1.39195 -1.930009,-2.07432 -0.20657,-0.45337 -0.240872,-0.46256 -0.580245,-0.15543 -0.49364,0.44674 -0.470724,0.54775 0.420486,1.85337 0.764377,1.11981 0.777148,1.57557 0.03299,1.1773 -0.894834,-0.4789 -1.929484,-2.73464 -1.403433,-3.05976 0.108031,-0.0668 0.19642,-0.27521 0.19642,-0.46322 0,-0.188 0.596627,-0.83929 1.325837,-1.44732 0.729211,-0.60802 1.585444,-1.37707 1.902741,-1.70899 0.317298,-0.33193 0.767153,-0.6035 0.999678,-0.6035 0.271359,0 0.509796,-0.19346 0.665746,-0.54016 0.19699,-0.43795 0.19553,-0.4937 -0.008,-0.29463 -0.399251,0.39097 -0.76142,0.28562 -0.76142,-0.22147 0,-0.94824 -0.439811,-0.93334 -1.427469,0.0483 -1.074403,1.06789 -2.973397,2.28182 -3.276501,2.09449 -0.407866,-0.25208 -0.190366,-0.60521 0.726811,-1.18005 2.06918,-1.29686 3.450231,-3.03238 2.760923,-3.46954 -0.401025,-0.25434 -0.499984,-0.20472 -0.63074,0.31625 -0.239203,0.95307 -1.906414,2.13154 -2.35894,1.66743 -0.155049,-0.15902 -0.01046,-0.39079 0.527878,-0.84613 0.75517,-0.63875 1.37387,-1.581 1.171196,-1.78367 -0.334979,-0.33498 -0.60872,-0.14205 -2.860283,2.01596 -0.654497,0.6273 -1.168437,1.48656 -1.560928,2.60971 -0.124228,0.35549 1.163751,4.24394 1.912941,5.77523 1.00379,2.05167 2.415956,3.20855 4.658807,3.81659 0.506235,0.13724 0.967505,0.37221 1.025045,0.52215 0.0575,0.14994 0.35045,0.27284 0.65093,0.27311 0.30048,2.6e-4 1.43021,0.25892 2.51052,0.57478 2.27108,0.66403 5.39794,0.81103 6.97292,0.32782 z m 16.03195,-0.70667 c 0.16073,0 0.5747,-0.26476 0.91995,-0.58835 0.34524,-0.32359 0.80891,-0.58876 1.03037,-0.58926 0.43412,-9.8e-4 0.87593,-0.34515 0.87106,-0.67856 -0.002,-0.11343 -0.0811,-0.0829 -0.17659,0.0679 -0.2952,0.4662 -0.83074,0.10317 -0.68782,-0.46626 0.0769,-0.30637 0.0413,-0.49536 -0.0934,-0.49536 -0.11974,0 -0.21771,-0.29744 -0.21771,-0.66098 0,-1.98229 -4.09866,-3.82007 -4.76822,-2.13801 -0.52805,1.32656 -0.76689,2.8769 -0.53653,3.48277 0.60782,1.59869 3.16925,3.56637 3.30448,2.53849 0.0342,-0.25981 0.19366,-0.47239 0.35439,-0.47239 z M 22.579129,199.78036 c 0.08428,-0.86045 -0.523281,-1.51165 -1.442594,-1.54621 -1.145866,-0.0431 -0.854047,1.75398 0.340473,2.09668 0.893806,0.25642 1.029734,0.18853 1.102121,-0.55047 z m 59.436125,0.0647 c 0.453282,-0.17394 0.396951,-0.86288 -0.07055,-0.86288 -0.209687,0 -0.435876,-0.0884 -0.502643,-0.19642 -0.191182,-0.30934 -0.687471,-0.22912 -0.687471,0.11112 0,0.82152 0.537406,1.22572 1.260667,0.94818 z m 2.274898,-0.35576 c 0,-0.48689 -0.22971,-0.89996 -0.500473,-0.89996 -0.421479,0 -0.487548,0.29698 -0.167669,0.75367 0.33976,0.48508 0.668142,0.55697 0.668142,0.14629 z m 1.732454,-1.14646 c -0.598435,-0.50134 -1.125216,-1.91372 -1.287385,-3.45169 -0.08894,-0.84353 -0.171384,-1.02698 -0.425024,-0.94581 -0.173071,0.0554 -1.079093,0.37287 -2.013381,0.70551 -1.393551,0.49616 -1.795399,0.56805 -2.236969,0.40016 -0.737569,-0.28042 -0.80652,-0.12511 -0.16758,0.37748 0.865704,0.68096 1.364635,0.70827 2.469322,0.13514 1.228777,-0.63752 1.732143,-0.53887 1.732143,0.33946 0,0.98394 0.340451,1.92435 0.822007,2.27059 0.988232,0.71054 1.923775,0.85352 1.106867,0.16916 z m -18.785002,-0.29941 c 0.289887,-0.12104 0.555054,-0.14969 0.589261,-0.0637 0.08556,0.21518 4.048913,-1.29278 4.776281,-1.81726 1.399968,-1.00947 3.168273,-1.75429 4.770327,-2.0093 0.521753,-0.0831 0.916531,-0.27342 1.038117,-0.5006 0.276778,-0.51717 0.952463,-0.45503 1.57897,0.1452 0.49315,0.47247 0.588311,0.49394 1.238374,0.2794 0.752586,-0.24838 0.946147,-0.59478 0.332349,-0.59478 -0.408066,0 -0.704983,-0.50754 -0.405277,-0.69277 0.103313,-0.0639 0.187842,-0.49884 0.187842,-0.96663 0,-0.54678 0.134689,-1.01615 0.377135,-1.31425 0.372273,-0.45772 0.372095,-0.47189 -0.01381,-1.09849 -0.215018,-0.34913 -0.335317,-0.72478 -0.267333,-0.83478 0.237871,-0.38489 0.661197,-0.19426 1.082526,0.48747 0.23604,0.38192 0.58522,0.68747 0.785636,0.68747 0.198416,0 0.491148,0.05 0.650516,0.11119 0.269829,0.10354 2.885094,-4.24849 2.885094,-4.80105 0,-1.00765 -4.861573,2.19245 -5.9271,3.90148 -0.258138,0.41403 -0.351282,0.4495 -0.612069,0.23307 -0.966074,-0.80177 2.689982,-3.95921 5.753488,-4.96883 0.702202,-0.23142 1.36512,-0.48591 1.473152,-0.56554 1.496591,-1.10313 10.17334,0.15591 11.61596,1.68553 0.409167,0.43385 0.660307,0.58762 0.660307,0.4043 0,-0.59291 -0.378409,-1.22767 -1.357285,-2.27679 -1.56081,-1.67282 -1.165492,-1.96943 0.651808,-0.48907 0.752994,0.61338 1.098317,0.79727 1.098317,0.58487 0,-0.38395 -1.346016,-1.86476 -2.262045,-2.48856 -0.67158,-0.45734 -0.852752,-0.82788 -0.50874,-1.04049 0.09653,-0.0597 0.757083,0.28973 1.467884,0.77643 1.410901,0.96606 1.494881,0.81773 0.398228,-0.70342 -0.624118,-0.8657 -2.630892,-2.2141 -2.630892,-1.76776 0,0.11478 -0.08839,0.20868 -0.19642,0.20868 -0.108031,0 -0.19642,-0.12186 -0.19642,-0.2708 0,-0.915 -5.492881,-1.58584 -8.244879,-1.00693 -2.402493,0.50538 -7.271676,2.26648 -7.272643,2.63039 -1.76e-4,0.0663 -0.662684,0.82467 -1.472239,1.68533 -1.697326,1.80447 -1.862261,2.27809 -1.381659,3.96747 0.323959,1.13877 2.085905,4.28826 2.629836,4.70085 0.454232,0.34456 0.102658,0.69378 -0.446534,0.44355 -0.346964,-0.15809 -0.727915,-0.13205 -1.545473,0.10562 -1.40285,0.40782 -1.712016,0.39827 -1.712016,-0.0529 0,-0.24453 0.181517,-0.40474 0.540155,-0.47676 2.226554,-0.44712 1.900473,-1.11594 -0.469907,-0.96382 -2.01352,0.12922 -1.955552,-0.50055 0.07707,-0.83726 1.581489,-0.26198 0.908185,-0.69302 -1.08253,-0.69302 -1.508829,0 -3.122241,0.49275 -5.323621,1.62587 -4.540189,2.33699 -6.274243,3.08822 -7.128492,3.08822 -0.252949,0 -0.362091,0.14452 -0.362091,0.47946 0,0.2637 -0.08839,0.53409 -0.196421,0.60085 -0.270814,0.16737 -0.247309,1.93224 0.03396,2.54955 0.359778,0.78963 -0.07868,1.09388 -0.690122,0.4789 -0.394145,-0.39643 -0.510443,-0.80551 -0.703207,-2.47356 -0.127029,-1.09922 -0.30857,-2.26918 -0.403424,-2.59992 -0.103141,-0.35963 -0.09933,-0.64654 0.0095,-0.7138 0.258191,-0.15957 0.225392,-0.54403 -0.08231,-0.96484 -0.247927,-0.33906 -0.263104,-0.33227 -0.245526,0.10978 0.0133,0.33439 -0.08105,0.46325 -0.324999,0.44389 -0.413188,-0.0328 -0.409076,-0.1091 -0.04911,0.91117 0.437499,1.24 0.404576,3.5855 -0.0491,3.4983 -0.270496,-0.052 -0.374841,-0.35847 -0.489722,-1.43845 -0.139477,-1.3112 -0.606328,-2.93885 -0.951799,-3.31841 -0.08923,-0.098 -0.143901,0.34391 -0.121487,0.9821 0.04953,1.4104 -0.403849,1.6411 -0.735536,0.37427 -0.252012,-0.96253 -0.444695,-1.27633 -0.783693,-1.27633 -0.212418,0 -0.20855,0.14952 0.02111,0.81611 0.354555,1.02911 0.281233,2.62124 -0.120714,2.62124 -0.194509,0 -0.35489,-0.38844 -0.506488,-1.22669 -0.122015,-0.67468 -0.275311,-1.28016 -0.340656,-1.34551 -0.245316,-0.24531 -0.568087,0.17444 -0.446805,0.58106 0.06886,0.23088 0.207867,1.02551 0.308896,1.76584 0.322309,2.36185 1.203435,3.59122 2.939266,4.10092 3.531326,1.03692 6.496604,1.25216 8.089247,0.58717 z m -39.130791,0.0635 c 0.493233,-0.59431 -0.886364,-1.89772 -1.431571,-1.35251 -0.07108,0.0711 -0.0308,0.24786 0.08952,0.39284 0.308648,0.3719 -0.588748,0.35583 -1.32017,-0.0236 -0.640673,-0.33239 -0.752883,-0.28402 -0.58298,0.2513 0.244534,0.77046 2.745159,1.33451 3.245197,0.732 z m -4.155371,-0.5319 c 0.04511,-0.39003 -0.04483,-0.55673 -0.353161,-0.65459 -0.481687,-0.15288 -0.984095,0.19333 -0.984095,0.67815 0,0.83558 1.240415,0.81373 1.337256,-0.0236 z m 59.045914,0.30586 c 0.307306,-0.11792 0.447894,-1.24946 0.187582,-1.50977 -0.192597,-0.1926 -1.251829,0.42855 -1.251829,0.73409 0,0.78029 0.362921,1.04481 1.064247,0.77568 z m -2.046349,-0.57441 c 0,-0.41018 -0.529352,-0.5827 -0.88423,-0.28818 -0.381255,0.31641 -0.193937,0.58898 0.404772,0.58898 0.299606,0 0.479458,-0.11284 0.479458,-0.3008 z m -59.318922,-0.092 c 0.162046,-0.10473 0.228338,-0.19176 0.147315,-0.19342 -0.25479,-0.005 -0.418834,-0.0444 -1.316672,-0.3146 -1.064373,-0.32033 -1.17497,-0.25426 -0.484071,0.2892 0.565751,0.44502 1.178017,0.52605 1.653428,0.21882 z m 8.642492,-5.70855 c 0,-1.32494 -0.972426,-0.95016 -3.235925,1.24716 -2.418337,2.34764 -2.62865,2.74579 -1.696,3.21077 0.420098,0.20944 4.931925,-3.86876 4.931925,-4.45793 z m -8.249652,4.03406 c 0,-0.39469 -0.121156,-0.52019 -0.593348,-0.61463 -0.326342,-0.0653 -0.64092,-0.19564 -0.699063,-0.28972 -0.323284,-0.52308 -1.340656,-0.0975 -1.052783,0.44035 0.507681,0.94862 2.345194,1.31217 2.345194,0.464 z m 1.964203,0.33709 c 0,-0.0874 -0.129773,-0.33046 -0.288384,-0.54016 -0.400889,-0.53002 -0.413415,-1.60309 -0.01485,-1.27231 0.677507,0.56228 0.910871,-0.22995 0.268996,-0.91319 -1.159559,-1.2343 -1.892691,0.38521 -1.013297,2.23839 0.274117,0.57766 1.047536,0.93742 1.047536,0.48727 z m 6.450793,-1.59936 c 0.980939,-0.96702 2.007948,-1.90527 2.282242,-2.085 0.536623,-0.35161 0.680661,-1.06727 0.214805,-1.06727 -0.156152,0 -0.399837,0.24307 -0.541522,0.54015 -0.184745,0.38738 -0.427887,0.55683 -0.859625,0.5991 -0.828772,0.0811 -4.072711,3.28883 -3.618288,3.57785 0.52595,0.33451 0.714171,0.21775 2.522388,-1.56483 z m 13.191234,0.81893 c 0,-0.4249 -2.34586,-2.79268 -2.766825,-2.79268 -0.177607,0 -0.560469,-0.18685 -0.850805,-0.41523 -1.138249,-0.89535 -0.593885,-0.16517 1.298707,1.74202 1.904062,1.91874 2.318923,2.181 2.318923,1.46589 z m 43.758017,-0.54498 c 0.861517,-0.60343 0.46694,-1.85486 -0.58484,-1.85486 -0.702052,0 -0.796169,0.72026 -0.108032,0.82675 0.40673,0.0629 0.38997,0.0963 -0.210319,0.41873 -0.532721,0.28614 -0.609311,0.4021 -0.417895,0.63275 0.304281,0.36663 0.776193,0.35828 1.321086,-0.0234 z m -42.911926,-1.62623 c 0.684311,-1.55102 -0.724304,-2.95579 -1.866549,-1.86145 -0.716485,0.68643 -0.712008,0.70674 0.382092,1.73307 1.131119,1.06105 1.075104,1.0562 1.484457,0.12838 z m -17.445427,-1.52051 c 0.959047,-0.97868 1.743918,-1.96648 1.872815,-2.35704 0.122038,-0.36978 0.338159,-0.67232 0.480269,-0.67232 0.142111,0 0.30926,-0.13259 0.371444,-0.29464 0.459065,-1.1963 -3.922767,2.38816 -4.857352,3.97346 -0.133708,0.2268 0.164751,1.03526 0.382186,1.03526 0.05484,0 0.842627,-0.75812 1.750638,-1.68472 z m 56.276232,0.85976 c 0,-0.48887 0.05238,-0.57617 0.235704,-0.39284 0.382937,0.38293 0.746397,0.2703 0.746397,-0.2313 0,-0.66649 -0.511294,-1.05113 -0.995386,-0.74881 -0.205824,0.12854 -0.508009,0.23371 -0.671521,0.23371 -0.308744,0 -0.412238,0.84686 -0.178071,1.45709 0.23137,0.60294 0.862877,0.37031 0.862877,-0.31785 z m 3.451315,-0.74519 c 0.316614,-0.002 4.171695,-6.97877 3.968411,-7.18206 -0.41655,-0.41655 -2.772915,0.1998 -2.974853,0.77812 -0.116829,0.33458 -0.769466,1.69224 -1.450304,3.01702 -1.000866,1.9475 -1.199215,2.48095 -1.035917,2.78608 0.111084,0.20756 0.201971,0.55473 0.201971,0.77149 0,0.36729 0.03675,0.37493 0.540155,0.11233 0.297086,-0.15497 0.634828,-0.28231 0.750537,-0.28298 z m -51.447539,-0.10295 c 0.375323,-0.97808 -1.014917,-2.04373 -2.298451,-1.76182 -0.742344,0.16305 -0.644653,0.60984 0.114782,0.52496 1.141229,-0.12755 1.497366,0.0966 1.355424,0.85326 -0.137331,0.73203 0.569002,1.05918 0.828245,0.3836 z m 2.915262,0.1058 c 0.06539,-0.1058 0.01728,-0.38221 -0.106898,-0.61424 -0.294308,-0.54992 0.01682,-0.75771 1.140613,-0.76175 0.835666,-0.003 1.108123,-0.24893 0.524091,-0.47305 -1.268811,-0.48689 -2.925515,0.66453 -2.510874,1.74506 0.127104,0.33123 0.769318,0.40129 0.953068,0.10398 z m -6.18473,-0.36215 c 0,-0.3519 -2.047098,-2.19105 -2.232463,-2.00568 -0.120902,0.1209 0.158495,0.54312 0.776263,1.17307 0.88937,0.90692 1.4562,1.23101 1.4562,0.83261 z m 9.841287,-0.77133 c 0.872273,-0.85509 1.195016,-1.42404 0.807803,-1.42404 -0.27266,0 -2.21803,2.08013 -2.077135,2.22103 0.216844,0.21684 0.267722,0.1849 1.269332,-0.79699 z m 3.864098,0.13039 c 0.05828,-0.30013 -2.428044,-2.87981 -2.605019,-2.70284 -0.05848,0.0585 0.07168,0.33264 0.289259,0.60925 0.217575,0.2766 0.395592,0.61782 0.395592,0.75828 0,0.75041 1.791791,1.99645 1.920168,1.33531 z M 36.8011,189.7411 c 0.429703,-0.75506 1.554187,-1.23925 2.603398,-1.12099 0.79391,0.0895 0.79391,0.0895 0.809655,-1.0694 0.01787,-1.31561 0.384321,-1.96869 1.414713,-2.5213 0.636741,-0.34148 0.636741,-0.34148 -0.06505,-0.75555 -0.89952,-0.53073 -1.35298,-1.56869 -1.210158,-2.77 0.105441,-0.8869 0.105441,-0.8869 -1.009307,-0.83239 -1.396709,0.0683 -1.96426,-0.22088 -2.562709,-1.30575 -0.467603,-0.84767 -0.467603,-0.84767 -0.887723,-0.0928 -0.561229,1.00836 -1.508812,1.48449 -2.771243,1.39247 -0.982102,-0.0716 -0.982102,-0.0716 -0.982102,1.28762 0,1.38234 -0.71906,2.4942 -1.613047,2.4942 -0.446365,0 -0.262425,0.28561 0.389881,0.60538 1.048182,0.51384 1.567813,1.46629 1.46932,2.69319 -0.08342,1.03908 -0.08314,1.03966 0.440658,0.92461 0.966599,-0.2123 2.210111,0.20849 2.848753,0.96398 0.715921,0.84691 0.704387,0.84581 1.124966,0.10678 z m -0.434882,-2.06972 c -2.722519,-0.74185 -4.30386,-3.90903 -2.794934,-5.59781 1.450016,-1.62285 4.88813,-0.0551 5.623028,2.56407 0.692393,2.46767 -0.441528,3.68404 -2.828094,3.03374 z m 1.922306,-0.90646 c 1.086865,-1.08687 -0.861944,-4.08287 -2.83137,-4.35281 -1.189279,-0.16301 -1.450592,0.0637 -1.450592,1.25835 0,1.97195 3.137256,4.23916 4.281962,3.09446 z m -6.867498,1.22579 c 0.205024,-1.40207 -0.83668,-2.64975 -1.787469,-2.14091 -0.444853,0.23808 -0.359264,0.87539 0.10839,0.80709 0.184915,-0.027 0.49089,-0.0712 0.679945,-0.0982 0.284334,-0.0406 0.354072,0.13131 0.403549,0.9949 0.0613,1.07001 0.460226,1.3628 0.595585,0.43713 z m 10.282269,-0.11168 c -0.12585,-1.12601 0.09926,-1.49688 0.825828,-1.36057 0.729865,0.13692 1.101458,-0.2893 0.608732,-0.69823 -0.870128,-0.72214 -2.223115,0.74125 -1.963718,2.12396 0.148593,0.79207 0.6185,0.7342 0.529158,-0.0652 z M 30.748649,183.2469 c 0.467967,-0.3681 0.52048,-0.52774 0.468435,-1.42405 -0.06762,-1.16449 -0.437018,-1.37111 -0.481018,-0.26906 -0.04592,1.15016 -0.170026,1.33119 -0.823033,1.20059 -0.613168,-0.12263 -0.92711,0.14036 -0.742338,0.62187 0.159396,0.41538 0.969906,0.34894 1.577954,-0.12935 z m 12.587876,-0.0765 c 0,-0.31802 -0.130947,-0.39284 -0.687471,-0.39284 -0.661773,0 -0.689564,-0.0294 -0.743449,-0.78568 -0.08096,-1.13634 -0.20825,-1.44543 -0.442631,-1.07481 -0.371106,0.58681 -0.214004,1.75499 0.305945,2.27494 0.611039,0.61104 1.567606,0.59785 1.567606,-0.0216 z m 61.258765,-2.68721 c -0.26179,-0.43625 0.39336,-0.27137 0.90361,0.22742 0.65779,0.64301 1.96884,0.85987 1.96884,0.32565 0,-0.53905 -0.80047,-1.30322 -1.36515,-1.30322 -0.88906,0 -1.07365,-0.43475 -0.3779,-0.89007 1.0052,-0.65783 1.08323,-1.07831 0.11085,-0.59734 -1.10877,0.54842 -1.74071,1.7884 -1.55887,3.05878 0.12651,0.88389 0.12651,0.88389 0.2627,0.0982 0.0749,-0.43213 0.10006,-0.84587 0.0559,-0.91943 z m -60.85438,0.67782 c 0.193246,-0.29493 1.17224,-1.36786 2.175542,-2.38429 1.734993,-1.7577 2.14529,-2.57924 1.288126,-2.57924 -0.409887,0 -3.385,3.28617 -3.262983,3.60414 0.144671,0.37701 -0.404684,1.10994 -0.831933,1.10994 -0.145303,0 -0.264188,0.17678 -0.264188,0.39285 0,0.56215 0.483917,0.48466 0.895436,-0.1434 z m -14.908633,-0.6267 c -0.68318,-1.20276 -5.066491,-5.59138 -5.267804,-5.27418 -0.267838,0.42201 -0.245846,0.44988 2.691625,3.41083 2.942983,2.96651 3.383954,3.28546 2.576179,1.86335 z m 14.209617,-0.41714 c 0,-0.28081 -1.790666,-1.95549 -2.090917,-1.95549 -0.4456,0 -0.309035,0.23883 0.749411,1.31059 0.923935,0.93556 1.341506,1.13629 1.341506,0.6449 z m 60.104606,0.009 c 0.21606,-0.21606 0.39284,-0.48938 0.39284,-0.60738 0,-0.118 0.17677,-0.43928 0.39284,-0.71396 0.53014,-0.67397 0.51423,-1.54617 -0.0336,-1.83934 -0.6009,-0.32159 -1.16221,0.35805 -0.62196,0.75309 0.31972,0.23378 0.31384,0.30277 -0.0979,1.15037 -0.35908,0.73908 -0.48848,0.85985 -0.71759,0.6697 -0.34776,-0.28861 -0.68957,-0.0971 -0.68957,0.38633 0,0.65466 0.80385,0.77229 1.37494,0.20119 z m -72.112944,-0.85685 c 0.754528,-0.76402 0.962073,-1.08325 0.755738,-1.16243 -0.308992,-0.11857 -2.103978,1.56802 -2.103978,1.97693 0,0.43079 0.293571,0.25343 1.34824,-0.8145 z m 3.669405,-0.0181 c 0.656921,-0.65692 0.683268,-1.73439 0.04018,-1.64306 -0.362179,0.0514 -0.441946,0.18685 -0.441946,0.75024 0,0.66177 -0.02937,0.68956 -0.785681,0.74345 -1.136337,0.081 -1.445422,0.20825 -1.074807,0.44263 0.579592,0.36654 1.754801,0.2142 2.262257,-0.29326 z m 5.490839,0.18749 c 0,-0.10803 -0.333183,-0.20972 -0.740408,-0.22598 -1.150153,-0.0459 -1.331192,-0.17003 -1.200591,-0.82303 0.132789,-0.66394 -0.190061,-0.97112 -0.633695,-0.60294 -0.349282,0.28988 -0.218128,1.06854 0.271478,1.61178 0.347742,0.38583 2.303216,0.41994 2.303216,0.0402 z m -10.381011,-1.16878 c 0.362014,-0.37276 0.658208,-0.74165 0.658208,-0.81976 0,-0.3624 -4.000554,-4.08041 -4.092551,-3.80351 -0.05341,0.16076 -0.362779,0.54072 -0.68749,0.84437 -0.590384,0.55208 -0.590384,0.55208 1.354567,2.50435 2.261216,2.26974 1.943062,2.1232 2.767266,1.27455 z M 102.16439,178.106 c 0,-0.52305 -0.62618,-1.03078 -2.607545,-2.11427 -3.476317,-1.901 -3.304131,-1.45844 -1.724747,-4.43304 1.748572,-3.29325 1.622351,-5.90294 -0.183116,-3.78602 -1.04627,1.22675 -1.796779,2.76613 -1.510007,3.09721 0.966876,1.11624 0.03204,3.3637 -1.399146,3.3637 -0.55985,0 -1.41432,-0.7502 -1.414507,-1.24189 -3.24e-4,-0.85006 -4.942379,-3.14703 -5.219156,-2.42576 -0.262929,0.68518 0.296977,1.22942 2.459717,2.39091 3.139861,1.68625 3.140873,1.68718 2.691359,2.45328 -0.432202,0.73659 -0.481127,0.68068 0.812247,0.92817 0.936799,0.17926 1.058339,0.16193 1.23959,-0.17675 0.259849,-0.48553 0.399491,-0.4354 3.322166,1.19258 2.369435,1.31981 3.533145,1.56746 3.533145,0.75188 z m -56.594968,-1.73824 c 2.331416,-2.29112 2.695235,-3.11629 1.373989,-3.11629 -0.97671,0 -4.778158,4.29732 -4.275121,4.83278 0.591789,0.62993 0.394925,0.7464 2.901132,-1.71649 z m -5.575231,1.41143 c 0.103643,-0.32655 0.637492,-0.65372 1.122408,-0.68787 0.233504,-0.0164 3.491246,-3.1405 3.49403,-3.35065 0.0014,-0.10905 -0.169307,-0.30565 -0.37945,-0.43689 -0.435417,-0.27192 -4.92127,3.84741 -4.92127,4.51917 0,0.46379 0.534031,0.42964 0.684282,-0.0438 z m -9.726522,-3.06148 c -1.559858,-1.56265 -2.986713,-2.84118 -3.170789,-2.84118 -0.427029,0 -0.710759,0.4389 -0.359436,0.556 0.145422,0.0485 1.206602,1.04742 2.358176,2.21987 1.818257,1.85122 3.635905,3.23551 3.919392,2.98494 0.04882,-0.0432 -1.187485,-1.35699 -2.747343,-2.91963 z m 19.610217,0.95846 c 0.06763,-0.92784 -0.3801,-2.1752 -0.844775,-2.35351 -0.449643,-0.17255 -0.589946,0.0586 -0.344456,0.56748 0.435871,0.90352 0.393975,2.04193 -0.04878,1.32554 -0.177564,-0.28731 -0.49105,-0.0444 -0.49105,0.38047 0,1.15878 1.644889,1.23491 1.729064,0.08 z m -27.622902,1.1e-4 c 0.197561,-0.17879 0.359202,-0.53234 0.359202,-0.78568 0,-0.36036 0.106865,-0.4606 0.491051,-0.4606 0.311942,0 0.49105,-0.11072 0.49105,-0.30354 0,-0.29295 -0.630127,-0.28261 -1.785438,0.0293 -0.518381,0.13996 -0.845975,0.94008 -0.584745,1.42819 0.26859,0.50187 0.548577,0.52699 1.02888,0.0923 z m 30.572481,-1.09222 c -0.119372,-0.82768 -2.056283,-1.72437 -2.427459,-1.12379 -0.155898,0.25225 0.453593,0.96973 0.823773,0.96973 0.145303,0 0.264187,0.0822 0.264187,0.18275 0,0.16449 0.42483,0.30563 1.143078,0.37976 0.160833,0.0166 0.235369,-0.1384 0.196421,-0.40845 z m -31.858864,-0.94008 c 0.04082,0 0.07422,-0.12032 0.07422,-0.26739 0,-0.34152 -0.941679,-0.19485 -1.419415,0.22108 -0.533051,0.46409 -0.201332,0.66148 0.570019,0.33919 0.385523,-0.16108 0.734351,-0.29288 0.775173,-0.29288 z m 3.818714,-1.21064 c -0.231422,-1.49821 -2.09881,-2.85755 -2.868368,-2.088 -0.35609,0.35609 0.211975,2.16538 0.772852,2.46154 0.463365,0.24466 2.006321,0.63104 2.209115,0.55318 0.01534,-0.006 -0.03578,-0.42291 -0.113599,-0.92672 z m 70.664628,0.1651 c 0.386346,-0.80608 0.179802,-1.11508 -0.745352,-1.11508 -0.572916,0 -0.791846,0.0815 -0.791846,0.29463 0,0.18333 0.185509,0.29463 0.491051,0.29463 0.543627,0 0.675315,0.51591 0.245526,0.96188 -0.198564,0.20604 -0.170672,0.24128 0.145819,0.1842 0.21524,-0.0388 0.509901,-0.31793 0.654802,-0.62026 z m -42.589035,0.054 c 0,-0.30612 -1.141108,-0.72887 -1.686159,-0.62468 -0.64608,0.1235 -0.600834,0.43451 0.06569,0.45155 0.297086,0.008 0.716934,0.0898 0.932997,0.18261 0.541008,0.23248 0.687471,0.23046 0.687471,-0.009 z m -7.16934,-0.38336 c -0.155234,-0.4891 0.756968,-0.55063 1.363379,-0.092 0.517169,0.39117 0.681624,0.36244 0.561209,-0.098 -0.149314,-0.57098 -0.474776,-0.76946 -1.616884,-0.98606 -1.571741,-0.29807 -2.108862,0.1 -1.463635,1.08474 0.407119,0.62135 1.34774,0.69564 1.155931,0.0913 z m 4.033336,-0.20897 c 0.161044,-0.30092 0.156627,-0.4781 -0.01714,-0.68747 -0.550975,-0.66389 -1.576787,-0.0636 -1.174821,0.68747 0.119328,0.22296 0.38752,0.40539 0.59598,0.40539 0.20846,0 0.476652,-0.18243 0.595981,-0.40539 z m -28.68408,-0.17232 c 0,-0.4842 -0.203968,-0.60571 -1.071523,-0.63833 -0.888955,-0.0334 -1.046565,0.13114 -0.599139,0.62554 0.490079,0.54153 1.670662,0.55057 1.670662,0.0128 z m 4.910507,-0.30622 c 0,-0.38418 0.100239,-0.49105 0.460608,-0.49105 1.070403,0 1.431356,-1.37417 0.401798,-1.52967 -0.767864,-0.11597 -1.830159,1.87139 -1.28937,2.41218 0.237229,0.23723 0.426964,0.0633 0.426964,-0.39146 z m 61.09449,-0.11275 c 0.1841,-0.344 0.155667,-0.4237 -0.182721,-0.51219 -0.400746,-0.1048 -0.400746,-0.1048 0.0094,-0.91845 0.519666,-1.0308 0.497142,-1.01074 0.827401,-0.73665 0.531072,0.44075 1.039294,-0.32908 0.54414,-0.82424 -0.479213,-0.47921 -1.278518,-0.0954 -1.608424,0.7723 -0.103629,0.27257 -0.320657,0.62781 -0.482284,0.78944 -0.356054,0.35606 -0.390404,1.56906 -0.04834,1.70709 0.483807,0.19522 0.726119,0.12379 0.940781,-0.2773 z m -34.970594,-0.74183 c 0,-1.1442 -1.449452,-2.44279 -2.05296,-1.83928 -0.266713,0.26671 -0.07219,1.33136 0.319417,1.74821 0.548279,0.58361 1.733543,0.64588 1.733543,0.0911 z m 32.674015,-0.42215 c 0.482711,0 1.366107,-2.07696 1.218363,-2.86451 -0.124931,-0.66593 -0.551656,-0.76524 -0.487711,-0.1135 0.12413,1.26519 -0.190847,1.53681 -0.833994,0.71918 -0.425359,-0.54076 -1.933416,-0.73313 -1.924743,-0.24553 0.0087,0.48782 0.725397,1.1676 1.370057,1.29944 0.834458,0.17067 0.937903,0.46809 0.284441,0.81781 -0.280918,0.15034 -0.605474,0.45032 -0.721234,0.66662 -0.204993,0.38304 -0.197105,0.38452 0.302928,0.0569 0.282371,-0.18501 0.638723,-0.33639 0.791893,-0.33639 z m -37.191681,-0.39975 c 0,-0.5699 -0.45303,-1.50083 -0.879354,-1.80697 -0.596153,-0.4281 -0.922564,0.19207 -0.516723,0.98176 0.09641,0.18759 0.27129,0.58414 0.38863,0.88122 0.30964,0.78397 1.007447,0.74517 1.007447,-0.056 z m -26.80694,0.21049 c -0.150829,-0.24404 0.590865,-0.98926 0.984584,-0.98926 0.519471,0 -0.05409,-0.78441 -0.802093,-1.09694 -1.598663,-0.66797 -2.194583,0.53234 -0.948106,1.90968 0.337466,0.3729 0.978297,0.52065 0.765615,0.17652 z m 28.181882,-0.65093 c 0,-0.62747 -0.451801,-1.51685 -0.770554,-1.51685 -0.08746,0 -0.02371,0.48614 0.141671,1.08031 0.33645,1.20879 0.628883,1.41178 0.628883,0.43654 z M 23.831769,168.979 c 0.07479,-0.62004 -0.348157,-1.42404 -0.749123,-1.42404 -0.325742,0 -0.370033,1.02124 -0.06871,1.58427 0.296271,0.55359 0.74227,0.46621 0.817832,-0.16023 z m 1.705731,-0.31466 c 0.151839,-0.39895 0.21152,-0.78967 0.132623,-0.86827 -0.224017,-0.22317 -0.895314,0.72918 -0.895314,1.27017 0,0.69611 0.431282,0.46884 0.762691,-0.4019 z m 76.22714,0.47489 c 0.55231,-1.032 0.19924,-1.58532 -1.56445,-2.45173 -0.594167,-0.29189 -1.433864,-0.74728 -1.865988,-1.01197 -1.485577,-0.90999 -3.47503,-0.007 -2.355735,1.06907 0.560286,0.53872 1.275423,0.72518 1.275423,0.33254 0,-0.19546 -0.175058,-0.30787 -0.479458,-0.30787 -0.589268,0 -0.8127,-0.31387 -0.495502,-0.69607 0.4007,-0.48282 1.123887,-0.32398 2.72209,0.59786 0.842824,0.48614 1.6311,0.8839 1.75172,0.8839 0.28125,0 0.62597,0.64189 0.62597,1.1656 0,0.27481 -0.12678,0.40576 -0.39284,0.40576 -0.21824,0 -0.39284,-0.13095 -0.39284,-0.29463 0,-0.16205 -0.13258,-0.29463 -0.29463,-0.29463 -0.399144,0 -0.372199,0.38885 0.0491,0.70867 0.50199,0.38107 1.18361,0.32984 1.41714,-0.1065 z m -1.17161,-3.53241 c 0,-0.4343 -0.26469,-0.80175 -0.57753,-0.80175 -0.571267,0 -0.64149,0.26204 -0.16789,0.62648 0.5037,0.3876 0.74542,0.44443 0.74542,0.17527 z m 1.86599,-0.0161 c 0.0689,-0.1114 -0.0962,-0.19642 -0.38124,-0.19642 -0.27646,0 -0.50265,0.0884 -0.50265,0.19642 0,0.10803 0.17157,0.19642 0.38125,0.19642 0.20969,0 0.43588,-0.0884 0.50264,-0.19642 z m -0.70668,-1.79709 c 0.62189,-1.78396 0.16677,-2.32509 -0.986,-1.17232 -0.920771,0.92078 -0.928813,1.01602 -0.11995,1.42058 0.8789,0.43959 0.86508,0.44269 1.10595,-0.24826 z m -2.730667,0.15157 c 0,-0.14882 -0.132584,-0.38061 -0.294631,-0.5151 -0.312348,-0.25923 -0.383359,-0.0669 -0.175405,0.47499 0.14667,0.38221 0.470036,0.40981 0.470036,0.0401 z"
       id="path2" /></g></svg>
