<?xml version="1.0" encoding="UTF-8" standalone="no"?>
<svg
   version="1.0"
   width="886.07318pt"
   height="886.07361pt"
   viewBox="0 0 886.07318 886.07361"
   preserveAspectRatio="xMidYMid"
   id="svg72"
   sodipodi:docname="corner12.svg"
   inkscape:version="1.4 (86a8ad7, 2024-10-11)"
   xmlns:inkscape="http://www.inkscape.org/namespaces/inkscape"
   xmlns:sodipodi="http://sodipodi.sourceforge.net/DTD/sodipodi-0.dtd"
   xmlns="http://www.w3.org/2000/svg"
   xmlns:svg="http://www.w3.org/2000/svg">
  <defs
     id="defs72">
    <inkscape:path-effect
       effect="mirror_symmetry"
       start_point="2966.245,65.53183"
       end_point="2807.243,224.53453"
       center_point="2886.744,145.03318"
       id="path-effect84"
       is_visible="true"
       lpeversion="1.2"
       lpesatellites=""
       mode="free"
       discard_orig_path="false"
       fuse_paths="true"
       oposite_fuse="true"
       split_items="false"
       split_open="false"
       link_styles="false" />
  </defs>
  <sodipodi:namedview
     id="namedview72"
     pagecolor="#ffffff"
     bordercolor="#666666"
     borderopacity="1.0"
     inkscape:showpageshadow="2"
     inkscape:pageopacity="0.0"
     inkscape:pagecheckerboard="0"
     inkscape:deskcolor="#d1d1d1"
     inkscape:document-units="pt"
     inkscape:zoom="0.699919"
     inkscape:cx="-1513.0322"
     inkscape:cy="329.32382"
     inkscape:window-width="3840"
     inkscape:window-height="2126"
     inkscape:window-x="3829"
     inkscape:window-y="-11"
     inkscape:window-maximized="1"
     inkscape:current-layer="svg72"
     showgrid="false">
    <inkscape:page
       x="0"
       y="-1.4629301e-13"
       width="886.07318"
       height="886.07367"
       id="page2"
       margin="0"
       bleed="0" />
  </sodipodi:namedview>
  <metadata
     id="metadata1">
Created by potrace 1.16, written by Peter Selinger 2001-2019
</metadata>
  <path
     style="font-variation-settings:normal;opacity:1;vector-effect:none;fill:#ffffff;fill-opacity:1;stroke:none;stroke-width:3.30236;stroke-linecap:round;stroke-linejoin:round;stroke-miterlimit:9;stroke-dasharray:none;stroke-dashoffset:0;stroke-opacity:1;-inkscape-stroke:none;stop-color:#000000;stop-opacity:1"
     d="m 721.33238,700.81554 4.16736,-541.50867 -539.48388,7.57702 8.05059,25.47773 480.66726,11.64967 19.04936,488.64644 z"
     id="path1"
     sodipodi:nodetypes="ccccccc" />
  <g
     id="g80"
     inkscape:label="esquina reflejada"
     style="display:inline"
     inkscape:path-effect="#path-effect84"
     transform="translate(-2084.1189,-61.58505)"
     inkscape:export-filename="C:\Users\Daniel\Desktop\corner12.svg"
     inkscape:export-xdpi="400"
     inkscape:export-ydpi="400">
    <path
       id="path77"
       style="stroke-linejoin:round;stroke-miterlimit:9"
       d="m 2775.9419,504.30029 c 7.1584,10.84354 13.6109,21.25274 17.7026,30.53174 3.2411,10.79342 -0.201,20.85767 -5.6499,23.07129 -6.3428,2.57677 -12.9504,1.8494 -16.2539,-6.0791 -9.6464,10.63741 -5.2855,20.61475 -0.6606,25.0415 3.8005,3.63763 12.5951,6.64681 18.4702,5.14893 -7.0742,9.20326 -11.7043,16.88668 -12.3926,23.8418 -0.6919,6.99226 2.1905,13.90783 6.7808,17.56787 14.8997,11.88041 25.4402,-8.37293 11.8711,-16.73438 0,0 0.9553,8.69163 -5.168,9.68408 -5.9997,0.97244 -8.5125,-5.04458 -8.6777,-9.00439 -0.256,-6.13743 3.7558,-13.68443 10.6421,-22.62598 7.5454,-9.7974 12.2475,-22.69761 10.998,-35.7876 -1.2496,-13.08999 -8.7082,-27.14082 -22.0576,-43.62744 z M 2527.4774,255.83686 c -10.8436,-7.15835 -21.2528,-13.6108 -30.5318,-17.70246 -10.7935,-3.24106 -20.8577,0.20109 -23.0713,5.65 -2.5767,6.34281 -1.8493,12.95041 6.0792,16.25387 -10.6374,9.64645 -20.6148,5.28559 -25.0415,0.66071 -3.6377,-3.80048 -6.6469,-12.59507 -5.149,-18.47018 -9.2033,7.07424 -16.8867,11.70438 -23.8418,12.39271 -6.9922,0.69193 -13.9078,-2.19044 -17.5679,-6.78072 -11.8805,-14.89965 8.3728,-25.44024 16.7343,-11.87118 0,0 -8.6916,-0.95526 -9.684,5.16805 -0.9724,5.9997 5.0446,8.51247 9.0044,8.67766 6.1374,0.25597 13.6844,-3.75586 22.6259,-10.6422 9.7974,-7.54545 22.6976,-12.2476 35.7876,-10.99816 13.09,1.24954 27.1409,8.70808 43.6275,22.05741 z m 264.6129,305.23785 c 0.349,11.59997 -18.533,11.62778 -18.0366,0.26367 6.3629,4.10349 13.2795,3.37024 18.0366,-0.26367 z m -321.3874,-321.386 c -11.6,-0.34895 -11.6277,18.53305 -0.2636,18.0366 -4.1035,-6.36288 -3.3703,-13.27948 0.2636,-18.0366 z"
       sodipodi:nodetypes="ccscscsscssssccccc"
       inkscape:original-d="m 2775.9419,504.30029 c 7.1584,10.84354 13.6109,21.25274 17.7026,30.53174 3.2411,10.79342 -0.201,20.85767 -5.6499,23.07129 -6.3428,2.57677 -12.9504,1.8494 -16.2539,-6.0791 -9.6464,10.63741 -5.2855,20.61475 -0.6606,25.0415 3.8005,3.63763 12.5951,6.64681 18.4702,5.14893 -7.0742,9.20326 -11.7043,16.88668 -12.3926,23.8418 -0.6919,6.99226 2.1905,13.90783 6.7808,17.56787 14.8997,11.88041 25.4402,-8.37293 11.8711,-16.73438 0,0 0.9553,8.69163 -5.168,9.68408 -5.9997,0.97244 -8.5125,-5.04458 -8.6777,-9.00439 -0.256,-6.13743 3.7558,-13.68443 10.6421,-22.62598 7.5454,-9.7974 12.2475,-22.69761 10.998,-35.7876 -1.2496,-13.08999 -8.7082,-27.14082 -22.0576,-43.62744 z m 16.1484,56.77442 c 0.349,11.59997 -18.533,11.62778 -18.0366,0.26367 6.3629,4.10349 13.2795,3.37024 18.0366,-0.26367 z" />
    <path
       id="path73"
       style="stroke-miterlimit:9"
       d="m 2857.7695,393.71045 c -37.3043,0 -59.5544,24.07725 -62.8491,48.83496 -1.6473,12.37886 0.8771,24.96025 7.7534,35.13867 6.8763,10.17843 18.6477,17.63127 32.8301,18.43067 11.48,0.64709 21.1167,-1.94756 28.0327,-7.33741 6.9161,-5.38984 10.4681,-13.17535 11.2017,-20.40234 0.7336,-7.22699 -0.8326,-14.12846 -4.9409,-19.89697 -4.1084,-5.76852 -13.0054,-10.39267 -21.3794,-7.89258 l 6.2929,21.08057 c -0.9008,0.26895 -3.2092,-0.95249 -2.8344,-0.42627 0.3747,0.52623 1.186,2.8112 0.9726,4.91308 -0.2133,2.10189 -0.935,3.7891 -2.8359,5.27051 -1.9009,1.48141 -5.6246,3.15563 -13.2715,2.72461 -7.6784,-0.4328 -12.3726,-3.64717 -15.8394,-8.77881 -3.4668,-5.13164 -5.1605,-12.50342 -4.1733,-19.92187 1.9744,-14.83691 12.4061,-29.73633 41.0405,-29.73633 13.5099,0 24.2046,2.7914 32.8638,7.43994 2.1121,-4.04218 7.0799,-10.58364 18.0029,-14.05225 -13.2171,-9.25368 -30.0436,-15.38818 -50.8667,-15.38818 z M 2638.0669,174.00877 c 1e-4,37.3043 -24.077,59.55451 -48.8347,62.84932 -12.3789,1.64735 -24.9603,-0.87699 -35.1387,-7.75325 -10.1785,-6.87625 -17.6314,-18.64762 -18.4308,-32.83001 -0.6472,-11.48 1.9474,-21.11671 7.3372,-28.03274 5.3899,-6.91612 13.1753,-10.46815 20.4023,-11.20179 7.227,-0.73363 14.1285,0.83254 19.897,4.94082 5.7686,4.10837 10.3928,13.00535 7.8927,21.37936 l -21.0806,-6.29281 c -0.2689,0.90081 0.9525,3.2092 0.4263,2.8344 -0.5262,-0.3747 -2.8112,-1.18599 -4.9131,-0.97258 -2.1019,0.21331 -3.7891,0.93502 -5.2705,2.83593 -1.4814,1.9009 -3.1556,5.62461 -2.7245,13.27151 0.4328,7.6784 3.6472,12.37258 8.7788,15.83936 5.1317,3.46678 12.5035,5.16045 19.9219,4.17321 14.8369,-1.97446 29.7363,-12.40623 29.7362,-41.04063 -1e-4,-13.5099 -2.7915,-24.20459 -7.4401,-32.86377 4.0422,-2.11211 10.5836,-7.07994 14.0522,-18.00296 9.2537,13.21706 15.3883,30.04353 15.3884,50.86663 z m 284.6875,252.71486 c -6.4384,0.0178 -11.9565,1.79618 -17.7026,7.68164 4.3168,4.58593 7.9928,9.69755 11.083,15.19629 10.5411,18.75721 13.5234,41.70214 13.5234,50.87549 0,7.76961 -1.5952,29.17429 -10.9145,48.42774 -9.3192,19.25344 -24.9614,36.52269 -56.8726,40.96435 l -9.4849,1.31836 v 64.14697 c -17.1365,3.65497 -33.2314,15.35089 -46.2011,31.12647 -12.3818,15.06045 -21.8872,34.27265 -25.4063,55.39306 5.1512,3.48448 12.1736,6.54841 21.085,6.71192 0.055,10e-4 0.1061,0.005 0.1611,0.006 2.3903,-18.06346 10.4721,-35.14622 21.1553,-48.14063 12.7787,-15.54327 29.0744,-24.41308 40.207,-24.41308 h 10.9995 v -66.31348 c 33.2745,-7.7218 53.5783,-29.35463 64.1602,-51.2168 11.5676,-23.89859 13.1118,-47.69579 13.1118,-58.01074 0,-13.17376 -3.1164,-38.11337 -16.3447,-61.65234 -2.2742,-4.04672 -4.9276,-8.02398 -7.9175,-11.85498 -1.6044,-0.15453 -3.1508,-0.25021 -4.6421,-0.2461 z m -317.701,-317.69961 c -0.018,6.4384 -1.7961,11.95651 -7.6816,17.70263 -4.5859,-4.31678 -9.6976,-7.99275 -15.1963,-11.08293 -18.7573,-10.54102 -41.7022,-13.52322 -50.8756,-13.52318 -7.7696,4e-5 -29.1742,1.59533 -48.4277,10.91472 -19.2533,9.31928 -36.5225,24.96156 -40.9641,56.87278 l -1.3183,9.4849 -64.1469,2.9e-4 c -3.6549,17.13651 -15.3508,33.23146 -31.1263,46.20123 -15.0604,12.38187 -34.2726,21.88735 -55.393,25.40655 -3.4845,-5.15119 -6.5484,-12.17357 -6.712,-21.08497 -0,-0.055 -0.01,-0.1061 -0.01,-0.1611 18.0635,-2.39038 35.1462,-10.47226 48.1406,-21.15551 15.5432,-12.77877 24.4129,-29.07451 24.4129,-40.20711 l -1e-4,-10.9995 66.3135,-2.9e-4 c 7.7217,-33.27454 29.3544,-53.57843 51.2165,-64.16043 23.8986,-11.567705 47.6958,-13.11201 58.0107,-13.112055 13.1738,-5.8e-5 38.1134,3.116232 61.6524,16.344428 4.0467,2.274183 8.024,4.927567 11.855,7.917447 0.1546,1.6044 0.2503,3.1508 0.2462,4.6421 z m 174.5535,642.5668 c -0.1877,2.5485 -0.3808,5.0966 -0.3808,7.68604 v 188.38183 h 22.0005 V 759.27686 c 0,-0.0883 0.013,-0.1754 0.013,-0.26368 -10.1898,-0.97139 -17.0143,-3.61748 -21.6328,-7.42236 z M 2280.1868,252.17295 c -2.5485,0.18771 -5.0966,0.38082 -7.686,0.38083 l -188.3818,8.3e-4 -1e-4,-22.0005 188.3818,-8.3e-4 c 0.088,0 0.1754,-0.013 0.2637,-0.013 0.9714,10.1898 3.6175,17.01429 7.4224,21.63277 z"
       inkscape:original-d="m 2857.7695,393.71045 c -37.3043,0 -59.5544,24.07725 -62.8491,48.83496 -1.6473,12.37886 0.8771,24.96025 7.7534,35.13867 6.8763,10.17843 18.6477,17.63127 32.8301,18.43067 11.48,0.64709 21.1167,-1.94756 28.0327,-7.33741 6.9161,-5.38984 10.4681,-13.17535 11.2017,-20.40234 0.7336,-7.22699 -0.8326,-14.12846 -4.9409,-19.89697 -4.1084,-5.76852 -13.0054,-10.39267 -21.3794,-7.89258 l 6.2929,21.08057 c -0.9008,0.26895 -3.2092,-0.95249 -2.8344,-0.42627 0.3747,0.52623 1.186,2.8112 0.9726,4.91308 -0.2133,2.10189 -0.935,3.7891 -2.8359,5.27051 -1.9009,1.48141 -5.6246,3.15563 -13.2715,2.72461 -7.6784,-0.4328 -12.3726,-3.64717 -15.8394,-8.77881 -3.4668,-5.13164 -5.1605,-12.50342 -4.1733,-19.92187 1.9744,-14.83691 12.4061,-29.73633 41.0405,-29.73633 13.5099,0 24.2046,2.7914 32.8638,7.43994 2.1121,-4.04218 7.0799,-10.58364 18.0029,-14.05225 -13.2171,-9.25368 -30.0436,-15.38818 -50.8667,-15.38818 z m 64.9849,33.01318 c -6.4384,0.0178 -11.9565,1.79618 -17.7026,7.68164 4.3168,4.58593 7.9928,9.69755 11.083,15.19629 10.5411,18.75721 13.5234,41.70214 13.5234,50.87549 0,7.76961 -1.5952,29.17429 -10.9145,48.42774 -9.3192,19.25344 -24.9614,36.52269 -56.8726,40.96435 l -9.4849,1.31836 v 64.14697 c -17.1365,3.65497 -33.2314,15.35089 -46.2011,31.12647 -12.3818,15.06045 -21.8872,34.27265 -25.4063,55.39306 5.1512,3.48448 12.1736,6.54841 21.085,6.71192 0.055,10e-4 0.1061,0.005 0.1611,0.006 2.3903,-18.06346 10.4721,-35.14622 21.1553,-48.14063 12.7787,-15.54327 29.0744,-24.41308 40.207,-24.41308 h 10.9995 v -66.31348 c 33.2745,-7.7218 53.5783,-29.35463 64.1602,-51.2168 11.5676,-23.89859 13.1118,-47.69579 13.1118,-58.01074 0,-13.17376 -3.1164,-38.11337 -16.3447,-61.65234 -2.2742,-4.04672 -4.9276,-8.02398 -7.9175,-11.85498 -1.6044,-0.15453 -3.1508,-0.25021 -4.6421,-0.2461 z m -143.1475,324.86719 c -0.1877,2.5485 -0.3808,5.0966 -0.3808,7.68604 v 188.38183 h 22.0005 V 759.27686 c 0,-0.0883 0.013,-0.1754 0.013,-0.26368 -10.1898,-0.97139 -17.0143,-3.61748 -21.6328,-7.42236 z" />
    <path
       style="opacity:1;fill:#000000;fill-opacity:1;stroke-width:22;stroke-linecap:round;stroke-linejoin:miter;stroke-miterlimit:9;stroke-dasharray:none;paint-order:stroke markers fill"
       id="path74"
       sodipodi:type="arc"
       sodipodi:cx="2851.6047"
       sodipodi:cy="457.45691"
       sodipodi:rx="18.495564"
       sodipodi:ry="18.495564"
       d="m 2870.1003,457.45691 c 0,10.21482 -8.2807,18.49556 -18.4956,18.49556 -10.2148,0 -18.4955,-8.28074 -18.4955,-18.49556 0,-10.21482 8.2807,-18.49556 18.4955,-18.49556 10.2149,0 18.4956,8.28074 18.4956,18.49556 z m -295.78,-295.77865 c -10.2148,4e-5 -18.4955,8.28082 -18.4954,18.49564 0,10.21482 8.2808,18.49553 18.4956,18.49548 10.2148,-4e-5 18.4955,-8.28082 18.4955,-18.49564 -10e-5,-10.21482 -8.2808,-18.49553 -18.4957,-18.49548 z" />
    <path
       style="font-variation-settings:normal;opacity:1;fill:none;fill-opacity:1;stroke:#000000;stroke-width:22;stroke-linecap:butt;stroke-linejoin:round;stroke-miterlimit:9;stroke-dasharray:none;stroke-dashoffset:0;stroke-opacity:1;stop-color:#000000;stop-opacity:1"
       d="m 2858.4404,404.75036 v -36.23185 m -231.4135,-195.18059 36.2319,-1.6e-4"
       id="path75"
       inkscape:original-d="M 2858.4404,404.75036 V 368.51851" />
    <path
       style="stroke-linecap:round;stroke-miterlimit:9"
       d="m 2830.4238,366.50586 c -32.5569,9.45743 -50.1585,27.94965 -59.2695,46.29297 -9.111,18.34332 -9.8712,36.4251 -9.4727,45.53711 0.4292,9.81085 2.8339,28.59039 13.3926,45.19531 10.5588,16.60492 29.5578,30.82031 61.8594,30.82031 26.0269,0 40.8618,-10.48347 48.8262,-21.04687 2.7643,-3.66636 4.5157,-7.17865 5.8984,-10.42383 1.2453,16.64215 -4.2694,30.57174 -14.6133,40.43945 -12.4714,11.89725 -32.034,17.96847 -55.291,14.96289 l -2.8203,-0.36328 v 79.08203 c -24.5994,7.64536 -40.155,24.26545 -48.4063,41.46094 -3.6155,7.53465 -6.8241,14.49143 -8.1268,21.52366 -2.4869,13.4251 -2.7885,32.69195 8.4413,48.41384 6.4187,8.98626 14.3535,13.15582 21.7559,14.65234 7.4023,1.49653 14.2529,0.43433 18.9336,-0.58203 5.9442,-1.29074 12.6877,-6.70793 16.5976,-14.1289 3.91,-7.42097 4.316,-17.37828 -3.7988,-25.81641 l -5.3792,-3.75031 1.094,5.20734 c -0.797,7.17342 -3.4148,10.38337 -6.6218,13.42132 -3.2071,3.03795 -6.9652,3.76225 -12.5917,3.76225 -2.1875,0 -7.4265,-0.50913 -13.5376,-3.51851 -11.8607,-5.84072 -17.7708,-21.50069 -16.9818,-38.30826 0.3283,-6.99362 1.9521,-12.57204 4.7236,-18.71422 7.9421,-16.55131 22.8266,-32.49346 47.0878,-39.44727 l 1.8106,-0.51953 v -77.18359 c 23.2523,2.32638 43.3554,-3.93807 56.5625,-16.53711 13.7448,-13.11198 19.8309,-32.96678 14.4785,-55.76367 l -2.8883,-10.20527 c 0,0 -0.3646,7.14259 -1.367,10.54087 -1.9624,6.65246 -1.7966,9.29348 -8.9517,18.78354 -7.1552,9.49005 -20.1246,19.05859 -44.834,19.05859 -30.8619,0 -47.8216,-13.06234 -57.6406,-28.5039 -9.819,-15.44157 -12.2104,-33.47487 -12.6153,-42.73047 -0.3733,-8.53533 0.3805,-25.8303 8.9551,-43.09375 8.5746,-17.26346 24.8296,-34.60822 56.1856,-43.7168 1.3255,-0.38528 2.088,-1.77199 1.7031,-3.09766 -0.3853,-1.32557 -1.772,-2.08801 -3.0977,-1.70312 z m -165.1522,-165.1515 c -9.4573,32.55694 -27.9495,50.15862 -46.2927,59.2697 -18.3433,9.11108 -36.4251,9.87136 -45.5371,9.4729 -9.8109,-0.42916 -28.5904,-2.83377 -45.1954,-13.3924 -16.6049,-10.55873 -30.8204,-29.55767 -30.8206,-61.85927 -1e-4,-26.0269 10.4833,-40.86184 21.0467,-48.82629 3.6663,-2.76431 7.1786,-4.51573 10.4238,-5.89844 -16.6422,-1.24523 -30.5717,4.26953 -40.4394,14.61347 -11.8972,12.47146 -17.9683,32.03408 -14.9626,55.29107 l 0.3633,2.8203 -79.0821,3.5e-4 c -7.6452,24.59943 -24.2652,40.1551 -41.4607,48.40648 -7.5346,3.61553 -14.4914,6.82416 -21.5236,8.12689 -13.4251,2.48696 -32.692,2.78865 -48.4139,-8.44108 -8.9863,-6.41866 -13.1559,-14.35345 -14.6524,-21.75584 -1.4966,-7.40229 -0.4344,-14.2529 0.5819,-18.9336 1.2907,-5.94421 6.7079,-12.68773 14.1288,-16.59766 7.421,-3.91004 17.3783,-4.31608 25.8165,3.79868 l 3.7503,5.37919 -5.2073,-1.09398 c -7.1735,0.79703 -10.3834,3.41484 -13.4213,6.62186 -3.038,3.20711 -3.7623,6.96521 -3.7622,12.59171 0,2.1875 0.5091,7.4265 3.5185,13.53759 5.8408,11.86067 21.5008,17.7707 38.3084,16.98163 6.9936,-0.32833 12.572,-1.95216 18.7142,-4.72368 16.5512,-7.94217 32.4933,-22.82675 39.447,-47.08798 l 0.5196,-1.8106 77.1835,-3.4e-4 c -2.3264,-23.25229 3.9379,-43.35542 16.5369,-56.56257 13.1119,-13.74486 32.9667,-19.83105 55.7636,-14.47875 l 10.2053,2.88826 c 0,0 -7.1426,0.36463 -10.5409,1.36705 -6.6524,1.96242 -9.2934,1.79664 -18.7835,8.95178 -9.49,7.15524 -19.0585,20.12468 -19.0584,44.83408 2e-4,30.8619 13.0626,47.82154 28.5042,57.64048 15.4416,9.81893 33.4749,12.21025 42.7305,12.61511 8.5354,0.37326 25.8303,-0.38062 43.0937,-8.95529 17.2635,-8.57468 34.6081,-24.82975 43.7166,-56.18579 0.3853,-1.32551 1.772,-2.08801 3.0976,-1.70312 1.3256,0.3853 2.0881,1.77199 1.7032,3.0977 z m 102.7753,527.9933 c 4.3974,7.2331 10.3597,12.01134 16.1035,14.83984 6.9189,3.40719 13.2623,4.31445 16.4941,4.31445 6.5321,0 12.3148,-1.83118 16.5899,-5.88086 3.165,-2.99812 5.4106,-7.11877 6.7285,-12.28125 3.1164,5.51769 2.2805,10.85415 -0.2578,15.67188 -3.2008,6.07501 -9.6705,10.79797 -13.2363,11.57226 -4.3863,0.95244 -10.5234,1.85327 -16.879,0.56836 -6.3556,-1.2849 -12.9494,-4.63863 -18.6777,-12.6582 -3.6097,-5.05366 -5.6728,-10.57172 -6.8652,-16.14648 z M 2302.43,263.73285 c -7.2331,-4.39737 -12.0113,-10.35964 -14.8399,-16.10343 -3.4072,-6.91889 -4.3145,-13.26228 -4.3145,-16.49408 0,-6.5321 1.8311,-12.31481 5.8808,-16.58993 2.9981,-3.16501 7.1187,-5.41063 12.2812,-6.72855 -5.5177,-3.11638 -10.8541,-2.28046 -15.6719,0.25787 -6.075,3.20082 -10.7979,9.67054 -11.5722,13.23635 -0.9524,4.3863 -1.8532,10.5234 -0.5682,16.879 1.2849,6.35559 4.6386,12.94938 12.6582,18.67764 5.0537,3.60968 10.5718,5.67276 16.1465,6.86513 z"
       id="path76"
       sodipodi:nodetypes="sssssscscccsssssscccssssssccsscsssssssssscssscssssc"
       inkscape:original-d="m 2830.4238,366.50586 c -32.5569,9.45743 -50.1585,27.94965 -59.2695,46.29297 -9.111,18.34332 -9.8712,36.4251 -9.4727,45.53711 0.4292,9.81085 2.8339,28.59039 13.3926,45.19531 10.5588,16.60492 29.5578,30.82031 61.8594,30.82031 26.0269,0 40.8618,-10.48347 48.8262,-21.04687 2.7643,-3.66636 4.5157,-7.17865 5.8984,-10.42383 1.2453,16.64215 -4.2694,30.57174 -14.6133,40.43945 -12.4714,11.89725 -32.034,17.96847 -55.291,14.96289 l -2.8203,-0.36328 v 79.08203 c -24.5994,7.64536 -40.155,24.26545 -48.4063,41.46094 -3.6155,7.53465 -6.8241,14.49143 -8.1268,21.52366 -2.4869,13.4251 -2.7885,32.69195 8.4413,48.41384 6.4187,8.98626 14.3535,13.15582 21.7559,14.65234 7.4023,1.49653 14.2529,0.43433 18.9336,-0.58203 5.9442,-1.29074 12.6877,-6.70793 16.5976,-14.1289 3.91,-7.42097 4.316,-17.37828 -3.7988,-25.81641 l -5.3792,-3.75031 1.094,5.20734 c -0.797,7.17342 -3.4148,10.38337 -6.6218,13.42132 -3.2071,3.03795 -6.9652,3.76225 -12.5917,3.76225 -2.1875,0 -7.4265,-0.50913 -13.5376,-3.51851 -11.8607,-5.84072 -17.7708,-21.50069 -16.9818,-38.30826 0.3283,-6.99362 1.9521,-12.57204 4.7236,-18.71422 7.9421,-16.55131 22.8266,-32.49346 47.0878,-39.44727 l 1.8106,-0.51953 v -77.18359 c 23.2523,2.32638 43.3554,-3.93807 56.5625,-16.53711 13.7448,-13.11198 19.8309,-32.96678 14.4785,-55.76367 l -2.8883,-10.20527 c 0,0 -0.3646,7.14259 -1.367,10.54087 -1.9624,6.65246 -1.7966,9.29348 -8.9517,18.78354 -7.1552,9.49005 -20.1246,19.05859 -44.834,19.05859 -30.8619,0 -47.8216,-13.06234 -57.6406,-28.5039 -9.819,-15.44157 -12.2104,-33.47487 -12.6153,-42.73047 -0.3733,-8.53533 0.3805,-25.8303 8.9551,-43.09375 8.5746,-17.26346 24.8296,-34.60822 56.1856,-43.7168 1.3255,-0.38528 2.088,-1.77199 1.7031,-3.09766 -0.3853,-1.32557 -1.772,-2.08801 -3.0977,-1.70312 z m -62.3769,362.8418 c 4.3974,7.2331 10.3597,12.01134 16.1035,14.83984 6.9189,3.40719 13.2623,4.31445 16.4941,4.31445 6.5321,0 12.3148,-1.83118 16.5899,-5.88086 3.165,-2.99812 5.4106,-7.11877 6.7285,-12.28125 3.1164,5.51769 2.2805,10.85415 -0.2578,15.67188 -3.2008,6.07501 -9.6705,10.79797 -13.2363,11.57226 -4.3863,0.95244 -10.5234,1.85327 -16.879,0.56836 -6.3556,-1.2849 -12.9494,-4.63863 -18.6777,-12.6582 -3.6097,-5.05366 -5.6728,-10.57172 -6.8652,-16.14648 z" />
    <path
       style="stroke:none;stroke-linecap:round;stroke-miterlimit:9"
       d="m 2887.3418,364.54102 c -1.3721,-0.1566 -2.6114,0.82899 -2.7676,2.20117 -0.1566,1.37214 0.829,2.61135 2.2012,2.76758 31.2025,3.55389 49.5149,16.7944 59.5098,31.49804 9.9948,14.70364 11.5128,31.13135 8.8242,40.44922 -2.9584,10.25266 -8.7523,19.94754 -16.502,25.19922 -7.7496,5.25168 -16.2123,7.24874 -28.4646,0.40767 -13.043,-7.28258 -7.5319,-22.90648 -6.2295,-24.84157 2.6532,-3.94193 5.3393,-7.11358 8.808,-9.66469 3.4688,-2.5511 6.1114,-5.05671 9.433,-4.23735 8.886,2.192 13.6556,4.37089 16.0762,5.86133 1.2102,0.74522 7.0883,4.23531 7.0883,4.23531 l -0.07,-3.56929 c -0.1777,-9.05838 -2.9375,-15.89512 -7.4824,-20.55079 -4.5449,-4.65566 -10.1199,-7.04904 -16.2107,-8.2336 -6.4036,-1.24541 -13.3497,-0.86107 -18.484,0.93243 -5.2608,1.83769 -9.675,4.28561 -12.2193,7.67813 -4.3787,5.8383 -7.6807,15.46416 -7.1055,25.51758 0.4,14.74092 10.3807,23.70982 21.997,30.58562 13.5145,7.54584 26.5457,6.20238 35.669,0.0198 9.1233,-6.18253 15.3001,-16.85648 18.502,-27.95312 3.238,-11.22198 1.3228,-28.73535 -9.4942,-44.64844 -10.817,-15.91308 -30.6959,-29.96602 -63.0781,-33.65429 z M 2667.2362,144.43635 c 0.1566,1.3721 -0.829,2.6114 -2.2012,2.76761 -1.3721,0.1566 -2.6114,-0.82899 -2.7676,-2.20119 -3.554,-31.20249 -16.7946,-49.514828 -31.4983,-59.509663 -14.7037,-9.994735 -31.1314,-11.512663 -40.4493,-8.824022 -10.2526,2.958445 -19.9475,8.752388 -25.1991,16.502111 -5.2516,7.749624 -7.2487,16.212334 -0.4075,28.464604 7.2826,13.04297 22.9065,7.5318 24.8416,6.22939 3.9419,-2.65322 7.1135,-5.33933 9.6646,-8.80804 2.5511,-3.46882 5.0567,-6.11143 4.2373,-9.43302 -2.192,-8.88599 -4.3709,-13.655584 -5.8614,-16.076177 -0.7452,-1.210197 -4.2353,-7.088281 -4.2353,-7.088281 l 3.5693,0.06998 c 9.0583,0.17766 15.8951,2.93743 20.5508,7.482309 4.6557,4.54488 7.0491,10.119865 8.2337,16.210665 1.2454,6.40359 0.8611,13.3497 -0.9324,18.484 -1.8377,5.26081 -4.2856,9.67502 -7.6781,12.21934 -5.8382,4.37872 -15.4641,7.68077 -25.5175,7.10561 -14.7409,-0.39994 -23.7099,-10.3806 -30.5857,-21.99687 -7.5459,-13.51446 -6.2025,-26.545669 -0.02,-35.668996 6.1825,-9.123327 16.8564,-15.300174 27.953,-18.502123 11.222,-3.238049 28.7354,-1.322926 44.6485,9.494004 15.9132,10.816929 29.9662,30.695765 33.6546,63.077955 z m 244.9826,266.5324 c 2.6708,-0.19333 5.4198,-0.12295 8.0859,0.27344 5.3322,0.79277 10.281,2.85732 13.8828,6.54687 2.715,2.78116 4.7504,6.51807 5.6094,11.62891 -3.3697,-3.13958 -7.5337,-5.52642 -16.4453,-5.95313 -5.9043,-0.28271 -10.2776,0.45721 -14.5743,3.61719 -4.2966,3.15998 -7.8852,7.79419 -10.2207,13 -2.3354,5.20582 -3.4272,11.01859 -2.375,16.54492 0.067,0.35296 0.2265,0.68736 0.3125,1.03711 -5.2302,-5.03497 -7.3883,-11.33575 -7.7558,-17.75976 -0.4994,-8.7277 2.7753,-16.18315 6.2454,-20.80995 1.38,-1.84004 4.9273,-5.50049 9.6237,-6.81701 2.3482,-0.65825 4.9405,-1.11526 7.6114,-1.30859 z m -291.4105,-291.4092 c 0.1933,-2.6708 0.1229,-5.4198 -0.2735,-8.0859 -0.7928,-5.33219 -2.8573,-10.28099 -6.5469,-13.882769 -2.7812,-2.714988 -6.5181,-4.750372 -11.6289,-5.609349 3.1396,3.369686 5.5264,7.533676 5.9532,16.445278 0.2827,5.90429 -0.4572,10.2776 -3.6171,14.57431 -3.16,4.29662 -7.7942,7.88524 -13,10.22076 -5.2058,2.33542 -11.0186,3.42725 -16.5449,2.37507 -0.353,-0.067 -0.6874,-0.2265 -1.0371,-0.31249 5.035,5.23017 11.3358,7.38825 17.7598,7.75572 8.7277,0.49936 16.1831,-2.77537 20.8099,-6.24549 1.84,-1.38001 5.5005,-4.92733 6.817,-9.62373 0.6582,-2.34821 1.1152,-4.94051 1.3085,-7.61141 z"
       id="path78"
       sodipodi:nodetypes="sscsssssssscssssssssssssssscsssscssss"
       inkscape:original-d="m 2887.3418,364.54102 c -1.3721,-0.1566 -2.6114,0.82899 -2.7676,2.20117 -0.1566,1.37214 0.829,2.61135 2.2012,2.76758 31.2025,3.55389 49.5149,16.7944 59.5098,31.49804 9.9948,14.70364 11.5128,31.13135 8.8242,40.44922 -2.9584,10.25266 -8.7523,19.94754 -16.502,25.19922 -7.7496,5.25168 -16.2123,7.24874 -28.4646,0.40767 -13.043,-7.28258 -7.5319,-22.90648 -6.2295,-24.84157 2.6532,-3.94193 5.3393,-7.11358 8.808,-9.66469 3.4688,-2.5511 6.1114,-5.05671 9.433,-4.23735 8.886,2.192 13.6556,4.37089 16.0762,5.86133 1.2102,0.74522 7.0883,4.23531 7.0883,4.23531 l -0.07,-3.56929 c -0.1777,-9.05838 -2.9375,-15.89512 -7.4824,-20.55079 -4.5449,-4.65566 -10.1199,-7.04904 -16.2107,-8.2336 -6.4036,-1.24541 -13.3497,-0.86107 -18.484,0.93243 -5.2608,1.83769 -9.675,4.28561 -12.2193,7.67813 -4.3787,5.8383 -7.6807,15.46416 -7.1055,25.51758 0.4,14.74092 10.3807,23.70982 21.997,30.58562 13.5145,7.54584 26.5457,6.20238 35.669,0.0198 9.1233,-6.18253 15.3001,-16.85648 18.502,-27.95312 3.238,-11.22198 1.3228,-28.73535 -9.4942,-44.64844 -10.817,-15.91308 -30.6959,-29.96602 -63.0781,-33.65429 z m 24.877,46.42773 c 2.6708,-0.19333 5.4198,-0.12295 8.0859,0.27344 5.3322,0.79277 10.281,2.85732 13.8828,6.54687 2.715,2.78116 4.7504,6.51807 5.6094,11.62891 -3.3697,-3.13958 -7.5337,-5.52642 -16.4453,-5.95313 -5.9043,-0.28271 -10.2776,0.45721 -14.5743,3.61719 -4.2966,3.15998 -7.8852,7.79419 -10.2207,13 -2.3354,5.20582 -3.4272,11.01859 -2.375,16.54492 0.067,0.35296 0.2265,0.68736 0.3125,1.03711 -5.2302,-5.03497 -7.3883,-11.33575 -7.7558,-17.75976 -0.4994,-8.7277 2.7753,-16.18315 6.2454,-20.80995 1.38,-1.84004 4.9273,-5.50049 9.6237,-6.81701 2.3482,-0.65825 4.9405,-1.11526 7.6114,-1.30859 z" />
    <path
       id="path79"
       style="stroke-linejoin:round;stroke-miterlimit:9"
       d="m 2964.3457,67.431641 c -21.2058,16.420505 -48.2227,34.443489 -100.5137,30.167968 -6.4775,-0.529671 -13.0063,-1.512889 -19.709,-2.693359 l 4.1875,10.24023 -0.9628,10.71094 c 5.6613,0.74828 11.3099,1.41456 16.9824,1.83203 26.5178,1.95152 50.2594,-5.30928 60.2031,-10.44531 -5.136,9.94369 -12.3969,33.68531 -10.4453,60.20313 0.4175,5.67247 1.0857,11.32109 1.834,16.98242 l 10.709,-0.96485 10.2402,4.18946 c -1.1805,-6.70267 -2.1637,-13.23149 -2.6934,-19.70899 -4.2757,-52.2909 13.7476,-79.307783 30.168,-100.513669 z m -35.9399,133.741209 -9.753,2.08447 c 2.554,16.72177 5.1195,33.9326 5.2471,52.83838 0.086,12.78396 -3.9766,33.80712 -14.9414,50.97803 -10.9648,17.1709 -27.807,30.99118 -56.5986,33.29004 -22.0042,1.75692 -36.7675,-4.46847 -46.3653,-12.45996 -9.5977,-7.9915 -13.5219,-18.57962 -13.5219,-22.92188 0,-8.95093 3.6252,-13.16884 6.2563,-15.92871 11.5421,-12.1068 30.1922,13.06276 3.7471,15.54199 23.0347,14.42918 34.3745,-22.80758 12.2827,-33.70166 -10.5449,-5.19999 -17.0676,-8.44432 -29.1431,0.49512 -9.2816,6.87115 -15.1435,18.99699 -15.1435,33.59326 0,13.61349 7.4277,28.15752 21.4453,39.82911 14.0175,11.67158 35.1355,19.6417 62.1914,17.48144 35.44,-2.8297 59.5312,-21.67307 73.3916,-43.37842 13.8604,-21.70535 18.5145,-45.76956 18.3984,-62.96631 -0.1337,-19.82357 -3.1035,-36.78452 -6.0849,-52.53662 z m -97.8017,-97.80122 -2.0844,9.75301 c -16.7218,-2.55393 -33.9326,-5.11935 -52.8384,-5.24687 -12.7839,-0.0859 -33.8071,3.97675 -50.9779,14.94162 -17.1709,10.96488 -30.9911,27.80714 -33.2898,56.59875 -1.7569,22.00421 4.4686,36.76748 12.4601,46.36525 7.9916,9.59766 18.5797,13.52181 22.922,13.52179 8.9509,-4e-5 13.1688,-3.62525 15.9286,-6.25637 12.1068,-11.54215 -13.0628,-30.19214 -15.542,-3.74703 -14.4292,-23.03463 22.8075,-34.3746 33.7016,-12.28285 5.2001,10.54488 8.4444,17.06757 -0.4949,29.14311 -6.8712,9.28163 -18.997,15.14358 -33.5932,15.14364 -13.6135,6e-5 -28.1576,-7.42757 -39.8292,-21.44512 -11.6717,-14.01745 -19.6419,-35.13541 -17.4818,-62.19132 2.8296,-35.44002 21.6729,-59.5313 43.3781,-73.39179 21.7053,-13.8605 45.7695,-18.514706 62.9663,-18.398682 19.8235,0.133613 36.7845,3.103338 52.5366,6.084669 z"
       inkscape:original-d="m 2967.4747,63.423065 -41.8867,41.919765 c -5.1167,8.49556 -13.5895,33.70692 -11.4996,62.10346 0.4175,5.67247 1.0842,11.32207 1.8325,16.9834 l 10.7095,-0.96387 10.2407,4.18799 c -1.1805,-6.70267 -2.1642,-13.23051 -2.6939,-19.70801 -4.5496,-55.63992 16.1483,-82.665912 33.2975,-104.522735 z m -39.0689,137.749785 -9.753,2.08447 c 2.554,16.72177 5.1195,33.9326 5.2471,52.83838 0.086,12.78396 -3.9766,33.80712 -14.9414,50.97803 -10.9648,17.1709 -27.807,30.99118 -56.5986,33.29004 -22.0042,1.75692 -36.7675,-4.46847 -46.3653,-12.45996 -9.5977,-7.9915 -13.5219,-18.57962 -13.5219,-22.92188 0,-8.95093 3.6252,-13.16884 6.2563,-15.92871 11.5421,-12.1068 30.1922,13.06276 3.7471,15.54199 23.0347,14.42918 34.3745,-22.80758 12.2827,-33.70166 -10.5449,-5.19999 -17.0676,-8.44432 -29.1431,0.49512 -9.2816,6.87115 -15.1435,18.99699 -15.1435,33.59326 0,13.61349 7.4277,28.15752 21.4453,39.82911 14.0175,11.67158 35.1355,19.6417 62.1914,17.48144 35.44,-2.8297 59.5312,-21.67307 73.3916,-43.37842 13.8604,-21.70535 18.5145,-45.76956 18.3984,-62.96631 -0.1337,-19.82357 -3.1035,-36.78452 -6.0849,-52.53662 z"
       sodipodi:nodetypes="ccscccscccsssssscssssssscc" />
    <path
       style="fill:none;stroke:#000000;stroke-width:5.00001;stroke-linecap:butt;stroke-linejoin:miter;stroke-miterlimit:9;stroke-dasharray:none;stroke-opacity:1;paint-order:stroke markers fill"
       id="path80"
       sodipodi:type="arc"
       sodipodi:cx="2806.6819"
       sodipodi:cy="291.85632"
       sodipodi:rx="25.989622"
       sodipodi:ry="25.989622"
       d="m 2832.6715,291.85632 c 0,14.35368 -11.6359,25.98963 -25.9896,25.98963 -14.3537,0 -25.9896,-11.63595 -25.9896,-25.98963 0,-14.35367 11.6359,-25.98962 25.9896,-25.98962 14.3537,0 25.9896,11.63595 25.9896,25.98962 z m -92.7504,-92.75 c -14.3537,6e-5 -25.9896,11.63606 -25.9895,25.98974 1e-4,14.35367 11.6361,25.98957 25.9897,25.9895 14.3537,-6e-5 25.9896,-11.63606 25.9895,-25.98973 0,-14.35367 -11.636,-25.98957 -25.9897,-25.98951 z" />
    <path
       style="stroke-linecap:round;stroke-miterlimit:9"
       d="m 2919.5137,181.21875 c -5.2575,0.39592 -10.2963,2.71099 -16.0352,7.28516 -6.9829,5.56576 -10.4647,13.97374 -9.5722,22.01367 0.8924,8.03992 6.3688,15.63113 16.3613,19.12109 l 5.5293,1.92969 -2.4297,-5.32813 c -2.285,-5.01131 -2.6706,-8.8251 -2.0977,-11.74804 0.5729,-2.92295 2.0988,-5.08865 4.1895,-6.81641 4.1814,-3.45551 10.9417,-4.69128 13.6367,-4.47851 2.9961,0.23653 8.3936,1.75791 13.9063,4.99023 27.1766,15.93502 20.8621,66.98944 19.8828,73.82812 -5.4902,38.33942 -51.0796,86.39016 -132.0118,75.15235 -1.3678,-0.19002 -2.6306,0.76496 -2.8203,2.13281 -0.19,1.36781 0.7649,2.63061 2.1328,2.82031 83.1137,11.54072 131.6956,-37.81154 137.6504,-79.39648 4.6626,-32.55986 -0.2269,-56.03371 -7.7675,-71.88672 -7.5407,-15.85301 -17.3616,-24.04011 -23.7715,-26.31641 -6.3353,-2.2498 -11.5258,-3.69865 -16.7832,-3.30273 z m -68.9554,-68.95511 c -0.3959,5.2575 -2.711,10.29631 -7.2851,16.03523 -5.5657,6.98293 -13.9737,10.46476 -22.0136,9.5723 -8.04,-0.89237 -15.6312,-6.36873 -19.1212,-16.36122 l -1.9297,-5.52929 5.3281,2.42968 c 5.0114,2.28498 8.8251,2.67056 11.7481,2.09765 2.9229,-0.57292 5.0886,-2.09883 6.8164,-4.18953 3.4555,-4.18142 4.6912,-10.94172 4.4784,-13.63672 -0.2365,-2.996103 -1.7579,-8.393596 -4.9903,-13.906282 -15.9351,-27.17653 -66.9895,-20.861805 -73.8282,-19.882475 -38.3394,5.490369 -86.3899,51.079977 -75.1517,132.012127 0.19,1.3678 -0.765,2.63061 -2.1328,2.82031 -1.3679,0.19001 -2.6307,-0.76489 -2.8204,-2.13278 -11.541,-83.11365 37.811,-131.695771 79.3959,-137.650754 32.5599,-4.662743 56.0337,0.226653 71.8868,7.767184 15.853,7.54063 24.0402,17.361494 26.3165,23.771384 2.2498,6.335286 3.6987,11.525786 3.3028,16.783186 z m 69.4238,74.12636 c 4.0874,-0.41404 8.595,-0.45159 14.6409,2.84242 3.5898,1.95583 12.5946,8.02688 19.5059,21.05664 -2.7858,-2.57409 -5.7123,-4.72225 -8.5976,-6.41406 -6.1205,-3.58868 -11.9358,-5.33801 -16.0411,-5.66211 -4.4062,-0.34786 -11.6295,0.99372 -17.2148,5.60938 -2.7927,2.30782 -5.0977,5.55184 -5.9121,9.70703 -0.5163,2.63419 -0.3544,5.61708 0.4355,8.87304 -4.9215,-3.17374 -7.3927,-7.65299 -7.9238,-12.4375 -0.6918,-6.23209 2.0262,-13.01191 7.7207,-17.55078 5.2845,-4.21201 9.318,-5.61194 13.3864,-6.02406 z m -74.5951,-74.59474 c 0.4141,-4.0874 0.4516,-8.595 -2.8425,-14.640885 -1.9558,-3.589792 -8.0269,-12.594565 -21.0567,-19.505808 2.5741,2.785789 4.7223,5.712279 6.4141,8.597572 3.5887,6.120484 5.3381,11.935777 5.6622,16.041071 0.3479,4.4062 -0.9937,11.62951 -5.6093,17.21483 -2.3078,2.79271 -5.5518,5.09772 -9.707,5.91214 -2.6342,0.51631 -5.6171,0.35443 -8.873,-0.43546 3.1737,4.92149 7.653,7.39267 12.4375,7.92375 6.2321,0.69177 13.0119,-2.02626 17.5507,-7.72078 4.212,-5.28452 5.6119,-9.31803 6.024,-13.38643 z"
       id="path81"
       sodipodi:nodetypes="sssccsssssssscsssssscsssscsss"
       inkscape:original-d="m 2919.5137,181.21875 c -5.2575,0.39592 -10.2963,2.71099 -16.0352,7.28516 -6.9829,5.56576 -10.4647,13.97374 -9.5722,22.01367 0.8924,8.03992 6.3688,15.63113 16.3613,19.12109 l 5.5293,1.92969 -2.4297,-5.32813 c -2.285,-5.01131 -2.6706,-8.8251 -2.0977,-11.74804 0.5729,-2.92295 2.0988,-5.08865 4.1895,-6.81641 4.1814,-3.45551 10.9417,-4.69128 13.6367,-4.47851 2.9961,0.23653 8.3936,1.75791 13.9063,4.99023 27.1766,15.93502 20.8621,66.98944 19.8828,73.82812 -5.4902,38.33942 -51.0796,86.39016 -132.0118,75.15235 -1.3678,-0.19002 -2.6306,0.76496 -2.8203,2.13281 -0.19,1.36781 0.7649,2.63061 2.1328,2.82031 83.1137,11.54072 131.6956,-37.81154 137.6504,-79.39648 4.6626,-32.55986 -0.2269,-56.03371 -7.7675,-71.88672 -7.5407,-15.85301 -17.3616,-24.04011 -23.7715,-26.31641 -6.3353,-2.2498 -11.5258,-3.69865 -16.7832,-3.30273 z m 0.4684,5.17125 c 4.0874,-0.41404 8.595,-0.45159 14.6409,2.84242 3.5898,1.95583 12.5946,8.02688 19.5059,21.05664 -2.7858,-2.57409 -5.7123,-4.72225 -8.5976,-6.41406 -6.1205,-3.58868 -11.9358,-5.33801 -16.0411,-5.66211 -4.4062,-0.34786 -11.6295,0.99372 -17.2148,5.60938 -2.7927,2.30782 -5.0977,5.55184 -5.9121,9.70703 -0.5163,2.63419 -0.3544,5.61708 0.4355,8.87304 -4.9215,-3.17374 -7.3927,-7.65299 -7.9238,-12.4375 -0.6918,-6.23209 2.0262,-13.01191 7.7207,-17.55078 5.2845,-4.21201 9.318,-5.61194 13.3864,-6.02406 z" />
    <path
       style="stroke-linecap:round;stroke-miterlimit:9"
       d="m 2958.9883,124.99805 c -2.7637,-0.20624 -5.6461,0.39663 -8.2051,1.87304 -8.7322,5.03799 -10.1811,16.15177 -10.8105,22.88086 -0.391,4.17994 -1.3693,9.09101 0.373,22.87305 0.028,0.0228 0.057,0.0449 0.086,0.0664 0.5962,4.40457 1.784,8.7125 3.5313,13.28906 3.1092,8.14381 7.7221,17.30431 13.1074,30.34961 0.5274,1.27509 1.9882,1.88176 3.2637,1.35547 1.2758,-0.52665 1.8835,-1.9876 1.3574,-3.26368 -5.4536,-13.21088 -10.0924,-22.46053 -13.0566,-30.2246 -2.9643,-7.76408 -4.2855,-13.92629 -3.4024,-21.60938 0.8812,-7.66575 2.5321,-12.86312 4.5313,-16.07227 5.3293,-8.55466 14.1681,-4.49606 14.7875,1.1006 4.7252,-4.17753 5.668,-6.11691 5.6402,-12.17286 -0.1408,-3.07501 -1.6157,-5.70948 -3.7051,-7.4668 -2.0894,-1.75731 -4.7344,-2.77228 -7.498,-2.97851 z m -52.2095,-52.209258 c 0.2063,2.763699 -0.3966,5.646102 -1.873,8.205108 -5.0379,8.732222 -16.1517,10.181171 -22.8808,10.810601 -4.1799,0.391018 -9.091,1.36934 -22.8731,-0.3729 -0.023,-0.028 -0.045,-0.057 -0.066,-0.086 -4.4045,-0.596181 -8.7125,-1.783962 -13.289,-3.531242 -8.1439,-3.109164 -17.3044,-7.722024 -30.3497,-13.107266 -1.2751,-0.527395 -1.8818,-1.988192 -1.3555,-3.263694 0.5267,-1.275802 1.9876,-1.883509 3.2637,-1.357415 13.2109,5.453542 22.4606,10.092302 30.2246,13.056467 7.7641,2.964266 13.9264,4.285439 21.6094,3.402305 7.6658,-0.881233 12.8632,-2.532156 16.0723,-4.53137 8.5546,-5.329338 4.496,-14.16812 -1.1007,-14.787496 4.1775,-4.725218 6.1169,-5.668027 12.1729,-5.640253 3.075,0.140786 5.7094,1.615675 7.4668,3.705067 1.7573,2.089392 2.7723,4.734388 2.9785,7.497987 z m 51.8325,57.283478 c 1.8039,0.13832 3.4969,0.75374 4.6582,1.73046 1.1613,0.97673 1.8505,2.18063 1.9278,3.86914 0.043,0.94752 -0.225,2.13754 -0.7442,3.46875 -0.5641,-0.50705 -1.0512,-1.08167 -1.7285,-1.47265 -2.3366,-1.3488 -5.4147,-1.96342 -8.5801,-1.07422 -2.855,0.80201 -5.6271,2.90135 -7.9257,6.29687 1.147,-4.74707 3.1372,-9.4237 7.0644,-11.68945 1.6094,-0.92853 3.5243,-1.26723 5.3281,-1.1289 z m -56.9067,-56.906456 c -0.1383,-1.803899 -0.7538,-3.496897 -1.7305,-4.658192 -0.9767,-1.161296 -2.1806,-1.850491 -3.8691,-1.927783 -0.9476,-0.043 -2.1376,0.225009 -3.4688,0.744215 0.5071,0.564098 1.0817,1.051195 1.4727,1.728494 1.3488,2.336594 1.9634,5.414691 1.0742,8.580095 -0.802,2.855003 -2.9013,5.627113 -6.2968,7.925728 4.7471,-1.147021 9.4237,-3.137242 11.6894,-7.064452 0.9285,-1.609404 1.2672,-3.524305 1.1289,-5.328105 z"
       id="path82"
       sodipodi:nodetypes="sssccscscssscssssssscsscss"
       inkscape:original-d="m 2958.9883,124.99805 c -2.7637,-0.20624 -5.6461,0.39663 -8.2051,1.87304 -8.7322,5.03799 -10.1811,16.15177 -10.8105,22.88086 -0.391,4.17994 -1.3693,9.09101 0.373,22.87305 0.028,0.0228 0.057,0.0449 0.086,0.0664 0.5962,4.40457 1.784,8.7125 3.5313,13.28906 3.1092,8.14381 7.7221,17.30431 13.1074,30.34961 0.5274,1.27509 1.9882,1.88176 3.2637,1.35547 1.2758,-0.52665 1.8835,-1.9876 1.3574,-3.26368 -5.4536,-13.21088 -10.0924,-22.46053 -13.0566,-30.2246 -2.9643,-7.76408 -4.2855,-13.92629 -3.4024,-21.60938 0.8812,-7.66575 2.5321,-12.86312 4.5313,-16.07227 5.3293,-8.55466 14.1681,-4.49606 14.7875,1.1006 4.7252,-4.17753 5.668,-6.11691 5.6402,-12.17286 -0.1408,-3.07501 -1.6157,-5.70948 -3.7051,-7.4668 -2.0894,-1.75731 -4.7344,-2.77228 -7.498,-2.97851 z m -0.377,5.07422 c 1.8039,0.13832 3.4969,0.75374 4.6582,1.73046 1.1613,0.97673 1.8505,2.18063 1.9278,3.86914 0.043,0.94752 -0.225,2.13754 -0.7442,3.46875 -0.5641,-0.50705 -1.0512,-1.08167 -1.7285,-1.47265 -2.3366,-1.3488 -5.4147,-1.96342 -8.5801,-1.07422 -2.855,0.80201 -5.6271,2.90135 -7.9257,6.29687 1.147,-4.74707 3.1372,-9.4237 7.0644,-11.68945 1.6094,-0.92853 3.5243,-1.26723 5.3281,-1.1289 z" />
    <path
       style="font-variation-settings:normal;fill:none;fill-opacity:1;stroke:#000000;stroke-width:5;stroke-linecap:round;stroke-linejoin:miter;stroke-miterlimit:9;stroke-dasharray:none;stroke-dashoffset:0;stroke-opacity:1;stop-color:#000000"
       d=""
       id="path82-2"
       sodipodi:nodetypes="cscssc"
       inkscape:original-d="m 2132.0367,488.66695 c -10.8389,-26.25618 -18.5008,-36.81472 -16.6321,-53.073 3.6341,-31.61624 21.2497,-24.42156 21.9261,-18.30259 9.0607,-12.86598 -4.3041,-19.7741 -12.6409,-14.96422 -7.3807,4.25824 -8.9574,14.37762 -9.5721,20.94898 -0.4099,4.38244 -1.3554,8.72333 0.3643,22.3266" />
    <path
       id="path83"
       style="font-variation-settings:normal;opacity:1;vector-effect:none;fill:#000000;fill-opacity:1;stroke:none;stroke-width:3.30236;stroke-linecap:round;stroke-linejoin:round;stroke-miterlimit:9;stroke-dasharray:none;stroke-dashoffset:0;stroke-opacity:1;-inkscape-stroke:none;stop-color:#000000;stop-opacity:1"
       d="m 2845.1982,230.60596 c -24.8546,0 -38.0609,4.85224 -69.4248,32.14306 -0.6112,0.53179 -1.2688,1.71509 -0.7426,2.53565 0.6114,0.95355 1.56,1.19501 3.0088,0.17431 2.7972,-1.97066 24.5796,-18.311 39.1274,-17.28662 16.8228,1.18458 26.6542,7.84244 27.5112,13.80176 0.7618,5.29683 -1.4504,10.86537 -10.7856,11.05225 0,0 3.0836,8.41066 11.8667,10.46631 8.7832,2.05564 17.2856,-2.61636 20.9297,-13.64209 -0.7474,5.98006 6e-4,11.11847 4.5791,15.60351 4.5785,4.48504 8.5733,8.96965 5.9956,17.96045 -2.7803,9.69761 -17.0377,8.63321 -17.4888,12.68701 -0.2592,2.32905 10.2781,6.63407 24.5742,-10.55859 14.296,-17.19266 11.8664,-39.42975 4.2979,-51.01611 -7.5685,-11.58636 -18.5942,-23.9209 -43.4488,-23.9209 z m -44.0268,-44.0266 c 10e-5,24.8546 -4.8521,38.06092 -32.1428,69.42494 -0.5317,0.6112 -1.715,1.26881 -2.5356,0.74261 -0.9536,-0.6114 -1.195,-1.56 -0.1743,-3.0088 1.9706,-2.79721 18.3109,-24.57968 17.2864,-39.12748 -1.1846,-16.82279 -7.8425,-26.65416 -13.8019,-27.51114 -5.2968,-0.76177 -10.8653,1.45045 -11.0522,10.78565 0,0 -8.4106,-3.08356 -10.4663,-11.86665 -2.0557,-8.78319 2.6163,-17.28561 13.642,-20.92976 -5.9801,0.74743 -11.1185,-5.5e-4 -15.6036,-4.57903 -4.485,-4.57848 -8.9696,-8.57326 -17.9604,-5.99552 -9.6976,2.78034 -8.6332,17.03774 -12.687,17.48885 -2.329,0.25921 -6.6341,-10.27807 10.5585,-24.57424 17.1926,-14.29608 39.4297,-11.86658 51.0161,-4.29813 11.5864,7.56845 23.921,18.5941 23.9211,43.4487 z m 37.3926,49.7263 c 3.2854,0.11891 25.4903,1.4287 34.9467,15.22994 3.4572,5.04567 0.359,9.0151 -3.6109,8.46503 -2.9158,-0.40401 -3.6965,-2.50573 -10.5538,-11.24106 -4.0458,-5.15387 -15.3054,-12.04442 -20.782,-12.45391 z m -43.0923,-43.09208 c -0.1189,-3.2854 -1.4288,-25.49029 -15.2301,-34.94663 -5.0456,-3.45718 -9.0151,-0.35896 -8.465,3.61094 0.404,2.91579 2.5058,3.69649 11.2411,10.55375 5.1539,4.04577 12.0445,15.30534 12.454,20.78194 z"
       sodipodi:nodetypes="sssssscscsssssscsssc"
       inkscape:original-d="m 2845.1982,230.60596 c -24.8546,0 -38.0609,4.85224 -69.4248,32.14306 -0.6112,0.53179 -1.2688,1.71509 -0.7426,2.53565 0.6114,0.95355 1.56,1.19501 3.0088,0.17431 2.7972,-1.97066 24.5796,-18.311 39.1274,-17.28662 16.8228,1.18458 26.6542,7.84244 27.5112,13.80176 0.7618,5.29683 -1.4504,10.86537 -10.7856,11.05225 0,0 3.0836,8.41066 11.8667,10.46631 8.7832,2.05564 17.2856,-2.61636 20.9297,-13.64209 -0.7474,5.98006 6e-4,11.11847 4.5791,15.60351 4.5785,4.48504 8.5733,8.96965 5.9956,17.96045 -2.7803,9.69761 -17.0377,8.63321 -17.4888,12.68701 -0.2592,2.32905 10.2781,6.63407 24.5742,-10.55859 14.296,-17.19266 11.8664,-39.42975 4.2979,-51.01611 -7.5685,-11.58636 -18.5942,-23.9209 -43.4488,-23.9209 z m -6.6342,5.6997 c 3.2854,0.11891 25.4903,1.4287 34.9467,15.22994 3.4572,5.04567 0.359,9.0151 -3.6109,8.46503 -2.9158,-0.40401 -3.6965,-2.50573 -10.5538,-11.24106 -4.0458,-5.15387 -15.3054,-12.04442 -20.782,-12.45391 z" />
    <path
       id="path84"
       style="font-variation-settings:normal;opacity:1;vector-effect:none;fill:#000000;fill-opacity:1;stroke:none;stroke-width:3.30236;stroke-linecap:round;stroke-linejoin:round;stroke-miterlimit:9;stroke-dasharray:none;stroke-dashoffset:0;stroke-opacity:1;-inkscape-stroke:none;stop-color:#000000;stop-opacity:1"
       d="m 2901.4199,130.35742 c -11.6955,10.48591 -19.6497,13.98645 -28.2129,17.68945 -8.9498,3.87024 -30.5255,6.47495 -35.1504,26.16407 -1.214,-24.9254 -23.9247,-32.96545 -37.9238,-22.99219 11.3642,3.03915 15.4607,17.83807 14.2715,36.73437 -1.1892,18.89631 -7.3989,26.4293 -14.4023,36.73633 -7.0035,10.30713 -27.839,32.23003 -28.3868,32.95313 -0.6674,0.88101 -0.3297,2.00219 0.1153,2.40429 0.4021,0.44493 1.5233,0.78267 2.4043,0.11524 0.7231,-0.54776 22.6479,-21.38125 32.955,-28.38477 10.307,-7.00351 17.8381,-13.21501 36.7344,-14.40429 18.8963,-1.18927 33.6971,2.90728 36.7363,14.27148 9.9732,-13.99917 1.9333,-36.70987 -22.9921,-37.92383 19.6891,-4.62497 22.2919,-26.20057 26.1621,-35.15039 3.7029,-8.56318 7.2036,-16.51734 17.6894,-28.21289 z m -57.9297,49.9082 c 2.4607,-0.13314 4.6546,0.80641 5.9063,2.11524 2.0941,2.00274 3.2392,6.42128 0.5664,10.47656 -2.7097,4.11128 -15.6025,7.5692 -30.5527,19.5293 0,0 0.4781,-0.48501 1.3125,-1.33203 -0.8471,0.83439 -1.3321,1.31445 -1.3321,1.31445 11.9601,-14.95025 15.4181,-27.84497 19.5293,-30.55469 1.5207,-1.0023 3.0939,-1.46894 4.5703,-1.54883 z"
       inkscape:original-d="m 2906.3276,125.13867 c -5.9255,5.41275 -32.4285,31.90843 -59.9223,59.51807 1.0965,-0.99395 2.085,-1.80842 2.9048,-2.3584 2.1491,1.9622 3.363,6.4473 0.6533,10.55859 -2.7097,4.11128 -15.604,7.56899 -30.5542,19.52909 0,0 12.4805,-12.614 21.1352,-21.85526 -34.4024,34.57405 -68.8872,69.42041 -68.8872,69.42041 0.3168,0.48763 1.5354,0.92541 2.4785,0.21094 0.7231,-0.54776 22.6461,-21.38222 32.9532,-28.38574 10.307,-7.00351 17.839,-13.21453 36.7353,-14.40381 18.8963,-1.18927 33.6962,2.90777 36.7354,14.27197 9.9732,-13.99917 1.9332,-36.71084 -22.9922,-37.9248 19.6891,-4.62497 22.2934,-26.19911 26.1636,-35.14893 4.2285,-9.7785 8.1931,-18.76439 22.5966,-33.43213 z"
       sodipodi:nodetypes="cccscccsssccsc" />
    <path
       style="display:inline;fill-rule:evenodd;stroke-linecap:round;stroke-miterlimit:9"
       d="m 2696.0508,260.08398 c -1.8888,0.0803 -3.7827,0.44659 -5.6387,1.17774 -4.9492,1.94972 -9.3167,6.43692 -12.457,13.96094 -2.2146,5.30601 -1.3544,11.09058 0.8574,16.14257 2.2118,5.05189 5.777,9.50707 9.6074,12.56446 5.0042,3.99438 13.6302,6.19403 23.6914,4.89648 5.0529,-0.65164 10.4584,-2.23418 15.8711,-5.03125 -2.797,5.41273 -4.3796,10.81821 -5.0312,15.8711 -1.2975,10.06119 0.9021,18.68721 4.8965,23.6914 3.0574,3.83043 7.5125,7.39569 12.5644,9.60742 5.052,2.21174 10.8366,3.07202 16.1426,0.85743 7.524,-3.14033 12.0112,-7.50782 13.9609,-12.45704 1.9497,-4.94921 1.3034,-10.17211 -0.4355,-14.83203 -3.5438,-9.49593 -16.6542,-12.99078 -23.6094,-5.49804 -3.5502,3.82454 -4.1313,8.21601 -3.4512,11.46289 0.716,4.11181 2.8954,7.03281 6.9766,8.03515 -0.9024,-5.07317 2.1,-7.57698 3.6211,-8.16015 4.5887,-1.75935 7.7231,2.1944 8.4902,4.54687 2.1561,6.61189 -5.3526,11.40179 -7.4785,12.28906 -3.6736,1.53326 -8.0039,1.0176 -12.2109,-0.82421 -4.207,-1.84182 -8.157,-5.00807 -10.6621,-8.14649 -2.7151,-3.40141 -4.9981,-10.99764 -3.8457,-19.93359 1.1523,-8.93596 5.5459,-19.25095 15.6464,-28.62696 1.0118,-0.9395 1.0705,-2.5214 0.1309,-3.5332 -0.01,-0.009 -0.019,-0.0182 -0.027,-0.0273 -0.01,-0.009 -0.018,-0.0187 -0.027,-0.0274 -1.0118,-0.93959 -2.5937,-0.88094 -3.5332,0.13086 -9.376,10.10054 -19.691,14.49415 -28.6269,15.64649 -8.936,1.15244 -16.5322,-1.12867 -19.9336,-3.84375 -3.1385,-2.50509 -6.3047,-6.45512 -8.1465,-10.66211 -1.8419,-4.20699 -2.3575,-8.53733 -0.8242,-12.21094 0.8872,-2.1259 5.6771,-9.63654 12.289,-7.48047 2.3525,0.76709 6.3062,3.90153 4.5469,8.49024 -0.5832,1.5211 -3.087,4.52347 -8.1602,3.62109 1.0024,4.0812 3.9234,6.26058 8.0352,6.97656 3.2469,0.68009 7.6384,0.099 11.4629,-3.45117 7.4927,-6.95523 3.9979,-20.06562 -5.4981,-23.60937 -2.9124,-1.0868 -6.0453,-1.74712 -9.1933,-1.61329 z m 60.1562,62.01368 c 3.8083,0.11645 7.7911,2.43634 9.1895,6.18359 0.9201,2.46574 1.3407,4.90558 1.2324,7.25391 -0.1947,-0.48029 -0.3647,-0.98148 -0.5957,-1.42774 -1.6191,-3.1285 -3.8027,-5.6052 -6.7402,-6.47851 -2.1259,-0.63202 -4.9844,-0.98016 -7.8203,0.18945 -1.3268,0.5472 -2.5468,1.51736 -3.5567,2.81445 -0.2144,-1.80905 0.027,-3.83466 2.2188,-6.19531 1.5648,-1.68573 3.7872,-2.40971 6.0722,-2.33984 z m -46.5269,-46.5267 c -0.1165,-3.8083 -2.4364,-7.79109 -6.1836,-9.18947 -2.4658,-0.92009 -4.9056,-1.34068 -7.254,-1.23237 0.4803,0.1947 0.9815,0.36469 1.4278,0.59569 3.1285,1.61909 5.6052,3.80268 6.4785,6.74017 0.6321,2.1259 0.9802,4.9844 -0.1894,7.8203 -0.5472,1.32681 -1.5173,2.54681 -2.8144,3.55672 1.809,0.21439 3.8346,-0.027 6.1953,-2.21883 1.6857,-1.56481 2.4097,-3.78721 2.3398,-6.07221 z"
       id="path86"
       sodipodi:nodetypes="csssssssscssssssssccsscssscss"
       inkscape:original-d="m 2740.1543,288.01367 c -10.9163,10.13323 -15.9056,21.59115 -17.2031,31.65235 -1.2975,10.06119 0.9021,18.68721 4.8965,23.6914 3.0574,3.83043 7.5125,7.39569 12.5644,9.60742 5.052,2.21174 10.8366,3.07202 16.1426,0.85743 7.524,-3.14033 12.0112,-7.50782 13.9609,-12.45704 1.9497,-4.94921 1.3034,-10.17211 -0.4355,-14.83203 -3.5438,-9.49593 -16.6542,-12.99078 -23.6094,-5.49804 -3.5502,3.82454 -4.1313,8.21601 -3.4512,11.46289 0.716,4.11181 2.8954,7.03281 6.9766,8.03515 -0.9024,-5.07317 2.1005,-7.57684 3.6216,-8.16001 4.5887,-1.75935 7.7229,2.19449 8.49,4.54696 2.1561,6.61189 -5.3533,11.40155 -7.4792,12.28882 -3.6736,1.53326 -8.0039,1.0176 -12.2109,-0.82421 -4.207,-1.84182 -8.157,-5.00807 -10.6621,-8.14649 -2.7151,-3.40141 -4.9981,-10.99764 -3.8457,-19.93359 1.1523,-8.93596 5.5459,-19.25095 15.6464,-28.62696 1.0118,-0.9395 1.0705,-2.5214 0.1309,-3.5332 -0.9395,-1.01184 -2.5214,-1.07043 -3.5332,-0.13086 z m 16.0527,34.08399 c 3.8083,0.11645 7.7911,2.43634 9.1895,6.18359 0.9201,2.46574 1.3407,4.90558 1.2324,7.25391 -0.1947,-0.48029 -0.3647,-0.98148 -0.5957,-1.42774 -1.6191,-3.1285 -3.8027,-5.6052 -6.7402,-6.47851 -2.1259,-0.63202 -4.9844,-0.98016 -7.8203,0.18945 -1.3268,0.5472 -2.5468,1.51736 -3.5567,2.81445 -0.2144,-1.80905 0.027,-3.83466 2.2188,-6.19531 1.5648,-1.68573 3.7872,-2.40971 6.0722,-2.33984 z" />
    <path
       style="font-variation-settings:normal;display:inline;opacity:1;fill:none;fill-opacity:1;stroke:#000000;stroke-width:5;stroke-linecap:round;stroke-linejoin:miter;stroke-miterlimit:9;stroke-dasharray:none;stroke-dashoffset:0;stroke-opacity:1;stop-color:#000000;stop-opacity:1"
       d="m 2728.3145,301.5293 c -14.4034,16.51786 -32.8379,19.22656 -32.8379,19.22656 -1.4134,11.14997 -6.2316,20.0616 -9.9102,25.45703 5.3954,-3.67857 14.3051,-8.49873 25.4551,-9.91211 0,0 2.7087,-18.43443 19.2265,-32.83789 l -4.2558,2.32227 z"
       id="path87"
       inkscape:original-d="m 2730.2482,303.46368 c -16.5178,14.40346 -19.2267,32.83724 -19.2267,32.83724 -18.7641,2.37855 -31.1855,14.40346 -31.1855,14.40346 l 13.4785,-27.08907 z"
       sodipodi:nodetypes="ccccc" />
  </g>
  <path
     id="path85"
     style="opacity:1;fill:#000000;fill-opacity:1;stroke:none;stroke-width:5;stroke-linecap:butt;stroke-linejoin:miter;stroke-miterlimit:9;stroke-dasharray:none;stroke-opacity:1;paint-order:stroke markers fill"
     d="m 667.82746,198.9213 a 17.566414,17.566414 0 0 0 -17.5664,17.5664 17.566414,17.566414 0 0 0 17.5664,17.56641 17.566414,17.566414 0 0 0 17.5679,-17.56641 17.566414,17.566414 0 0 0 -1.4751,-7.03125 8.8535013,8.8535013 0 0 1 -8.7862,7.91016 8.8535013,8.8535013 0 0 1 -8.8535,-8.85352 8.8535013,8.8535013 0 0 1 7.1543,-8.66748 17.566414,17.566414 0 0 0 -5.6074,-0.92431 z" />
</svg>
