<?xml version="1.0" encoding="UTF-8"?>
<svg xmlns="http://www.w3.org/2000/svg" xmlns:xlink="http://www.w3.org/1999/xlink" width="120.050011pt" height="120.049896pt" viewBox="0 0 120.050011 120.049896" version="1.1">
<defs>
<clipPath id="clip1">
  <path d="M 65 0 L 120.050781 0 L 120.050781 55 L 65 55 Z M 65 0 "/>
</clipPath>
<clipPath id="clip2">
  <path d="M 0 1 L 119 1 L 119 120.050781 L 0 120.050781 Z M 0 1 "/>
</clipPath>
<clipPath id="clip3">
  <path d="M 0 0 L 120 0 L 120 120.050781 L 0 120.050781 Z M 0 0 "/>
</clipPath>
</defs>
<g id="surface1">
<g clip-path="url(#clip1)" clip-rule="nonzero">
<path style=" stroke:none;fill-rule:nonzero;fill:rgb(100%,100%,100%);fill-opacity:1;" d="M 105.332031 14.714844 L 73.664062 8.574219 L 68.503906 8.125 L 79.871094 6.246094 L 70.433594 5.007812 L 65.953125 4.640625 L 80.449219 2.503906 L 73.597656 0.765625 L 66.347656 0 L 120.050781 0 L 120.042969 53.703125 L 119.277344 46.453125 L 117.539062 39.601562 L 115.402344 54.097656 L 115.035156 49.617188 L 113.796875 40.179688 L 111.914062 51.546875 L 111.46875 46.382812 Z M 105.332031 14.714844 "/>
</g>
<path style="fill:none;stroke-width:1.31811;stroke-linecap:butt;stroke-linejoin:miter;stroke:rgb(0%,0%,0%);stroke-opacity:1;stroke-miterlimit:4;" d="M 0 1.238281 L 67.636719 1.238281 C 80.339844 1.238281 95.492188 2.8125 106.417969 13.628906 C 117.234375 24.554688 118.804688 39.710938 118.804688 52.414062 L 118.792969 120.050781 "/>
<g clip-path="url(#clip2)" clip-rule="nonzero">
<path style="fill:none;stroke-width:1.31811;stroke-linecap:butt;stroke-linejoin:miter;stroke:rgb(0%,0%,0%);stroke-opacity:1;stroke-miterlimit:4;" d="M 0 9.125 L 71.0625 9.125 C 86.625 9.125 96.28125 15.40625 100.21875 19.53125 C 100.265625 19.582031 100.316406 19.632812 100.363281 19.683594 C 100.414062 19.730469 100.464844 19.78125 100.515625 19.828125 C 104.640625 23.765625 110.921875 33.421875 110.917969 48.984375 L 110.90625 120.046875 "/>
</g>
<path style="fill-rule:nonzero;fill:rgb(100%,100%,100%);fill-opacity:1;stroke-width:1.31811;stroke-linecap:butt;stroke-linejoin:miter;stroke:rgb(0%,0%,0%);stroke-opacity:1;stroke-miterlimit:4;" d="M 103.195312 22.152344 C 105.582031 28.714844 105.886719 35.84375 102.238281 40.085938 C 98.59375 44.328125 92.230469 45.851562 89.113281 40.945312 C 86 36.042969 89.777344 31.730469 91.964844 31.664062 C 94.152344 31.597656 97.070312 31.929688 97.398438 36.570312 C 102.039062 36.835938 103.417969 31.335938 103.433594 29.214844 C 103.445312 27.171875 103.285156 22.492188 99.851562 20.328125 C 96.695312 18.339844 92.382812 17.558594 88.980469 20.257812 C 90.097656 16.355469 88.191406 12.855469 85.402344 11.511719 C 82.484375 10.113281 77.484375 10.308594 75.636719 15.101562 C 74.644531 11.523438 71.390625 9.46875 68.164062 9.523438 C 64.414062 9.585938 62.296875 12.351562 61.59375 14.59375 C 59.925781 10.734375 55.894531 10.183594 53.722656 10.453125 C 50.894531 10.800781 44.898438 12.566406 44.765625 20.121094 C 44.632812 27.679688 52.320312 30.207031 53.117188 30.273438 C 53.515625 25.433594 57.890625 21.65625 61.335938 22.320312 C 64.785156 22.980469 66.773438 22.648438 73.667969 36.570312 C 80.5625 50.492188 87.203125 52.75 92.957031 51.554688 C 90.527344 54.214844 90.667969 60.042969 95.917969 63.84375 C 99.691406 66.574219 105.242188 65.296875 107.742188 62.425781 C 110.089844 59.730469 109.132812 57.054688 108.074219 55.730469 C 106.679688 57.453125 104.410156 57.949219 103.101562 57.519531 C 99.972656 56.488281 98.855469 52.558594 103.367188 49.695312 C 106.808594 47.515625 110.746094 39.769531 110.945312 38.640625 "/>
<path style=" stroke:none;fill-rule:nonzero;fill:rgb(100%,100%,100%);fill-opacity:1;" d="M 105.253906 26.992188 C 105.253906 26.992188 103.730469 22.648438 101.609375 19.800781 C 105.820312 19.105469 112.714844 30.9375 112.714844 30.9375 L 112.980469 42.835938 L 111.253906 42.570312 C 111.253906 42.570312 110.492188 37.964844 110.359375 37.664062 C 110.226562 37.367188 109.132812 36.703125 109.132812 36.703125 Z M 105.253906 26.992188 "/>
<g clip-path="url(#clip3)" clip-rule="nonzero">
<path style="fill:none;stroke-width:0.749999;stroke-linecap:butt;stroke-linejoin:miter;stroke:rgb(0%,0%,0%);stroke-opacity:1;stroke-miterlimit:4;" d="M 0.582031 5.21875 C 0.582031 5.21875 42.035156 5.21875 65.148438 5.21875 C 88.257812 5.21875 96.980469 10.214844 103.320312 16.550781 C 109.65625 22.886719 114.800781 33.847656 114.800781 54.871094 C 114.800781 75.894531 114.800781 119.289062 114.800781 119.289062 "/>
</g>
<path style=" stroke:none;fill-rule:nonzero;fill:rgb(0%,0%,0%);fill-opacity:1;" d="M 66.984375 12.925781 C 65.972656 13.441406 65.230469 14.570312 65.480469 15.8125 C 65.925781 14.996094 66.328125 14.128906 67.324219 13.597656 C 68.078125 13.214844 68.96875 13.242188 69.660156 14.167969 C 69.800781 14.355469 70.042969 14.832031 70.332031 15.476562 C 70.617188 16.125 70.953125 16.964844 71.335938 17.941406 C 72.105469 19.898438 73.054688 22.425781 74.144531 25.179688 C 76.328125 30.679688 79.078125 37.078125 82.121094 41.6875 C 85.289062 46.476562 90.078125 48.382812 94.664062 48.148438 C 99.25 47.914062 103.648438 45.570312 106.117188 41.882812 C 108.15625 38.839844 109.367188 35.378906 109.855469 32.183594 C 110.34375 28.984375 110.117188 26.042969 109.207031 24.015625 L 108.519531 24.324219 C 109.339844 26.144531 109.585938 28.972656 109.113281 32.066406 C 108.640625 35.160156 107.464844 38.527344 105.496094 41.464844 C 103.175781 44.933594 98.980469 47.175781 94.625 47.394531 C 90.269531 47.617188 85.773438 45.847656 82.75 41.273438 C 79.765625 36.757812 77.019531 30.386719 74.84375 24.902344 C 73.753906 22.160156 72.804688 19.632812 72.035156 17.664062 C 71.648438 16.683594 71.308594 15.839844 71.015625 15.175781 C 70.722656 14.507812 70.488281 14.027344 70.257812 13.71875 C 69.371094 12.535156 68 12.410156 66.984375 12.925781 Z M 66.984375 12.925781 "/>
<path style=" stroke:none;fill-rule:nonzero;fill:rgb(0%,0%,0%);fill-opacity:1;" d="M 95.78125 24.269531 C 93.09375 23.535156 89.605469 24.136719 86.773438 26.964844 C 81.097656 32.644531 84.902344 41.195312 84.902344 41.195312 C 83.910156 35.734375 83.773438 31.320312 87.304688 27.492188 C 89.957031 24.839844 93.160156 24.332031 95.585938 24.996094 C 96.800781 25.328125 97.8125 25.953125 98.460938 26.738281 C 99.480469 27.90625 99.429688 28.054688 99.957031 29.617188 C 100.1875 28.375 99.808594 27.191406 99.042969 26.261719 C 98.273438 25.332031 97.125 24.636719 95.78125 24.269531 Z M 95.78125 24.269531 "/>
<path style=" stroke:none;fill-rule:nonzero;fill:rgb(0%,0%,0%);fill-opacity:1;" d="M 83.308594 14.214844 C 82.503906 13.953125 81.582031 13.992188 80.773438 14.441406 C 79.960938 14.890625 79.277344 15.742188 78.929688 17.007812 C 78.246094 19.464844 78.363281 22.460938 78.632812 24.855469 C 78.90625 27.253906 79.347656 29.058594 79.347656 29.058594 C 79.542969 27.546875 79.464844 25.53125 79.378906 24.773438 C 79.109375 22.425781 79.019531 19.492188 79.652344 17.207031 C 79.960938 16.097656 80.519531 15.445312 81.136719 15.101562 C 81.757812 14.757812 82.457031 14.722656 83.074219 14.925781 C 83.695312 15.128906 84.21875 15.570312 84.492188 16.171875 C 84.9375 17.464844 84.9375 17.519531 85.0625 18.789062 C 85.5625 17.695312 85.546875 16.667969 85.179688 15.859375 C 84.8125 15.054688 84.113281 14.480469 83.308594 14.214844 Z M 83.308594 14.214844 "/>
<path style=" stroke:none;fill-rule:nonzero;fill:rgb(0%,0%,0%);fill-opacity:1;" d="M 95.984375 52.578125 C 95.09375 53.371094 94.589844 54.984375 94.769531 56.714844 C 94.945312 58.441406 95.878906 60.300781 98 61.390625 C 100.082031 62.464844 101.785156 62.523438 103.101562 62.121094 C 104.035156 61.585938 104.855469 61.023438 105.359375 59.757812 C 104.820312 60.335938 104.011719 61.058594 102.882812 61.402344 C 101.757812 61.746094 100.289062 61.730469 98.34375 60.726562 C 96.449219 59.75 95.671875 58.160156 95.515625 56.636719 C 95.117188 55.019531 95.726562 54.144531 95.984375 52.578125 Z M 95.984375 52.578125 "/>
</g>
</svg>
