<?xml version="1.0" encoding="UTF-8"?>
<svg xmlns="http://www.w3.org/2000/svg" xmlns:xlink="http://www.w3.org/1999/xlink" width="62.328331pt" height="62.346333pt" viewBox="0 0 62.328331 62.346333" version="1.1">
<defs>
<clipPath id="clip1">
  <path d="M 3 0 L 62.328125 0 L 62.328125 59 L 3 59 Z M 3 0 "/>
</clipPath>
<clipPath id="clip2">
  <path d="M 0 0 L 62 0 L 62 62.347656 L 0 62.347656 Z M 0 0 "/>
</clipPath>
<clipPath id="clip3">
  <path d="M 0 0 L 62.328125 0 L 62.328125 62.347656 L 0 62.347656 Z M 0 0 "/>
</clipPath>
<clipPath id="clip4">
  <path d="M 0 5 L 57 5 L 57 62.347656 L 0 62.347656 Z M 0 5 "/>
</clipPath>
</defs>
<g id="surface1">
<g clip-path="url(#clip1)" clip-rule="nonzero">
<path style=" stroke:none;fill-rule:nonzero;fill:rgb(100%,100%,100%);fill-opacity:1;" d="M 48.175781 57.675781 L 49.980469 58.769531 L 51.5625 56.132812 L 52.738281 50.03125 L 54.382812 52.269531 L 54.558594 54.046875 L 55.472656 45.691406 L 61.800781 50.4375 L 62.328125 55.277344 L 62.328125 0.0195312 L 7.074219 0 L 11.914062 0.527344 L 16.65625 6.859375 L 8.300781 7.769531 L 10.074219 7.945312 L 12.316406 9.59375 L 6.210938 10.765625 L 3.574219 12.34375 L 4.667969 14.152344 L 48.867188 13.476562 Z M 48.175781 57.675781 "/>
</g>
<path style=" stroke:none;fill-rule:nonzero;fill:rgb(0%,0%,0%);fill-opacity:1;" d="M 45.367188 24.722656 C 45.238281 24.664062 45.398438 22.835938 46.648438 22.445312 C 47.417969 22.203125 49.3125 22.441406 48.652344 24.566406 C 48.308594 23.945312 46.382812 23.695312 46.226562 25.132812 C 45.804688 24.828125 45.367188 24.722656 45.367188 24.722656 Z M 37.617188 16.96875 C 37.679688 17.101562 39.507812 16.941406 39.898438 15.691406 C 40.140625 14.921875 39.902344 13.03125 37.777344 13.6875 C 38.398438 14.03125 38.648438 15.957031 37.210938 16.113281 C 37.511719 16.535156 37.617188 16.96875 37.617188 16.96875 Z M 37.617188 16.96875 "/>
<g clip-path="url(#clip2)" clip-rule="nonzero">
<path style=" stroke:none;fill-rule:nonzero;fill:rgb(0%,0%,0%);fill-opacity:1;" d="M 61.855469 62.347656 L 61.855469 51.945312 C 61.855469 45.589844 58.726562 41.359375 55.222656 39.867188 C 59.972656 37.96875 61.261719 31.933594 61.261719 26 L 61.261719 1.085938 L 36.347656 1.078125 C 30.414062 1.078125 24.378906 2.363281 22.476562 7.113281 C 20.988281 3.609375 16.757812 0.476562 10.402344 0.472656 L 0.00390625 0.46875 L 0 6.023438 L 9.765625 6.027344 C 15.53125 6.027344 18.710938 10.054688 19.308594 13.074219 L 25.867188 13.078125 C 26.894531 7.09375 32.160156 6.59375 35.488281 6.59375 L 55.742188 6.601562 L 55.742188 26.859375 C 55.742188 30.1875 55.242188 35.449219 49.257812 36.476562 L 49.257812 43.035156 C 52.277344 43.632812 56.300781 46.816406 56.300781 52.578125 L 56.300781 62.347656 Z M 61.855469 62.347656 "/>
</g>
<g clip-path="url(#clip3)" clip-rule="nonzero">
<path style="fill:none;stroke-width:1.601575;stroke-linecap:butt;stroke-linejoin:miter;stroke:rgb(0%,0%,0%);stroke-opacity:1;stroke-miterlimit:4;" d="M 53.59375 62.207031 L 53.59375 52.929688 C 53.59375 49.710938 51.378906 45.496094 46.84375 45.496094 C 42.3125 45.496094 40.390625 48.824219 40.464844 51.347656 C 40.570312 54.859375 43.625 56.515625 45.855469 56.515625 C 48.644531 56.515625 50.15625 54.503906 50.15625 52.589844 C 50.15625 49.539062 47.183594 48.632812 46.265625 48.921875 L 46.265625 33.941406 C 52.183594 33.941406 53.117188 29.492188 53.117188 27.722656 L 53.117188 9.226562 L 34.625 9.21875 C 32.855469 9.21875 28.40625 10.152344 28.402344 16.070312 L 13.421875 16.066406 C 13.710938 15.148438 12.804688 12.171875 9.753906 12.171875 C 7.839844 12.171875 5.828125 13.683594 5.828125 16.472656 C 5.824219 18.703125 7.480469 21.757812 10.992188 21.863281 C 13.519531 21.941406 16.847656 20.019531 16.847656 15.488281 C 16.847656 10.953125 12.632812 8.738281 9.417969 8.734375 L 0.140625 8.734375 "/>
</g>
<g clip-path="url(#clip4)" clip-rule="nonzero">
<path style="fill:none;stroke-width:1.034646;stroke-linecap:butt;stroke-linejoin:miter;stroke:rgb(0%,0%,0%);stroke-opacity:1;stroke-miterlimit:4;" d="M 50.824219 62.085938 L 50.824219 57.816406 C 48.816406 59.933594 44.613281 59.96875 42.597656 59.261719 C 40.152344 58.402344 37.179688 55.96875 37.179688 51.480469 C 37.179688 47.15625 39.976562 43.847656 43.292969 42.925781 L 43.292969 24.882812 C 43.292969 21.902344 45.210938 20.507812 46.949219 20.507812 C 49.640625 20.507812 50.640625 22.589844 50.640625 23.878906 C 50.640625 25.910156 49.113281 26.910156 47.875 26.910156 C 45.683594 26.910156 45 24.195312 47.054688 23.273438 M 0.257812 11.503906 L 4.527344 11.503906 C 2.410156 13.511719 2.375 17.714844 3.082031 19.730469 C 3.9375 22.175781 6.371094 25.148438 10.859375 25.152344 C 15.183594 25.152344 18.492188 22.355469 19.417969 19.039062 L 32.835938 19.046875 L 37.460938 19.046875 C 40.4375 19.046875 41.835938 17.128906 41.835938 15.390625 C 41.835938 12.703125 39.753906 11.699219 38.464844 11.699219 C 36.433594 11.699219 35.433594 13.226562 35.429688 14.464844 C 35.429688 16.652344 38.144531 17.339844 39.070312 15.285156 "/>
</g>
<path style=" stroke:none;fill-rule:nonzero;fill:rgb(100%,100%,100%);fill-opacity:1;" d="M 44.519531 22.859375 L 42.527344 20.871094 L 44.25 19.1875 L 46.277344 21.21875 Z M 39.480469 17.820312 L 41.472656 19.8125 L 43.15625 18.09375 L 41.125 16.0625 Z M 39.480469 17.820312 "/>
<path style="fill:none;stroke-width:1.31811;stroke-linecap:round;stroke-linejoin:miter;stroke:rgb(0%,0%,0%);stroke-opacity:1;stroke-miterlimit:4;" d="M 45.347656 22.050781 L 40.292969 16.996094 "/>
<path style=" stroke:none;fill-rule:nonzero;fill:rgb(0%,0%,0%);fill-opacity:1;" d="M 44.769531 19.589844 C 44.769531 19.589844 47.769531 17.652344 50.695312 20.410156 C 52.503906 18.210938 49.316406 15.210938 45.792969 17.558594 C 49.019531 16.425781 51.710938 15.570312 51.132812 11.210938 C 46.773438 10.632812 45.917969 13.324219 44.785156 16.550781 C 47.132812 13.027344 44.136719 9.839844 41.933594 11.644531 C 44.691406 14.574219 42.753906 17.574219 42.753906 17.574219 L 43.746094 18.597656 Z M 44.769531 19.589844 "/>
<path style=" stroke:none;fill-rule:nonzero;fill:rgb(0%,0%,0%);fill-opacity:1;" d="M 41.808594 20.535156 L 42.5625 21.292969 C 42.5625 21.292969 43.011719 24.460938 40.792969 28.09375 C 39.734375 29.828125 38.085938 32.710938 41.714844 34.46875 C 40.1875 35.363281 38.859375 35.675781 37.4375 34.691406 C 36.402344 33.976562 35.417969 32.25 35.5 30.851562 C 35.675781 27.851562 38.011719 24.613281 39.667969 22.671875 C 37.726562 24.328125 34.488281 26.664062 31.484375 26.835938 C 30.085938 26.917969 28.363281 25.933594 27.648438 24.898438 C 26.664062 23.476562 26.976562 22.148438 27.871094 20.621094 C 29.628906 24.25 32.511719 22.601562 34.246094 21.542969 C 37.882812 19.328125 41.050781 19.777344 41.050781 19.777344 Z M 41.808594 20.535156 "/>
<path style=" stroke:none;fill-rule:nonzero;fill:rgb(0%,0%,0%);fill-opacity:1;" d="M 35.664062 26.671875 C 34.71875 28.011719 33.570312 30.691406 34.574219 32.75 C 30.585938 34.425781 26.5625 36.640625 23.144531 39.1875 C 25.695312 35.773438 27.910156 31.75 29.589844 27.765625 C 31.648438 28.769531 34.328125 27.621094 35.664062 26.671875 Z M 35.664062 26.671875 "/>
<path style=" stroke:none;fill-rule:nonzero;fill:rgb(0%,0%,0%);fill-opacity:1;" d="M 49.785156 26.605469 C 49.265625 27.125 49.117188 28.144531 49.851562 28.519531 C 48.515625 28.796875 48.164062 27.535156 48.613281 27.042969 Z M 35.738281 12.550781 C 35.21875 13.074219 34.199219 13.222656 33.828125 12.484375 C 33.546875 13.820312 34.808594 14.171875 35.300781 13.726562 Z M 35.738281 12.550781 "/>
<path style=" stroke:none;fill-rule:nonzero;fill:rgb(0%,0%,0%);fill-opacity:1;" d="M 36.71875 50.835938 C 36.71875 50.835938 35.765625 47.023438 33.753906 47.101562 C 35.019531 44.863281 38.597656 45.757812 37.40625 49.484375 C 37.109375 50.15625 36.71875 50.835938 36.71875 50.835938 Z M 11.503906 25.613281 C 11.503906 25.613281 15.3125 26.566406 15.238281 28.578125 C 17.476562 27.3125 16.582031 23.734375 12.855469 24.925781 C 12.183594 25.222656 11.503906 25.613281 11.503906 25.613281 Z M 11.503906 25.613281 "/>
<path style="fill:none;stroke-width:1.034646;stroke-linecap:butt;stroke-linejoin:miter;stroke:rgb(0%,0%,0%);stroke-opacity:1;stroke-miterlimit:11.8;" d="M 35.421875 34.023438 C 34.394531 34.65625 25.179688 38.34375 19.429688 42.902344 C 23.988281 37.15625 27.679688 27.941406 28.3125 26.914062 "/>
</g>
</svg>
