<?xml version="1.0" encoding="us-ascii" standalone="no"?><svg xmlns="http://www.w3.org/2000/svg" xmlns:xlink="http://www.w3.org/1999/xlink" contentStyleType="text/css" height="270px" preserveAspectRatio="none" style="width:639px;height:270px;" version="1.1" viewBox="0 0 639 270" width="639px" zoomAndPan="magnify"><defs/><g><!--entity I--><g id="elem_I"><rect fill="none" height="45.6094" rx="4" ry="4" style="stroke:#9F1732;stroke-width:0.5;" width="296" x="129.5" y="7"/><text fill="#9F1732" font-family="sans-serif" font-size="22" x="139.5" y="37.4209">{inmuebleId,propietario}</text></g><!--entity D--><g id="elem_D"><rect fill="none" height="45.6094" rx="4" ry="4" style="stroke:#9F1732;stroke-width:0.5;" width="119" x="7" y="113"/><text fill="#9F1732" font-family="sans-serif" font-size="22" x="17" y="143.4209">direcci&#243;n</text></g><!--entity P--><g id="elem_P"><rect fill="none" height="45.6094" rx="4" ry="4" style="stroke:#9F1732;stroke-width:0.5;" width="87" x="161" y="113"/><text fill="#9F1732" font-family="sans-serif" font-size="22" x="171" y="143.4209">precio</text></g><!--entity PO--><g id="elem_PO"><rect fill="none" height="45.6094" rx="4" ry="4" style="stroke:#9F1732;stroke-width:0.5;" width="136" x="283.5" y="113"/><text fill="#9F1732" font-family="sans-serif" font-size="22" x="293.5" y="143.4209">porcentaje</text></g><!--entity E--><g id="elem_E"><rect fill="none" height="45.6094" rx="4" ry="4" style="stroke:#9F1732;stroke-width:0.5;" width="148" x="454.5" y="113"/><text fill="#9F1732" font-family="sans-serif" font-size="22" x="464.5" y="143.4209">empleadoId</text></g><!--entity N--><g id="elem_N"><rect fill="none" height="45.6094" rx="4" ry="4" style="stroke:#9F1732;stroke-width:0.5;" width="105" x="412" y="219"/><text fill="#9F1732" font-family="sans-serif" font-size="22" x="422" y="249.4209">nombre</text></g><!--entity C--><g id="elem_C"><rect fill="none" height="45.6094" rx="4" ry="4" style="stroke:#9F1732;stroke-width:0.5;" width="81" x="552" y="219"/><text fill="#9F1732" font-family="sans-serif" font-size="22" x="562" y="249.4209">cargo</text></g><!--link I to D--><g id="link_I_D"><path d="M232.75,53.06 C196.94,70.7 152.3518,92.6874 116.5618,110.3274 " fill="none" id="I-to-D" style="stroke:#9F1732;stroke-width:1.0;"/><polygon fill="#9F1732" points="111.18,112.98,121.0211,112.589,115.6648,110.7695,117.4843,105.4133,111.18,112.98" style="stroke:#9F1732;stroke-width:1.0;"/></g><!--link I to P--><g id="link_I_P"><path d="M262.02,53.06 C249.63,70.7 235.7868,90.4288 223.4068,108.0688 " fill="none" id="I-to-P" style="stroke:#9F1732;stroke-width:1.0;"/><polygon fill="#9F1732" points="219.96,112.98,228.4043,107.911,222.8323,108.8873,221.856,103.3154,219.96,112.98" style="stroke:#9F1732;stroke-width:1.0;"/></g><!--link I to PO--><g id="link_I_PO"><path d="M293.19,53.06 C305.75,70.7 319.8018,90.4511 332.3518,108.0911 " fill="none" id="I-to-PO" style="stroke:#9F1732;stroke-width:1.0;"/><polygon fill="#9F1732" points="335.83,112.98,333.8719,103.3277,332.9315,108.9059,327.3533,107.9654,335.83,112.98" style="stroke:#9F1732;stroke-width:1.0;"/></g><!--link I to E--><g id="link_I_E"><path d="M330.73,53.06 C373.33,70.7 427.2269,93.0436 469.8069,110.6836 " fill="none" id="I-to-E" style="stroke:#9F1732;stroke-width:1.0;"/><polygon fill="#9F1732" points="475.35,112.98,468.5662,105.84,470.7307,111.0663,465.5043,113.2308,475.35,112.98" style="stroke:#9F1732;stroke-width:1.0;"/></g><!--link E to N--><g id="link_E_N"><path d="M514.93,159.06 C504.07,176.7 492.0556,196.2306 481.1956,213.8706 " fill="none" id="E-to-N" style="stroke:#9F1732;stroke-width:1.0;"/><polygon fill="#9F1732" points="478.05,218.98,486.1746,213.413,480.6713,214.7222,479.3621,209.2189,478.05,218.98" style="stroke:#9F1732;stroke-width:1.0;"/></g><!--link E to C--><g id="link_E_C"><path d="M542.07,159.06 C552.93,176.7 564.9444,196.2306 575.8044,213.8706 " fill="none" id="E-to-C" style="stroke:#9F1732;stroke-width:1.0;"/><polygon fill="#9F1732" points="578.95,218.98,577.6379,209.2189,576.3287,214.7222,570.8254,213.413,578.95,218.98" style="stroke:#9F1732;stroke-width:1.0;"/></g><!--SRC=[XP3FJW8n4CRlVOe97hZ80Jo85nF4DTaB4FG5odPsgNHdDaCt_Y4ybO_WYrcsg4KJlVIRpcywNsVwuB3qu1d4LciFnWeMtZAfxSPIeqNNiDB5fX9koKpPiO0NJTk0a7nIPR3KhVCF-EmdpbPK1mn5E51K7xxhd2NqBmq2Yrzpqc0Yma_HuUog75vUZ7x2EoR_Ry6zVKKOZXEq31DfgXp2JW7S_35De2m6vTG4uBTnp7LUeyDj6HiAeS1OxPMIBzFUpbBTuifXRiuRuSQYrs9vtmEzXJojxBPVsFStwjXjofeGM-xoYvCyos7B-X4ZcwSGwyQXDfoR3cOf8wvN4X_DqdoXfOe-KwLo60okmqUYBZvrVWmobNKwE-hq0m00]--></g></svg>