<?xml version="1.0" encoding="us-ascii" standalone="no"?><svg xmlns="http://www.w3.org/2000/svg" xmlns:xlink="http://www.w3.org/1999/xlink" contentStyleType="text/css" height="270px" preserveAspectRatio="none" style="width:688px;height:270px;" version="1.1" viewBox="0 0 688 270" width="688px" zoomAndPan="magnify"><defs/><g><!--entity I--><g id="elem_I"><rect fill="none" height="45.6094" rx="4" ry="4" style="stroke:#9F1732;stroke-width:0.5;" width="142" x="133.5" y="7"/><text fill="#9F1732" font-family="sans-serif" font-size="22" x="143.5" y="37.4209">inmuebleId</text></g><!--entity D--><g id="elem_D"><rect fill="none" height="45.6094" rx="4" ry="4" style="stroke:#9F1732;stroke-width:0.5;" width="119" x="7" y="113"/><text fill="#9F1732" font-family="sans-serif" font-size="22" x="17" y="143.4209">direcci&#243;n</text></g><!--entity P--><g id="elem_P"><rect fill="none" height="45.6094" rx="4" ry="4" style="stroke:#9F1732;stroke-width:0.5;" width="87" x="161" y="113"/><text fill="#9F1732" font-family="sans-serif" font-size="22" x="171" y="143.4209">precio</text></g><!--entity E--><g id="elem_E"><rect fill="none" height="45.6094" rx="4" ry="4" style="stroke:#9F1732;stroke-width:0.5;" width="148" x="283.5" y="113"/><text fill="#9F1732" font-family="sans-serif" font-size="22" x="293.5" y="143.4209">empleadoId</text></g><!--entity N--><g id="elem_N"><rect fill="none" height="45.6094" rx="4" ry="4" style="stroke:#9F1732;stroke-width:0.5;" width="105" x="241" y="219"/><text fill="#9F1732" font-family="sans-serif" font-size="22" x="251" y="249.4209">nombre</text></g><!--entity C--><g id="elem_C"><rect fill="none" height="45.6094" rx="4" ry="4" style="stroke:#9F1732;stroke-width:0.5;" width="81" x="381" y="219"/><text fill="#9F1732" font-family="sans-serif" font-size="22" x="391" y="249.4209">cargo</text></g><!--entity IP--><g id="elem_IP"><rect fill="none" height="45.6094" rx="4" ry="4" style="stroke:#9F1732;stroke-width:0.5;" width="296" x="386.5" y="7"/><text fill="#9F1732" font-family="sans-serif" font-size="22" x="396.5" y="37.4209">{inmuebleId,propietario}</text></g><!--entity PO--><g id="elem_PO"><rect fill="none" height="45.6094" rx="4" ry="4" style="stroke:#9F1732;stroke-width:0.5;" width="136" x="466.5" y="113"/><text fill="#9F1732" font-family="sans-serif" font-size="22" x="476.5" y="143.4209">porcentaje</text></g><!--link I to D--><g id="link_I_D"><path d="M175.23,53.06 C151.81,70.7 123.9219,91.7292 100.5119,109.3692 " fill="none" id="I-to-D" style="stroke:#9F1732;stroke-width:1.0;"/><polygon fill="#9F1732" points="95.72,112.98,105.315,110.7584,99.7132,109.971,100.5006,104.3692,95.72,112.98" style="stroke:#9F1732;stroke-width:1.0;"/></g><!--link I to P--><g id="link_I_P"><path d="M204.5,53.06 C204.5,70.7 204.5,89.34 204.5,106.98 " fill="none" id="I-to-P" style="stroke:#9F1732;stroke-width:1.0;"/><polygon fill="#9F1732" points="204.5,112.98,208.5,103.98,204.5,107.98,200.5,103.98,204.5,112.98" style="stroke:#9F1732;stroke-width:1.0;"/></g><!--link I to E--><g id="link_I_E"><path d="M236.95,53.06 C262.91,70.7 294.1879,91.9669 320.1379,109.6069 " fill="none" id="I-to-E" style="stroke:#9F1732;stroke-width:1.0;"/><polygon fill="#9F1732" points="325.1,112.98,319.9056,104.6123,320.9649,110.1691,315.4081,111.2284,325.1,112.98" style="stroke:#9F1732;stroke-width:1.0;"/></g><!--link E to N--><g id="link_E_N"><path d="M343.93,159.06 C333.07,176.7 321.0556,196.2306 310.1956,213.8706 " fill="none" id="E-to-N" style="stroke:#9F1732;stroke-width:1.0;"/><polygon fill="#9F1732" points="307.05,218.98,315.1746,213.413,309.6713,214.7222,308.3621,209.2189,307.05,218.98" style="stroke:#9F1732;stroke-width:1.0;"/></g><!--link E to C--><g id="link_E_C"><path d="M371.07,159.06 C381.93,176.7 393.9444,196.2306 404.8044,213.8706 " fill="none" id="E-to-C" style="stroke:#9F1732;stroke-width:1.0;"/><polygon fill="#9F1732" points="407.95,218.98,406.6379,209.2189,405.3287,214.7222,399.8254,213.413,407.95,218.98" style="stroke:#9F1732;stroke-width:1.0;"/></g><!--link IP to PO--><g id="link_IP_PO"><path d="M534.5,53.06 C534.5,70.7 534.5,89.34 534.5,106.98 " fill="none" id="IP-to-PO" style="stroke:#9F1732;stroke-width:1.0;"/><polygon fill="#9F1732" points="534.5,112.98,538.5,103.98,534.5,107.98,530.5,103.98,534.5,112.98" style="stroke:#9F1732;stroke-width:1.0;"/></g><!--SRC=[XP7FJW8n4CRlVOe97hZ80Jo85nD4JBZ01ds1iZiibUvCCzkDVmXFvIFuOfOjaQucUkcqtsyoNx-s3nOt7Zo3c7BheJ22kJTCgjuPSbfq1MkTxqhXXeefMnRmegaE2CadNGLkT6Fz4xxwYJKbLG537XOKrOTpdpM4_iqXiFWj9mCc8lmI7IvkDiFhgz5F-C3a_sruDEy8mt62LY6Hfj8Yx1N0tHzf0cKfKBec0B-DezPwZOwdLHmeX09ZTL1AlarxXge6rnRdHGzq3VEKjU-TcyyFQjbzobpO6sxrBDMnSXPrmQTvivGHLsl1Lb-aUgwbZAEcIirXCBWDNh5cfpfJixOkJdNQ2R4_fxXqmiwWrsBu42DrxkTOZl-kd-CzicLmpABLKdq1]--></g></svg>