<?xml version="1.0" encoding="us-ascii" standalone="no"?><svg xmlns="http://www.w3.org/2000/svg" xmlns:xlink="http://www.w3.org/1999/xlink" contentStyleType="text/css" height="270px" preserveAspectRatio="none" style="width:653px;height:270px;" version="1.1" viewBox="0 0 653 270" width="653px" zoomAndPan="magnify"><defs/><g><!--entity I--><g id="elem_I"><rect fill="none" height="45.6094" rx="4" ry="4" style="stroke:#9F1732;stroke-width:0.5;" width="142" x="210.5" y="7"/><text fill="#9F1732" font-family="sans-serif" font-size="22" x="220.5" y="37.4209">inmuebleId</text></g><!--entity D--><g id="elem_D"><rect fill="none" height="45.6094" rx="4" ry="4" style="stroke:#9F1732;stroke-width:0.5;" width="119" x="7" y="113"/><text fill="#9F1732" font-family="sans-serif" font-size="22" x="17" y="143.4209">direcci&#243;n</text></g><!--entity P--><g id="elem_P"><rect fill="none" height="45.6094" rx="4" ry="4" style="stroke:#9F1732;stroke-width:0.5;" width="87" x="161" y="113"/><text fill="#9F1732" font-family="sans-serif" font-size="22" x="171" y="143.4209">precio</text></g><!--entity PR--><g id="elem_PR"><rect fill="none" height="45.6094" rx="4" ry="4" style="stroke:#9F1732;stroke-width:0.5;" width="150" x="283.5" y="113"/><text fill="#9F1732" font-family="sans-serif" font-size="22" x="293.5" y="143.4209">propietarios</text></g><!--entity E--><g id="elem_E"><rect fill="none" height="45.6094" rx="4" ry="4" style="stroke:#9F1732;stroke-width:0.5;" width="148" x="468.5" y="113"/><text fill="#9F1732" font-family="sans-serif" font-size="22" x="478.5" y="143.4209">empleadoId</text></g><!--entity N--><g id="elem_N"><rect fill="none" height="45.6094" rx="4" ry="4" style="stroke:#9F1732;stroke-width:0.5;" width="105" x="426" y="219"/><text fill="#9F1732" font-family="sans-serif" font-size="22" x="436" y="249.4209">nombre</text></g><!--entity C--><g id="elem_C"><rect fill="none" height="45.6094" rx="4" ry="4" style="stroke:#9F1732;stroke-width:0.5;" width="81" x="566" y="219"/><text fill="#9F1732" font-family="sans-serif" font-size="22" x="576" y="249.4209">cargo</text></g><!--link I to D--><g id="link_I_D"><path d="M235.9,53.06 C199.42,70.7 153.9013,92.7274 117.4313,110.3674 " fill="none" id="I-to-D" style="stroke:#9F1732;stroke-width:1.0;"/><polygon fill="#9F1732" points="112.03,112.98,121.8737,112.6621,116.5311,110.8029,118.3903,105.4603,112.03,112.98" style="stroke:#9F1732;stroke-width:1.0;"/></g><!--link I to P--><g id="link_I_P"><path d="M265.17,53.06 C252.1,70.7 237.4402,90.5178 224.3802,108.1578 " fill="none" id="I-to-P" style="stroke:#9F1732;stroke-width:1.0;"/><polygon fill="#9F1732" points="220.81,112.98,229.3801,108.1268,223.7852,108.9615,222.9505,103.3666,220.81,112.98" style="stroke:#9F1732;stroke-width:1.0;"/></g><!--link I to PR--><g id="link_I_PR"><path d="M297.83,53.06 C310.9,70.7 325.5598,90.5178 338.6198,108.1578 " fill="none" id="I-to-PR" style="stroke:#9F1732;stroke-width:1.0;"/><polygon fill="#9F1732" points="342.19,112.98,340.0495,103.3666,339.2148,108.9615,333.6199,108.1268,342.19,112.98" style="stroke:#9F1732;stroke-width:1.0;"/></g><!--link I to E--><g id="link_I_E"><path d="M336.85,53.06 C381.14,70.7 437.3862,93.119 481.6562,110.759 " fill="none" id="I-to-E" style="stroke:#9F1732;stroke-width:1.0;"/><polygon fill="#9F1732" points="487.23,112.98,480.3499,105.9327,482.5852,111.1292,477.3886,113.3644,487.23,112.98" style="stroke:#9F1732;stroke-width:1.0;"/></g><!--link E to N--><g id="link_E_N"><path d="M528.93,159.06 C518.07,176.7 506.0556,196.2306 495.1956,213.8706 " fill="none" id="E-to-N" style="stroke:#9F1732;stroke-width:1.0;"/><polygon fill="#9F1732" points="492.05,218.98,500.1746,213.413,494.6713,214.7222,493.3621,209.2189,492.05,218.98" style="stroke:#9F1732;stroke-width:1.0;"/></g><!--link E to C--><g id="link_E_C"><path d="M556.07,159.06 C566.93,176.7 578.9444,196.2306 589.8044,213.8706 " fill="none" id="E-to-C" style="stroke:#9F1732;stroke-width:1.0;"/><polygon fill="#9F1732" points="592.95,218.98,591.6379,209.2189,590.3287,214.7222,584.8254,213.413,592.95,218.98" style="stroke:#9F1732;stroke-width:1.0;"/></g><!--SRC=[XP1DJiCm48NtFiMeBBhgecL1sI2L4AHigYfm0IUPf5QTcMZYY3znAex0nJ1n09TAiF4Rlsyqp-CvMAmTE0OnpTv1PGHBPvXKVp3KQT4j5BeyDC83LGbR5d2YgVS8oKLT5TPwiEuU7zt6cePQZw7q1ugQmq-VDOJkgKDWSNkE1cn4-24ad5tMoulprMzuo-J-RRWppmZBTOHolv6cnYAyA83hFxRnbAL2EGu1E0qEtfYr-hpbOQ0G2gpLgrBo7Jepr0vOMCog6UWUifYD_rsQzpSQsKtCEbyR7ltTiS-TGQV5S1ze7cDiEukwuYakZHbnMmYE_ZRsIorDI4gKoc2nkF9F2RhxqdmgKfMEkfqq-G00]--></g></svg>