<svg xmlns="http://www.w3.org/2000/svg" xmlns:xlink="http://www.w3.org/1999/xlink" contentStyleType="text/css" data-diagram-type="CLASS" height="622px" preserveAspectRatio="none" style="width:1044px;height:622px;background:#FFFFFF;" version="1.1" viewBox="0 0 1044 622" width="1044px" zoomAndPan="magnify"><defs/><g><!--class Degrees--><g class="entity" data-entity="Degrees" data-source-line="15" data-uid="ent0002" id="entity_Degrees"><polygon fill="#CCCCCC" points="604.42,7,604.42,7.2102,614.0866,6.5857,623.7533,7.1933,633.4199,7.3997,643.0865,6.2866,652.7532,6.9223,662.4198,6.5735,672.0865,6.6165,681.7531,6.9318,691.4197,6.3086,701.0864,7.5536,710.753,7,710.6726,6.8059,711.0813,7.0855,711.5152,7.4259,711.8027,7.4129,712.1759,7.6068,712.5208,7.7322,712.5109,7.7282,712.7222,8.1086,712.8873,8.4698,713.1405,8.8676,713.3132,9.232,713.253,9.5,713.9323,9.5,713.5076,19.1518,713.7166,28.8036,713.9552,38.4554,712.5318,48.1071,713.9315,57.7589,712.9565,67.4107,713.253,77.0625,713.4174,77.1306,712.9541,77.3529,712.939,77.7609,713.0421,78.2178,712.6522,78.4705,712.5208,78.8303,712.5342,78.8627,712.2104,79.081,711.8668,79.2513,711.4596,79.2684,711.1432,79.5045,710.753,79.5625,710.753,78.9901,701.0864,79.8469,691.4197,80.1107,681.7531,80.007,672.0865,80.1755,662.4198,79.0794,652.7532,78.9103,643.0865,78.9411,633.4199,79.5036,623.7533,79.366,614.0866,80.2439,604.42,79.5625,604.3977,79.5087,604.0227,79.3104,603.742,79.3399,603.2743,78.9178,602.9396,78.8168,602.6522,78.8303,602.8521,78.913,602.64,78.5323,602.5855,78.2169,602.1138,77.7286,602.1647,77.4568,601.92,77.0625,602.5104,77.0625,601.4476,67.4107,601.8241,57.7589,602.046,48.1071,602.5718,38.4554,601.9158,28.8036,602.3826,19.1518,601.92,9.5,601.7495,9.4294,601.8579,9.0601,602.368,8.8571,602.1386,8.3479,602.6625,8.1507,602.6522,7.7322,602.6786,7.7959,602.9716,7.5033,603.3142,7.3304,603.7714,7.4342,604.0283,7.0543,604.42,7" style="stroke:#888888;stroke-width:0.5;"/><text fill="#000000" font-family="sans-serif" font-size="12" font-weight="bold" lengthAdjust="spacing" textLength="56.0273" x="629.5728" y="23.1387">Degrees</text><path d="M602.92,30.9688 L602.92,31.249 L612.8594,30.4163 L622.7987,31.2265 L632.7381,31.5017 L642.6775,30.0176 L652.6168,30.8651 L662.5562,30.4001 L672.4956,30.4574 L682.4349,30.8779 L692.3743,30.0469 L702.3136,31.7069 L712.253,30.9688" fill="#CCCCCC" style="stroke:#888888;stroke-width:0.5;"/><text fill="#000000" font-family="sans-serif" font-size="14" lengthAdjust="spacing" textLength="90.6514" x="607.92" y="47.9639">name: String</text><text fill="#000000" font-family="sans-serif" font-size="14" lengthAdjust="spacing" textLength="99.333" x="607.92" y="64.2607">years: Natural</text><path d="M602.92,71.5625 L602.92,71.8427 L612.8594,71.0101 L622.7987,71.8202 L632.7381,72.0954 L642.6775,70.6113 L652.6168,71.4589 L662.5562,70.9938 L672.4956,71.0512 L682.4349,71.4716 L692.3743,70.6407 L702.3136,72.3007 L712.253,71.5625" fill="#CCCCCC" style="stroke:#888888;stroke-width:0.5;"/></g><!--class Subjects--><g class="entity" data-entity="Subjects" data-source-line="20" data-uid="ent0003" id="entity_Subjects"><polygon fill="#CCCCCC" points="590.53,155.86,590.53,156.0702,600.8465,155.4457,611.163,156.0533,621.4794,156.2597,631.7959,155.1466,642.1124,155.7823,652.4289,155.4335,662.7454,155.4765,673.0619,155.7918,683.3783,155.1686,693.6948,156.4136,704.0113,155.2297,714.3278,155.6622,724.6443,155.86,724.6994,155.993,724.9869,155.98,725.3601,156.1739,725.7008,156.2895,726.0812,156.5008,726.412,156.5922,726.4857,156.6227,726.7388,157.0205,726.9116,157.3849,727.0605,157.7395,727.0762,158.0389,727.1443,158.36,727.6078,158.36,727.8465,168.0644,726.4231,177.7689,727.8228,187.4733,726.8478,197.1777,727.6781,206.8821,726.6492,216.5866,727.0758,226.291,727.8859,235.9954,727.0955,245.6998,727.2496,255.4043,727.4829,265.1087,727.1443,274.8131,727.2724,274.8662,726.9966,275.1662,726.9398,275.5569,726.5286,275.8008,726.6461,276.2636,726.412,276.5809,726.482,276.7497,726.1152,276.8642,725.7831,277.0626,725.2897,276.8715,724.9146,276.9658,724.6443,277.3131,724.6443,276.6917,714.3278,277.2542,704.0113,277.1166,693.6948,277.9945,683.3783,277.1384,673.0619,276.9701,662.7454,277.5414,652.4289,276.6463,642.1124,276.794,631.7959,277.9621,621.4794,277.7488,611.163,278.0476,600.8465,276.9913,590.53,277.3131,590.5707,277.4114,590.2518,277.3485,589.7626,276.8747,589.4571,276.8443,589.1319,276.7661,588.7622,276.5809,588.9629,276.664,588.6145,276.2268,588.6118,275.9328,588.1523,275.4496,587.9679,275.0803,588.03,274.8131,588.5336,274.8131,587.3131,265.1087,588.539,255.4043,588.2366,245.6998,587.7621,235.9954,587.6762,226.291,588.4888,216.5866,587.7307,206.8821,588.6219,197.1777,587.4773,187.4733,588.6474,177.7689,588.5143,168.0644,588.03,158.36,588.1054,158.3912,588.191,158.0125,588.5467,157.7456,588.6583,157.3776,588.6679,156.9674,588.7622,156.5922,588.7964,156.6748,589.0992,156.4057,589.5607,156.52,589.8426,156.2006,590.1985,156.0596,590.53,155.86" style="stroke:#888888;stroke-width:0.5;"/><text fill="#000000" font-family="sans-serif" font-size="12" font-weight="bold" lengthAdjust="spacing" textLength="58.0195" x="628.5774" y="171.9987">Subjects</text><path d="M589.03,179.8288 L589.03,180.109 L598.8239,179.2763 L608.6178,180.0865 L618.4116,180.3617 L628.2055,178.8776 L637.9994,179.7251 L647.7933,179.2601 L657.5871,179.3174 L667.381,179.7379 L677.1749,178.9069 L686.9688,180.5669 L696.7626,178.9884 L706.5565,179.5651 L716.3504,180.4047 L726.1443,179.8288" fill="#CCCCCC" style="stroke:#888888;stroke-width:0.5;"/><text fill="#000000" font-family="sans-serif" font-size="14" lengthAdjust="spacing" textLength="90.6514" x="594.03" y="196.8239">name: String</text><text fill="#000000" font-family="sans-serif" font-size="14" lengthAdjust="spacing" textLength="112.3418" x="594.03" y="213.1207">acronym: String</text><text fill="#000000" font-family="sans-serif" font-size="14" lengthAdjust="spacing" textLength="87.6025" x="594.03" y="229.4176">credits: Real</text><text fill="#000000" font-family="sans-serif" font-size="14" lengthAdjust="spacing" textLength="92.0391" x="594.03" y="245.7145">year: Natural</text><text fill="#000000" font-family="sans-serif" font-size="14" lengthAdjust="spacing" textLength="127.1143" x="594.03" y="262.0114">type: SubjectType</text><path d="M589.03,269.3131 L589.03,269.5934 L598.8239,268.7607 L608.6178,269.5708 L618.4116,269.846 L628.2055,268.3619 L637.9994,269.2095 L647.7933,268.7445 L657.5871,268.8018 L667.381,269.2222 L677.1749,268.3913 L686.9688,270.0513 L696.7626,268.4728 L706.5565,269.0494 L716.3504,269.8891 L726.1443,269.3131" fill="#CCCCCC" style="stroke:#888888;stroke-width:0.5;"/></g><!--class Groups--><g class="entity" data-entity="Groups" data-source-line="28" data-uid="ent0004" id="entity_Groups"><polygon fill="#CCCCCC" points="507.23,359.57,507.23,359.7802,517.5441,359.1557,527.8581,359.7633,538.1722,359.9697,548.4863,358.8566,558.8003,359.4923,569.1144,359.1435,579.4284,359.1865,589.7425,359.5018,600.0566,358.8786,610.3706,360.1236,620.6847,358.9397,630.9988,359.3722,641.3128,360.0019,651.6269,359.4842,661.9409,359.57,661.9496,359.591,662.2904,359.7066,662.6708,359.9179,663.0321,360.083,663.4299,360.3362,663.7087,360.3022,663.9154,360.3878,664.0643,360.7424,664.08,361.0418,664.2908,361.422,664.5108,361.806,664.4409,362.07,663.7198,362.07,665.1194,372.5524,664.1444,383.0348,664.9747,393.5173,663.9459,403.9997,664.3724,414.4821,665.1825,424.9645,664.3922,435.447,664.4409,445.9294,664.4734,445.9428,664.3988,446.3261,664.2762,446.6896,664.0004,446.9895,663.9436,447.3802,663.7087,447.6971,663.6357,447.5209,663.3914,447.9312,663.0715,448.1589,662.7047,448.2734,662.3727,448.4717,661.9409,448.4294,661.9409,447.9463,651.6269,447.7772,641.3128,447.808,630.9988,448.3705,620.6847,448.2328,610.3706,449.1108,600.0566,448.2547,589.7425,448.0863,579.4284,448.6576,569.1144,447.7625,558.8003,447.9102,548.4863,449.0783,538.1722,448.865,527.8581,449.1639,517.5441,448.1076,507.23,448.4294,507.2707,448.5277,506.9518,448.4648,506.4626,447.991,506.1571,447.9605,505.8319,447.8824,505.4622,447.6971,505.6629,447.7803,505.3145,447.3431,505.3118,447.049,504.8523,446.5658,504.6679,446.1965,504.73,445.9294,505.2336,445.9294,504.0131,435.447,505.239,424.9645,504.9366,414.4821,504.4621,403.9997,504.3762,393.5173,505.1888,383.0348,504.4307,372.5524,504.73,362.07,504.9123,362.1455,504.7062,361.6459,505.213,361.4417,505.3185,361.0711,505.3912,360.687,505.4622,360.3022,505.4683,360.3168,505.9085,360.3796,506.2476,360.1983,506.5445,359.915,506.9107,359.799,507.23,359.57" style="stroke:#888888;stroke-width:0.5;"/><text fill="#000000" font-family="sans-serif" font-size="12" font-weight="bold" lengthAdjust="spacing" textLength="48.2871" x="560.4419" y="375.7087">Groups</text><path d="M505.73,383.5388 L505.73,383.819 L515.5869,382.9863 L525.4439,383.7965 L535.3008,384.0717 L545.1577,382.5876 L555.0147,383.4351 L564.8716,382.9701 L574.7285,383.0274 L584.5855,383.4479 L594.4424,382.6169 L604.2993,384.2769 L614.1563,382.6984 L624.0132,383.2751 L633.8701,384.1147 L643.7271,383.4244 L653.584,383.6297 L663.4409,383.5388" fill="#CCCCCC" style="stroke:#888888;stroke-width:0.5;"/><text fill="#000000" font-family="sans-serif" font-size="14" lengthAdjust="spacing" textLength="90.6514" x="510.73" y="400.5339">name: String</text><text fill="#000000" font-family="sans-serif" font-size="14" lengthAdjust="spacing" textLength="147.7109" x="510.73" y="416.8307">activity: ActivityType</text><text fill="#000000" font-family="sans-serif" font-size="14" lengthAdjust="spacing" textLength="92.0391" x="510.73" y="433.1276">year: Natural</text><path d="M505.73,440.4294 L505.73,440.7096 L515.5869,439.8769 L525.4439,440.6871 L535.3008,440.9623 L545.1577,439.4782 L555.0147,440.3258 L564.8716,439.8607 L574.7285,439.918 L584.5855,440.3385 L594.4424,439.5075 L604.2993,441.1676 L614.1563,439.589 L624.0132,440.1657 L633.8701,441.0053 L643.7271,440.315 L653.584,440.5204 L663.4409,440.4294" fill="#CCCCCC" style="stroke:#888888;stroke-width:0.5;"/></g><!--class Grades--><g class="entity" data-entity="Grades" data-source-line="34" data-uid="ent0005" id="entity_Grades"><polygon fill="#CCCCCC" points="437.08,520.37,437.08,520.5802,447.1434,519.9557,457.2067,520.5633,467.2701,520.7697,477.3334,519.6566,487.3968,520.2923,497.4601,519.9435,507.5235,519.9865,517.5868,520.3018,527.6502,519.6786,537.7135,520.9236,547.7769,519.7397,557.8403,520.1722,567.9036,520.8019,577.967,520.2842,588.0303,520.4382,598.0937,520.37,598.0896,520.3602,598.47,520.5714,598.8313,520.7365,599.229,520.9897,599.5935,521.1624,599.8614,521.1022,600.0706,521.1889,600.0863,521.4883,600.2971,521.8685,600.517,522.2525,600.2251,522.4245,600.5937,522.87,601.2722,522.87,600.2972,533.3524,601.1275,543.8348,600.0986,554.3173,600.5252,564.7997,601.3353,575.2821,600.5449,585.7645,600.699,596.247,600.5937,606.7294,600.698,606.7726,600.5754,607.136,600.2996,607.436,600.2428,607.8267,599.8316,608.0706,599.8614,608.4971,599.8977,608.5847,599.5778,608.8124,599.211,608.9269,598.879,609.1253,598.3856,608.9342,598.0937,609.2294,598.0937,608.5772,588.0303,608.608,577.967,609.1705,567.9036,609.0328,557.8403,609.9108,547.7769,609.0547,537.7135,608.8863,527.6502,609.4576,517.5868,608.5625,507.5235,608.7102,497.4601,609.8783,487.3968,609.665,477.3334,609.9639,467.2701,608.9076,457.2067,609.5486,447.1434,609.8198,437.08,609.2294,437.0197,609.0839,436.7142,609.0534,436.389,608.9753,436.1025,608.9908,435.6653,608.6423,435.3122,608.4971,435.4547,608.5561,434.9952,608.0729,434.8108,607.7036,435.028,607.5007,434.5057,606.9915,434.58,606.7294,435.089,606.7294,434.7866,596.247,434.3121,585.7645,434.2262,575.2821,435.0388,564.7997,434.2807,554.3173,435.1719,543.8348,434.0273,533.3524,434.58,522.87,434.7701,522.9488,434.8756,522.5782,434.9483,522.1941,435.0339,521.8154,435.3896,521.5485,435.3122,521.1022,435.3905,521.2912,435.6874,521.0079,436.0536,520.8919,436.3563,520.6228,436.8178,520.7371,437.08,520.37" style="stroke:#888888;stroke-width:0.5;"/><text fill="#000000" font-family="sans-serif" font-size="12" font-weight="bold" lengthAdjust="spacing" textLength="47.7363" x="493.7187" y="536.5087">Grades</text><path d="M435.58,544.3388 L435.58,544.619 L445.8309,543.7863 L456.0817,544.5965 L466.3326,544.8717 L476.5834,543.3876 L486.8343,544.2351 L497.0851,543.7701 L507.336,543.8274 L517.5868,544.2479 L527.8377,543.4169 L538.0885,545.0769 L548.3394,543.4984 L558.5903,544.0751 L568.8411,544.9147 L579.092,544.2244 L589.3428,544.4297 L599.5937,544.3388" fill="#CCCCCC" style="stroke:#888888;stroke-width:0.5;"/><text fill="#000000" font-family="sans-serif" font-size="14" lengthAdjust="spacing" textLength="78.2168" x="440.58" y="561.3339">value: Real</text><text fill="#000000" font-family="sans-serif" font-size="14" lengthAdjust="spacing" textLength="127.6611" x="440.58" y="577.6307">gradeCall: Natural</text><text fill="#000000" font-family="sans-serif" font-size="14" lengthAdjust="spacing" textLength="154.0137" x="440.58" y="593.9276">withHonours: Boolean</text><path d="M435.58,601.2294 L435.58,601.5096 L445.8309,600.6769 L456.0817,601.4871 L466.3326,601.7623 L476.5834,600.2782 L486.8343,601.1258 L497.0851,600.6607 L507.336,600.718 L517.5868,601.1385 L527.8377,600.3075 L538.0885,601.9676 L548.3394,600.389 L558.5903,600.9657 L568.8411,601.8053 L579.092,601.115 L589.3428,601.3204 L599.5937,601.2294" fill="#CCCCCC" style="stroke:#888888;stroke-width:0.5;"/></g><!--class Students--><g class="entity" data-entity="Students" data-source-line="40" data-uid="ent0006" id="entity_Students"><polygon fill="#CCCCCC" points="352.41,139.56,352.41,139.7702,362.3279,139.1457,372.2458,139.7533,382.1638,139.9597,392.0817,138.8466,401.9996,139.4823,411.9175,139.1335,421.8354,139.1765,431.7534,139.4918,441.6713,138.8686,451.5892,140.1136,461.5071,138.9297,471.425,139.3622,481.343,139.9919,491.2609,139.4742,501.1788,139.6282,511.0967,139.5281,521.0146,139.7385,530.9326,139.7991,540.8505,140.1457,550.7684,139.56,550.854,139.7667,551.2086,139.9156,551.508,139.9313,551.8882,140.1421,552.2722,140.362,552.5362,140.2922,552.3141,140.2002,552.8916,140.7323,552.7377,140.9615,553.1399,141.421,552.9695,141.6433,553.2684,142.06,553.1999,142.06,554.01,151.9965,553.2197,161.9329,553.3737,171.8694,553.607,181.8058,553.6846,191.7423,553.2645,201.6788,553.5556,211.6152,552.696,221.5517,553.5528,231.4881,553.8166,241.4246,553.7129,251.361,553.8814,261.2975,552.7853,271.234,552.6162,281.1704,553.2684,291.1069,553.077,291.0276,553.1038,291.4529,552.915,291.7889,553.0389,292.2545,552.6288,292.4988,552.5362,292.8746,552.4924,292.769,552.2117,293.0914,551.744,292.9622,551.4093,293.1541,551.2047,293.6603,550.7684,293.6069,550.7684,294.0425,540.8505,294.3414,530.9326,293.2851,521.0146,293.9261,511.0967,294.1973,501.1788,293.1345,491.2609,293.511,481.343,293.7329,471.425,294.2586,461.5071,293.6027,451.5892,294.0694,441.6713,293.0531,431.7534,292.9296,421.8354,294.1105,411.9175,292.8899,401.9996,294.1158,392.0817,293.8135,382.1638,293.339,372.2458,293.2531,362.3279,294.0656,352.41,293.6069,352.3718,293.5147,352.1319,293.6427,351.6324,293.1438,351.4281,293.3577,351.0576,293.1702,350.6422,292.8746,350.7177,292.9059,350.5103,292.5271,350.5731,292.2602,350.3919,291.8923,350.1086,291.482,349.91,291.1069,350.1782,291.1069,349.7797,281.1704,350.6265,271.234,350.0649,261.2975,350.0826,251.361,349.3016,241.4246,349.5048,231.4881,350.4407,221.5517,350.3398,211.6152,349.8671,201.6788,349.5878,191.7423,349.6911,181.8058,349.2238,171.8694,350.3247,161.9329,350.6496,151.9965,349.91,142.06,350.0721,142.1271,350.2705,141.7951,350.1608,141.3355,350.3762,141.0105,350.3764,140.5963,350.6422,140.2922,350.6785,140.3797,351.0273,140.2218,351.4198,140.1695,351.6736,139.7822,352.0393,139.6651,352.41,139.56" style="stroke:#888888;stroke-width:0.5;"/><text fill="#000000" font-family="sans-serif" font-size="12" font-weight="bold" lengthAdjust="spacing" textLength="61.0723" x="421.0531" y="155.6987">Students</text><path d="M350.91,163.5288 L350.91,163.809 L360.9779,162.9763 L371.0458,163.7865 L381.1138,164.0617 L391.1817,162.5776 L401.2496,163.4251 L411.3175,162.9601 L421.3854,163.0174 L431.4534,163.4379 L441.5213,162.6069 L451.5892,164.2669 L461.6571,162.6884 L471.725,163.2651 L481.793,164.1047 L491.8609,163.4144 L501.9288,163.6197 L511.9967,163.4862 L522.0646,163.7668 L532.1326,163.8476 L542.2005,164.3097 L552.2684,163.5288" fill="#CCCCCC" style="stroke:#888888;stroke-width:0.5;"/><text fill="#000000" font-family="sans-serif" font-size="14" lengthAdjust="spacing" textLength="191.3584" x="355.91" y="180.5239">accessMethod: AccessType</text><text fill="#000000" font-family="sans-serif" font-size="14" lengthAdjust="spacing" textLength="72.5977" x="355.91" y="196.8207">dni: String</text><text fill="#000000" font-family="sans-serif" font-size="14" lengthAdjust="spacing" textLength="119.6084" x="355.91" y="213.1176">firstName: String</text><text fill="#000000" font-family="sans-serif" font-size="14" lengthAdjust="spacing" textLength="112.5742" x="355.91" y="229.4145">surname: String</text><text fill="#000000" font-family="sans-serif" font-size="14" lengthAdjust="spacing" textLength="108.9854" x="355.91" y="245.7114">birthDate: Date</text><text fill="#000000" font-family="sans-serif" font-size="14" lengthAdjust="spacing" textLength="89.5576" x="355.91" y="262.0082">email: String</text><text fill="#000000" font-family="sans-serif" font-size="14" lengthAdjust="spacing" textLength="117.6602" x="355.91" y="278.3051">password: String</text><path d="M350.91,285.6069 L350.91,285.8871 L360.9779,285.0544 L371.0458,285.8646 L381.1138,286.1398 L391.1817,284.6557 L401.2496,285.5033 L411.3175,285.0382 L421.3854,285.0955 L431.4534,285.516 L441.5213,284.685 L451.5892,286.3451 L461.6571,284.7665 L471.725,285.3432 L481.793,286.1828 L491.8609,285.4925 L501.9288,285.6979 L511.9967,285.5643 L522.0646,285.8449 L532.1326,285.9257 L542.2005,286.3878 L552.2684,285.6069" fill="#CCCCCC" style="stroke:#888888;stroke-width:0.5;"/></g><g class="entity" data-entity="GMN12" data-source-line="59" data-uid="ent0013" id="entity_GMN12"><path d="M699.61,353.61 L700.1705,353.61 L698.5051,362.928 L700.1254,372.246 L700.6758,381.564 L697.7076,390.882 L699.61,400.2 L699.6021,400.1314 L692.6107,400.6234 L685.6591,401.4613 L678.7351,402.5398 L671.7158,402.7895 L664.83,404.2 L664.8862,404.6889 L671.722,404.4434 L678.7219,405.6254 L685.7419,406.9814 L692.6453,407.3243 L699.61,408.2 L699.792,408.2 L699.5248,417.4414 L700.0861,426.6828 L700.2477,435.9241 L701.1718,445.1655 L699.61,454.4069 L699.61,454.4069 L699.61,456.1964 L709.5501,456.2182 L719.4902,455.0859 L729.4303,455.6431 L739.3705,456.2795 L749.3106,452.4837 L759.2507,456.2162 L769.1908,453.6162 L779.1309,455.8304 L789.071,453.0868 L799.0111,454.2242 L808.9513,456.3845 L818.8914,454.2769 L828.8315,454.6877 L838.7716,455.3099 L848.7117,455.5168 L858.6518,454.3965 L868.5919,455.1728 L878.532,452.8804 L888.4722,455.1652 L898.4123,455.8687 L908.3524,455.5923 L918.2925,456.0416 L928.2326,453.1187 L938.1727,452.6677 L948.1128,452.7498 L958.053,454.2499 L967.9931,453.8828 L977.9332,456.224 L987.8733,453.9411 L997.8134,453.4921 L1007.7535,455.0156 L1017.6936,452.6286 L1027.6338,453.0225 L1037.5739,454.4069 L1037.5739,454.4069 L1039.3044,454.4069 L1038.7356,444.3183 L1039.5325,434.2298 L1036.7157,424.1413 L1038.4251,414.0527 L1039.1483,403.9642 L1036.3141,393.8756 L1037.3182,383.7871 L1037.9098,373.6985 L1037.5739,363.61 L1037.9835,364.0197 L1035.5712,361.6074 L1033.8646,359.9007 L1031.2258,357.2619 L1029.1482,355.1843 L1027.5739,353.61 L1027.5739,354.953 L1017.6356,351.6982 L1007.6973,354.9672 L997.759,354.161 L987.8207,352.8956 L977.8824,352.6666 L967.9441,354.8334 L958.0058,352.8118 L948.0675,355.1883 L938.1292,352.136 L928.1909,355.2565 L918.2526,354.9015 L908.3143,354.2632 L898.376,353.7359 L888.4377,355.5476 L878.4994,355.2462 L868.5611,354.0613 L858.6228,354.3252 L848.6845,353.2626 L838.7462,355.5205 L828.8079,354.023 L818.8696,354.0702 L808.9313,351.9877 L798.993,352.5294 L789.0547,355.0253 L779.1164,354.756 L769.1781,353.4955 L759.2398,352.7509 L749.3015,353.0262 L739.3632,351.7802 L729.4249,354.716 L719.4866,355.5822 L709.5483,355.0137 L699.61,353.61 L699.61,353.61" fill="#B3E0FF" style="stroke:#3399CC;stroke-width:0.5;"/><path d="M1027.5739,353.61 L1027.7607,353.61 L1027.2056,355.61 L1027.7457,357.61 L1027.9291,359.61 L1026.9397,361.61 L1027.5739,363.61 L1027.5739,363.5409 L1029.5739,363.2309 L1031.5739,363.2691 L1033.5739,363.5494 L1035.5739,362.9954 L1037.5739,363.61 L1037.9219,363.958 L1035.1777,361.2138 L1033.4496,359.4857 L1031.8454,357.8815 L1029.52,355.5561 L1027.5739,353.61" fill="#B3E0FF" style="stroke:#3399CC;stroke-width:0.5;"/><text fill="#222222" font-family="sans-serif" font-size="13" lengthAdjust="spacing" textLength="282.2231" x="705.61" y="370.6769">- RN-006: A "Teoría" group should not have</text><text fill="#222222" font-family="sans-serif" font-size="13" lengthAdjust="spacing" textLength="316.9639" x="705.61" y="385.8097">more than 75 students, and a "Laboratorio" one,</text><text fill="#222222" font-family="sans-serif" font-size="13" lengthAdjust="spacing" textLength="112.7661" x="705.61" y="400.9425">no more than 25.</text><text fill="#222222" font-family="sans-serif" font-size="13" lengthAdjust="spacing" textLength="289.9102" x="705.61" y="416.0753">- RN-007: A student may not belong to more</text><text fill="#222222" font-family="sans-serif" font-size="13" lengthAdjust="spacing" textLength="276.3135" x="705.61" y="431.2081">than one "Teoría" and "Laboratorio" group</text><text fill="#222222" font-family="sans-serif" font-size="13" lengthAdjust="spacing" textLength="108.7417" x="705.61" y="446.341">for each subject.</text></g><g class="entity" data-entity="GMN15" data-source-line="68" data-uid="ent0016" id="entity_GMN15"><path d="M6,173.75 L6.5605,173.75 L4.8951,183.2682 L6.5154,192.7865 L7.0658,202.3047 L4.0976,211.8229 L5.7928,221.3411 L4.8627,230.8594 L4.9773,240.3776 L5.8182,249.8958 L6,259.4141 L6,259.4141 L6,257.5704 L15.9735,260.8904 L25.9469,257.7333 L35.9204,258.8867 L45.8938,260.5659 L55.8673,259.1853 L65.8408,259.596 L75.8142,259.3289 L85.7877,259.8901 L95.7611,260.0518 L105.7346,260.9759 L115.7081,261.2035 L125.6815,261.2254 L135.655,260.0931 L145.6284,260.6503 L155.6019,261.2867 L165.5754,257.4909 L175.5488,261.2234 L185.5223,258.6234 L195.4957,260.8376 L205.4692,258.094 L215.4427,259.2314 L225.4161,261.3917 L235.3896,259.2841 L245.363,259.6949 L255.3365,260.3171 L265.3099,260.524 L275.2834,259.4036 L285.2569,260.18 L295.2303,257.8876 L305.2038,260.1724 L315.1772,259.4141 L315.1772,259.4141 L315.6645,259.4141 L315.5724,251.7713 L315.7222,244.1284 L314.7478,236.4856 L314.5975,228.8428 L315.1772,221.2 L315.1134,220.6513 L322.0437,220.348 L328.9021,219.4265 L335.8649,219.4016 L342.6495,217.8458 L349.54,217.2 L349.5047,216.8971 L342.6909,216.6015 L335.7264,215.0112 L328.869,214.3417 L322.1165,214.573 L315.1772,213.2 L315.5645,213.2 L315.8301,207.31 L314.8912,201.42 L315.461,195.53 L315.7021,189.64 L315.1772,183.75 L314.8803,183.4531 L313.117,181.6897 L311.2564,179.8292 L309.5869,178.1597 L307.1746,175.7474 L305.1772,173.75 L305.1772,174.9835 L295.2047,172.2732 L285.2321,171.944 L275.2595,175.093 L265.2869,171.8382 L255.3144,175.1072 L245.3418,174.301 L235.3692,173.0356 L225.3966,172.8066 L215.4241,174.9734 L205.4515,172.9518 L195.4789,175.3283 L185.5063,172.276 L175.5338,175.3965 L165.5612,175.0415 L155.5886,174.4032 L145.616,173.8759 L135.6435,175.6876 L125.6709,175.3862 L115.6983,174.2013 L105.7257,174.4652 L95.7532,173.4026 L85.7806,175.6605 L75.808,174.163 L65.8354,174.2102 L55.8629,172.1277 L45.8903,172.6694 L35.9177,175.1653 L25.9451,174.896 L15.9726,173.6355 L6,173.75 L6,173.75" fill="#B3E0FF" style="stroke:#3399CC;stroke-width:0.5;"/><path d="M305.1772,173.75 L305.3641,173.75 L304.809,175.75 L305.3491,177.75 L305.5325,179.75 L304.5431,181.75 L305.1772,183.75 L305.1772,183.6809 L307.1772,183.3709 L309.1772,183.4091 L311.1772,183.6894 L313.1772,183.1354 L315.1772,183.75 L315.5252,184.098 L312.7811,181.3538 L311.0529,179.6257 L309.4487,178.0215 L307.1233,175.6961 L305.1772,173.75" fill="#B3E0FF" style="stroke:#3399CC;stroke-width:0.5;"/><text fill="#222222" font-family="sans-serif" font-size="13" lengthAdjust="spacing" textLength="280.5283" x="12" y="190.8169">- RN-003: A student cannot access through</text><text fill="#222222" font-family="sans-serif" font-size="13" lengthAdjust="spacing" textLength="284.0449" x="12" y="205.9497">"Selectividad" being younger than 16 years</text><text fill="#222222" font-family="sans-serif" font-size="13" lengthAdjust="spacing" textLength="23.9497" x="12" y="221.0825">old.</text><text fill="#222222" font-family="sans-serif" font-size="13" lengthAdjust="spacing" textLength="283.8481" x="12" y="236.2153">- RN-004: A student cannot have grades for</text><text fill="#222222" font-family="sans-serif" font-size="13" lengthAdjust="spacing" textLength="186.9575" x="12" y="251.3481">groups he doesn't belong to.</text></g><g class="entity" data-entity="GMN18" data-source-line="76" data-uid="ent0019" id="entity_GMN18"><path d="M66.03,514.4 L66.5905,514.4 L64.9251,524.4797 L66.5454,534.5594 L67.0958,544.6391 L64.1276,554.7188 L65.8228,564.7984 L64.8927,574.8781 L65.0073,584.9578 L65.8482,595.0375 L64.1863,605.1172 L66.03,615.1969 L66.03,615.1969 L66.03,616.6733 L76.1248,613.5161 L86.2195,614.6695 L96.3143,616.3487 L106.409,614.9681 L116.5038,615.3788 L126.5985,615.1117 L136.6933,615.6729 L146.788,615.8346 L156.8828,616.7587 L166.9776,616.9864 L177.0723,617.0082 L187.1671,615.8759 L197.2618,616.4331 L207.3566,617.0695 L217.4513,613.2737 L227.5461,617.0062 L237.6409,614.4062 L247.7356,616.6204 L257.8304,613.8768 L267.9251,615.0142 L278.0199,617.1745 L288.1146,615.0669 L298.2094,615.4777 L308.3041,616.0999 L318.3989,616.3068 L328.4937,615.1865 L338.5884,615.9628 L348.6832,613.6704 L358.7779,615.9552 L368.8727,616.6587 L378.9674,616.3823 L389.0622,616.8316 L399.157,615.1969 L399.157,615.1969 L397.8687,615.1969 L397.4178,605.9975 L397.4999,596.7981 L398.9999,587.5988 L398.6329,578.3994 L399.157,569.2 L399.2255,569.8018 L406.164,568.2457 L413.1717,567.297 L420.2537,567.0016 L427.1883,565.4111 L434.28,565.2 L434.2278,564.7415 L427.3207,564.9731 L420.2746,563.9848 L413.28,563.4487 L406.1492,561.7158 L399.157,561.2 L399.4407,561.2 L399.6818,553.84 L398.737,546.48 L399.0717,539.12 L399.2689,531.76 L399.157,524.4 L399.5666,524.8097 L397.1543,522.3974 L395.4477,520.6907 L392.8089,518.0519 L390.7313,515.9743 L389.157,514.4 L389.157,515.743 L379.0592,512.4882 L368.9615,515.7572 L358.8638,514.951 L348.7661,513.6856 L338.6684,513.4566 L328.5706,515.6234 L318.4729,513.6018 L308.3752,515.9783 L298.2775,512.926 L288.1798,516.0465 L278.0821,515.6915 L267.9843,515.0532 L257.8866,514.5259 L247.7889,516.3376 L237.6912,516.0362 L227.5935,514.8513 L217.4958,515.1152 L207.398,514.0526 L197.3003,516.3105 L187.2026,514.813 L177.1049,514.8602 L167.0072,512.7777 L156.9095,513.3194 L146.8117,515.8153 L136.714,515.546 L126.6163,514.2855 L116.5186,513.5409 L106.4209,513.8162 L96.3232,512.5702 L86.2254,515.506 L76.1277,516.3722 L66.03,514.4 L66.03,514.4" fill="#B3E0FF" style="stroke:#3399CC;stroke-width:0.5;"/><path d="M389.157,514.4 L389.3438,514.4 L388.7887,516.4 L389.3288,518.4 L389.5122,520.4 L388.5228,522.4 L389.157,524.4 L389.157,524.3309 L391.157,524.0209 L393.157,524.0591 L395.157,524.3394 L397.157,523.7854 L399.157,524.4 L399.5049,524.748 L396.7608,522.0038 L395.0326,520.2757 L393.4284,518.6715 L391.103,516.3461 L389.157,514.4" fill="#B3E0FF" style="stroke:#3399CC;stroke-width:0.5;"/><text fill="#222222" font-family="sans-serif" font-size="13" lengthAdjust="spacing" textLength="290.3164" x="72.03" y="531.4669">- RN-001: For a grade to be with honours, its</text><text fill="#222222" font-family="sans-serif" font-size="13" lengthAdjust="spacing" textLength="263.6372" x="72.03" y="546.5997">value must be equal to or higher than 9.</text><text fill="#222222" font-family="sans-serif" font-size="13" lengthAdjust="spacing" textLength="298.4414" x="72.03" y="561.7325">- RN-002: A student must not have more than</text><text fill="#222222" font-family="sans-serif" font-size="13" lengthAdjust="spacing" textLength="306.4585" x="72.03" y="576.8653">one grade per subject, call and academic year.</text><text fill="#222222" font-family="sans-serif" font-size="13" lengthAdjust="spacing" textLength="312.127" x="72.03" y="591.9981">- RN-005: A grade may not be raised or lowered</text><text fill="#222222" font-family="sans-serif" font-size="13" lengthAdjust="spacing" textLength="148.3066" x="72.03" y="607.131">by more than 4 points.</text></g><!--link Degrees to Subjects--><g class="link" data-entity-1="Degrees" data-entity-2="Subjects" data-source-line="51" data-uid="lnk7" id="link_Degrees_Subjects"><path d="M657.59,80.03 L657.8702,80.03 L657.0376,89.485 L657.8477,98.94 L658.1229,108.395 L656.6388,117.85 L657.4864,127.305 L657.0213,136.76 L657.0787,146.215 L657.59,155.67" fill="none" style="stroke:#181818;stroke-width:1;"/><polygon fill="#000000" points="593.59,104.4164,593.6566,104.4381,592.8709,106.1827,592.4757,108.0543,591.9534,109.8846,591.0127,111.579,590.6511,113.4615,590.6511,113.4356,591.8266,113.3193,593.0022,113.3337,594.1778,113.4388,595.3534,113.231,596.5289,113.4615,596.7044,113.5185,595.7413,111.5876,595.2907,109.8231,594.9025,108.0789,594.1506,106.2166,593.59,104.4164" style="stroke:#000000;stroke-width:1;"/><text fill="#000000" font-family="sans-serif" font-size="13" lengthAdjust="spacing" textLength="54.9644" x="602.59" y="113.9169">taughtIn</text><text fill="#000000" font-family="sans-serif" font-size="13" lengthAdjust="spacing" textLength="8.271" x="648.9264" y="99.7136">1</text><text fill="#000000" font-family="sans-serif" font-size="13" lengthAdjust="spacing" textLength="6.5" x="651.2724" y="144.8339">*</text></g><!--reverse link Subjects to Groups--><g class="link" data-entity-1="Subjects" data-entity-2="Groups" data-source-line="52" data-uid="lnk8" id="link_Subjects_Groups"><path d="M626.24,289.69 L626.5202,289.69 L625.6876,299.6357 L626.4977,309.5814 L626.7729,319.5271 L625.2888,329.4729 L626.1364,339.4186 L625.6713,349.3643 L626.24,359.31" fill="none" style="stroke:#181818;stroke-width:1;"/><polygon fill="#181818" points="626.24,277.69,626.2983,277.7289,625.3251,278.8134,624.6936,280.1257,623.9509,281.3639,622.8421,282.3581,622.24,283.69,622.2184,283.6756,622.9217,284.8111,623.7336,286.0191,624.6211,287.2774,625.2482,288.3622,626.24,289.69,626.3936,289.7924,626.8652,288.3735,627.7851,287.2534,628.7598,286.1699,629.4162,284.8741,630.24,283.69,630.2589,283.7026,629.4311,282.4841,628.6895,281.323,627.9063,280.1342,627.2024,278.9983,626.24,277.69" style="stroke:#181818;stroke-width:1;"/><text fill="#000000" font-family="sans-serif" font-size="13" lengthAdjust="spacing" textLength="4.1323" x="618.5999" y="297.2677"> </text><text fill="#000000" font-family="sans-serif" font-size="13" lengthAdjust="spacing" textLength="23.0356" x="607.8601" y="348.3955">1..*</text></g><!--link Groups to Grades--><g class="link" data-entity-1="Groups" data-entity-2="Grades" data-source-line="53" data-uid="lnk9" id="link_Groups_Grades"><path d="M552.66,448.8 L552.9402,448.8 L552.1076,458.9671 L552.9177,469.1343 L553.1929,479.3014 L551.7088,489.4686 L552.5564,499.6357 L552.0913,509.8029 L552.66,519.97" fill="none" style="stroke:#181818;stroke-width:1;"/><polygon fill="#000000" points="509.66,470.9464,509.7266,470.9681,508.9409,472.7127,508.5457,474.5843,508.0234,476.4146,507.0827,478.109,506.7211,479.9915,506.7211,479.9656,507.8966,479.8493,509.0722,479.8637,510.2478,479.9688,511.4234,479.761,512.5989,479.9915,512.7744,480.0485,511.8113,478.1176,511.3607,476.3531,510.9725,474.6089,510.2206,472.7466,509.66,470.9464" style="stroke:#000000;stroke-width:1;"/><text fill="#000000" font-family="sans-serif" font-size="13" lengthAdjust="spacing" textLength="33.376" x="518.66" y="480.4469">gotIn</text><text fill="#000000" font-family="sans-serif" font-size="13" lengthAdjust="spacing" textLength="8.271" x="539.4033" y="468.5583">1</text><text fill="#000000" font-family="sans-serif" font-size="13" lengthAdjust="spacing" textLength="6.5" x="551.4075" y="509.3607">*</text></g><!--link Students to Groups--><g class="link" data-entity-1="Students" data-entity-2="Groups" data-source-line="54" data-uid="lnk10" id="link_Students_Groups"><path d="M529,293.9 L529.2802,293.9 L528.4476,303.2471 L529.2577,312.5943 L529.5329,321.9414 L528.0488,331.2886 L528.8964,340.6357 L528.4313,349.9829 L529,359.33" fill="none" style="stroke:#181818;stroke-width:1;"/><text fill="#000000" font-family="sans-serif" font-size="13" lengthAdjust="spacing" textLength="66.9741" x="462" y="322.6769">belongsTo</text><text fill="#000000" font-family="sans-serif" font-size="13" lengthAdjust="spacing" textLength="6.5" x="529.8828" y="313.792">*</text><text fill="#000000" font-family="sans-serif" font-size="13" lengthAdjust="spacing" textLength="6.5" x="514.0674" y="348.4186">*</text></g><!--link Students to Grades--><g class="link" data-entity-1="Students" data-entity-2="Grades" data-source-line="55" data-uid="lnk11" id="link_Students_Grades"><path d="M469.66,293.86 L469.9402,293.86 L469.1076,303.7004 L469.9177,313.5409 L470.1929,323.3813 L468.7088,333.2217 L469.5564,343.0622 L469.0913,352.9026 L469.1487,362.743 L469.5691,372.5835 L468.7382,382.4239 L470.3982,392.2643 L468.8196,402.1048 L469.3963,411.9452 L470.2359,421.7857 L469.5456,431.6261 L469.751,441.4665 L469.6174,451.307 L469.898,461.1474 L469.9788,470.9878 L470.4409,480.8283 L470.5547,490.6687 L470.5657,500.5091 L469.9995,510.3496 L469.66,520.19" fill="none" style="stroke:#181818;stroke-width:1;"/><text fill="#000000" font-family="sans-serif" font-size="13" lengthAdjust="spacing" textLength="28.1201" x="440.66" y="403.0869">gets</text><text fill="#000000" font-family="sans-serif" font-size="13" lengthAdjust="spacing" textLength="8.271" x="462.9696" y="313.7484">1</text><text fill="#000000" font-family="sans-serif" font-size="13" lengthAdjust="spacing" textLength="6.5" x="455.9001" y="509.2878">*</text></g><!--SRC=[TLHHRjim3FtNAJZteq2H14swjgkndxL5jm5RFffUGBOPMwiiUPBS81jsf9rY5nibsOwJfYvGn1Rv-1uVgNUwSK8hgBWgDaOuXmgSQP5Lea38XSabCliiLCCDhq4AXMxR86ZZAir69xdarjxo_BaqkbN5dPRQm4aUdbTXsXHekf0FuJaCUT3AnO1C4kYnuvNuXJ1V73roMucGQLcCAIhjy1N3x0BFr-l3g371YukRcpqDFcB7xsGH7iP2TRZ7qY1Q-Cq05AynXPKpGfNqkaLkR0fBxbh39VlJfwpQx0VcxcWEpurMsthq9JTO24SuZqWW4NK72k3jINlC9thP5VfCmfitoZZn8jmsXK_Thv1vY3v2uaKdyeNB5WSsfJ-uurAEAMs4gxvefLil_rPhYLoDvBksGDN9vtcErdv7cgx2a_5l7PL2YH7ZjJ3MBVTLsDOSwCe4pUazT_JD_wSlM7CXHn4DKTYGtSCdudLAQYJtUs4hGGtp_EF4brfn6RR0ijxfP9x0jD0RDONaBDcvcOBZRLcvhme-ik5hGdzdVVXyDgECQ0lht3c0wpgTGgaxfBvT_dGlCAIdaA7KghHFUXJw5YOww-KkQQ8jytCDHX1bqEkUrHGUbzFpyoio0v8drERVNvw0Nw46RALRMVXzeFlZ1O7LsY0ukalW-X9iLtq2TBS0X-GRpxJXJXkX4z0A9rGHTYcBorbVxTfNw_AXvjjG8ke25tDOo26K4IjVPxzAvCdMjAV8yuec9DWmOwW2RsHHjSHr4Drth2ToCIQIS-Lvn14bpeHTLi2I5KeCMrFm8Y6QD4MmfIkcH1ELpQ_YxWEZ6saG-Vu8TcXZ6UqXqgoCfbO8XKQhJaTTU5D3TBUlCa_XWTJpYEgxbs4Sw2fkv0JeDW4MrXZgrleIW3zRcdCAfjIA9g9NSZEmN-nPvDC6_ZjBcVSd5cu8ekl-XDHA6QSYfxDQvA4_0_QbnuvfE_F1S66ny8oatY3TWYpRZcgzXqOBicu6GsF-0m00]--></g></svg>