<svg xmlns="http://www.w3.org/2000/svg" xmlns:xlink="http://www.w3.org/1999/xlink" contentStyleType="text/css" data-diagram-type="CLASS" height="757px" preserveAspectRatio="none" style="width:1475px;height:757px;background:#FFFFFF;" version="1.1" viewBox="0 0 1475 757" width="1475px" zoomAndPan="magnify"><defs/><g><g class="entity" data-entity="d1" data-source-line="11" data-uid="ent0002" id="entity_d1"><rect fill="#FFDDCC" height="53.9063" rx="2.5" ry="2.5" style="stroke:#B96E4C;stroke-width:0.5;" width="214.1777" x="664.68" y="7"/><text fill="#000000" font-family="sans-serif" font-size="12" lengthAdjust="spacing" textLength="63.2344" x="740.1517" y="20.1387">d1:Degree</text><line style="stroke:#B96E4C;stroke-width:0.5;" x1="665.68" x2="877.8577" y1="24.9688" y2="24.9688"/><text fill="#000000" font-family="sans-serif" font-size="12" lengthAdjust="spacing" textLength="202.1777" x="670.68" y="40.1074">name = "Ingenier&#237;a del Software"</text><text fill="#000000" font-family="sans-serif" font-size="12" lengthAdjust="spacing" textLength="58.3418" x="670.68" y="54.0762">years = 4</text></g><g class="entity" data-entity="d2" data-source-line="15" data-uid="ent0003" id="entity_d2"><rect fill="#FFDDCC" height="53.9063" rx="2.5" ry="2.5" style="stroke:#B96E4C;stroke-width:0.5;" width="249.0234" x="914.26" y="7"/><text fill="#000000" font-family="sans-serif" font-size="12" lengthAdjust="spacing" textLength="63.2344" x="1007.1545" y="20.1387">d2:Degree</text><line style="stroke:#B96E4C;stroke-width:0.5;" x1="915.26" x2="1162.2834" y1="24.9688" y2="24.9688"/><text fill="#000000" font-family="sans-serif" font-size="12" lengthAdjust="spacing" textLength="237.0234" x="920.26" y="40.1074">name = "Ingenier&#237;a del Computadores"</text><text fill="#000000" font-family="sans-serif" font-size="12" lengthAdjust="spacing" textLength="58.3418" x="920.26" y="54.0762">years = 4</text></g><g class="entity" data-entity="d3" data-source-line="19" data-uid="ent0004" id="entity_d3"><rect fill="#FFDDCC" height="53.9063" rx="2.5" ry="2.5" style="stroke:#B96E4C;stroke-width:0.5;" width="224.9883" x="1198.28" y="7"/><text fill="#000000" font-family="sans-serif" font-size="12" lengthAdjust="spacing" textLength="63.2344" x="1279.157" y="20.1387">d3:Degree</text><line style="stroke:#B96E4C;stroke-width:0.5;" x1="1199.28" x2="1422.2683" y1="24.9688" y2="24.9688"/><text fill="#000000" font-family="sans-serif" font-size="12" lengthAdjust="spacing" textLength="212.9883" x="1204.28" y="40.1074">name = "Tecnolog&#237;as Inform&#225;ticas"</text><text fill="#000000" font-family="sans-serif" font-size="12" lengthAdjust="spacing" textLength="58.3418" x="1204.28" y="54.0762">years = 4</text></g><g class="entity" data-entity="s1" data-source-line="28" data-uid="ent0005" id="entity_s1"><rect fill="#FFDDCC" height="95.8125" rx="2.5" ry="2.5" style="stroke:#B96E4C;stroke-width:0.5;" width="262.7813" x="929.38" y="120.91"/><text fill="#000000" font-family="sans-serif" font-size="12" lengthAdjust="spacing" textLength="62.7891" x="1029.3761" y="134.0487">s1:Subject</text><line style="stroke:#B96E4C;stroke-width:0.5;" x1="930.38" x2="1191.1613" y1="138.8788" y2="138.8788"/><text fill="#000000" font-family="sans-serif" font-size="12" lengthAdjust="spacing" textLength="250.7813" x="935.38" y="154.0174">name = "Fundamentos de Programaci&#243;n"</text><text fill="#000000" font-family="sans-serif" font-size="12" lengthAdjust="spacing" textLength="95.4844" x="935.38" y="167.9862">acronym = "FP"</text><text fill="#000000" font-family="sans-serif" font-size="12" lengthAdjust="spacing" textLength="73.7754" x="935.38" y="181.9549">credits = 12</text><text fill="#000000" font-family="sans-serif" font-size="12" lengthAdjust="spacing" textLength="52.0898" x="935.38" y="195.9237">year = 1</text><text fill="#000000" font-family="sans-serif" font-size="12" lengthAdjust="spacing" textLength="161.5664" x="935.38" y="209.8924">type = "Formacion B&#225;sica"</text></g><g class="entity" data-entity="s2" data-source-line="35" data-uid="ent0006" id="entity_s2"><rect fill="#FFDDCC" height="95.8125" rx="2.5" ry="2.5" style="stroke:#B96E4C;stroke-width:0.5;" width="186.1758" x="1226.68" y="120.91"/><text fill="#000000" font-family="sans-serif" font-size="12" lengthAdjust="spacing" textLength="62.7891" x="1288.3734" y="134.0487">s2:Subject</text><line style="stroke:#B96E4C;stroke-width:0.5;" x1="1227.68" x2="1411.8558" y1="138.8788" y2="138.8788"/><text fill="#000000" font-family="sans-serif" font-size="12" lengthAdjust="spacing" textLength="174.1758" x="1232.68" y="154.0174">name = "L&#243;gica Inform&#225;tica"</text><text fill="#000000" font-family="sans-serif" font-size="12" lengthAdjust="spacing" textLength="91.5703" x="1232.68" y="167.9862">acronym = "LI"</text><text fill="#000000" font-family="sans-serif" font-size="12" lengthAdjust="spacing" textLength="66.1406" x="1232.68" y="181.9549">credits = 6</text><text fill="#000000" font-family="sans-serif" font-size="12" lengthAdjust="spacing" textLength="52.0898" x="1232.68" y="195.9237">year = 2</text><text fill="#000000" font-family="sans-serif" font-size="12" lengthAdjust="spacing" textLength="107.1445" x="1232.68" y="209.8924">type = "Optativa"</text></g><g class="entity" data-entity="g1" data-source-line="46" data-uid="ent0007" id="entity_g1"><rect fill="#FFDDCC" height="67.875" rx="2.5" ry="2.5" style="stroke:#B96E4C;stroke-width:0.5;" width="122.6309" x="826.45" y="276.72"/><text fill="#000000" font-family="sans-serif" font-size="12" lengthAdjust="spacing" textLength="56.0918" x="859.7195" y="289.8587">g1:Group</text><line style="stroke:#B96E4C;stroke-width:0.5;" x1="827.45" x2="948.0809" y1="294.6888" y2="294.6888"/><text fill="#000000" font-family="sans-serif" font-size="12" lengthAdjust="spacing" textLength="77.7188" x="832.45" y="309.8274">name = "T1"</text><text fill="#000000" font-family="sans-serif" font-size="12" lengthAdjust="spacing" textLength="110.6309" x="832.45" y="323.7962">activity = "Teor&#237;a"</text><text fill="#000000" font-family="sans-serif" font-size="12" lengthAdjust="spacing" textLength="74.9941" x="832.45" y="337.7649">year = 2019</text></g><g class="entity" data-entity="g2" data-source-line="51" data-uid="ent0008" id="entity_g2"><rect fill="#FFDDCC" height="67.875" rx="2.5" ry="2.5" style="stroke:#B96E4C;stroke-width:0.5;" width="153.8965" x="983.82" y="276.72"/><text fill="#000000" font-family="sans-serif" font-size="12" lengthAdjust="spacing" textLength="56.0918" x="1032.7223" y="289.8587">g2:Group</text><line style="stroke:#B96E4C;stroke-width:0.5;" x1="984.82" x2="1136.7165" y1="294.6888" y2="294.6888"/><text fill="#000000" font-family="sans-serif" font-size="12" lengthAdjust="spacing" textLength="77.0742" x="989.82" y="309.8274">name = "L1"</text><text fill="#000000" font-family="sans-serif" font-size="12" lengthAdjust="spacing" textLength="141.8965" x="989.82" y="323.7962">activity = "Laboratorio"</text><text fill="#000000" font-family="sans-serif" font-size="12" lengthAdjust="spacing" textLength="74.9941" x="989.82" y="337.7649">year = 2019</text></g><g class="entity" data-entity="g3" data-source-line="56" data-uid="ent0009" id="entity_g3"><rect fill="#FFDDCC" height="67.875" rx="2.5" ry="2.5" style="stroke:#B96E4C;stroke-width:0.5;" width="153.8965" x="1172.82" y="276.72"/><text fill="#000000" font-family="sans-serif" font-size="12" lengthAdjust="spacing" textLength="56.0918" x="1221.7223" y="289.8587">g3:Group</text><line style="stroke:#B96E4C;stroke-width:0.5;" x1="1173.82" x2="1325.7165" y1="294.6888" y2="294.6888"/><text fill="#000000" font-family="sans-serif" font-size="12" lengthAdjust="spacing" textLength="77.0742" x="1178.82" y="309.8274">name = "L2"</text><text fill="#000000" font-family="sans-serif" font-size="12" lengthAdjust="spacing" textLength="141.8965" x="1178.82" y="323.7962">activity = "Laboratorio"</text><text fill="#000000" font-family="sans-serif" font-size="12" lengthAdjust="spacing" textLength="74.9941" x="1178.82" y="337.7649">year = 2019</text></g><g class="entity" data-entity="st1" data-source-line="66" data-uid="ent0010" id="entity_st1"><rect fill="#FFDDCC" height="123.75" rx="2.5" ry="2.5" style="stroke:#B96E4C;stroke-width:0.5;" width="199.541" x="7" y="498.57"/><text fill="#000000" font-family="sans-serif" font-size="12" lengthAdjust="spacing" textLength="69.873" x="71.834" y="511.7087">st1:Student</text><line style="stroke:#B96E4C;stroke-width:0.5;" x1="8" x2="205.541" y1="516.5388" y2="516.5388"/><text fill="#000000" font-family="sans-serif" font-size="12" lengthAdjust="spacing" textLength="187.541" x="13" y="531.6774">accessMethod = "Selectividad"</text><text fill="#000000" font-family="sans-serif" font-size="12" lengthAdjust="spacing" textLength="116.5664" x="13" y="545.6462">dni = "12345678A"</text><text fill="#000000" font-family="sans-serif" font-size="12" lengthAdjust="spacing" textLength="125.8242" x="13" y="559.6149">firstName = "Daniel"</text><text fill="#000000" font-family="sans-serif" font-size="12" lengthAdjust="spacing" textLength="114.7793" x="13" y="573.5837">surname = "P&#233;rez"</text><text fill="#000000" font-family="sans-serif" font-size="12" lengthAdjust="spacing" textLength="155.3379" x="13" y="587.5524">birthDate = "1991-01-01"</text><text fill="#000000" font-family="sans-serif" font-size="12" lengthAdjust="spacing" textLength="175.5469" x="13" y="601.5212">email = "daniel@alum.us.es"</text><text fill="#000000" font-family="sans-serif" font-size="12" lengthAdjust="spacing" textLength="110.9707" x="13" y="615.4899">password = "pw1"</text></g><g class="entity" data-entity="st2" data-source-line="75" data-uid="ent0011" id="entity_st2"><rect fill="#FFDDCC" height="123.75" rx="2.5" ry="2.5" style="stroke:#B96E4C;stroke-width:0.5;" width="199.541" x="242" y="498.57"/><text fill="#000000" font-family="sans-serif" font-size="12" lengthAdjust="spacing" textLength="69.873" x="306.834" y="511.7087">st2:Student</text><line style="stroke:#B96E4C;stroke-width:0.5;" x1="243" x2="440.541" y1="516.5388" y2="516.5388"/><text fill="#000000" font-family="sans-serif" font-size="12" lengthAdjust="spacing" textLength="187.541" x="248" y="531.6774">accessMethod = "Selectividad"</text><text fill="#000000" font-family="sans-serif" font-size="12" lengthAdjust="spacing" textLength="116.5664" x="248" y="545.6462">dni = "22345678A"</text><text fill="#000000" font-family="sans-serif" font-size="12" lengthAdjust="spacing" textLength="125.5605" x="248" y="559.6149">firstName = "Rafael"</text><text fill="#000000" font-family="sans-serif" font-size="12" lengthAdjust="spacing" textLength="130.875" x="248" y="573.5837">surname = "Ram&#237;rez"</text><text fill="#000000" font-family="sans-serif" font-size="12" lengthAdjust="spacing" textLength="155.3379" x="248" y="587.5524">birthDate = "1992-01-01"</text><text fill="#000000" font-family="sans-serif" font-size="12" lengthAdjust="spacing" textLength="173.502" x="248" y="601.5212">email = "rafael@alum.us.es"</text><text fill="#000000" font-family="sans-serif" font-size="12" lengthAdjust="spacing" textLength="110.9707" x="248" y="615.4899">password = "pw2"</text></g><g class="entity" data-entity="st3" data-source-line="84" data-uid="ent0012" id="entity_st3"><rect fill="#FFDDCC" height="123.75" rx="2.5" ry="2.5" style="stroke:#B96E4C;stroke-width:0.5;" width="199.541" x="477" y="498.57"/><text fill="#000000" font-family="sans-serif" font-size="12" lengthAdjust="spacing" textLength="69.873" x="541.834" y="511.7087">st3:Student</text><line style="stroke:#B96E4C;stroke-width:0.5;" x1="478" x2="675.541" y1="516.5388" y2="516.5388"/><text fill="#000000" font-family="sans-serif" font-size="12" lengthAdjust="spacing" textLength="187.541" x="483" y="531.6774">accessMethod = "Selectividad"</text><text fill="#000000" font-family="sans-serif" font-size="12" lengthAdjust="spacing" textLength="116.5664" x="483" y="545.6462">dni = "32345678A"</text><text fill="#000000" font-family="sans-serif" font-size="12" lengthAdjust="spacing" textLength="130.8281" x="483" y="559.6149">firstName = "Gabriel"</text><text fill="#000000" font-family="sans-serif" font-size="12" lengthAdjust="spacing" textLength="146.748" x="483" y="573.5837">surname = "Hern&#225;ndez"</text><text fill="#000000" font-family="sans-serif" font-size="12" lengthAdjust="spacing" textLength="155.3379" x="483" y="587.5524">birthDate = "1993-01-01"</text><text fill="#000000" font-family="sans-serif" font-size="12" lengthAdjust="spacing" textLength="180.4922" x="483" y="601.5212">email = "gabriel@alum.us.es"</text><text fill="#000000" font-family="sans-serif" font-size="12" lengthAdjust="spacing" textLength="110.9707" x="483" y="615.4899">password = "pw3"</text></g><g class="entity" data-entity="gs1" data-source-line="97" data-uid="ent0013" id="entity_gs1"><rect fill="#FFDDCC" height="33.9688" rx="2.5" ry="2.5" style="stroke:#B96E4C;stroke-width:0.5;" width="129.834" x="294.85" y="404.6"/><text fill="#000000" font-family="sans-serif" font-size="12" lengthAdjust="spacing" textLength="115.834" x="301.85" y="417.7387">gs1:GroupsStudent</text><line style="stroke:#B96E4C;stroke-width:0.5;" x1="295.85" x2="423.684" y1="422.5688" y2="422.5688"/></g><g class="entity" data-entity="gs2" data-source-line="98" data-uid="ent0014" id="entity_gs2"><rect fill="#FFDDCC" height="33.9688" rx="2.5" ry="2.5" style="stroke:#B96E4C;stroke-width:0.5;" width="129.834" x="924.85" y="404.6"/><text fill="#000000" font-family="sans-serif" font-size="12" lengthAdjust="spacing" textLength="115.834" x="931.85" y="417.7387">gs2:GroupsStudent</text><line style="stroke:#B96E4C;stroke-width:0.5;" x1="925.85" x2="1053.684" y1="422.5688" y2="422.5688"/></g><g class="entity" data-entity="gr1" data-source-line="103" data-uid="ent0015" id="entity_gr1"><rect fill="#FFDDCC" height="67.875" rx="2.5" ry="2.5" style="stroke:#B96E4C;stroke-width:0.5;" width="112.8809" x="92.33" y="682.32"/><text fill="#000000" font-family="sans-serif" font-size="12" lengthAdjust="spacing" textLength="60.8145" x="118.3632" y="695.4587">gr1:Grade</text><line style="stroke:#B96E4C;stroke-width:0.5;" x1="93.33" x2="204.2109" y1="700.2888" y2="700.2888"/><text fill="#000000" font-family="sans-serif" font-size="12" lengthAdjust="spacing" textLength="77.1797" x="98.33" y="715.4274">value = 4.50</text><text fill="#000000" font-family="sans-serif" font-size="12" lengthAdjust="spacing" textLength="82.623" x="98.33" y="729.3962">gradeCall = 1</text><text fill="#000000" font-family="sans-serif" font-size="12" lengthAdjust="spacing" textLength="100.8809" x="98.33" y="743.3649">withHonours = 0</text></g><g class="entity" data-entity="gr2" data-source-line="108" data-uid="ent0016" id="entity_gr2"><rect fill="#FFDDCC" height="67.875" rx="2.5" ry="2.5" style="stroke:#B96E4C;stroke-width:0.5;" width="112.8809" x="536.33" y="682.32"/><text fill="#000000" font-family="sans-serif" font-size="12" lengthAdjust="spacing" textLength="60.8145" x="562.3632" y="695.4587">gr2:Grade</text><line style="stroke:#B96E4C;stroke-width:0.5;" x1="537.33" x2="648.2109" y1="700.2888" y2="700.2888"/><text fill="#000000" font-family="sans-serif" font-size="12" lengthAdjust="spacing" textLength="77.1797" x="542.33" y="715.4274">value = 5.00</text><text fill="#000000" font-family="sans-serif" font-size="12" lengthAdjust="spacing" textLength="82.623" x="542.33" y="729.3962">gradeCall = 1</text><text fill="#000000" font-family="sans-serif" font-size="12" lengthAdjust="spacing" textLength="100.8809" x="542.33" y="743.3649">withHonours = 0</text></g><g class="entity" data-entity="gr3" data-source-line="113" data-uid="ent0017" id="entity_gr3"><rect fill="#FFDDCC" height="67.875" rx="2.5" ry="2.5" style="stroke:#B96E4C;stroke-width:0.5;" width="112.8809" x="980.33" y="682.32"/><text fill="#000000" font-family="sans-serif" font-size="12" lengthAdjust="spacing" textLength="60.8145" x="1006.3632" y="695.4587">gr3:Grade</text><line style="stroke:#B96E4C;stroke-width:0.5;" x1="981.33" x2="1092.2109" y1="700.2888" y2="700.2888"/><text fill="#000000" font-family="sans-serif" font-size="12" lengthAdjust="spacing" textLength="77.1797" x="986.33" y="715.4274">value = 6.00</text><text fill="#000000" font-family="sans-serif" font-size="12" lengthAdjust="spacing" textLength="82.623" x="986.33" y="729.3962">gradeCall = 1</text><text fill="#000000" font-family="sans-serif" font-size="12" lengthAdjust="spacing" textLength="100.8809" x="986.33" y="743.3649">withHonours = 0</text></g><g class="entity" data-entity="gr4" data-source-line="118" data-uid="ent0018" id="entity_gr4"><rect fill="#FFDDCC" height="67.875" rx="2.5" ry="2.5" style="stroke:#B96E4C;stroke-width:0.5;" width="112.8809" x="240.33" y="682.32"/><text fill="#000000" font-family="sans-serif" font-size="12" lengthAdjust="spacing" textLength="60.8145" x="266.3632" y="695.4587">gr4:Grade</text><line style="stroke:#B96E4C;stroke-width:0.5;" x1="241.33" x2="352.2109" y1="700.2888" y2="700.2888"/><text fill="#000000" font-family="sans-serif" font-size="12" lengthAdjust="spacing" textLength="77.1797" x="246.33" y="715.4274">value = 7.00</text><text fill="#000000" font-family="sans-serif" font-size="12" lengthAdjust="spacing" textLength="82.623" x="246.33" y="729.3962">gradeCall = 2</text><text fill="#000000" font-family="sans-serif" font-size="12" lengthAdjust="spacing" textLength="100.8809" x="246.33" y="743.3649">withHonours = 0</text></g><g class="entity" data-entity="gr5" data-source-line="123" data-uid="ent0019" id="entity_gr5"><rect fill="#FFDDCC" height="67.875" rx="2.5" ry="2.5" style="stroke:#B96E4C;stroke-width:0.5;" width="112.8809" x="684.33" y="682.32"/><text fill="#000000" font-family="sans-serif" font-size="12" lengthAdjust="spacing" textLength="60.8145" x="710.3632" y="695.4587">gr5:Grade</text><line style="stroke:#B96E4C;stroke-width:0.5;" x1="685.33" x2="796.2109" y1="700.2888" y2="700.2888"/><text fill="#000000" font-family="sans-serif" font-size="12" lengthAdjust="spacing" textLength="77.1797" x="690.33" y="715.4274">value = 9.00</text><text fill="#000000" font-family="sans-serif" font-size="12" lengthAdjust="spacing" textLength="82.623" x="690.33" y="729.3962">gradeCall = 2</text><text fill="#000000" font-family="sans-serif" font-size="12" lengthAdjust="spacing" textLength="100.8809" x="690.33" y="743.3649">withHonours = 1</text></g><g class="entity" data-entity="gr6" data-source-line="128" data-uid="ent0020" id="entity_gr6"><rect fill="#FFDDCC" height="67.875" rx="2.5" ry="2.5" style="stroke:#B96E4C;stroke-width:0.5;" width="112.8809" x="1128.33" y="682.32"/><text fill="#000000" font-family="sans-serif" font-size="12" lengthAdjust="spacing" textLength="60.8145" x="1154.3632" y="695.4587">gr6:Grade</text><line style="stroke:#B96E4C;stroke-width:0.5;" x1="1129.33" x2="1240.2109" y1="700.2888" y2="700.2888"/><text fill="#000000" font-family="sans-serif" font-size="12" lengthAdjust="spacing" textLength="77.1797" x="1134.33" y="715.4274">value = 9.00</text><text fill="#000000" font-family="sans-serif" font-size="12" lengthAdjust="spacing" textLength="82.623" x="1134.33" y="729.3962">gradeCall = 2</text><text fill="#000000" font-family="sans-serif" font-size="12" lengthAdjust="spacing" textLength="100.8809" x="1134.33" y="743.3649">withHonours = 0</text></g><g class="entity" data-entity="gr7" data-source-line="133" data-uid="ent0021" id="entity_gr7"><rect fill="#FFDDCC" height="67.875" rx="2.5" ry="2.5" style="stroke:#B96E4C;stroke-width:0.5;" width="112.8809" x="388.33" y="682.32"/><text fill="#000000" font-family="sans-serif" font-size="12" lengthAdjust="spacing" textLength="60.8145" x="414.3632" y="695.4587">gr7:Grade</text><line style="stroke:#B96E4C;stroke-width:0.5;" x1="389.33" x2="500.2109" y1="700.2888" y2="700.2888"/><text fill="#000000" font-family="sans-serif" font-size="12" lengthAdjust="spacing" textLength="84.8145" x="394.33" y="715.4274">value = 10.00</text><text fill="#000000" font-family="sans-serif" font-size="12" lengthAdjust="spacing" textLength="82.623" x="394.33" y="729.3962">gradeCall = 3</text><text fill="#000000" font-family="sans-serif" font-size="12" lengthAdjust="spacing" textLength="100.8809" x="394.33" y="743.3649">withHonours = 0</text></g><g class="entity" data-entity="gr8" data-source-line="138" data-uid="ent0022" id="entity_gr8"><rect fill="#FFDDCC" height="67.875" rx="2.5" ry="2.5" style="stroke:#B96E4C;stroke-width:0.5;" width="112.8809" x="832.33" y="682.32"/><text fill="#000000" font-family="sans-serif" font-size="12" lengthAdjust="spacing" textLength="60.8145" x="858.3632" y="695.4587">gr8:Grade</text><line style="stroke:#B96E4C;stroke-width:0.5;" x1="833.33" x2="944.2109" y1="700.2888" y2="700.2888"/><text fill="#000000" font-family="sans-serif" font-size="12" lengthAdjust="spacing" textLength="77.1797" x="838.33" y="715.4274">value = 5.50</text><text fill="#000000" font-family="sans-serif" font-size="12" lengthAdjust="spacing" textLength="82.623" x="838.33" y="729.3962">gradeCall = 3</text><text fill="#000000" font-family="sans-serif" font-size="12" lengthAdjust="spacing" textLength="100.8809" x="838.33" y="743.3649">withHonours = 0</text></g><g class="entity" data-entity="gr9" data-source-line="143" data-uid="ent0023" id="entity_gr9"><rect fill="#FFDDCC" height="67.875" rx="2.5" ry="2.5" style="stroke:#B96E4C;stroke-width:0.5;" width="112.8809" x="1276.33" y="682.32"/><text fill="#000000" font-family="sans-serif" font-size="12" lengthAdjust="spacing" textLength="60.8145" x="1302.3632" y="695.4587">gr9:Grade</text><line style="stroke:#B96E4C;stroke-width:0.5;" x1="1277.33" x2="1388.2109" y1="700.2888" y2="700.2888"/><text fill="#000000" font-family="sans-serif" font-size="12" lengthAdjust="spacing" textLength="77.1797" x="1282.33" y="715.4274">value = 6.00</text><text fill="#000000" font-family="sans-serif" font-size="12" lengthAdjust="spacing" textLength="82.623" x="1282.33" y="729.3962">gradeCall = 2</text><text fill="#000000" font-family="sans-serif" font-size="12" lengthAdjust="spacing" textLength="100.8809" x="1282.33" y="743.3649">withHonours = 1</text></g><!--link d3 to s1--><g class="link" data-entity-1="d3" data-entity-2="s1" data-source-line="152" data-uid="lnk24" id="link_d3_s1"><path codeLine="152" d="M1261.08,61.36 C1229.32,78.24 1187.23,100.61 1149.83,120.48" fill="none" id="d3-s1" style="stroke:#181818;stroke-width:1;"/></g><!--link d3 to s2--><g class="link" data-entity-1="d3" data-entity-2="s2" data-source-line="153" data-uid="lnk25" id="link_d3_s2"><path codeLine="153" d="M1312.55,61.2 C1313.7,78.14 1315.22,100.67 1316.57,120.65" fill="none" id="d3-s2" style="stroke:#181818;stroke-width:1;"/></g><!--reverse link s1 to g1--><g class="link" data-entity-1="s1" data-entity-2="g1" data-source-line="155" data-uid="lnk26" id="link_s1_g1"><path codeLine="155" d="M992.8665,224.7022 C968.8465,244.1122 950.95,258.59 929.08,276.27" fill="none" id="s1-backto-g1" style="stroke:#181818;stroke-width:1;"/><polygon fill="#181818" points="1002.2,217.16,995.0192,217.8199,992.8665,224.7022,1000.0473,224.0423,1002.2,217.16" style="stroke:#181818;stroke-width:1;"/></g><!--reverse link s1 to g2--><g class="link" data-entity-1="s1" data-entity-2="g2" data-source-line="156" data-uid="lnk27" id="link_s1_g2"><path codeLine="156" d="M1060.77,229.16 C1060.77,248.65 1060.77,258.77 1060.77,276.48" fill="none" id="s1-backto-g2" style="stroke:#181818;stroke-width:1;"/><polygon fill="#181818" points="1060.77,217.16,1056.77,223.16,1060.77,229.16,1064.77,223.16,1060.77,217.16" style="stroke:#181818;stroke-width:1;"/></g><!--reverse link s1 to g3--><g class="link" data-entity-1="s1" data-entity-2="g3" data-source-line="157" data-uid="lnk28" id="link_s1_g3"><path codeLine="157" d="M1134.4061,224.2981 C1160.6361,243.7081 1180.75,258.59 1204.64,276.27" fill="none" id="s1-backto-g3" style="stroke:#181818;stroke-width:1;"/><polygon fill="#181818" points="1124.76,217.16,1127.2037,223.9444,1134.4061,224.2981,1131.9624,217.5137,1124.76,217.16" style="stroke:#181818;stroke-width:1;"/></g><!--link g1 to gs1--><g class="link" data-entity-1="g1" data-entity-2="gs1" data-source-line="159" data-uid="lnk29" id="link_g1_gs1"><path codeLine="159" d="M826.17,324.37 C725.79,345.07 527.84,385.91 425.1,407.1" fill="none" id="g1-gs1" style="stroke:#181818;stroke-width:1;"/></g><!--link g3 to gs2--><g class="link" data-entity-1="g3" data-entity-2="gs2" data-source-line="160" data-uid="lnk30" id="link_g3_gs2"><path codeLine="160" d="M1172.56,345.05 C1166.55,347.62 1160.56,350.16 1154.77,352.6 C1112.37,370.46 1063.64,390.48 1030.19,404.14" fill="none" id="g3-gs2" style="stroke:#181818;stroke-width:1;"/></g><!--link gs1 to st1--><g class="link" data-entity-1="gs1" data-entity-2="st1" data-source-line="162" data-uid="lnk31" id="link_gs1_st1"><path codeLine="162" d="M325.63,439.05 C298.15,452.47 258.67,472.16 224.77,490.57 C218.93,493.73 212.96,497.03 206.95,500.4" fill="none" id="gs1-st1" style="stroke:#181818;stroke-width:1;"/></g><!--link gs2 to st1--><g class="link" data-entity-1="gs2" data-entity-2="st1" data-source-line="163" data-uid="lnk32" id="link_gs2_st1"><path codeLine="163" d="M924.53,424.72 C764.2,430.57 354.51,449.22 224.77,490.57 C218.1,492.69 211.41,495.24 204.77,498.09" fill="none" id="gs2-st1" style="stroke:#181818;stroke-width:1;"/></g><!--link g1 to gr1--><g class="link" data-entity-1="g1" data-entity-2="gr1" data-source-line="165" data-uid="lnk33" id="link_g1_gr1"><path codeLine="165" d="M858.49,344.83 C828.92,379.46 783.24,436.2 751.77,490.57 C717.99,548.91 747.15,590.47 692.77,630.32 C608.15,692.31 323.01,643.38 222.77,674.32 C216.32,676.31 209.79,678.9 203.43,681.83" fill="none" id="g1-gr1" style="stroke:#181818;stroke-width:1;"/></g><!--link g1 to gr2--><g class="link" data-entity-1="g1" data-entity-2="gr2" data-source-line="166" data-uid="lnk34" id="link_g1_gr2"><path codeLine="166" d="M891.86,345.05 C897.73,409.17 900.73,550.25 826.77,630.32 C776.73,684.49 735.07,646.49 666.77,674.32 C661.06,676.64 655.23,679.31 649.48,682.14" fill="none" id="g1-gr2" style="stroke:#181818;stroke-width:1;"/></g><!--link g1 to gr3--><g class="link" data-entity-1="g1" data-entity-2="gr3" data-source-line="167" data-uid="lnk35" id="link_g1_gr3"><path codeLine="167" d="M949.56,344.48 C955.34,347.31 961.14,350.05 966.77,352.6 C1024.99,378.89 1064.68,351.88 1100.77,404.6 C1160.18,491.38 1095.32,621.6 1058.54,682.13" fill="none" id="g1-gr3" style="stroke:#181818;stroke-width:1;"/></g><!--link g1 to gr4--><g class="link" data-entity-1="g1" data-entity-2="gr4" data-source-line="168" data-uid="lnk36" id="link_g1_gr4"><path codeLine="168" d="M876.16,344.91 C848.65,422.84 780.01,612.04 755.77,630.32 C687.01,682.15 452.79,648.08 370.77,674.32 C364.34,676.37 357.83,679.01 351.47,681.96" fill="none" id="g1-gr4" style="stroke:#181818;stroke-width:1;"/></g><!--link g1 to gr5--><g class="link" data-entity-1="g1" data-entity-2="gr5" data-source-line="169" data-uid="lnk37" id="link_g1_gr5"><path codeLine="169" d="M949.39,343.73 C955.25,346.74 961.12,349.73 966.77,352.6 C1013.22,376.13 1044.31,360.35 1071.77,404.6 C1079.73,417.42 1077.21,424.48 1071.77,438.57 C1015.94,583.16 951.06,600.5 814.77,674.32 C809.22,677.32 803.44,680.47 797.68,683.64" fill="none" id="g1-gr5" style="stroke:#181818;stroke-width:1;"/></g><!--link g1 to gr6--><g class="link" data-entity-1="g1" data-entity-2="gr6" data-source-line="170" data-uid="lnk38" id="link_g1_gr6"><path codeLine="170" d="M949.38,344.9 C955.19,347.64 961.05,350.25 966.77,352.6 C1039.09,382.25 1083.52,345.58 1134.77,404.6 C1203.72,483.99 1197.25,619.64 1189.79,682.05" fill="none" id="g1-gr6" style="stroke:#181818;stroke-width:1;"/></g><!--link g3 to gr7--><g class="link" data-entity-1="g3" data-entity-2="gr7" data-source-line="171" data-uid="lnk39" id="link_g3_gr7"><path codeLine="171" d="M1216.73,344.98 C1148.47,411.6 984.05,560.75 814.77,630.32 C691.75,680.87 644.75,631.67 518.77,674.32 C512.51,676.43 506.17,679.07 499.96,681.98" fill="none" id="g3-gr7" style="stroke:#181818;stroke-width:1;"/></g><!--link g3 to gr8--><g class="link" data-entity-1="g3" data-entity-2="gr8" data-source-line="172" data-uid="lnk40" id="link_g3_gr8"><path codeLine="172" d="M1266.26,344.87 C1295.32,408.68 1346.23,549.25 1275.77,630.32 C1229.69,683.33 1029.39,652.05 962.77,674.32 C956.5,676.41 950.15,679.03 943.94,681.93" fill="none" id="g3-gr8" style="stroke:#181818;stroke-width:1;"/></g><!--link g3 to gr9--><g class="link" data-entity-1="g3" data-entity-2="gr9" data-source-line="173" data-uid="lnk41" id="link_g3_gr9"><path codeLine="173" d="M1327.05,334.39 C1361.17,348.7 1397.96,371 1417.77,404.6 C1468.72,491.01 1456.18,537.64 1417.77,630.32 C1409.46,650.36 1393.88,668.13 1378.3,682.18" fill="none" id="g3-gr9" style="stroke:#181818;stroke-width:1;"/></g><!--link st1 to gr1--><g class="link" data-entity-1="st1" data-entity-2="gr1" data-source-line="175" data-uid="lnk42" id="link_st1_gr1"><path codeLine="175" d="M123.49,622.67 C129.03,642.95 134.98,664.74 139.71,682.08" fill="none" id="st1-gr1" style="stroke:#181818;stroke-width:1;"/></g><!--link st2 to gr2--><g class="link" data-entity-1="st2" data-entity-2="gr2" data-source-line="176" data-uid="lnk43" id="link_st2_gr2"><path codeLine="176" d="M441.69,622.67 C474.64,642.86 510.04,664.56 538.29,681.87" fill="none" id="st2-gr2" style="stroke:#181818;stroke-width:1;"/></g><!--link st3 to gr3--><g class="link" data-entity-1="st3" data-entity-2="gr3" data-source-line="177" data-uid="lnk44" id="link_st3_gr3"><path codeLine="177" d="M676.8,584.23 C755.98,603.79 868.52,635.03 962.77,674.32 C968.46,676.69 974.28,679.38 980.02,682.23" fill="none" id="st3-gr3" style="stroke:#181818;stroke-width:1;"/></g><!--link st1 to gr4--><g class="link" data-entity-1="st1" data-entity-2="gr4" data-source-line="178" data-uid="lnk45" id="link_st1_gr4"><path codeLine="178" d="M182.41,622.67 C207.35,642.86 234.15,664.56 255.53,681.87" fill="none" id="st1-gr4" style="stroke:#181818;stroke-width:1;"/></g><!--link st2 to gr5--><g class="link" data-entity-1="st2" data-entity-2="gr5" data-source-line="179" data-uid="lnk46" id="link_st2_gr5"><path codeLine="179" d="M441.77,622.63 C447.77,625.42 453.8,628.01 459.77,630.32 C547.5,664.23 578.66,641.41 666.77,674.32 C672.68,676.52 678.7,679.15 684.62,681.98" fill="none" id="st2-gr5" style="stroke:#181818;stroke-width:1;"/></g><!--link st3 to gr6--><g class="link" data-entity-1="st3" data-entity-2="gr6" data-source-line="180" data-uid="lnk47" id="link_st3_gr6"><path codeLine="180" d="M676.68,573.53 C785.87,588.79 964.71,619.87 1110.77,674.32 C1116.69,676.52 1122.7,679.14 1128.62,681.97" fill="none" id="st3-gr6" style="stroke:#181818;stroke-width:1;"/></g><!--link st1 to gr7--><g class="link" data-entity-1="st1" data-entity-2="gr7" data-source-line="181" data-uid="lnk48" id="link_st1_gr7"><path codeLine="181" d="M207.01,622.04 C212.95,624.98 218.9,627.76 224.77,630.32 C286.91,657.36 308.32,647.99 370.77,674.32 C376.45,676.71 382.26,679.42 388,682.28" fill="none" id="st1-gr7" style="stroke:#181818;stroke-width:1;"/></g><!--link st2 to gr8--><g class="link" data-entity-1="st2" data-entity-2="gr8" data-source-line="182" data-uid="lnk49" id="link_st2_gr8"><path codeLine="182" d="M440.2,622.67 C446.7,625.53 453.25,628.11 459.77,630.32 C610.39,681.2 663.57,625.16 814.77,674.32 C821.05,676.36 827.41,678.95 833.63,681.83" fill="none" id="st2-gr8" style="stroke:#181818;stroke-width:1;"/></g><!--link st3 to gr9--><g class="link" data-entity-1="st3" data-entity-2="gr9" data-source-line="183" data-uid="lnk50" id="link_st3_gr9"><path codeLine="183" d="M676.79,567.32 C812.08,577.64 1059.41,604.99 1258.77,674.32 C1264.87,676.44 1271.06,679.04 1277.13,681.89" fill="none" id="st3-gr9" style="stroke:#181818;stroke-width:1;"/></g><!--SRC=[bPRDRjf04CVlVWgB7YfL2iBh3t2aIasW995e6uMym68lZXjx5-skWqYLXycnXvpo27wnpjh6zc8W1N6O3BE_cV_CVaGyndI5EKvDjlXD0cd-CKpuNEBWCU8ie-6O9OoRdwRJoMGyBdzZF2Iyyb_wtdUdz4yPbPLtK7ngxpn-9gQ5Z1V3a2mYye5mo6DyDYSaueG8eyhT2wtpqjKpiJ13gwY6ufIONytU3Oq8ZGdFtx0PaiISiwLSOqvw4BCXc0i8SY173KCQ31s5ZLcwoYGE6IVY8D3MWBO6l2S11V4H08LvGvUCf_chZ0FSmNMwCC-A14qRX7LU-OfCGk_35AO29fKCYY3cBMSHp0y7SVvELIuSS4OtQH5wgnm19s4iLNgOGLcBii6KcrM9X6e1mAXvcRyAABhNaYsGNetUo5d-7i42JV9E5RCRlGglAGArYlYrabZ6JqNkbvqMNS5UN3KDYgppmbCK5EdjkRVAz82AvQOS3LDpxhNI3Yo_fJ12RToElWvkXXUCOybup8uWxJPItoepT1Aokrza5iBuM_j5meOfdUM8PDaI70H4Y1-mb8KgpPmafCWQub3b2Mcit1Qo7TSRZYwKRnbp8NzMbKumd954kKN6j-NVvdyvULREHSpbmmJBmctvldKsK5_r4qbnd2XtM22-uIHB-vdebwThXOLOmpMY0bPhIzjj4kreGQTeGGUrtE4bxcYvmsd-Ta0DsgE65v2ZQf2knjvHOv-YnZwevWelU7SqruJJ_9M6-mNPUmH59UUe8bifKj_jEUnim4XK1rAqnOAt5O7sHY2ZSz9ns7eH8gx8u2hZURcndw1SfShfk-gLYLJ062T9TQsjO_bmpIZBYZjtq3wM76aufE7S_k1KdAtXR0tddOvpD9oZuOPT7Fe0vseuLyFv_uEpD9oduRpJSNfrGmqtr73MeCkpF-2DDDvePxJkgJXVm_aVZNP_y-3KmAQ-4885CRnkZ8eYo4pmWYJ2W7yYpixWWTyQS1pWjVy2PcJL5gejsp3WjLCMB8diqe8ry6UnN88NtkVAtCPogxPGRTcrvTIMMrlUbiw7jJMgBH-gb3LRtT0LN5rl5RqES9e0jmdmce1X4p1g0ln_]--></g></svg>