<svg xmlns="http://www.w3.org/2000/svg" xmlns:xlink="http://www.w3.org/1999/xlink" contentStyleType="text/css" data-diagram-type="CLASS" height="295px" preserveAspectRatio="none" style="width:282px;height:295px;background:#FFFFFF;" version="1.1" viewBox="0 0 282 295" width="282px" zoomAndPan="magnify"><defs/><g><!--class SubjectType--><g class="entity" data-entity="SubjectType" data-source-line="11" data-uid="ent0002" id="entity_SubjectType"><polygon fill="#CCCCCC" points="14.56,7,14.56,7.2102,24.6146,6.5857,34.6692,7.1933,44.7238,7.3997,54.7784,6.2866,64.8331,6.9223,74.8877,6.5735,84.9423,6.6165,94.9969,6.9318,105.0515,6.3086,115.1061,7.5536,125.1607,6.3697,135.2153,6.8022,145.27,7,145.3251,7.133,145.6126,7.12,145.9858,7.3139,146.3265,7.4295,146.7069,7.6408,147.0377,7.7322,147.1114,7.7627,147.3645,8.1605,147.5373,8.5249,147.6863,8.8795,147.7019,9.1789,147.77,9.5,148.2335,9.5,148.4722,19.2828,147.0488,29.0656,148.4485,38.8484,147.4735,48.6313,148.3038,58.4141,147.2749,68.1969,147.7015,77.9797,148.5116,87.7625,147.7212,97.5453,147.77,107.3281,147.8024,107.3416,147.7278,107.7249,147.6053,108.0883,147.3294,108.3883,147.2726,108.779,147.0377,109.0959,146.9647,108.9196,146.7205,109.3299,146.4005,109.5576,146.0338,109.6721,145.7017,109.8705,145.27,109.8281,145.27,109.345,135.2153,109.1759,125.1607,109.2067,115.1061,109.7692,105.0515,109.6316,94.9969,110.5095,84.9423,109.6534,74.8877,109.4851,64.8331,110.0564,54.7784,109.1613,44.7238,109.309,34.6692,110.4771,24.6146,110.2638,14.56,109.8281,14.6537,110.0543,14.1654,109.5826,13.8936,109.6335,13.5747,109.5706,13.0855,109.0969,12.7922,109.0959,12.7627,109.0837,12.6846,108.7584,12.7001,108.4719,12.3516,108.0347,12.3489,107.7407,12.06,107.3281,11.5062,107.3281,11.3827,97.5453,12.5636,87.7625,11.3431,77.9797,12.569,68.1969,12.2666,58.4141,11.7921,48.6312,11.7062,38.8484,12.5188,29.0656,11.7607,19.2828,12.06,9.5,12.2423,9.5755,12.0362,9.0759,12.543,8.8717,12.6485,8.5011,12.7212,8.117,12.7922,7.7322,12.7983,7.7468,13.2385,7.8096,13.5776,7.6283,13.8745,7.345,14.2407,7.229,14.56,7" style="stroke:#888888;stroke-width:0.5;"/><text fill="#000000" font-family="sans-serif" font-size="12" font-style="italic" lengthAdjust="spacing" textLength="83.7949" x="38.0175" y="23.1387">«Enumerado»</text><text fill="#000000" font-family="sans-serif" font-size="12" font-weight="bold" lengthAdjust="spacing" textLength="83.6133" x="38.1083" y="37.1074">SubjectType</text><path d="M13.06,44.9375 L13.06,45.2177 L23.3454,44.3851 L33.6308,45.1952 L43.9161,45.4704 L54.2015,43.9863 L64.4869,44.8339 L74.7723,44.3688 L85.0577,44.4262 L95.3431,44.8466 L105.6284,44.0157 L115.9138,45.6757 L126.1992,44.0971 L136.4846,44.6738 L146.77,44.9375" fill="#CCCCCC" style="stroke:#888888;stroke-width:0.5;"/><text fill="#000000" font-family="sans-serif" font-size="14" lengthAdjust="spacing" textLength="123.71" x="18.06" y="61.9326">Formación Básica</text><text fill="#000000" font-family="sans-serif" font-size="14" lengthAdjust="spacing" textLength="77.4307" x="18.06" y="78.2295">Obligatoria</text><text fill="#000000" font-family="sans-serif" font-size="14" lengthAdjust="spacing" textLength="60.2178" x="18.06" y="94.5264">Optativa</text><path d="M13.06,101.8281 L13.06,102.1084 L23.3454,101.2757 L33.6308,102.0858 L43.9161,102.361 L54.2015,100.8769 L64.4869,101.7245 L74.7723,101.2595 L85.0577,101.3168 L95.3431,101.7372 L105.6284,100.9063 L115.9138,102.5663 L126.1992,100.9878 L136.4846,101.5644 L146.77,101.8281" fill="#CCCCCC" style="stroke:#888888;stroke-width:0.5;"/></g><!--class ActivityType--><g class="entity" data-entity="ActivityType" data-source-line="17" data-uid="ent0003" id="entity_ActivityType"><polygon fill="#CCCCCC" points="185.2,15.15,185.2,15.3602,194.9146,14.7357,204.6293,15.3433,214.3439,15.5497,224.0585,14.4366,233.7731,15.0723,243.4878,14.7235,253.2024,14.7665,262.917,15.0818,272.6316,15.15,272.5434,14.9371,273.0558,15.4669,273.2583,15.2488,273.6671,15.5284,274.101,15.8688,274.3994,15.8822,274.373,15.8713,274.5669,16.2445,274.6825,16.5853,274.8937,16.9657,275.0588,17.327,275.1316,17.65,275.7173,17.65,275.8027,27.8414,275.8109,38.0328,275.3863,48.2242,275.5952,58.4156,275.8339,68.607,274.4105,78.7984,275.8102,88.9898,275.1316,99.1812,275.0403,99.1434,275.1496,99.6029,274.6863,99.8252,274.6712,100.2332,274.7742,100.6901,274.3994,100.949,274.3932,100.934,274.0593,101.1279,273.7355,101.3462,273.3918,101.5165,272.9847,101.5336,272.6316,101.6812,272.6316,101.9685,262.917,101.1088,253.2024,101.9656,243.4878,102.2294,233.7731,102.1258,224.0585,102.2943,214.3439,101.1982,204.6293,101.0291,194.9146,101.0598,185.2,101.6812,185.1925,101.6631,184.8214,101.4743,184.5798,101.5982,184.1171,101.1881,183.742,100.9898,183.4322,100.949,183.5025,100.9781,183.0804,100.5104,182.9795,100.1757,183.1927,99.9711,182.9806,99.5904,182.7,99.1812,183.4345,99.1812,182.3782,88.9898,183.0192,78.7984,183.2904,68.607,182.2276,58.4156,182.6041,48.2242,182.826,38.0328,183.3518,27.8414,182.7,17.65,182.6987,17.6495,182.9889,17.3555,182.8223,16.8723,182.9308,16.5029,183.4409,16.3,183.4322,15.8822,183.3408,15.6614,183.8507,15.8925,184.1657,15.653,184.4587,15.3604,184.8013,15.1875,185.2,15.15" style="stroke:#888888;stroke-width:0.5;"/><text fill="#000000" font-family="sans-serif" font-size="12" font-style="italic" lengthAdjust="spacing" textLength="83.7949" x="187.0184" y="31.2887">«Enumerado»</text><text fill="#000000" font-family="sans-serif" font-size="12" font-weight="bold" lengthAdjust="spacing" textLength="84.4805" x="186.6756" y="45.2574">ActivityType</text><path d="M183.7,53.0875 L183.7,53.3677 L193.748,52.5351 L203.7959,53.3452 L213.8439,53.6204 L223.8918,52.1363 L233.9398,52.9839 L243.9878,52.5188 L254.0357,52.5762 L264.0837,52.9966 L274.1316,53.0875" fill="#CCCCCC" style="stroke:#888888;stroke-width:0.5;"/><text fill="#000000" font-family="sans-serif" font-size="14" lengthAdjust="spacing" textLength="43.9551" x="188.7" y="70.0826">Teoría</text><text fill="#000000" font-family="sans-serif" font-size="14" lengthAdjust="spacing" textLength="80.4316" x="188.7" y="86.3795">Laboratorio</text><path d="M183.7,93.6812 L183.7,93.9615 L193.748,93.1288 L203.7959,93.939 L213.8439,94.2142 L223.8918,92.7301 L233.9398,93.5776 L243.9878,93.1126 L254.0357,93.1699 L264.0837,93.5904 L274.1316,93.6812" fill="#CCCCCC" style="stroke:#888888;stroke-width:0.5;"/></g><!--class AccessType--><g class="entity" data-entity="AccessType" data-source-line="22" data-uid="ent0004" id="entity_AccessType"><polygon fill="#CCCCCC" points="9.5,169.82,9.5,170.0302,19.5591,169.4057,29.6182,170.0133,39.6772,170.2197,49.7363,169.1066,59.7954,169.7423,69.8545,169.3935,79.9136,169.4365,89.9727,169.7518,100.0317,169.1286,110.0908,170.3736,120.1499,169.1897,130.209,169.6222,140.2681,170.2519,150.3271,169.82,150.3162,169.7936,150.6894,169.9875,151.0302,170.1031,151.4106,170.3143,151.7719,170.4794,152.0949,170.5522,152.2753,170.6269,152.448,170.9914,152.597,171.346,152.6127,171.6454,152.8235,172.0256,152.8271,172.32,153.5294,172.32,152.106,182.695,153.5057,193.07,152.5306,203.445,153.361,213.82,152.3321,224.195,152.7586,234.57,153.5688,244.945,152.7784,255.32,152.9325,265.695,153.1658,276.07,152.8271,286.445,152.9553,286.4981,152.6795,286.7981,152.6227,287.1887,152.2115,287.4326,152.3289,287.8955,152.0949,288.2128,152.1648,288.3816,151.7981,288.4961,151.466,288.6944,150.9726,288.5033,150.5975,288.5977,150.3271,288.945,150.3271,288.3236,140.2681,288.8861,130.209,288.7485,120.1499,289.6264,110.0908,288.7703,100.0317,288.6019,89.9727,289.1733,79.9136,288.2782,69.8545,288.4259,59.7954,289.594,49.7363,289.3807,39.6772,289.6795,29.6182,288.6232,19.5591,289.2642,9.5,288.945,9.5753,289.1268,9.0862,288.6531,8.7807,288.6226,8.4554,288.5445,8.1689,288.5599,7.7322,288.2128,7.7309,288.2122,7.7282,287.9182,7.2688,287.435,7.0843,287.0657,7.3015,286.8628,7,286.445,6.2831,286.445,7.509,276.07,7.2066,265.695,6.7321,255.32,6.6462,244.945,7.4588,234.57,6.7007,224.195,7.5919,213.82,6.4473,203.445,7.6174,193.07,7.4843,182.695,7,172.32,7.0754,172.3512,7.161,171.9725,7.5167,171.7056,7.6283,171.3376,7.6379,170.9274,7.7322,170.5522,7.7664,170.6348,8.0692,170.3657,8.5307,170.48,8.8126,170.1606,9.1685,170.0196,9.5,169.82" style="stroke:#888888;stroke-width:0.5;"/><text fill="#000000" font-family="sans-serif" font-size="12" font-style="italic" lengthAdjust="spacing" textLength="83.7949" x="38.0161" y="185.9587">«Enumerado»</text><text fill="#000000" font-family="sans-serif" font-size="12" font-weight="bold" lengthAdjust="spacing" textLength="78.6738" x="40.5767" y="199.9274">AccessType</text><path d="M8,207.7575 L8,208.0377 L18.2734,207.2051 L28.5467,208.0152 L38.8201,208.2904 L49.0935,206.8063 L59.3668,207.6539 L69.6402,207.1888 L79.9136,207.2462 L90.1869,207.6666 L100.4603,206.8357 L110.7337,208.4957 L121.007,206.9171 L131.2804,207.4938 L141.5538,208.3334 L151.8271,207.7575" fill="#CCCCCC" style="stroke:#888888;stroke-width:0.5;"/><text fill="#000000" font-family="sans-serif" font-size="14" lengthAdjust="spacing" textLength="85.6064" x="13" y="224.7526">Selectividad</text><text fill="#000000" font-family="sans-serif" font-size="14" lengthAdjust="spacing" textLength="33.8174" x="13" y="241.0495">Ciclo</text><text fill="#000000" font-family="sans-serif" font-size="14" lengthAdjust="spacing" textLength="43.2646" x="13" y="257.3464">Mayor</text><text fill="#000000" font-family="sans-serif" font-size="14" lengthAdjust="spacing" textLength="133.8271" x="13" y="273.6432">Titulado Extranjero</text><path d="M8,280.945 L8,281.2252 L18.2734,280.3926 L28.5467,281.2027 L38.8201,281.4779 L49.0935,279.9938 L59.3668,280.8414 L69.6402,280.3763 L79.9136,280.4337 L90.1869,280.8541 L100.4603,280.0232 L110.7337,281.6832 L121.007,280.1046 L131.2804,280.6813 L141.5538,281.5209 L151.8271,280.945" fill="#CCCCCC" style="stroke:#888888;stroke-width:0.5;"/></g><!--SRC=[TOynJWD134NxEOKH1JLK554a4YLL4CNc0juPAt4oErvvlC22E0m7eE88kHYpcnG84ZVMz___IRwIrbWIR3655sKpIc3QaTjo8F2iFf9pUS-fHSK6VCISP-Zt6vKkXRb4KRZsu_oBYGRIK-H-dB-HfIGx1kfOeEViYjy8Rk_EMjP7WbfYSEu65gbhI75u9pig0ggktf6tTTyIJ2OdFyXq2kyEO2dQeEV3TuBPuJEpnt9ygYDlq4HvLAqLtZEw3tSaFlWYsVeBo3M97hw6vWfhqP4ZlygUShvGhIZI20yOYfopZrBs8_QY0vcjYoKDYrTJJ3lImlq1]--></g></svg>