<?xml version="1.0" encoding="us-ascii" standalone="no"?><svg xmlns="http://www.w3.org/2000/svg" xmlns:xlink="http://www.w3.org/1999/xlink" contentStyleType="text/css" height="311px" preserveAspectRatio="none" style="width:355px;height:311px;" version="1.1" viewBox="0 0 355 311" width="355px" zoomAndPan="magnify"><defs/><g><!--class Veh?culo--><g id="elem_Veh&#237;culo"><rect codeLine="3" fill="#D3D3D3" height="78.5313" id="Veh&#237;culo" rx="2.5" ry="2.5" style="stroke:#000000;stroke-width:0.5;" width="106" x="137.7406" y="130"/><text fill="#000000" font-family="Arial" font-size="13" font-weight="bold" x="159.7406" y="147.0669">Veh&#237;culo</text><line style="stroke:#000000;stroke-width:0.5;" x1="138.7406" x2="242.7406" y1="155.1328" y2="155.1328"/><text fill="#000000" font-family="Arial" font-size="13" x="143.7406" y="171.1997">marca: String</text><text fill="#000000" font-family="Arial" font-size="13" x="143.7406" y="186.3325">modelo: String</text><text fill="#000000" font-family="Arial" font-size="13" x="143.7406" y="201.4653">a&#241;o: Integer</text></g><!--class Coche--><g id="elem_Coche"><rect codeLine="9" fill="#D3D3D3" height="63.3984" id="Coche" rx="2.5" ry="2.5" style="stroke:#000000;stroke-width:0.5;" width="164" x="17.7406" y="7"/><text fill="#000000" font-family="Arial" font-size="13" font-weight="bold" x="77.2406" y="24.0669">Coche</text><line style="stroke:#000000;stroke-width:0.5;" x1="18.7406" x2="180.7406" y1="32.1328" y2="32.1328"/><text fill="#000000" font-family="Arial" font-size="13" x="23.7406" y="48.1997">numeroPuertas: Integer</text><text fill="#000000" font-family="Arial" font-size="13" x="23.7406" y="63.3325">tipoTransmision: String</text></g><!--class Moto--><g id="elem_Moto"><rect codeLine="14" fill="#D3D3D3" height="63.3984" id="Moto" rx="2.5" ry="2.5" style="stroke:#000000;stroke-width:0.5;" width="131" x="217.2406" y="7"/><text fill="#000000" font-family="Arial" font-size="13" font-weight="bold" x="264.2406" y="24.0669">Moto</text><line style="stroke:#000000;stroke-width:0.5;" x1="218.2406" x2="347.2406" y1="32.1328" y2="32.1328"/><text fill="#000000" font-family="Arial" font-size="13" x="223.2406" y="48.1997">cilindrada: Integer</text><text fill="#000000" font-family="Arial" font-size="13" x="223.2406" y="63.3325">tipoManillar: String</text></g><g id="elem_GMN7"><path d="M81.7406,269 L81.7406,304.6094 L299.7406,304.6094 L299.7406,279 L289.7406,269 L81.7406,269 " fill="#FFD700" style="stroke:#000000;stroke-width:0.5;"/><path d="M289.7406,269 L289.7406,279 L299.7406,279 L289.7406,269 " fill="#FFD700" style="stroke:#000000;stroke-width:1.0;"/><text fill="#000000" font-family="Arial" font-size="11" x="87.7406" y="284.2104">Un veh&#237;culo puede ser un coche</text><text fill="#000000" font-family="Arial" font-size="11" x="87.7406" y="297.0151">o una moto, o ninguno de los dos.</text></g><!--link Coche to Veh?culo--><g id="link_Coche_Veh&#237;culo"><path codeLine="19" d="M121.3106,70.07 C133.9206,87.95 139.5836,95.9922 153.0736,115.1122 " fill="none" id="Coche-to-Veh&#237;culo" style="stroke:#000000;stroke-width:1.0;"/><polygon fill="none" points="163.4506,129.82,157.9762,111.6532,148.171,118.5712,163.4506,129.82" style="stroke:#000000;stroke-width:1.0;"/><text fill="#000000" font-family="Arial" font-size="12" x="6" y="119.2926">{incompleta,disjunta}</text></g><!--link Moto to Veh?culo--><g id="link_Moto_Veh&#237;culo"><path codeLine="20" d="M260.9406,70.07 C248.1806,87.95 242.4091,96.043 228.7791,115.163 " fill="none" id="Moto-to-Veh&#237;culo" style="stroke:#000000;stroke-width:1.0;"/><polygon fill="none" points="218.3306,129.82,233.6648,118.6458,223.8934,111.6801,218.3306,129.82" style="stroke:#000000;stroke-width:1.0;"/></g><!--link Veh?culo to GMN7--><g id="link_Veh&#237;culo_GMN7"><path d="M190.7406,209.28 C190.7406,229.47 190.7406,253.13 190.7406,268.78 " fill="none" id="Veh&#237;culo-GMN7" style="stroke:#000000;stroke-width:1.0;stroke-dasharray:7.0,7.0;"/></g><!--SRC=[NL0nKWCn3Epz2f4woGCeQAWeCiCCX5xOIY96bcvicIRaIHIy8H_3kGoN6pgjjDgLzeurIai4ErQKDRSi8KJ1Mk6D3kVlsCJW600obeZtyEA5TN_1baXiri3pJuTFwhId4av_AeyM3pGgQCjKxBbHSQmt9e3pOAy5jMQkR3ffJXeRy-iHaOKr5KpuVt-3oY9OvijNwzNgwm4Mn_wdvK78SPcuVZHrF2rkFuRHO-JEca7D2TxDtJBORZO1s2fyJWaDZNg6bGeqXJZwTefrX3qfjsMljP_LrA0JnIeag-j0ck3YyGi0]--></g></svg>