<?xml version="1.0" encoding="us-ascii" standalone="no"?><svg xmlns="http://www.w3.org/2000/svg" xmlns:xlink="http://www.w3.org/1999/xlink" contentStyleType="text/css" height="295px" preserveAspectRatio="none" style="width:387px;height:295px;" version="1.1" viewBox="0 0 387 295" width="387px" zoomAndPan="magnify"><defs/><g><!--class Persona--><g id="elem_Persona"><rect codeLine="4" fill="#D3D3D3" height="63.3984" id="Persona" rx="2.5" ry="2.5" style="stroke:#000000;stroke-width:0.5;" width="159" x="115.5" y="102"/><text fill="#000000" font-family="Arial" font-size="13" font-weight="bold" x="165" y="119.0669">Persona</text><line style="stroke:#000000;stroke-width:0.5;" x1="116.5" x2="273.5" y1="127.1328" y2="127.1328"/><text fill="#000000" font-family="Arial" font-size="13" x="121.5" y="143.1997">nombre: String</text><text fill="#000000" font-family="Arial" font-size="13" x="121.5" y="158.3325">fechaNacimiento: Date</text></g><!--class Empleado--><g id="elem_Empleado"><rect codeLine="9" fill="#D3D3D3" height="63.3984" id="Empleado" rx="2.5" ry="2.5" style="stroke:#000000;stroke-width:0.5;" width="172" x="7" y="225"/><text fill="#000000" font-family="Arial" font-size="13" font-weight="bold" x="56" y="242.0669">Empleado</text><line style="stroke:#000000;stroke-width:0.5;" x1="8" x2="178" y1="250.1328" y2="250.1328"/><text fill="#000000" font-family="Arial" font-size="13" x="13" y="266.1997">numeroEmpleado: String</text><text fill="#000000" font-family="Arial" font-size="13" x="13" y="281.3325">salario: Double</text></g><!--class Estudiante--><g id="elem_Estudiante"><rect codeLine="14" fill="#D3D3D3" height="63.3984" id="Estudiante" rx="2.5" ry="2.5" style="stroke:#000000;stroke-width:0.5;" width="166" x="214" y="225"/><text fill="#000000" font-family="Arial" font-size="13" font-weight="bold" x="257.5" y="242.0669">Estudiante</text><line style="stroke:#000000;stroke-width:0.5;" x1="215" x2="379" y1="250.1328" y2="250.1328"/><text fill="#000000" font-family="Arial" font-size="13" x="220" y="266.1997">numeroMatricula: String</text><text fill="#000000" font-family="Arial" font-size="13" x="220" y="281.3325">a&#241;oIngreso: Integer</text></g><g id="elem_GMN7"><path d="M89,6 L89,41.6094 L301,41.6094 L301,16 L291,6 L89,6 " fill="#FFD700" style="stroke:#000000;stroke-width:0.5;"/><path d="M291,6 L291,16 L301,16 L291,6 " fill="#FFD700" style="stroke:#000000;stroke-width:1.0;"/><text fill="#000000" font-family="Arial" font-size="11" x="95" y="21.2104">Cada persona es un empleado o</text><text fill="#000000" font-family="Arial" font-size="11" x="95" y="34.0151">un estudiante, pero no ambos.</text></g><!--link Persona to Empleado--><g id="link_Persona_Empleado"><path codeLine="19" d="M169.26,165.03 C153.8,183.38 145.7914,192.8774 130.3314,211.2174 " fill="none" id="Persona-to-Empleado" style="stroke:#000000;stroke-width:1.0;"/><polygon fill="none" points="118.73,224.98,134.9189,215.0846,125.7439,207.3503,118.73,224.98" style="stroke:#000000;stroke-width:1.0;"/><text fill="#000000" font-family="Arial" font-size="12" x="21.6294" y="184.5501">{completa,disjunta}</text></g><!--link Persona to Estudiante--><g id="link_Persona_Estudiante"><path codeLine="20" d="M220.74,165.03 C236.2,183.38 244.2086,192.8774 259.6686,211.2174 " fill="none" id="Persona-to-Estudiante" style="stroke:#000000;stroke-width:1.0;"/><polygon fill="none" points="271.27,224.98,264.2561,207.3503,255.0811,215.0846,271.27,224.98" style="stroke:#000000;stroke-width:1.0;"/></g><!--link GMN7 to Persona--><g id="link_GMN7_Persona"><path d="M195,42.27 C195,58.3 195,82.51 195,101.82 " fill="none" id="GMN7-Persona" style="stroke:#000000;stroke-width:1.0;stroke-dasharray:7.0,7.0;"/></g><!--SRC=[JP0xRWCn34HxdO9nRVi0Bj8aALmaCE0JS2Nkch54BlGf0iU7oXboiKY8jTXsCFDco2SMwuiZ65dGxxa4RzALPSQ80JpBzPo_F876V55ZhCUKu4GngI3S381e628Tu9mZorI5aUm5Fz1oO9Ai1tZ5JERUiszXzeHE_yCbKDGkhI09FKPkOIs3NyTJBevHCgq0xrXpjdXS4V3tHuyoHKgLSgp-YMB3zEsRczNMct7hE7qMoNZVm6xt_GpBniNya9TkOqJhWgmpwDZVKKjVq27CZn0bA0BKxrMeXYOib6spQlqWO1WqxGs9WmOsVm00]--></g></svg>